<?xml version="1.0" encoding="UTF-8"?>
<svg width="24px" height="24px" viewBox="0 0 24 24" version="1.1" xmlns="http://www.w3.org/2000/svg" xmlns:xlink="http://www.w3.org/1999/xlink">
    <title>Icon/Power/Filled</title>
    <g id="Icon/Power/Filled" stroke="none" stroke-width="1" fill="none" fill-rule="evenodd">
        <path d="M12,18.3 C12.7455844,18.3 13.35,18.9044156 13.35,19.65 C13.35,20.3955844 12.7455844,21 12,21 C11.2544156,21 10.65,20.3955844 10.65,19.65 C10.65,18.9044156 11.2544156,18.3 12,18.3 Z M14.7,3 C15.1970563,3 15.6,3.40294373 15.6,3.9 L15.6,7.5 L17.4,7.5 C17.8970563,7.5 18.3,7.90294373 18.3,8.4 L18.3,11.1 L18.2963469,11.3165848 C18.1821888,14.695695 15.4069066,17.4 12,17.4 C8.59309345,17.4 5.81781119,14.695695 5.70365312,11.3165848 L5.7,11.1 L5.7,8.4 C5.7,7.90294373 6.10294373,7.5 6.6,7.5 L8.4,7.5 L8.4,3.9 C8.4,3.40294373 8.80294373,3 9.3,3 C9.79705627,3 10.2,3.40294373 10.2,3.9 L10.2,7.5 L13.8,7.5 L13.8,3.9 C13.8,3.40294373 14.2029437,3 14.7,3 Z M12,9.3 C10.5088312,9.3 9.3,10.5088312 9.3,12 C9.3,13.4911688 10.5088312,14.7 12,14.7 C13.4911688,14.7 14.7,13.4911688 14.7,12 C14.7,10.5088312 13.4911688,9.3 12,9.3 Z" id="Shape" fill="#FFFFFF"></path>
    </g>
</svg>