<?xml version="1.0" encoding="UTF-8"?>
<svg width="24px" height="24px" viewBox="0 0 24 24" version="1.1" xmlns="http://www.w3.org/2000/svg" xmlns:xlink="http://www.w3.org/1999/xlink">
    <title>Icon/Power/Outline</title>
    <g id="Icon/Power/Outline" stroke="none" stroke-width="1" fill="none" fill-rule="evenodd">
        <path d="M14.25,3 C15.440864,3 16.4156449,3.92516159 16.4948092,5.09595119 L16.5,5.25 L16.5,6.75 L16.6540488,6.75519081 C17.7206066,6.82730733 18.5833246,7.642671 18.7284816,8.68756053 L18.7448092,8.84595119 L18.75,9 L18.7497867,11.2752968 L18.7461005,11.4811336 C18.6529759,14.2376465 16.9114554,16.5664581 14.4843244,17.5278644 C14.5757554,17.7929809 14.625,18.0782396 14.625,18.375 C14.625,19.8247475 13.4497475,21 12,21 C10.5502525,21 9.375,19.8247475 9.375,18.375 C9.375,18.0782396 9.42424457,17.7929809 9.51500781,17.5269498 C7.16678158,16.5960204 5.45994596,14.3806624 5.2674292,11.7229941 L5.25325759,11.4557841 L5.25,11.25 L5.25,9 C5.25,7.80913601 6.17516159,6.83435508 7.34595119,6.75519081 L7.499,6.75 L7.5,5.25 C7.5,4.11326619 8.34296748,3.17341798 9.43788437,3.02147347 L9.59595119,3.00519081 L9.75,3 C10.940864,3 11.9156449,3.92516159 11.9948092,5.09595119 L12,5.25 C12,4.11326619 12.8429675,3.17341798 13.9378844,3.02147347 L14.0959512,3.00519081 L14.25,3 Z M12,17.25 C11.5443651,17.25 11.1519947,17.5208677 10.9751312,17.9103608 L10.9712464,17.9219921 C10.9091931,18.0592156 10.875,18.2131147 10.875,18.375 C10.875,18.954899 11.3137609,19.4323199 11.8774189,19.4933987 L12,19.5 L12.1225811,19.4933987 C12.6862391,19.4323199 13.125,18.954899 13.125,18.375 C13.125,17.7536797 12.6213203,17.25 12,17.25 Z M9.75,4.5 C9.37030423,4.5 9.05650904,4.78215388 9.00684662,5.14822944 L9,5.25 L9,8.25 L7.5,8.25 C7.12030423,8.25 6.80650904,8.53215388 6.75684662,8.89822944 L6.75,9 L6.75,11.25 L6.75304426,11.4304873 C6.82733262,13.6294431 8.25392602,15.4854827 10.2274572,16.193239 L10.4951848,16.2811554 C10.9718809,16.4235278 11.47701,16.5 12,16.5 C12.52299,16.5 13.0281191,16.4235278 13.5048152,16.2811554 L13.5592987,16.2631051 C15.5706168,15.6398777 17.0640043,13.8381735 17.2338583,11.6647408 L17.2469557,11.4304873 L17.25,11.25 L17.25,9 C17.25,8.62030423 16.9678461,8.30650904 16.6017706,8.25684662 L16.5,8.25 L15,8.25 L15,5.25 C15,4.83578644 14.6642136,4.5 14.25,4.5 C13.8703042,4.5 13.556509,4.78215388 13.5068466,5.14822944 L13.5,5.25 L13.5,8.25 L10.5,8.25 L10.5,5.25 C10.5,4.83578644 10.1642136,4.5 9.75,4.5 Z M12,10 C10.8954305,10 10,10.8954305 10,12 C10,13.1045695 10.8954305,14 12,14 C13.1045695,14 14,13.1045695 14,12 C14,10.8954305 13.1045695,10 12,10 Z" id="Shape" fill="#FFFFFF"></path>
    </g>
</svg>