<svg width="24" height="24" viewBox="0 0 24 24" fill="none" xmlns="http://www.w3.org/2000/svg">
<title>Icon/Help/Filled</title>
<path d="M12 3C16.9706 3 21 7.02944 21 12C21 16.9706 16.9706 21 12 21C7.02944 21 3 16.9706 3 12C3 7.02944 7.02944 3 12 3ZM11.7812 14.4834C11.1669 14.4834 10.6671 14.8786 10.667 15.4912C10.667 16.104 11.1669 16.5 11.7812 16.5C12.3955 16.4998 12.9004 16.1038 12.9004 15.4912C12.9002 14.8787 12.3954 14.4836 11.7812 14.4834ZM12.0371 7.5C10.4499 7.5 8.91977 8.26596 9.00293 10.1553H10.8721C10.8849 9.54897 11.2432 9.08309 11.915 9.08301C12.4334 9.08301 12.9268 9.36411 12.9268 10.0088C12.9266 10.5703 12.5297 10.8324 11.9346 11.2217C11.1538 11.7132 10.7438 12.3642 10.8398 13.3535L10.8525 13.6406H12.6641V13.334C12.6641 12.6511 12.9587 12.4535 13.7139 11.9492C14.3346 11.5343 15 11.0424 15 9.90625C14.9999 8.29154 13.6433 7.50009 12.0371 7.5Z" fill="#FFFFFF"/>
</svg>
