<svg width="24" height="24" viewBox="0 0 24 24" fill="none" xmlns="http://www.w3.org/2000/svg">
<title>Icon/Help/Outline</title>
<path d="M12 3C16.9706 3 21 7.02944 21 12C21 16.9706 16.9706 21 12 21C7.02944 21 3 16.9706 3 12C3 7.02944 7.02944 3 12 3ZM12 4.5C7.85786 4.5 4.5 7.85786 4.5 12C4.5 16.1421 7.85786 19.5 12 19.5C16.1421 19.5 19.5 16.1421 19.5 12C19.5 7.85786 16.1421 4.5 12 4.5ZM11.8086 14.7041C12.3371 14.7041 12.7762 15.0731 12.7764 15.6016C12.7764 16.1302 12.3373 16.5 11.8086 16.5C11.2799 16.5 10.8467 16.1302 10.8467 15.6016C10.8469 15.0731 11.28 14.7041 11.8086 14.7041ZM12.0381 7.5C13.5221 7.50007 14.834 8.25843 14.834 9.8125C14.8338 10.9141 14.1846 11.4239 13.5732 11.8633C12.8281 12.4046 12.5411 12.6082 12.541 13.3086V13.6465H11.0254L11.0186 13.2578C10.9549 12.3026 11.4391 11.6974 12.1523 11.207C12.7447 10.7867 13.1337 10.5064 13.1338 9.90137C13.1338 9.14979 12.5538 8.83107 11.9424 8.83105C11.1399 8.83105 10.7193 9.37895 10.7129 10.0859H9.17188C9.11457 8.19425 10.605 7.5 12.0381 7.5Z" fill="#FFFFFF"/>
</svg>
