<svg width="20" height="20" viewBox="0 0 20 20" fill="none" xmlns="http://www.w3.org/2000/svg">
<path fill-rule="evenodd" clip-rule="evenodd" d="M9.76444 4.21549C9.91569 4.15059 10.0868 4.15058 10.2381 4.21549L17.9708 7.17773C18.4554 7.38606 18.4556 8.07387 17.9708 8.28205L15.2128 9.34244L15.6694 13.466C15.7374 13.9781 15.4799 14.4791 15.0232 14.7209L14.7107 14.8861C11.9968 16.3226 8.76081 16.2982 6.0828 14.8608C6.05686 15.373 5.71397 15.5352 5.29749 15.5045C4.8175 15.4664 4.23074 15.1279 3.71708 14.6142C3.20349 14.1006 2.86482 13.5138 2.82678 13.0338C2.79178 12.5569 3.01021 12.1755 3.71708 12.2575C3.89679 12.3221 4.06903 12.3579 4.22815 12.3673C4.70944 12.3982 5.0692 12.1693 5.18437 11.8367C5.35884 11.3458 5.42719 10.7864 5.45374 10.201C5.45982 10.0093 5.49038 9.81784 5.54244 9.63134L2.0317 8.28205C1.57717 8.08687 1.54858 7.47036 1.94625 7.22248L2.0317 7.17773L9.76444 4.21549ZM6.72082 10.0846C6.71087 10.1416 6.70422 10.1995 6.70211 10.258C6.67183 10.9006 6.60024 11.5813 6.36275 12.2542C6.23906 12.6017 6.18331 12.9843 6.14547 13.4513C6.50319 13.6804 6.87559 13.8774 7.25793 14.0438C8.27836 14.6168 9.16787 11.6667 8.7512 10.8333C8.7512 10.8333 8.17849 10.6591 7.82922 10.5111L6.72082 10.0846ZM4.08166 7.7303L6.17069 8.53352C6.43406 8.26057 6.75964 8.04622 7.13098 7.92724L9.11096 7.26724C9.24152 7.22372 9.37266 7.17974 9.50321 7.13622C9.66026 7.08395 9.83201 7.09649 9.9801 7.1704C10.1282 7.24445 10.2409 7.37472 10.2934 7.53173C10.3458 7.68875 10.3339 7.86051 10.2601 8.00862C10.1859 8.15688 10.0552 8.27033 9.89791 8.32274C9.76751 8.36621 9.63687 8.40949 9.50647 8.45295L7.60624 9.08609L10.0013 10.0073L15.92 7.7303L10.0013 5.46223L4.08166 7.7303Z" stroke="white" stroke-width="1.5" fill="none"/>
</svg>

