<svg width="20" height="20" viewBox="0 0 20 20" fill="currentColor" xmlns="http://www.w3.org/2000/svg">
<path fill-rule="evenodd" clip-rule="evenodd" d="M9.76442 4.21543C9.91567 4.15052 10.0868 4.15052 10.238 4.21543L17.9708 7.17767C18.4555 7.38597 18.4556 8.07381 17.9708 8.282L15.2128 9.34238L15.6694 13.4659C15.7374 13.9781 15.4799 14.479 15.0232 14.7208L14.7107 14.886C11.9968 16.3226 8.76077 16.2982 6.08278 14.8608C6.05684 15.373 5.71394 15.5351 5.29746 15.5045C4.81749 15.4664 4.23069 15.1278 3.71705 14.6142C3.20349 14.1005 2.86479 13.5137 2.82675 13.0338C2.79176 12.5569 3.01025 12.1755 3.71705 12.2574C3.89674 12.322 4.06902 12.3579 4.22812 12.3673C4.70941 12.3981 5.06917 12.1692 5.18434 11.8367C5.35881 11.3457 5.42716 10.7863 5.45371 10.2009C5.45978 10.0096 5.49048 9.81836 5.54241 9.6321L2.03167 8.282C1.57716 8.08682 1.54861 7.47032 1.94622 7.22243L2.03167 7.17767L9.76442 4.21543ZM10.0012 11.3468L6.7208 10.0846C6.71085 10.1415 6.70419 10.1994 6.70208 10.2579C6.67181 10.9005 6.60021 11.5812 6.36272 12.2542C6.23903 12.6017 6.18328 12.9843 6.14544 13.4513C8.55092 14.9919 11.6003 15.1175 14.1256 13.7809L14.4291 13.6197L14.0068 9.80625L10.0012 11.3468ZM4.08164 7.73024L6.17067 8.53346C6.43402 8.26052 6.75962 8.04617 7.13095 7.92718L9.11093 7.26719C9.24147 7.22368 9.37265 7.17968 9.50319 7.13617C9.66021 7.0839 9.832 7.09646 9.98007 7.17035C10.1282 7.24439 10.2409 7.37468 10.2934 7.53167C10.3457 7.6887 10.3339 7.86045 10.26 8.00856C10.1859 8.15682 10.0551 8.27027 9.89788 8.32269C9.7675 8.36615 9.63682 8.40944 9.50644 8.4529L7.60621 9.08604L10.0012 10.0073L15.92 7.73024L10.0012 5.46217L4.08164 7.73024Z" fill="currentColor"/>
</svg>
