<svg width="24" height="24" viewBox="0 0 24 24" fill="none" xmlns="http://www.w3.org/2000/svg">
<g id="Filled=yes">
<g id="Union">
<path fill-rule="evenodd" clip-rule="evenodd" d="M17.7929 3.70811C18.051 4.95459 19.0309 5.92083 20.2808 6.16133L21.5491 6.40536C22.1479 6.5206 22.1512 7.37579 21.5534 7.50324L20.2871 7.77315C20.1616 7.79992 20.0388 7.83397 19.9193 7.87484L19.8589 7.89621C19.7633 7.93107 19.6698 7.97033 19.5788 8.01375L19.407 8.1022L19.199 8.22794L19.0078 8.36397L18.8817 8.46608L18.7257 8.60813L18.5482 8.79522L18.5141 8.83486C18.1704 9.24082 17.9264 9.7339 17.8187 10.277L17.5668 11.5471C17.5192 11.787 17.3538 11.9323 17.1646 11.9821L17.0684 11.999L16.9709 12C16.7437 11.9837 16.5268 11.837 16.469 11.5583L16.2071 10.2934C15.949 9.04693 14.9691 8.0807 13.7192 7.8402L12.4509 7.59616C11.8521 7.48092 11.8488 6.62574 12.4466 6.49828L13.7129 6.22837C14.0799 6.15014 14.4231 6.00961 14.731 5.81835L14.855 5.73483C15.0545 5.59855 15.2376 5.43996 15.4007 5.26264L15.557 5.07921L15.681 4.91111L15.8191 4.69171L15.8633 4.61207L15.9374 4.46503L15.9602 4.41405C15.9699 4.3926 15.9799 4.37129 15.9891 4.3496L15.9916 4.34352C16.0747 4.14656 16.1387 3.93948 16.1813 3.72456L16.4332 2.45442C16.5522 1.8548 17.4073 1.84607 17.531 2.44321L17.7929 3.70811Z" fill="currentColor"/>
<path fill-rule="evenodd" clip-rule="evenodd" d="M9.74335 8.62049L10.11 10.3914C10.4714 12.1364 11.8433 13.4892 13.5931 13.8259L15.3688 14.1675C16.207 14.3288 16.2117 15.5261 15.3748 15.7045L13.602 16.0824C13.4262 16.1199 13.2543 16.1676 13.087 16.2248L13.0024 16.2547C12.8686 16.3035 12.7378 16.3585 12.6103 16.4193L12.3698 16.5431L12.0786 16.7191L11.811 16.9096L11.6343 17.0525L11.416 17.2514L11.1675 17.5133L11.1198 17.5688C10.6386 18.1371 10.297 18.8275 10.1462 19.5877L9.79345 21.366C9.72682 21.7017 9.49532 21.9052 9.23041 21.9749L9.09578 21.9986L8.95924 22C8.64125 21.9772 8.33745 21.7718 8.25665 21.3816L7.88996 19.6108C7.52859 17.8657 6.15674 16.513 4.40692 16.1763L2.63123 15.8346C1.79296 15.6733 1.78825 14.476 2.62519 14.2976L4.39805 13.9197C4.91188 13.8102 5.39233 13.6135 5.82343 13.3457L5.99694 13.2288C6.27634 13.038 6.5326 12.8159 6.76097 12.5677L6.97986 12.3109L7.15335 12.0756L7.34671 11.7684L7.40864 11.6569L7.51233 11.451L7.54428 11.3797C7.55781 11.3497 7.57181 11.3198 7.58469 11.2894L7.58726 11.2834C7.70403 11.0069 7.79395 10.7162 7.85381 10.4144L8.20655 8.63618C8.37312 7.79672 9.5702 7.7845 9.74335 8.62049Z" fill="currentColor"/>
</g>
</g>
</svg>
