<svg width="24" height="24" viewBox="0 0 24 24" fill="currentColor" xmlns="http://www.w3.org/2000/svg">
  <path d="M8 14H6C4.95357 14 4.09484 14.8037 4.00734 15.8274L4 16V18C4 19.0464 4.80366 19.9052 5.82743 19.9927L6 20H8L8.17257 19.9927C9.13612 19.9103 9.90469 19.1448 9.99178 18.1826L10 18V16C10 14.9536 9.19635 14.0948 8.17257 14.0073L8 14ZM18 14H16C14.9536 14 14.0948 14.8037 14.0073 15.8274L14 16V18C14 19.0464 14.8037 19.9052 15.8274 19.9927L16 20H18L18.1726 19.9927C19.1361 19.9103 19.9047 19.1448 19.9918 18.1826L20 18V16C20 14.9536 19.1963 14.0948 18.1726 14.0073L18 14ZM6 4H16H16.8274H18L18.1726 4.00734C19.1963 4.09484 20 4.95357 20 6V8L19.9918 8.1826C19.9047 9.14479 19.1361 9.91031 18.1726 9.99266L18 10H16.8274H16H6L5.82743 9.99266C4.80366 9.90516 4 9.04643 4 8V6L4.00734 5.82743C4.09484 4.80366 4.95357 4 6 4Z" />
</svg>
