<svg width="24" height="24" viewBox="0 0 24 24" fill="currentColor" xmlns="http://www.w3.org/2000/svg">
  <path d="M7.83333 13C9.52193 13 10.9018 14.3217 10.995 15.987L11 16.1667V17.8333C11 19.5219 9.67833 20.9018 8.01303 20.995L7.83333 21H6.16667C4.47807 21 3.09817 19.6783 3.00501 18.013L3 17.8333V16.1667C3 14.4781 4.32167 13.0982 5.98697 13.005L6.16667 13H7.83333ZM17.8333 13C19.5219 13 20.9018 14.3217 20.995 15.987L21 16.1667V17.8333C21 19.5219 19.6783 20.9018 18.013 20.995L17.8333 21H16.1667C14.4781 21 13.0982 19.6783 13.005 18.013L13 17.8333V16.1667C13 14.4781 14.3217 13.0982 15.987 13.005L16.1667 13H17.8333ZM7.83333 14.5H6.16667C5.29464 14.5 4.57903 15.1697 4.50612 16.0229L4.5 16.1667V17.8333C4.5 18.7054 5.16971 19.421 6.02286 19.4939L6.16667 19.5H7.83333L7.97714 19.4939C8.7801 19.4253 9.42058 18.7873 9.49315 17.9855L9.5 17.8333V16.1667C9.5 15.2946 8.83029 14.579 7.97714 14.5061L7.83333 14.5ZM17.8333 14.5H16.1667C15.2946 14.5 14.579 15.1697 14.5061 16.0229L14.5 16.1667V17.8333C14.5 18.7054 15.1697 19.421 16.0229 19.4939L16.1667 19.5H17.8333L17.9771 19.4939C18.7801 19.4253 19.4206 18.7873 19.4931 17.9855L19.5 17.8333V16.1667C19.5 15.2946 18.8303 14.579 17.9771 14.5061L17.8333 14.5ZM6.16667 11H16.1667H17H17.8333L18.013 10.995C19.6783 10.9018 21 9.52193 21 7.83333V6.16667L20.995 5.98697C20.9018 4.32167 19.5219 3 17.8333 3H17H16.1667H6.16667L5.98697 3.00501C4.32167 3.09817 3 4.47807 3 6.16667V7.83333L3.00501 8.01303C3.09817 9.67833 4.47807 11 6.16667 11ZM6.16667 4.5H16.1667H17H17.8333L17.9771 4.50612C18.8303 4.57903 19.5 5.29464 19.5 6.16667V7.83333L19.4931 7.9855C19.4206 8.78733 18.7801 9.42526 17.9771 9.49388L17.8333 9.5H17H16.1667H6.16667L6.02286 9.49388C5.16971 9.42097 4.5 8.70536 4.5 7.83333V6.16667L4.50612 6.02286C4.57903 5.16971 5.29464 4.5 6.16667 4.5Z" />
</svg>
