<?xml version="1.0" encoding="UTF-8"?><svg version="1.1" width="24px" height="24px" viewBox="0 0 24.0 24.0" xmlns="http://www.w3.org/2000/svg" xmlns:xlink="http://www.w3.org/1999/xlink"><defs><clipPath id="i0"><path d="M9.68972973,0 C13.3621901,0 16.3701444,2.91184497 16.4965329,6.57605455 L16.5005405,6.81081081 L16.5005405,10.3378378 C16.5005405,12.1514215 15.0303405,13.6216216 13.2167568,13.6216216 C12.2467202,13.6216216 11.3483153,13.1976196 10.7330563,12.4862491 L10.6685405,12.4063784 L10.5655007,12.5086603 C9.8641947,13.1651865 8.9514353,13.562095 7.9711393,13.6154466 L7.74378378,13.6216216 C5.46001171,13.6216216 3.60864865,11.7702586 3.60864865,9.48648649 L3.60864865,8.51351351 C3.60864865,6.22974144 5.46001171,4.37837838 7.74378378,4.37837838 C8.53815247,4.37837838 9.2985698,4.60325581 9.95141107,5.01631885 L9.98454054,5.03902703 L9.98969596,5.02320767 C10.1120968,4.68147694 10.4202482,4.42815804 10.7924767,4.38492428 L10.9059459,4.37837838 C11.3942012,4.37837838 11.8049771,4.7399655 11.8717088,5.23600406 L11.8789189,5.35135135 L11.8789189,10.3378378 C11.8789189,11.0767053 12.4778893,11.6756757 13.2167568,11.6756757 C13.9126053,11.6756757 14.4908271,11.142128 14.5490109,10.4639211 L14.5545946,10.3378378 L14.5545946,6.81081081 C14.5545946,4.19874155 12.4915655,2.05546801 9.89536444,1.95015686 L9.68972973,1.94594595 L6.810811,1.94594595 C4.19874174,1.94594595 2.05546816,4.00897508 1.950157,6.6051761 L1.945946,6.81081081 L1.945946,11.1891892 C1.945946,13.8012585 4.00897497,15.944532 6.605176,16.0498431 L6.810811,16.0540541 L9.68972973,16.0540541 C10.2270879,16.0540541 10.6627027,16.4896689 10.6627027,17.027027 C10.6627027,17.5152823 10.3011156,17.9260581 9.80507702,17.9927898 L9.68972973,18 L6.810811,18 C3.13835067,18 0.130396491,15.088155 0.004008,11.4239454 L0,11.1891892 L0,6.81081081 C0,3.13835048 2.91184542,0.130396163 6.576055,0.00400767247 L6.810811,0 L9.68972973,0 Z M7.74378378,6.32432432 C6.53472798,6.32432432 5.55459459,7.30445771 5.55459459,8.51351351 L5.55459459,9.48648649 C5.55459459,10.6955423 6.53472798,11.6756757 7.74378378,11.6756757 C8.95283959,11.6756757 9.93297297,10.6955423 9.93297297,9.48648649 L9.93297297,8.51351351 C9.93297297,7.30445771 8.95283959,6.32432432 7.74378378,6.32432432 Z"></path></clipPath></defs><g transform="translate(3.5 3.0)"><g clip-path="url(#i0)"><polygon points="0,0 16.5005405,0 16.5005405,18 0,18 0,0" stroke="none" fill="#FFFFFF"></polygon></g></g></svg>