<?xml version="1.0" encoding="UTF-8"?>
<svg width="24px" height="24px" viewBox="0 0 24 24" version="1.1" xmlns="http://www.w3.org/2000/svg" xmlns:xlink="http://www.w3.org/1999/xlink">
    <title>Icon/At/Filled</title>
    <g id="Icon/At/Filled" stroke="none" stroke-width="1" fill="none" fill-rule="evenodd">
        <path d="M20.2,13.65 L20.1928423,13.8182535 C20.1075357,14.8164363 19.2702734,15.6 18.25,15.6 C17.1730447,15.6 16.3,14.7269553 16.3,13.65 L16.3,13.65 L16.3,7.5 L16.2917841,7.37787533 C16.2321892,6.93858466 15.8556349,6.6 15.4,6.6 C14.9029437,6.6 14.5,7.00294373 14.5,7.5 L14.5,7.5 L14.5007487,7.65337773 C13.6788749,6.99427038 12.6354808,6.6 11.5,6.6 C8.8490332,6.6 6.7,8.7490332 6.7,11.4 L6.7,12.6 C6.7,15.2509668 8.8490332,17.4 11.5,17.4 C12.9527524,17.4 14.2547675,16.7546166 15.134975,15.7349201 C15.8056639,16.7391686 16.9506592,17.4 18.25,17.4 C18.7748702,17.4 19.2745548,17.2921678 19.7281088,17.0974486 C18.7849362,19.3874832 16.5307798,21 13.9,21 L10.3,21 C6.82060608,21 4,18.1793939 4,14.7 L4,9.3 C4,5.82060608 6.82060608,3 10.3,3 L13.9,3 C17.3793939,3 20.2,5.82060608 20.2,9.3 L20.2,13.65 Z M11.5,8.4 C13.1568542,8.4 14.5,9.74314575 14.5,11.4 L14.5,12.6 C14.5,14.2568542 13.1568542,15.6 11.5,15.6 C9.84314575,15.6 8.5,14.2568542 8.5,12.6 L8.5,11.4 C8.5,9.74314575 9.84314575,8.4 11.5,8.4 Z" id="Shape" fill="#FFFFFF"></path>
    </g>
</svg>