<?xml version="1.0" encoding="UTF-8"?>
<svg width="24px" height="24px" viewBox="0 0 24 24" version="1.1" xmlns="http://www.w3.org/2000/svg" xmlns:xlink="http://www.w3.org/1999/xlink">
    <title>Icon/At/Outline</title>
    <g id="Icon/At/Outline" stroke="none" stroke-width="1" fill="none" fill-rule="evenodd">
        <path d="M20.25,13.375 C20.25,15.1008898 18.8508898,16.5 17.125,16.5 C16.0422804,16.5 15.0881668,15.9493727 14.5274099,15.112869 C13.7955258,15.9622369 12.7105635,16.5 11.5,16.5 C9.290861,16.5 7.5,14.709139 7.5,12.5 L7.5,12.5 L7.5,11.5 C7.5,9.290861 9.290861,7.5 11.5,7.5 C12.4465082,7.5 13.316233,7.82874909 14.0012193,8.37829231 L14,8.25 C14,7.83578644 14.3357864,7.5 14.75,7.5 C15.1296958,7.5 15.443491,7.78215388 15.4931534,8.14822944 L15.5,8.25 L15.5,13.375 C15.5,14.2724627 16.2275373,15 17.125,15 C17.9752278,15 18.6729464,14.3470303 18.7440353,13.5152112 L18.75,13.375 L18.75,9.75 C18.75,6.92299244 16.5155511,4.61786837 13.7164046,4.50437905 L13.5,4.5 L10.5,4.5 C7.67299244,4.5 5.36786837,6.73444888 5.25437905,9.53359538 L5.25,9.75 L5.25,14.25 C5.25,17.0770076 7.48444888,19.3821316 10.2835954,19.495621 L10.5,19.5 L13.5,19.5 C13.9142136,19.5 14.25,19.8357864 14.25,20.25 C14.25,20.6296958 13.9678461,20.943491 13.6017706,20.9931534 L13.5,21 L10.5,21 C6.85139543,21 3.87891859,18.105153 3.75408192,14.4869716 L3.75,14.25 L3.75,9.75 C3.75,6.10139543 6.64484695,3.12891859 10.2630284,3.00408192 L10.5,3 L13.5,3 C17.1486046,3 20.1210814,5.89484695 20.2459181,9.51302843 L20.25,9.75 L20.25,13.375 Z M11.5,9 C10.1192881,9 9,10.1192881 9,11.5 L9,11.5 L9,12.5 C9,13.8807119 10.1192881,15 11.5,15 C12.8807119,15 14,13.8807119 14,12.5 L14,12.5 L14,11.5 C14,10.1192881 12.8807119,9 11.5,9 Z" id="Combined-Shape" fill="#FFFFFF"></path>
    </g>
</svg>