<?xml version="1.0" encoding="UTF-8"?>
<svg width="38px" height="38px" viewBox="0 0 38 38" version="1.1" xmlns="http://www.w3.org/2000/svg" xmlns:xlink="http://www.w3.org/1999/xlink">
    <title>Trusted/7_</title>
    <g id="Authentication-map" stroke="none" stroke-width="1" fill="none" fill-rule="evenodd">
        <g id="Onboarding-v3---Tablet" transform="translate(-682, -622)" fill="#FFFFFF">
            <g id="image" transform="translate(560, 80)">
                <g id="Logos" transform="translate(0, 408)">
                    <g id="Trusted/7_" transform="translate(122, 134)">
                        <rect id="BB" fill-opacity="0" x="0" y="0" width="38" height="38"></rect>
                        <path d="M24.0473715,3.95215331 C28.7872736,5.44234978 32.5756044,9.21272642 34.0478467,13.9526285 C37.4411857,24.814904 29.3618072,34.8333333 19.0022485,34.8333333 L19.0022485,28.728743 L12.8978292,28.728914 L12.8978292,33.4149536 L8.21178968,33.4149536 L8.21178968,28.728914 L12.8978292,28.728914 L12.8978292,22.6065405 L19.0202027,22.6065405 L19.0200232,28.6926551 L19.1967885,28.6910781 C25.601808,28.5640552 30.5218264,22.1790517 28.0511524,15.4069166 C27.1354895,12.8933322 25.1066678,10.8645105 22.5751292,9.94884757 C15.8029942,7.49594826 9.41799062,12.3985474 9.29096776,18.8032169 L9.28904015,18.9977515 L3.16666667,18.9977515 C3.16666667,8.63819283 13.185096,0.558814338 24.0473715,3.95215331 Z M8.21178968,24.7969498 L8.21178968,28.728914 L4.27982548,28.728914 L4.27982548,24.7969498 L8.21178968,24.7969498 Z" id="Shape" fill-rule="nonzero"></path>
                    </g>
                </g>
            </g>
        </g>
    </g>
</svg>
