<svg width="24" height="24" viewBox="0 0 24 24" fill="currentColor" xmlns="http://www.w3.org/2000/svg">
  <path d="M11 5C11 5.55228 11.4477 6 12 6C12.5523 6 13 5.55228 13 5V3.5C13 2.94772 12.5523 2.5 12 2.5C11.4477 2.5 11 2.94772 11 3.5V5Z" />
  <path d="M5 13C5.55228 13 6 12.5523 6 12C6 11.4477 5.55228 11 5 11H3.5C2.94772 11 2.5 11.4477 2.5 12C2.5 12.5523 2.94772 13 3.5 13H5Z" />
  <path d="M20.5 13C21.0523 13 21.5 12.5523 21.5 12C21.5 11.4477 21.0523 11 20.5 11H19C18.4477 11 18 11.4477 18 12C18 12.5523 18.4477 13 19 13H20.5Z" />
  <path d="M12 21.5C11.4477 21.5 11 21.0523 11 20.5V19C11 18.4477 11.4477 18 12 18C12.5523 18 13 18.4477 13 19V20.5C13 21.0523 12.5523 21.5 12 21.5Z" />
  <path d="M18.7175 18.7175C18.3269 19.1081 17.6938 19.1081 17.3032 18.7175L14.1213 15.5356C13.7307 15.145 13.7307 14.5119 14.1213 14.1213C14.5118 13.7308 15.1449 13.7308 15.5355 14.1213L18.7175 17.3033C19.108 17.6939 19.108 18.327 18.7175 18.7175Z" />
  <path d="M8.4645 9.87868C8.85502 10.2692 9.48818 10.2692 9.87871 9.87868C10.2692 9.48815 10.2692 8.85499 9.87871 8.46446L6.69673 5.28248C6.3062 4.89196 5.67304 4.89196 5.28252 5.28248C4.89199 5.67301 4.89199 6.30617 5.28251 6.6967L8.4645 9.87868Z" />
  <path d="M5.28252 18.7175C4.89199 18.3269 4.89199 17.6938 5.28252 17.3032L8.4645 14.1213C8.85502 13.7307 9.48819 13.7307 9.87871 14.1213C10.2692 14.5118 10.2692 15.1449 9.87871 15.5355L6.69673 18.7175C6.30621 19.108 5.67304 19.108 5.28252 18.7175Z" />
  <path d="M14.1214 8.4645C13.7309 8.85502 13.7309 9.48818 14.1214 9.87871C14.5119 10.2692 15.1451 10.2692 15.5356 9.87871L18.7176 6.69673C19.1081 6.3062 19.1081 5.67304 18.7176 5.28252C18.3271 4.89199 17.6939 4.89199 17.3034 5.28252L14.1214 8.4645Z" />
</svg>
