<svg width="24" height="24" viewBox="0 0 24 24" fill="currentColor" xmlns="http://www.w3.org/2000/svg">
  <path d="M11.25 5C11.25 5.41421 11.5858 5.75 12 5.75C12.4142 5.75 12.75 5.41421 12.75 5V3.5C12.75 3.08579 12.4142 2.75 12 2.75C11.5858 2.75 11.25 3.08579 11.25 3.5V5Z" />
  <path d="M5 12.75C5.41421 12.75 5.75 12.4142 5.75 12C5.75 11.5858 5.41421 11.25 5 11.25H3.5C3.08579 11.25 2.75 11.5858 2.75 12C2.75 12.4142 3.08579 12.75 3.5 12.75H5Z" />
  <path d="M21.25 12C21.25 12.4142 20.9142 12.75 20.5 12.75H19C18.5858 12.75 18.25 12.4142 18.25 12C18.25 11.5858 18.5858 11.25 19 11.25H20.5C20.9142 11.25 21.25 11.5858 21.25 12Z" />
  <path d="M12 21.25C11.5858 21.25 11.25 20.9142 11.25 20.5V19C11.25 18.5858 11.5858 18.25 12 18.25C12.4142 18.25 12.75 18.5858 12.75 19V20.5C12.75 20.9142 12.4142 21.25 12 21.25Z" />
  <path d="M18.5407 18.5408C18.2478 18.8337 17.7729 18.8337 17.4801 18.5408L14.2981 15.3588C14.0052 15.0659 14.0052 14.591 14.2981 14.2981C14.591 14.0052 15.0658 14.0052 15.3587 14.2981L18.5407 17.4801C18.8336 17.773 18.8336 18.2479 18.5407 18.5408Z" />
  <path d="M8.64119 9.7019C8.93408 9.99479 9.40895 9.99479 9.70185 9.7019C9.99474 9.40901 9.99474 8.93413 9.70185 8.64124L6.51987 5.45926C6.22697 5.16637 5.7521 5.16637 5.45921 5.45926C5.16631 5.75215 5.16631 6.22703 5.45921 6.51992L8.64119 9.7019Z" />
  <path d="M5.45929 18.5407C5.1664 18.2478 5.1664 17.7729 5.45929 17.4801L8.64128 14.2981C8.93417 14.0052 9.40904 14.0052 9.70194 14.2981C9.99483 14.591 9.99483 15.0658 9.70194 15.3587L6.51995 18.5407C6.22706 18.8336 5.75219 18.8336 5.45929 18.5407Z" />
  <path d="M14.2982 8.64131C14.0053 8.9342 14.0053 9.40908 14.2982 9.70197C14.5911 9.99486 15.0659 9.99486 15.3588 9.70197L18.5408 6.51999C18.8337 6.2271 18.8337 5.75222 18.5408 5.45933C18.2479 5.16644 17.773 5.16644 17.4801 5.45933L14.2982 8.64131Z" />
</svg>
