<svg width="24" height="24" viewBox="0 0 24 24" fill="none" xmlns="http://www.w3.org/2000/svg">
  <g id="Filled=yes">
    <path id="Union" d="M14.3916 4.41422C13.6106 3.63317 12.3443 3.63317 11.5632 4.41422C10.7822 5.19527 10.7822 6.4616 11.5632 7.24264L13.9299 9.60938H10.9768C8.02927 9.60938 5.43711 11.559 4.61948 14.3909L3.38648 18.6614C3.2938 18.9825 3.70099 19.2061 3.92213 18.9556L6.20871 16.3658C7.34765 15.0758 8.98566 14.3369 10.7065 14.3369H13.9224L13.9306 14.3449L11.5632 16.7123C10.7822 17.4934 10.7822 18.7597 11.5632 19.5407C12.3443 20.3218 13.6106 20.3218 14.3916 19.5407L20.5407 13.3917C21.3217 12.6106 21.3217 11.3443 20.5407 10.5633L14.3916 4.41422Z" fill="#FFFFFF"/>
  </g>
</svg>
