<?xml version="1.0" encoding="UTF-8"?>
<svg width="24px" height="24px" viewBox="0 0 24 24" version="1.1" xmlns="http://www.w3.org/2000/svg" xmlns:xlink="http://www.w3.org/1999/xlink">
    <title>Icon/Forward/Outline</title>
    <g id="Icon/Forward/Outline" stroke="none" stroke-width="1" fill="none" fill-rule="evenodd">
        <path d="M10.9812138,4.97334017 C10.008253,6.08826672 10.0524785,7.78296635 11.1138903,8.84518627 L11.3883155,9.121 L11.176588,9.13284874 C11.0740912,9.14003313 10.9716972,9.14901114 10.8694679,9.15978031 C7.60120139,9.50407028 5.14596674,12.1613141 3.34133679,17.281191 L3.18548165,17.732832 L3.08794085,18.027897 C2.46780563,19.9255501 5.3088805,20.8608264 5.93554582,18.965323 L6.03147279,18.675168 L6.08562763,18.527099 L6.17944239,18.29383 C7.06338509,16.2174788 9.00736201,14.9806696 11.2474211,14.7120713 L11.344349,14.702 L11.1138903,14.933028 C10.0063301,16.0414314 10.0063301,17.8385083 11.1138903,18.9469117 C12.2214505,20.0553151 14.0171603,20.0553151 15.1247205,18.9469117 L20.1693234,13.8984681 C20.7087573,13.3586235 21.0013245,12.6346969 21,11.8864408 C21.0013245,11.1435173 20.7087573,10.4195907 20.1693234,9.87974613 L15.1247205,4.83130254 C14.0171603,3.72289915 12.2214505,3.72289915 11.1138903,4.83130254 L10.9812138,4.97334017 Z M4.67621885,18.016666 L4.60847722,18.204 L4.77227075,17.730636 C6.39865445,13.1391275 8.48335607,10.9194286 11.0263756,10.6515385 C11.2809409,10.6247217 11.5367364,10.6112857 11.792708,10.6112857 L14.9929728,10.6104338 L13.7502642,9.36708519 L12.1737436,7.78452609 C11.6515242,7.26190915 11.6515242,6.41457966 12.1737436,5.89196271 C12.6959629,5.36934576 13.5426478,5.36934576 14.0648672,5.89196271 L19.1094702,10.9404063 C19.3711946,11.20233 19.5017487,11.5458146 19.5011474,11.8891071 C19.5017487,12.2323997 19.3711946,12.5758842 19.1094702,12.8378079 L14.0648672,17.8862515 C13.5426478,18.4088685 12.6959629,18.4088685 12.1737436,17.8862515 C11.6515242,17.3636346 11.6515242,16.5163051 12.1737436,15.9936881 L14.9963777,13.1660767 L12.0040255,13.1669285 C8.73215774,13.1669285 5.82409064,14.9875497 4.67621885,18.016666 Z" id="Path" fill="#FFFFFF"></path>
    </g>
</svg>