<svg width="24" height="24" viewBox="0 0 24 24" fill="none" xmlns="http://www.w3.org/2000/svg">
  <g id="Filled=no">
    <path id="Union" fill-rule="evenodd" clip-rule="evenodd" d="M14.3019 3.80546C13.228 2.73151 11.4868 2.73151 10.4128 3.80546C9.33888 4.8794 9.33888 6.6206 10.4128 7.69454L11.4992 8.78096H10.3567C7.07508 8.78096 4.18911 10.9516 3.27882 14.1044L2.04581 18.375C1.73117 19.4648 3.11351 20.2239 3.86425 19.3736L6.15083 16.7837C7.14741 15.655 8.58066 15.0085 10.0864 15.0085H11.5079L10.4128 16.1036C9.33888 17.1775 9.33888 18.9187 10.4128 19.9926C11.4868 21.0666 13.228 21.0666 14.3019 19.9926L20.451 13.8436C21.5249 12.7696 21.5249 11.0284 20.451 9.9545L14.3019 3.80546ZM13.8287 13.7242C13.8328 13.7281 13.8369 13.7321 13.8409 13.7361C14.1338 14.029 14.1338 14.5039 13.8409 14.7968L11.4735 17.1642C10.9853 17.6524 10.9853 18.4438 11.4735 18.932C11.9616 19.4201 12.7531 19.4201 13.2412 18.932L19.3903 12.7829C19.8784 12.2948 19.8784 11.5033 19.3903 11.0152L13.2412 4.86612C12.7531 4.37796 11.9616 4.37796 11.4735 4.86612C10.9853 5.35427 10.9853 6.14573 11.4735 6.63388L13.7404 8.90082C13.9469 9.03442 14.0835 9.26673 14.0835 9.53096C14.0835 9.94162 13.7535 10.2752 13.3442 10.2809C13.3223 10.2819 13.3005 10.2819 13.2787 10.281H10.3567C7.74326 10.281 5.4449 12.0096 4.71995 14.5205L4.02602 16.924L5.02638 15.7909C6.3077 14.3397 8.15045 13.5085 10.0864 13.5085H13.3023C13.5074 13.5085 13.6933 13.5908 13.8287 13.7242Z" fill="#FFFFFF"/>
  </g>
</svg>
