<svg width="24" height="24" viewBox="0 0 24 24" fill="#336CF6" xmlns="http://www.w3.org/2000/svg">
  <path d="M17.1392 12.4538C17.1392 12.4651 17.1399 12.4785 17.1399 12.4918C17.1399 13.4601 16.355 14.245 15.3867 14.245C14.4184 14.245 13.6335 13.4601 13.6335 12.4918C13.6335 11.5235 14.4184 10.7386 15.3867 10.7386C15.7048 10.7386 16.0035 10.8233 16.2609 10.972L16.2523 10.9674C16.7751 11.2681 17.1252 11.8189 17.1399 12.4518L17.1392 12.4538ZM17.3246 14.7585C17.0739 14.9752 16.7811 15.1533 16.4617 15.2766L16.4417 15.2833C16.1122 15.4147 15.7308 15.4914 15.332 15.4914C14.6918 15.4914 14.0976 15.2953 13.6061 14.9599L13.6168 14.9666V15.2833H12.3584V6.47468H13.6081V9.8997C14.0309 9.61028 14.5438 9.42023 15.0973 9.37555L15.1086 9.37488H15.3333C15.3347 9.37488 15.3367 9.37488 15.338 9.37488C17.0272 9.37488 18.3963 10.744 18.3963 12.4331C18.3963 13.3621 17.9821 14.1937 17.3286 14.7545L17.3246 14.7585ZM7.87043 14.0543C8.08449 14.1543 8.33523 14.2123 8.59931 14.2123C9.30619 14.2123 9.91571 13.7955 10.1951 13.194L10.1998 13.1834H11.5829C11.2434 14.5404 10.0351 15.5294 8.59531 15.5294C6.8968 15.5294 5.52039 14.153 5.52039 12.4545C5.52039 10.756 6.89747 9.37955 8.59531 9.37955C10.0351 9.37955 11.2434 10.3685 11.5782 11.7042L11.5829 11.7256H10.1998C9.91571 11.1134 9.30619 10.6966 8.59998 10.6966C7.62902 10.6966 6.84145 11.4842 6.84145 12.4551C6.84145 13.162 7.25824 13.7715 7.85976 14.0509L7.87043 14.0556V14.0543ZM20.0001 2H3.99993C2.89694 2.00467 2.00467 2.8976 2 3.99927V20.0001C2.00467 21.1031 2.8976 21.9953 3.99927 22H20.0001C21.1031 21.9953 21.9953 21.1024 22 20.0007V3.99993C21.9953 2.89694 21.1017 2.00467 20.0001 2Z" />
</svg>
