<svg width="24" height="24" viewBox="0 0 24 24" fill="currentColor" xmlns="http://www.w3.org/2000/svg">
  <path d="M19.2427 14.0843L19.2431 14.1094C19.2434 14.119 19.2436 14.1289 19.2436 14.1389C19.2436 15.5291 18.1464 16.656 16.7927 16.656C15.4391 16.656 14.3418 15.5291 14.3418 14.1389C14.3418 12.7487 15.4391 11.6218 16.7927 11.6218C17.2374 11.6218 17.6551 11.7434 18.0149 11.9569C18.7458 12.3887 19.2222 13.1757 19.2427 14.0843ZM18.2955 18.1371C18.7421 17.96 19.1513 17.7044 19.5019 17.3932C20.4155 16.588 21 15.3883 21 14.0546C21 11.6295 19.0796 9.66387 16.7181 9.66387H16.404L16.3881 9.66483C15.6144 9.72897 14.8975 10.0018 14.3064 10.4174V5.5H12.5594V18.1467H14.3185V17.6928C15.0027 18.168 15.8278 18.4454 16.7163 18.4454C17.2738 18.4454 17.807 18.3353 18.2676 18.1467L18.2955 18.1371ZM7.30423 16.6091C6.93505 16.6091 6.58452 16.5258 6.28527 16.3822L6.27035 16.3774C5.42946 15.9762 4.8468 15.1011 4.8468 14.0862C4.8468 12.6922 5.94779 11.5615 7.30516 11.5615C8.29242 11.5615 9.1445 12.1599 9.54164 13.0388H11.4751L11.4686 13.0082C11.0006 11.0904 9.31137 9.67057 7.29863 9.67057C4.92511 9.67057 3 11.6467 3 14.0853C3 16.5239 4.92418 18.5 7.29863 18.5C9.31137 18.5 11.0006 17.0801 11.4751 15.1318H9.54164L9.53511 15.1471C9.1445 16.0107 8.29242 16.6091 7.30423 16.6091Z" />
</svg>
