<svg xmlns="http://www.w3.org/2000/svg" width="24" height="24" fill="currentColor" viewBox="0 0 24 24">
  <path d="M12.228 22h-.006c-2.984-.02-5.278-1.004-6.82-2.924-1.37-1.71-2.078-4.088-2.102-7.068v-.014c.024-2.982.732-5.358 2.104-7.068C6.944 3.004 9.24 2.02 12.222 2h.012c2.288.016 4.202.604 5.688 1.748 1.398 1.076 2.382 2.608 2.924 4.556l-1.7.474c-.92-3.3-3.248-4.986-6.92-5.012-2.424.018-4.258.78-5.45 2.264C5.662 7.42 5.086 9.428 5.064 12c.022 2.572.598 4.58 1.714 5.97 1.192 1.486 3.026 2.248 5.45 2.264 2.186-.016 3.632-.526 4.834-1.704 1.372-1.344 1.348-2.994.908-3.998-.258-.592-.728-1.084-1.362-1.458-.16 1.126-.518 2.038-1.07 2.726-.738.918-1.784 1.42-3.108 1.492-1.002.054-1.968-.182-2.716-.668-.886-.574-1.404-1.45-1.46-2.47-.054-.992.34-1.904 1.108-2.568.734-.634 1.766-1.006 2.986-1.076.898-.05 1.74-.01 2.516.118-.104-.618-.312-1.11-.624-1.464-.428-.488-1.09-.736-1.966-.742h-.024c-.704 0-1.66.194-2.268 1.1L8.518 8.54c.816-1.212 2.14-1.88 3.732-1.88h.036c2.662.016 4.248 1.646 4.406 4.49.09.038.18.078.268.118 1.242.584 2.15 1.468 2.628 2.558.664 1.518.726 3.992-1.29 5.966-1.542 1.508-3.412 2.19-6.064 2.208h-.006Zm.836-9.742c-.202 0-.406.006-.616.018-1.53.086-2.484.788-2.43 1.786.056 1.046 1.21 1.532 2.32 1.472 1.02-.054 2.348-.452 2.572-3.092a8.75 8.75 0 0 0-1.846-.184Z"/>
</svg>
