<svg xmlns="http://www.w3.org/2000/svg" width="24" height="24" fill="currentColor" viewBox="0 0 24 24">
  <path fill-rule="evenodd" d="M4.756 2A2.756 2.756 0 0 0 2 4.756v14.488A2.756 2.756 0 0 0 4.756 22h14.488A2.756 2.756 0 0 0 22 19.244V4.756A2.756 2.756 0 0 0 19.244 2H4.756Zm5.177 15.01c.29-.039.501-.079.633-.118v-6.748c.172-.079.376-.145.614-.198.25-.066.514-.125.791-.178a9.406 9.406 0 0 1 1.702-.158 2.56 2.56 0 0 0 .198-.475c.053-.185.08-.37.08-.554 0-.554-.186-.95-.555-1.187-.37-.251-.87-.376-1.504-.376-.384 0-.768.033-1.147.099a7.502 7.502 0 0 0-2.118.613 3.31 3.31 0 0 0-.772.455 1.92 1.92 0 0 0-.494.594 1.712 1.712 0 0 0-.159.772v5.936c0 .33.04.6.12.811.091.198.217.356.375.475s.35.198.574.238c.237.04.501.059.791.059.304 0 .594-.02.871-.06Zm4.34-3.086c-.343.37-.514.83-.514 1.385 0 .554.171 1.016.514 1.385.343.37.812.554 1.405.554.594 0 1.062-.185 1.405-.554.343-.37.515-.831.515-1.385s-.172-1.016-.515-1.385c-.343-.37-.811-.554-1.405-.554-.593 0-1.062.184-1.405.554Z" clip-rule="evenodd"/>
</svg>
