<?xml version="1.0" encoding="UTF-8"?>
<svg width="24px" height="24px" viewBox="0 0 24 24" version="1.1" xmlns="http://www.w3.org/2000/svg" xmlns:xlink="http://www.w3.org/1999/xlink">
    <title>Icon/App/Filled</title>
    <g id="💎-Icons" stroke="none" stroke-width="1" fill="none" fill-rule="evenodd">
        <g id="Icon/App/Filled" fill="#FFFFFF">
            <path d="M7.83333333,14.5 L6.16666667,14.5 C5.29463811,14.5 4.57902931,15.1697126 4.50611766,16.0228603 L4.5,16.1666667 L4.5,17.8333333 C4.5,18.7053619 5.16971256,19.4209707 6.02286029,19.4938823 L6.16666667,19.5 L7.83333333,19.5 L7.97713971,19.4938823 C8.78010228,19.4252596 9.42057556,18.7873273 9.49314694,17.985498 L9.5,17.8333333 L9.5,16.1666667 C9.5,15.2946381 8.83028744,14.5790293 7.97713971,14.5061177 L7.83333333,14.5 Z M17.8333333,14.5 L16.1666667,14.5 C15.2946381,14.5 14.5790293,15.1697126 14.5061177,16.0228603 L14.5,16.1666667 L14.5,17.8333333 C14.5,18.7053619 15.1697126,19.4209707 16.0228603,19.4938823 L16.1666667,19.5 L17.8333333,19.5 L17.9771397,19.4938823 C18.7801023,19.4252596 19.4205756,18.7873273 19.4931469,17.985498 L19.5,17.8333333 L19.5,16.1666667 C19.5,15.2946381 18.8302874,14.5790293 17.9771397,14.5061177 L17.8333333,14.5 Z M7.83333333,4.5 L6.16666667,4.5 C5.29463811,4.5 4.57902931,5.16971256 4.50611766,6.02286029 L4.5,6.16666667 L4.5,7.83333333 C4.5,8.70536189 5.16971256,9.42097069 6.02286029,9.49388234 L6.16666667,9.5 L7.83333333,9.5 L7.97713971,9.49388234 C8.78010228,9.42525961 9.42057556,8.78732729 9.49314694,7.98549801 L9.5,7.83333333 L9.5,6.16666667 C9.5,5.29463811 8.83028744,4.57902931 7.97713971,4.50611766 L7.83333333,4.5 Z M16.8834366,3.006724 C16.386344,3.06446053 16.0004948,3.4869229 16.0004948,3.999505 L16,6 L13.999501,6.00049478 L13.881021,6.0079007 C13.3714473,6.07645298 13,6.49843029 13,7 C13,7.49706761 13.36494,7.91652091 13.852119,7.98868062 L13.981211,7.99883498 L16,7.999 L16.0004948,10.000506 L16.0092916,10.129546 C16.0834791,10.6350607 16.5029324,11 17,11 L17.1165634,10.993276 C17.613656,10.9355395 17.9995052,10.5130771 17.9995052,10.000495 L17.999,7.999 L20.000513,7.99950522 L20.118979,7.9920993 C20.6285527,7.92354702 21,7.50156971 21,7 C21,6.50293239 20.63506,6.08347909 20.147881,6.01131938 L20.018789,6.00116502 L17.999,6 L17.9995052,3.999494 L17.9907084,3.870454 C17.9165209,3.36493931 17.4970676,3 17,3 L16.8834366,3.006724 Z" id="Combined-Shape"></path>
        </g>
    </g>
</svg>