<?xml version="1.0" encoding="UTF-8"?>
<svg width="24px" height="24px" viewBox="0 0 24 24" version="1.1" xmlns="http://www.w3.org/2000/svg" xmlns:xlink="http://www.w3.org/1999/xlink">
    <title>Icon/Magnifying Glass/Filled</title>
    <g id="💎-Icons" stroke="none" stroke-width="1" fill="none" fill-rule="evenodd">
        <g id="Icon/Magnifying-Glass/Filled" fill="#FFFFFF">
            <path d="M15.0156082,15.0156082 C15.6881399,14.3430765 16.7553149,14.3057136 17.4716958,14.9035195 L17.5943228,15.0156082 L19.4844315,16.9067399 L19.5984366,17.0348196 C20.1792256,17.7567759 20.1257973,18.8060641 19.4659307,19.4659307 C19.2281615,19.7036999 18.9346706,19.8675563 18.6004287,19.9484267 L18.4299812,19.9819043 L18.2442885,19.9982772 L18.0834319,19.9976303 C17.6918674,19.9776924 17.3172002,19.8330755 17.0130784,19.5806597 L16.887216,19.4659307 L14.9971074,17.5747989 L14.8831022,17.4467193 C14.3364774,16.767231 14.3516504,15.7977878 14.905462,15.1359518 L15.0156082,15.0156082 Z M10,4 C13.3137085,4 16,6.6862915 16,10 C16,13.1489059 13.569414,15.744913 10.4546963,15.9825933 L10.2310765,15.9955354 L9.99013062,15.9999026 L9.75903094,15.9952421 C6.54770605,15.868219 4,13.2238799 4,10 C4,6.6862915 6.6862915,4 10,4 Z" id="Shape"></path>
        </g>
    </g>
</svg>
