<?xml version="1.0" encoding="UTF-8"?>
<svg width="24px" height="24px" viewBox="0 0 24 24" version="1.1" xmlns="http://www.w3.org/2000/svg" xmlns:xlink="http://www.w3.org/1999/xlink">
    <title>Icon/Moon/Filled</title>
    <g id="Icon/Moon/Filled" stroke="none" stroke-width="1" fill="none" fill-rule="evenodd">
        <path d="M10.6257475,6.09900197 L10.5517434,6.18085726 C9.27606439,7.45804093 8.85113779,9.37053705 9.52583801,11.1136448 C10.2809446,13.0645413 12.3164236,14.2739794 14.375462,13.9944869 C15.7881912,13.8025251 16.9790028,13.0016307 17.6882253,11.8217878 C18.2150286,10.9434486 19.5679479,11.3545128 19.4973378,12.390148 C19.2758138,15.6212589 17.0415745,18.3913025 13.8795774,19.2391854 C9.63277156,20.3779575 5.52768247,17.6758649 4.6599506,13.3123236 C4.01326138,10.0588734 5.35044556,6.71312496 8.25567586,5.11895608 C8.68387382,4.8844169 9.1250175,4.69501523 9.57645394,4.55047374 C10.5206121,4.248049 11.2170736,5.37331964 10.6257475,6.09900197 Z" id="Path" fill="#FFFFFF"></path>
    </g>
</svg>