<svg xmlns="http://www.w3.org/2000/svg" width="24" height="24" fill="currentColor" viewBox="0 0 24 24">
  <path d="M8.96 10.963c-.502-1.403.855-2.75 2.253-2.25l8.656 2.875c1.626.581 1.53 2.91-.138 3.356l-3.638.974a.261.261 0 0 0-.185.183l-.974 3.632c-.448 1.666-2.777 1.762-3.36.139l-2.613-8.91Zm-2.157 1.4a.75.75 0 1 1 1.06 1.063L6.12 15.165a.75.75 0 0 1-1.06-1.062l1.743-1.74ZM6.178 9.36a.75.75 0 0 1 0 1.5H3.713a.75.75 0 0 1 0-1.5h2.465Zm-1.12-4.304a.751.751 0 0 1 1.062 0l1.742 1.74a.75.75 0 1 1-1.06 1.061L5.06 6.117a.75.75 0 0 1-.001-1.06Zm9.065 0a.75.75 0 0 1 1.06 1.06L13.44 7.858a.75.75 0 0 1-1.06-1.061l1.743-1.74ZM9.371 6.173v-2.46a.75.75 0 0 1 1.5 0v2.46a.75.75 0 0 1-1.5 0Z"/>
</svg>
