<svg xmlns="http://www.w3.org/2000/svg" width="24" height="24" fill="currentColor" viewBox="0 0 24 24">
  <path d="M9.248 11.25C8.745 9.848 10.102 8.5 11.5 9l8.656 2.875c1.627.582 1.53 2.91-.137 3.356l-3.64.974a.261.261 0 0 0-.184.184l-.974 3.631c-.447 1.667-2.777 1.762-3.36.14l-2.613-8.91Zm1.746-.838a.26.26 0 0 0-.335.332l2.614 8.908c.087.24.433.226.5-.02L14.747 16a1.76 1.76 0 0 1 1.246-1.244l3.638-.974a.26.26 0 0 0 .02-.495l-8.657-2.875Zm-3.904 2.24a.75.75 0 1 1 1.06 1.06l-1.743 1.74a.75.75 0 0 1-1.06-1.061l1.743-1.74Zm-.625-3.005a.75.75 0 0 1 0 1.5H4a.75.75 0 0 1 0-1.5h2.465Zm-1.12-4.303a.751.751 0 0 1 1.062-.001l1.742 1.74a.75.75 0 1 1-1.06 1.062l-1.742-1.74a.75.75 0 0 1-.001-1.061Zm9.065-.001a.75.75 0 0 1 1.06 1.061l-1.743 1.74a.75.75 0 0 1-1.06-1.061l1.743-1.74ZM9.658 6.46V4a.75.75 0 0 1 1.5 0v2.46a.75.75 0 0 1-1.5 0Z"/>
</svg>
