<?xml version="1.0" encoding="UTF-8"?>
<svg width="24px" height="24px" viewBox="0 0 24 24" version="1.1" xmlns="http://www.w3.org/2000/svg" xmlns:xlink="http://www.w3.org/1999/xlink">
    <title>Icon/Mini Close/Filled</title>
    <g id="💎-Icons" stroke="none" stroke-width="1" fill="none" fill-rule="evenodd">
        <g id="Icon/Mini-Close/Filled" fill="#FFFFFF">
            <path d="M16.3121772,6.27948393 L11.9999622,10.5899707 L7.70110528,6.29189741 L7.60392408,6.20712064 C7.19525775,5.90305303 6.64228302,5.94148378 6.29186452,6.29190228 L6.20896775,6.38577829 C5.90501437,6.77669143 5.93264695,7.34193035 6.29186459,7.70114798 L10.5899329,11.9990035 L6.29185965,16.298857 L6.20708287,16.3960382 C5.90301527,16.8047045 5.94144601,17.3576792 6.29186452,17.7080977 C6.64228303,18.0585162 7.19525782,18.0969469 7.58957564,17.8043702 L7.68774725,17.7205161 L11.9989658,13.4090328 L16.2988192,17.7081026 L16.3960004,17.7928794 C16.8046667,18.096947 17.3576415,18.0585162 17.70806,17.7080977 L17.7909567,17.6142217 C18.0949101,17.2233086 18.0672775,16.6580697 17.7080599,16.298852 L13.4089951,12 L17.7080648,7.70114304 L17.7928416,7.60396184 C18.0969092,7.19529552 18.0584785,6.64232079 17.70806,6.29190228 C17.3576415,5.94148377 16.8046667,5.90305309 16.4103488,6.19562984 L16.3121772,6.27948393 Z" id="Path"></path>
        </g>
    </g>
</svg>