<?xml version="1.0" encoding="UTF-8"?>
<svg width="24px" height="24px" viewBox="0 0 24 24" version="1.1" xmlns="http://www.w3.org/2000/svg" xmlns:xlink="http://www.w3.org/1999/xlink">
    <title>Icon/Mini Close/Outline</title>
    <g id="💎-Icons" stroke="none" stroke-width="1" fill="none" fill-rule="evenodd">
        <g id="Icon/Mini-Close/Outline" fill="#FFFFFF">
            <path d="M16.8037883,6.14705176 C17.0973998,5.9291973 17.5140635,5.95340335 17.7803301,6.21966991 C18.0465966,6.48593648 18.0708027,6.90260016 17.8529482,7.19621165 L17.7803301,7.28033009 L13.061,12 L17.7803301,16.7196699 C18.0732233,17.0125631 18.0732233,17.4874369 17.7803301,17.7803301 C17.5140635,18.0465966 17.0973998,18.0708027 16.8037883,17.8529482 L16.7196699,17.7803301 L12,13.061 L7.28033009,17.7803301 L7.19621165,17.8529482 C6.90260016,18.0708027 6.48593648,18.0465966 6.21966991,17.7803301 C5.95340335,17.5140635 5.9291973,17.0973998 6.14705176,16.8037883 L6.21966991,16.7196699 L10.939,12 L6.21966991,7.28033009 C5.9267767,6.98743687 5.9267767,6.51256313 6.21966991,6.21966991 C6.48593648,5.95340335 6.90260016,5.9291973 7.19621165,6.14705176 L7.28033009,6.21966991 L12,10.939 L16.7196699,6.21966991 L16.8037883,6.14705176 Z" id="Path"></path>
        </g>
    </g>
</svg>