<svg xmlns="http://www.w3.org/2000/svg" width="132" height="156" viewBox="0 0 132 156" fill="none">
  <path fill-rule="evenodd" clip-rule="evenodd" d="M71.3595 3.29313L77.9906 11.0378L87.6849 22.0172L96.9062 32.3871L102.696 39.0484C116.756 55.5035 127.515 66.3796 130.987 83.8394C133.377 95.861 131.488 108.62 125.839 119.67C115.637 139.918 92.6518 154.334 68.8244 155.431C67.8182 155.477 66.8309 155.5 65.8549 155.5C42.8191 155.498 20.3051 143.285 9.18339 124.695C-5.6188 100.316 -2.29144 71.4489 17.4634 52.6109C24.5133 45.891 28.2456 45.9727 28.6603 52.8561L28.6991 54.2265L28.7125 60.1035L28.8056 66.0592L28.9516 70.0144L29.1922 73.9162C30.3261 88.7259 34.068 101.58 46.4165 103.524C53.9606 104.712 61.9856 102.862 66.9216 95.0375C70.1878 89.7524 70.8288 83.5063 68.718 77.4835L67.9123 75.4857L66.9176 73.4576L65.6488 71.0063L63.2319 66.5361L60.1983 61.1139L56.548 54.7397C47.9711 39.8977 46.4931 20.0388 58.8242 3.61772C59.2589 3.03777 59.7808 2.51999 60.3736 2.08053C63.7639 -0.432688 68.6825 0.110209 71.3595 3.29313Z" fill="#FFFFFF"/>
</svg>
