<?xml version="1.0" encoding="UTF-8"?>
<svg version="1.1" width="24px" height="24px" viewBox="0 0 24.0 24.0" xmlns="http://www.w3.org/2000/svg" xmlns:xlink="http://www.w3.org/1999/xlink"><defs><clipPath id="i0"><path fill="#ffffff" d="M11.54135,0.514407263 C12.1089037,0.833656242 12.5888377,1.28600075 12.9407289,1.83101793 L13.0666072,2.03966445 L18.6469122,11.9602067 C19.7299674,13.8856382 19.0470865,16.3244986 17.121655,17.4075538 C16.5977693,17.7022396 16.0152027,17.8745252 15.4175456,17.9129921 L15.1606101,17.9212517 L4,17.9212517 C1.790861,17.9212517 0,16.1303907 0,13.9212517 C0,13.3201727 0.135449901,12.7279569 0.394931141,12.1881948 L0.513697852,11.9602067 L6.09400288,2.03966445 C7.17705811,0.114232943 9.61591848,-0.568647962 11.54135,0.514407263 Z M7.91902571,2.88691073 L7.83715396,3.02018693 L2.25684893,12.9407292 C2.08845708,13.2400925 2,13.577778 2,13.9212517 C2,14.9756135 2.81587779,15.8394168 3.85073766,15.915766 L4,15.9212517 L15.1606101,15.9212517 C15.5040838,15.9212517 15.8417693,15.8327946 16.1411325,15.6644028 C17.0580047,15.1486622 17.4113618,14.018044 16.9751439,13.0799055 L16.9037611,12.9407292 L11.3234561,3.02018693 C11.1438786,2.70093795 10.8800765,2.43713589 10.5608275,2.25755834 C9.64395536,1.74181775 8.49423566,2.02695523 7.91902571,2.88691073 Z M9.58030503,11.9212517 C10.1325898,11.9212517 10.580305,12.3689669 10.580305,12.9212517 C10.580305,13.4735364 10.1325898,13.9212517 9.58030503,13.9212517 C9.02802028,13.9212517 8.58030503,13.4735364 8.58030503,12.9212517 C8.58030503,12.3689669 9.02802028,11.9212517 9.58030503,11.9212517 Z M9.58030503,4.92125169 C10.1325898,4.92125169 10.580305,5.36896694 10.580305,5.92125169 L10.580305,9.92125169 C10.580305,10.4735364 10.1325898,10.9212517 9.58030503,10.9212517 C9.02802028,10.9212517 8.58030503,10.4735364 8.58030503,9.92125169 L8.58030503,5.92125169 C8.58030503,5.36896694 9.02802028,4.92125169 9.58030503,4.92125169 Z"></path></clipPath></defs><g transform="translate(2.419694968835506 3.0787483113675655)"><g clip-path="url(#i0)" fill="#ffffff"><polygon points="0,4.4408921e-16 19.1613195,4.4408921e-16 19.1613195,17.9212517 0,17.9212517 0,4.4408921e-16" stroke="none"></polygon></g></g></svg>