<svg width="21" height="20" viewBox="0 0 21 20" fill="none" xmlns="http://www.w3.org/2000/svg">
  <title>Chrome icon</title>
  <g mask="url(#mask0_21580_111)">
    <path d="M10.5001 0C14.386 0 17.7543 2.21647 19.4095 5.45414L10.5001 5.45455C7.98973 5.45455 5.95466 7.48961 5.95466 10C5.95466 10.789 6.15567 11.531 6.50928 12.1777L6.56375 12.2727H2.08761L2.08618 4.59352C3.86553 1.8301 6.9691 0 10.5001 0Z" fill="#EB4B3E"/>
    <path d="M10.5001 0C14.386 0 17.7543 2.21647 19.4095 5.45414L10.5001 5.45455C7.98973 5.45455 5.95466 7.48961 5.95466 10C5.95466 10.789 6.15567 11.531 6.50928 12.1777L6.56375 12.2727H2.08761L2.08618 4.59352C3.86553 1.8301 6.9691 0 10.5001 0Z" fill="url(#paint0_linear_21580_111)"/>
    <path d="M6.67164 12.233L2.1455 4.47045L2.07959 4.58409L6.57277 12.2886L6.67164 12.233Z" fill="#3E2723" fill-opacity="0.15"/>
    <path d="M2.08752 4.59659L6.15423 8.66352C6.02443 9.08608 5.95457 9.53488 5.95457 10C5.95457 10.789 6.15558 11.531 6.50919 12.1777L2.08752 4.59659Z" fill="url(#paint1_radial_21580_111)"/>
    <path d="M2.08566 4.59425L6.56256 12.2727C7.35347 13.6295 8.81824 14.5455 10.5001 14.5455C12.1043 14.5455 13.5119 13.7109 14.3205 12.455L14.4319 12.2727H14.4387V12.3864C13.6466 13.7443 12.1819 14.6591 10.5012 14.6591C8.89582 14.6591 7.48821 13.8246 6.67963 12.5686L6.56824 12.3864H6.56369L2.05078 4.64881L2.08566 4.59425Z" fill="white" fill-opacity="0.1"/>
    <path d="M2.08625 4.59324L6.56364 12.2727C7.34895 13.6316 8.81775 14.5455 10.5 14.5455C12.1822 14.5455 13.651 13.6316 14.4371 12.2732L14.4375 15.5818L10.0299 19.9891C4.7253 19.7437 0.5 15.3653 0.5 10C0.5 8.00805 1.08242 6.15213 2.08625 4.59324Z" fill="#0F9D58"/>
    <path d="M2.08625 4.59324L6.56364 12.2727C7.34895 13.6316 8.81775 14.5455 10.5 14.5455C12.1822 14.5455 13.651 13.6316 14.4371 12.2732L14.4375 15.5818L10.0299 19.9891C4.7253 19.7437 0.5 15.3653 0.5 10C0.5 8.00805 1.08242 6.15213 2.08625 4.59324Z" fill="url(#paint2_linear_21580_111)"/>
    <path d="M14.3455 12.4239L14.2512 12.3693L9.88867 20H10.0194L14.3489 12.4273L14.3455 12.4239Z" fill="#263238" fill-opacity="0.15"/>
    <path d="M10.0261 19.9875L12.4079 11.1011L14.4375 12.2727L10.0261 19.9875Z" fill="url(#paint3_radial_21580_111)"/>
    <path d="M14.4772 12.4239C14.8636 11.7557 15.0875 10.983 15.0875 10.1557C15.0875 9.67614 15.0125 9.21478 14.875 8.78182C14.9829 9.17046 15.0454 9.57841 15.0454 10.0011C15.0454 10.8284 14.8216 11.6011 14.4352 12.2693L14.4375 12.2739L10.0193 20.0011H10.1511L14.4795 12.4284L14.4772 12.4239Z" fill="white" fill-opacity="0.2"/>
    <path d="M19.4092 5.45365C20.1066 6.81763 20.5 8.36287 20.5 10C20.5 15.5229 16.0229 20 10.5 20C10.3415 20 10.1839 19.9963 10.0272 19.989L14.4375 12.2727C14.8243 11.6034 15.0455 10.8275 15.0455 10C15.0455 7.48962 13.0104 5.45455 10.5 5.45455L19.4092 5.45365Z" fill="#FFCD40"/>
    <path d="M19.4092 5.45365C20.1066 6.81763 20.5 8.36287 20.5 10C20.5 15.5229 16.0229 20 10.5 20C10.3415 20 10.1839 19.9963 10.0272 19.989L14.4375 12.2727C14.8243 11.6034 15.0455 10.8275 15.0455 10C15.0455 7.48962 13.0104 5.45455 10.5 5.45455L19.4092 5.45365Z" fill="url(#paint4_linear_21580_111)"/>
    <path d="M10.5 5.45454V7.83523L19.4091 5.45454H10.5Z" fill="url(#paint5_radial_21580_111)"/>
    <path d="M10.5 5.34091L19.3505 5.3406L19.4092 5.45365L10.5 5.45454C8.06154 5.45454 6.07128 7.37514 5.95954 9.78604L5.95459 10V9.88636C5.95459 7.44786 7.87518 5.45759 10.2861 5.34586L10.5 5.34091Z" fill="#3E2723" fill-opacity="0.2"/>
    <path opacity="0.1" d="M10.6137 5.45454C10.5944 5.45454 10.5762 5.45682 10.5569 5.45795C13.041 5.48863 15.0455 7.50909 15.0455 10C15.0455 12.4909 13.041 14.5114 10.5569 14.542C10.5762 14.542 10.5944 14.5455 10.6137 14.5455C13.1239 14.5455 15.1592 12.5102 15.1592 10C15.1592 7.48977 13.1239 5.45454 10.6137 5.45454Z" fill="#3E2723"/>
    <circle cx="10.5" cy="10" r="4.54545" fill="#F1F1F1"/>
    <circle cx="10.5" cy="10" r="3.63636" fill="#4285F4"/>
    <path d="M10.5 0.113636C16.0034 0.113636 20.4682 4.56023 20.4989 10.0568C20.4989 10.0375 20.5 10.0193 20.5 10C20.5 4.47727 16.0227 0 10.5 0C4.97727 0 0.5 4.47727 0.5 10C0.5 10.0193 0.501136 10.0375 0.501136 10.0568C0.531818 4.56023 4.99659 0.113636 10.5 0.113636Z" fill="white" fill-opacity="0.2"/>
    <path d="M10.5 19.8864C16.0034 19.8864 20.4682 15.4398 20.4989 9.94318C20.4989 9.9625 20.5 9.98068 20.5 10C20.5 15.5227 16.0227 20 10.5 20C4.97727 20 0.5 15.5227 0.5 10C0.5 9.98068 0.501136 9.9625 0.501136 9.94318C0.531818 15.4398 4.99659 19.8864 10.5 19.8864Z" fill="#3E2723" fill-opacity="0.15"/>
  </g>
  <circle cx="10.5" cy="10" r="10" fill="url(#paint6_radial_21580_111)"/>
  <defs>
    <linearGradient id="paint0_linear_21580_111" x1="5.33333" y1="9.60429" x2="9.25549" y2="4.75253" gradientUnits="userSpaceOnUse">
      <stop stop-color="#A52714" stop-opacity="0.6"/>
      <stop offset="0.66" stop-color="#A52714" stop-opacity="0.01"/>
    </linearGradient>
    <radialGradient id="paint1_radial_21580_111" cx="0" cy="0" r="1" gradientUnits="userSpaceOnUse" gradientTransform="translate(2.08057 4.60444) scale(6.02768 10.3346)">
      <stop stop-color="#3E2723" stop-opacity="0.2"/>
      <stop offset="1" stop-color="#3E2723" stop-opacity="0.01"/>
    </radialGradient>
    <linearGradient id="paint2_linear_21580_111" x1="13.6825" y1="14.446" x2="6.84579" y2="11.6585" gradientUnits="userSpaceOnUse">
      <stop stop-color="#055524" stop-opacity="0.4"/>
      <stop offset="0.33" stop-color="#055524" stop-opacity="0.01"/>
    </linearGradient>
    <radialGradient id="paint3_radial_21580_111" cx="0" cy="0" r="1" gradientUnits="userSpaceOnUse" gradientTransform="translate(10.4818 10.0157) scale(9.98523 20.1145)">
      <stop stop-color="#263238" stop-opacity="0.2"/>
      <stop offset="1" stop-color="#263238" stop-opacity="0.01"/>
    </radialGradient>
    <linearGradient id="paint4_linear_21580_111" x1="10.8124" y1="5.90796" x2="13.7789" y2="12.6466" gradientUnits="userSpaceOnUse">
      <stop stop-color="#EA6100" stop-opacity="0.3"/>
      <stop offset="0.66" stop-color="#EA6100" stop-opacity="0.01"/>
    </linearGradient>
    <radialGradient id="paint5_radial_21580_111" cx="0" cy="0" r="1" gradientUnits="userSpaceOnUse" gradientTransform="translate(10.0659 5.44864) scale(9.55432 2.5531)">
      <stop stop-color="#3E2723" stop-opacity="0.2"/>
      <stop offset="1" stop-color="#3E2723" stop-opacity="0.01"/>
    </radialGradient>
    <radialGradient id="paint6_radial_21580_111" cx="0" cy="0" r="1" gradientUnits="userSpaceOnUse" gradientTransform="translate(3.48705 2.72886) scale(20.0852)">
      <stop stop-color="white" stop-opacity="0.1"/>
      <stop offset="1" stop-color="white" stop-opacity="0.01"/>
    </radialGradient>
  </defs>
</svg>
