<svg xmlns="http://www.w3.org/2000/svg" width="241" height="167" viewBox="0 0 241 167" fill="none">
  <path fill-rule="evenodd" clip-rule="evenodd" d="M173.5 22.15C179.333 11.9833 191.7 -6.25 194.5 2.15C197.3 10.55 181.667 18.9833 173.5 22.15ZM190 34.65C188.833 32.9834 188.1 29.15 194.5 27.15C200.9 25.15 194.167 31.3167 190 34.65ZM172.995 141.597C158.662 157.009 138.207 166.65 115.5 166.65C72.1456 166.65 37 131.505 37 88.1501C37 44.7958 72.1456 9.65015 115.5 9.65015C158.854 9.65015 194 44.7958 194 88.1501C194 108.619 186.166 127.258 173.333 141.232C177.866 144.413 184.952 150.136 180.562 150.149C176.334 150.161 173.874 144.841 172.995 141.597ZM192.822 141C198.415 143.503 203.664 145.852 206.873 149.635C212.221 155.94 207.872 170.106 195.64 155.845C185.854 144.436 182.256 137.407 181.68 135.318C185.212 137.594 189.093 139.331 192.822 141ZM48.5 31.3758C48.3281 30.5161 47.2261 28.8866 45.8137 27.0828C43.1941 23.7375 45.6911 18.6077 47.7583 22.3198C49.9472 26.2504 48.8183 32.9674 48.5 31.3758ZM42.739 35.5734C33.9057 22.4068 13.439 -2.92655 2.23904 1.07345C-8.96096 5.07345 24.5724 25.7401 42.739 35.5734ZM38.2381 47.0733C26.9047 40.4066 3.93805 28.6733 2.73805 35.0733C1.53805 41.4733 25.9047 45.74 38.2381 47.0733ZM38.2382 136.573C23.7382 137.407 -3.66185 140.473 2.73815 146.073C9.13815 151.673 29.0715 142.073 38.2382 136.573ZM42.4997 142.15C38.4997 144.15 31.3997 148.45 34.9997 149.65C38.5997 150.85 41.4997 145.15 42.4997 142.15ZM214.537 52.5937C208.276 56.7308 201.96 60.9052 197 63.1501C209.833 59.3167 236.4 50.6501 240 46.6501C241.717 34.6316 228.262 43.523 214.537 52.5937Z" fill="#FC538D"/>
</svg>
