<?xml version="1.0" encoding="UTF-8"?>
<svg width="24px" height="24px" viewBox="0 0 24 24" version="1.1" xmlns="http://www.w3.org/2000/svg" xmlns:xlink="http://www.w3.org/1999/xlink">
    <title>Icon/Integration/Outline</title>
    <g id="💎-Icons" stroke="none" stroke-width="1" fill="none" fill-rule="evenodd">
        <g id="Icon/Integration/Outline" fill="#FFFFFF">
            <path d="M11.6904928,3.71068372 L5.20256648,10.2927303 C4.75530561,10.7402214 4.5,11.3569711 4.5,12 L4.50515656,12.1594402 C4.58723585,13.4243866 5.63894234,14.4252903 6.9247099,14.4252903 L9.522,14.425 L8.31581615,17.7461675 C7.99409481,18.6314562 8.21394286,19.623057 8.87978448,20.2893163 C9.8267687,21.2368946 11.3625234,21.2368946 12.3095076,20.2893163 L18.7974336,13.7072697 C19.2446944,13.2597786 19.5,12.6430289 19.5,12 L19.4948434,11.8405598 C19.4127641,10.5756134 18.3610577,9.57470972 17.0752901,9.57470972 L14.477,9.574 L15.6841843,6.25383254 C16.0059056,5.36854381 15.7860575,4.37694305 15.1202159,3.71068372 C14.1732317,2.76310543 12.637477,2.76310543 11.6904928,3.71068372 Z M14.0592232,4.77101125 C14.3132673,5.02521475 14.3971699,5.40364793 14.2743909,5.74150182 L12.3362585,11.0747097 L17.0752901,11.0747097 C17.5859934,11.0747097 18,11.4889763 18,12 C18,12.2454022 17.9025757,12.4807534 17.7291589,12.654279 L11.2485149,19.2289888 C10.8873931,19.5903371 10.301899,19.5903371 9.94077719,19.2289888 C9.68673306,18.9747853 9.60283055,18.5963521 9.72560948,18.2584982 L11.663742,12.9252903 L6.9247099,12.9252903 C6.41400657,12.9252903 6,12.5110237 6,12 C6,11.7545978 6.09742429,11.5192466 6.27084109,11.345721 L12.7514855,4.77101125 C13.1126073,4.40966292 13.6981014,4.40966292 14.0592232,4.77101125 Z" id="Path"></path>
        </g>
    </g>
</svg>