<?xml version="1.0" encoding="UTF-8"?>
<svg width="24px" height="24px" viewBox="0 0 24 24" version="1.1" xmlns="http://www.w3.org/2000/svg" xmlns:xlink="http://www.w3.org/1999/xlink">
    <title>Icon/AI/Outline</title>
    <g id="Icon/AI/Outline" stroke="none" stroke-width="1" fill="none" fill-rule="evenodd">
        <path d="M10,3.34695991 C11.1380518,3.34695991 12.212672,3.61330751 13.1625864,4.08590934 C12.9083741,4.54794062 12.4234739,4.85013567 11.8797119,4.87305893 L11.0107554,4.90893504 C10.6831156,4.84924884 10.3452733,4.81804659 10,4.81804659 C6.96243388,4.81804659 4.5,7.23301569 4.5,10.2120311 C4.5,13.1183875 6.84378001,15.4878766 9.77879286,15.6017325 L10,15.6060155 L10.2212071,15.6017325 C13.15622,15.4878766 15.5,13.1183875 15.5,10.2120311 L15.497,10.0815947 L15.5792597,9.86687999 C15.7785398,9.34302744 16.2550821,8.97410757 16.8126146,8.89997241 L16.8713034,8.89494735 C16.9557582,9.3212071 17,9.76155206 17,10.2120311 C17,11.4594164 16.6607772,12.6290992 16.0678687,13.6371912 C16.8003285,13.5759579 17.5526757,13.7952816 18.1442215,14.2944185 L18.3014296,14.4374837 L20.1730375,16.2730153 C21.2756542,17.3543784 21.2756542,19.1076145 20.1730375,20.1889776 C19.1163632,21.225284 17.4305111,21.2684634 16.3214053,20.3185159 L16.1801093,20.1889776 L14.3085014,18.353446 C13.6967023,17.7534397 13.4243667,16.9465832 13.4914946,16.1624229 C12.4645742,16.7444181 11.271902,17.0771022 10,17.0771022 C6.13400675,17.0771022 3,14.0035052 3,10.2120311 C3,6.42055696 6.13400675,3.34695991 10,3.34695991 Z M15.3691616,15.4776991 C14.8867867,15.9507759 14.8546283,16.6981896 15.2726866,17.2078447 L15.3691616,17.3132307 L17.2407694,19.1487623 C17.4819569,19.3853007 17.7930765,19.5114545 18.1088583,19.5272238 L18.2442885,19.5272238 L18.3791478,19.5137073 C18.6475344,19.4731578 18.9056452,19.3515095 19.1123773,19.1487623 C19.5947522,18.6756854 19.6269105,17.9282718 19.2088523,17.4186167 L19.1123773,17.3132307 L17.2407694,15.4776991 C16.7239392,14.970831 15.8859918,14.970831 15.3691616,15.4776991 Z M15.4198889,3.42084382 L15.4643023,4.43446507 C15.5080827,5.43332731 16.1571635,6.30949 17.1122803,6.6589904 L18.0815139,7.01364204 C18.5390679,7.18109381 18.4320594,7.84369576 17.9441373,7.86428531 L16.9105939,7.9078426 C16.8081312,7.9121653 16.7069345,7.92249527 16.6074233,7.93853381 L16.5569883,7.94717648 C16.4771072,7.96168216 16.3983713,7.97987683 16.3210015,8.00160325 L16.1741084,8.04764389 L15.9939178,8.11782989 L15.8256816,8.19818305 L15.7130744,8.26076485 L15.5718127,8.35037505 L15.4078206,8.4720568 L15.3758316,8.49828711 C15.0526655,8.76772534 14.7969539,9.11763561 14.6423468,9.52405486 L14.2807247,10.474606 C14.2124276,10.6540998 14.0633493,10.7450047 13.9076987,10.7588477 L13.8296692,10.7594008 L13.7526058,10.7474304 C13.5755212,10.7051378 13.4231599,10.5631854 13.4133626,10.3398774 L13.3689492,9.3262561 C13.3251689,8.32739386 12.676088,7.45123117 11.7209713,7.10173077 L10.7517376,6.74707913 C10.2941837,6.57962737 10.4011921,5.91702542 10.8891143,5.89643586 L11.9226576,5.85287857 C12.2222148,5.84025021 12.5109492,5.7762695 12.7783809,5.66840379 L12.8868558,5.61992707 C13.0617616,5.54048206 13.2264909,5.44160165 13.3779035,5.32561326 L13.524761,5.20400842 L13.6440713,5.09004227 L13.7811538,4.93820388 L13.8262598,4.88231887 L13.9035424,4.7781383 L13.9591151,4.69551333 L13.9285015,4.74191646 C14.0338928,4.58600397 14.1223385,4.41689045 14.1909047,4.23666632 L14.5525268,3.28611516 C14.7232697,2.83738081 15.3988947,2.94232665 15.4198889,3.42084382 Z" id="Shape" fill="#FFFFFF"></path>
    </g>
</svg>