<?xml version="1.0" encoding="UTF-8"?>
<svg width="24px" height="24px" viewBox="0 0 24 24" version="1.1" xmlns="http://www.w3.org/2000/svg" xmlns:xlink="http://www.w3.org/1999/xlink">
    <title>Icon/link/Filled</title>
    <g id="Icon/link/Filled" stroke="none" stroke-width="1" fill="none" fill-rule="evenodd">
        <path d="M18.3817777,9.16365434 C18.0227949,8.80467153 17.4593557,8.7747563 17.0662968,9.07390864 L16.9636049,9.16365434 L16.2545185,9.87274076 C15.8955357,10.2317236 15.8656204,10.7951628 16.1647728,11.1882216 L16.2545185,11.2909136 L16.9636049,12 C18.3342665,13.3706616 18.3342665,15.5929433 16.9636049,16.9636049 C15.6477697,18.2794401 13.5470816,18.3320735 12.1684582,17.1215051 L12,16.9636049 L11.2909136,16.2545185 C11.1277396,16.0913445 10.9223225,15.9961596 10.709865,15.968964 L10.5818272,15.9608053 C10.3765161,15.9608053 10.1712051,16.0234641 9.997039,16.1487817 L9.87274076,16.2545185 L9.16365434,16.9636049 C8.80467153,17.3225877 8.7747563,17.8860269 9.07390864,18.2790858 L9.16365434,18.3817777 L9.87274076,19.0908641 C11.145498,20.3636214 12.8136502,21 14.4818024,21 L14.75976,20.9941076 C16.3340846,20.9273271 17.8888156,20.2929126 19.0908641,19.0908641 C21.5656699,16.6160584 21.6344145,12.6463179 19.297098,10.0884602 L19.0908641,9.87274076 L18.3817777,9.16365434 Z M11.2909136,9.16365434 C10.7034872,8.57622793 9.75108076,8.57622793 9.16365434,9.16365434 C8.61538969,9.711919 8.57883871,10.5781218 9.05400141,11.1687782 L9.16365434,11.2909136 L12.7090864,14.8363457 C12.9832187,15.110478 13.3368356,15.2566819 13.6957514,15.2749574 L13.8496806,15.2749574 L14.002961,15.2592927 C14.3080077,15.2122986 14.6013751,15.0713162 14.8363457,14.8363457 C15.3846103,14.288081 15.4211613,13.4218782 14.9459986,12.8312218 L14.8363457,12.7090864 L11.2909136,9.16365434 Z M9.51819755,3 C7.85004533,3 6.1818931,3.63637862 4.90913586,4.90913586 C2.43433012,7.38394161 2.36558551,11.3536821 4.70290205,13.9115398 L4.90913586,14.1272592 L5.61822228,14.8363457 C5.81403108,15.0321545 6.07066989,15.1300589 6.32730869,15.1300589 L6.45534647,15.1219002 C6.62531253,15.1001436 6.79077265,15.034874 6.93370315,14.9260914 L7.0363951,14.8363457 L7.74548152,14.1272592 C8.10446433,13.7682764 8.13437956,13.2048372 7.83522722,12.8117784 L7.74548152,12.7090864 L7.0363951,12 C5.66573346,10.6293384 5.66573346,8.40705675 7.0363951,7.0363951 C7.69431269,6.37847751 8.54844352,6.03636037 9.41042288,6.01004366 L9.62597222,6.01004366 C10.4017536,6.0337287 11.1711778,6.31321209 11.7969267,6.84849384 L12,7.0363951 L12.7090864,7.74548152 C12.9048952,7.94129032 13.161534,8.03919473 13.4181728,8.03919473 L13.5462106,8.03103603 C13.7161767,8.00927949 13.8816368,7.94400989 14.0245673,7.83522722 L14.1272592,7.74548152 L14.8363457,7.0363951 C15.1953285,6.67741229 15.2252437,6.1139731 14.9260914,5.72091422 L14.8363457,5.61822228 L14.1272592,4.90913586 C12.9252107,3.70708736 11.3704797,3.07267287 9.79615512,3.00589239 L9.51819755,3 Z" id="Combined-Shape" fill="#FFFFFF"></path>
    </g>
</svg>