<?xml version="1.0" encoding="UTF-8"?>
<svg width="24px" height="24px" viewBox="0 0 24 24" version="1.1" xmlns="http://www.w3.org/2000/svg" xmlns:xlink="http://www.w3.org/1999/xlink">
    <title>Icon/Link/Filled</title>
    <g id="💎-Icons" stroke="none" stroke-width="1" fill="none" fill-rule="evenodd">
        <g id="Icon/Link/Filled" fill="#FFFFFF">
            <path d="M7.92765069,8.98918975 C9.44500187,7.47183857 11.8765459,7.42585801 13.4493027,8.85124852 L13.5941783,8.98918975 L14.3024943,9.6975057 C14.6936864,10.0886978 14.6936864,10.7229455 14.3024943,11.1141376 C13.9392445,11.4773874 13.3664214,11.5033336 12.9732325,11.1919767 L12.8858624,11.1141376 L12.1775464,10.4058217 C11.4307251,9.65900038 10.2409807,9.62505349 9.4538936,10.3039819 L9.3442826,10.4058217 L5.59020821,14.1598961 C4.84338693,14.9067173 4.80944051,16.0964623 5.48836895,16.8835493 L5.59020821,16.9931599 L7.00684013,18.4097918 C7.75366141,19.1566131 8.94340634,19.1905595 9.73049341,18.5116311 L9.84010395,18.4097918 L10.9025779,17.3473179 C11.29377,16.9561258 11.9280177,16.9561258 12.3192098,17.3473179 C12.6824596,17.7105677 12.708406,18.2833909 12.397049,18.6765798 L12.3192098,18.7639498 L11.2567359,19.8264237 C9.73938468,21.3437749 7.30784087,21.3897552 5.73508408,19.9643647 L5.59020821,19.8264237 L4.1735763,18.4097918 C2.65622512,16.8924406 2.61024479,14.4608968 4.03563529,12.88814 L4.1735763,12.7432641 L7.92765069,8.98918975 Z M12.7432641,4.1735763 C14.2606153,2.65622512 16.6921591,2.61024479 18.2649159,4.03563529 L18.4097918,4.1735763 L19.8264237,5.59020821 C21.3437749,7.10755939 21.3897552,9.5391032 19.9643647,11.11186 L19.8264237,11.2567359 L16.0723492,15.0108104 C14.554998,16.5281615 12.123454,16.5741421 10.5506972,15.1487516 L10.4058216,15.0108104 L9.69750559,14.3024944 C9.30631349,13.9113023 9.30631349,13.2770546 9.69750559,12.8858625 C10.0607554,12.5226127 10.6335785,12.4966665 11.0267674,12.8080234 L11.1141375,12.8858625 L11.8224535,13.5941784 C12.5692747,14.3409997 13.7590199,14.3749459 14.546107,13.6960175 L14.6557173,13.5941784 L18.4097918,9.84010395 C19.1566131,9.09328267 19.1905595,7.90353773 18.5116311,7.11645066 L18.4097918,7.00684013 L16.9931599,5.59020821 C16.2463386,4.84338693 15.0565937,4.80944051 14.2695066,5.48836895 L14.1598961,5.59020821 L13.0974221,6.65268215 C12.70623,7.04387425 12.0719823,7.04387425 11.6807902,6.65268215 C11.3175404,6.28943234 11.291594,5.71660907 11.602951,5.3234202 L11.6807902,5.23605024 L12.7432641,4.1735763 Z" id="Shape"></path>
        </g>
    </g>
</svg>