<?xml version="1.0" encoding="UTF-8"?>
<svg width="24px" height="24px" viewBox="0 0 24 24" version="1.1" xmlns="http://www.w3.org/2000/svg" xmlns:xlink="http://www.w3.org/1999/xlink">
    <title>Icon/link/Outline</title>
    <g id="Icon/link/Outline" stroke="none" stroke-width="1" fill="none" fill-rule="evenodd">
        <path d="M5.03028638,5.03028638 C7.67581106,2.3847617 11.9276968,2.32463614 14.6462379,4.8499097 L14.8333762,5.03028638 L15.4242816,5.62119172 C16.0711741,6.26808428 16.2592856,7.20002682 15.9886161,8.01270019 C16.7458827,7.75884675 17.6081927,7.90578923 18.2457493,8.45245741 L18.3788083,8.57571845 L18.9697136,9.16662379 C21.6767621,11.8736723 21.6767621,16.2626651 18.9697136,18.9697136 C16.3241889,21.6152383 12.0723032,21.6753639 9.35376211,19.1500903 L9.16662379,18.9697136 L8.57571845,18.3788083 C7.92882589,17.7319157 7.74071436,16.7999732 8.01138386,15.9872998 C7.25411729,16.2411532 6.39180735,16.0942108 5.75425071,15.5475426 L5.62119172,15.4242816 L5.03028638,14.8333762 C2.32323787,12.1263277 2.32323787,7.73733489 5.03028638,5.03028638 Z M17.3181481,9.63637862 C17.0189958,9.33722628 16.5494631,9.31229692 16.221914,9.56159053 L16.1363374,9.63637862 L15.5454321,10.227284 C15.2462797,10.5264363 15.2213504,10.995969 15.470644,11.323518 L15.5454321,11.4090947 L16.1363374,12 C17.2785555,13.142218 17.2785555,14.9941194 16.1363374,16.1363374 C15.0398081,17.2328667 13.2892347,17.2767279 12.1403818,16.2679209 L12,16.1363374 L11.4090947,15.5454321 C11.2731163,15.4094537 11.1019354,15.330133 10.9248875,15.30747 L10.8181893,15.3006711 C10.6470968,15.3006711 10.4760042,15.3528867 10.3308658,15.4573181 L10.227284,15.5454321 L9.63637862,16.1363374 C9.33722628,16.4354898 9.31229692,16.9050224 9.56159053,17.2325715 L9.63637862,17.3181481 L10.227284,17.9090534 C11.287915,18.9696845 12.6780419,19.5 14.0681687,19.5 L14.2998,19.4950897 C15.6117371,19.4394393 16.9073464,18.9107605 17.9090534,17.9090534 C19.9713916,15.8467153 20.0286787,12.5385983 18.080915,10.4070502 L17.9090534,10.227284 L17.3181481,9.63637862 Z M11.4090947,9.63637862 C10.9195726,9.1468566 10.1259006,9.1468566 9.63637862,9.63637862 C9.17949141,10.0932658 9.14903226,10.8151015 9.54500118,11.3073152 L9.63637862,11.4090947 L12.5909053,14.3636214 C12.819349,14.592065 13.1140297,14.7139016 13.4131262,14.7291312 L13.5414005,14.7291312 L13.6691342,14.7160772 C13.9233398,14.6769155 14.1678126,14.5594302 14.3636214,14.3636214 C14.8205086,13.9067342 14.8509677,13.1848985 14.4549988,12.6926848 L14.3636214,12.5909053 L11.4090947,9.63637862 Z M9.93183129,4.5 C8.54170444,4.5 7.15157759,5.03031552 6.09094655,6.09094655 C4.02860843,8.15328467 3.97132126,11.4614017 5.91908504,13.5929498 L6.09094655,13.772716 L6.6818519,14.3636214 C6.8450259,14.5267954 7.05889157,14.6083824 7.27275724,14.6083824 L7.37945539,14.6015835 C7.52109377,14.583453 7.65897721,14.5290617 7.77808596,14.4384095 L7.86366259,14.3636214 L8.45456793,13.772716 C8.75372027,13.4735637 8.77864964,13.004031 8.52935602,12.676482 L8.45456793,12.5909053 L7.86366259,12 C6.72144455,10.857782 6.72144455,9.00588062 7.86366259,7.86366259 C8.41192724,7.31539793 9.12370293,7.03030031 9.84201907,7.00836972 L10.0216435,7.00836972 C10.668128,7.02810725 11.3093148,7.26101007 11.8307722,7.7070782 L12,7.86366259 L12.5909053,8.45456793 C12.7540794,8.61774194 12.967945,8.69932894 13.1818107,8.69932894 L13.2885088,8.69253002 C13.4301472,8.67439958 13.5680307,8.62000824 13.6871394,8.52935602 L13.772716,8.45456793 L14.3636214,7.86366259 C14.6627737,7.56451024 14.6877031,7.09497758 14.4384095,6.76742852 L14.3636214,6.6818519 L13.772716,6.09094655 C12.7710089,5.08923946 11.4753997,4.56056072 10.1634626,4.50491033 L9.93183129,4.5 Z" id="Shape" fill="#FFFFFF"></path>
    </g>
</svg>