<?xml version="1.0" encoding="UTF-8"?>
<svg width="24px" height="24px" viewBox="0 0 24 24" version="1.1" xmlns="http://www.w3.org/2000/svg" xmlns:xlink="http://www.w3.org/1999/xlink">
    <title>Icon/Link/Outline</title>
    <g id="💎-Icons" stroke="none" stroke-width="1" fill="none" fill-rule="evenodd">
        <g id="Icon/Link/Outline" fill="#FFFFFF">
            <path d="M13.1996896,4.09616388 C14.6140946,2.68175888 16.8789498,2.6361329 18.3482226,3.95928597 L18.492437,4.09616388 L19.9038363,5.50756319 C21.3182413,6.92196819 21.3638675,9.18682316 20.0407145,10.6560959 L19.9038363,10.8003106 L15.8813482,14.8227986 C14.4669432,16.2372036 12.202088,16.2828296 10.7328152,14.9596765 L10.5886008,14.8227986 L9.88290119,14.117099 C9.59059083,13.8247886 9.59059083,13.3508598 9.88290119,13.0585495 C10.1508524,12.7905983 10.5714134,12.768269 10.8647996,12.9915617 L10.9414507,13.0585495 L11.6471503,13.7642491 C12.4875426,14.6046414 13.8283314,14.6396578 14.7104234,13.8692982 L14.8227988,13.7642491 L18.8452868,9.74176111 C19.6856791,8.9013688 19.7206953,7.56058016 18.9503357,6.67848815 L18.8452868,6.56611267 L17.4338875,5.15471336 C16.5934952,4.31432106 15.2527065,4.27930458 14.3706145,5.04966419 L14.258239,5.15471336 L13.1996896,6.21326284 C12.9073792,6.50557321 12.4334505,6.50557321 12.1411401,6.21326284 C11.8731889,5.94531167 11.8508593,5.52475093 12.074152,5.23136478 L12.1411401,5.15471336 L13.1996896,4.09616388 Z M8.11865206,9.17720139 C9.53305706,7.76279638 11.7979123,7.71717041 13.2671851,9.04032348 L13.4113995,9.17720139 L14.1170991,9.88290104 C14.4094095,10.1752114 14.4094095,10.6491402 14.1170991,10.9414505 C13.8491479,11.2094017 13.4285869,11.231731 13.1352007,11.0084383 L13.0585496,10.9414505 L12.35285,10.2357509 C11.5124577,9.39535856 10.1716689,9.36034221 9.28957689,10.1307018 L9.17720154,10.2357509 L5.15471352,14.2582389 C4.31432121,15.0986312 4.279305,16.4394198 5.04966461,17.3215119 L5.15471352,17.4338873 L6.56611282,18.8452866 C7.40650513,19.6856789 8.74729377,19.7206954 9.62938578,18.9503358 L9.74176126,18.8452866 L10.8003107,17.7867372 C11.0926211,17.4944268 11.5665499,17.4944268 11.8588602,17.7867372 C12.1268114,18.0546883 12.149141,18.4752491 11.9258483,18.7686352 L11.8588602,18.8452866 L10.8003107,19.9038361 C9.38590574,21.3182411 7.12105047,21.3638671 5.65177771,20.040714 L5.50756334,19.9038361 L4.09616404,18.4924368 C2.68175903,17.0780318 2.63613276,14.8131768 3.95928583,13.3439041 L4.09616404,13.1996894 L8.11865206,9.17720139 Z" id="Shape"></path>
        </g>
    </g>
</svg>
