<?xml version="1.0" encoding="UTF-8"?>
<svg width="24px" height="24px" viewBox="0 0 24 24" version="1.1" xmlns="http://www.w3.org/2000/svg" xmlns:xlink="http://www.w3.org/1999/xlink">
    <title>Social/Whatsapp/White</title>
    <g id="💎-Icons" stroke="none" stroke-width="1" fill="none" fill-rule="evenodd">
        <g id="Social/Whatsapp/White" fill="#FFFFFF">
            <path d="M2.08147003,11.7169746 C2.08104506,13.4294821 2.5284317,15.1011169 3.37885852,16.5743833 L2,21.6085336 L7.15209002,20.2576612 C8.46245599,20.97223 9.92496986,21.3748168 11.4215078,21.4330538 L11.8004336,21.4404204 C17.1564669,21.4404204 21.5168759,17.0814121 21.5191182,11.7248185 C21.5200135,9.1286033 20.5098777,6.6875867 18.6751163,4.85125643 C16.8400746,3.01492616 14.4001506,2.00305355 11.8004336,2.00193298 C6.4432797,2.00193298 2.08371117,6.3601008 2.08147003,11.7169746 Z M11.8032882,3.64289228 C13.9609973,3.6437327 15.9888886,4.48491484 17.5142614,6.0111 C19.039466,7.53739721 19.8787152,9.56638108 19.8781275,11.7240341 C19.8761871,16.0941547 16.3854964,19.6649429 12.0467142,19.7956956 L11.7970722,19.7994051 C10.3473658,19.7985646 8.92561751,19.4094195 7.68570938,18.6736548 L7.39060789,18.4987285 L4.33313899,19.3003266 L5.14958432,16.3205467 L4.95726409,16.0150799 C4.1485504,14.7293406 3.72172618,13.2433558 3.72231326,11.7177029 C3.72407937,7.26540742 7.34763104,3.64289228 11.8032882,3.64289228 Z M8.35969778,7.22995924 C8.19771972,7.22995924 7.93463845,7.29074906 7.71217775,7.53375536 L7.55105281,7.70851079 C7.27631819,8.01841097 6.86217114,8.5882183 6.86217114,9.55892931 C6.86217114,10.4882441 7.3886422,11.3931554 7.67967622,11.8257503 L7.8970017,12.1332202 C8.18700954,12.56275 9.69822707,14.8273959 12.0017668,15.7358065 L12.446911,15.9057589 C14.1175199,16.5206768 14.5048219,16.3807126 14.9158031,16.3432942 C15.3610326,16.3028725 16.3525669,15.7560607 16.5548574,15.1889975 C16.7572571,14.6220182 16.7572571,14.136 16.6965756,14.0345046 C16.6662348,13.983904 16.6105699,13.9434088 16.5321372,13.9003944 L15.4760353,13.3807714 C15.0930662,13.1952693 14.691615,13.0047805 14.5717832,12.9611408 C14.3491236,12.8801994 14.1872324,12.8397778 14.0252543,13.0828961 C13.8633743,13.3257147 13.3982967,13.8725321 13.2565729,14.0345102 C13.1326553,14.1765008 13.0086647,14.2097611 12.8169282,14.1344881 L12.3567137,13.9286691 C11.9844392,13.7578621 11.4154329,13.4590682 10.7775691,12.8903854 C10.0556433,12.2467313 9.56830846,11.4518566 9.42658466,11.2087215 C9.28496452,10.9659029 9.4114654,10.8343678 9.53322068,10.7132905 C9.64232755,10.6044806 9.77614014,10.4297589 9.89760127,10.2880351 C10.0187627,10.1462188 10.0591843,10.0450176 10.1401257,9.88303389 C10.2076586,9.74796814 10.1907754,9.62697173 10.1481551,9.52009655 L10.0394973,9.26966299 C9.8806593,8.88468811 9.54408739,8.03930227 9.37134067,7.65514926 C9.18954538,7.25081203 8.9981132,7.24271593 8.82506954,7.23560032 C8.68344939,7.22957727 8.52147974,7.22995924 8.35969778,7.22995924 Z" id="Shape"></path>
        </g>
    </g>
</svg>