<?xml version="1.0" encoding="UTF-8"?>
<svg width="24px" height="24px" viewBox="0 0 24 24" version="1.1" xmlns="http://www.w3.org/2000/svg" xmlns:xlink="http://www.w3.org/1999/xlink">
    <title>Social/Whatsapp/Color</title>
    <defs>
        <linearGradient x1="50.0005452%" y1="99.9896397%" x2="50.0005452%" y2="-0.0105082593%" id="linearGradient-1">
            <stop stop-color="#20B038" offset="0%"></stop>
            <stop stop-color="#60D66A" offset="100%"></stop>
        </linearGradient>
        <linearGradient x1="50.0007039%" y1="100.002858%" x2="50.0007039%" y2="0.00300051009%" id="linearGradient-2">
            <stop stop-color="#F9F9F9" offset="0%"></stop>
            <stop stop-color="#FFFFFF" offset="100%"></stop>
        </linearGradient>
    </defs>
    <g id="💎-Icons" stroke="none" stroke-width="1" fill="none" fill-rule="evenodd">
        <g id="Social/Whatsapp/Color">
            <path d="M7.39088299,18.4967171 L7.68598448,18.6716433 C8.92597666,19.4075201 10.3476128,19.7966933 11.7973473,19.7974777 L11.8005098,19.7974777 C16.2528053,19.7974777 19.876441,16.1746824 19.8781223,11.7221068 C19.8788222,9.56420158 19.039461,7.53538579 17.5143684,6.00889248 C15.9891637,4.48267931 13.9613285,3.64158121 11.8033953,3.64068476 C7.34773805,3.64068476 3.72410234,7.26291976 3.72242088,11.7154954 C3.72183319,13.2412884 4.14865742,14.7273012 4.95737111,16.0128724 L5.14959048,16.3184512 L4.33336899,19.2983208 L7.39088299,18.4967171 Z M2.00011206,21.6065726 L3.37885852,16.5721422 C2.5284317,15.0987077 2.08104506,13.427269 2.08174541,11.7150416 C2.08381846,6.35816782 6.44327493,2 11.800709,2 C14.4003699,2.00112057 16.8404621,3.01288112 18.6753916,4.84932345 C20.5101251,6.68573776 21.5202328,9.1268104 21.5193929,11.7228856 C21.5171232,17.0794792 17.1567423,21.4384874 11.800709,21.4384874 C11.800314,21.4384874 11.8009066,21.4384874 11.800709,21.4384874 L11.7965581,21.4384874 C10.1700541,21.4379271 8.57184449,21.0299284 7.1523654,20.2557282 L2.00011206,21.6065726 Z" id="Shape" fill="#FFFFFF" fill-rule="nonzero"></path>
            <path d="M2.41668309,11.7200841 C2.41609479,13.3728934 2.84796157,14.9865389 3.66914158,16.4090996 L2.33801924,21.2692817 L7.31165885,19.965137 C8.68200106,20.7118833 10.2248547,21.106099 11.7950501,21.1066033 L11.7991021,21.1066033 C16.9699616,21.1066033 21.1788138,16.8988717 21.1810557,11.7274519 C21.1820354,9.22127425 20.2070015,6.86502859 18.4355241,5.09201039 C16.6643268,3.31924432 14.3087535,2.34241747 11.7986819,2.34124087 C6.6275422,2.34124087 2.41869003,6.5484122 2.41644889,11.7201121" id="Shape" fill="url(#linearGradient-1)" fill-rule="nonzero"></path>
            <path d="M2.08163335,11.7172827 C2.08104506,13.4294821 2.5284317,15.1011169 3.37885852,16.5743833 L2,21.6085336 L7.15209002,20.2576612 C8.57165316,21.0317774 10.1697788,21.4397481 11.7962827,21.4404204 L11.8004336,21.4404204 C17.1564669,21.4404204 21.5168759,17.0814121 21.5191176,11.7248185 C21.5200135,9.1286033 20.5098777,6.6875867 18.6751163,4.85125643 C16.8400746,3.01492616 14.4001506,2.00305355 11.8004336,2.00193298 C6.4432797,2.00193298 2.08371117,6.3601008 2.08147003,11.7169746 M5.14958432,16.3205467 L4.95726409,16.0150799 C4.1485504,14.7293406 3.72172618,13.2433558 3.72231387,11.7177029 C3.72407937,7.26540742 7.34763104,3.64289228 11.8032882,3.64289228 C13.9609973,3.6437327 15.9888886,4.48491484 17.5142614,6.0111 C19.039466,7.53739721 19.8787152,9.56638108 19.8781272,11.7240341 C19.8761505,16.1766098 16.2525302,19.7994051 11.8002347,19.7994051 L11.7970722,19.7994051 C10.3473658,19.7985646 8.92561751,19.4094195 7.68570938,18.6736548 L7.39060789,18.4987285 L4.33313899,19.3003266 L5.14958432,16.3205467 Z" id="Shape" fill="url(#linearGradient-2)" fill-rule="nonzero"></path>
            <path d="M9.37148635,7.6552249 C9.18954538,7.25081203 8.9981132,7.24271593 8.82506954,7.23560032 C8.68344939,7.22957727 8.52147974,7.22996426 8.35969778,7.22996426 C8.19771972,7.22996426 7.93463845,7.29074906 7.71217775,7.53375536 C7.48951815,7.77677288 6.86217114,8.36420807 6.86217114,9.55892931 C6.86217114,10.7537626 7.73246003,11.9082555 7.85370545,12.0704296 C7.97516378,12.2323096 9.53368852,14.7625094 12.0017668,15.7358065 C14.053134,16.5447163 14.4705735,16.3838308 14.9158031,16.3432942 C15.3610326,16.3028725 16.3525669,15.7560607 16.5548574,15.1889975 C16.7572571,14.6220182 16.7572571,14.136 16.6965756,14.0345046 C16.635894,13.9333033 16.473916,13.8725237 16.2310918,13.7511691 C15.9881723,13.6297107 14.7943279,13.0421859 14.5717832,12.9611408 C14.3491236,12.8801994 14.1872324,12.8397778 14.0252543,13.0828961 C13.8633743,13.3257147 13.3982967,13.8725321 13.2565729,14.0345102 C13.1149528,14.1967852 12.9732374,14.2170451 12.7304104,14.0955839 C12.4874909,13.9737306 11.7053711,13.7175604 10.7775691,12.8903854 C10.0556433,12.2467313 9.56830846,11.4518566 9.42658466,11.2087215 C9.28496452,10.9659029 9.4114654,10.8343678 9.53322068,10.7132905 C9.64232755,10.6044806 9.77614014,10.4297589 9.89760127,10.2880351 C10.0187627,10.1462188 10.0591843,10.0450176 10.1401257,9.88303389 C10.2211652,9.72095499 10.1806455,9.57913594 10.1199639,9.45766641 C10.0591843,9.33620808 9.58727406,8.13534052 9.37134067,7.65514926" id="Path" fill="#FFFFFF"></path>
        </g>
    </g>
</svg>