<svg width="24" height="24" viewBox="0 0 24 24" xmlns="http://www.w3.org/2000/svg">
  <g id="iconLeft">
    <path id="Union" fill-rule="evenodd" clip-rule="evenodd" d="M2.75 11C2.75 6.71979 6.21979 3.25 10.5 3.25C14.1784 3.25 17.2583 5.81266 18.0516 9.25003C19.504 9.25625 20.7022 10.3916 20.7851 11.8431L21.1276 17.8357C21.212 19.314 19.5367 20.2226 18.3437 19.3454L16.6481 18.0986C16.56 18.0339 16.44 18.0339 16.3519 18.0986L14.6563 19.3454C13.689 20.0567 12.4046 19.5939 11.9983 18.6053C11.5135 18.7002 11.0126 18.75 10.5 18.75C6.21979 18.75 2.75 15.2802 2.75 11ZM10.5 6.25C10.9142 6.25 11.25 6.58579 11.25 7V11.5C11.25 11.9142 10.9142 12.25 10.5 12.25L7 12.25C6.58579 12.25 6.25 11.9142 6.25 11.5C6.25 11.0858 6.58579 10.75 7 10.75H9.75V7C9.75 6.58579 10.0858 6.25 10.5 6.25ZM13.7124 11.9287C13.7503 11.2671 14.2978 10.75 14.9604 10.75H18.0396C18.7023 10.75 19.2498 11.2671 19.2876 11.9287L19.63 17.9213C19.6421 18.1325 19.4027 18.2623 19.2323 18.1369L17.5367 16.8902C16.92 16.4367 16.0801 16.4367 15.4633 16.8902L13.7677 18.1369C13.5973 18.2623 13.3579 18.1325 13.37 17.9213L13.7124 11.9287Z" fill="#FFFFFF"/>
  </g>
</svg>
