<svg width="24" height="24" viewBox="0 0 24 24" fill="none" xmlns="http://www.w3.org/2000/svg">
  <g id="Filled=no">
    <g id="Union">
      <path d="M10.5 6.25C10.9142 6.25 11.25 6.58579 11.25 7V11.5C11.25 11.9142 10.9142 12.25 10.5 12.25L7 12.25C6.58579 12.25 6.25 11.9142 6.25 11.5C6.25 11.0858 6.58579 10.75 7 10.75H9.75V7C9.75 6.58579 10.0858 6.25 10.5 6.25Z" fill="#FFFFFF"/>
      <path fill-rule="evenodd" clip-rule="evenodd" d="M10.5 3.25C14.1784 3.25 17.2583 5.81266 18.0516 9.25003C19.504 9.25625 20.7022 10.3916 20.7851 11.8431L21.1276 17.8357C21.212 19.314 19.5367 20.2226 18.3437 19.3454L16.6481 18.0986C16.56 18.0339 16.44 18.0339 16.3519 18.0986L14.6563 19.3454C13.689 20.0567 12.4046 19.5939 11.9983 18.6053C11.5135 18.7002 11.0126 18.75 10.5 18.75C6.21979 18.75 2.75 15.2802 2.75 11C2.75 6.71979 6.21979 3.25 10.5 3.25ZM4.25 11C4.25 7.54822 7.04822 4.75 10.5 4.75C13.3443 4.75 15.7449 6.64998 16.5017 9.25H14.9604C13.5026 9.25 12.2981 10.3876 12.2149 11.8431L11.9151 17.0891C11.4604 17.1944 10.9867 17.25 10.5 17.25C7.04822 17.25 4.25 14.4518 4.25 11ZM14.9604 10.75C14.2978 10.75 13.7503 11.2671 13.7124 11.9287L13.37 17.9213C13.3579 18.1325 13.5973 18.2623 13.7677 18.1369L15.4633 16.8902C16.0801 16.4367 16.92 16.4367 17.5367 16.8902L19.2323 18.1369C19.4027 18.2623 19.6421 18.1325 19.63 17.9213L19.2876 11.9287C19.2498 11.2671 18.7023 10.75 18.0396 10.75H14.9604Z" fill="#FFFFFF"/>
    </g>
  </g>
</svg>
