<svg width="24" height="24" viewBox="0 0 24 24" fill="none" xmlns="http://www.w3.org/2000/svg">
<g id="Filled=yes, Status=Subscribed">
<path id="Union" fill-rule="evenodd" clip-rule="evenodd" d="M20.0807 4.22472C20.3428 3.90403 20.2954 3.43153 19.9747 3.16936C19.654 2.9072 19.1815 2.95464 18.9193 3.27533L15.3709 7.61593L13.5443 5.68904C13.2594 5.38842 12.7846 5.37573 12.484 5.6607C12.1834 5.94566 12.1707 6.42036 12.4557 6.72098L14.8682 9.26598C15.0164 9.42234 15.2247 9.50741 15.44 9.49951C15.6553 9.49161 15.8568 9.3915 15.9931 9.2247L20.0807 4.22472ZM11 7C11 6.65127 11.0446 6.31296 11.1285 5.99048C10.9098 6.02315 10.6951 6.06793 10.4851 6.12411L10.3078 6.17555C7.98481 6.87581 6.27161 8.98245 6.15622 11.506L6.15001 11.7779V15.1481C6.15001 15.6453 5.77806 16.0556 5.29731 16.1158L5.06131 16.1299C4.5764 16.1863 4.20001 16.5985 4.20001 17.0987C4.20001 17.5959 4.57196 18.0062 5.05271 18.0664L5.17501 18.074H9.07501L9.07998 18.2459C9.16524 19.7179 10.3382 20.8979 11.8068 20.9937L12 21L12.1923 20.9938C13.6518 20.899 14.8195 19.7335 14.9182 18.2747L14.925 18.074H18.825L18.9473 18.0664C19.4281 18.0062 19.8 17.5959 19.8 17.0987C19.8 16.6015 19.4281 16.1912 18.9473 16.131L18.7113 16.1168C18.2668 16.0652 17.9135 15.7145 17.8577 15.2711L17.85 15.1481V11.7779L17.846 11.5585C17.8267 11.0346 17.7385 10.5282 17.5902 10.0482C16.8923 10.6418 15.988 11 15 11C12.7909 11 11 9.20914 11 7Z" fill="currentColor"/>
</g>
</svg>
