<svg width="24" height="24" viewBox="0 0 24 24" fill="none" xmlns="http://www.w3.org/2000/svg">
<g id="Filled=no, Status=Subscribed">
<path id="Union" fill-rule="evenodd" clip-rule="evenodd" d="M20.0807 4.22472C20.3428 3.90403 20.2954 3.43153 19.9747 3.16936C19.654 2.9072 19.1815 2.95464 18.9193 3.27533L15.3709 7.61593L13.5443 5.68904C13.2594 5.38842 12.7846 5.37573 12.484 5.6607C12.1834 5.94566 12.1707 6.42036 12.4557 6.72098L14.8682 9.26598C15.0164 9.42234 15.2247 9.50741 15.44 9.49951C15.6553 9.49161 15.8568 9.3915 15.9931 9.2247L20.0807 4.22472ZM10.5059 7.17398C10.8985 7.04175 11.1095 6.61635 10.9773 6.2238C10.8451 5.83126 10.4196 5.62023 10.0271 5.75246C9.99575 5.76302 9.96427 5.77387 9.93267 5.78504L9.9318 5.78229C8.53761 6.26269 7.38013 7.19797 6.6175 8.39715C6.2786 8.87962 6.052 9.40938 5.90059 9.95524C5.74851 10.4545 5.6564 10.9782 5.63174 11.5174L5.62618 11.7456C5.58431 12.4635 5.60156 13.2042 5.61742 13.8854L5.62123 14.0503L5.48794 14.0979L5.32344 14.169C4.51958 14.5522 4 15.3421 4 16.245C4 17.4145 4.87197 18.3953 6.02432 18.5395L6.21951 18.5546L8.366 18.556L8.46005 18.7679C9.06462 20.0201 10.2957 20.8923 11.7414 20.9866L11.9513 20.9942L12.2088 20.989L12.4156 20.9705L12.6402 20.9384C13.9748 20.7098 15.0666 19.8402 15.5946 18.6652L15.639 18.557L17.6875 18.5575L17.8824 18.5483L18.0499 18.5223C19.2055 18.3058 20 17.3613 20 16.245L19.9941 16.0793L19.9753 15.9065C19.8497 15.0518 19.2552 14.3424 18.4507 14.0616L18.3892 14.0421L18.3928 13.8885C18.4112 13.1079 18.4316 12.247 18.3595 11.4127L18.3501 11.2637L18.3456 11.2642C18.3263 11.0714 18.3016 10.8804 18.2705 10.6925C18.2029 10.2838 17.8167 10.0074 17.4081 10.0751C16.9994 10.1427 16.723 10.5288 16.7907 10.9375C16.8245 11.1421 16.8495 11.3504 16.8676 11.5618L16.8716 11.6297L16.875 11.8125V14.62L16.8814 14.7225L16.9026 14.8308C16.9781 15.1126 17.2013 15.3339 17.4841 15.4068L17.5927 15.427L17.7894 15.4388L17.8963 15.4596C18.2438 15.5517 18.5 15.8684 18.5 16.245C18.5 16.6215 18.2438 16.9383 17.8963 17.0304L17.7894 17.0512L17.6875 17.0575H14.4375L14.4319 17.2247L14.4141 17.3969C14.2636 18.4765 13.4062 19.3297 12.3245 19.4736L12.1603 19.4898L12 19.495L11.839 19.4898L11.6737 19.4733C10.5827 19.3274 9.72014 18.4598 9.58188 17.3663L9.56664 17.2007L9.5625 17.0575H6.3125L6.21058 17.0512L6.10373 17.0304C5.75616 16.9383 5.5 16.6215 5.5 16.245C5.5 15.863 5.76356 15.5426 6.11874 15.4557L6.21775 15.438L6.41442 15.4262L6.52127 15.4054C6.83408 15.3225 7.07285 15.0576 7.11748 14.731L7.12157 14.6707C7.1281 14.6293 7.13124 14.5868 7.1307 14.5436C7.12927 14.4278 7.12728 14.3125 7.125 14.1976V11.8125L7.12516 11.8056C7.12965 11.7327 7.13484 11.6599 7.14081 11.5873C7.17718 11.1451 7.24136 10.7357 7.34422 10.3627C7.46772 9.96567 7.64105 9.5898 7.85614 9.24352L7.86597 9.22972L7.87517 9.21549C8.61682 8.06834 9.61943 7.47258 10.5059 7.17398Z" fill="currentColor"/>
</g>
</svg>
