<svg width="24" height="24" viewBox="0 0 24 24" fill="none" xmlns="http://www.w3.org/2000/svg">
<g id="Filled=yes">
<g id="Subtract">
<path d="M11.251 11.2285C11.6805 10.799 12.3738 10.7966 12.7998 11.2227C13.2258 11.6487 13.2235 12.3419 12.7939 12.7715C12.3644 13.201 11.6712 13.2033 11.2451 12.7773C10.8191 12.3513 10.8214 11.6581 11.251 11.2285Z" fill="#FFFFFF"/>
<path fill-rule="evenodd" clip-rule="evenodd" d="M12 3C16.9706 3 21 7.02944 21 12C21 16.9706 16.9706 21 12 21C7.02944 21 3 16.9706 3 12C3 7.02944 7.02944 3 12 3ZM10.0781 13.9443L16.2646 16.2422L13.9668 10.0557L7.7793 7.75781L10.0781 13.9443Z" fill="#FFFFFF"/>
</g>
</g>
</svg>
