<svg width="20" height="14" viewBox="0 0 20 14" fill="none" xmlns="http://www.w3.org/2000/svg">
  <path fill-rule="evenodd" clip-rule="evenodd" d="M12.1603 1.5H4C2.61929 1.5 1.5 2.61929 1.5 4V10C1.5 11.3807 2.61929 12.5 4 12.5H12.1603C12.8901 12.5 13.5834 12.1811 14.0584 11.627L17.1877 7.97619C17.6691 7.41445 17.6691 6.58555 17.1877 6.02381L14.0584 2.37302C13.5834 1.81891 12.8901 1.5 12.1603 1.5ZM4 0C1.79086 0 0 1.79086 0 4V10C0 12.2091 1.79086 14 4 14H12.1603C13.328 14 14.4374 13.4897 15.1973 12.6032L18.3265 8.95237C19.2895 7.8289 19.2895 6.1711 18.3265 5.04763L15.1973 1.39683C14.4374 0.510251 13.328 0 12.1603 0H4Z" fill="currentColor"/>
</svg>
