<svg width="24" height="24" viewBox="0 0 24 24" fill="currentcolor" xmlns="http://www.w3.org/2000/svg">
<path id="Shape" fill-rule="evenodd" clip-rule="evenodd" d="M18.075 15H12.525C11.9515 15 11.4782 15.3815 11.4088 15.8746L11.4 16V20C11.4 20.5098 11.8292 20.9305 12.3839 20.9922L12.525 21H18.075L18.2161 20.9922C18.7246 20.9356 19.1276 20.5774 19.1912 20.1254L19.2 20V16C19.2 15.4902 18.7708 15.0695 18.2161 15.0078L18.075 15ZM8.7 15H5.7C5.24118 15 4.86255 15.3815 4.80701 15.8746L4.8 16V20C4.8 20.5098 5.14334 20.9305 5.58711 20.9922L5.7 21H8.7L8.81289 20.9922C9.21968 20.9356 9.54208 20.5774 9.59299 20.1254L9.6 20V16C9.6 15.4902 9.25666 15.0695 8.81289 15.0078L8.7 15ZM12.48 9.6C11.9753 9.6 11.5515 9.8885 11.433 10.2784L11.4084 10.3871L11.4 10.5V12.3C11.4 12.7588 11.812 13.1375 12.3445 13.193L12.48 13.2H19.92L20.0555 13.193C20.5436 13.1421 20.9305 12.8197 20.9916 12.4129L21 12.3V10.5C21 10.0412 20.588 9.66255 20.0555 9.60701L19.92 9.6H12.48ZM3.9 9.6C3.44118 9.6 3.06255 9.94334 3.00701 10.3871L3 10.5V12.3C3 12.7588 3.34334 13.1375 3.78711 13.193L3.9 13.2H8.7L8.81289 13.193C9.21968 13.1421 9.54208 12.8197 9.59299 12.4129L9.6 12.3V10.5C9.6 10.4618 9.59762 10.4241 9.59299 10.3871L9.57251 10.2784C9.48366 9.92749 9.18868 9.65871 8.82397 9.60847L8.7 9.6H3.9ZM8.13333 4.08C6.95513 4.08 6 5.04706 6 6.24C6 7.37015 6.85723 8.29758 7.94926 8.39207L8.13333 8.4H12.9333L13.1087 8.39426C13.7711 8.35073 14.3675 8.06232 14.8107 7.61755L14.888 7.5366C15.3298 7.05477 15.6 6.40933 15.6 5.7C15.6 4.20883 14.4061 3 12.9333 3C11.5246 3 10.371 4.106 10.2734 5.50718L10.2667 5.7L10.2665 6.21293C10.2522 5.03247 9.30262 4.08 8.13333 4.08Z"/>
</svg>
