<svg width="24" height="24" viewBox="0 0 24 24" fill="currentcolor" xmlns="http://www.w3.org/2000/svg">
<path d="M11.2002 20.9999H7.00977C5.34234 20.9999 4.63086 20.2885 4.63086 18.623V14.2235H11.2002V20.9999Z"/>
<path d="M19.3662 18.623C19.3662 20.2886 18.6549 20.9999 16.9873 20.9999H13.0664V14.2235H19.3662V18.623Z"/>
<path d="M11.2002 12.6396H3.57227C3.2561 12.6394 3 12.3825 3 12.0663V8.58975C3.0003 8.37978 3.08377 8.17768 3.23242 8.0292C3.38108 7.88081 3.58279 7.79706 3.79297 7.79678H11.2002V12.6396Z"/>
<path d="M20.2041 7.79678C20.4142 7.79706 20.616 7.88089 20.7646 8.0292C20.9133 8.17768 20.9968 8.37978 20.9971 8.58975V12.0663C20.9971 12.3826 20.7411 12.6395 20.4248 12.6396H13.0664V7.79678H20.2041Z"/>
<path d="M7.88867 2.99991C8.1651 2.99717 8.43972 3.05628 8.69043 3.17276C8.94072 3.28917 9.16199 3.46004 9.33789 3.67276L9.34961 3.68643L9.35938 3.7001C9.41557 3.77655 10.2761 4.91619 10.9951 5.86807L11.6885 6.78506H7.89355C7.39189 6.78419 6.9106 6.5849 6.55566 6.23038C6.20083 5.8758 6.0008 5.3951 6 4.89346V4.89151L6.00977 4.70499C6.05351 4.2722 6.24522 3.86474 6.55566 3.5546C6.9094 3.20138 7.38891 3.00209 7.88867 2.99991Z"/>
<path d="M16.1035 2.99991C16.6057 2.99991 17.088 3.19976 17.4434 3.5546C17.7984 3.90942 17.9989 4.39057 17.999 4.89249C17.999 5.39462 17.7986 5.87644 17.4434 6.23135C17.088 6.58621 16.6057 6.78506 16.1035 6.78506H12.3096L13.0039 5.86807C13.7167 4.92375 14.5826 3.77255 14.6348 3.70499L14.6416 3.6962L14.7822 3.53995C14.9312 3.39243 15.1046 3.26998 15.2949 3.1796C15.5475 3.05971 15.824 2.99877 16.1035 2.99991Z"/>
</svg>
