<svg width="24" height="24" viewBox="0 0 24 24" fill="currentColor" xmlns="http://www.w3.org/2000/svg">
<path d="M18.9231 6.68845H17.94C18.1284 6.33326 18.2281 5.9379 18.2308 5.53597C18.2314 5.01292 18.0698 4.50252 17.7683 4.07487C17.4668 3.64722 17.0401 3.32329 16.5469 3.14759C16.0536 2.97189 15.518 2.95302 15.0136 3.09359C14.5092 3.23416 14.0608 3.52726 13.7298 3.93263C13.7049 3.96859 12.6674 5.34235 12 6.2293C11.3317 5.34143 10.2932 3.96214 10.2637 3.92434C9.93167 3.52094 9.48293 3.22991 8.9789 3.0911C8.47488 2.9523 7.94022 2.97251 7.44813 3.14896C6.95605 3.32541 6.53061 3.64948 6.23006 4.07679C5.92951 4.5041 5.76856 5.01376 5.76923 5.53597C5.7719 5.9379 5.87165 6.33326 6.06 6.68845H5.07692C4.52631 6.68919 3.99847 6.90798 3.60913 7.29686C3.21979 7.68574 3.00073 8.21297 3 8.76293L3 12.2577C3 13.044 3.6374 13.6814 4.42367 13.6814V17.5218C4.36946 17.9889 4.42171 18.4623 4.5765 18.9064C4.73129 19.3505 4.98462 19.7539 5.31754 20.0864C5.65046 20.419 6.05434 20.672 6.49899 20.8266C6.94363 20.9812 7.41752 21.0334 7.88521 20.9793H16.1148C16.0819 21.0334 17.0564 20.9812 17.501 20.8266C17.9457 20.672 18.3495 20.419 18.6825 20.0864C19.0154 19.7539 19.2687 19.3505 19.4235 18.9064C19.5783 18.4623 19.6305 17.9889 19.5763 17.5218V13.6814C20.3626 13.6814 21 13.044 21 12.2577V8.76293C20.9993 8.21297 20.7802 7.68574 20.3909 7.29686C20.0015 6.90798 19.4737 6.68919 18.9231 6.68845ZM19.6154 8.76293V11.7984C19.6154 12.0745 19.3915 12.2984 19.1154 12.2984H12.6923V8.07143H18.9231C19.1066 8.07168 19.2826 8.14461 19.4123 8.27424C19.5421 8.40386 19.6151 8.57961 19.6154 8.76293ZM14.8052 4.80483C14.9118 4.67239 15.0469 4.5657 15.2005 4.49274C15.3541 4.41978 15.5222 4.38243 15.6923 4.38349C15.9983 4.38349 16.2918 4.50491 16.5082 4.72104C16.7246 4.93717 16.8462 5.23031 16.8462 5.53597C16.8462 5.84163 16.7246 6.13477 16.5082 6.3509C16.2918 6.56703 15.9983 6.68845 15.6923 6.68845H13.3846C14.0095 5.86051 14.7618 4.86108 14.8052 4.80483ZM7.15385 5.53597C7.15433 5.23046 7.27606 4.93761 7.49234 4.72158C7.70862 4.50555 8.00182 4.38397 8.30769 4.38349C8.47468 4.38179 8.63993 4.41742 8.79134 4.48778C8.94276 4.55813 9.0765 4.66142 9.18277 4.79008C9.23077 4.85554 9.98862 5.85867 10.6154 6.68845H8.30769C8.00182 6.68797 7.70862 6.56639 7.49234 6.35036C7.27606 6.13433 7.15433 5.84148 7.15385 5.53597ZM4.38462 8.76293C4.38486 8.57961 4.45788 8.40386 4.58766 8.27424C4.71744 8.14461 4.89339 8.07168 5.07692 8.07143H11.3077V12.2984H4.88461C4.60847 12.2984 4.38462 12.0745 4.38462 11.7984V8.76293ZM5.80828 17.5218V13.6814H11.3077V19.5963H7.88521C6.42951 19.5963 5.80828 18.9758 5.80828 17.5218ZM18.1917 17.5218C18.1917 18.9758 17.5705 19.5963 16.1148 19.5963H12.6923V13.6814H18.1917V17.5218Z"/>
</svg>
