<svg width="24" height="24" viewBox="0 0 24 24" fill="currentColor" xmlns="http://www.w3.org/2000/svg">
<path id="Shape" fill-rule="evenodd" clip-rule="evenodd" d="M12.4167 3C14.3957 3 16 4.60431 16 6.58333C16 7.08568 15.8963 7.56481 15.708 7.99994L18.6667 8C19.9016 8 20.9125 8.95943 20.9946 10.1736L21 10.3333V12C21 13.1441 20.1766 14.0958 19.0901 14.295C19.2145 14.5444 19.2955 14.8202 19.323 15.1118L19.3333 15.3333V18.6667C19.3333 19.9016 18.3739 20.9125 17.1598 20.9946L17 21H12C11.3468 21 10.7563 20.7316 10.3327 20.2991C9.95261 20.6883 9.43629 20.9447 8.86064 20.9921L8.66667 21H7C5.76503 21 4.75415 20.0406 4.67205 18.8264L4.66667 18.6667V15.3333C4.66667 14.9598 4.75444 14.6068 4.91047 14.2938C3.87775 14.1057 3.083 13.2374 3.00611 12.1701L3 12V10.3333C3 9.09836 3.95943 8.08748 5.17358 8.00538L5.33333 8L5.66104 7.99972C5.55657 7.68547 5.5 7.34934 5.5 7C5.5 5.2511 6.91776 3.83333 8.66667 3.83333C9.00154 3.83333 9.32436 3.88534 9.62746 3.98175L9.865 4.068L9.94639 3.98756C10.4918 3.46834 11.2007 3.11925 11.9879 3.02538L12.2264 3.00497L12.4167 3ZM17 14.5H12C11.5752 14.5 11.2246 14.8179 11.1732 15.2288L11.1667 15.3333V18.6667C11.1667 19.0915 11.4846 19.4421 11.8955 19.4935L12 19.5H17L17.1045 19.4935C17.4812 19.4464 17.7797 19.1479 17.8268 18.7712L17.8333 18.6667V15.3333C17.8333 14.9085 17.5154 14.5579 17.1045 14.5065L17 14.5ZM8.66667 14.5H7C6.57517 14.5 6.22458 14.8179 6.17316 15.2288L6.16667 15.3333V18.6667C6.16667 19.0915 6.48457 19.4421 6.89547 19.4935L7 19.5H8.66667L8.7712 19.4935C9.14785 19.4464 9.44637 19.1479 9.49351 18.7712L9.5 18.6667V15.3333C9.5 14.9085 9.1821 14.5579 8.7712 14.5065L8.66667 14.5ZM12 9.5C11.6106 9.5 11.2835 9.76713 11.1921 10.1281L11.1732 10.2288L11.1667 10.3333V12C11.1667 12.4248 11.4846 12.7754 11.8955 12.8268L12 12.8333H18.6667L18.7712 12.8268C19.1479 12.7797 19.4464 12.4812 19.4935 12.1045L19.5 12V10.3333C19.5 9.9085 19.1821 9.55792 18.7712 9.50649L18.6667 9.5H12ZM5.33333 9.5C4.9085 9.5 4.55791 9.8179 4.50649 10.2288L4.5 10.3333V12C4.5 12.4248 4.8179 12.7754 5.2288 12.8268L5.33333 12.8333H8.66667L8.7712 12.8268C9.14785 12.7797 9.44637 12.4812 9.49351 12.1045L9.5 12V10.3333C9.5 10.2979 9.49779 10.263 9.49351 10.2288L9.47455 10.1281C9.39228 9.80323 9.11915 9.55436 8.78145 9.50784L8.66667 9.5H5.33333ZM8.66667 5.33333C7.74619 5.33333 7 6.07953 7 7C7 7.87203 7.66971 8.58764 8.52286 8.66055L8.66667 8.66667H12.4167L12.5536 8.66224C13.0711 8.62865 13.5371 8.40611 13.8833 8.06292L13.9438 8.00047C14.2889 7.62868 14.5 7.13066 14.5 6.58333C14.5 5.43274 13.5673 4.5 12.4167 4.5C11.3161 4.5 10.4149 5.3534 10.3386 6.43455L10.3333 6.58333L10.3332 6.97911C10.322 6.06826 9.58017 5.33333 8.66667 5.33333Z" />
</svg>
