<svg width="24" height="24" viewBox="0 0 24 24" fill="currentColor" xmlns="http://www.w3.org/2000/svg">
  <path fill-rule="evenodd" clip-rule="evenodd" d="M12 22L16.9318 19.5207C17.6393 19.165 18.2852 18.697 18.8445 18.1346C20.2246 16.747 21 14.8649 21 12.9024V5.45624C21 5.12857 20.7915 4.83765 20.4823 4.73403L12.6325 2.10319C12.2219 1.9656 11.7781 1.9656 11.3675 2.10319L3.51773 4.73403C3.20855 4.83765 3 5.12856 3 5.45624V12.9024C3 14.8649 3.77537 16.747 5.15552 18.1346C5.71485 18.697 6.36069 19.165 7.06819 19.5207L12 22ZM14.3367 8.82036C14.6852 8.42716 15.2864 8.39089 15.6796 8.73936C16.0728 9.08783 16.1091 9.68908 15.7606 10.0823L11.73 14.6304C11.3672 15.0397 10.7348 15.0596 10.3471 14.6738L8.28037 12.6178C7.9079 12.2473 7.90635 11.6449 8.2769 11.2724C8.64745 10.9 9.24979 10.8984 9.62226 11.269L10.975 12.6143L14.3367 8.82036Z" />
</svg>
