<svg width="24" height="24" viewBox="0 0 24 24" fill="currentColor" xmlns="http://www.w3.org/2000/svg">
  <path fill-rule="evenodd" clip-rule="evenodd" d="M12.1581 3.53396L19.5 5.99456V12.9024C19.5 14.4649 18.8827 15.9634 17.7838 17.0682C17.3385 17.5159 16.8243 17.8886 16.261 18.1717L12 20.3138L7.73901 18.1717C7.17571 17.8886 6.66151 17.5159 6.21618 17.0682C5.11733 15.9634 4.5 14.4649 4.5 12.9024V5.99456L11.8419 3.53396C11.9445 3.49956 12.0555 3.49956 12.1581 3.53396ZM16.9318 19.5207L12 22L7.06819 19.5207C6.36069 19.165 5.71485 18.697 5.15552 18.1346C3.77537 16.747 3 14.8649 3 12.9024V5.45624C3 5.12856 3.20855 4.83765 3.51773 4.73403L11.3675 2.10319C11.7781 1.9656 12.2219 1.9656 12.6325 2.10319L20.4823 4.73403C20.7915 4.83765 21 5.12857 21 5.45624V12.9024C21 14.8649 20.2246 16.747 18.8445 18.1346C18.2852 18.697 17.6393 19.165 16.9318 19.5207ZM14.3367 8.82036C14.6852 8.42716 15.2864 8.39089 15.6796 8.73936C16.0728 9.08783 16.1091 9.68908 15.7606 10.0823L11.73 14.6304C11.3672 15.0397 10.7348 15.0596 10.3471 14.6738L8.28037 12.6178C7.9079 12.2473 7.90635 11.6449 8.2769 11.2724C8.64745 10.9 9.24979 10.8984 9.62226 11.269L10.975 12.6143L14.3367 8.82036Z" />
</svg>
