<?xml version="1.0" encoding="UTF-8"?>
<svg width="24px" height="24px" viewBox="0 0 24 24" version="1.1" xmlns="http://www.w3.org/2000/svg" xmlns:xlink="http://www.w3.org/1999/xlink">
    <title>Icon/Menu/Filled</title>
    <g id="Icon/Menu/Filled" stroke="none" stroke-width="1" fill="none" fill-rule="evenodd">
        <path d="M12,16.75 C12.9664983,16.75 13.75,17.5335017 13.75,18.5 C13.75,19.4664983 12.9664983,20.25 12,20.25 C11.0335017,20.25 10.25,19.4664983 10.25,18.5 C10.25,17.5335017 11.0335017,16.75 12,16.75 Z M12,10.25 C12.9664983,10.25 13.75,11.0335017 13.75,12 C13.75,12.9664983 12.9664983,13.75 12,13.75 C11.0335017,13.75 10.25,12.9664983 10.25,12 C10.25,11.0335017 11.0335017,10.25 12,10.25 Z M12,3.75 C12.9664983,3.75 13.75,4.53350169 13.75,5.5 C13.75,6.46649831 12.9664983,7.25 12,7.25 C11.0335017,7.25 10.25,6.46649831 10.25,5.5 C10.25,4.53350169 11.0335017,3.75 12,3.75 Z" id="Shape" fill="#FFFFFF"></path>
    </g>
</svg>