<?xml version="1.0" encoding="UTF-8"?>
<svg width="24px" height="24px" viewBox="0 0 24 24" version="1.1" xmlns="http://www.w3.org/2000/svg" xmlns:xlink="http://www.w3.org/1999/xlink">
    <title>Icon/Menu/Outline</title>
    <g id="Icon/Menu/Outline" stroke="none" stroke-width="1" fill="none" fill-rule="evenodd">
        <path d="M12,17 C12.8284271,17 13.5,17.6715729 13.5,18.5 C13.5,19.3284271 12.8284271,20 12,20 C11.1715729,20 10.5,19.3284271 10.5,18.5 C10.5,17.6715729 11.1715729,17 12,17 Z M12,10.5 C12.8284271,10.5 13.5,11.1715729 13.5,12 C13.5,12.8284271 12.8284271,13.5 12,13.5 C11.1715729,13.5 10.5,12.8284271 10.5,12 C10.5,11.1715729 11.1715729,10.5 12,10.5 Z M12,4 C12.8284271,4 13.5,4.67157288 13.5,5.5 C13.5,6.32842712 12.8284271,7 12,7 C11.1715729,7 10.5,6.32842712 10.5,5.5 C10.5,4.67157288 11.1715729,4 12,4 Z" id="Shape" fill="#FFFFFF"></path>
    </g>
</svg>