<?xml version="1.0" encoding="UTF-8"?>
<svg width="24px" height="24px" viewBox="0 0 24 24" version="1.1" xmlns="http://www.w3.org/2000/svg" xmlns:xlink="http://www.w3.org/1999/xlink">
    <title>Icon/Send Backward/Filled</title>
    <g id="Icon/Send-Backward/Filled" stroke="none" stroke-width="1" fill="none" fill-rule="evenodd">
        <path d="M15.9432066,18.3040722 L16.0078731,18.3096036 L16.0078731,18.3096036 L16.1371506,18.3082634 L16.1371506,18.3082634 L16.2634303,18.2906492 L16.2634303,18.2906492 L16.378101,18.2599779 L16.378101,18.2599779 L16.485313,18.217294 L16.485313,18.217294 L16.5815082,18.1657344 L16.5815082,18.1657344 L16.687361,18.0913625 L16.687361,18.0913625 L16.7690188,18.018158 L19.7690188,15.018158 C20.1595431,14.6276337 20.1595431,13.9944687 19.7690188,13.6039444 C19.4085348,13.2434605 18.8413038,13.2157309 18.4490126,13.5207558 L18.3548052,13.6039444 L17.0616158,14.8970512 L17.061912,6.81391078 C17.061912,6.26162603 16.6141968,5.81391078 16.061912,5.81391078 C15.5490762,5.81391078 15.1264049,6.19995097 15.0686398,6.69728966 L15.061912,6.81391078 L15.0616158,14.8980512 L13.7690188,13.6039444 C13.4085348,13.2434605 12.8413038,13.2157309 12.4490126,13.5207558 L12.3548052,13.6039444 C11.9943213,13.9644284 11.9665917,14.5316595 12.2716166,14.9239507 L12.3548052,15.018158 L15.3548052,18.018158 C15.3928762,18.0562289 15.433253,18.0905884 15.4754863,18.1212365 L15.5607215,18.1766582 L15.5607215,18.1766582 L15.666458,18.2298222 L15.666458,18.2298222 L15.7452434,18.2598735 L15.7452434,18.2598735 L15.8296904,18.2839408 L15.8296904,18.2839408 L15.9432066,18.3040722 L15.9432066,18.3040722 Z M7.93808798,13.061912 L5.93808798,13.061912 C4.89165371,13.061912 4.03292315,13.8655671 3.94542917,14.8893444 L3.93808798,15.061912 L3.93808798,17.061912 C3.93808798,18.1083463 4.74174305,18.9670768 5.76552032,19.0545708 L5.93808798,19.061912 L7.93808798,19.061912 L8.11065563,19.0545708 C9.07421071,18.9722236 9.84277865,18.2067048 9.92986431,17.2445096 L9.93808798,17.061912 L9.93808798,15.061912 C9.93808798,14.0154778 9.1344329,13.1567472 8.11065563,13.0692532 L7.93808798,13.061912 Z M7.93808798,5.06191202 L8.11065563,5.06925322 C9.1344329,5.1567472 9.93808798,6.01547776 9.93808798,7.06191202 L9.93808798,9.06191202 L9.92986431,9.24450964 C9.84277865,10.2067048 9.07421071,10.9722236 8.11065563,11.0545708 L7.93808798,11.061912 L5.93808798,11.061912 L5.76552032,11.0545708 C4.74174305,10.9670768 3.93808798,10.1083463 3.93808798,9.06191202 L3.93808798,7.06191202 L3.94542917,6.88934437 C4.03292315,5.8655671 4.89165371,5.06191202 5.93808798,5.06191202 L7.93808798,5.06191202 Z M7.92308798,6.56191202 L5.93808798,6.56191202 C5.67828854,6.56191202 5.46180861,6.76166643 5.44407371,6.95309814 L5.43808798,7.06191202 L5.43808798,9.06191202 C5.43808798,9.32171146 5.63784239,9.53819139 5.8292741,9.55592629 L5.93808798,9.56191202 L7.8743342,9.56326748 L7.98292833,9.56001881 C8.22133751,9.5396439 8.41441382,9.3474776 8.43138325,9.1770224 L8.43808798,9.06191202 L8.43808798,7.06191202 C8.43808798,6.80211258 8.23833357,6.58563266 8.04690186,6.56789776 L7.92308798,6.56191202 Z" id="Path" fill="#FFFFFF" transform="translate(12, 12.0619) rotate(-90) translate(-12, -12.0619)"></path>
    </g>
</svg>