<?xml version="1.0" encoding="UTF-8"?>
<svg width="24px" height="24px" viewBox="0 0 24 24" version="1.1" xmlns="http://www.w3.org/2000/svg" xmlns:xlink="http://www.w3.org/1999/xlink">
    <title>Icon/Send Backward/Outline</title>
    <g id="Icon/Send-Backward/Outline" stroke="none" stroke-width="1" fill="none" fill-rule="evenodd">
        <path d="M8,13 L8.17256766,13.0073412 C9.19634492,13.0948352 10,13.9535657 10,15 L10,17 L9.99177633,17.1825976 C9.90469068,18.1447927 9.13612273,18.9103115 8.17256766,18.9926588 L8,19 L6,19 L5.82743234,18.9926588 C4.80365508,18.9051648 4,18.0464343 4,17 L4,15 L4.00734119,14.8274323 C4.09483517,13.8036551 4.95356574,13 6,13 L8,13 Z M16.2534681,6 C16.6679415,6 17.0039385,6.33560484 17.0039385,6.7495944 L16.9981185,15.4404074 L18.7188669,13.7220071 L18.8030381,13.6494282 C19.0968338,13.4316916 19.5137588,13.4558845 19.7801923,13.7220071 C20.0732692,14.0147419 20.0732692,14.4893589 19.7801923,14.7820937 L16.7783108,17.7804713 L16.7062382,17.843835 L16.6075247,17.9084369 L16.5385918,17.9416016 L16.4326566,17.9770626 L16.3494825,17.9931795 L16.2534681,18 L16.1724088,17.9963061 C16.1229566,17.9913951 16.0750368,17.9817053 16.0293557,17.9677651 L15.9256759,17.9277564 L15.8362204,17.877516 C15.7940527,17.8498528 15.7540619,17.8175045 15.7169854,17.7804713 L12.7151039,14.7820937 L12.6424402,14.6980207 C12.4244491,14.404568 12.4486703,13.9881297 12.7151039,13.7220071 L12.7992751,13.6494282 C13.0930707,13.4316916 13.5099957,13.4558845 13.7764293,13.7220071 L15.4971777,15.4404074 L15.5029977,6.7495944 L15.5098486,6.64787888 C15.5595422,6.28200129 15.8735342,6 16.2534681,6 Z M8,5 L8.17256766,5.00734119 C9.19634492,5.09483517 10,5.95356574 10,7 L10,9 L9.99177633,9.18259762 C9.90469068,10.1447927 9.13612273,10.9103115 8.17256766,10.9926588 L8,11 L6,11 L5.82743234,10.9926588 C4.80365508,10.9051648 4,10.0464343 4,9 L4,7 L4.00734119,6.82743234 C4.09483517,5.80365508 4.95356574,5 6,5 L8,5 Z M7.982,6 L6,6 C5.48002476,6 5.04759977,6.39901529 5.00643755,6.86993486 L5,7 L5,9 C5,9.51997524 5.39901529,9.95240023 5.86993486,9.99356245 L6,10 L7.95749748,10.0009036 L8.08741612,9.99629079 C8.56743559,9.9552674 8.95243795,9.57207963 8.99278896,9.13760612 L9,9 L9,7 C9,6.48002476 8.60098471,6.04759977 8.13006514,6.00643755 L7.982,6 Z" id="Path" fill="#FFFFFF" transform="translate(12, 12) rotate(-90) translate(-12, -12)"></path>
    </g>
</svg>