<svg width="24" height="24" viewBox="0 0 24 24" fill="none" xmlns="http://www.w3.org/2000/svg">
  <g id="Filled=yes">
    <path id="Subtract" d="M21 16.5C21 18.9142 19.0988 20.8845 16.7119 20.9951L16.5 21H7.5C5.08575 21 3.11553 19.0988 3.00488 16.7119L3 16.5V15.8525C3.79623 16.5655 4.84708 17 6 17H18L18.2119 16.9951C19.2815 16.9455 20.2528 16.5216 21 15.8525V16.5ZM13.5 3C14.8807 3 16 4.11929 16 5.5V6H16.5C18.9142 6 20.8845 7.90119 20.9951 10.2881L21 10.5V12.5L20.9951 12.6768C20.9036 14.2513 19.5975 15.5 18 15.5H6L5.82324 15.4951C4.24866 15.4036 3 14.0975 3 12.5V10.5C3 8.08575 4.90119 6.11553 7.28809 6.00488L7.5 6H8V5.5C8 4.11929 9.11929 3 10.5 3H13.5ZM10.75 12.5C10.3358 12.5 10 12.8358 10 13.25C10 13.6642 10.3358 14 10.75 14H13.25C13.6642 14 14 13.6642 14 13.25C14 12.8358 13.6642 12.5 13.25 12.5H10.75ZM10.5 4.5C9.94772 4.5 9.5 4.94772 9.5 5.5V6H14.5V5.5C14.5 4.94772 14.0523 4.5 13.5 4.5H10.5Z" fill="currentColor"/>
  </g>
</svg>
