<svg width="24" height="24" viewBox="0 0 24 24" fill="none" xmlns="http://www.w3.org/2000/svg">
  <g id="Filled=no">
    <path id="Union" d="M13.5 3C14.8807 3 16 4.11929 16 5.5V6H16.5C18.9142 6 20.8845 7.90119 20.9951 10.2881L21 10.5V16.5C21 18.9142 19.0988 20.8845 16.7119 20.9951L16.5 21H7.5C5.08575 21 3.11553 19.0988 3.00488 16.7119L3 16.5V10.5C3 8.08575 4.90119 6.11553 7.28809 6.00488L7.5 6H8V5.5C8 4.11929 9.11929 3 10.5 3H13.5ZM19.5 15.8525C18.7528 16.5216 17.7815 16.9455 16.7119 16.9951L16.5 17H7.5C6.34708 17 5.29623 16.5655 4.5 15.8525V16.5C4.5 18.0975 5.74866 19.4036 7.32324 19.4951L7.5 19.5H16.5C18.0975 19.5 19.4036 18.2513 19.4951 16.6768L19.5 16.5V15.8525ZM7.5 7.5C5.90248 7.5 4.59636 8.74866 4.50488 10.3232L4.5 10.5V12.5C4.5 14.0975 5.74866 15.4036 7.32324 15.4951L7.5 15.5H16.5C18.0975 15.5 19.4036 14.2513 19.4951 12.6768L19.5 12.5V10.5C19.5 8.90248 18.2513 7.59636 16.6768 7.50488L16.5 7.5H7.5ZM13.25 12.5C13.6642 12.5 14 12.8358 14 13.25C14 13.6642 13.6642 14 13.25 14H10.75C10.3358 14 10 13.6642 10 13.25C10 12.8358 10.3358 12.5 10.75 12.5H13.25ZM10.5 4.5C9.94772 4.5 9.5 4.94772 9.5 5.5V6H14.5V5.5C14.5 4.94772 14.0523 4.5 13.5 4.5H10.5Z" fill="currentColor"/>
  </g>
</svg>
