<?xml version="1.0" encoding="UTF-8"?>
<svg width="24px" height="24px" viewBox="0 0 24 24" version="1.1" xmlns="http://www.w3.org/2000/svg" xmlns:xlink="http://www.w3.org/1999/xlink">
    <title>Icon/Home/Filled</title>
    <g id="Icon/Home/Filled" stroke="none" stroke-width="1" fill="none" fill-rule="evenodd">
        <path d="M13.1484802,4.97571608 L19.0458842,10.114787 C19.3066339,10.3755367 19.4550933,10.7060546 19.4912624,11.0462502 C19.4970362,11.0853194 19.5,11.125647 19.5,11.1666669 L19.5,17.8333336 C19.5,18.7538082 18.7538079,19.5 17.8333333,19.5 C16.9128588,19.5 16.1666667,18.7538082 16.1666667,17.8333336 L16.1666667,15.3333336 C16.1666667,14.4546988 15.4867685,13.7348626 14.6243853,13.6712384 L14.5,13.6666669 L9.5,13.6666669 C8.62136517,13.6666669 7.90152907,14.3465651 7.83790478,15.2089483 L7.83333333,15.3333336 L7.83333333,17.8333336 C7.83333333,18.7538082 7.08714125,19.5 6.16666667,19.5 C5.24619208,19.5 4.5,18.7538082 4.5,17.8333336 L4.5,11.1666669 C4.5,11.125647 4.50296378,11.0853194 4.50868888,11.0458864 C4.54490674,10.7060546 4.69336613,10.3755367 4.95411579,10.114787 L10.8515198,4.97571608 C11.4858079,4.34142797 12.5141921,4.34142797 13.1484802,4.97571608 Z" id="Path" fill="#FFFFFF"></path>
    </g>
</svg>