<?xml version="1.0" encoding="UTF-8"?>
<svg width="24px" height="24px" viewBox="0 0 24 24" version="1.1" xmlns="http://www.w3.org/2000/svg" xmlns:xlink="http://www.w3.org/1999/xlink">
    <title>Icon/Home/Filled</title>
    <g id="Icon/Home/Filled" stroke="none" stroke-width="1" fill="none" fill-rule="evenodd">
        <path d="M13.3781763,3.5708593 L20.455061,9.73774438 C20.7679606,10.050644 20.9461119,10.4472655 20.9895148,10.8555002 C20.9964435,10.9023833 21,10.9507764 21,11 L21,19 C21,20.1045698 20.1045695,21 19,21 C17.8954305,21 17,20.1045698 17,19 L17,16 C17,14.9456385 16.1841222,14.0818352 15.1492623,14.005486 L15,14 L9,14 C7.9456382,14 7.08183488,14.8158781 7.00548574,15.850738 L7,16 L7,19 C7,20.1045698 6.1045695,21 5,21 C3.8954305,21 3,20.1045698 3,19 L3,11 C3,10.9507764 3.00355654,10.9023833 3.01042666,10.8550637 C3.05388809,10.4472655 3.23203935,10.050644 3.54493895,9.73774438 L10.6218237,3.5708593 C11.3829695,2.80971357 12.6170305,2.80971357 13.3781763,3.5708593 Z" id="Path" fill="#FFFFFF"></path>
    </g>
</svg>