<?xml version="1.0" encoding="UTF-8"?>
<svg width="24px" height="24px" viewBox="0 0 24 24" version="1.1" xmlns="http://www.w3.org/2000/svg" xmlns:xlink="http://www.w3.org/1999/xlink">
    <title>Icon/Home/Outline</title>
    <g id="Icon/Home/Outline" stroke="none" stroke-width="1" fill="none" fill-rule="evenodd">
        <path d="M9.855,3.853 L3.96865877,8.98391367 L3.89345562,9.05412681 C3.45015818,9.49742425 3.16044444,10.0574954 3.05006956,10.6593959 L3.01065752,10.937759 L3.00141053,11.0830051 L3,17.8333336 C3,19.5822353 4.41776498,21 6.16666667,21 C7.91556835,21 9.33333333,19.5822353 9.33333333,17.8333336 L9.33333333,15.3333336 L9.33689276,15.2640396 C9.34009341,15.2345409 9.41284678,15.1666669 9.5,15.1666669 L14.5,15.1666669 L14.569294,15.1702263 C14.5987927,15.173427 14.6666667,15.2461804 14.6666667,15.3333336 L14.6666667,17.8333336 C14.6666667,19.5822353 16.0844316,21 17.8333333,21 C19.582235,21 21,19.5822353 21,17.8333336 L21,11.1666669 C21,11.0527905 20.9917286,10.9391643 20.9751455,10.8269537 C20.9097088,10.1996673 20.6054093,9.55299173 20.1065444,9.05412681 L20.0313412,8.98391367 L14.144,3.853 L14.2091404,3.91505591 C13.0359918,2.74190731 11.1619767,2.69678621 9.93491534,3.77969261 L9.855,3.853 Z M13.1484802,4.97571608 L19.0458842,10.114787 C19.3066339,10.3755367 19.4550933,10.7060546 19.4912624,11.0462502 C19.4970362,11.0853194 19.5,11.125647 19.5,11.1666669 L19.5,17.8333336 C19.5,18.7538082 18.7538079,19.5 17.8333333,19.5 C16.9128588,19.5 16.1666667,18.7538082 16.1666667,17.8333336 L16.1666667,15.3333336 C16.1666667,14.4546988 15.4867685,13.7348626 14.6243853,13.6712384 L14.5,13.6666669 L9.5,13.6666669 C8.62136517,13.6666669 7.90152907,14.3465651 7.83790478,15.2089483 L7.83333333,15.3333336 L7.83333333,17.8333336 C7.83333333,18.7538082 7.08714125,19.5 6.16666667,19.5 C5.24619208,19.5 4.5,18.7538082 4.5,17.8333336 L4.5,11.1666669 C4.5,11.125647 4.50296378,11.0853194 4.50868888,11.0458864 C4.54490674,10.7060546 4.69336613,10.3755367 4.95411579,10.114787 L10.8515198,4.97571608 C11.4858079,4.34142797 12.5141921,4.34142797 13.1484802,4.97571608 Z" id="Path" fill="#FFFFFF"></path>
    </g>
</svg>