<?xml version="1.0" encoding="UTF-8"?>
<svg xmlns="http://www.w3.org/2000/svg" width="24" height="24" viewBox="0 0 24 24" fill="none">
  <path fill-rule="evenodd" clip-rule="evenodd" d="M11.963 3C13.5882 3 15.1882 3.44501 16.5899 4.28687C19.2824 5.90412 20.9547 8.8622 20.9547 12.0073C20.9547 13.6339 20.51 15.2339 19.6688 16.6353C18.1574 19.1498 15.4735 20.7795 12.5503 20.9794L12.2471 20.9949L11.9474 21C10.3218 21 8.72092 20.5548 7.32058 19.7132C6.85964 19.4366 6.70972 18.8382 6.9868 18.3798C7.14646 18.1122 7.41947 17.9425 7.73042 17.9116L7.84865 17.9066L7.95845 17.9156C8.08643 17.9341 8.21003 17.9781 8.32198 18.0459C9.42098 18.7055 10.6747 19.0542 11.9474 19.0542C14.4516 19.0542 16.7125 17.776 18.0006 15.6327C18.6602 14.5337 19.0089 13.28 19.0089 12.0073C19.0089 9.50369 17.7304 7.24199 15.5875 5.95413C14.5801 5.34957 13.4428 5.00613 12.2823 4.95308L11.9653 4.94583L11.8689 4.94668C11.3254 4.96467 10.8848 4.53966 10.8705 3.99728C10.8584 3.49858 11.2243 3.07822 11.71 3.01028L11.8241 3.00098L11.963 3ZM4.8544 15.8569C5.28631 15.5428 5.89706 15.6479 6.20801 16.0884C6.51702 16.5262 6.41718 17.1328 5.97439 17.4555C5.79789 17.5677 5.60748 17.6287 5.41582 17.6287C5.10144 17.6287 4.79681 17.4753 4.62363 17.2154C4.3125 16.7746 4.41681 16.1644 4.8544 15.8569ZM11.9991 7.13199C12.4498 7.13199 12.8344 7.44007 12.9434 7.8776L12.9648 7.98957L12.972 8.10491V12.9695C12.972 13.1339 12.9304 13.2947 12.8461 13.445L12.7749 13.5557L12.687 13.6575L10.7412 15.6033C10.3613 15.9833 9.74524 15.9833 9.36529 15.6033C9.05167 15.2897 8.994 14.8099 9.21524 14.4248L9.28251 14.3223L9.36522 14.2275L11.0262 12.5648V8.10491C11.0262 7.6918 11.285 7.33415 11.6652 7.19346L11.7718 7.16059L11.8837 7.1392L11.9991 7.13199ZM3.94059 13.0851C4.42143 12.9529 4.90736 13.2086 5.08871 13.6627L5.12501 13.771L5.14861 13.8843C5.22168 14.3747 4.92007 14.8448 4.43851 14.9651L4.36745 14.9807L4.26184 14.9911L4.18021 14.9921C3.74296 14.9921 3.35891 14.6992 3.24371 14.2639C3.11383 13.7431 3.42701 13.2135 3.94059 13.0851ZM4.07735 10.1588L4.19033 10.1789C4.66885 10.2924 4.99754 10.7439 4.93775 11.2339C4.88982 11.6892 4.53207 12.0449 4.08846 12.097L3.9759 12.1035L3.91278 12.1011L3.87122 12.0941C3.34223 12.0407 2.95213 11.5621 3.00476 11.0234C3.06472 10.5305 3.48069 10.1629 3.9646 10.1543L4.07735 10.1588ZM3.93465 7.90517C4.16335 7.45981 4.68346 7.26272 5.1402 7.43279L5.24432 7.47861L5.34284 7.53676C5.75016 7.80966 5.89949 8.3452 5.67229 8.78761C5.50766 9.11687 5.16507 9.32097 4.80288 9.32097C4.66186 9.32097 4.51157 9.28503 4.36098 9.21627C3.88511 8.97191 3.69849 8.39179 3.93465 7.90517ZM5.91469 5.32535C6.31722 4.96308 6.94005 4.9918 7.29212 5.39602C7.65193 5.79432 7.62401 6.40415 7.22556 6.7653C7.04825 6.92994 6.8165 7.01515 6.5736 7.01515C6.29305 7.01515 6.03459 6.90292 5.85067 6.69435C5.48743 6.30387 5.51995 5.68194 5.91469 5.32535ZM8.68508 3.60668C9.15055 3.42765 9.66661 3.63144 9.89494 4.05916L9.94237 4.16177L9.97728 4.2707C10.1001 4.74496 9.85788 5.24001 9.40629 5.41805C9.29248 5.46863 9.17831 5.48766 9.04481 5.48766C8.64634 5.48766 8.27748 5.24548 8.13866 4.87927C7.97743 4.48529 8.09675 4.05343 8.39776 3.79008L8.48428 3.7226L8.52868 3.69467L8.52917 3.66665L8.68508 3.60668Z" fill="#A8B3CF"/>
</svg>
