<svg width="24" height="24" viewBox="0 0 24 24" fill="none" xmlns="http://www.w3.org/2000/svg">
<g id="Filled=yes">
<path id="Subtract" fill-rule="evenodd" clip-rule="evenodd" d="M10.2936 4.79139C11.0735 3.51559 12.9265 3.51559 13.7064 4.79139L20.532 15.9569C21.3467 17.2896 20.3876 19 18.8256 19H5.17443C3.61244 19 2.65333 17.2895 3.46802 15.9569L10.2936 4.79139ZM11 9C11 8.44772 11.4477 8 12 8C12.5523 8 13 8.44772 13 9V13C13 13.5523 12.5523 14 12 14C11.4477 14 11 13.5523 11 13V9ZM12 15C11.4477 15 11 15.4477 11 16C11 16.5523 11.4477 17 12 17C12.5523 17 13 16.5523 13 16C13 15.4477 12.5523 15 12 15Z" fill="#FFFFFF"/>
</g>
</svg>
