<svg xmlns="http://www.w3.org/2000/svg" width="24" height="24" fill="currentColor" viewBox="0 0 24 24">
  <path fill-rule="evenodd" d="M9.654 4.566c1.072-1.755 3.62-1.755 4.692 0l6.826 11.165c1.12 1.833-.199 4.185-2.346 4.185H5.174c-2.147 0-3.466-2.352-2.346-4.185L9.654 4.566Zm3.412.782a1.25 1.25 0 0 0-2.133 0L4.109 16.514a1.25 1.25 0 0 0 1.066 1.902h13.652a1.25 1.25 0 0 0 1.066-1.902L13.067 5.348ZM11 9.165a1 1 0 1 1 2 0v4a1 1 0 0 1-2 0v-4Zm1 6a1 1 0 1 0 0 2 1 1 0 0 0 0-2Z" clip-rule="evenodd"/>
</svg>
