<svg width="24" height="24" viewBox="0 0 24 24" fill="none" xmlns="http://www.w3.org/2000/svg">
<g id="Filled=yes">
<path fill="currentColor" id="Subtract" fill-rule="evenodd" clip-rule="evenodd" d="M21 8C21 5.79086 19.2091 4 17 4H7C4.79086 4 3 5.79086 3 8V16C3 18.2091 4.79086 20 7 20H17C19.2091 20 21 18.2091 21 16V8ZM8.69874 9C8.19076 9 7.72796 9.1199 7.31651 9.36477C6.9088 9.60741 6.58607 9.93878 6.35209 10.3565L6.3513 10.3579C6.12309 10.7717 6 11.5076 6 12.0277C6 12.5496 6.11624 13.1985 6.35209 13.6196C6.58536 14.0361 6.90338 14.3673 7.30328 14.6103C7.70637 14.8551 8.15438 14.9761 8.64178 14.9761C9.37064 14.9761 9.97945 14.7641 10.4426 14.3179C10.916 13.8693 11.1461 13.2695 11.1461 12.5459C11.1461 12.2962 11.0989 12.0531 10.9432 11.8882C10.7882 11.716 10.5628 11.6581 10.3278 11.6581H9.07467C8.88157 11.6581 8.70328 11.7178 8.56115 11.8535L8.55371 11.861C8.42131 11.9988 8.35888 12.1746 8.35888 12.3679C8.35888 12.5647 8.41862 12.7461 8.55371 12.8868L8.56115 12.8942C8.70328 13.0299 8.88157 13.0897 9.07467 13.0897H9.65143C9.61683 13.1736 9.54798 13.2542 9.42821 13.3323C9.24102 13.4515 8.98433 13.5208 8.64178 13.5208C8.29944 13.5208 8.03321 13.4027 7.82324 13.1711C7.6151 12.9416 7.49992 12.4533 7.49992 12.0277C7.49992 11.6226 7.62761 11.0509 7.84364 10.8195C8.0692 10.5781 8.35187 10.4554 8.71013 10.4554C8.87958 10.4554 9.03616 10.4858 9.18184 10.5451L9.19036 10.5484C9.34635 10.6049 9.50058 10.6832 9.6531 10.7842C9.77928 10.8686 9.91916 10.9299 10.0658 10.9299C10.2577 10.9299 10.4282 10.8565 10.5639 10.7152C10.6997 10.5738 10.7701 10.3962 10.7701 10.1963C10.7701 9.95741 10.6784 9.75187 10.5002 9.6011L10.4988 9.59993C10.2483 9.39119 9.97129 9.23793 9.66894 9.14158C9.37629 9.04592 9.05202 9 8.69874 9ZM12.7359 9C12.5368 9 12.3564 9.06757 12.2104 9.20792C12.0591 9.35337 11.986 9.54379 11.986 9.75734V14.2306C11.986 14.4406 12.062 14.6256 12.2104 14.7682C12.3564 14.9086 12.5368 14.9761 12.7359 14.9761C12.933 14.9761 13.1164 14.9185 13.2608 14.7806C13.4121 14.6352 13.4859 14.4442 13.4859 14.2306V9.75734C13.4859 9.54542 13.4138 9.35627 13.2649 9.21125C13.1218 9.06427 12.9371 9 12.7359 9ZM14.7292 9.27148C14.9098 9.08484 15.1439 9 15.4071 9H17.1842C17.3802 9 17.5654 9.05732 17.7052 9.2029C17.8427 9.34615 17.9 9.53322 17.9 9.73361C17.9 9.9335 17.8295 10.1111 17.6938 10.2525C17.5552 10.3968 17.3796 10.4672 17.1842 10.4672H15.9634V10.9814H17.0247C17.2154 10.9814 17.3936 11.04 17.5306 11.1805C17.6737 11.3191 17.7405 11.5014 17.7405 11.7031C17.7405 11.9097 17.6606 12.0898 17.5155 12.2294C17.3785 12.3602 17.2103 12.4249 17.0247 12.4249H15.9634V14.2306C15.9634 14.4427 15.8756 14.625 15.7276 14.7682C15.5842 14.9061 15.4087 14.9761 15.2134 14.9761C15.0186 14.9761 14.8426 14.9065 14.6945 14.7742L14.6875 14.7681L14.6811 14.7614C14.5419 14.6163 14.4635 14.4363 14.4635 14.2306V9.98277C14.4635 9.70419 14.5432 9.45534 14.7292 9.27148Z" />
</g>
</svg>
