<?xml version="1.0" encoding="UTF-8"?>
<svg width="24px" height="24px" viewBox="0 0 24 24" version="1.1" xmlns="http://www.w3.org/2000/svg" xmlns:xlink="http://www.w3.org/1999/xlink">
    <title>Icon/Layout/Filled</title>
    <g id="Icon/Layout/Filled" stroke="none" stroke-width="1" fill="none" fill-rule="evenodd">
        <path d="M17.625,4.69 C19.488961,4.69 21,6.20103897 21,8.065 L21,15.94 C21,17.803961 19.488961,19.315 17.625,19.315 L6.375,19.315 C4.51103897,19.315 3,17.803961 3,15.94 L3,8.065 C3,6.20103897 4.51103897,4.69 6.375,4.69 L17.625,4.69 Z M12,13.1275 C11.0680195,13.1275 10.3125,13.8830195 10.3125,14.815 C10.3125,15.7469805 11.0680195,16.5025 12,16.5025 C12.9319805,16.5025 13.6875,15.7469805 13.6875,14.815 C13.6875,13.8830195 12.9319805,13.1275 12,13.1275 Z M17.0625,13.1275 C16.1305195,13.1275 15.375,13.8830195 15.375,14.815 C15.375,15.7469805 16.1305195,16.5025 17.0625,16.5025 C17.9944805,16.5025 18.75,15.7469805 18.75,14.815 C18.75,13.8830195 17.9944805,13.1275 17.0625,13.1275 Z M6.9375,13.1275 C6.00551948,13.1275 5.25,13.8830195 5.25,14.815 C5.25,15.7469805 6.00551948,16.5025 6.9375,16.5025 C7.86948052,16.5025 8.625,15.7469805 8.625,14.815 C8.625,13.8830195 7.86948052,13.1275 6.9375,13.1275 Z M17.0625,7.5025 L6.9375,7.5025 C6.00551948,7.5025 5.25,8.25801948 5.25,9.19 C5.25,10.0671581 5.91924909,10.7880048 6.77498249,10.8697751 L6.9375,10.8775 L17.0625,10.8775 C17.9944805,10.8775 18.75,10.1219805 18.75,9.19 C18.75,8.31284187 18.0807509,7.59199524 17.2250175,7.5102249 L17.0625,7.5025 Z" id="Shape" fill="#FFFFFF"></path>
    </g>
</svg>