<?xml version="1.0" encoding="UTF-8"?>
<svg width="24px" height="24px" viewBox="0 0 24 24" version="1.1" xmlns="http://www.w3.org/2000/svg" xmlns:xlink="http://www.w3.org/1999/xlink">
    <title>Icon/Layout/Outline</title>
    <g id="Icon/Layout/Outline" stroke="none" stroke-width="1" fill="none" fill-rule="evenodd">
        <path d="M16.5,4 C18.9852814,4 21,6.01471863 21,8.5 L21,8.5 L21,15.5 C21,17.9852814 18.9852814,20 16.5,20 L16.5,20 L7.5,20 C5.01471863,20 3,17.9852814 3,15.5 L3,15.5 L3,8.5 C3,6.01471863 5.01471863,4 7.5,4 L7.5,4 Z M16.5,5.5 L7.5,5.5 C5.84314575,5.5 4.5,6.84314575 4.5,8.5 L4.5,8.5 L4.5,15.5 C4.5,17.1568542 5.84314575,18.5 7.5,18.5 L7.5,18.5 L16.5,18.5 C18.1568542,18.5 19.5,17.1568542 19.5,15.5 L19.5,15.5 L19.5,8.5 C19.5,6.84314575 18.1568542,5.5 16.5,5.5 L16.5,5.5 Z M12,13 C12.8284271,13 13.5,13.6715729 13.5,14.5 C13.5,15.3284271 12.8284271,16 12,16 C11.1715729,16 10.5,15.3284271 10.5,14.5 C10.5,13.6715729 11.1715729,13 12,13 Z M16.5,13 C17.3284271,13 18,13.6715729 18,14.5 C18,15.3284271 17.3284271,16 16.5,16 C15.6715729,16 15,15.3284271 15,14.5 C15,13.6715729 15.6715729,13 16.5,13 Z M7.5,13 C8.32842712,13 9,13.6715729 9,14.5 C9,15.3284271 8.32842712,16 7.5,16 C6.67157288,16 6,15.3284271 6,14.5 C6,13.6715729 6.67157288,13 7.5,13 Z M16.5,8 C17.3284271,8 18,8.67157288 18,9.5 C18,10.3284271 17.3284271,11 16.5,11 L7.5,11 C6.67157288,11 6,10.3284271 6,9.5 C6,8.67157288 6.67157288,8 7.5,8 L16.5,8 Z" id="Combined-Shape" fill="#FFFFFF"></path>
    </g>
</svg>