<?xml version="1.0" encoding="UTF-8"?>
<svg width="24px" height="24px" viewBox="0 0 24 24" version="1.1" xmlns="http://www.w3.org/2000/svg" xmlns:xlink="http://www.w3.org/1999/xlink">
    <title>Icon/Settings/Filled</title>
    <g id="Icon/Settings/Filled" stroke="none" stroke-width="1" fill="none" fill-rule="evenodd">
        <path d="M12,3 C12.9941125,3 13.8,3.80588745 13.8,4.8 L13.8005524,6.27485491 C14.1390216,6.38119811 14.4645633,6.51672779 14.7742278,6.67849414 L15.8183766,5.63603897 C16.5213203,4.93309524 17.6610173,4.93309524 18.363961,5.63603897 C19.0669048,6.33898269 19.0669048,7.47867966 18.363961,8.18162338 L17.3215059,9.22577222 C17.4834649,9.53580548 17.6191247,9.86175385 17.7255249,10.200657 L19.2,10.2 C20.1941125,10.2 21,11.0058875 21,12 C21,12.9941125 20.1941125,13.8 19.2,13.8 L17.7251451,13.8005524 C17.6188019,14.1390216 17.4832722,14.4645633 17.3215059,14.7742278 L18.363961,15.8183766 C19.0669048,16.5213203 19.0669048,17.6610173 18.363961,18.363961 C17.6610173,19.0669048 16.5213203,19.0669048 15.8183766,18.363961 L14.7742278,17.3215059 C14.4645633,17.4832722 14.1390216,17.6188019 13.8005524,17.7251451 L13.8,19.2 C13.8,20.1941125 12.9941125,21 12,21 C11.0058875,21 10.2,20.1941125 10.2,19.2 L10.200657,17.7255249 C9.86175385,17.6191247 9.53580548,17.4834649 9.22577222,17.3215059 L8.18162338,18.363961 C7.47867966,19.0669048 6.33898269,19.0669048 5.63603897,18.363961 C4.93309524,17.6610173 4.93309524,16.5213203 5.63603897,15.8183766 L6.67849414,14.7742278 C6.51672779,14.4645633 6.38119811,14.1390216 6.27485491,13.8005524 L4.8,13.8 C3.80588745,13.8 3,12.9941125 3,12 C3,11.0058875 3.80588745,10.2 4.8,10.2 L6.27447508,10.200657 C6.38087532,9.86175385 6.51653513,9.53580548 6.67849414,9.22577222 L5.63603897,8.18162338 C4.93309524,7.47867966 4.93309524,6.33898269 5.63603897,5.63603897 C6.33898269,4.93309524 7.47867966,4.93309524 8.18162338,5.63603897 L9.22577222,6.67849414 C9.53580548,6.51653513 9.86175385,6.38087532 10.200657,6.27447508 L10.2,4.8 C10.2,3.80588745 11.0058875,3 12,3 Z M12,8.4 C10.0117749,8.4 8.4,10.0117749 8.4,12 C8.4,13.9882251 10.0117749,15.6 12,15.6 C13.9882251,15.6 15.6,13.9882251 15.6,12 C15.6,10.0117749 13.9882251,8.4 12,8.4 Z" id="Shape" fill="#FFFFFF"></path>
    </g>
</svg>