<?xml version="1.0" encoding="UTF-8"?>
<svg width="24px" height="24px" viewBox="0 0 24 24" version="1.1" xmlns="http://www.w3.org/2000/svg" xmlns:xlink="http://www.w3.org/1999/xlink">
    <title>Icon/Settings/Outline</title>
    <g id="Icon/Settings/Outline" stroke="none" stroke-width="1" fill="none" fill-rule="evenodd">
        <path d="M12,3 C13.2367234,3 14.2986623,3.74834119 14.7576975,4.81667078 L14.8251041,4.98795113 L14.86,5.094 L14.899968,5.07368399 C15.9046042,4.57087248 17.1327034,4.66749116 18.0514598,5.36354004 L18.2199714,5.50107377 L18.363961,5.63603897 C19.2518899,6.52396789 19.4668622,7.83001846 19.0092525,8.92003134 L18.9267566,9.09959107 L18.904,9.139 L19.0117763,9.17489588 C20.0566655,9.54915358 20.833476,10.4866362 20.9763495,11.6214854 L20.9949073,11.8237272 L21,12 C21,13.2367234 20.2516588,14.2986623 19.1833292,14.7576975 L19.0120489,14.8251041 L18.905,14.86 L18.926316,14.899968 C19.4291275,15.9046042 19.3325088,17.1327034 18.63646,18.0514598 L18.4989262,18.2199714 L18.363961,18.363961 C17.4760321,19.2518899 16.1699815,19.4668622 15.0799687,19.0092525 L14.9004089,18.9267566 L14.86,18.904 L14.8251041,19.0117763 C14.4508464,20.0566655 13.5133638,20.833476 12.3785146,20.9763495 L12.1762728,20.9949073 L12,21 C10.7632766,21 9.70133775,20.2516588 9.2423025,19.1828176 L9.17489595,19.0114522 L9.139,18.905 L9.10003204,18.926316 C8.09539577,19.4291275 6.8672966,19.3325088 5.9485402,18.63646 L5.78002857,18.4989262 L5.63603897,18.363961 C4.74811005,17.4760321 4.53313779,16.1699815 4.99074754,15.0799687 L5.07324338,14.9004089 L5.095,14.86 L4.98822366,14.8251041 C3.94333448,14.4508464 3.166524,13.5133638 3.02365053,12.3785146 L3.00509269,12.1762728 L3,12 C3,10.7632766 3.74834119,9.70133775 4.81718238,9.2423025 L4.98854784,9.17489595 L5.094,9.139 L5.07368399,9.10003204 C4.57087248,8.09539577 4.66749116,6.8672966 5.36354004,5.9485402 L5.50107377,5.78002857 L5.63603897,5.63603897 C6.52396789,4.74811005 7.83001846,4.53313779 8.92003134,4.99074754 L9.09959107,5.07324338 L9.139,5.095 L9.17489588,4.98822366 C9.54915358,3.94333448 10.4866362,3.166524 11.6214854,3.02365053 L11.8237272,3.00509269 L12,3 Z M12,4.5 C11.2203039,4.5 10.5795513,5.09488808 10.5068666,5.85553999 L10.5,6 L10.5005475,7.22872923 C10.312268,7.28784048 10.1287865,7.3577886 9.95083406,7.43784264 L9.68814352,7.56541178 L8.81801948,6.69669914 C8.23223305,6.1109127 7.28248558,6.1109127 6.69669914,6.69669914 C6.14752436,7.24587393 6.11320093,8.11493634 6.59372887,8.70409707 L6.69669914,8.81801948 L7.56541178,9.68814352 C7.47543456,9.86038421 7.39519777,10.0385194 7.32543239,10.2218181 L7.22872923,10.5005475 L6,10.5 C5.17157288,10.5 4.5,11.1715729 4.5,12 C4.5,12.7796961 5.09488808,13.4204487 5.85553999,13.4931334 L6,13.5 L7.22904576,13.5004604 C7.28812531,13.6884988 7.35801468,13.8717493 7.4379855,14.0494835 L7.56541178,14.3118565 L6.69669914,15.1819805 C6.1109127,15.767767 6.1109127,16.7175144 6.69669914,17.3033009 C6.98959236,17.5961941 7.37347584,17.7426407 7.75735931,17.7426407 L7.9011379,17.735776 C8.18798422,17.7083173 8.46843278,17.5984823 8.70409707,17.4062711 L8.81801948,17.3033009 L9.68814352,16.4345882 C9.86038421,16.5245654 10.0385194,16.6048022 10.2218181,16.6745676 L10.5005475,16.7712708 L10.5,18 C10.5,18.7796961 11.0948881,19.4204487 11.85554,19.4931334 L12,19.5 L12.14446,19.4931334 C12.8575712,19.4249915 13.4249915,18.8575712 13.4931334,18.14446 L13.5,18 L13.5004604,16.7709542 C13.6884988,16.7118747 13.8717493,16.6419853 14.0494835,16.5620145 L14.3118565,16.4345882 L15.1819805,17.3033009 C15.4748737,17.5961941 15.8587572,17.7426407 16.2426407,17.7426407 L16.3864193,17.735776 C16.7210733,17.7037408 17.0470193,17.5595824 17.3033009,17.3033009 C17.8524756,16.7541261 17.8867991,15.8850637 17.4062711,15.2959029 L17.3033009,15.1819805 L16.4345882,14.3118565 C16.5244584,14.1398207 16.6046113,13.9619044 16.6743186,13.778836 L16.7709542,13.5004604 L18,13.5 L18.14446,13.4931334 C18.9051119,13.4204487 19.5,12.7796961 19.5,12 C19.5,11.2203039 18.9051119,10.5795513 18.14446,10.5068666 L18,10.5 L16.7712708,10.5005475 C16.7121595,10.312268 16.6422114,10.1287865 16.5621574,9.95083406 L16.4345882,9.68814352 L17.3033009,8.81801948 C17.8890873,8.23223305 17.8890873,7.28248558 17.3033009,6.69669914 C16.7541261,6.14752436 15.8850637,6.11320093 15.2959029,6.59372887 L15.1819805,6.69669914 L14.3118565,7.56541178 C14.1398207,7.47554159 13.9619044,7.39538868 13.778836,7.3256814 L13.5004604,7.22904576 L13.5,6 C13.5,5.17157288 12.8284271,4.5 12,4.5 Z M12,9 C13.6568542,9 15,10.3431458 15,12 C15,13.6568542 13.6568542,15 12,15 C10.3431458,15 9,13.6568542 9,12 C9,10.3431458 10.3431458,9 12,9 Z M12,10.5 C11.1715729,10.5 10.5,11.1715729 10.5,12 C10.5,12.8284271 11.1715729,13.5 12,13.5 C12.8284271,13.5 13.5,12.8284271 13.5,12 C13.5,11.1715729 12.8284271,10.5 12,10.5 Z" id="Shape" fill="#FFFFFF"></path>
    </g>
</svg>