<svg width="20" height="20" viewBox="0 0 20 20" fill="currentColor" xmlns="http://www.w3.org/2000/svg">
<path d="M16.042 5.83301C16.8287 5.82541 17.516 6.2906 17.5 7.22363V13.667C17.5 15.3236 16.1566 16.667 14.5 16.667H13.126C12.7809 16.667 12.5012 16.387 12.501 16.042C12.501 15.6968 12.7808 15.417 13.126 15.417H14.6436C15.5309 15.417 16.2501 14.6969 16.25 13.8096V7.28809C16.25 7.24257 16.2288 7.17668 16.1924 7.14941C16.1003 7.0806 15.9973 7.14221 15.9248 7.23145L15.8828 7.2832C15.8533 7.31958 15.8309 7.35852 15.8145 7.40234C15.6378 7.87371 14.532 10.8188 13.9268 12.3896C13.8598 12.6387 13.7399 12.8863 13.5674 13.124C13.3647 13.4034 12.9737 13.4654 12.6943 13.2627C12.415 13.06 12.353 12.669 12.5557 12.3896C12.7371 12.1394 12.7452 11.9832 12.7363 11.917C12.7274 11.8511 12.6905 11.7859 12.6104 11.7305C12.3246 11.4943 12.1664 11.6251 12.0322 11.7725L10.8389 13.6328C10.7164 13.7907 10.6426 13.9807 10.625 14.1797V16.042C10.625 16.3868 10.3457 16.6669 10.001 16.667L10 16.666L9.99902 16.667C9.65438 16.6667 9.375 16.3867 9.375 16.042V14.1797C9.35738 13.9807 9.28366 13.7907 9.16113 13.6328L7.96777 11.7725C7.83358 11.6251 7.67537 11.4943 7.38965 11.7305C7.30957 11.7859 7.27357 11.8512 7.26465 11.917C7.25577 11.9832 7.26284 12.1394 7.44434 12.3896C7.64704 12.669 7.58505 13.06 7.30566 13.2627C7.02628 13.4653 6.6353 13.4034 6.43262 13.124C6.25901 12.8847 6.13794 12.6355 6.07129 12.3848C5.46559 10.8127 4.36302 7.87321 4.18652 7.40234C4.17003 7.35841 4.14677 7.31965 4.11719 7.2832L4.0752 7.23145C4.00268 7.14227 3.89971 7.08063 3.80762 7.14941C3.77124 7.17674 3.75 7.24263 3.75 7.28809V13.8096C3.74993 14.6969 4.46913 15.417 5.35645 15.417H6.87402C7.2192 15.417 7.49902 15.6968 7.49902 16.042C7.49881 16.387 7.21907 16.667 6.87402 16.667H5.5C3.84337 16.667 2.49998 15.3236 2.5 13.667V7.22363C2.48401 6.2907 3.17137 5.8255 3.95801 5.83301C4.99191 5.84306 5.35017 6.94926 5.35547 6.96582C5.35547 6.96582 6.1023 8.96199 6.74609 10.6592C7.35927 10.2708 8.12381 10.2673 8.9248 10.9688C9.29631 11.4032 9.76564 12.1999 10 12.6094C10.2343 12.1999 10.7037 11.4032 11.0752 10.9688C11.8758 10.2676 12.6399 10.2713 13.2529 10.6592C13.8968 8.9619 14.6445 6.96582 14.6445 6.96582C14.6488 6.95243 15.0066 5.84308 16.042 5.83301ZM10.1367 3.66113C11.0174 3.13122 12.1759 3.2433 12.9355 4.00293C13.8301 4.89781 13.8302 6.34827 12.9355 7.24316L11.168 9.01074C10.5985 9.58026 9.67498 9.58026 9.10547 9.01074L8.81055 8.71582C8.75781 8.66305 8.70941 8.60829 8.66309 8.55371C8.61538 8.51385 8.5653 8.47055 8.5166 8.42188L7.33789 7.24316C6.44307 6.34825 6.44309 4.89786 7.33789 4.00293C8.09751 3.24336 9.25599 3.13123 10.1367 3.66113Z" fill="currentColor"/>
</svg>
