<?xml version="1.0" encoding="UTF-8"?>
<svg width="32px" height="33px" viewBox="0 0 32 33" version="1.1" xmlns="http://www.w3.org/2000/svg" xmlns:xlink="http://www.w3.org/1999/xlink">
    <title>Icon</title>
    <g id="Notifications" stroke="none" stroke-width="1" fill="none" fill-rule="evenodd">
        <g id="5.-All-Notifications" transform="translate(-214.000000, -1797.000000)">
            <g id="3" transform="translate(189.000000, 1715.500000)">
                <g id="Group-3" transform="translate(0.000000, 66.000000)">
                    <g id="Icon" transform="translate(25.000000, 16.000000)">
                        <path d="M10.2555408,-4.14336123e-16 L21.7444592,4.14336123e-16 C25.3105342,-2.4074122e-16 26.6036791,0.371302445 27.9073828,1.06853082 C29.2110865,1.76575919 30.2342408,2.78891348 30.9314692,4.09261719 C31.6286976,5.39632089 32,6.68946584 32,10.2555408 L32,21.7444592 C32,25.3105342 31.6286976,26.6036791 30.9314692,27.9073828 C30.2342408,29.2110865 29.2110865,30.2342408 27.9073828,30.9314692 C26.6036791,31.6286976 25.3105342,32 21.7444592,32 L10.2555408,32 C6.68946584,32 5.39632089,31.6286976 4.09261719,30.9314692 C2.78891348,30.2342408 1.76575919,29.2110865 1.06853082,27.9073828 C0.371302445,26.6036791 1.60494146e-16,25.3105342 -2.76224082e-16,21.7444592 L2.76224082e-16,10.2555408 C-1.60494146e-16,6.68946584 0.371302445,5.39632089 1.06853082,4.09261719 C1.76575919,2.78891348 2.78891348,1.76575919 4.09261719,1.06853082 C5.39632089,0.371302445 6.68946584,2.4074122e-16 10.2555408,-4.14336123e-16 Z" id="Rectangle" fill-opacity="0.08" fill="#A8B3CF"></path>
                        <g id="Icon" transform="translate(6.000000, 10.000000)" fill="#FFFFFF">
                            <g id="Second" opacity="0.56" transform="translate(13.244025, 1.175000)">
                                <path d="M3.93041549,4.41482136 L1.7226213,2.20702717 L2.82594312,0 L6.41317724,3.58723412 C6.87024105,4.04429793 6.87024105,4.7853448 6.41317724,5.24240861 L1.99797236,9.65761349 C1.54090854,10.1146773 0.799861679,10.1146773 0.342797862,9.65761349 C-0.114265954,9.20054967 -0.114265954,8.45950281 0.342797862,8.00243899 L3.93041549,4.41482136 Z" id="Combined-Shape"></path>
                            </g>
                            <path d="M13.5876455,0.342701999 C14.0447093,-0.114361818 14.7859479,-0.11417006 15.2430117,0.342893756 L16.0707907,1.17067276 L6.41317724,10.8282863 C5.95611342,11.2853501 5.2148748,11.2851583 4.75781098,10.8280945 L3.93003198,10.0003155 L13.5876455,0.342701999 Z M9.44855868,3.37808344 L7.79300067,5.03364145 L5.58520647,2.82584726 L2.82555961,5.58549413 L5.0333538,7.79328832 L3.93003198,10.0003155 L0.342797862,6.41308137 C-0.114265954,5.95601756 -0.114265954,5.21497069 0.342797862,4.75790688 L4.75781098,0.342893756 C5.2148748,-0.11417006 5.95611342,-0.114361818 6.41317724,0.342701999 L9.44855868,3.37808344 Z" id="Main"></path>
                        </g>
                    </g>
                </g>
            </g>
        </g>
    </g>
</svg>
