<svg width="36px" height="22.7071948px" viewBox="0 0 38 22.7071948" version="1.1" xmlns="http://www.w3.org/2000/svg" xmlns:xlink="http://www.w3.org/1999/xlink">
    <title>Group 2</title>
    <defs>
        <linearGradient x1="-4.30649739e-05%" y1="50.0002495%" x2="99.9997979%" y2="50.0002495%" id="linearGradient-1">
            <stop stop-color="#0C59A4" offset="0%"></stop>
            <stop stop-color="#114A8B" offset="100%"></stop>
        </linearGradient>
        <radialGradient cx="-135.212046%" cy="-162.330644%" fx="-135.212046%" fy="-162.330644%" r="82.4952218%" gradientTransform="translate(-1.352120,-1.623306),scale(0.862983,1.000000),rotate(175.274000),translate(1.352120,1.623306)" id="radialGradient-2">
            <stop stop-color="#000000" stop-opacity="0" offset="0%"></stop>
            <stop stop-color="#000000" stop-opacity="0.53" offset="46.0005%"></stop>
            <stop stop-color="#000000" offset="100%"></stop>
        </radialGradient>
        <linearGradient x1="67.5279187%" y1="24.8180262%" x2="30.9263937%" y2="74.0135591%" id="linearGradient-3">
            <stop stop-color="#1B9DE2" offset="0%"></stop>
            <stop stop-color="#1595DF" offset="16.164%"></stop>
            <stop stop-color="#0680D7" offset="66.749%"></stop>
            <stop stop-color="#0078D4" offset="100%"></stop>
        </linearGradient>
        <radialGradient cx="-75.1568957%" cy="7.69845356%" fx="-75.1568957%" fy="7.69845356%" r="82.9739497%" gradientTransform="translate(-0.751569,0.076985),scale(1.000000,0.810393),rotate(90.466900),translate(0.751569,-0.076985)" id="radialGradient-4">
            <stop stop-color="#000000" stop-opacity="0" offset="0%"></stop>
            <stop stop-color="#000000" stop-opacity="0.5" offset="35.4312%"></stop>
            <stop stop-color="#000000" offset="100%"></stop>
        </radialGradient>
        <radialGradient cx="1.58112913%" cy="30.981993%" fx="1.58112913%" fy="30.981993%" r="166.553129%" gradientTransform="translate(0.015811,0.309820),scale(0.665999,1.000000),rotate(33.907100),translate(-0.015811,-0.309820)" id="radialGradient-5">
            <stop stop-color="#35C1F1" offset="0%"></stop>
            <stop stop-color="#34C1ED" offset="11.079%"></stop>
            <stop stop-color="#2FC2DF" offset="23.164%"></stop>
            <stop stop-color="#2BC3D2" offset="31.446%"></stop>
            <stop stop-color="#36C752" offset="100%"></stop>
        </radialGradient>
        <radialGradient cx="0.24983671%" cy="156.071011%" fx="0.24983671%" fy="156.071011%" r="83.8186949%" gradientTransform="translate(0.002498,1.560710),scale(0.665999,1.000000),rotate(78.961900),translate(-0.002498,-1.560710)" id="radialGradient-6">
            <stop stop-color="#66EB6E" offset="0%"></stop>
            <stop stop-color="#66EB6E" stop-opacity="0" offset="100%"></stop>
        </radialGradient>
        <radialGradient cx="86.8491144%" cy="-10.7763783%" fx="86.8491144%" fy="-10.7763783%" r="241.262155%" gradientTransform="translate(0.868491,-0.107764),scale(1.000000,0.362881),translate(-0.868491,0.107764)" id="radialGradient-7">
            <stop stop-color="#FFEA00" offset="4.5%"></stop>
            <stop stop-color="#FFDE00" offset="12%"></stop>
            <stop stop-color="#FFBF00" offset="25.4%"></stop>
            <stop stop-color="#FF8E00" offset="42.9%"></stop>
            <stop stop-color="#FF272D" offset="76.9%"></stop>
            <stop stop-color="#E0255A" offset="87.2%"></stop>
            <stop stop-color="#CC2477" offset="95.3%"></stop>
            <stop stop-color="#C42482" offset="100%"></stop>
        </radialGradient>
        <radialGradient cx="70.8274449%" cy="12.2230186%" fx="70.8274449%" fy="12.2230186%" r="112.629457%" gradientTransform="translate(0.708274,0.122230),scale(1.000000,0.994697),translate(-0.708274,-0.122230)" id="radialGradient-8">
            <stop stop-color="#00CCDA" offset="0%"></stop>
            <stop stop-color="#0083FF" offset="22%"></stop>
            <stop stop-color="#007AF9" offset="26.1%"></stop>
            <stop stop-color="#0060E8" offset="33%"></stop>
            <stop stop-color="#005FE7" offset="33.3%"></stop>
            <stop stop-color="#2639AD" offset="43.8%"></stop>
            <stop stop-color="#401E84" offset="52.2%"></stop>
            <stop stop-color="#4A1475" offset="100%"></stop>
        </radialGradient>
        <linearGradient x1="55.788141%" y1="75.2198182%" x2="36.26765%" y2="7.45956454%" id="linearGradient-9">
            <stop stop-color="#000F43" stop-opacity="0.4" offset="0%"></stop>
            <stop stop-color="#001962" stop-opacity="0.173" offset="48.5%"></stop>
            <stop stop-color="#002079" stop-opacity="0" offset="100%"></stop>
        </linearGradient>
        <radialGradient cx="109.29176%" cy="-21.663282%" fx="109.29176%" fy="-21.663282%" r="140.23581%" gradientTransform="translate(1.092918,-0.216633),scale(0.923324,1.000000),translate(-1.092918,0.216633)" id="radialGradient-10">
            <stop stop-color="#FFEA00" offset="0.3%"></stop>
            <stop stop-color="#FF272D" offset="49.7%"></stop>
            <stop stop-color="#C42482" offset="100%"></stop>
        </radialGradient>
        <radialGradient cx="135.976962%" cy="-143.882327%" fx="135.976962%" fy="-143.882327%" r="370.470295%" gradientTransform="translate(1.359770,-1.438823),scale(1.000000,0.541482),translate(-1.359770,1.438823)" id="radialGradient-11">
            <stop stop-color="#FFE900" offset="0.3%"></stop>
            <stop stop-color="#FFAF0E" offset="15.7%"></stop>
            <stop stop-color="#FF7A1B" offset="31.6%"></stop>
            <stop stop-color="#FF4E26" offset="47.2%"></stop>
            <stop stop-color="#FF2C2E" offset="62.1%"></stop>
            <stop stop-color="#FF1434" offset="76.2%"></stop>
            <stop stop-color="#FF0538" offset="89.2%"></stop>
            <stop stop-color="#FF0039" offset="100%"></stop>
        </radialGradient>
        <radialGradient cx="18.7848855%" cy="2.14366957%" fx="18.7848855%" fy="2.14366957%" r="308.148985%" gradientTransform="translate(0.187849,0.021437),scale(0.533466,1.000000),translate(-0.187849,-0.021437)" id="radialGradient-12">
            <stop stop-color="#FF272D" offset="0.3%"></stop>
            <stop stop-color="#C42482" offset="49.7%"></stop>
            <stop stop-color="#620700" offset="98.6%"></stop>
        </radialGradient>
        <radialGradient cx="62.7947722%" cy="43.4822834%" fx="62.7947722%" fy="43.4822834%" r="70.8905541%" gradientTransform="translate(0.627948,0.434823),scale(1.000000,0.959471),translate(-0.627948,-0.434823)" id="radialGradient-13">
            <stop stop-color="#FFEA00" offset="0%"></stop>
            <stop stop-color="#FFDE00" offset="23.1%"></stop>
            <stop stop-color="#FFBF00" offset="36.5%"></stop>
            <stop stop-color="#FF8E00" offset="54.1%"></stop>
            <stop stop-color="#FF272D" offset="76.3%"></stop>
            <stop stop-color="#F92433" offset="79.6%"></stop>
            <stop stop-color="#E91C45" offset="84.1%"></stop>
            <stop stop-color="#CF0E62" offset="89.3%"></stop>
            <stop stop-color="#B5007F" offset="100%"></stop>
        </radialGradient>
        <radialGradient cx="24.9530468%" cy="-6.30929724%" fx="24.9530468%" fy="-6.30929724%" r="249.815548%" gradientTransform="translate(0.249530,-0.063093),scale(1.000000,0.396484),translate(-0.249530,0.063093)" id="radialGradient-14">
            <stop stop-color="#FFEA00" offset="27.9%"></stop>
            <stop stop-color="#FFDD00" offset="40.2%"></stop>
            <stop stop-color="#FFBA00" offset="63%"></stop>
            <stop stop-color="#FF9100" offset="85.6%"></stop>
            <stop stop-color="#FF6711" offset="93.3%"></stop>
            <stop stop-color="#FF4A1D" offset="99.4%"></stop>
        </radialGradient>
        <linearGradient x1="-51.9312539%" y1="64.4549444%" x2="105.878191%" y2="37.4671743%" id="linearGradient-15">
            <stop stop-color="#C42482" stop-opacity="0.5" offset="0%"></stop>
            <stop stop-color="#FF272D" stop-opacity="0.5" offset="47.4%"></stop>
            <stop stop-color="#FF2C2C" stop-opacity="0.513" offset="48.6%"></stop>
            <stop stop-color="#FF7A1A" stop-opacity="0.72" offset="67.5%"></stop>
            <stop stop-color="#FFB20D" stop-opacity="0.871" offset="82.9%"></stop>
            <stop stop-color="#FFD605" stop-opacity="0.964" offset="94.2%"></stop>
            <stop stop-color="#FFE302" offset="100%"></stop>
        </linearGradient>
        <linearGradient x1="51.3376337%" y1="94.8930863%" x2="35.207805%" y2="9.00040837%" id="linearGradient-16">
            <stop stop-color="#891551" stop-opacity="0.6" offset="0%"></stop>
            <stop stop-color="#C42482" stop-opacity="0" offset="100%"></stop>
        </linearGradient>
        <linearGradient x1="37.3941289%" y1="6.68620283%" x2="55.8994175%" y2="41.5706294%" id="linearGradient-17">
            <stop stop-color="#891551" stop-opacity="0.5" offset="0.5%"></stop>
            <stop stop-color="#FF272D" stop-opacity="0.5" offset="48.4%"></stop>
            <stop stop-color="#FF272D" stop-opacity="0" offset="100%"></stop>
        </linearGradient>
        <linearGradient x1="47.5091953%" y1="50.768338%" x2="47.8338948%" y2="49.6572264%" id="linearGradient-18">
            <stop stop-color="#C42482" offset="0%"></stop>
            <stop stop-color="#C42482" stop-opacity="0.81" offset="8.3%"></stop>
            <stop stop-color="#C42482" stop-opacity="0.565" offset="20.6%"></stop>
            <stop stop-color="#C42482" stop-opacity="0.362" offset="32.8%"></stop>
            <stop stop-color="#C42482" stop-opacity="0.204" offset="44.7%"></stop>
            <stop stop-color="#C42482" stop-opacity="0.091" offset="56.2%"></stop>
            <stop stop-color="#C42482" stop-opacity="0.023" offset="67.3%"></stop>
            <stop stop-color="#C42482" stop-opacity="0" offset="77.3%"></stop>
        </linearGradient>
        <linearGradient x1="48.1029906%" y1="1.64707631%" x2="63.6661498%" y2="77.8766566%" id="linearGradient-19">
            <stop stop-color="#FFF14F" offset="0%"></stop>
            <stop stop-color="#FFEE4C" offset="26.8%"></stop>
            <stop stop-color="#FFE643" offset="45.2%"></stop>
            <stop stop-color="#FFD834" offset="61.2%"></stop>
            <stop stop-color="#FFC41E" offset="75.7%"></stop>
            <stop stop-color="#FFAB02" offset="89.2%"></stop>
            <stop stop-color="#FFA900" offset="90.2%"></stop>
            <stop stop-color="#FFA000" offset="94.9%"></stop>
            <stop stop-color="#FF9100" offset="100%"></stop>
        </linearGradient>
        <linearGradient x1="68.4352684%" y1="7.15858353%" x2="41.9812636%" y2="81.2176938%" id="linearGradient-20">
            <stop stop-color="#FF8E00" offset="0%"></stop>
            <stop stop-color="#FF8E00" stop-opacity="0.858" offset="4%"></stop>
            <stop stop-color="#FF8E00" stop-opacity="0.729" offset="8.4%"></stop>
            <stop stop-color="#FF8E00" stop-opacity="0.628" offset="13%"></stop>
            <stop stop-color="#FF8E00" stop-opacity="0.557" offset="17.8%"></stop>
            <stop stop-color="#FF8E00" stop-opacity="0.514" offset="22.7%"></stop>
            <stop stop-color="#FF8E00" stop-opacity="0.5" offset="28.2%"></stop>
            <stop stop-color="#FF8E00" stop-opacity="0.478" offset="38.9%"></stop>
            <stop stop-color="#FF8E00" stop-opacity="0.416" offset="52.4%"></stop>
            <stop stop-color="#FF8E00" stop-opacity="0.314" offset="67.6%"></stop>
            <stop stop-color="#FF8E00" stop-opacity="0.172" offset="83.8%"></stop>
            <stop stop-color="#FF8E00" stop-opacity="0" offset="100%"></stop>
        </linearGradient>
        <path d="M11.0000383,22 C17.0751434,22 22,17.07515 22,10.9999789 C22,4.92486712 17.0751434,5.49560683e-16 11.0000383,5.49560683e-16 C4.92486712,5.49560683e-16 -6.22835441e-16,4.92486712 -6.22835441e-16,10.9999789 C-6.22835441e-16,17.07515 4.92486712,22 11.0000383,22 Z" id="path-21"></path>
        <linearGradient x1="4.54668567%" y1="53.037148%" x2="32.4579596%" y2="40.7604511%" id="linearGradient-23">
            <stop stop-color="#A52714" stop-opacity="0.6" offset="0%"></stop>
            <stop stop-color="#A52714" stop-opacity="0" offset="66%"></stop>
        </linearGradient>
        <radialGradient cx="-0.157270255%" cy="-25.2023724%" fx="-0.157270255%" fy="-25.2023724%" r="136.320337%" gradientTransform="translate(-0.001573,-0.252024),scale(1.000000,0.583254),translate(0.001573,0.252024)" id="radialGradient-24">
            <stop stop-color="#3E2723" stop-opacity="0.2" offset="0%"></stop>
            <stop stop-color="#3E2723" stop-opacity="0" offset="100%"></stop>
        </radialGradient>
        <path d="M11.0000383,22 C17.0751434,22 22,17.07515 22,10.9999789 C22,4.92486712 17.0751434,5.49560683e-16 11.0000383,5.49560683e-16 C4.92486712,5.49560683e-16 -6.22835441e-16,4.92486712 -6.22835441e-16,10.9999789 C-6.22835441e-16,17.07515 4.92486712,22 11.0000383,22 Z" id="path-25"></path>
        <linearGradient x1="72.7491954%" y1="87.7758348%" x2="39.4118683%" y2="69.4542014%" id="linearGradient-27">
            <stop stop-color="#055524" stop-opacity="0.4" offset="0%"></stop>
            <stop stop-color="#055524" stop-opacity="0" offset="33%"></stop>
        </linearGradient>
        <radialGradient cx="10.3301008%" cy="-48.0277639%" fx="10.3301008%" fy="-48.0277639%" r="226.350938%" gradientTransform="translate(0.103301,-0.480278),scale(1.000000,0.496421),translate(-0.103301,0.480278)" id="radialGradient-28">
            <stop stop-color="#263238" stop-opacity="0.2" offset="0%"></stop>
            <stop stop-color="#263238" stop-opacity="0" offset="100%"></stop>
        </radialGradient>
        <path d="M11.0000383,22 C17.0751434,22 22,17.07515 22,10.9999789 C22,4.92486712 17.0751434,5.49560683e-16 11.0000383,5.49560683e-16 C4.92486712,5.49560683e-16 -6.22835441e-16,4.92486712 -6.22835441e-16,10.9999789 C-6.22835441e-16,17.07515 4.92486712,22 11.0000383,22 Z" id="path-29"></path>
        <linearGradient x1="45.3315578%" y1="-4.84063034%" x2="53.3908977%" y2="44.2161859%" id="linearGradient-31">
            <stop stop-color="#EA6100" stop-opacity="0.3" offset="0%"></stop>
            <stop stop-color="#EA6100" stop-opacity="0" offset="66%"></stop>
        </linearGradient>
        <radialGradient cx="-39.2769591%" cy="-0.248249651%" fx="-39.2769591%" fy="-0.248249651%" r="401.327695%" gradientTransform="translate(-0.392770,-0.002482),scale(0.267219,1.000000),translate(0.392770,0.002482)" id="radialGradient-32">
            <stop stop-color="#3E2723" stop-opacity="0.2" offset="0%"></stop>
            <stop stop-color="#3E2723" stop-opacity="0" offset="100%"></stop>
        </radialGradient>
        <path d="M11.0000383,22 C17.0751434,22 22,17.07515 22,10.9999789 C22,4.92486712 17.0751434,5.49560683e-16 11.0000383,5.49560683e-16 C4.92486712,5.49560683e-16 -6.22835441e-16,4.92486712 -6.22835441e-16,10.9999789 C-6.22835441e-16,17.07515 4.92486712,22 11.0000383,22 Z" id="path-33"></path>
        <path d="M11.0000383,22 C17.0751434,22 22,17.07515 22,10.9999789 C22,4.92486712 17.0751434,5.49560683e-16 11.0000383,5.49560683e-16 C4.92486712,5.49560683e-16 -6.22835441e-16,4.92486712 -6.22835441e-16,10.9999789 C-6.22835441e-16,17.07515 4.92486712,22 11.0000383,22 Z" id="path-35"></path>
        <path d="M11.0000383,22 C17.0751434,22 22,17.07515 22,10.9999789 C22,4.92486712 17.0751434,5.49560683e-16 11.0000383,5.49560683e-16 C4.92486712,5.49560683e-16 -6.22835441e-16,4.92486712 -6.22835441e-16,10.9999789 C-6.22835441e-16,17.07515 4.92486712,22 11.0000383,22 Z" id="path-37"></path>
        <radialGradient cx="14.9352258%" cy="13.644321%" fx="14.9352258%" fy="13.644321%" r="100.426252%" id="radialGradient-39">
            <stop stop-color="#FFFFFF" stop-opacity="0.1" offset="0%"></stop>
            <stop stop-color="#FFFFFF" stop-opacity="0" offset="100%"></stop>
        </radialGradient>
    </defs>
    <g id="Closed-beta---v5" stroke="none" stroke-width="1" fill="none" fill-rule="evenodd">
        <g id="2.1-Checklist-content" transform="translate(-1058.000000, -2589.000000)">
            <g id="New-squad-member-that-is-also-new-to-daily.dev" transform="translate(199.000000, 1923.000000)">
                <g id="Other-task-open" transform="translate(793.000000, 263.000000)">
                    <g id="Button/Sec/Text/Medium/Default" transform="translate(54.000000, 394.000000)">
                        <g id="Group-2" transform="translate(12.000000, 9.000000)">
                            <g id="Edge" fill-rule="nonzero">
                                <path d="M19.8569604,16.3743974 C19.5677417,16.5260028 19.2656528,16.6616359 18.9517497,16.7795146 C18.0079941,17.1340087 16.9657643,17.3349833 15.8665092,17.3349833 C11.7997602,17.3349833 8.25719526,14.5375094 8.25719526,10.9478194 C8.25719526,9.93839228 8.84117661,9.06347629 9.66876952,8.60258775 C5.99096087,8.75676728 5.04550906,12.5902009 5.04550906,14.8358362 C5.04550906,21.1844553 10.8970576,21.828696 12.1578844,21.828696 C12.8373699,21.828696 13.8629674,21.6308235 14.4809395,21.4369771 C14.5185604,21.4244368 14.5560492,21.4117645 14.5935381,21.3988942 C16.9791626,20.5761194 18.9926706,18.9575644 20.3161328,16.8595745 C20.5059532,16.5586736 20.1721836,16.2091296 19.8569604,16.3743974 Z" id="Path" fill="url(#linearGradient-1)"></path>
                                <path d="M19.8569604,16.3743974 C19.5677417,16.5260028 19.2656528,16.6616359 18.9517497,16.7795146 C18.0079941,17.1340087 16.9657643,17.3349833 15.8665092,17.3349833 C11.7997602,17.3349833 8.25719526,14.5375094 8.25719526,10.9478194 C8.25719526,9.93839228 8.84117661,9.06347629 9.66876952,8.60258775 C5.99096087,8.75676728 5.04550906,12.5902009 5.04550906,14.8358362 C5.04550906,21.1844553 10.8970576,21.828696 12.1578844,21.828696 C12.8373699,21.828696 13.8629674,21.6308235 14.4809395,21.4369771 C14.5185604,21.4244368 14.5560492,21.4117645 14.5935381,21.3988942 C16.9791626,20.5761194 18.9926706,18.9575644 20.3161328,16.8595745 C20.5059532,16.5586736 20.1721836,16.2091296 19.8569604,16.3743974 Z" id="Path" fill="url(#radialGradient-2)" opacity="0.35"></path>
                                <path d="M9.08478817,20.7469313 C8.3203587,20.2731065 7.65684554,19.6483362 7.13087952,18.9099773 C6.31705452,17.7673592 5.8305046,16.3617911 5.8305046,14.8358362 C5.8305046,12.5901349 6.8761797,10.6011134 8.48800254,9.34094663 C8.8541129,9.05469809 9.32285561,8.76600749 9.66817551,8.60258775 C9.93633963,8.47560085 10.3949841,8.24697163 11.004178,8.25561783 C12.0140671,8.26994015 12.7771766,8.78481792 13.2114665,9.36959128 C13.5452361,9.81892955 13.7510288,10.3724182 13.757893,10.9733619 C13.758157,10.9552775 15.860371,4.13218679 6.87855576,4.13218679 C3.10639135,4.13218679 -1.17242231e-15,7.71321743 -1.17242231e-15,10.8539652 C-1.17242231e-15,12.8462207 0.462298325,14.4367911 1.04111835,15.6694353 C2.33026641,18.415098 4.72086745,20.5402806 7.64522928,21.476578 C8.70422348,21.8156937 9.83238726,22.0004979 11.004178,22.0004979 C12.2193978,22.0004979 13.3872945,21.8005794 14.4803455,21.4369111 C13.8623734,21.6307575 13.2073084,21.7368219 12.5278229,21.7368219 C11.266996,21.7368219 10.0918392,21.3711736 9.08478817,20.7469313 Z" id="Path" fill="url(#linearGradient-3)"></path>
                                <path d="M7.13087952,18.9099773 C6.31705452,17.7673592 5.8305046,16.3617911 5.8305046,14.8358362 C5.8305046,12.5901349 6.8761797,10.6011134 8.48800254,9.34094663 C8.8541129,9.05469809 9.32285561,8.76600749 9.66817551,8.60258775 C9.93633963,8.47560085 10.3949841,8.24697163 11.004178,8.25561783 C12.0140671,8.26994015 12.7771766,8.78481792 13.2114665,9.36959128 C13.5452361,9.81892955 13.7510288,10.3724182 13.757893,10.9733619 C13.758157,10.9552775 15.860371,4.13218679 6.87855576,4.13218679 C3.10639135,4.13218679 -1.17242231e-15,7.71321743 -1.17242231e-15,10.8539652 C-1.17242231e-15,12.8462207 0.462298325,14.4367911 1.04111835,15.6694353 C2.33026641,18.415098 4.72086745,20.5402806 7.64522928,21.476578 C8.70422348,21.8156937 9.83238726,22.0004979 11.004178,22.0004979 C12.2193978,22.0004979 13.3872945,21.8005794 14.4803455,21.4369111 C13.8623734,21.6307575 13.2073084,21.7368219 12.5278229,21.7368219 C11.266996,21.7368219 10.0918392,21.3711736 9.08478817,20.7469313 C8.3203587,20.2731065 7.65684554,19.6483362 7.13087952,18.9099773 Z" id="Path" fill="url(#radialGradient-4)" opacity="0.41"></path>
                                <path d="M13.0892977,12.7927595 C13.0196661,12.8829176 12.8053592,13.0073964 12.8053592,13.2794546 C12.8053592,13.5032657 12.9514865,13.7192227 13.2112025,13.9004628 C14.4470147,14.7629705 16.776472,14.6467419 16.7826761,14.6467419 C17.7443181,14.6433758 18.6094658,14.3789078 19.3843235,13.9259394 C19.7368376,13.7197507 20.0631491,13.4749511 20.3573178,13.1954347 C21.3668769,12.2361028 21.9824069,10.8841279 21.9995013,9.38206557 C22.0214138,7.45567954 21.3153957,6.17497968 21.025253,5.60790132 C19.2039414,2.04844657 15.2724956,0 10.9978419,0 C4.97225399,0 0.0808591079,4.84234982 0,10.845583 C0.0408489935,7.70509924 3.16203722,5.16914309 6.87221961,5.16914309 C7.17305449,5.16914309 8.88849969,5.19847416 10.4821721,6.03485187 C11.8858922,6.77157391 12.621875,7.66180225 13.1333867,8.54496844 C13.6645008,9.46192739 13.759015,10.6200559 13.759015,11.0818024 C13.759015,11.543549 13.5262277,12.2271926 13.0892977,12.7927595 Z" id="Path" fill="url(#radialGradient-5)"></path>
                                <path d="M13.0892977,12.7927595 C13.0196661,12.8829176 12.8053592,13.0073964 12.8053592,13.2794546 C12.8053592,13.5032657 12.9514865,13.7192227 13.2112025,13.9004628 C14.4470147,14.7629705 16.776472,14.6467419 16.7826761,14.6467419 C17.7443181,14.6433758 18.6094658,14.3789078 19.3843235,13.9259394 C19.7368376,13.7197507 20.0631491,13.4749511 20.3573178,13.1954347 C21.3668769,12.2361028 21.9824069,10.8841279 21.9995013,9.38206557 C22.0214138,7.45567954 21.3153957,6.17497968 21.025253,5.60790132 C19.2039414,2.04844657 15.2724956,0 10.9978419,0 C4.97225399,0 0.0808591079,4.84234982 0,10.845583 C0.0408489935,7.70509924 3.16203722,5.16914309 6.87221961,5.16914309 C7.17305449,5.16914309 8.88849969,5.19847416 10.4821721,6.03485187 C11.8858922,6.77157391 12.621875,7.66180225 13.1333867,8.54496844 C13.6645008,9.46192739 13.759015,10.6200559 13.759015,11.0818024 C13.759015,11.543549 13.5262277,12.2271926 13.0892977,12.7927595 Z" id="Path" fill="url(#radialGradient-6)"></path>
                            </g>
                            <g id="Chrome" transform="translate(14.000000, 0.000000)" fill-rule="nonzero">
                               <g id="Clipped">
                                    <mask id="mask-22" fill="white">
                                        <use xlink:href="#path-21"></use>
                                    </mask>
                                    <g id="Path"></g>
                                    <g id="Group" mask="url(#mask-22)" fill-rule="nonzero">
                                        <g transform="translate(1.705432, 0.000000)" id="Path">
                                            <path d="M9.29401263,5.49560683e-16 C13.5685049,5.49560683e-16 17.2735488,2.43811783 19.0943577,5.99955228 L9.29401263,6 C6.5325712,6 4.29399523,8.23860344 4.29399523,10.9999789 C4.29399523,11.8678793 4.51511515,12.6841018 4.90408635,13.3954501 L4.96401438,13.5 L0.0402468209,13.5 L0.0386694201,5.05286759 C1.99595324,2.01311061 5.40991061,5.49560683e-16 9.29401263,5.49560683e-16 Z" fill="#DB4437"></path>
                                            <path d="M9.29401263,5.49560683e-16 C13.5685049,5.49560683e-16 17.2735488,2.43811783 19.0943577,5.99955228 L9.29401263,6 C6.5325712,6 4.29399523,8.23860344 4.29399523,10.9999789 C4.29399523,11.8678793 4.51511515,12.6841018 4.90408635,13.3954501 L4.96401438,13.5 L0.0402468209,13.5 L0.0386694201,5.05286759 C1.99595324,2.01311061 5.40991061,5.49560683e-16 9.29401263,5.49560683e-16 Z" fill="url(#linearGradient-23)"></path>
                                            <polygon fill-opacity="0.15" fill="#3E2723" points="5.08347444 13.4563022 0.104728854 4.91753452 0.0322278168 5.04253198 4.97470639 13.5175502"></polygon>
                                            <path d="M0.0399630208,5.05626659 L4.51333315,9.52989412 C4.37055527,9.99473236 4.29371143,10.4884126 4.29371143,11.0000449 C4.29371143,11.8678793 4.51483135,12.6841018 4.90382235,13.3954501 L0.0399630208,5.05626659 Z" fill="url(#radialGradient-24)"></path>
                                            <path d="M0.03836582,5.05369259 L4.96295838,13.5000602 C5.83297083,14.992519 7.44422967,16.0000095 9.29421063,16.0000095 C11.0589196,16.0000095 12.6072144,15.082015 13.4966968,13.7005023 L13.6191929,13.5000602 L13.6267169,13.5000602 L13.6267169,13.6249982 C12.7554504,15.118777 11.1441916,16.1250135 9.29546463,16.1250135 C7.52956772,16.1250135 5.98120691,15.2070191 5.09172445,13.8255063 L4.96922838,13.6249982 L4.96421238,13.6249982 L-1.46549515e-15,5.11371302 L0.03836582,5.05369259 Z" fill-opacity="0.1" fill="#FFFFFF"></path>
                                        </g>
                                    </g>
                                </g>
                                <g id="Clipped">
                                    <mask id="mask-26" fill="white">
                                        <use xlink:href="#path-25"></use>
                                    </mask>
                                    <g id="Path"></g>
                                    <g id="Group" mask="url(#mask-26)" fill-rule="nonzero">
                                        <g transform="translate(-0.000000, 5.052564)" id="Path">
                                            <path d="M1.74487327,-1.75859419e-15 L6.66997403,8.44743019 C7.53384848,9.94219897 9.14952932,10.9474455 11.0000383,10.9474455 C12.8504812,10.9474455 14.4661621,9.94219897 15.3307625,8.44802419 L15.3312905,12.0874641 L10.482862,16.9354966 C4.64783858,16.6654905 5.49560683e-16,11.84927 5.49560683e-16,5.94741489 C5.49560683e-16,3.75627975 0.640659693,1.71476669 1.74487327,-1.75859419e-15 Z" fill="#0F9D58"></path>
                                            <path d="M1.74487327,-1.75859419e-15 L6.66997403,8.44743019 C7.53384848,9.94219897 9.14952932,10.9474455 11.0000383,10.9474455 C12.8504812,10.9474455 14.4661621,9.94219897 15.3307625,8.44802419 L15.3312905,12.0874641 L10.482862,16.9354966 C4.64783858,16.6654905 5.49560683e-16,11.84927 5.49560683e-16,5.94741489 C5.49560683e-16,3.75627975 0.640659693,1.71476669 1.74487327,-1.75859419e-15 Z" fill="url(#linearGradient-27)"></path>
                                            <polygon fill-opacity="0.15" fill="#263238" points="15.2305085 8.61375028 15.1267564 8.55375625 10.3279599 16.9475086 10.471708 16.9475086 15.2342045 8.61751228"></polygon>
                                            <polygon fill="url(#radialGradient-28)" points="10.47877 16.9337146 13.0987734 7.15871352 15.3312905 8.44749619"></polygon>
                                            <path d="M15.3747846,8.61368428 C15.7998248,7.8787079 16.0460709,7.02869345 16.0460709,6.11868498 C16.0460709,5.59121271 15.9635709,5.08367244 15.8122988,4.6074162 C15.9310328,5.03496442 15.9998049,5.48369865 15.9998049,5.94866889 C15.9998049,6.85867737 15.7535588,7.70869181 15.3285845,8.44366819 L15.3310925,8.44868419 L10.471048,16.9486966 L10.6160501,16.9486966 L15.3772926,8.61870028 L15.3747846,8.61368428 Z" fill-opacity="0.2" fill="#FFFFFF"></path>
                                        </g>
                                    </g>
                                </g>
                                <g id="Clipped">
                                    <mask id="mask-30" fill="white">
                                        <use xlink:href="#path-29"></use>
                                    </mask>
                                    <g id="Path"></g>
                                    <g id="Group" mask="url(#mask-30)" fill-rule="nonzero">
                                        <g transform="translate(6.000588, 5.874667)" id="Path">
                                            <path d="M14.7996629,0.124390265 C15.5668473,1.62473604 15.9996095,3.32456693 15.9996095,5.12537787 C15.9996095,11.200483 11.074687,16.1254056 4.9995818,16.1254056 C4.82527571,16.1254056 4.65182762,16.1213136 4.47950153,16.1133276 L9.33083405,7.62539317 C9.75633627,6.88916278 9.9996124,6.03565034 9.9996124,5.12537787 C9.9996124,2.36393643 7.76102324,0.125380265 4.9995818,0.125380265 L14.7996629,0.124390265 Z" fill="#FFCD40"></path>
                                            <path d="M14.7996629,0.124390265 C15.5668473,1.62473604 15.9996095,3.32456693 15.9996095,5.12537787 C15.9996095,11.200483 11.074687,16.1254056 4.9995818,16.1254056 C4.82527571,16.1254056 4.65182762,16.1213136 4.47950153,16.1133276 L9.33083405,7.62539317 C9.75633627,6.88916278 9.9996124,6.03565034 9.9996124,5.12537787 C9.9996124,2.36393643 7.76102324,0.125380265 4.9995818,0.125380265 L14.7996629,0.124390265 Z" fill="url(#linearGradient-31)"></path>
                                            <polygon fill="url(#radialGradient-32)" points="5.0003078 0.125360465 5.0003078 2.74409663 14.8002569 0.125360465"></polygon>
                                            <path d="M4.9999778,0.000336600175 L14.7355109,-1.17239612e-15 L14.8000589,0.124350665 L4.9999778,0.125334065 C2.31767041,0.125334065 0.128356867,2.23800836 0.00544500283,4.88995574 L-1.17239612e-15,5.12531187 L-1.17239612e-15,5.0003078 C-1.17239612e-15,2.31800041 2.1126743,0.128693467 4.76462168,0.00578160301 L4.9999778,0.000336600175 Z" fill-opacity="0.2" fill="#3E2723"></path>
                                            <path d="M5.12465186,0.125360465 C5.10339985,0.125360465 5.08340184,0.127855266 5.06214983,0.129109267 C7.79468325,0.162855085 9.9996784,2.38538644 9.9996784,5.12537787 C9.9996784,7.86536929 7.79468325,10.0878544 5.06214983,10.1215805 C5.08340184,10.1215805 5.10339985,10.1253425 5.12465186,10.1253425 C7.8858953,10.1253425 10.1246825,7.8866213 10.1246825,5.12537787 C10.1246825,2.36413443 7.8858953,0.125360465 5.12465186,0.125360465 Z" fill="#3E2723" opacity="0.1"></path>
                                        </g>
                                    </g>
                                </g>
                                <g id="Clipped">
                                    <mask id="mask-34" fill="white">
                                        <use xlink:href="#path-33"></use>
                                    </mask>
                                    <g id="Path"></g>
                                    <g id="Group" mask="url(#mask-34)" fill-rule="nonzero">
                                        <g transform="translate(6.000588, 6.000027)" id="Path">
                                            <path d="M4.9999778,9.999982 C7.76141924,9.999982 10,7.76145884 10,5.0000174 C10,2.23857596 7.76141924,-1.17239612e-15 4.9999778,-1.17239612e-15 C2.23860236,-1.17239612e-15 2.34479225e-15,2.23857596 2.34479225e-15,5.0000174 C2.34479225e-15,7.76145884 2.23860236,9.999982 4.9999778,9.999982 Z" fill="#F1F1F1"></path>
                                            <path d="M5.00030972,9.00001932 C7.20946095,9.00001932 9.00030972,7.20910455 9.00030972,5.00001932 C9.00030972,2.79086425 7.20946095,1.00001932 5.00030972,1.00001932 C2.79115465,1.00001932 1.00030972,2.79086425 1.00030972,5.00001932 C1.00030972,7.20910455 2.79115465,9.00001932 5.00030972,9.00001932 Z" fill="#4285F4"></path>
                                        </g>
                                    </g>
                                </g>
                                <g id="Clipped">
                                    <mask id="mask-36" fill="white">
                                        <use xlink:href="#path-35"></use>
                                    </mask>
                                    <g id="Path"></g>
                                    <path d="M11.0000383,0.125000105 C17.0537594,0.125000105 21.96502,5.01625077 21.998746,11.0624809 C21.998746,11.0412289 22,11.0212309 22,10.9999789 C22,4.92500572 17.0750114,5.49560683e-16 11.0000383,5.49560683e-16 C4.92499912,5.49560683e-16 -6.22835441e-16,4.92500572 -6.22835441e-16,10.9999789 C-6.22835441e-16,11.0212309 0.00125004065,11.0412289 0.00125004065,11.0624809 C0.0350004782,5.01625077 4.94625113,0.125000105 11.0000383,0.125000105 Z" id="Path" fill-opacity="0.2" fill="#FFFFFF" fill-rule="nonzero" mask="url(#mask-36)"></path>
                                </g>
                                <g id="Clipped">
                                    <mask id="mask-38" fill="white">
                                        <use xlink:href="#path-37"></use>
                                    </mask>
                                    <g id="Path"></g>
                                    <path d="M11.0000383,21.8750685 C17.0537594,21.8750685 21.96502,16.983806 21.998746,10.9375428 C21.998746,10.9587949 22,10.9787929 22,11.0000449 C22,17.075018 17.0750114,22.0000726 11.0000383,22.0000726 C4.92499912,22.0000726 -6.22835441e-16,17.075018 -6.22835441e-16,11.0000449 C-6.22835441e-16,10.9787929 0.00125004065,10.9587949 0.00125004065,10.9375428 C0.0350004782,16.983806 4.94625113,21.8750685 11.0000383,21.8750685 Z" id="Path" fill-opacity="0.15" fill="#3E2723" fill-rule="nonzero" mask="url(#mask-38)"></path>
                                </g>
                                <path d="M11.0000383,22 C17.0751434,22 22,17.07515 22,10.9999789 C22,4.92486712 17.0751434,0 11.0000383,0 C4.92486712,0 0,4.92486712 0,10.9999789 C0,17.07515 4.92486712,22 11.0000383,22 Z" id="Path" fill="url(#radialGradient-39)" fill-rule="nonzero"></path>
                            </g>
                        </g>
                    </g>
                </g>
            </g>
        </g>
    </g>
</svg>
