<svg width="24" height="24" viewBox="0 0 24 24" fill="currentColor" xmlns="http://www.w3.org/2000/svg">
  <path id="Subtract" fill-rule="evenodd" clip-rule="evenodd" d="M3.00611 7.58882C3.11561 5.69905 4.68278 4.20034 6.6 4.20034C8.58822 4.20034 10.2 5.81212 10.2 7.80034V16.2003L10.1939 16.4119C10.0844 18.3016 8.51722 19.8003 6.6 19.8003C4.61177 19.8003 3 18.1886 3 16.2003V7.80034L3.00611 7.58882ZM10.6247 4.20001L17.4 4.20034L17.6116 4.20645C19.5013 4.31595 21 5.88313 21 7.80034V16.2003L20.9939 16.4119C20.8844 18.3016 19.3173 19.8003 17.4 19.8003L10.6237 19.8019C11.4795 18.8463 12 17.5841 12 16.2003V7.80034L11.9922 7.50587C11.924 6.23846 11.4189 5.08717 10.6247 4.20001ZM14.2929 11.2929C14.1054 11.4804 14 11.7348 14 12C14 12.2652 14.1054 12.5196 14.2929 12.7071L16.2929 14.7071C16.6834 15.0976 17.3166 15.0976 17.7071 14.7071C18.0976 14.3166 18.0976 13.6834 17.7071 13.2929L16.4142 12L17.7071 10.7071C18.0976 10.3166 18.0976 9.68342 17.7071 9.29289C17.3166 8.90237 16.6834 8.90237 16.2929 9.29289L14.2929 11.2929Z" />
</svg>
