<svg width="24" height="24" viewBox="0 0 24 24" fill="currentColor" xmlns="http://www.w3.org/2000/svg">
  <path fill-rule="evenodd" clip-rule="evenodd" d="M17 4C19.2091 4 21 5.79086 21 8V16C21 18.2091 19.2091 20 17 20H7C4.79086 20 3 18.2091 3 16V8C3 5.79086 4.79086 4 7 4H17ZM11.1227 5.5H17C18.3807 5.5 19.5 6.61929 19.5 8V16C19.5 17.3807 18.3807 18.5 17 18.5H11.1227C11.6716 17.8152 12 16.9459 12 16V8C12 7.05405 11.6716 6.1848 11.1227 5.5ZM8 5.5H7C5.61929 5.5 4.5 6.61929 4.5 8V16C4.5 17.3807 5.61929 18.5 7 18.5H8C9.38071 18.5 10.5 17.3807 10.5 16V8C10.5 6.61929 9.38071 5.5 8 5.5Z" />
  <path fill-rule="evenodd" clip-rule="evenodd" d="M13.75 12C13.75 11.8011 13.829 11.6103 13.9697 11.4697L15.9697 9.46967C16.2626 9.17678 16.7374 9.17678 17.0303 9.46967C17.3232 9.76256 17.3232 10.2374 17.0303 10.5303L15.5607 12L17.0303 13.4697C17.3232 13.7626 17.3232 14.2374 17.0303 14.5303C16.7374 14.8232 16.2626 14.8232 15.9697 14.5303L13.9697 12.5303C13.829 12.3897 13.75 12.1989 13.75 12Z" />
</svg>
