<svg width="69" height="12" xmlns="http://www.w3.org/2000/svg"><g fill="#FFF" fill-rule="evenodd"><g fill-rule="nonzero"><path d="M18.377 5.996l-2.363-2.367 1.18-2.367 3.84 3.846c.488.49.488 1.285 0 1.775l-4.725 4.734a1.25 1.25 0 01-1.771 0 1.257 1.257 0 010-1.774l3.839-3.847z" opacity=".56"/><path d="M14.539.37a1.25 1.25 0 011.77 0l.887.887L6.862 11.613a1.25 1.25 0 01-1.771 0l-.886-.888L14.54.37zm-4.43 3.254L8.34 5.4 5.975 3.032l-2.953 2.96 2.363 2.366-1.18 2.367-3.84-3.846a1.257 1.257 0 010-1.775L5.092.37a1.25 1.25 0 011.771 0l3.248 3.254z"/></g><path d="M26.659 4.066v4.02h2.209l.468 1.34h-2.677c-.738 0-1.336-.6-1.336-1.34v-4.02c0-.74.598-1.34 1.336-1.34h2.209v1.34h.468V1.385c0-.37.3-.67.668-.67h.67v8.042c0 .37-.3.67-.67.67h-.668V4.066h-2.677zm6.687 5.36c-.737 0-1.335-.6-1.335-1.34v-1.34c0-.74.598-1.34 1.335-1.34h2.209v1.34h.468v-2.68h-3.678v-.67c0-.37.299-.67.667-.67h3.011c.739 0 1.338.6 1.338 1.34v4.69c0 .37-.3.67-.67.67h-.668v-2.68h-2.677v1.34h2.209l.468 1.34h-2.677zm5.352 0v-6.03c0-.37.3-.67.668-.67h.668v6.03c0 .37-.3.67-.668.67h-.668zm1.336-8.037a.644.644 0 01-.192.473.64.64 0 01-.472.193.654.654 0 01-.475-.193.637.637 0 01-.197-.473c0-.192.066-.353.197-.481a.654.654 0 01.475-.193.655.655 0 01.663.675zm1.34 8.038V1.385c0-.37.298-.67.667-.67h.668v8.042c0 .37-.3.67-.668.67h-.668zm4.506.002l-1.803-5.671a.673.673 0 01.448-.837l.635-.196 1.472 4.817L47.956 3.2a.662.662 0 01.829-.445l.613.196-2.271 7.537c-.172.564-.69.949-1.278.949h-1.104a.669.669 0 01-.668-.67v-.67h1.11c.368 0 .692-.299.693-.668z"/><path d="M51.577 9.514v-.947h-.971v.947h.971zm2.906.062c.47 0 .87-.118 1.196-.354.327-.236.555-.552.685-.947v1.239h.804v-6.55h-.804v2.93a1.845 1.845 0 00-.685-.947c-.326-.236-.725-.354-1.196-.354-.43 0-.813.1-1.148.301-.336.2-.6.49-.79.867-.192.378-.288.82-.288 1.328 0 .507.096.948.287 1.323.192.375.455.662.79.863.336.2.719.3 1.149.3zm.23-.708c-.495 0-.891-.158-1.188-.474-.298-.315-.446-.75-.446-1.305 0-.555.148-.99.446-1.305.297-.316.693-.474 1.187-.474.318 0 .602.072.853.217.25.144.446.352.587.624.141.271.212.584.212.938s-.07.665-.212.934a1.539 1.539 0 01-.587.624c-.25.147-.535.22-.853.22zm5.881.708c.407 0 .772-.074 1.095-.221a2.04 2.04 0 00.79-.62c.204-.265.335-.566.394-.903h-.857c-.059.33-.22.595-.481.793-.262.197-.587.296-.976.296a1.54 1.54 0 01-1.09-.416c-.298-.277-.456-.693-.473-1.248h3.877c.023-.124.035-.271.035-.442A2.27 2.27 0 0062.63 5.7a2.07 2.07 0 00-.804-.806c-.35-.2-.76-.3-1.232-.3-.465 0-.877.1-1.236.3-.36.2-.64.49-.844.867-.203.378-.304.82-.304 1.328 0 .507.101.948.304 1.323.204.375.485.662.844.863.359.2.771.3 1.236.3zm1.502-2.708h-3.1c.023-.531.185-.934.486-1.208.3-.275.67-.412 1.112-.412.277 0 .533.06.769.177.235.118.42.298.556.54.135.242.194.543.177.903zm4.212 2.646l1.9-4.859h-.866l-1.502 4-1.519-4h-.865l1.899 4.859h.953z" fill-rule="nonzero" opacity=".56"/></g></svg>
