<?xml version="1.0" encoding="UTF-8"?>
<svg width="24px" height="24px" viewBox="0 0 24 24" version="1.1" xmlns="http://www.w3.org/2000/svg" xmlns:xlink="http://www.w3.org/1999/xlink">
    <title>Icon/Upvote/Filled</title>
    <g id="Icon/Upvote/Filled" stroke="none" stroke-width="1" fill="none" fill-rule="evenodd">
        <path d="M13.0264062,4.82946812 C13.1851142,4.94283094 13.3239642,5.08168117 13.437327,5.24038912 L19.3344596,12.976375 C19.6181412,13.3735292 19.5261535,13.9254558 19.1289992,14.2091374 C18.906595,14.3679975 18.6232002,14.4150109 18.3614135,14.3364749 L14.7981318,13.2671604 C14.3306629,13.1268764 13.8379819,13.3921122 13.6976979,13.8595811 C13.6850126,13.9018524 13.6755117,13.9450146 13.669275,13.9887054 L12.9912145,18.738789 C12.9290198,19.1741519 12.5561606,19.497531 12.1163777,19.497531 L11.8818307,19.497531 C11.4420478,19.497531 11.0691886,19.1741519 11.0069939,18.738789 L10.328443,13.9886256 C10.2594246,13.505466 9.81179593,13.1697382 9.32863629,13.2387565 C9.28496471,13.2449949 9.24182155,13.2544946 9.19956866,13.267176 L5.63679488,14.3364749 C5.16931405,14.4767191 4.67665554,14.2114415 4.53641129,13.7439607 C4.45787528,13.482174 4.50488865,13.1987792 4.66374879,12.976375 L10.5608814,5.24038912 C11.1282446,4.44608059 12.2320977,4.26210488 13.0264062,4.82946812 Z" id="Path" fill="#FFFFFF"></path>
    </g>
</svg>