<?xml version="1.0" encoding="UTF-8"?>
<svg width="24px" height="24px" viewBox="0 0 24 24" version="1.1" xmlns="http://www.w3.org/2000/svg" xmlns:xlink="http://www.w3.org/1999/xlink">
    <title>Icon/Upvote/Filled</title>
    <g id="Icon/Upvote/Filled" stroke="none" stroke-width="1" fill="none" fill-rule="evenodd">
        <path d="M13.2344891,3.39529007 C13.4249714,3.5313489 13.5916202,3.69799791 13.727679,3.88848028 L20.8054581,13.1732637 C21.1459348,13.649931 21.0355304,14.312357 20.5588631,14.6528337 C20.2919321,14.8434987 19.9517997,14.8999245 19.6376015,14.805665 L15.3609263,13.5222664 C14.7998669,13.3538966 14.2085477,13.6722344 14.040178,14.2332938 C14.024953,14.2840281 14.0135499,14.3358317 14.0060646,14.3882697 L13.1922517,20.0893527 C13.1176052,20.6118782 12.6700971,21 12.1422666,21 L11.8607616,21 C11.3329312,21 10.885423,20.6118782 10.8107765,20.0893527 L9.99637502,14.3881739 C9.91353873,13.8082824 9.37629168,13.4053395 8.79640015,13.4881758 C8.74398522,13.4956632 8.69220451,13.5070648 8.6414923,13.5222852 L4.36542669,14.805665 C3.80435299,14.9739871 3.21306085,14.655599 3.04473874,14.0945253 C2.95047929,13.7803271 3.00690505,13.4401948 3.19757009,13.1732637 L10.2753492,3.88848028 C10.9563024,2.93514572 12.2811545,2.71433681 13.2344891,3.39529007 Z" id="Path" fill="#FFFFFF"></path>
    </g>
</svg>