<?xml version="1.0" encoding="UTF-8"?>
<svg width="24px" height="24px" viewBox="0 0 24 24" version="1.1" xmlns="http://www.w3.org/2000/svg" xmlns:xlink="http://www.w3.org/1999/xlink">
    <title>Icon/Upvote/Outline</title>
    <g id="Icon/Upvote/Outline" stroke="none" stroke-width="1" fill="none" fill-rule="evenodd">
        <path d="M9.45638472,4.21552972 L3.47082784,12.0670128 C3.01464353,12.7044248 2.88783097,13.4688462 3.09967186,14.1749825 L3.15183557,14.3297234 C3.5885853,15.4936829 4.85938703,16.1357432 6.0678167,15.7732143 L8.94413543,14.9091165 L9.52206772,18.9509076 C9.68983192,20.125257 10.6955722,20.997531 11.8818307,20.997531 L12.1163777,20.997531 L12.2769596,20.9921779 C13.3923358,20.9176092 14.316002,20.0718781 14.4761387,18.9509211 L15.0531354,14.9091165 L17.9302696,15.7731777 C18.636528,15.9850552 19.4009494,15.8582427 20.0008565,15.4297376 C21.0721296,14.6645425 21.3202549,13.1757908 20.5550598,12.1045177 L14.630248,4.33102693 C14.4483549,4.07513058 14.1916647,3.8184402 13.8982635,3.60886791 C12.4822799,2.59745106 10.5341907,2.8775823 9.45638472,4.21552972 Z M13.0264062,4.82946812 C13.1851142,4.94283094 13.3239642,5.08168117 13.437327,5.24038912 L19.3344596,12.976375 C19.6181412,13.3735292 19.5261535,13.9254558 19.1289992,14.2091374 C18.906595,14.3679975 18.6232002,14.4150109 18.3614135,14.3364749 L14.7981318,13.2671604 C14.3306629,13.1268764 13.8379819,13.3921122 13.6976979,13.8595811 C13.6850126,13.9018524 13.6755117,13.9450146 13.669275,13.9887054 L12.9912145,18.738789 C12.9290198,19.1741519 12.5561606,19.497531 12.1163777,19.497531 L11.8818307,19.497531 C11.4420478,19.497531 11.0691886,19.1741519 11.0069939,18.738789 L10.328443,13.9886256 C10.2594246,13.505466 9.81179593,13.1697382 9.32863629,13.2387565 C9.28496471,13.2449949 9.24182155,13.2544946 9.19956866,13.267176 L5.63679488,14.3364749 C5.16931405,14.4767191 4.67665554,14.2114415 4.53641129,13.7439607 C4.45787528,13.482174 4.50488865,13.1987792 4.66374879,12.976375 L10.5608814,5.24038912 C11.1282446,4.44608059 12.2320977,4.26210488 13.0264062,4.82946812 Z" id="Path" fill="#FFFFFF"></path>
    </g>
</svg>