<?xml version="1.0" encoding="UTF-8"?>
<svg width="308px" height="33px" viewBox="0 0 308 33" version="1.1" xmlns="http://www.w3.org/2000/svg" xmlns:xlink="http://www.w3.org/1999/xlink">
    <title>Group 7</title>
    <g id="Notifications" stroke="none" stroke-width="1" fill="none" fill-rule="evenodd">
        <g id="12.-Permission" transform="translate(-788.000000, -593.000000)">
            <g id="Group-8" transform="translate(772.000000, 510.000000)">
                <g id="Group-11" transform="translate(0.000000, 40.000000)">
                    <g id="Group-7" transform="translate(16.000000, 44.551207)">
                        <rect id="Rectangle" stroke="#979797" opacity="0.300000012" x="0.5" y="3.94879263" width="307" height="27" rx="13.5"></rect>
                        <rect id="Rectangle" fill="#BFC0C1" opacity="0.200000003" x="1" y="4.44879263" width="40" height="26" rx="13"></rect>
                        <path id="Path-7" d="M47.7749217,-1.67362202 C53.8560479,2.32948532 57.1682934,6.37032418 57.6609366,10.4756793 L61.1155094,11.7402594 C61.3939464,11.8421651 61.5370533,12.1504938 61.4351476,12.4289309 C61.4065023,12.5071984 61.3600277,12.5777218 61.2994043,12.6349158 L54.8535595,18.716129 C54.6378915,18.9195971 54.2981145,18.909707 54.0946464,18.6940389 C54.0149332,18.609546 53.9647747,18.501478 53.9516999,18.3860557 L52.9542362,9.58065199 C52.9208626,9.2860367 53.1326408,9.02014917 53.4272561,8.98677556 C53.5100713,8.97739437 53.5939334,8.98742355 53.6722009,9.01606885 L56.5901211,10.0841965 C55.926991,6.49336918 52.8200582,2.84473084 47.2250783,-0.83835421 C46.9944255,-0.990189253 46.9305311,-1.30025694 47.0823661,-1.53090978 C47.2342011,-1.76156262 47.5442688,-1.82545706 47.7749217,-1.67362202 Z" transform="translate(52.362658, 8.552172) rotate(-295.000000) translate(-52.362658, -8.552172) " fill="#FFFFFF" fill-rule="nonzero"></path>
                        <rect id="Rectangle" fill="#BFC0C1" opacity="0.200000003" x="58.8547009" y="11.4487926" width="236.75641" height="12" rx="6"></rect>
                        <g id="Icon/Lock/Filled" transform="translate(13.800000, 8.448793)" fill="#A8B3CF">
                            <path d="M7.2473723,0 L7.60865295,0.0149428992 L7.89909361,0.0424629716 C10.4881444,0.365584421 12.4751701,2.53540708 12.5968306,5.14536539 L12.6027386,5.39926878 L12.6066042,8.22371114 C12.8960519,8.34912305 13.0929697,8.47359833 13.2859708,8.62176144 C13.6615769,8.9101066 13.9409909,9.2658445 14.1265035,9.69189124 L14.2002665,9.87571606 L14.2328487,9.9706952 L14.2894396,10.173926 C14.3318439,10.3530382 14.3623754,10.5604998 14.3811383,10.8260567 L14.3980115,11.1745145 L14.4036271,11.5901663 L14.4036271,13.5891224 L14.3980115,14.0047738 L14.3811383,14.3532312 C14.3623754,14.6187881 14.3318439,14.8262503 14.2894396,15.0053626 L14.2328487,15.208593 L14.2002665,15.3035717 L14.1265035,15.4873968 C13.9409909,15.9134435 13.6615769,16.2691811 13.2859708,16.5575263 L13.1221844,16.6761389 C12.9255974,16.809347 12.701975,16.9266092 12.3696726,17.0506116 L11.9683283,17.1870836 L11.4614951,17.3349176 L10.8027203,17.5156747 C8.44920458,18.1614418 5.95442249,18.1614418 3.60090677,17.5156747 L2.94213199,17.3349176 L2.34730492,17.1590793 L2.34730492,17.1590793 L2.0339545,17.0506116 C1.70165205,16.9266092 1.47802963,16.809347 1.28144266,16.6761389 L1.11765622,16.5575263 C0.7420502,16.2691811 0.462636145,15.9134435 0.277123595,15.4873968 L0.20336061,15.3035717 L0.170778401,15.208593 L0.114187507,15.0053626 C0.0717831513,14.8262503 0.0412516886,14.6187881 0.0224887797,14.3532312 L0.00561551721,14.0047738 L0.00140304459,13.8060614 L1.77635684e-15,11.5901663 C1.77635684e-15,11.4391475 0.00186961316,11.3012315 0.00561551721,11.1745145 L0.0224887797,10.8260567 C0.0412516886,10.5604998 0.0717831513,10.3530382 0.114187507,10.173926 L0.170778401,9.9706952 L0.20336061,9.87571606 L0.277123595,9.69189124 C0.462636145,9.2658445 0.7420502,8.9101066 1.11765622,8.62176144 C1.31099794,8.4733369 1.50827004,8.34868387 1.79855586,8.22304729 L1.80261611,5.35492591 L1.81378013,5.01447152 L1.83472125,4.7556609 C2.09036313,2.2869308 4.10568601,0.318023303 6.63004175,0.0327309609 L6.89294653,0.00927225956 L7.1171354,0.000425312565 L7.2473723,0 Z M7.16223103,9.60241804 C6.16786808,9.60241804 5.36177765,10.4085085 5.36177765,11.4028714 C5.36177765,12.0692664 5.72381832,12.6511023 6.26193909,12.9624185 L6.26200434,14.7037029 C6.26200434,15.2008844 6.66504956,15.6039293 7.16223103,15.6039293 C7.62389954,15.6039293 8.00439955,15.2564061 8.05640124,14.8086885 L8.06245772,14.7037029 L8.06342772,12.9618947 C8.6010495,12.65045 8.96268441,12.0688929 8.96268441,11.4028714 C8.96268441,10.4085085 8.15659398,9.60241804 7.16223103,9.60241804 Z M7.18812968,1.79947845 L6.96394082,1.8083254 C5.30072862,1.91780459 3.91807738,3.16223124 3.65367515,4.73426972 L3.62559843,4.94110978 L3.6086677,5.15593173 L3.60249586,5.40037101 L3.60096194,7.65169029 C4.80140079,7.35177245 6.0018497,7.20181353 7.20230866,7.20181353 C8.40276761,7.20181353 9.60321652,7.35183206 10.8036554,7.65186912 L10.8022855,5.40037101 C10.8022855,3.64387458 9.54024536,2.1705879 7.88501068,1.86155753 L7.67612131,1.8290563 L7.44486226,1.80793063 L7.18812968,1.79947845 Z" id="Shape"></path>
                        </g>
                    </g>
                </g>
            </g>
        </g>
    </g>
</svg>