<svg width="24" height="24" viewBox="0 0 24 24" fill="currentColor" xmlns="http://www.w3.org/2000/svg">
  <path fill-rule="evenodd" clip-rule="evenodd" d="M9.29998 3V3.9C9.29998 4.39706 9.70292 4.8 10.2 4.8H13.8C14.297 4.8 14.7 4.39706 14.7 3.9V3H15.6C16.5941 3 17.4 3.80589 17.4 4.8V19.2C17.4 20.1941 16.5941 21 15.6 21H8.39998C7.40586 21 6.59998 20.1941 6.59998 19.2V4.8C6.59998 3.80589 7.40586 3 8.39998 3H9.29998ZM13.8 17.4H10.2C9.70292 17.4 9.29998 17.8029 9.29998 18.3C9.29998 18.7971 9.70292 19.2 10.2 19.2H13.8C14.297 19.2 14.7 18.7971 14.7 18.3C14.7 17.8029 14.297 17.4 13.8 17.4Z" />
</svg>
