<svg width="24" height="24" viewBox="0 0 24 24" fill="currentColor" xmlns="http://www.w3.org/2000/svg">
  <path fill-rule="evenodd" clip-rule="evenodd" d="M15 3C16.5977 3 17.9037 4.24892 17.9949 5.82373L18 6V18C18 19.5977 16.7511 20.9037 15.1763 20.9949L15 21H9C7.40232 21 6.09634 19.7511 6.00509 18.1763L6 18V6C6 4.40232 7.24892 3.09634 8.82373 3.00509L9 3H15ZM9.75 4.5H9C8.2203 4.5 7.57955 5.09489 7.50687 5.85554L7.5 6V18C7.5 18.7797 8.09489 19.4204 8.85554 19.4931L9 19.5H15C15.7797 19.5 16.4204 18.9051 16.4931 18.1445L16.5 18V6C16.5 5.2203 15.9051 4.57955 15.1445 4.50687L15 4.5H14.25V5.25C14.25 5.6297 13.9678 5.94349 13.6018 5.99315L13.5 6H10.5C10.1203 6 9.80651 5.71785 9.75685 5.35177L9.75 5.25V4.5ZM13.5 16.5C13.9142 16.5 14.25 16.8358 14.25 17.25C14.25 17.6297 13.9678 17.9435 13.6018 17.9932L13.5 18H10.5C10.0858 18 9.75 17.6642 9.75 17.25C9.75 16.8703 10.0322 16.5565 10.3982 16.5068L10.5 16.5H13.5Z" />
</svg>
