<?xml version="1.0" encoding="UTF-8"?>
<svg width="204px" height="34px" viewBox="0 0 204 34" version="1.1" xmlns="http://www.w3.org/2000/svg" xmlns:xlink="http://www.w3.org/1999/xlink">
    <title>Group 12</title>
    <g id="Notifications" stroke="none" stroke-width="1" fill="none" fill-rule="evenodd">
        <g id="12.-Permission" transform="translate(-788.000000, -710.000000)">
            <g id="Group-8" transform="translate(772.000000, 510.000000)">
                <g id="Group-9" transform="translate(0.000000, 156.000000)">
                    <g id="Group-12" transform="translate(16.000000, 44.000000)">
                        <rect id="Rectangle" fill="#BFC0C1" opacity="0.200000003" x="0" y="0" width="204" height="34" rx="17"></rect>
                        <g id="Notifications" transform="translate(38.237793, 10.596191)" fill="#A8B3CF" fill-rule="nonzero">
                            <polygon id="Path" points="8.19580078 11.4038086 6.78222656 11.4038086 1.41357422 3.18603516 1.41357422 11.4038086 0 11.4038086 0 0.739746094 1.41357422 0.739746094 6.796875 8.99414062 6.796875 0.739746094 8.19580078 0.739746094"></polygon>
                            <path d="M10.1220703,7.36816406 C10.1220703,6.59179688 10.2746582,5.89355469 10.579834,5.2734375 C10.8850098,4.65332031 11.3098145,4.17480469 11.854248,3.83789062 C12.3986816,3.50097656 13.0200195,3.33251953 13.7182617,3.33251953 C14.7973633,3.33251953 15.670166,3.70605469 16.3366699,4.453125 C17.0031738,5.20019531 17.3364258,6.19384766 17.3364258,7.43408203 L17.3364258,7.52929688 C17.3364258,8.30078125 17.1887207,8.99291992 16.8933105,9.60571289 C16.5979004,10.2185059 16.1755371,10.6958008 15.6262207,11.0375977 C15.0769043,11.3793945 14.4458008,11.550293 13.7329102,11.550293 C12.6586914,11.550293 11.7883301,11.1767578 11.1218262,10.4296875 C10.4553223,9.68261719 10.1220703,8.69384766 10.1220703,7.46337891 L10.1220703,7.36816406 Z M11.484375,7.52929688 C11.484375,8.40820312 11.6882324,9.11376953 12.0959473,9.64599609 C12.5036621,10.1782227 13.0493164,10.4443359 13.7329102,10.4443359 C14.4213867,10.4443359 14.9682617,10.1745605 15.3735352,9.63500977 C15.7788086,9.09545898 15.9814453,8.33984375 15.9814453,7.36816406 C15.9814453,6.49902344 15.7751465,5.79467773 15.3625488,5.25512695 C14.9499512,4.71557617 14.4018555,4.44580078 13.7182617,4.44580078 C13.0493164,4.44580078 12.5097656,4.71191406 12.0996094,5.24414062 C11.6894531,5.77636719 11.484375,6.53808594 11.484375,7.52929688 Z" id="Shape"></path>
                            <path d="M20.8740234,1.56005859 L20.8740234,3.47900391 L22.3535156,3.47900391 L22.3535156,4.52636719 L20.8740234,4.52636719 L20.8740234,9.44091797 C20.8740234,9.75830078 20.9399414,9.99633789 21.0717773,10.1550293 C21.2036133,10.3137207 21.4282227,10.3930664 21.7456055,10.3930664 C21.9018555,10.3930664 22.1166992,10.3637695 22.3901367,10.3051758 L22.3901367,11.4038086 C22.0336914,11.5014648 21.6870117,11.550293 21.3500977,11.550293 C20.7446289,11.550293 20.2880859,11.3671875 19.9804688,11.0009766 C19.6728516,10.6347656 19.519043,10.1147461 19.519043,9.44091797 L19.519043,4.52636719 L18.0761719,4.52636719 L18.0761719,3.47900391 L19.519043,3.47900391 L19.519043,1.56005859 L20.8740234,1.56005859 Z" id="Path"></path>
                            <path d="M25.4077148,11.4038086 L24.0527344,11.4038086 L24.0527344,3.47900391 L25.4077148,3.47900391 L25.4077148,11.4038086 Z M23.9428711,1.37695312 C23.9428711,1.15722656 24.0100098,0.971679688 24.1442871,0.8203125 C24.2785645,0.668945312 24.4775391,0.593261719 24.7412109,0.593261719 C25.0048828,0.593261719 25.2050781,0.668945312 25.3417969,0.8203125 C25.4785156,0.971679688 25.546875,1.15722656 25.546875,1.37695312 C25.546875,1.59667969 25.4785156,1.77978516 25.3417969,1.92626953 C25.2050781,2.07275391 25.0048828,2.14599609 24.7412109,2.14599609 C24.4775391,2.14599609 24.2785645,2.07275391 24.1442871,1.92626953 C24.0100098,1.77978516 23.9428711,1.59667969 23.9428711,1.37695312 Z" id="Shape"></path>
                            <path d="M28.0297852,11.4038086 L28.0297852,4.52636719 L26.7773438,4.52636719 L26.7773438,3.47900391 L28.0297852,3.47900391 L28.0297852,2.80517578 C28.0297852,1.92138672 28.2824707,1.23291016 28.7878418,0.739746094 C29.2932129,0.246582031 30.0073242,0 30.9301758,0 C31.4770508,0 32.1679688,0.148925781 33.0029297,0.446777344 L32.7758789,1.58935547 C32.1655273,1.34521484 31.5844727,1.22314453 31.0327148,1.22314453 C30.4516602,1.22314453 30.032959,1.35375977 29.7766113,1.61499023 C29.5202637,1.8762207 29.3920898,2.26806641 29.3920898,2.79052734 L29.3920898,3.47900391 L31.0107422,3.47900391 L31.0107422,4.52636719 L29.3920898,4.52636719 L29.3920898,11.4038086 L28.0297852,11.4038086 Z M33.6767578,11.4038086 L32.3144531,11.4038086 L32.3144531,3.47900391 L33.6767578,3.47900391 L33.6767578,11.4038086 Z" id="Shape"></path>
                            <path d="M39.0600586,10.4443359 C39.543457,10.4443359 39.9658203,10.2978516 40.3271484,10.0048828 C40.6884766,9.71191406 40.8886719,9.34570312 40.9277344,8.90625 L42.2094727,8.90625 C42.1850586,9.36035156 42.0288086,9.79248047 41.7407227,10.2026367 C41.4526367,10.612793 41.0681152,10.9399414 40.5871582,11.184082 C40.1062012,11.4282227 39.597168,11.550293 39.0600586,11.550293 C37.980957,11.550293 37.1228027,11.1901855 36.4855957,10.4699707 C35.8483887,9.74975586 35.5297852,8.76464844 35.5297852,7.51464844 L35.5297852,7.28759766 C35.5297852,6.51611328 35.6713867,5.83007812 35.9545898,5.22949219 C36.237793,4.62890625 36.6442871,4.16259766 37.1740723,3.83056641 C37.7038574,3.49853516 38.3300781,3.33251953 39.0527344,3.33251953 C39.9414062,3.33251953 40.6799316,3.59863281 41.2683105,4.13085938 C41.8566895,4.66308594 42.1704102,5.35400391 42.2094727,6.20361328 L40.9277344,6.20361328 C40.8886719,5.69091797 40.6945801,5.26977539 40.345459,4.94018555 C39.9963379,4.6105957 39.5654297,4.44580078 39.0527344,4.44580078 C38.3642578,4.44580078 37.8308105,4.69360352 37.4523926,5.18920898 C37.0739746,5.68481445 36.8847656,6.40136719 36.8847656,7.33886719 L36.8847656,7.59521484 C36.8847656,8.50830078 37.0727539,9.21142578 37.4487305,9.70458984 C37.824707,10.1977539 38.3618164,10.4443359 39.0600586,10.4443359 Z" id="Path"></path>
                            <path d="M48.6254883,11.4038086 C48.5473633,11.2475586 48.4838867,10.9692383 48.4350586,10.5688477 C47.8051758,11.2231445 47.0532227,11.550293 46.1791992,11.550293 C45.3979492,11.550293 44.7570801,11.3293457 44.2565918,10.8874512 C43.7561035,10.4455566 43.5058594,9.88525391 43.5058594,9.20654297 C43.5058594,8.38134766 43.8195801,7.74047852 44.4470215,7.28393555 C45.0744629,6.82739258 45.9570312,6.59912109 47.0947266,6.59912109 L48.4130859,6.59912109 L48.4130859,5.9765625 C48.4130859,5.50292969 48.2714844,5.12573242 47.9882812,4.8449707 C47.7050781,4.56420898 47.2875977,4.42382812 46.7358398,4.42382812 C46.2524414,4.42382812 45.847168,4.54589844 45.5200195,4.79003906 C45.1928711,5.03417969 45.0292969,5.32958984 45.0292969,5.67626953 L43.6669922,5.67626953 C43.6669922,5.28076172 43.807373,4.89868164 44.0881348,4.5300293 C44.3688965,4.16137695 44.7497559,3.86962891 45.2307129,3.65478516 C45.7116699,3.43994141 46.2402344,3.33251953 46.8164062,3.33251953 C47.7294922,3.33251953 48.4448242,3.56079102 48.9624023,4.01733398 C49.4799805,4.47387695 49.7485352,5.10253906 49.7680664,5.90332031 L49.7680664,9.55078125 C49.7680664,10.2783203 49.8608398,10.8569336 50.0463867,11.2866211 L50.0463867,11.4038086 L48.6254883,11.4038086 Z M46.3769531,10.3710938 C46.8017578,10.3710938 47.2045898,10.2612305 47.5854492,10.0415039 C47.9663086,9.82177734 48.2421875,9.53613281 48.4130859,9.18457031 L48.4130859,7.55859375 L47.3510742,7.55859375 C45.690918,7.55859375 44.8608398,8.04443359 44.8608398,9.01611328 C44.8608398,9.44091797 45.0024414,9.77294922 45.2856445,10.012207 C45.5688477,10.2514648 45.9326172,10.3710938 46.3769531,10.3710938 Z" id="Shape"></path>
                            <path d="M53.7304688,1.56005859 L53.7304688,3.47900391 L55.2099609,3.47900391 L55.2099609,4.52636719 L53.7304688,4.52636719 L53.7304688,9.44091797 C53.7304688,9.75830078 53.7963867,9.99633789 53.9282227,10.1550293 C54.0600586,10.3137207 54.284668,10.3930664 54.6020508,10.3930664 C54.7583008,10.3930664 54.9731445,10.3637695 55.246582,10.3051758 L55.246582,11.4038086 C54.8901367,11.5014648 54.543457,11.550293 54.206543,11.550293 C53.6010742,11.550293 53.1445312,11.3671875 52.8369141,11.0009766 C52.5292969,10.6347656 52.3754883,10.1147461 52.3754883,9.44091797 L52.3754883,4.52636719 L50.9326172,4.52636719 L50.9326172,3.47900391 L52.3754883,3.47900391 L52.3754883,1.56005859 L53.7304688,1.56005859 Z" id="Path"></path>
                            <path d="M58.2641602,11.4038086 L56.9091797,11.4038086 L56.9091797,3.47900391 L58.2641602,3.47900391 L58.2641602,11.4038086 Z M56.7993164,1.37695312 C56.7993164,1.15722656 56.8664551,0.971679688 57.0007324,0.8203125 C57.1350098,0.668945312 57.3339844,0.593261719 57.5976562,0.593261719 C57.8613281,0.593261719 58.0615234,0.668945312 58.1982422,0.8203125 C58.3349609,0.971679688 58.4033203,1.15722656 58.4033203,1.37695312 C58.4033203,1.59667969 58.3349609,1.77978516 58.1982422,1.92626953 C58.0615234,2.07275391 57.8613281,2.14599609 57.5976562,2.14599609 C57.3339844,2.14599609 57.1350098,2.07275391 57.0007324,1.92626953 C56.8664551,1.77978516 56.7993164,1.59667969 56.7993164,1.37695312 Z" id="Shape"></path>
                            <path d="M60.0732422,7.36816406 C60.0732422,6.59179688 60.2258301,5.89355469 60.5310059,5.2734375 C60.8361816,4.65332031 61.2609863,4.17480469 61.8054199,3.83789062 C62.3498535,3.50097656 62.9711914,3.33251953 63.6694336,3.33251953 C64.7485352,3.33251953 65.6213379,3.70605469 66.2878418,4.453125 C66.9543457,5.20019531 67.2875977,6.19384766 67.2875977,7.43408203 L67.2875977,7.52929688 C67.2875977,8.30078125 67.1398926,8.99291992 66.8444824,9.60571289 C66.5490723,10.2185059 66.126709,10.6958008 65.5773926,11.0375977 C65.0280762,11.3793945 64.3969727,11.550293 63.684082,11.550293 C62.6098633,11.550293 61.739502,11.1767578 61.072998,10.4296875 C60.4064941,9.68261719 60.0732422,8.69384766 60.0732422,7.46337891 L60.0732422,7.36816406 Z M61.4355469,7.52929688 C61.4355469,8.40820312 61.6394043,9.11376953 62.0471191,9.64599609 C62.454834,10.1782227 63.0004883,10.4443359 63.684082,10.4443359 C64.3725586,10.4443359 64.9194336,10.1745605 65.324707,9.63500977 C65.7299805,9.09545898 65.9326172,8.33984375 65.9326172,7.36816406 C65.9326172,6.49902344 65.7263184,5.79467773 65.3137207,5.25512695 C64.901123,4.71557617 64.3530273,4.44580078 63.6694336,4.44580078 C63.0004883,4.44580078 62.4609375,4.71191406 62.0507812,5.24414062 C61.640625,5.77636719 61.4355469,6.53808594 61.4355469,7.52929688 Z" id="Shape"></path>
                            <path d="M70.2685547,3.47900391 L70.3125,4.47509766 C70.9179688,3.71337891 71.7089844,3.33251953 72.6855469,3.33251953 C74.3603516,3.33251953 75.2050781,4.27734375 75.2197266,6.16699219 L75.2197266,11.4038086 L73.8647461,11.4038086 L73.8647461,6.15966797 C73.8598633,5.58837891 73.729248,5.16601562 73.4729004,4.89257812 C73.2165527,4.61914062 72.8173828,4.48242188 72.2753906,4.48242188 C71.8359375,4.48242188 71.4501953,4.59960938 71.1181641,4.83398438 C70.7861328,5.06835938 70.5273438,5.37597656 70.3417969,5.75683594 L70.3417969,11.4038086 L68.9868164,11.4038086 L68.9868164,3.47900391 L70.2685547,3.47900391 Z" id="Path"></path>
                            <path d="M81.8774414,9.30175781 C81.8774414,8.93554688 81.739502,8.65112305 81.463623,8.44848633 C81.1877441,8.24584961 80.7067871,8.07128906 80.020752,7.92480469 C79.3347168,7.77832031 78.7902832,7.60253906 78.3874512,7.39746094 C77.9846191,7.19238281 77.6867676,6.94824219 77.4938965,6.66503906 C77.3010254,6.38183594 77.2045898,6.04492188 77.2045898,5.65429688 C77.2045898,5.00488281 77.479248,4.45556641 78.0285645,4.00634766 C78.5778809,3.55712891 79.2797852,3.33251953 80.1342773,3.33251953 C81.0327148,3.33251953 81.7614746,3.56445312 82.3205566,4.02832031 C82.8796387,4.4921875 83.1591797,5.08544922 83.1591797,5.80810547 L81.796875,5.80810547 C81.796875,5.43701172 81.6394043,5.1171875 81.3244629,4.84863281 C81.0095215,4.58007812 80.612793,4.44580078 80.1342773,4.44580078 C79.6411133,4.44580078 79.2553711,4.55322266 78.9770508,4.76806641 C78.6987305,4.98291016 78.5595703,5.26367188 78.5595703,5.61035156 C78.5595703,5.9375 78.6889648,6.18408203 78.9477539,6.35009766 C79.206543,6.51611328 79.6740723,6.67480469 80.3503418,6.82617188 C81.0266113,6.97753906 81.574707,7.15820312 81.9946289,7.36816406 C82.4145508,7.578125 82.7258301,7.83081055 82.9284668,8.1262207 C83.1311035,8.42163086 83.2324219,8.78173828 83.2324219,9.20654297 C83.2324219,9.91455078 82.9492188,10.4821777 82.3828125,10.9094238 C81.8164062,11.3366699 81.081543,11.550293 80.1782227,11.550293 C79.543457,11.550293 78.9819336,11.4379883 78.4936523,11.2133789 C78.0053711,10.9887695 77.623291,10.6750488 77.3474121,10.2722168 C77.0715332,9.86938477 76.9335938,9.43359375 76.9335938,8.96484375 L78.2885742,8.96484375 C78.3129883,9.41894531 78.494873,9.77905273 78.8342285,10.045166 C79.173584,10.3112793 79.621582,10.4443359 80.1782227,10.4443359 C80.690918,10.4443359 81.1022949,10.3405762 81.4123535,10.1330566 C81.7224121,9.92553711 81.8774414,9.6484375 81.8774414,9.30175781 Z" id="Path"></path>
                        </g>
                        <rect id="Rectangle" fill="#68A6FC" x="147" y="10" width="36" height="14" rx="7"></rect>
                        <rect id="Rectangle" fill="#427EF7" x="168" y="7" width="20" height="20" rx="10"></rect>
                        <g id="Icon/Lock/Filled" transform="translate(13.200000, 8.000000)" fill="#A8B3CF">
                            <path d="M7.8,2.92597533 C7.27607582,2.92597533 6.76823808,2.99487253 6.28504696,3.1241039 L6.1077704,3.17554605 C3.78479422,3.87580447 2.07159369,5.98245194 1.95620409,8.50599606 L1.95,8.77792598 L1.95,12.1480493 C1.95,12.6452714 1.57805195,13.0555913 1.09730193,13.1157753 L0.861294403,13.1299362 C0.376389185,13.1862759 0,13.5985179 0,14.0986996 C0,14.5959216 0.371948054,15.0062415 0.852698072,15.0664255 L0.975,15.0740247 L4.875,15.0740247 L4.87996538,15.245948 C4.96522376,16.7178991 6.13820645,17.8979396 7.60682904,17.9937208 L7.8,18 L7.99231955,17.9937762 C9.45176455,17.8990174 10.6194496,16.7335236 10.7182286,15.2747003 L10.725,15.0740247 L14.625,15.0740247 L14.7473019,15.0664255 C15.2280519,15.0062415 15.6,14.5959216 15.6,14.0986996 C15.6,13.6014776 15.2280519,13.1911576 14.7473019,13.1309736 L14.5112944,13.1168127 C14.066798,13.065168 13.7134851,12.7144665 13.6576864,12.2711076 L13.65,12.1480493 L13.65,8.77792598 L13.645965,8.55853845 C13.5521338,6.01182265 11.8314485,3.88079397 9.49285579,3.17473606 L9.32135754,3.12582076 C8.83625007,2.99548283 8.3262395,2.92597533 7.8,2.92597533 Z M7.8,0 C7.26152237,0 6.825,0.436667925 6.825,0.975325108 C6.825,1.03324978 6.83004788,1.08999507 6.83972759,1.14514478 C6.92006214,1.60284718 7.31942773,1.95065022 7.8,1.95065022 C8.25563492,1.95065022 8.63827228,1.63800632 8.7452226,1.2154756 L8.76740337,1.09766782 L8.775,0.975325108 C8.775,0.436667925 8.33847763,0 7.8,0 Z" id="Shape"></path>
                        </g>
                    </g>
                </g>
            </g>
        </g>
    </g>
</svg>