<svg width="24" height="24" viewBox="0 0 24 24" fill="currentColor" xmlns="http://www.w3.org/2000/svg">
  <path fill-rule="evenodd" clip-rule="evenodd" d="M7.35918 12C9.37894 12.9808 11.0192 14.621 12 16.6408C12.9808 14.621 14.621 12.9808 16.6408 12C14.621 11.0192 12.9808 9.37894 12 7.35918C11.0192 9.37894 9.37894 11.0192 7.35918 12ZM12 2.99998L11 2.99927C10.9968 7.41664 7.41664 10.9968 2.99927 11L2.99998 12L2.99927 13C7.41664 13.0031 10.9968 16.5833 11 21.0007L12 21L13 21.0007C13.0031 16.5833 16.5833 13.0031 21.0007 13L21 12L21.0007 11C16.5833 10.9968 13.0031 7.41664 13 2.99927L12 2.99998Z"/>
</svg>
