<svg width="24" height="24" viewBox="0 0 24 24" fill="currentColor" xmlns="http://www.w3.org/2000/svg">
  <path fill-rule="evenodd" clip-rule="evenodd" d="M6.75152 12C9.11781 12.9884 11.0116 14.8822 12 17.2485C12.9885 14.8822 14.8823 12.9884 17.2486 12C14.8823 11.0115 12.9885 9.11774 12 6.75146C11.0116 9.11774 9.11781 11.0115 6.75152 12ZM12 2.99998L11.25 2.99945C11.2468 7.55476 7.55482 11.2468 2.99951 11.25L3.00004 12L2.99951 12.75C7.55482 12.7532 11.2468 16.4452 11.25 21.0005L12 21L12.75 21.0005C12.7533 16.4452 16.4453 12.7532 21.0006 12.75L21 12L21.0006 11.25C16.4453 11.2468 12.7533 7.55476 12.75 2.99945L12 2.99998Z"/>
</svg>
