<?xml version="1.0" encoding="UTF-8"?>
<svg width="24px" height="24px" viewBox="0 0 24 24" version="1.1" xmlns="http://www.w3.org/2000/svg" xmlns:xlink="http://www.w3.org/1999/xlink">
    <title>Icon/Flag/Filled</title>
    <g id="Icon/Flag/Filled" stroke="none" stroke-width="1" fill="none" fill-rule="evenodd">
        <path d="M5.82866943,3 C6.39678786,3 6.85733885,3.46055099 6.85733885,4.02866943 L6.85733885,4.73849642 C8.31122788,5.44516234 9.91955751,5.62464752 11.4926517,4.562936 L11.9276044,4.25211003 C13.8418944,2.92962019 15.7747001,2.9070347 17.5421121,3.69308541 L17.7621638,3.79551786 L17.9234123,3.88114917 C18.6577766,4.30532613 19.1345724,5.06735541 19.1948813,5.91327506 L19.201372,6.09573504 L19.201372,12.7591463 C19.201372,12.9363739 19.1353212,13.10724 19.0161147,13.2383866 C18.7779053,13.5004559 18.3890839,13.5440709 18.1014256,13.3572235 L17.9479985,13.2380171 L17.7758213,13.1191198 L17.5415978,12.9785652 C17.4536047,12.929155 17.3559042,12.8777113 17.2491298,12.8258105 C15.7979536,12.1204804 14.2165173,12.0898139 12.6482159,13.1579274 L12.2117366,13.470989 C10.3690497,14.7528806 8.77855312,14.6967327 7.07137103,13.9644986 L6.85733885,13.869496 L6.85733885,19.9713316 C6.85733885,20.53945 6.39678786,21 5.82866943,21 C5.26055099,21 4.8,20.53945 4.8,19.9713316 L4.8,4.02866943 C4.8,3.46055099 5.26055099,3 5.82866943,3 Z" id="Path" fill="#FFFFFF"></path>
    </g>
</svg>