<?xml version="1.0" encoding="UTF-8"?>
<svg width="24px" height="24px" viewBox="0 0 24 24" version="1.1" xmlns="http://www.w3.org/2000/svg" xmlns:xlink="http://www.w3.org/1999/xlink">
    <title>Icon/Flag/Outline</title>
    <g id="Icon/Flag/Outline" stroke="none" stroke-width="1" fill="none" fill-rule="evenodd">
        <path d="M7.35714286,3 C6.0553288,3 5,4.0553288 5,5.35714286 L5,18.641429 C5,19.9432434 6.0553291,20.998571 7.35714286,20.998571 L7.51852729,20.993133 C8.74506853,20.9101991 9.71428571,19.8890011 9.71428571,18.641429 L9.714,15.535 L9.76146845,15.5414411 C11.0484736,15.6677683 12.283803,15.3249937 13.5324656,14.4563436 L13.913799,14.1830263 C14.663564,13.6729242 15.3960832,13.6372067 16.2175748,14.0364847 C16.3284144,14.0903616 16.4249956,14.1445943 16.4998538,14.1928151 L16.6032721,14.2651697 L16.6631598,14.3146963 L16.7663842,14.3881236 C17.6228645,14.944447 18.7627339,14.8023892 19.4556183,14.0401032 C19.8059087,13.6547266 20,13.1526336 20,12.6318471 L20,7.07953344 L19.9936435,6.87417234 C19.905139,5.61939305 19.2283861,4.5377762 18.1853891,3.93532961 L18.0043025,3.83808619 L17.7504319,3.71763019 C15.6836588,2.7981972 13.5338586,2.96386483 11.5865049,4.30919679 L11.2045509,4.58191544 L11.0666024,4.66827011 C10.6506336,4.90884474 10.2144825,4.98316709 9.72921878,4.89533981 L9.666,4.882 L9.63008629,4.73052091 C9.35566263,3.73286722 8.4419879,3 7.35714286,3 Z M7.35714286,4.5 C7.83052979,4.5 8.21428571,4.88375593 8.21428571,5.35714286 L8.21428571,5.948609 C9.42574448,6.53744117 10.7658915,6.6869979 12.0766784,5.80232259 L12.4391045,5.54332562 C14.0341942,4.44135575 15.6447121,4.4225363 17.1174151,5.07751616 L17.3007742,5.1628684 L17.435135,5.23422102 C18.047047,5.58766815 18.444339,6.22263205 18.4945917,6.92749794 L18.5,7.07953344 L18.5,12.6318471 C18.5,12.7795228 18.444963,12.9218976 18.3456337,13.0311761 C18.1471447,13.2495463 17.8231578,13.2858886 17.5834654,13.1301973 L17.4556216,13.0308681 L17.3121543,12.9317965 L17.1169867,12.8146788 C17.0436661,12.7735075 16.9622567,12.7306419 16.8732865,12.6873953 C15.6640882,12.0996763 14.3463502,12.0741233 13.0395569,12.9641331 L12.6758588,13.2249929 C11.1404326,14.2931341 9.81514508,14.2463487 8.39262887,13.6362117 L8.21428571,13.5570504 L8.21428571,18.641429 C8.21428571,19.1148159 7.83052979,19.498571 7.35714286,19.498571 C6.88375593,19.498571 6.5,19.1148159 6.5,18.641429 L6.5,5.35714286 C6.5,4.88375593 6.88375593,4.5 7.35714286,4.5 Z" id="Path" fill="#FFFFFF"></path>
    </g>
</svg>