<svg width="56" height="113" viewBox="0 0 56 113" fill="none" xmlns="http://www.w3.org/2000/svg">
<path fill-rule="evenodd" clip-rule="evenodd" d="M24.6723 1.37838C26.3789 -0.328187 29.07 -0.450082 30.9172 1.01269L31.3277 1.37838L54.6216 24.6723C56.4595 26.5101 56.4595 29.4899 54.6216 31.3277C52.9151 33.0343 50.2239 33.1562 48.3767 31.6934L47.9662 31.3277L32.6965 16.0624L32.7061 107.561C32.7061 109.76 31.1975 111.607 29.1587 112.123L28.5903 112.23L28 112.267C25.6008 112.267 23.621 110.472 23.3306 108.151L23.2939 107.561L23.2891 16.0657L8.03378 31.3277C6.45849 32.903 4.04427 33.128 2.22928 32.0028L1.78885 31.6934L1.37838 31.3277C-0.328185 29.6211 -0.450083 26.93 1.01269 25.0828L1.37838 24.6723L24.6723 1.37838Z" fill="white"/>
</svg>
