<svg width="24" height="24" viewBox="0 0 24 24" fill="none" xmlns="http://www.w3.org/2000/svg">
  <g id="Filled=yes">
    <path id="Shape" fill-rule="evenodd" clip-rule="evenodd" d="M11.3431 4.03668L11.2342 4.12972L5.77781 9.58508C5.34679 10.0161 5.34679 10.7149 5.77781 11.1459C6.16592 11.534 6.77838 11.5766 7.21511 11.2526L7.32402 11.1595L10.8934 7.59003L10.9038 10.6123L10.8892 11.4461C10.612 15.2037 7.73983 18.0244 4.07908 18.0244C3.48312 18.0244 3 18.5075 3 19.1035C3 19.7 3.48363 20.1829 4.08124 20.1829C6.35662 20.1888 8.34822 19.3532 10.1032 17.7188L10.3503 17.4797L10.6094 17.2117L10.861 16.9294L11.1004 16.6377L11.3276 16.3368L11.9973 15.3634L12.699 16.3732C14.4896 18.8192 17.02 20.1796 19.9199 20.1829C20.5166 20.1829 21 19.6997 21 19.1035C21 18.5592 20.596 18.1055 20.0544 18.034L19.9236 18.0248L19.6328 18.0186L19.376 18.0039C15.9171 17.7438 13.3363 14.9612 13.1054 11.3472L13.0936 10.5486L13.1035 7.58785L16.6614 11.1459C17.0924 11.5769 17.7912 11.5769 18.2222 11.1459C18.6103 10.7578 18.6529 10.1453 18.3288 9.70862L18.2358 9.59971L12.7804 4.14331C12.3923 3.7552 11.7798 3.71263 11.3431 4.03668Z" fill="currentColor"/>
  </g>
</svg>
