<svg width="24" height="24" viewBox="0 0 24 24" fill="none" xmlns="http://www.w3.org/2000/svg">
  <g id="Filled=no">
    <path id="Shape" fill-rule="evenodd" clip-rule="evenodd" d="M4 19.2606C4 19.6689 4.33104 20 4.74119 20C6.8248 20.0055 8.57919 19.2164 10.0912 17.8082L10.3143 17.5924L10.5458 17.3526L10.7696 17.1013L10.9825 16.8416L11.1844 16.5738L11.9978 15.3938L12.8465 16.615C14.4002 18.7372 16.6252 19.9971 19.261 20C19.6698 20 20.0009 19.669 20.0009 19.2606C20.0009 18.8863 19.7228 18.5771 19.3513 18.528L19.2478 18.5212L18.9924 18.516L18.748 18.5021C15.3871 18.2494 12.9797 15.5384 12.7643 12.1662L12.7532 11.9298L12.7649 6.60349L16.4504 10.289C16.7478 10.5865 17.2302 10.5865 17.5277 10.289C17.7981 10.0185 17.8227 9.59533 17.6014 9.29711L17.5277 9.21167L12.5391 4.22311C12.2686 3.95267 11.8455 3.92809 11.5472 4.14936L11.4618 4.22311L6.47324 9.21167C6.17575 9.50916 6.17575 9.99148 6.47324 10.289C6.74368 10.5594 7.16688 10.584 7.46509 10.3627L7.55053 10.289L11.2345 6.60497L11.2455 11.9757L11.2319 12.2532C10.9722 15.7733 8.28421 18.5214 4.73921 18.5214C4.33095 18.5214 4 18.8523 4 19.2606Z" fill="currentColor"/>
  </g>
</svg>
