<?xml version="1.0" encoding="UTF-8"?>
<svg width="24px" height="24px" viewBox="0 0 24 24" version="1.1" xmlns="http://www.w3.org/2000/svg" xmlns:xlink="http://www.w3.org/1999/xlink">
    <title>Icon/Terminal/Filled</title>
    <g id="Icon/Terminal/Filled" stroke="none" stroke-width="1" fill="none" fill-rule="evenodd">
        <path d="M17.4,4.2 C19.3882251,4.2 21,5.8117749 21,7.8 L21,16.2 C21,18.1882251 19.3882251,19.8 17.4,19.8 L6.6,19.8 C4.6117749,19.8 3,18.1882251 3,16.2 L3,7.8 C3,5.8117749 4.6117749,4.2 6.6,4.2 L17.4,4.2 Z M16.5006956,15 L13.7993044,15 C13.3026323,15 12.9,15.4026323 12.9,15.8993044 C12.9,16.3959766 13.3026323,16.7986089 13.7993044,16.7986089 L16.5006956,16.7986089 C16.9973677,16.7986089 17.4,16.3959766 17.4,15.8993044 C17.4,15.4026323 16.9973677,15 16.5006956,15 Z M7.23590427,9.11851097 C6.88470404,9.46971121 6.88470404,10.0391193 7.23590427,10.3903195 L9.14558441,12.2999997 L7.23590427,14.2096798 C6.88470404,14.56088 6.88470404,15.1302881 7.23590427,15.4814883 C7.58714425,15.8327283 8.15658283,15.8328383 8.5079585,15.4817341 L11.0542818,12.9359037 C11.4054818,12.5841601 11.405041,12.0143118 11.0532974,11.6631119 L8.50771282,9.11851097 C8.15651259,8.76731074 7.58710451,8.76731074 7.23590427,9.11851097 Z" id="Shape" fill="#FFFFFF"></path>
    </g>
</svg>