<?xml version="1.0" encoding="UTF-8"?>
<svg width="24px" height="24px" viewBox="0 0 24 24" version="1.1" xmlns="http://www.w3.org/2000/svg" xmlns:xlink="http://www.w3.org/1999/xlink">
    <title>Icon/Terminal/Outline</title>
    <g id="Icon/Terminal/Outline" stroke="none" stroke-width="1" fill="none" fill-rule="evenodd">
        <path d="M16.5,4 C18.9142733,4 20.8844891,5.90123652 20.995102,8.2881643 L21,8.5 L21,15.5 C21,17.9142733 19.0987635,19.8844891 16.7118357,19.995102 L16.5,20 L7.5,20 C5.08572667,20 3.11551091,18.0987635 3.00489799,15.7118357 L3,15.5 L3,8.5 C3,6.08572667 4.90123652,4.11551091 7.2881643,4.00489799 L7.5,4 L16.5,4 Z M16.5,5.5 L7.5,5.5 C5.90231912,5.5 4.59633912,6.74891996 4.50509269,8.32372721 L4.5,8.5 L4.5,15.5 C4.5,17.0976809 5.74891996,18.4036609 7.32372721,18.4949073 L7.5,18.5 L16.5,18.5 C18.0976809,18.5 19.4036609,17.25108 19.4949073,15.6762728 L19.5,15.5 L19.5,8.5 C19.5,6.90231912 18.25108,5.59633912 16.6762728,5.50509269 L16.5,5.5 Z M15.7505796,14.5 C16.1644731,14.5 16.5,14.8355269 16.5,15.2494204 C16.5,15.6288227 16.2180642,15.9423754 15.8522715,15.9919994 L15.7505796,15.9988407 L13.4994204,15.9988407 C13.0855269,15.9988407 12.75,15.6633138 12.75,15.2494204 C12.75,14.8700181 13.0319358,14.5564654 13.3977285,14.5068413 L13.4994204,14.5 L15.7505796,14.5 Z M8.02992023,9.59875915 C8.29598101,9.33269836 8.71232268,9.30851102 9.00570726,9.52619711 L9.08976069,9.59875915 L11.2110812,11.7192599 C11.4775536,11.9853205 11.5020819,12.4019653 11.2844546,12.6957452 L11.2119015,12.7799198 L9.08996542,14.9014451 C8.79715236,15.194032 8.32262021,15.1939403 8.02992023,14.9012403 C7.76385945,14.6351795 7.7396721,14.2188378 7.9573582,13.9254533 L8.02992023,13.8413998 L9.62132034,12.2499997 L8.02992023,10.6585996 C7.73725337,10.3659327 7.73725337,9.89142601 8.02992023,9.59875915 Z" id="Shape" fill="#FFFFFF"></path>
    </g>
</svg>