<svg width="24" height="24" fill="currentColor" viewBox="0 0 24 24"
     xmlns="http://www.w3.org/2000/svg">
  <path
    d="M14.5235 3.90342C13.9179 3.33817 12.9687 3.3709 12.4034 3.97653C11.8382 4.58215 11.8709 5.53134 12.4765 6.09659L17.1945 10.5H3C2.17157 10.5 1.5 11.1716 1.5 12C1.5 12.8284 2.17157 13.5 3 13.5H17.1945L12.4765 17.9034C11.8709 18.4687 11.8382 19.4179 12.4034 20.0235C12.9687 20.6291 13.9179 20.6618 14.5235 20.0966L22.0235 13.0966C22.3274 12.8129 22.5 12.4158 22.5 12C22.5 11.5842 22.3274 11.1871 22.0235 10.9034L14.5235 3.90342Z"/>
</svg>
