<svg width="24" height="24" fill="currentColor" viewBox="0 0 24 24"
     xmlns="http://www.w3.org/2000/svg">
  <path
    d="M14.1823 4.26895C13.7786 3.89211 13.1458 3.91393 12.7689 4.31769C12.3921 4.72144 12.4139 5.35422 12.8177 5.73106L18.463 11H3C2.44772 11 2 11.4477 2 12C2 12.5523 2.44772 13 3 13H18.463L12.8177 18.2689C12.4139 18.6458 12.3921 19.2786 12.7689 19.6823C13.1458 20.0861 13.7786 20.1079 14.1823 19.7311L21.6823 12.7311C21.885 12.5419 22 12.2772 22 12C22 11.7228 21.885 11.4581 21.6823 11.2689L14.1823 4.26895Z"/>
</svg>
