<svg width="24" height="24" viewBox="0 0 24 24" fill="currentColor" xmlns="http://www.w3.org/2000/svg">
  <g transform="translate(4.2 3)">
    <path fill-rule="evenodd" clip-rule="evenodd" d="M0.960985 6.90756L0.861869 6.90608C0.336722 6.92623 -0.121511 7.39672 0.0290443 8.40999C0.370158 10.7057 1.55464 12.8575 3.45052 14.3729L3.75576 14.6068L3.72487 14.6548L2.6981 16.4333C2.40959 16.933 2.58081 17.5719 3.08051 17.8604C3.23427 17.9492 3.40121 17.9945 3.56707 18L3.69104 17.9968C3.97291 17.9727 4.24113 17.8347 4.42381 17.6021L4.50769 17.478L5.54865 15.674L5.56079 15.6489C6.76314 16.1769 8.02939 16.4332 9.28319 16.4385L9.65888 16.4325C10.7844 16.3922 11.8936 16.1501 12.9309 15.7211C14.4522 15.092 13.7965 13.8508 12.7243 13.7421L12.6079 13.7348C12.4606 13.7314 12.307 13.7494 12.1513 13.793L11.995 13.8453L11.7206 13.9462C11.076 14.1687 10.4017 14.3012 9.71825 14.338L9.37588 14.3485C8.11845 14.3574 6.84212 14.0418 5.67443 13.3676C3.66372 12.2067 2.41281 10.2352 2.09617 8.10422C1.98639 7.36538 1.45917 6.94111 0.960985 6.90756ZM12.9878 0.700478L12.7472 0.569667L12.5232 0.461891L12.3956 0.4062L12.2029 0.329641L11.9877 0.254321L11.8527 0.212415L11.5385 0.130147L11.2463 0.0721365L10.9663 0.0326835L10.6832 0.00844783L10.4325 0L10.1028 0.00705841L9.88389 0.0234207L9.665 0.0489686L9.44759 0.0836475L9.23197 0.127376L8.94186 0.201299C8.74992 0.256074 8.56106 0.321793 8.37631 0.398181L8.10239 0.52073L7.86022 0.645387L7.69207 0.741656L7.52728 0.844328L7.273 1.02021L9.61107 2.3701L9.71308 2.43711L9.8119 2.52056C10.1516 2.84569 10.2391 3.37194 9.99348 3.79728C9.8413 4.06086 9.59162 4.23305 9.31629 4.29458L9.17683 4.31603L9.05286 4.31926L8.92848 4.30759L8.80504 4.28068L8.68387 4.23817L8.5663 4.17969L5.85198 2.61258L4.80721 4.42217L7.52153 5.98928L7.62354 6.05629L7.72236 6.13975C8.06201 6.46488 8.14952 6.99112 7.90394 7.41647C7.75177 7.68005 7.50208 7.85223 7.22675 7.91376L7.08729 7.93522L6.96332 7.93844L6.83894 7.92678L6.7155 7.89987L6.59433 7.85736L6.47676 7.79888L4.13861 6.44974L4.11918 6.66284L4.10854 6.87594L4.10663 7.08878L4.11182 7.26693L4.13018 7.52703L4.15687 7.75463L4.20132 8.02175L4.25756 8.27845L4.32909 8.54048L4.42951 8.841L4.54801 9.13521C4.97932 10.1192 5.71717 10.9795 6.7192 11.558C7.45951 11.9855 8.26094 12.2111 9.05982 12.2521L9.35915 12.2589L9.60336 12.2514L9.88776 12.2285C11.305 12.0755 12.6428 11.3461 13.5325 10.1392L13.7044 9.89147L13.8551 9.64598L14.8999 7.83638L15.0212 7.61418C16.251 5.2284 15.4656 2.29068 13.2106 0.836505L12.9878 0.700478Z" />
  </g>
</svg>
