<svg width="24" height="24" viewBox="0 0 24 24" fill="currentColor" xmlns="http://www.w3.org/2000/svg">
  <g transform="translate(4 3)">
    <path fill-rule="evenodd" clip-rule="evenodd" d="M13.0701 0.784195C15.8014 2.3611 16.781 5.80673 15.3263 8.57345L15.2126 8.77964L14.342 10.2876C14.0231 10.8399 13.6278 11.3205 13.1772 11.7239C13.5739 11.918 13.917 12.2119 14.1623 12.5899C14.9929 13.8698 14.349 15.3646 12.846 15.9862C11.1317 16.6951 9.25414 16.8779 7.45092 16.519L7.09134 16.44L6.81049 16.3664L6.55279 16.814C5.95509 17.8493 4.69446 18.2632 3.6167 17.829L3.46407 17.7612L3.31448 17.6817C2.22994 17.0556 1.82734 15.7018 2.36728 14.593L2.44678 14.4434L2.70449 13.9964L2.52445 13.8141C1.35002 12.5867 0.535412 11.0611 0.163695 9.40345L0.0908509 9.04629L0.0379804 8.72808C-0.19693 7.14709 0.675826 5.8124 2.15818 5.75552C2.66341 5.73614 3.14173 5.87968 3.54718 6.14425C3.64989 5.65688 3.81812 5.17469 4.05428 4.71064L4.20415 4.43449L5.07476 2.92655L5.19648 2.72501C5.58315 2.11255 6.06673 1.59505 6.61553 1.181L6.80666 1.04332L7.02774 0.896969L7.24083 0.769483L7.40536 0.679212L7.65512 0.554834C7.92887 0.426076 8.21087 0.319602 8.49845 0.235443L8.76802 0.163974L8.94819 0.122995L9.18145 0.0794555L9.45369 0.0404903L9.78416 0.0104496L10.0638 0L10.3128 0.00183868L10.5395 0.01274C10.8288 0.0316661 11.1181 0.0726241 11.4051 0.135999L11.7525 0.224796L11.835 0.248457L12.0596 0.321449L12.2832 0.404331L12.4199 0.460462L12.7222 0.598428L12.9661 0.725497L13.0701 0.784195ZM2.29828 7.25565L2.21568 7.25442C1.77808 7.27121 1.39623 7.66327 1.52169 8.50763C1.80594 10.4207 2.79297 12.2138 4.37281 13.4765L4.62717 13.6714L4.60142 13.7115L3.74582 15.1934C3.50541 15.6098 3.64808 16.1423 4.06448 16.3827C4.19261 16.4567 4.33172 16.4944 4.46993 16.499L4.57323 16.4963C4.80812 16.4762 5.03162 16.3612 5.18385 16.1674L5.25375 16.064L6.12118 14.5607L6.1313 14.5398C7.13322 14.9798 8.18839 15.1934 9.23318 15.1978L9.54624 15.1928C10.4841 15.1592 11.4084 14.9575 12.2728 14.6C13.5406 14.0758 12.9941 13.0415 12.1007 12.9509L12.0037 12.9448C11.8809 12.942 11.7529 12.957 11.6231 12.9933L11.4929 13.0369L11.2643 13.1209C10.7272 13.3064 10.1652 13.4168 9.59571 13.4475L9.31041 13.4562C8.2626 13.4636 7.19903 13.2006 6.226 12.6388C4.55047 11.6715 3.50808 10.0286 3.24423 8.25283C3.15275 7.63716 2.71341 7.28361 2.29828 7.25565ZM12.3202 2.08329L12.1197 1.97428L11.9331 1.88447L11.8267 1.83807L11.6662 1.77427L11.4869 1.71151L11.3744 1.67659L11.1125 1.60803L10.869 1.55969L10.6357 1.52681L10.3998 1.50662L10.1909 1.49958L9.91619 1.50546L9.73374 1.5191L9.55134 1.54039L9.37017 1.56928L9.19049 1.60572L8.94875 1.66732C8.7888 1.71297 8.63143 1.76773 8.47747 1.83138L8.24922 1.9335L8.04741 2.03738L7.9073 2.1176L7.76997 2.20316L7.55808 2.34973L9.5064 3.47458L9.5914 3.53042L9.67375 3.59997C9.95678 3.87089 10.0297 4.30942 9.82506 4.66386C9.69825 4.8835 9.49019 5.02698 9.26076 5.07825L9.14454 5.09613L9.04124 5.09882L8.9376 5.0891L8.83473 5.06668L8.73376 5.03125L8.63579 4.98252L6.37395 3.67664L5.50334 5.18458L7.76519 6.49045L7.85019 6.54629L7.93254 6.61584C8.21557 6.88676 8.28849 7.32529 8.08385 7.67973C7.95704 7.89937 7.74898 8.04285 7.51955 8.09412L7.40333 8.112L7.30003 8.11469L7.19639 8.10497L7.09352 8.08255L6.99255 8.04712L6.89458 7.99839L4.9462 6.87415L4.93 7.05172L4.92114 7.2293L4.91955 7.40666L4.92387 7.55512L4.93917 7.77185L4.96141 7.96152L4.99845 8.18411L5.04531 8.39802L5.10492 8.61637L5.18861 8.86679L5.28735 9.11195C5.64676 9.93187 6.26161 10.6488 7.0966 11.1309C7.7135 11.4871 8.38134 11.6751 9.04704 11.7093L9.29647 11.7149L9.49997 11.7087L9.73697 11.6896C10.918 11.5621 12.0327 10.9543 12.7741 9.94858L12.9173 9.74215L13.043 9.53758L13.9136 8.02964L14.0147 7.84448C15.0394 5.85641 14.385 3.40841 12.5059 2.19664L12.3202 2.08329Z" />
  </g>
</svg>
