<svg width="16" height="17" viewBox="0 0 16 17" fill="none" xmlns="http://www.w3.org/2000/svg">
  <g id="Shapes/&#60;Reputation&#62;">
    <path id="rep icon" fill-rule="evenodd" clip-rule="evenodd" d="M7.99984 13.6046C10.9454 13.6046 13.3332 11.2168 13.3332 8.27129C13.3332 5.32577 10.9454 2.93796 7.99984 2.93796C5.05432 2.93796 2.6665 5.32577 2.6665 8.27129C2.6665 11.2168 5.05432 13.6046 7.99984 13.6046ZM9.21289 4.93343C9.27838 4.75324 9.23363 4.55141 9.09814 4.41583C8.90554 4.22311 8.59328 4.22311 8.40068 4.41583L4.94433 7.92234C4.85185 8.01489 4.79989 8.14041 4.79989 8.27129C4.79989 8.54384 5.02069 8.76478 5.29306 8.76478H7.82055L6.78688 11.6092C6.7214 11.7893 6.76614 11.9912 6.90163 12.1268C7.09423 12.3195 7.4065 12.3195 7.59909 12.1268L11.0554 8.62024C11.1479 8.52769 11.1999 8.40217 11.1999 8.27129C11.1999 7.99874 10.9791 7.7778 10.7067 7.7778H8.17922L9.21289 4.93343Z" fill="#FFFFFF"/>
  </g>
</svg>
