<svg width="24" height="24" viewBox="0 0 24 24" fill="none" xmlns="http://www.w3.org/2000/svg">
  <g id="Filled=no">
    <path id="rep icon" d="M12 3C16.9706 3 21 7.02944 21 12C21 16.9706 16.9706 21 12 21C7.02944 21 3 16.9706 3 12C3 7.02944 7.02944 3 12 3ZM12 4.5C7.85786 4.5 4.5 7.85786 4.5 12C4.5 16.1421 7.85786 19.5 12 19.5C16.1421 19.5 19.5 16.1421 19.5 12C19.5 7.85786 16.1421 4.5 12 4.5Z" fill="currentColor"/>
    <path id="Shape" fill-rule="evenodd" clip-rule="evenodd" d="M13.6475 6.21681C13.8507 6.42017 13.9178 6.72292 13.8196 6.9932L12.2691 11.2598H16.0603C16.4689 11.2598 16.8001 11.5912 16.8001 12C16.8001 12.1963 16.7221 12.3846 16.5834 12.5234L11.3989 17.7832C11.11 18.0723 10.6416 18.0723 10.3527 17.7832C10.1495 17.5798 10.0823 17.2771 10.1806 17.0068L11.7311 12.7402H7.93984C7.53128 12.7402 7.20007 12.4088 7.20007 12C7.20007 11.8037 7.27801 11.6154 7.41675 11.4766L12.6013 6.21681C12.8902 5.92773 13.3586 5.92773 13.6475 6.21681Z" fill="currentColor"/>
  </g>
</svg>
