<svg height="24" viewBox="0 0 24 24" width="24" xmlns="http://www.w3.org/2000/svg"><path d="m7 7c.55228475 0 1 .44771525 1 1s-.44771525 1-1 1h-.84615385c-.55228475 0-1 .44771525-1 1v8c0 .5522847.44771525 1 1 1h6.69230765c.5522848 0 1-.4477153 1-1s.4477153-1 1-1h.0769231c.5947682 0 1.0769231.4821549 1.0769231 1.0769231v.919713c0 1.1028788-.8937572 1.9970987-1.9966359 1.9976695l-9.00336437.0046594c-1.10456881.0016064-2.0004626-.8933606-2.00103423-1.99793-.00000018-.000345-.00000027-.00069.0010345-.001035v-10c0-1.1045695.8954305-2 2-2zm12-4c1.1045695 0 2 .8954305 2 2v9c0 1.1045695-.8954305 2-2 2h-8c-1.1045695 0-2-.8954305-2-2v-9c0-1.1045695.8954305-2 2-2z" fill="#fff" fill-rule="evenodd"/></svg>