<svg height="24" viewBox="0 0 24 24" width="24" xmlns="http://www.w3.org/2000/svg"><path d="m14.8628406 2c-2.9326237 0-4.8278139 1.93189975-4.8278139 4.92202699v2.26938401h-2.62457666c-.22679459 0-.41045004.18268261-.41045004.4080189v3.2880788c0 .2253363.18386486.4078108.41045004.4078108h2.62457666v8.2968697c0 .2253363.1836555.4078108.4104501.4078108h3.424326c.2267946 0 .41045-.1826826.41045-.4078108v-8.2968697h3.0687423c.2267946 0 .41045-.1824745.41045-.4078108l.0012565-3.2880788c0-.10819471-.0433485-.21181195-.1202032-.28838052-.0768547-.07656856-.1815613-.11963838-.2904562-.11963838h-3.0697894v-1.92378515c0-.92464862.2217687-1.39404721 1.4340622-1.39404721l1.7584433-.0006242c.2265852 0 .4102407-.1826826.4102407-.40781082v-3.05317146c0-.22492015-.1834461-.40739469-.4098218-.40781083z" fill="#fff" fill-rule="evenodd"/></svg>
