<svg height="24" viewBox="0 0 24 24" width="24" xmlns="http://www.w3.org/2000/svg"><path d="m14.0765565 3c-2.6393612 0-4.34503245 1.73870978-4.34503245 4.42982429v2.04244561h-2.36211902c-.20411512 0-.36940503.16441435-.36940503.36721701v2.95927089c0 .2028027.16547838.3670298.36940503.3670298h2.36211902v7.4671827c0 .2028026.16528991.3670297.36940505.3670297h3.0818934c.2041151 0 .369405-.1644143.369405-.3670297v-7.4671827h2.7618681c.2041151 0 .369405-.1642271.369405-.3670298l.0011308-2.95927089c0-.09737524-.0390137-.19063076-.1081829-.25954246-.0691692-.06891171-.1634051-.10767455-.2614106-.10767455h-2.7628104v-1.73140663c0-.83218377.1995918-1.25464249 1.290656-1.25464249l1.582599-.00056178c.2039267 0 .3692166-.16441434.3692166-.36702974v-2.74785432c0-.20242813-.1651015-.36665522-.3688397-.36702974z" fill="#3b5998" fill-rule="evenodd"/></svg>