<?xml version="1.0" encoding="UTF-8"?>
<svg width="24px" height="24px" viewBox="0 0 24 24" version="1.1" xmlns="http://www.w3.org/2000/svg" xmlns:xlink="http://www.w3.org/1999/xlink">
    <title>Open Link</title>
    <g id="Icons" stroke="none" stroke-width="1" fill="none" fill-rule="evenodd">
        <g id="Open-Link" fill="#FFFFFF">
            <path d="M3,19 L3,9 C3,7.8954305 3.8954305,7 5,7 L8,7 L8,7 C8.55228475,7 9,7.44771525 9,8 C9,8.55228475 8.55228475,9 8,9 L6,9 C5.44771525,9 5,9.44771525 5,10 L5,18 C5,18.5522847 5.44771525,19 6,19 L14,19 C14.5522847,19 15,18.5522847 15,18 L15,16 L15,16 C15,15.4477153 15.4477153,15 16,15 C16.5522847,15 17,15.4477153 17,16 L17,18.9932723 C16.9990387,20.0974665 16.1041938,20.9927414 15.0000002,20.9942334 L4.99999977,20.9990389 C3.89543086,21.0005306 2.99957016,20.1055305 2.99903936,19.0009611 C2.9990392,19.0006407 2.99903913,19.0003204 3,19 Z M19.5,3 C20.3284271,3 21,3.67157288 21,4.5 L21,11.5 C21,12.3284271 20.3284271,13 19.5,13 C18.6715729,13 18,12.3284271 18,11.5 L18,8.12 L12.7824856,13.3388348 C12.1966991,13.9246212 11.2469517,13.9246212 10.6611652,13.3388348 C10.0753788,12.7530483 10.0753788,11.8033009 10.6611652,11.2175144 L15.878,6 L12.5,6 C11.6715729,6 11,5.32842712 11,4.5 C11,3.67157288 11.6715729,3 12.5,3 L19.5,3 Z" id="Shape"></path>
        </g>
    </g>
</svg>