<svg height="24" viewBox="0 0 24 24" width="24" xmlns="http://www.w3.org/2000/svg" xmlns:xlink="http://www.w3.org/1999/xlink"><linearGradient id="a" x1="50.000545%" x2="50.000545%" y1="99.98964%" y2="-.010508%"><stop offset="0" stop-color="#20b038"/><stop offset="1" stop-color="#60d66a"/></linearGradient><linearGradient id="b" x1="50.000704%" x2="50.000704%" y1="100.002858%" y2=".003001%"><stop offset="0" stop-color="#f9f9f9"/><stop offset="1" stop-color="#fff"/></linearGradient><g fill="none" fill-rule="evenodd"><g fill-rule="nonzero"><path d="m7.39088299 18.4967171.29510149.1749262c1.23999218.7358768 2.66162832 1.12505 4.11136282 1.1258344h.0031625c4.4522955 0 8.0759312-3.6227953 8.0776125-8.0753709.0006999-2.15790522-.8386613-4.18672101-2.3637539-5.71321432-1.5252047-1.52621317-3.5530399-2.36731127-5.7109731-2.36820772-4.45565725 0-8.07929296 3.622235-8.08097442 8.07481064-.00058769 1.525793.42623654 3.0118058 1.23495023 4.297377l.19221937.3055788-.81622149 2.9798696zm-5.39077093 3.1098555 1.37874646-5.0344304c-.85042682-1.4734345-1.29781346-3.1448732-1.29711311-4.8571006.00207305-5.35687378 4.36152952-9.7150416 9.71896359-9.7150416 2.5996609.00112057 5.0397531 1.01288112 6.8746826 2.84932345 1.8347335 1.83641431 2.8448412 4.27748695 2.8440013 6.87356215-.0022697 5.3565936-4.3626506 9.7156018-9.7186839 9.7156018-.000395 0 .0001976 0 0 0h-.0041509c-1.626504-.0005603-3.22471361-.408559-4.6441927-1.1827592z" fill="#fff"/><path d="m2.41668309 11.7200841c-.0005883 1.6528093.43127848 3.2664548 1.25245849 4.6890155l-1.33112234 4.8601821 4.97363961-1.3041447c1.37034221.7467463 2.91319585 1.140962 4.48339125 1.1414663h.004052c5.1708595 0 9.3797117-4.2077316 9.3819536-9.3791514.0009797-2.50617765-.9740542-4.86242331-2.7455316-6.63544151-1.7711973-1.77276607-4.1267706-2.74959292-6.6368422-2.75076952-5.1711397 0-9.37999187 4.20717133-9.38223301 9.37887123" fill="url(#a)"/><path d="m2.08163335 11.7172827c-.00058829 1.7121994.44679835 3.3838342 1.29722517 4.8571006l-1.37885852 5.0341503 5.15209002-1.3508724c1.41956314.7741162 3.01768878 1.1820869 4.64419268 1.1827592h.0041509c5.3560333 0 9.7164423-4.3590083 9.718684-9.7156019.0008959-2.5962152-1.0092399-5.0372318-2.8440013-6.87356207-1.8350417-1.83633027-4.2749657-2.84820288-6.8746827-2.84932345-5.3571539 0-9.71672243 4.35816782-9.71896357 9.71504162m3.06811429 4.6035721-.19232023-.3054668c-.80871369-1.2857393-1.23553791-2.7717241-1.23495022-4.297377.0017655-4.45229548 3.62531717-8.07481062 8.08097433-8.07481062 2.1577091.00084042 4.1856004.84202256 5.7109732 2.36820772 1.5252046 1.52629721 2.3644538 3.55528108 2.3638658 5.7129341-.0019767 4.4525757-3.625597 8.075371-8.0778925 8.075371h-.0031625c-1.4497064-.0008405-2.87145469-.3899856-4.11136282-1.1257503l-.29510149-.1749263-3.0574689.8015981z" fill="url(#b)"/></g><path d="m9.37148635 7.6552249c-.18194097-.40441287-.37337315-.41250897-.54641681-.41962458-.14162015-.00602305-.3035898-.00563606-.46537176-.00563606-.16197806 0-.42505933.0607848-.64752003.3037911-.2226596.24301752-.85000661.83045271-.85000661 2.02517395 0 1.19483329.87028889 2.34932619.99153431 2.51150029.12145833.16188 1.67998307 2.6920798 4.14806135 3.6653769 2.0513672.8089098 2.4688067.6480243 2.9140363.6074877.4452295-.0404217 1.4367638-.5872335 1.6390543-1.1542967.2023997-.5669793.2023997-1.0529975.1417182-1.1544929-.0606816-.1012013-.2226596-.1619809-.4654838-.2833355-.2429195-.1214584-1.4367639-.7089832-1.6593086-.7900283-.2226596-.0809414-.3845508-.121363-.5465289.1217553-.16188.2428186-.6269576.789636-.7686814.9516141-.1416201.162275-.2833355.1825349-.5261625.0610737-.2429195-.1218533-1.0250393-.3780235-1.9528413-1.2051985-.7219258-.6436541-1.20926064-1.4385288-1.35098444-1.6816639-.14162014-.2428186-.01511926-.3743537.10663602-.495431.10910687-.1088099.24291946-.2835316.36438059-.4252554.12116143-.1418163.16158303-.2430175.24252443-.40500121.0810395-.1620789.0405198-.30389795-.0201618-.42536748-.0607796-.12145833-.53268984-1.32232589-.74862323-1.80251715" fill="#fff"/></g></svg>