<svg width="240" height="240" viewBox="0 0 24 24" fill="currentColor" xmlns="http://www.w3.org/2000/svg">
  <path fill-rule="evenodd" d="M9.03947 4.8461L5.5 6.06883V19.5H9.03947V4.8461ZM10.5395 19.5V5.09196L12.0789 5.90446V19.5H10.5395ZM4.67348 4.76737C4.27042 4.90661 4 5.28613 4 5.71256V20C4 20.5523 4.44771 21 5 21L13.5781 21.0078C13.5781 20.5 13.5789 20.5523 13.5789 20V10.6955V5.60298C13.5789 5.23211 13.3737 4.8917 13.0457 4.7186L10.1729 3.20241C9.9283 3.0733 9.64111 3.05128 9.37965 3.1416L4.67348 4.76737Z" />
  <path fill-rule="evenodd" d="M16.1834 11.6893L13.5789 12.2188L13.5831 19.5L16.1834 19.5028V11.6893ZM17.6834 19.5028V11.752L19.2229 12.1583V19.5028H17.6834ZM13.5789 21.0028H19.7229C20.2752 21.0028 20.7229 20.5551 20.7229 20.0028V11.7731C20.7229 11.3191 20.417 10.9221 19.9781 10.8062L17.1607 10.0627C17.0112 10.0233 16.8546 10.019 16.7033 10.0503L13.5789 10.6955C13.5789 11.5 13.5913 18.3769 13.5789 21.0028Z" />
</svg>
