<svg width="24" height="24" viewBox="0 0 24 24" fill="none" xmlns="http://www.w3.org/2000/svg">
<g id="Filled=yes, Status=Play">
<path id="Shape" fill-rule="evenodd" clip-rule="evenodd" d="M21 12C21 7.02944 16.9706 3 12 3C7.02944 3 3 7.02944 3 12C3 16.9706 7.02944 21 12 21C16.9706 21 21 16.9706 21 12ZM15.5355 15.5355C15.926 15.145 15.926 14.5118 15.5355 14.1213L13.4142 12L15.5355 9.87868C15.926 9.48815 15.926 8.85499 15.5355 8.46446C15.1449 8.07394 14.5118 8.07394 14.1213 8.46446L11.9999 10.5858L9.87862 8.46446C9.48809 8.07394 8.85493 8.07394 8.4644 8.46446C8.07388 8.85499 8.07388 9.48815 8.4644 9.87868L10.5857 12L8.4644 14.1213C8.07388 14.5118 8.07388 15.145 8.4644 15.5355C8.85493 15.9261 9.48809 15.9261 9.87862 15.5355L11.9999 13.4142L14.1213 15.5355C14.5118 15.9261 15.1449 15.9261 15.5355 15.5355Z" fill="currentColor"/>
</g>
</svg>
