<svg width="24" height="24" viewBox="0 0 24 24" fill="none" xmlns="http://www.w3.org/2000/svg">
<g id="Filled=no, Status=Play">
<path id="Shape" fill-rule="evenodd" clip-rule="evenodd" d="M12 3C16.9706 3 21 7.02944 21 12C21 16.9706 16.9706 21 12 21C7.02944 21 3 16.9706 3 12C3 7.02944 7.02944 3 12 3ZM12 4.5C16.1421 4.5 19.5 7.85786 19.5 12C19.5 16.1421 16.1421 19.5 12 19.5C7.85786 19.5 4.5 16.1421 4.5 12C4.5 7.85786 7.85786 4.5 12 4.5ZM15.6032 14.5562C15.8207 14.8492 15.7965 15.265 15.5308 15.5308C15.2628 15.7987 14.8423 15.821 14.5489 15.5978L14.4722 15.5308L11.9999 13.059L9.52776 15.5308C9.23546 15.8231 8.76154 15.8231 8.46923 15.5308C8.2035 15.265 8.17934 14.8492 8.39676 14.5562L8.46923 14.4722L10.941 12.0001L8.46923 9.52776L8.39676 9.44381C8.17934 9.15079 8.2035 8.73496 8.46923 8.46923C8.73718 8.20128 9.15773 8.17895 9.45111 8.40224L9.52776 8.46923L11.9999 10.9412L14.4722 8.46923C14.7645 8.17692 15.2385 8.17692 15.5308 8.46923C15.7965 8.73496 15.8207 9.15079 15.6032 9.44381L15.5308 9.52776L13.0588 12.0001L15.5308 14.4722L15.6032 14.5562Z" fill="currentColor"/>
</g>
</svg>
