<svg width="24" height="24" viewBox="0 0 24 24" fill="currentColor" xmlns="http://www.w3.org/2000/svg">
  <path d="M12 18C12.8284 18 13.5 18.6716 13.5 19.5C13.5 20.2732 12.915 20.9098 12.1634 20.9912L12 21C11.1716 21 10.5 20.3284 10.5 19.5C10.5 18.7268 11.085 18.0902 11.8366 18.0088L12 18ZM18.364 16.2426C18.9107 16.7894 18.9471 17.6532 18.4733 18.2422L18.364 18.364C17.7782 18.9497 16.8284 18.9497 16.2426 18.364C15.6959 17.8172 15.6595 16.9534 16.1333 16.3644L16.2426 16.2426C16.8284 15.6569 17.7782 15.6569 18.364 16.2426ZM7.63556 16.1333L7.75736 16.2426C8.34315 16.8284 8.34315 17.7782 7.75736 18.364C7.21063 18.9107 6.34684 18.9471 5.75783 18.4733L5.63604 18.364C5.05025 17.7782 5.05025 16.8284 5.63604 16.2426C6.18277 15.6959 7.04656 15.6595 7.63556 16.1333ZM11.9998 7.5C14.4813 7.5 16.5 9.51865 16.5 12C16.5 14.4105 14.595 16.3843 12.2114 16.4951L11.9998 16.5C9.51873 16.5 7.5 14.4813 7.5 12C7.5 9.58955 9.40502 7.61573 11.7883 7.50491L11.9998 7.5ZM11.9998 9C10.3471 9 9 10.3471 9 12C9 13.6529 10.3471 15 11.9998 15C13.6529 15 15 13.6529 15 12C15 10.3471 13.6529 9 11.9998 9ZM19.5 10.5C20.2732 10.5 20.9098 11.085 20.9912 11.8366L21 12C21 12.8284 20.3284 13.5 19.5 13.5C18.7268 13.5 18.0902 12.915 18.0088 12.1634L18 12C18 11.1716 18.6716 10.5 19.5 10.5ZM4.5 10.5C5.2732 10.5 5.90976 11.085 5.9912 11.8366L6 12C6 12.8284 5.32843 13.5 4.5 13.5C3.7268 13.5 3.09024 12.915 3.0088 12.1634L3 12C3 11.1716 3.67157 10.5 4.5 10.5ZM18.2422 5.52669L18.364 5.63604C18.9497 6.22183 18.9497 7.17157 18.364 7.75736C17.8172 8.30409 16.9534 8.34054 16.3644 7.86671L16.2426 7.75736C15.6569 7.17157 15.6569 6.22183 16.2426 5.63604C16.7894 5.0893 17.6532 5.05286 18.2422 5.52669ZM7.75736 5.63604C8.30409 6.18277 8.34054 7.04656 7.86671 7.63556L7.75736 7.75736C7.17157 8.34315 6.22183 8.34315 5.63604 7.75736C5.0893 7.21063 5.05286 6.34684 5.52669 5.75783L5.63604 5.63604C6.22183 5.05025 7.17157 5.05025 7.75736 5.63604ZM12 3C12.8284 3 13.5 3.67157 13.5 4.5C13.5 5.2732 12.915 5.90976 12.1634 5.9912L12 6C11.1716 6 10.5 5.32843 10.5 4.5C10.5 3.7268 11.085 3.09024 11.8366 3.0088L12 3Z" />
</svg>
