<?xml version="1.0" encoding="UTF-8"?>
<svg xmlns="http://www.w3.org/2000/svg" width="24" height="24" viewBox="0 0 24 24" fill="none">
  <path stroke="none" stroke-width="1" fill-rule="evenodd" clip-rule="evenodd" d="M14.4842 16.6718L14.1766 16.7025C13.4735 16.7664 12.7456 16.8 12 16.8C11.1447 16.8 10.3126 16.7558 9.51461 16.6723C9.71166 17.4961 9.95912 18.2495 10.2507 18.9057C10.8879 20.3393 11.5822 21 12 21C12.4178 21 13.1121 20.3393 13.7493 18.9057C14.0409 18.2495 14.2883 17.4961 14.4842 16.6718ZM3.49756 14.9601L3.53137 15.0539C4.44924 17.5988 6.4816 19.6111 9.03937 20.5017C8.42659 19.42 7.93333 18.0088 7.61251 16.3869C5.99118 16.0667 4.58003 15.5734 3.49756 14.9601ZM20.5017 14.9606L20.3338 15.0532C19.2751 15.6234 17.9259 16.0831 16.3869 16.3875C16.0667 18.0088 15.5734 19.42 14.9601 20.5024C17.5496 19.6002 19.6002 17.5496 20.5017 14.9606ZM12 9C11.026 9 10.0774 9.06216 9.1795 9.17943C9.06216 10.0774 9 11.026 9 12C9 12.974 9.06216 13.9226 9.17943 14.8205C10.0774 14.9378 11.026 15 12 15C12.974 15 13.9226 14.9378 14.8205 14.8206C14.9378 13.9226 15 12.974 15 12C15 11.026 14.9378 10.0774 14.8206 9.1795C13.9226 9.06216 12.974 9 12 9ZM7.32772 9.51461L6.94274 9.6125C6.26814 9.791 5.64674 10.0052 5.0943 10.2507C3.76538 10.8414 3.10059 11.4811 3.01061 11.9042L3.00001 11.9855L3 12.0132L3.00688 12.0765C3.08041 12.4993 3.74505 13.1496 5.0943 13.7493C5.75047 14.0409 6.50391 14.2883 7.32824 14.4842C7.24419 13.6874 7.2 12.8553 7.2 12C7.2 11.3585 7.22486 10.7301 7.27252 10.1193L7.32772 9.51461ZM16.6718 9.51577L16.6859 9.64818C16.7606 10.4053 16.8 11.1923 16.8 12C16.8 12.8553 16.7558 13.6874 16.6723 14.4854C17.4961 14.2883 18.2495 14.0409 18.9057 13.7493C20.3393 13.1121 21 12.4178 21 12C21 11.5822 20.3393 10.8879 18.9057 10.2507C18.2495 9.95912 17.4961 9.71166 16.6718 9.51577ZM9.0399 3.49756L8.94609 3.53137C6.40082 4.44938 4.3883 6.48224 3.49789 9.04057C4.40679 8.5247 5.54837 8.0941 6.85208 7.77933L7.47584 7.64018L7.61251 7.61313C7.93333 5.99118 8.42659 4.58003 9.0399 3.49756ZM14.9594 3.49789L15.0414 3.64423C15.5207 4.52857 15.9226 5.61765 16.2207 6.85208L16.3598 7.47584L16.3869 7.61251C18.0088 7.93333 19.42 8.42659 20.5024 9.0399C19.6001 6.45003 17.5489 4.39915 14.9594 3.49789ZM12 3C11.5822 3 10.8879 3.66073 10.2507 5.0943C9.95912 5.75047 9.71166 6.50391 9.51577 7.32824C10.3122 7.24421 11.1445 7.2 12 7.2C12.8553 7.2 13.6874 7.24419 14.4854 7.32772C14.2883 6.50391 14.0409 5.75047 13.7493 5.0943C13.1496 3.74505 12.4993 3.08041 12.0765 3.00688L12 3Z" fill="#FFFFFF"/>
</svg>
