<svg width="24" height="24" viewBox="0 0 24 24" fill="none" xmlns="http://www.w3.org/2000/svg">
  <g id="Filled=no, Style=Earth">
    <path id="Shape" fill-rule="evenodd" clip-rule="evenodd" d="M12 3C16.9706 3 21 7.02944 21 12C21 16.9706 16.9706 21 12 21C7.02944 21 3 16.9706 3 12C3 7.02944 7.02944 3 12 3ZM14.0702 15.8931L13.8138 15.9187C13.2279 15.972 12.6213 16 12 16C11.2872 16 10.5938 15.9632 9.92884 15.8936C10.0931 16.5801 10.2993 17.2079 10.5423 17.7548C11.0732 18.9494 11.6518 19.5 12 19.5C12.3482 19.5 12.9268 18.9494 13.4577 17.7548C13.7007 17.2079 13.9069 16.5801 14.0702 15.8931ZM4.91463 14.4667L4.94281 14.5449C5.7077 16.6657 7.40134 18.3426 9.53281 19.0847C9.02216 18.1833 8.61111 17.0073 8.34376 15.6557C6.99265 15.3889 5.81669 14.9778 4.91463 14.4667ZM19.0847 14.4672L18.9448 14.5444C18.0626 15.0195 16.9382 15.4026 15.6557 15.6562C15.3889 17.0073 14.9778 18.1833 14.4667 19.0854C16.6246 18.3335 18.3335 16.6246 19.0847 14.4672ZM12 9.5C11.1883 9.5 10.3979 9.5518 9.64959 9.64953C9.5518 10.3979 9.5 11.1883 9.5 12C9.5 12.8117 9.5518 13.6021 9.64953 14.3504C10.3979 14.4482 11.1883 14.5 12 14.5C12.8117 14.5 13.6021 14.4482 14.3504 14.3505C14.4482 13.6021 14.5 12.8117 14.5 12C14.5 11.1883 14.4482 10.3979 14.3505 9.64959C13.6021 9.5518 12.8117 9.5 12 9.5ZM8.10643 9.92884L7.78561 10.0104C7.22345 10.1592 6.70562 10.3377 6.24525 10.5423C5.13782 11.0345 4.58383 11.5676 4.50884 11.9202L4.50001 11.9879L4.5 12.011L4.50573 12.0638C4.56701 12.4161 5.12088 12.958 6.24525 13.4577C6.79206 13.7007 7.41992 13.9069 8.10687 14.0702C8.03683 13.4062 8 12.7128 8 12C8 11.4654 8.02071 10.9417 8.06044 10.4328L8.10643 9.92884ZM15.8931 9.92981L15.9049 10.0402C15.9672 10.6711 16 11.3269 16 12C16 12.7128 15.9632 13.4062 15.8936 14.0712C16.5801 13.9069 17.2079 13.7007 17.7548 13.4577C18.9494 12.9268 19.5 12.3482 19.5 12C19.5 11.6518 18.9494 11.0732 17.7548 10.5423C17.2079 10.2993 16.5801 10.0931 15.8931 9.92981ZM9.53325 4.91463L9.45507 4.94281C7.33401 5.70782 5.65691 7.40187 4.91491 9.53381C5.67232 9.10392 6.62364 8.74508 7.71007 8.48278L8.22987 8.36682L8.34376 8.34428C8.61111 6.99265 9.02216 5.81669 9.53325 4.91463ZM14.4662 4.91491L14.5345 5.03686C14.9339 5.77381 15.2689 6.68137 15.5172 7.71007L15.6332 8.22987L15.6557 8.34376C17.0073 8.61111 18.1833 9.02216 19.0854 9.53325C18.3334 7.37503 16.6241 5.66596 14.4662 4.91491ZM12 4.5C11.6518 4.5 11.0732 5.0506 10.5423 6.24525C10.2993 6.79206 10.0931 7.41992 9.92981 8.10687C10.5935 8.03684 11.2871 8 12 8C12.7128 8 13.4062 8.03683 14.0712 8.10643C13.9069 7.41992 13.7007 6.79206 13.4577 6.24525C12.958 5.12088 12.4161 4.56701 12.0638 4.50573L12 4.5Z" fill="#ffffff"/>
  </g>
</svg>
