<?xml version="1.0" encoding="UTF-8"?>
<svg xmlns="http://www.w3.org/2000/svg" width="20" height="20" viewBox="0 0 20 20" fill="none">
  <path stroke="none" stroke-width="1" fill-rule="evenodd" clip-rule="evenodd" d="M10 2.5C14.1421 2.5 17.5 5.85786 17.5 10C17.5 14.1421 14.1421 17.5 10 17.5C5.85786 17.5 2.5 14.1421 2.5 10C2.5 5.85786 5.85786 2.5 10 2.5ZM11.7252 13.2443L11.5115 13.2656C11.0233 13.31 10.5178 13.3333 10 13.3333C9.40602 13.3333 8.82817 13.3026 8.27403 13.2446C8.41088 13.8167 8.58272 14.34 8.78524 14.7956C9.2277 15.7912 9.70984 16.25 10 16.25C10.2902 16.25 10.7723 15.7912 11.2148 14.7956C11.4173 14.34 11.5891 13.8167 11.7252 13.2443ZM4.09552 12.0556L4.11901 12.1208C4.75642 13.888 6.16778 15.2855 7.94401 15.904C7.51846 15.1528 7.17592 14.1728 6.95313 13.0464C5.82721 12.8241 4.84724 12.4815 4.09552 12.0556ZM15.904 12.056L15.7874 12.1203C15.0521 12.5163 14.1152 12.8355 13.0464 13.0469C12.8241 14.1728 12.4815 15.1528 12.0556 15.9045C13.8539 15.2779 15.2779 13.8539 15.904 12.056ZM10 7.91667C9.32362 7.91667 8.66489 7.95984 8.04132 8.04127C7.95984 8.66489 7.91667 9.32362 7.91667 10C7.91667 10.6764 7.95984 11.3351 8.04127 11.9587C8.66489 12.0402 9.32362 12.0833 10 12.0833C10.6764 12.0833 11.3351 12.0402 11.9587 11.9587C12.0402 11.3351 12.0833 10.6764 12.0833 10C12.0833 9.32362 12.0402 8.66489 11.9587 8.04132C11.3351 7.95984 10.6764 7.91667 10 7.91667ZM6.75536 8.27403L6.48801 8.34201C6.01954 8.46597 5.58802 8.61473 5.20437 8.78524C4.28152 9.1954 3.81985 9.63966 3.75737 9.93347L3.75001 9.98993L3.75 10.0092L3.75478 10.0532C3.80584 10.3467 4.2674 10.7983 5.20437 11.2148C5.66005 11.4173 6.18327 11.5891 6.75572 11.7252C6.69735 11.1718 6.66667 10.594 6.66667 10C6.66667 9.55452 6.68393 9.1181 6.71703 8.69396L6.75536 8.27403ZM13.2443 8.27484L13.2541 8.36679C13.306 8.89255 13.3333 9.43909 13.3333 10C13.3333 10.594 13.3026 11.1718 13.2446 11.726C13.8167 11.5891 14.34 11.4173 14.7956 11.2148C15.7912 10.7723 16.25 10.2902 16.25 10C16.25 9.70984 15.7912 9.2277 14.7956 8.78524C14.34 8.58272 13.8167 8.41088 13.2443 8.27484ZM7.94438 4.09552L7.87923 4.11901C6.11168 4.75652 4.7141 6.16822 4.09576 7.94484C4.72694 7.5866 5.5197 7.28757 6.42505 7.06898L6.85822 6.97235L6.95313 6.95356C7.17592 5.82721 7.51846 4.84724 7.94438 4.09552ZM12.0552 4.09576L12.1121 4.19738C12.445 4.81151 12.724 5.56781 12.931 6.42505L13.0277 6.85822L13.0464 6.95313C14.1728 7.17592 15.1528 7.51846 15.9045 7.94438C15.2778 6.14586 13.8534 4.72163 12.0552 4.09576ZM10 3.75C9.70984 3.75 9.2277 4.20884 8.78524 5.20437C8.58272 5.66005 8.41088 6.18327 8.27484 6.75572C8.82793 6.69737 9.4059 6.66667 10 6.66667C10.594 6.66667 11.1718 6.69735 11.726 6.75536C11.5891 6.18327 11.4173 5.66005 11.2148 5.20437C10.7983 4.2674 10.3467 3.80584 10.0532 3.75478L10 3.75Z" fill="#FFFFFF"/>
</svg>
