<svg width="15" height="25" viewBox="0 0 15 25" fill="none" xmlns="http://www.w3.org/2000/svg">
<path fill-rule="evenodd" clip-rule="evenodd" d="M9.57605 0.0235014C10.1155 -0.0949976 10.6488 0.246228 10.7673 0.78565L12.6984 9.57604C12.8169 10.1155 12.4756 10.6488 11.9362 10.7673C11.3968 10.8858 10.8634 10.5446 10.7449 10.0052L9.34987 3.65461C6.99904 7.75635 5.35519 12.0265 5.34745 15.5024C5.34299 17.5067 5.88109 19.1712 7.06519 20.4222C8.25773 21.682 10.2248 22.6488 13.3274 23.0068C13.876 23.0701 14.2695 23.5662 14.2062 24.1148C14.1429 24.6635 13.6468 25.0569 13.0981 24.9936C9.70063 24.6016 7.23023 23.5059 5.6127 21.797C3.98672 20.0792 3.34218 17.8687 3.34746 15.498C3.35642 11.4702 5.23652 6.76838 7.71877 2.47919L1.21477 3.90798C0.675351 4.02647 0.142 3.68525 0.0235015 3.14583C-0.0949978 2.6064 0.246228 2.07305 0.78565 1.95456L9.57605 0.0235014Z" fill="#FC538D"/>
</svg>
