<?xml version="1.0" encoding="UTF-8"?>
<svg width="24px" height="24px" viewBox="0 0 24 24" version="1.1" xmlns="http://www.w3.org/2000/svg" xmlns:xlink="http://www.w3.org/1999/xlink">
  <title>Icon/Invite/Filled</title>
  <g id="Icon/Invite/Filled" stroke="none" stroke-width="1" fill="none" fill-rule="evenodd">
    <path d="M13.6424402,13.112604 C12.986512,13.136448 12.3376385,13.3987328 11.836913,13.8994582 C10.8354621,14.9009092 10.7877739,16.4949523 11.6938486,17.5528405 L11.836913,17.7073615 L14.2618228,20.1322713 C14.7142004,20.5846489 15.0688674,20.7979275 15.4498352,20.9133976 C15.6403191,20.9711325 15.8329629,21 16.0256066,21 L16.2181704,20.9903775 C16.3464395,20.9775475 16.4743887,20.9518875 16.601378,20.9133976 C16.8553565,20.8364176 17.0976459,20.715967 17.3698714,20.5064176 C17.4580028,20.4383148 17.548875,20.3609321 17.6437998,20.2727748 L17.7893904,20.1322713 L20.2143002,17.7073615 C21.2658237,16.6558381 21.2658237,14.9509817 20.2143002,13.8994582 C19.7503929,13.4355508 19.1593229,13.1763085 18.5532926,13.1217312 L18.3508824,13.1111189 C17.956828,13.1052232 17.5617262,13.1853065 17.1961279,13.3513687 L16.9805537,13.4613235 L16.9018766,13.50886 L16.7281943,13.6241975 L16.5631659,13.7544706 L16.4063969,13.8994582 L16.0256066,14.2802486 L15.6448163,13.8994582 C15.1440908,13.3987328 14.4952173,13.136448 13.8392892,13.112604 L13.6424402,13.112604 Z M9.02332321,12.1823931 L8.75893546,12.2490314 C5.53097534,13.1191112 3.14389912,15.8516374 3.00627523,19.126077 L3,19.4252095 L3,19.9229431 C3,20.4304336 3.379756,20.8492273 3.87059795,20.9106542 L3.99546724,20.9184103 L4.93994837,20.7333184 L6.28156966,20.4857037 L7.10094911,20.3456388 L7.86030076,20.2255832 C7.98185705,20.2072414 8.10091218,20.1897333 8.21746616,20.1730589 L8.88677611,20.0830172 L9.49605826,20.0129848 C9.68914768,19.9929755 9.87223246,19.9763011 10.0453126,19.9629616 L10.5345392,19.9329477 C10.6110746,19.9296128 10.6851089,19.9271117 10.756642,19.9254443 L11.0980791,19.9240222 L11.2388952,19.9272597 L10.4291099,19.1151649 C8.60007804,17.2861332 8.60007804,14.3206867 10.4291099,12.4916549 C10.6168785,12.3038863 10.8166239,12.135394 11.0242475,11.9851567 L10.9637379,11.9592052 C10.2944389,11.9592052 9.64442403,12.0366104 9.02332321,12.1823931 Z M12.7205259,10.7605812 C14.3026134,10.233686 15.4433405,8.74099301 15.4433405,6.98186896 C15.4433405,4.78274346 13.6605971,3 11.4614715,3 C9.26234604,3 7.47960258,4.78274346 7.47960258,6.98186896 C7.47960258,9.18099447 9.26234604,10.9637379 11.4614715,10.9637379 C11.8406311,10.9637379 12.2074131,10.9107432 12.5548145,10.8117566 L12.7205259,10.7605812 Z" id="Shape" fill="#FFFFFF"></path>
  </g>
</svg>
