<?xml version="1.0" encoding="UTF-8"?>
<svg width="24px" height="24px" viewBox="0 0 24 24" version="1.1" xmlns="http://www.w3.org/2000/svg" xmlns:xlink="http://www.w3.org/1999/xlink">
    <title>Icon/Pause/Filled</title>
    <g id="Icon/Pause/Filled" stroke="none" stroke-width="1" fill="none" fill-rule="evenodd">
        <path d="M12,3 C16.9705627,3 21,7.02943725 21,12 C21,16.9705627 16.9705627,21 12,21 C7.02943725,21 3,16.9705627 3,12 C3,7.02943725 7.02943725,3 12,3 Z M9.5,8 C8.94771525,8 8.5,8.44771525 8.5,9 L8.5,9 L8.5,15 L8.50672773,15.1166211 C8.56449284,15.6139598 8.98716416,16 9.5,16 C10.0522847,16 10.5,15.5522847 10.5,15 L10.5,15 L10.5,9 L10.4932723,8.88337887 C10.4355072,8.38604019 10.0128358,8 9.5,8 Z M14.5,8 C13.9477153,8 13.5,8.44771525 13.5,9 L13.5,9 L13.5,15 L13.5067277,15.1166211 C13.5644928,15.6139598 13.9871642,16 14.5,16 C15.0522847,16 15.5,15.5522847 15.5,15 L15.5,15 L15.5,9 L15.4932723,8.88337887 C15.4355072,8.38604019 15.0128358,8 14.5,8 Z" id="Shape" fill="#FFFFFF"></path>
    </g>
</svg>