<?xml version="1.0" encoding="UTF-8"?>
<svg width="24px" height="24px" viewBox="0 0 24 24" version="1.1" xmlns="http://www.w3.org/2000/svg" xmlns:xlink="http://www.w3.org/1999/xlink">
    <title>Icon/Pause/Outline</title>
    <g id="Icon/Pause/Outline" stroke="none" stroke-width="1" fill="none" fill-rule="evenodd">
        <path d="M12,3 C16.9705627,3 21,7.02943725 21,12 C21,16.9705627 16.9705627,21 12,21 C7.02943725,21 3,16.9705627 3,12 C3,7.02943725 7.02943725,3 12,3 Z M12,4.5 C7.85786438,4.5 4.5,7.85786438 4.5,12 C4.5,16.1421356 7.85786438,19.5 12,19.5 C16.1421356,19.5 19.5,16.1421356 19.5,12 C19.5,7.85786438 16.1421356,4.5 12,4.5 Z M14.25,8 C14.6642136,8 15,8.33578644 15,8.75 L15,15.25 C15,15.6642136 14.6642136,16 14.25,16 C13.8357864,16 13.5,15.6642136 13.5,15.25 L13.5,8.75 C13.5,8.33578644 13.8357864,8 14.25,8 Z M9.75,8 C10.1642136,8 10.5,8.33578644 10.5,8.75 L10.5,15.25 C10.5,15.6642136 10.1642136,16 9.75,16 C9.33578644,16 9,15.6642136 9,15.25 L9,8.75 C9,8.33578644 9.33578644,8 9.75,8 Z" id="Shape" fill="#FFFFFF"></path>
    </g>
</svg>