<?xml version="1.0" encoding="UTF-8"?>
<svg width="24px" height="24px" viewBox="0 0 24 24" version="1.1" xmlns="http://www.w3.org/2000/svg" xmlns:xlink="http://www.w3.org/1999/xlink">
    <title>Social/Linkedin/Color</title>
    <g id="💎-Icons" stroke="none" stroke-width="1" fill="none" fill-rule="evenodd">
        <g id="Social/Linkedin/Color" fill="#0077B5">
            <path d="M7.03461679,21 L3.36678334,21 L3.36678334,9.67132867 L7.03461679,9.67132867 L7.03461679,21 L7.03461679,21 Z M5.20070007,7.53146853 C3.97808892,7.53146853 3,6.52447552 3,5.26573427 C3,4.00699301 3.97808892,3 5.20070007,3 C6.42331121,3 7.40140013,4.00699301 7.40140013,5.26573427 C7.40140013,6.52447552 6.42331121,7.53146853 5.20070007,7.53146853 L5.20070007,7.53146853 Z M20.4833394,21 L16.815506,21 L16.815506,14.3286713 C16.815506,13.3217277 15.9596782,12.4405594 14.9815892,12.4405594 C14.0035003,12.4405594 13.1476725,13.3217277 13.1476725,14.3286713 L13.1476725,21 L9.47983908,21 L9.47983908,9.67132867 L13.1476725,9.67132867 L13.1476725,11.1818182 C13.7589781,10.1748252 15.1038504,9.41958042 16.2042004,9.41958042 C18.5271616,9.41958042 20.4833394,11.4335664 20.4833394,13.8251748 L20.4833394,21 L20.4833394,21 Z" id="Combined-Shape"></path>
        </g>
    </g>
</svg>