<?xml version="1.0" encoding="UTF-8"?>
<svg width="24px" height="24px" viewBox="0 0 24 24" version="1.1" xmlns="http://www.w3.org/2000/svg" xmlns:xlink="http://www.w3.org/1999/xlink">
  <title>Icon/Bell disabled/Filled</title>
  <g id="Icon/Bell-disabled/Filled" stroke="none" stroke-width="1" fill="none" fill-rule="evenodd">
    <path d="M17.485859,9.74096737 C17.6971883,10.3102696 17.8224901,10.9213948 17.845965,11.5585384 L17.85,11.777926 L17.85,15.1480493 L17.8576864,15.2711076 C17.9134851,15.7144665 18.266798,16.065168 18.7112944,16.1168127 L18.9473019,16.1309736 C19.4280519,16.1911576 19.8,16.6014776 19.8,17.0986996 C19.8,17.5959216 19.4280519,18.0062415 18.9473019,18.0664255 L18.825,18.0740247 L14.925,18.0740247 L14.9182286,18.2747003 C14.8194496,19.7335236 13.6517645,20.8990174 12.1923196,20.9937762 L12,21 L11.806829,20.9937208 C10.3382065,20.8979396 9.16522376,19.7178991 9.07996538,18.245948 L9.07799995,18.195 L17.485859,9.74096737 Z M20.575017,3.44352596 C20.8687215,3.73560558 20.8700388,4.21047749 20.5779592,4.50418205 L4.53179915,20.6396124 C4.23971953,20.933317 3.76484762,20.9346343 3.47114306,20.6425546 C3.1774385,20.350475 3.17612123,19.8756031 3.46820085,19.5818985 L19.5143609,3.44646817 C19.8064405,3.15276361 20.2813124,3.15144633 20.575017,3.44352596 Z M12,5.92597533 C12.5262395,5.92597533 13.0362501,5.99548283 13.5213575,6.12582076 L13.6928558,6.17473606 C13.9412334,6.24972517 14.1826409,6.3407882 14.4158696,6.44671597 L6.14999995,14.758 L6.14999995,11.777926 L6.15620409,11.5059961 C6.27159369,8.98245194 7.98479422,6.87580447 10.3077704,6.17554605 L10.485047,6.1241039 C10.9682381,5.99487253 11.4760758,5.92597533 12,5.92597533 Z M12,3 C12.5384776,3 12.975,3.43666792 12.975,3.97532511 L12.9674034,4.09766782 L12.9452226,4.2154756 C12.8382723,4.63800632 12.4556349,4.95065022 12,4.95065022 C11.5194277,4.95065022 11.1200621,4.60284718 11.0397276,4.14514478 C11.0300479,4.08999507 11.025,4.03324978 11.025,3.97532511 C11.025,3.43666792 11.4615224,3 12,3 Z" id="Shape" fill="#FFFFFF"></path>
  </g>
</svg>
