<?xml version="1.0" encoding="UTF-8"?>
<svg width="24px" height="24px" viewBox="0 0 24 24" version="1.1" xmlns="http://www.w3.org/2000/svg" xmlns:xlink="http://www.w3.org/1999/xlink">
  <title>Icon/Bell disabled/Outline</title>
  <g id="Icon/Bell-disabled/Outline" stroke="none" stroke-width="1" fill="none" fill-rule="evenodd">
    <path d="M17.8886471,9.37731404 C18.1413147,9.98775684 18.3029725,10.6469415 18.3563578,11.3382944 L18.3713837,11.6021452 L18.375,11.8125 L18.375,14.038 L18.4470622,14.0601348 C19.250003,14.3392411 19.8516627,15.0484739 19.9762007,15.9119929 L19.994665,16.0866721 L20,16.245 C20,17.4689435 19.0491395,18.4708017 17.8458279,18.552165 L17.6875,18.5575 L15.641,18.557 L15.6280717,18.5901527 C15.0812709,19.8829351 13.8636706,20.8229115 12.4116085,20.9737444 L12.2026232,20.9898765 L12,20.995 C10.463885,20.995 9.12621347,20.1131421 8.47732046,18.8030294 L9.63368231,17.6446444 C9.88403396,18.6569676 10.7670165,19.4198778 11.8390242,19.4897691 L12,19.495 L12.1602663,19.4898153 C13.3764705,19.4108759 14.3495414,18.4399548 14.4318571,17.2246739 L14.4375,17.0575 L17.6875,17.0575 L17.7894183,17.0511695 C18.1900433,17.0010329 18.5,16.6592136 18.5,16.245 C18.5,15.8307864 18.1900433,15.4889671 17.7894183,15.4388305 L17.5927453,15.4270337 C17.2223316,15.3840107 16.9279043,15.0918569 16.8814054,14.7225144 L16.875,14.62 L16.875,11.8125 L16.8716375,11.629738 C16.8580023,11.2597819 16.8031423,10.900356 16.7115158,10.5559184 L17.8886471,9.37731404 Z M20.5299091,3.54672997 C20.8230346,3.8393907 20.8234114,4.31426428 20.5307507,4.60738981 L4.53075071,20.6328006 C4.23808998,20.9259261 3.7632164,20.9263029 3.47009088,20.6336422 C3.17696535,20.3409815 3.17658856,19.8661079 3.46924929,19.5729824 L19.4692493,3.54757156 C19.76191,3.25444603 20.2367836,3.25406924 20.5299091,3.54672997 Z M12,3 C13.2771585,3 14.3125,4.03534152 14.3125,5.3125 C14.3125,5.49643082 14.2910265,5.67534624 14.2504497,5.84687602 C14.441902,5.91916111 14.6290041,6.00044268 14.8112362,6.09022177 L13.6718239,7.23171804 C13.5858915,7.20034752 13.4988287,7.17132611 13.4107132,7.14473151 L13.2677979,7.10398235 C12.8635417,6.99540361 12.4385329,6.9375 12,6.9375 C11.5633965,6.9375 11.1401984,6.9948952 10.7375391,7.10255211 L10.5898087,7.14540628 C8.65399518,7.72876044 7.22632808,9.48371482 7.13017008,11.5859673 L7.125,11.8125 L7.125,13.788 L4.07752048,16.8409591 C4.0530703,16.7490286 4.03414138,16.6548476 4.0211104,16.5587926 L4.005335,16.4033279 L4,16.245 C4,15.3421308 4.51957588,14.5522546 5.32498905,14.1689562 L5.4898136,14.0978046 L5.625,14.05 L5.625,11.8125 C5.625,9.08370177 7.33950378,6.75534735 9.75005276,5.84589532 C9.7088902,5.6746514 9.6875,5.49607367 9.6875,5.3125 C9.6875,4.03534152 10.7228415,3 12,3 Z M12,4.5 C11.5512686,4.5 11.1875,4.86376864 11.1875,5.3125 C11.1875,5.36075447 11.1917066,5.40802645 11.199773,5.45396922 C11.2667185,5.83526075 11.5995231,6.125 12,6.125 C12.3796958,6.125 12.6985602,5.86455026 12.7876855,5.5125587 L12.8061695,5.41441827 L12.8125,5.3125 C12.8125,4.86376864 12.4487314,4.5 12,4.5 Z" id="Shape" fill="#FFFFFF"></path>
  </g>
</svg>
