<?xml version="1.0" encoding="UTF-8"?>
<svg width="24px" height="24px" viewBox="0 0 24 24" version="1.1" xmlns="http://www.w3.org/2000/svg" xmlns:xlink="http://www.w3.org/1999/xlink">
    <title>Icon/Feather/Filled</title>
    <g id="Icon/Feather/Filled" stroke="none" stroke-width="1" fill="none" fill-rule="evenodd">
        <path d="M14.3553556,3.0593196 L18.3149889,4.04922793 C19.1204746,4.25059936 19.7494006,4.87952539 19.9507721,5.68501109 L20.9406804,9.6446444 C21.1098196,10.3212011 20.9115844,11.036893 20.4184632,11.5300142 C19.9095307,12.0389467 19.2192702,12.324862 18.499531,12.324862 L13.6180536,11.6177552 L18.03392,13.9145575 L17.1026979,14.8457795 C16.6810844,15.267393 16.1092539,15.504253 15.5130024,15.504253 L10.4386626,14.7971462 L14.854529,17.0939484 L13.370056,18.5784214 C12.8116551,19.1368224 12.0012193,19.3613001 11.2350995,19.1697701 L7.3829602,18.2067353 L4.9189322,20.6707633 C4.47994991,21.1097456 3.768219,21.1097456 3.32923671,20.6707633 C2.89025443,20.231781 2.89025443,19.5200501 3.32923671,19.0810678 L5.79246987,16.6178346 L4.83022989,12.7649005 C4.63869994,11.9987807 4.86317765,11.1883449 5.42157862,10.629944 L6.90605156,9.14547102 L9.20205897,13.5605425 L8.49574704,8.48699759 C8.49574704,7.89074612 8.73260702,7.31891556 9.15422047,6.8973021 L10.0854425,5.96608005 L12.3814499,10.3811515 L11.675138,5.30760662 C11.675138,4.71135515 11.911998,4.13952459 12.3336114,3.71791113 L12.4699858,3.58153682 C12.963107,3.08841561 13.6787989,2.89018042 14.3553556,3.0593196 Z" id="Path" fill="#FFFFFF"></path>
    </g>
</svg>