<?xml version="1.0" encoding="UTF-8"?>
<svg width="24px" height="24px" viewBox="0 0 24 24" version="1.1" xmlns="http://www.w3.org/2000/svg" xmlns:xlink="http://www.w3.org/1999/xlink">
    <title>Icon/Feather/Outline</title>
    <g id="Icon/Feather/Outline" stroke="none" stroke-width="1" fill="none" fill-rule="evenodd">
        <path d="M11.7173494,4.53759911 L11.565008,4.70034813 C11.2720574,5.0348012 11.0500435,5.42167352 10.9087396,5.83736976 L10.867,5.973 L10.8085304,5.97440179 C10.4611733,5.99590953 10.1169726,6.13797583 9.84387527,6.4110732 L9.06785689,7.18709158 L8.91551549,7.34984061 C8.62256497,7.68429367 8.40055099,8.07116599 8.25924708,8.48686223 L8.218,8.622 L8.15903792,8.62389427 C7.81168083,8.645402 7.46748016,8.78746831 7.19438279,9.06056568 L5.95732201,10.2976265 L5.81468293,10.4493273 C5.08194929,11.2783709 4.79948472,12.4192481 5.06997783,13.5012205 L5.665,15.888 L4.21370376,17.3402297 C3.26209875,18.2918347 3.26209875,19.8346912 4.21370376,20.7862962 L4.34702181,20.9101622 C5.30434686,21.7359351 6.7514201,21.6946465 7.65977034,20.7862962 L9.112,19.333 L11.4987795,19.9300222 C12.6483752,20.2174211 13.8644689,19.8805826 14.7023735,19.042678 L15.9394343,17.8056172 L16.0357204,17.7000099 C16.2461532,17.4464357 16.3572763,17.1449282 16.3761031,16.8410018 L16.377,16.781 L16.5131378,16.7407529 C16.9981167,16.5758984 17.4438631,16.3011884 17.8129084,15.9321431 L18.5889268,15.1561247 L18.6852129,15.0505175 C18.8956457,14.7969432 19.0067688,14.4954357 19.0255956,14.1915093 L19.027,14.102 L19.0372533,14.0998067 C19.6126638,13.9201464 20.1419446,13.6031069 20.5760462,13.1690054 C21.359551,12.3855005 21.6745207,11.24836 21.4057807,10.1734002 L20.5808571,6.8737058 C20.2786907,5.66503989 19.3349601,4.72130934 18.1262942,4.41914286 L14.8265998,3.59421925 C13.75164,3.3254793 12.6144995,3.64044899 11.8309946,4.42395385 L11.7173494,4.53759911 Z M14.4627963,5.049433 L17.7624908,5.87435661 C18.4337288,6.04216613 18.9578339,6.56627116 19.1256434,7.23750924 L19.950567,10.5372037 C20.0915163,11.1010009 19.9263203,11.6974109 19.515386,12.1083452 C19.0912756,12.5324556 18.5160585,12.7707183 17.9162758,12.7707183 L13.848378,12.1814627 L17.5282666,14.0954646 L16.7522482,14.8714829 C16.4009037,15.2228275 15.9243782,15.4202108 15.427502,15.4202108 L11.1988855,14.8309551 L14.8787742,16.744957 L13.6417134,17.9820178 C13.1763792,18.447352 12.5010161,18.6344167 11.8625829,18.4748084 L8.65246683,17.6722794 L6.59911017,19.7256361 C6.23329159,20.0914546 5.6401825,20.0914546 5.27436393,19.7256361 C4.90854536,19.3598175 4.90854536,18.7667084 5.27436393,18.4008898 L7.32705822,16.3481955 L6.52519158,13.1374171 C6.36558328,12.4989839 6.55264804,11.8236208 7.01798218,11.3582866 L8.25504296,10.1212258 L10.1683825,13.8004521 L9.5797892,9.57249799 C9.5797892,9.07562177 9.77717251,8.5990963 10.1285171,8.24775175 L10.9045354,7.47173337 L12.817875,11.1509596 L12.2292817,6.92300552 C12.2292817,6.42612929 12.426665,5.94960382 12.7780095,5.59825928 L12.8916548,5.48461402 C13.3025891,5.07367967 13.8989991,4.90848369 14.4627963,5.049433 Z" id="Path" fill="#FFFFFF"></path>
    </g>
</svg>