<?xml version="1.0" encoding="UTF-8"?>
<svg width="24px" height="24px" viewBox="0 0 24 24" version="1.1" xmlns="http://www.w3.org/2000/svg" xmlns:xlink="http://www.w3.org/1999/xlink">
    <title>Icon/Docs/Filled</title>
    <g id="Icon/Docs/Filled" stroke="none" stroke-width="1" fill="none" fill-rule="evenodd">
        <path d="M11.9986463,3 L11.9998462,6.60030752 C11.9998462,8.58849016 13.6115867,10.2002306 15.5997694,10.2002306 L19.1996925,10.2013552 L19.1996925,18.0000641 L19.1933114,18.1973107 C19.0959733,19.6969803 17.8966728,20.8962808 16.3970032,20.9936189 L16.1997565,21 L7.79993593,21 L7.60268932,20.9936189 C6.10301971,20.8962808 4.9037192,19.6969803 4.80638108,18.1973107 L4.8,18.0000641 L4.8,6.00032034 L4.80638108,5.80307372 C4.9037192,4.30340412 6.10301971,3.1041036 7.60268932,3.00676548 L7.79993593,3.0003844 L11.9986463,3 Z M15.9004589,16.8000897 L8.09923399,16.8000897 C7.60257246,16.8000897 7.19994875,17.2027134 7.19994875,17.6993749 C7.19994875,18.1960365 7.60257246,18.5986602 8.09923399,18.5986602 L15.9004589,18.5986602 C16.3971205,18.5986602 16.7997437,18.1960365 16.7997437,17.6993749 C16.7997437,17.2027134 16.3971205,16.8000897 15.9004589,16.8000897 Z M15.9004589,13.2001666 L8.09923399,13.2001666 C7.60257246,13.2001666 7.19994875,13.6027903 7.19994875,14.0994518 C7.19994875,14.5961133 7.60257246,14.9987371 8.09923399,14.9987371 L15.9004589,14.9987371 C16.3971205,14.9987371 16.7997437,14.5961133 16.7997437,14.0994518 C16.7997437,13.6027903 16.3971205,13.2001666 15.9004589,13.2001666 Z M10.5005743,9.60024346 L8.09923399,9.60024346 C7.60257246,9.60024346 7.19994875,10.0028672 7.19994875,10.4995287 C7.19994875,10.9961902 7.60257246,11.3988139 8.09923399,11.3988139 L10.5005743,11.3988139 C10.9972358,11.3988139 11.3998591,10.9961902 11.3998591,10.4995287 C11.3998591,10.0028672 10.9972358,9.60024346 10.5005743,9.60024346 Z M13.7998078,3.0003844 L19.1996925,8.40026908 L15.5997694,8.40026908 C14.605678,8.40026908 13.7998078,7.59439884 13.7998078,6.60030752 L13.7998078,3.0003844 Z" id="Shape" fill="#FFFFFF"></path>
    </g>
</svg>