<?xml version="1.0" encoding="UTF-8"?>
<svg width="24px" height="24px" viewBox="0 0 24 24" version="1.1" xmlns="http://www.w3.org/2000/svg" xmlns:xlink="http://www.w3.org/1999/xlink">
    <title>Icon/Docs/Outline</title>
    <g id="Icon/Docs/Outline" stroke="none" stroke-width="1" fill="none" fill-rule="evenodd">
        <path d="M13,3 L19.5,9.5 L19.5,17 C19.5,19.209139 17.709139,21 15.5,21 L8.5,21 C6.290861,21 4.5,19.209139 4.5,17 L4.5,7 C4.5,4.790861 6.290861,3 8.5,3 L13,3 Z M13,4.5 L8.5,4.5 C7.1745166,4.5 6.08996133,5.53153594 6.00531768,6.83562431 L6,7 L6,17 C6,18.3254834 7.03153594,19.4100387 8.33562431,19.4946823 L8.5,19.5 L15.5,19.5 C16.8254834,19.5 17.9100387,18.4684641 17.9946823,17.1643757 L18,17 L18,9.50093713 L15,9.5 C13.8954305,9.5 13,8.6045695 13,7.5 L13,4.5 Z M15.25058,16 C15.6644734,16 16,16.3355269 16,16.7494204 C16,17.1288227 15.7180645,17.4423754 15.3522719,17.4919994 L15.25058,17.4988407 L8.74942037,17.4988407 C8.33552693,17.4988407 8,17.1633138 8,16.7494204 C8,16.3700181 8.28193582,16.0564654 8.64772847,16.0068413 L8.74942037,16 L15.25058,16 Z M15.25058,13 C15.6644734,13 16,13.3355269 16,13.7494204 C16,14.1288227 15.7180645,14.4423754 15.3522719,14.4919994 L15.25058,14.4988407 L8.74942037,14.4988407 C8.33552693,14.4988407 8,14.1633138 8,13.7494204 C8,13.3700181 8.28193582,13.0564654 8.64772847,13.0068413 L8.74942037,13 L15.25058,13 Z M11.75058,10 C12.1644734,10 12.5,10.3355269 12.5,10.7494204 C12.5,11.1288227 12.2180645,11.4423754 11.8522719,11.4919994 L11.75058,11.4988407 L8.74942037,11.4988407 C8.33552693,11.4988407 8,11.1633138 8,10.7494204 C8,10.3700181 8.28193582,10.0564654 8.64772847,10.0068413 L8.74942037,10 L11.75058,10 Z" id="Shape" fill="#FFFFFF"></path>
    </g>
</svg>