<svg height="24" viewBox="0 0 24 24" width="24" xmlns="http://www.w3.org/2000/svg"><path d="m5 18c-.55228475 0-1-.4477153-1-1 0-.5128358.38604019-.9355072.88337887-.9932723l.11662113-.0067277c.55228475 0 1-.4477153 1-1v-3c0-3.3137085 2.6862915-6 6-6 3.2383969 0 5.8775718 2.56557489 5.9958615 5.7750617l.0041385.2249383v3c0 .5128358.3860402.9355072.8833789.9932723l.1166211.0067277c.5522847 0 1 .4477153 1 1s-.4477153 1-1 1h-4c0 1.6568542-1.3431458 3-3 3-1.5976809 0-2.90366088-1.24892-2.99490731-2.8237272l-.00509269-.1762728zm7-15c.5522847 0 1 .44771525 1 1s-.4477153 1-1 1-1-.44771525-1-1 .4477153-1 1-1z" fill="#fff" fill-rule="evenodd"/></svg>