<svg height="24" viewBox="0 0 24 24" width="24" xmlns="http://www.w3.org/2000/svg"><g fill="none" fill-rule="evenodd"><path d="m10 7c0 3.3137085 2.6862915 6 6 6 .7015272 0 1.3749342-.1203964 2.0006859-.3416539l-.0006859 2.3416539c0 .5128358.3860402.9355072.8833789.9932723l.1166211.0067277c.5522847 0 1 .4477153 1 1s-.4477153 1-1 1h-4c0 1.6568542-1.3431458 3-3 3-1.5976809 0-2.90366088-1.24892-2.99490731-2.8237272l-.00509269-.1762728h-4c-.55228475 0-1-.4477153-1-1 0-.5128358.38604019-.9355072.88337887-.9932723l.11662113-.0067277c.55228475 0 1-.4477153 1-1v-3c0-2.62611399 1.68714217-4.8581748 4.0366535-5.67140942-.0240507.22041082-.0366535.44443835-.0366535.67140942z" fill="#fff"/><circle class="badge" cx="16" cy="7" fill="#ff4746" r="4"/></g></svg>
