<svg height="24" viewBox="0 0 24 24" width="24" xmlns="http://www.w3.org/2000/svg"><path d="m16.5 4.5.335153.03723922c1.0983403.12203781 1.7785783.35561696 2.3646268.72614435s1.0361036.87335815 1.3396465 1.49674013.4605737 1.32525399.4605737 2.43035341v4.76814159c0 1.7550451-1.2688342 3.2528537-3 3.5413813l-2.5653283.4275547c-.1938417.032307-.255667.0458899-.3239433.0671504-.0682762.0212606-.1271796.0475613-.188587.0842054l-.0760518.0495977c-.0427942.0303465-.0981214.0731172-.1901931.1467746l-3.0941589 2.4753271c-.4145504.3316403-1.0194575.2644284-1.3510978-.150122-.1363537-.1704421-.2106398-.3822155-.2106398-.6004879v-.8653312c0-.4100649-.03735905-.5591434-.11018378-.71285-.07282474-.1537065-.18111516-.2785664-.32297792-.3723966-.14186275-.0938302-.28415959-.1518967-.69010314-.2098886l-2.37673516-.3395336c-.68532867-.0979041-1.30266045-.3481693-1.82117897-.715264-.51851851-.3670947-.93822377-.8510189-1.2282994-1.4162411s-.45052163-1.2117423-.45052163-1.9040288v-4.27398899c0-1.10509942.15703079-1.80697143.46057371-2.43035341s.75359796-1.12621274 1.33964646-1.49674013 1.26628654-.60410654 2.36462687-.72614435l.33515296-.03723922c2.9907975-.33231083 6.0092025-.33231083 9 0zm-.5 7.5h-8c-.55228475 0-1 .4477153-1 1 0 .5128358.38604019.9355072.88337887.9932723l.11662113.0067277h8c.5522847 0 1-.4477153 1-1 0-.5128358-.3860402-.9355072-.8833789-.9932723zm0-4h-8c-.55228475 0-1 .44771525-1 1 0 .51283584.38604019.93550716.88337887.99327227l.11662113.00672773h8c.5522847 0 1-.44771525 1-1 0-.51283584-.3860402-.93550716-.8833789-.99327227z" fill="#fff" fill-rule="evenodd"/></svg>