<svg viewBox="0 0 24 24" xmlns="http://www.w3.org/2000/svg"><path d="M16.5 3.75l.335.036c1.098.123 1.779.356 2.365.727.586.37 1.036.873 1.34 1.496.303.624.46 1.326.46 2.43v4.769a3.59 3.59 0 01-3 3.541l-2.565.428a2.29 2.29 0 00-.324.067.847.847 0 00-.189.084l-.076.05c-.043.03-.098.073-.19.147l-3.094 2.765A.961.961 0 0110 19.54v-.866c0-.41-.037-.85-.11-1.003a.903.903 0 00-.323-.372c-.142-.094-.284-.152-.69-.21l-2.377-.34a4.153 4.153 0 01-1.821-.715 3.93 3.93 0 01-1.228-1.416A4.153 4.153 0 013 12.714V8.44c0-1.105.157-1.807.46-2.43A3.619 3.619 0 014.8 4.512c.586-.37 1.267-.604 2.365-.727L7.5 3.75a40.75 40.75 0 019 0zm-.5 7.5H8a1 1 0 00-.117 1.993l.117.006h8a1 1 0 00.117-1.993L16 11.249zm0-4H8a1 1 0 00-.117 1.993L8 9.249h8a1 1 0 00.117-1.993L16 7.249z" fill="#FFF" fill-rule="evenodd"/></svg>
