<svg height="24" viewBox="0 0 24 24" width="24" xmlns="http://www.w3.org/2000/svg"><path d="m12.0512129 3c-.6488637.635004-1.0512129 1.52051515-1.0512129 2.5 0 1.87791123 1.4789649 3.4103917 3.3356633 3.49621009.5601772 1.18442621 1.7665706 2.00378991 3.1643367 2.00378991.1825608 0 .361857-.0139773.5368769-.0409201-.0246613.1755629-.0368769.3565772-.0368769.5409201 0 1.7354553 1.0826493 3.1758999 2.5029641 3.4521859-1.2206391 3.5208311-4.5666973 6.0478141-8.5029641 6.0478141-4.97056275 0-9-4.0294373-9-9 0-4.97056275 4.02943725-9 9-9zm-.0512129 13c-.5522847 0-1 .4477153-1 1s.4477153 1 1 1 1-.4477153 1-1-.4477153-1-1-1zm-4.5-2c-.27614238 0-.5.2238576-.5.5s.22385762.5.5.5c.27614237 0 .5-.2238576.5-.5s-.22385763-.5-.5-.5zm7-1c-.2761424 0-.5.2238576-.5.5s.2238576.5.5.5.5-.2238576.5-.5-.2238576-.5-.5-.5zm-6-5c-.82842712 0-1.5.67157288-1.5 1.5 0 .8284271.67157288 1.5 1.5 1.5s1.5-.6715729 1.5-1.5c0-.82842712-.67157288-1.5-1.5-1.5zm8.5-2c.5522847 0 1 .44771525 1 1s-.4477153 1-1 1-1-.44771525-1-1 .4477153-1 1-1zm3.5 1c.2761424 0 .5.22385763.5.5s-.2238576.5-.5.5-.5-.22385763-.5-.5.2238576-.5.5-.5zm-6-3c.2761424 0 .5.22385763.5.5s-.2238576.5-.5.5-.5-.22385763-.5-.5.2238576-.5.5-.5z" fill="#fff" fill-rule="evenodd"/></svg>