<svg height="24" viewBox="0 0 24 24" width="24" xmlns="http://www.w3.org/2000/svg"><path d="m6.90605156 9.14547102 2.29600741 4.41507148-.70631193-5.07354491c0-.59625147.23685998-1.16808203.65847343-1.58969549l.93122203-.93122205 2.2960074 4.41507145-.7063119-5.07354488c0-.59625147.23686-1.16808203.6584734-1.58969549l.1363744-.13637431c.4931212-.49312121 1.2088131-.6913564 1.8853698-.52221722l3.9596333.98990833c.8054857.20137143 1.4344117.83029746 1.6357832 1.63578316l.9899083 3.95963331c.1691392.6765567-.029096 1.3922486-.5222172 1.8853698-.5089325.5089325-1.199193.7948478-1.9189322.7948478l-4.8814774-.7071068 4.4158664 2.2968023-.9312221.931222c-.4216135.4216135-.993444.6584735-1.5896955.6584735l-5.0743398-.7071068 4.4158664 2.2968022-1.484473 1.484473c-.5584009.558401-1.3688367.7828787-2.1349565.5913487l-3.8521393-.9630348-2.464028 2.464028c-.43898229.4389823-1.1507132.4389823-1.58969549 0-.43898228-.4389823-.43898228-1.1507132 0-1.5896955l2.46323316-2.4632332-.96223998-3.8529341c-.19152995-.7661198.03294776-1.5765556.59134873-2.1349565z" fill="#fff" fill-rule="evenodd"/></svg>