<?xml version="1.0" encoding="UTF-8"?>
<svg width="24px" height="24px" viewBox="0 0 24 24" version="1.1" xmlns="http://www.w3.org/2000/svg" xmlns:xlink="http://www.w3.org/1999/xlink">
    <!-- Generator: Sketch 57.1 (83088) - https://sketch.com -->
    <title>Layout</title>
    <desc>Created with Sketch.</desc>
    <g id="Icons" stroke="none" stroke-width="1" fill="none" fill-rule="evenodd">
        <g id="Layout" fill="#FFFFFF">
            <path d="M22,19 C22,20.1045695 21.1045695,21 20,21 L4,21 C2.8954305,21 2,20.1045695 2,19 L2,5 C2,3.8954305 2.8954305,3 4,3 L20,3 C21.1045695,3 22,3.8954305 22,5 L22,19 Z M20,11 L20,7 C20,6.48716416 19.6139598,6.06449284 19.1166211,6.00672773 L19,6 L5,6 C4.48716416,6 4.06449284,6.38604019 4.00672773,6.88337887 L4,7 L4,11 C4,11.5128358 4.38604019,11.9355072 4.88337887,11.9932723 L5,12 L19,12 C19.5522847,12 20,11.5522847 20,11 Z M8,17 L8,15 C8,14.4477153 7.55228475,14 7,14 L5,14 C4.44771525,14 4,14.4477153 4,15 L4,17 C4,17.5522847 4.44771525,18 5,18 L7,18 C7.55228475,18 8,17.5522847 8,17 Z M14,17 L14,15 C14,14.4871642 13.6139598,14.0644928 13.1166211,14.0067277 L13,14 L11,14 C10.4871642,14 10.0644928,14.3860402 10.0067277,14.8833789 L10,15 L10,17 C10,17.5128358 10.3860402,17.9355072 10.8833789,17.9932723 L11,18 L13,18 C13.5522847,18 14,17.5522847 14,17 Z M20,17 L20,15 C20,14.4871642 19.6139598,14.0644928 19.1166211,14.0067277 L19,14 L17,14 C16.4871642,14 16.0644928,14.3860402 16.0067277,14.8833789 L16,15 L16,17 C16,17.5128358 16.3860402,17.9355072 16.8833789,17.9932723 L17,18 L19,18 C19.5522847,18 20,17.5522847 20,17 Z" id="Shape"></path>
        </g>
    </g>
</svg>