<?xml version="1.0" encoding="UTF-8"?>
<svg width="24px" height="24px" viewBox="0 0 24 24" version="1.1" xmlns="http://www.w3.org/2000/svg" xmlns:xlink="http://www.w3.org/1999/xlink">
    <!-- Generator: Sketch 53.2 (72643) - https://sketchapp.com -->
    <title>Magnifying Glass</title>
    <desc>Created with Sketch.</desc>
    <g id="Icons" stroke="none" stroke-width="1" fill="none" fill-rule="evenodd">
        <g id="Magnifying-Glass" fill="#FFFFFF">
            <path d="M17.9406602,15.8193398 L20.0619805,17.9406602 C20.647767,18.5264466 20.647767,19.4761941 20.0619805,20.0619805 C19.4761941,20.647767 18.5264466,20.647767 17.9406602,20.0619805 L15.8193398,17.9406602 C15.2335534,17.3548737 15.2335534,16.4051263 15.8193398,15.8193398 C16.4051263,15.2335534 17.3548737,15.2335534 17.9406602,15.8193398 Z M10.5,15.5 C13.2614237,15.5 15.5,13.2614237 15.5,10.5 C15.5,7.73857625 13.2614237,5.5 10.5,5.5 C7.73857625,5.5 5.5,7.73857625 5.5,10.5 C5.5,13.2614237 7.73857625,15.5 10.5,15.5 Z M10.5,17.5 C6.63400675,17.5 3.5,14.3659932 3.5,10.5 C3.5,6.63400675 6.63400675,3.5 10.5,3.5 C14.3659932,3.5 17.5,6.63400675 17.5,10.5 C17.5,14.3659932 14.3659932,17.5 10.5,17.5 Z" id="Shape"></path>
        </g>
    </g>
</svg>