<?xml version="1.0" encoding="UTF-8"?>
<svg width="24px" height="24px" viewBox="0 0 24 24" version="1.1" xmlns="http://www.w3.org/2000/svg" xmlns:xlink="http://www.w3.org/1999/xlink">
    <!-- Generator: Sketch 52.5 (67469) - http://www.bohemiancoding.com/sketch -->
    <title>Plus</title>
    <desc>Created with Sketch.</desc>
    <g id="Icons" stroke="none" stroke-width="1" fill="none" fill-rule="evenodd">
        <g id="Plus" fill="#FFFFFF">
            <path d="M13.7802098,10.2197902 L18.2197902,10.2197902 C19.2029729,10.2197902 20,11.0168173 20,12 C20,12.9831827 19.2029729,13.7802098 18.2197902,13.7802098 L13.7802098,13.7802098 L13.7802098,18.2197902 C13.7802098,19.2029729 12.9831827,20 12,20 C11.0168173,20 10.2197902,19.2029729 10.2197902,18.2197902 L10.2197902,13.7802098 L5.7802098,13.7802098 C4.79702708,13.7802098 4,12.9831827 4,12 C4,11.0168173 4.79702708,10.2197902 5.7802098,10.2197902 L10.2197902,10.2197902 L10.2197902,5.7802098 C10.2197902,4.79702708 11.0168173,4 12,4 C12.9831827,4 13.7802098,4.79702708 13.7802098,5.7802098 L13.7802098,10.2197902 Z" id="Path"></path>
        </g>
    </g>
</svg>