<?xml version="1.0" encoding="UTF-8"?>
<svg width="24px" height="24px" viewBox="0 0 24 24" version="1.1" xmlns="http://www.w3.org/2000/svg" xmlns:xlink="http://www.w3.org/1999/xlink">
    <!-- Generator: Sketch 52.5 (67469) - http://www.bohemiancoding.com/sketch -->
    <title>share</title>
    <desc>Created with Sketch.</desc>
    <g id="Icons" stroke="none" stroke-width="1" fill="none" fill-rule="evenodd">
        <g id="share" fill="#FFFFFF" fill-rule="nonzero">
            <path d="M17.8126916,11.5 L14.8521582,8.53946668 L13.0001144,6.68174338 C12.3866285,6.06825748 12.3866285,5.07360032 13.0001144,4.46011442 C13.6136003,3.84662853 14.6082575,3.84662853 15.2217434,4.46011442 L21.1479747,10.3863458 C21.4554399,10.6938109 21.6088105,11.0970182 21.6080866,11.5 C21.6088105,11.9029818 21.4554399,12.3061891 21.1479747,12.6136542 L15.2217434,18.5398856 C14.6082575,19.1533715 13.6136003,19.1533715 13.0001144,18.5398856 C12.3866285,17.9263997 12.3866285,16.9317425 13.0001144,16.3182566 L14.8540512,14.4643199 L17.8126916,11.5 Z" id="Path"></path>
            <path d="M4,19.5 L4,19.5 C3.50279917,14.7765921 6.92881693,10.5444525 11.6522248,10.0472517 C11.9512796,10.0157722 12.2517796,10 12.5524866,10 L18,10 L18,13 L12.8007353,13 C8.75841431,13 5.18878939,15.6364345 4,19.5 Z" id="Path"></path>
        </g>
    </g>
</svg>