<svg height="24" viewBox="0 0 24 24" width="24" xmlns="http://www.w3.org/2000/svg"><g fill="none"><g fill="#e01e5a" transform="translate(2 12.483871)"><path d="m4.25806452 2.12903226c0 1.14516129-.93548387 2.08064516-2.08064517 2.08064516-1.14516129 0-2.08064516-.93548387-2.08064516-2.08064516 0-1.14516129.93548387-2.08064516 2.08064516-2.08064516h2.08064517z"/><path d="m5.30645161 2.12903226c0-1.14516129.93548387-2.08064516 2.08064516-2.08064516s2.08064517.93548387 2.08064517 2.08064516v5.20967742c0 1.14516129-.93548388 2.08064516-2.08064517 2.08064516s-2.08064516-.93548387-2.08064516-2.08064516z"/></g><g fill="#36c5f0" transform="translate(2 2)"><path d="m7.38709677 4.25806452c-1.14516129 0-2.08064516-.93548387-2.08064516-2.08064517 0-1.14516129.93548387-2.08064516 2.08064516-2.08064516s2.08064517.93548387 2.08064517 2.08064516v2.08064517z"/><path d="m7.38709677 5.30645161c1.14516129 0 2.08064517.93548387 2.08064517 2.08064516s-.93548388 2.08064517-2.08064517 2.08064517h-5.20967742c-1.14516129 0-2.08064516-.93548388-2.08064516-2.08064517s.93548387-2.08064516 2.08064516-2.08064516z"/></g><g fill="#2eb67d" transform="translate(12.483871 2)"><path d="m5.25806452 7.38709677c0-1.14516129.93548387-2.08064516 2.08064516-2.08064516s2.08064516.93548387 2.08064516 2.08064516-.93548387 2.08064517-2.08064516 2.08064517h-2.08064516z"/><path d="m4.20967742 7.38709677c0 1.14516129-.93548387 2.08064517-2.08064516 2.08064517-1.14516129 0-2.08064516-.93548388-2.08064516-2.08064517v-5.20967742c0-1.14516129.93548387-2.08064516 2.08064516-2.08064516s2.08064516.93548387 2.08064516 2.08064516z"/></g><g fill="#ecb22e" transform="translate(12.483871 12.483871)"><path d="m2.12903226 5.25806452c1.14516129 0 2.08064516.93548387 2.08064516 2.08064516s-.93548387 2.08064516-2.08064516 2.08064516c-1.14516129 0-2.08064516-.93548387-2.08064516-2.08064516v-2.08064516z"/><path d="m2.12903226 4.20967742c-1.14516129 0-2.08064516-.93548387-2.08064516-2.08064516 0-1.14516129.93548387-2.08064516 2.08064516-2.08064516h5.20967742c1.14516129 0 2.08064516.93548387 2.08064516 2.08064516s-.93548387 2.08064516-2.08064516 2.08064516z"/></g></g></svg>