<svg height="24" viewBox="0 0 24 24" width="24" xmlns="http://www.w3.org/2000/svg"><path d="m16.9132005 9c.5522847 0 1 .44771525 1 1l-.0034543.0830455-.7569204 9.0830455c-.0863821 1.0365842-.9529143 1.833909-1.9930916 1.833909h-6.31946844c-1.04017727 0-1.90670949-.7973248-1.99309151-1.833909l-.75692046-9.0830455c-.04586475-.55037704.36312325-1.03372651.91350028-1.07959126l.04148683-.00259031zm-6.9132005 3c-.51283584 0-.93550716.3860402-.99327227.8833789l-.00672773.1166211v4c0 .5522847.44771525 1 1 1 .5128358 0 .9355072-.3860402.9932723-.8833789l.0067277-.1166211v-4c0-.5522847-.4477153-1-1-1zm4 0c-.5128358 0-.9355072.3860402-.9932723.8833789l-.0067277.1166211v4c0 .5522847.4477153 1 1 1 .5128358 0 .9355072-.3860402.9932723-.8833789l.0067277-.1166211v-4c0-.5522847-.4477153-1-1-1zm-2-9c1.0543618 0 1.9181651.81587779 1.9945143 1.85073766l.0054857.14926234h5c.5522847 0 1 .44771525 1 1s-.4477153 1-1 1h-14c-.55228475 0-1-.44771525-1-1s.44771525-1 1-1h5c0-1.1045695.8954305-2 2-2z" fill="#fff" fill-rule="evenodd"/></svg>