<svg height="24" viewBox="0 0 24 24" width="24" xmlns="http://www.w3.org/2000/svg"><path d="m13.1624764 3.81346316c.179591.12827932.3367112.28539952.4649905.46499056l6.6730887 9.34232408c.3210089.4494126.2169173 1.0739627-.2324953 1.3949716-.2516686.1797633-.572353.2329628-.8685861.1440929l-4.0321451-1.210017c-.5289794-.1587428-1.0864884.1413932-1.2452312.6703726-.0143544.0478334-.0251055.096675-.0321629.1461147l-.7672809 5.3751088c-.0703784.4926487-.4922991.8585786-.9899495.8585786h-.2654092c-.4976504 0-.9195711-.3659299-.9899495-.8585786l-.7678359-5.3751991c-.0780999-.5467347-.58462849-.9266382-1.1313632-.8485383-.04941798.0070592-.09823799.017809-.1460506.032159l-4.0315704 1.2099993c-.52899285.1586978-1.08647632-.1414856-1.24517417-.6704784-.08886993-.2962331-.03567046-.6169175.14409281-.8685861l6.67308866-9.34232408c.6420179-.89882517 1.8911181-1.10700854 2.7899433-.46499056z" fill="#fff" fill-rule="evenodd"/></svg>