<svg height="24" viewBox="0 0 24 24" width="24"
     xmlns="http://www.w3.org/2000/svg"
     xmlns:xlink="http://www.w3.org/1999/xlink">
  <path
    d="m2.08147003 11.7169746c-.00042497 1.7125075.44696167 3.3841423 1.29738849 4.8574087l-1.37885852 5.0341503 5.15209002-1.3508724c1.31036597.7145688 2.77287984 1.1171556 4.26941778 1.1753926l.3789258.0073666c5.3560333 0 9.7164423-4.3590083 9.7186846-9.7156019.0008953-2.5962152-1.0092405-5.0372318-2.8440019-6.87356207-1.8350417-1.83633027-4.2749657-2.84820288-6.8746827-2.84932345-5.3571539 0-9.71672243 4.35816782-9.71896357 9.71504162zm9.72181817-8.07408232c2.1577091.00084042 4.1856004.84202256 5.7109732 2.36820772 1.5252046 1.52629721 2.3644538 3.55528108 2.3638661 5.7129341-.0019404 4.3701206-3.4926311 7.9409088-7.8314133 8.0716615l-.249642.0037095c-1.4497064-.0008405-2.87145469-.3899856-4.11136282-1.1257503l-.29510149-.1749263-3.0574689.8015981.81644533-2.9797799-.19232023-.3054668c-.80871369-1.2857393-1.23553791-2.7717241-1.23495083-4.297377.00176611-4.45229548 3.62531778-8.07481062 8.08097494-8.07481062zm-3.44359042 3.58706696c-.16197806 0-.42505933.06078982-.64752003.30379612l-.16112494.17475543c-.27473462.30990018-.68888167.87970751-.68888167 1.85041852 0 .92931479.52647106 1.83422609.81750508 2.26682099l.21732548.3074699c.29000784.4295298 1.80122537 2.6941757 4.1047651 3.6025863l.4451442.1699524c1.6706089.6149179 2.0579109.4749537 2.4688921.4375353.4452295-.0404217 1.4367638-.5872335 1.6390543-1.1542967.2023997-.5669793.2023997-1.0529975.1417182-1.1544929-.0303408-.0506006-.0860057-.0910958-.1644384-.1341102l-1.0561019-.519623c-.3829691-.1855021-.7844203-.3759909-.9042521-.4196306-.2226596-.0809414-.3845508-.121363-.5465289.1217553-.16188.2428186-.6269576.789636-.7686814.9516141-.1239176.1419906-.2479082.1752509-.4396447.0999779l-.4602145-.205819c-.3722745-.170807-.9412808-.4696009-1.5791446-1.0382837-.7219258-.6436541-1.20926064-1.4385288-1.35098444-1.6816639-.14162014-.2428186-.01511926-.3743537.10663602-.495431.10910687-.1088099.24291946-.2835316.36438059-.4252554.12116143-.1418163.16158303-.2430175.24252443-.40500121.0675329-.13506575.0506497-.25606216.0080294-.36293734l-.1086578-.25043356c-.158838-.38497488-.49540991-1.23036072-.66815663-1.61451373-.18179529-.40433723-.37322747-.41243333-.54627113-.41954894-.14162015-.00602305-.3035898-.00564108-.46537176-.00564108z" fill="#FFF"/>
</svg>
