<?xml version="1.0" encoding="UTF-8"?>
<svg width="24px" height="24px" viewBox="0 0 24 24" version="1.1" xmlns="http://www.w3.org/2000/svg" xmlns:xlink="http://www.w3.org/1999/xlink">
    <!-- Generator: Sketch 52.5 (67469) - http://www.bohemiancoding.com/sketch -->
    <title>X</title>
    <desc>Created with Sketch.</desc>
    <g id="Icons" stroke="none" stroke-width="1" fill="none" fill-rule="evenodd">
        <g id="Close" fill="#FFFFFF">
            <path d="M12,9.44049024 L15.9103984,5.53009183 C16.6171875,4.82330272 17.7631191,4.82330272 18.4699082,5.53009183 C19.1766973,6.23688093 19.1766973,7.38281249 18.4699082,8.08960159 L14.5595098,12 L18.4699082,15.9103984 C19.1766973,16.6171875 19.1766973,17.7631191 18.4699082,18.4699082 C17.7631191,19.1766973 16.6171875,19.1766973 15.9103984,18.4699082 L12,14.5595098 L8.08960159,18.4699082 C7.38281249,19.1766973 6.23688093,19.1766973 5.53009183,18.4699082 C4.82330272,17.7631191 4.82330272,16.6171875 5.53009183,15.9103984 L9.44049024,12 L5.53009183,8.08960159 C4.82330272,7.38281249 4.82330272,6.23688093 5.53009183,5.53009183 C6.23688093,4.82330272 7.38281249,4.82330272 8.08960159,5.53009183 L12,9.44049024 Z" id="Combined-Shape"></path>
        </g>
    </g>
</svg>