<svg width="48" height="48" viewBox="0 0 48 48" fill="none" xmlns="http://www.w3.org/2000/svg">
<path d="M23.999 13.2002C23.999 17.1765 27.2229 20.4003 31.1992 20.4004L38.3994 20.4023V36L38.3867 36.3945C38.192 39.3938 35.7931 41.7925 32.7939 41.9873L32.3994 42H15.5996L15.2051 41.9873C12.2058 41.7926 9.80698 39.3938 9.6123 36.3945L9.59961 36V12.001L9.6123 11.6064C9.80698 8.60715 12.2058 6.2084 15.2051 6.01367L15.5996 6.00098L23.9971 6L23.999 13.2002ZM23.333 22C23.3301 26.0488 20.0487 29.3299 16 29.333V30.667C20.0487 30.6701 23.3301 33.9512 23.333 38H24.667C24.6699 33.9511 27.9511 30.6699 32 30.667L31.999 30L32 29.333C27.9511 29.3301 24.6699 26.0489 24.667 22H23.333ZM38.3994 16.8008H31.1992C29.211 16.8008 27.5996 15.1884 27.5996 13.2002V6.00098L38.3994 16.8008Z" fill="url(#paint0_linear_29691_65688)"/>
<defs>
<linearGradient id="paint0_linear_29691_65688" x1="23.9995" y1="6" x2="23.9995" y2="42" gradientUnits="userSpaceOnUse">
<stop stop-color="#EFD5C8"/>
<stop offset="0.259615" stop-color="#D2E9E3"/>
<stop offset="0.533654" stop-color="#C6DEFA"/>
<stop offset="0.793269" stop-color="#C4C7FB"/>
<stop offset="1" stop-color="#C7B6FA"/>
</linearGradient>
</defs>
</svg>
