<svg width="48" height="48" viewBox="0 0 48 48" fill="none" xmlns="http://www.w3.org/2000/svg">
<path fill-rule="evenodd" clip-rule="evenodd" d="M26 6L39 19V34C39 38.4183 35.4183 42 31 42H17C12.5817 42 9 38.4183 9 34V14C9 9.58172 12.5817 6 17 6H26ZM26 9H17C14.349 9 12.1799 11.0631 12.0106 13.6712L12 14V34C12 36.651 14.0631 38.8201 16.6712 38.9894L17 39H31C33.651 39 35.8201 36.9369 35.9894 34.3288L36 34V19.0019L30 19C27.7909 19 26 17.2091 26 15V9Z" fill="#A8B3CF"/>
<path d="M24.666 20C24.6689 24.0489 27.9511 27.3311 32 27.334V28.666C27.9511 28.6689 24.6689 31.9511 24.666 36H23.334C23.3311 31.9511 20.0489 28.6689 16 28.666V27.334C20.0489 27.3311 23.3311 24.0489 23.334 20H24.666Z" fill="#A8B3CF"/>
</svg>
