<svg width="56" height="56" viewBox="0 0 56 56" fill="none" xmlns="http://www.w3.org/2000/svg">
<path d="M44.9167 17.5C44.9167 12.6675 40.9992 8.75 36.1667 8.75H5.83334V12.25C5.83334 16.4382 9.22856 19.25 13.4167 19.25H33.2501C33.9277 19.25 34.5154 19.6352 34.8062 20.1986C34.9301 20.4387 35 20.7111 35 20.9999C35 21.9664 34.2165 22.7499 33.25 22.7499L15.1667 22.75V25.6667C15.1667 29.8548 18.5619 33.25 22.7501 33.25H33.2501C33.8541 33.25 34.3867 33.556 34.7011 34.0215C34.7987 34.1658 34.8752 34.3255 34.9264 34.4961C34.9743 34.6556 35 34.8248 35 34.9999C35 35.9664 34.2165 36.7499 33.25 36.7499H24.5V37.3333C24.5 43.4545 29.4622 47.25 35.5833 47.25H36.1667C40.9992 47.25 44.9167 43.3325 44.9167 38.5V32.6667C44.9167 31.0558 46.2225 29.75 47.8334 29.75H50.1667V26.25H47.8334C46.2225 26.25 44.9167 24.9442 44.9167 23.3333V17.5Z" fill="#ffffff" />
</svg>
