<svg width="24" height="24" viewBox="0 0 24 24" fill="none" xmlns="http://www.w3.org/2000/svg">
<g id="Filled=no">
<path id="Vector (Stroke)" fill-rule="evenodd" clip-rule="evenodd" d="M19.25 7.5C19.25 5.42893 17.5711 3.75 15.5 3.75L2.5 3.75V5.5C2.5 7.86815 4.23301 9.83154 6.5 10.1911V10.5C6.5 12.8682 8.23301 14.8315 10.5 15.1911V15.5C10.5 18.1234 12.6266 20.25 15.25 20.25H15.5C17.5711 20.25 19.25 18.5711 19.25 16.5V14C19.25 13.3096 19.8096 12.75 20.5 12.75H21.5V11.25L20.5 11.25C19.8096 11.25 19.25 10.6904 19.25 10V7.5ZM18.6125 12C18.0814 12.5014 17.75 13.212 17.75 14V16.5C17.75 17.7426 16.7426 18.75 15.5 18.75H15.25C13.4551 18.75 12 17.2949 12 15.5V15.25H14.25C14.6642 15.25 15 14.9142 15 14.5C15 14.0858 14.6642 13.75 14.25 13.75H11.25C9.45507 13.75 8 12.2949 8 10.5V10.25L14.25 10.25C14.6642 10.25 15 9.91421 15 9.5C15 9.08579 14.6642 8.75 14.25 8.75L7.25 8.75C5.45507 8.75 4 7.29493 4 5.5V5.25L15.5 5.25C16.7426 5.25 17.75 6.25736 17.75 7.5V10C17.75 10.788 18.0814 11.4986 18.6125 12Z" fill="#ffffff"/>
</g>
</svg>
