<svg xmlns="http://www.w3.org/2000/svg" width="24" height="24" fill="none" viewBox="0 0 24 24">
  <g clip-path="url(#a)">
    <path fill="url(#b)" d="M21.694 6.428c-.29-2.15-2.162-3.843-4.383-4.17C16.937 2.201 15.518 2 12.23 2h-.025c-3.288 0-3.994.202-4.368.257-2.159.32-4.13 1.841-4.608 4.015C3 7.343 2.975 8.53 3.017 9.62c.061 1.562.073 3.121.215 4.676.098 1.034.269 2.058.512 3.067.454 1.864 2.294 3.415 4.097 4.047 1.93.66 4.006.77 5.995.317.22-.051.435-.11.649-.178.483-.153 1.05-.325 1.466-.627a.047.047 0 0 0 .02-.036v-1.507a.044.044 0 0 0-.018-.035.046.046 0 0 0-.037-.008c-1.275.304-2.58.457-3.89.454-2.255 0-2.862-1.07-3.035-1.515a4.697 4.697 0 0 1-.264-1.194.043.043 0 0 1 .016-.036.044.044 0 0 1 .038-.009c1.253.302 2.538.455 3.827.455.31 0 .62 0 .93-.009 1.296-.036 2.662-.102 3.938-.351.032-.007.064-.012.09-.02 2.013-.387 3.928-1.6 4.122-4.67.007-.12.026-1.266.026-1.392 0-.426.137-3.024-.02-4.62Z"/>
    <path fill="#fff" d="M18.506 8.842v5.339H16.39V8.999c0-1.09-.454-1.647-1.379-1.647-1.016 0-1.525.658-1.525 1.958v2.836h-2.103V9.31c0-1.3-.51-1.958-1.527-1.958-.92 0-1.378.557-1.378 1.647v5.182H6.363V8.842c0-1.09.279-1.957.836-2.6.574-.64 1.328-.97 2.263-.97 1.083 0 1.902.417 2.447 1.249l.526.883.528-.883c.545-.832 1.364-1.249 2.445-1.249.934 0 1.688.33 2.264.97.557.642.835 1.509.834 2.6Z"/>
  </g>
  <defs>
    <linearGradient id="b" x1="12.385" x2="12.385" y1="2" y2="22" gradientUnits="userSpaceOnUse">
      <stop stop-color="#6364FF"/>
      <stop offset="1" stop-color="#563ACC"/>
    </linearGradient>
    <clipPath id="a">
      <path fill="#fff" d="M3 2h18.987v20H3z"/>
    </clipPath>
  </defs>
</svg>
