<?xml version="1.0" encoding="UTF-8"?>
<svg width="24px" height="24px" viewBox="0 0 24 24" version="1.1" xmlns="http://www.w3.org/2000/svg" xmlns:xlink="http://www.w3.org/1999/xlink">
    <title>Icon/Play/Outline</title>
    <g id="Icon/Play/Outline" stroke="none" stroke-width="1" fill="none" fill-rule="evenodd">
        <path d="M12,3 C16.9705627,3 21,7.02943725 21,12 C21,16.9705627 16.9705627,21 12,21 C7.02943725,21 3,16.9705627 3,12 C3,7.02943725 7.02943725,3 12,3 Z M12,4.5 C16.1421356,4.5 19.5,7.85786438 19.5,12 C19.5,16.1421356 16.1421356,19.5 12,19.5 C7.85786438,19.5 4.5,16.1421356 4.5,12 C4.5,7.85786438 7.85786438,4.5 12,4.5 Z M10,7.75140956 C9.48716416,7.75140956 9.06449284,8.13744975 9.00672773,8.63478844 L9,8.75140956 L9,15.2517643 C9,15.4300063 9.04764068,15.6050092 9.13799005,15.7586556 C9.39794211,16.2007252 9.94496103,16.3693917 10.4029526,16.1670891 L10.5068914,16.1137742 L16.034082,12.8635969 C16.1807358,12.7773594 16.3029632,12.6551321 16.3892006,12.5084783 C16.6491527,12.0664087 16.5306306,11.5063814 16.1312004,11.2044906 L16.034082,11.139577 L10.5068914,7.88939961 C10.3532449,7.79905024 10.1782421,7.75140956 10,7.75140956 Z" id="Shape" fill="#FFFFFF"></path>
    </g>
</svg>