<?xml version="1.0" encoding="UTF-8"?>
<svg width="24px" height="24px" viewBox="0 0 24 24" version="1.1" xmlns="http://www.w3.org/2000/svg" xmlns:xlink="http://www.w3.org/1999/xlink">
    <title>Icon/Moon/Filled</title>
    <g id="Icon/Moon/Filled" stroke="none" stroke-width="1" fill="none" fill-rule="evenodd">
        <path d="M10.3508971,4.91880237 L10.2620921,5.01702872 C8.73127727,6.54964912 8.22136535,8.84464446 9.03100561,10.9363738 C9.9371335,13.2774496 12.3797083,14.7287753 14.8505544,14.3933842 C16.5458294,14.1630301 17.9748033,13.2019569 18.8258703,11.7861454 C19.4580343,10.7321384 21.0815375,11.2254153 20.9968054,12.4681776 C20.7309765,16.3455107 18.0498894,19.669563 14.2554929,20.6870225 C9.15932587,22.0535489 4.23321897,18.8110379 3.19194072,13.5747883 C2.41591366,9.67064807 4.02053467,5.65574996 7.50681103,3.74274729 C8.02064858,3.46130028 8.550021,3.23401827 9.09174473,3.06056849 C10.2247345,2.6976588 11.0604883,4.04798357 10.3508971,4.91880237 Z" id="Path" fill="#FFFFFF"></path>
    </g>
</svg>