<?xml version="1.0" encoding="UTF-8"?>
<svg width="24px" height="24px" viewBox="0 0 24 24" version="1.1" xmlns="http://www.w3.org/2000/svg" xmlns:xlink="http://www.w3.org/1999/xlink">
    <title>Icon/Moon/Outline</title>
    <g id="Icon/Moon/Outline" stroke="none" stroke-width="1" fill="none" fill-rule="evenodd">
        <path d="M9.12063129,3.12940665 C8.57618925,3.3035976 8.0469823,3.53106529 7.53663384,3.81039406 C4.05372231,5.72013366 2.41451719,9.71593014 3.18866709,13.6077405 C4.22410896,18.8107824 9.17665183,22.052309 14.2700867,20.6875273 C18.0368088,19.6782371 20.7307382,16.3804882 20.9972558,12.495991 C21.1725592,9.92673006 17.8670943,8.84781722 16.4644938,10.9054146 L16.3757729,11.0440694 C15.8985218,11.8374214 15.1067174,12.3598419 14.1676903,12.4873424 C12.8111434,12.6713428 11.4489726,11.8627084 10.9486168,10.5709449 C10.5240696,9.47492757 10.7417125,8.2767206 11.4920369,7.42182044 L11.6299543,7.27461012 C13.4660619,5.43902396 11.6251132,2.32778664 9.12063129,3.12940665 Z M10.6304336,6.11932623 L10.5565912,6.20094211 C9.2837,7.47439032 8.85970202,9.38129284 9.53292778,11.1193024 C10.2863842,13.064493 12.3174149,14.2703938 14.3719536,13.9917187 C15.7815955,13.8003184 16.9698047,13.0017664 17.6774773,11.8253743 C18.2031293,10.949604 19.5530921,11.3594659 19.4826363,12.3920721 C19.2615963,15.6137328 17.0322397,18.3756747 13.8771527,19.2210777 C9.63962764,20.3565191 5.54350966,17.6623295 4.67767409,13.3115506 C4.03239812,10.067616 5.36666007,6.73165306 8.26554139,5.14214674 C8.69280358,4.90829353 9.1329832,4.71944582 9.5834331,4.57532708 C10.5255279,4.27378686 11.2204674,5.39576635 10.6304336,6.11932623 Z" id="Shape" fill="#FFFFFF"></path>
    </g>
</svg>