<svg width="24" height="24" viewBox="0 0 24 24" fill="currentColor" xmlns="http://www.w3.org/2000/svg">
  <path fill-rule="evenodd" clip-rule="evenodd" d="M12 22L16.9318 19.5207C17.6393 19.165 18.2852 18.697 18.8445 18.1346C20.2246 16.747 21 14.8649 21 12.9024V5.45624C21 5.12857 20.7915 4.83765 20.4823 4.73403L12.6325 2.10319C12.2219 1.9656 11.7781 1.9656 11.3675 2.10319L3.51773 4.73403C3.20855 4.83765 3 5.12856 3 5.45624V12.9024C3 14.8649 3.77537 16.747 5.15552 18.1346C5.71485 18.697 6.36069 19.165 7.06819 19.5207L12 22ZM11 8C11 7.44772 11.4477 7 12 7C12.5523 7 13 7.44772 13 8V12C13 12.5523 12.5523 13 12 13C11.4477 13 11 12.5523 11 12V8ZM11 15C11 14.4477 11.4477 14 12 14C12.5523 14 13 14.4477 13 15C13 15.5523 12.5523 16 12 16C11.4477 16 11 15.5523 11 15Z" />
</svg>
