<?xml version="1.0" encoding="UTF-8"?>
<svg width="24px" height="24px" viewBox="0 0 24 24" version="1.1" xmlns="http://www.w3.org/2000/svg" xmlns:xlink="http://www.w3.org/1999/xlink">
    <title>Icon/Close/Filled</title>
    <g id="Icon/Close/Filled" stroke="none" stroke-width="1" fill="none" fill-rule="evenodd">
        <path d="M17.8079359,4.78018653 L11.999962,10.5864279 L6.20537937,4.79263089 L6.1079542,4.70764131 C5.69826106,4.40280971 5.14389679,4.44133687 4.79259783,4.79263583 L4.70949287,4.88674781 C4.40477578,5.27864316 4.43247763,5.84530212 4.79259783,6.20542232 L10.5863899,11.999001 L4.79259288,17.7945826 L4.7076033,17.8920078 C4.4027717,18.3017009 4.44129887,18.8560652 4.79259783,19.2073642 C5.14389679,19.5586631 5.69826078,19.5971906 6.09356936,19.3038787 L6.1919881,19.2198135 L11.998963,13.4125731 L17.7945446,19.2073691 L17.8919698,19.2923587 C18.3016629,19.5971903 18.8560272,19.5586631 19.2073262,19.2073642 L19.2904311,19.1132522 C19.5951482,18.7213568 19.5674464,18.1546979 19.2073262,17.7945777 L13.4125351,12 L19.2073311,6.20541737 L19.2923207,6.1079922 C19.5971523,5.69829907 19.5586251,5.14393479 19.2073262,4.79263583 C18.8560272,4.44133687 18.3016632,4.40280942 17.9063546,4.69612129 L17.8079359,4.78018653 Z" id="Path" fill="#FFFFFF"></path>
    </g>
</svg>