<?xml version="1.0" encoding="UTF-8"?>
<svg width="24px" height="24px" viewBox="0 0 24 24" version="1.1" xmlns="http://www.w3.org/2000/svg" xmlns:xlink="http://www.w3.org/1999/xlink">
    <title>Icon/Close/Outline</title>
    <g id="Icon/Close/Outline" stroke="none" stroke-width="1" fill="none" fill-rule="evenodd">
        <path d="M18.8037883,4.14705176 C19.0973998,3.9291973 19.5140635,3.95340335 19.7803301,4.21966991 C20.0465966,4.48593648 20.0708027,4.90260016 19.8529482,5.19621165 L19.7803301,5.28033009 L13.061,12 L19.7803301,18.7196699 C20.0732233,19.0125631 20.0732233,19.4874369 19.7803301,19.7803301 C19.5140635,20.0465966 19.0973998,20.0708027 18.8037883,19.8529482 L18.7196699,19.7803301 L12,13.061 L5.28033009,19.7803301 L5.19621165,19.8529482 C4.90260016,20.0708027 4.48593648,20.0465966 4.21966991,19.7803301 C3.95340335,19.5140635 3.9291973,19.0973998 4.14705176,18.8037883 L4.21966991,18.7196699 L10.939,12 L4.21966991,5.28033009 C3.9267767,4.98743687 3.9267767,4.51256313 4.21966991,4.21966991 C4.48593648,3.95340335 4.90260016,3.9291973 5.19621165,4.14705176 L5.28033009,4.21966991 L12,10.939 L18.7196699,4.21966991 L18.8037883,4.14705176 Z" id="Path" fill="#FFFFFF"></path>
    </g>
</svg>