<svg width="24" height="24" viewBox="0 0 24 24" fill="none" xmlns="http://www.w3.org/2000/svg">
  <g id="Status=Passive">
    <g id="Vector">
      <path d="M13.75 5C13.75 6.10457 12.8546 7 11.75 7C10.6454 7 9.75 6.10457 9.75 5C9.75 3.89543 10.6454 3 11.75 3C12.8546 3 13.75 3.89543 13.75 5Z" fill="currentColor"/>
      <path d="M8 8.5C8 8.08579 8.33579 7.75 8.75 7.75H14.75C15.1642 7.75 15.5 8.08579 15.5 8.5V13.5C15.5 13.9142 15.1642 14.25 14.75 14.25C14.3358 14.25 14 13.9142 14 13.5V9.25H13.4988V12.4577C13.4996 12.4717 13.5 12.4858 13.5 12.5V20.5C13.5 20.9142 13.1642 21.25 12.75 21.25C12.3358 21.25 12 20.9142 12 20.5V14.5135L11.5 14.5118V20.5C11.5 20.9142 11.1642 21.25 10.75 21.25C10.3358 21.25 10 20.9142 10 20.5V12.5C10 12.474 10.0013 12.4483 10.0039 12.423V9.25H9.5V13.5C9.5 13.9142 9.16421 14.25 8.75 14.25C8.33579 14.25 8 13.9142 8 13.5V8.5Z" fill="currentColor"/>
    </g>
  </g>
</svg>
