<?xml version="1.0" encoding="UTF-8"?>
<svg width="24px" height="24px" viewBox="0 0 24 24" version="1.1" xmlns="http://www.w3.org/2000/svg" xmlns:xlink="http://www.w3.org/1999/xlink">
    <title>Icon/Bring Forward/Filled</title>
    <g id="Icon/Bring-Forward/Filled" stroke="none" stroke-width="1" fill="none" fill-rule="evenodd">
        <path d="M15.9432066,5.81944221 L16.0078731,5.81391078 L16.0078731,5.81391078 L16.1371506,5.81525102 L16.1371506,5.81525102 L16.2634303,5.83286516 L16.2634303,5.83286516 L16.378101,5.86353644 L16.378101,5.86353644 L16.485313,5.90622034 L16.485313,5.90622034 L16.5815082,5.95778003 L16.5815082,5.95778003 L16.687361,6.03215193 L16.687361,6.03215193 L16.7690188,6.10535638 L19.7690188,9.10535638 C20.1595431,9.49588067 20.1595431,10.1290457 19.7690188,10.5195699 C19.4085348,10.8800539 18.8413038,10.9077834 18.4490126,10.6027585 L18.3548052,10.5195699 L17.0616158,9.22646316 L17.061912,17.3096036 C17.061912,17.8618883 16.6141968,18.3096036 16.061912,18.3096036 C15.5490762,18.3096036 15.1264049,17.9235634 15.0686398,17.4262247 L15.061912,17.3096036 L15.0616158,9.22546316 L13.7690188,10.5195699 C13.4085348,10.8800539 12.8413038,10.9077834 12.4490126,10.6027585 L12.3548052,10.5195699 C11.9943213,10.159086 11.9665917,9.59185492 12.2716166,9.19956372 L12.3548052,9.10535638 L15.3548052,6.10535638 C15.3928762,6.06728547 15.433253,6.03292596 15.4754863,6.00227786 L15.5607215,5.94685617 L15.5607215,5.94685617 L15.666458,5.89369218 L15.666458,5.89369218 L15.7452434,5.86364086 L15.7452434,5.86364086 L15.8296904,5.83957355 L15.8296904,5.83957355 L15.9432066,5.81944221 L15.9432066,5.81944221 Z M7.93808798,5.06191202 L5.93808798,5.06191202 C4.89165371,5.06191202 4.03292315,5.8655671 3.94542917,6.88934437 L3.93808798,7.06191202 L3.93808798,9.06191202 C3.93808798,10.1083463 4.74174305,10.9670768 5.76552032,11.0545708 L5.93808798,11.061912 L7.93808798,11.061912 L8.11065563,11.0545708 C9.07421071,10.9722236 9.84277865,10.2067048 9.92986431,9.24450964 L9.93808798,9.06191202 L9.93808798,7.06191202 C9.93808798,6.01547776 9.1344329,5.1567472 8.11065563,5.06925322 L7.93808798,5.06191202 Z M7.93808798,13.061912 L8.11065563,13.0692532 C9.1344329,13.1567472 9.93808798,14.0154778 9.93808798,15.061912 L9.93808798,17.061912 L9.92986431,17.2445096 C9.84277865,18.2067048 9.07421071,18.9722236 8.11065563,19.0545708 L7.93808798,19.061912 L5.93808798,19.061912 L5.76552032,19.0545708 C4.74174305,18.9670768 3.93808798,18.1083463 3.93808798,17.061912 L3.93808798,15.061912 L3.94542917,14.8893444 C4.03292315,13.8655671 4.89165371,13.061912 5.93808798,13.061912 L7.93808798,13.061912 Z M7.92308798,14.561912 L5.93808798,14.561912 C5.67828854,14.561912 5.46180861,14.7616664 5.44407371,14.9530981 L5.43808798,15.061912 L5.43808798,17.061912 C5.43808798,17.3217115 5.63784239,17.5381914 5.8292741,17.5559263 L5.93808798,17.561912 L7.8743342,17.5632675 L7.98292833,17.5600188 C8.22133751,17.5396439 8.41441382,17.3474776 8.43138325,17.1770224 L8.43808798,17.061912 L8.43808798,15.061912 C8.43808798,14.8021126 8.23833357,14.5856327 8.04690186,14.5678978 L7.92308798,14.561912 Z" id="Path" fill="#FFFFFF" transform="translate(12, 12.0619) rotate(-90) translate(-12, -12.0619)"></path>
    </g>
</svg>