<?xml version="1.0" encoding="UTF-8"?>
<svg width="24px" height="24px" viewBox="0 0 24 24" version="1.1" xmlns="http://www.w3.org/2000/svg" xmlns:xlink="http://www.w3.org/1999/xlink">
    <title>Icon/Bring Forward/Outline</title>
    <g id="Icon/Bring-Forward/Outline" stroke="none" stroke-width="1" fill="none" fill-rule="evenodd">
        <path d="M8,13 L8.17256766,13.0073412 C9.19634492,13.0948352 10,13.9535657 10,15 L10,17 L9.99177633,17.1825976 C9.90469068,18.1447927 9.13612273,18.9103115 8.17256766,18.9926588 L8,19 L6,19 L5.82743234,18.9926588 C4.80365508,18.9051648 4,18.0464343 4,17 L4,15 L4.00734119,14.8274323 C4.09483517,13.8036551 4.95356574,13 6,13 L8,13 Z M7.982,14 L6,14 C5.48002476,14 5.04759977,14.3990153 5.00643755,14.8699349 L5,15 L5,17 C5,17.5199752 5.39901529,17.9524002 5.86993486,17.9935624 L6,18 L7.95749748,18.0009036 L8.08741612,17.9962908 C8.56743559,17.9552674 8.95243795,17.5720796 8.99278896,17.1376061 L9,17 L9,15 C9,14.4800248 8.60098471,14.0475998 8.13006514,14.0064376 L7.982,14 Z M16.2534681,6 L16.3494825,6.00682051 L16.4326566,6.02293742 L16.5385918,6.05839841 L16.6075247,6.09156305 L16.7062382,6.15616501 L16.7783108,6.21952872 L19.7801923,9.21790632 C20.0732692,9.51064114 20.0732692,9.98525807 19.7801923,10.2779929 C19.5137588,10.5441155 19.0968338,10.5683084 18.8030381,10.3505718 L18.7188669,10.2779929 L16.9981185,8.55959261 L17.0039385,17.2504056 C17.0039385,17.6643952 16.6679415,18 16.2534681,18 C15.8735342,18 15.5595422,17.7179987 15.5098486,17.3521211 L15.5029977,17.2504056 L15.4971777,8.55959261 L13.7764293,10.2779929 C13.5099957,10.5441155 13.0930707,10.5683084 12.7992751,10.3505718 L12.7151039,10.2779929 C12.4486703,10.0118703 12.4244491,9.59543197 12.6424402,9.30197926 L12.7151039,9.21790632 L15.7169854,6.21952872 C15.7540619,6.18249548 15.7940527,6.15014723 15.8362204,6.12248398 L15.9256759,6.07224358 L16.0293557,6.03223494 C16.0750368,6.01829473 16.1229566,6.00860487 16.1724088,6.00369388 L16.2534681,6 Z M8,5 L8.17256766,5.00734119 C9.19634492,5.09483517 10,5.95356574 10,7 L10,9 L9.99177633,9.18259762 C9.90469068,10.1447927 9.13612273,10.9103115 8.17256766,10.9926588 L8,11 L6,11 L5.82743234,10.9926588 C4.80365508,10.9051648 4,10.0464343 4,9 L4,7 L4.00734119,6.82743234 C4.09483517,5.80365508 4.95356574,5 6,5 L8,5 Z" id="Path" fill="#FFFFFF" transform="translate(12, 12) rotate(-90) translate(-12, -12)"></path>
    </g>
</svg>