<?xml version="1.0" encoding="UTF-8"?>
<svg width="24px" height="24px" viewBox="0 0 24 24" version="1.1" xmlns="http://www.w3.org/2000/svg">
    <title>Icon/Maximize/Filled</title>
    <g id="Icon/Maximize/Filled" stroke="none" stroke-width="1" fill="none" fill-rule="evenodd">
        <path d="M19.5,3 C20.3284271,3 21,3.67157288 21,4.5 L21,9.5 C21,10.3284271 20.3284271,11 19.5,11 C18.6715729,11 18,10.3284271 18,9.5 L18,8.12132034 L14.5606602,11.5606602 C13.9748737,12.1464466 13.0251263,12.1464466 12.4393398,11.5606602 C11.8535534,10.9748737 11.8535534,10.0251263 12.4393398,9.43933983 L15.8786797,6 L14.5,6 C13.6715729,6 13,5.32842712 13,4.5 C13,3.67157288 13.6715729,3 14.5,3 L19.5,3 Z M11.5606602,12.4393398 C12.1464466,13.0251263 12.1464466,13.9748737 11.5606602,14.5606602 L8.12132034,18 L9.5,18 C10.3284271,18 11,18.6715729 11,19.5 C11,20.3284271 10.3284271,21 9.5,21 L4.5,21 C3.67157288,21 3,20.3284271 3,19.5 L3,14.5 C3,13.6715729 3.67157288,13 4.5,13 C5.32842712,13 6,13.6715729 6,14.5 L6,15.8786797 L9.43933983,12.4393398 C10.0251263,11.8535534 10.9748737,11.8535534 11.5606602,12.4393398 Z" id="Shape" fill="#FFFFFF"></path>
    </g>
</svg>
