<?xml version="1.0" encoding="UTF-8"?>
<svg width="24px" height="24px" viewBox="0 0 24 24" version="1.1" xmlns="http://www.w3.org/2000/svg">
    <title>Icon/Maximize/Outline</title>
    <g id="Icon/Maximize/Outline" stroke="none" stroke-width="1" fill="none" fill-rule="evenodd">
        <path d="M19,3 C19.5522847,3 20,3.44771525 20,4 L20,9 C20,9.55228475 19.5522847,10 19,10 C18.4477153,10 18,9.55228475 18,9 L18,6.41421356 L13.7071068,10.7071068 C13.3165825,11.0976311 12.6834175,11.0976311 12.2928932,10.7071068 C11.9023689,10.3165825 11.9023689,9.68341751 12.2928932,9.29289322 L16.5857864,5 L14,5 C13.4477153,5 13,4.55228475 13,4 C13,3.44771525 13.4477153,3 14,3 L19,3 Z M11.7071068,13.2928932 C12.0976311,13.6834175 12.0976311,14.3165825 11.7071068,14.7071068 L7.41421356,19 L10,19 C10.5522847,19 11,19.4477153 11,20 C11,20.5522847 10.5522847,21 10,21 L5,21 C4.44771525,21 4,20.5522847 4,20 L4,15 C4,14.4477153 4.44771525,14 5,14 C5.55228475,14 6,14.4477153 6,15 L6,17.5857864 L10.2928932,13.2928932 C10.6834175,12.9023689 11.3165825,12.9023689 11.7071068,13.2928932 Z" id="Shape" fill="#FFFFFF"></path>
    </g>
</svg>
