<?xml version="1.0" encoding="UTF-8"?>
<svg width="24px" height="24px" viewBox="0 0 24 24" version="1.1" xmlns="http://www.w3.org/2000/svg" xmlns:xlink="http://www.w3.org/1999/xlink">
    <title>Social/Apple/White</title>
    <g id="💎-Icons" stroke="none" stroke-width="1" fill="none" fill-rule="evenodd">
        <g id="Social/Apple/White" fill="#FFFFFF">
            <path d="M19.8333333,16.7842333 C19.4021316,17.8031844 19.1941147,18.2568191 18.637236,19.1594832 C17.8604228,20.4167652 16.7640003,21.9849137 15.4053897,21.9964273 C14.1995416,22.0090922 13.8896831,21.1616933 12.2515498,21.1720555 C10.6155833,21.1812664 10.2732222,22.0113949 9.06629062,21.9998813 C7.7087635,21.9872164 6.67084572,20.5721984 5.89294909,19.313765 C3.71960559,15.7975202 3.49100366,11.6687534 4.83227946,9.47311522 C5.78569036,7.9141776 7.28839596,7.00230271 8.702261,7.00230271 C10.1399613,7.00230271 11.0446183,7.84049074 12.2352985,7.84049074 C13.3891423,7.84049074 14.0922829,7 15.7564183,7 C17.0153541,7 18.3479625,7.72880909 19.2970397,8.98609113 C16.1854532,10.7994787 16.6903276,15.5200431 19.8333333,16.7842333 L19.8333333,16.7842333 Z M14.650123,5.37187741 C15.3088564,4.49746082 15.810298,3.26155356 15.6293533,2 C14.5507808,2.07571764 13.2888982,2.78526519 12.5532928,3.70853187 C11.8839156,4.54508965 11.3328029,5.78954568 11.5468617,6.99858539 C12.7271417,7.03644421 13.9440837,6.30979913 14.650123,5.37187741 L14.650123,5.37187741 Z" id="Shape"></path>
        </g>
    </g>
</svg>