<?xml version="1.0" encoding="UTF-8"?>
<svg width="24px" height="24px" viewBox="0 0 24 24" version="1.1" xmlns="http://www.w3.org/2000/svg" xmlns:xlink="http://www.w3.org/1999/xlink">
    <title>Icon/Block</title>
    <g id="Icon/Block" stroke="none" stroke-width="1" fill="none" fill-rule="evenodd">
        <path d="M12,3 C16.9705627,3 21,7.02943725 21,12 C21,16.9705627 16.9705627,21 12,21 C7.02943725,21 3,16.9705627 3,12 C3,7.02943725 7.02943725,3 12,3 Z M17.6063605,7.80779665 L7.80779665,17.6063605 C8.97638273,18.4815869 10.4276504,19 12,19 C15.8659932,19 19,15.8659932 19,12 C19,10.4276504 18.4815869,8.97638273 17.6063605,7.80779665 Z M12,5 C8.13400675,5 5,8.13400675 5,12 C5,13.5723496 5.51841309,15.0236173 6.3936395,16.1922034 L16.1922034,6.3936395 C15.0236173,5.51841309 13.5723496,5 12,5 Z" id="Shape" fill="#FFFFFF"></path>
    </g>
</svg>