<svg width="50px" height="22.7071948px" viewBox="0 0 50 22.7071948" version="1.1" xmlns="http://www.w3.org/2000/svg" xmlns:xlink="http://www.w3.org/1999/xlink">
    <title>Group 2</title>
    <defs>
        <linearGradient x1="-4.30649739e-05%" y1="50.0002495%" x2="99.9997979%" y2="50.0002495%" id="linearGradient-1">
            <stop stop-color="#0C59A4" offset="0%"></stop>
            <stop stop-color="#114A8B" offset="100%"></stop>
        </linearGradient>
        <radialGradient cx="-135.212046%" cy="-162.330644%" fx="-135.212046%" fy="-162.330644%" r="82.4952218%" gradientTransform="translate(-1.352120,-1.623306),scale(0.862983,1.000000),rotate(175.274000),translate(1.352120,1.623306)" id="radialGradient-2">
            <stop stop-color="#000000" stop-opacity="0" offset="0%"></stop>
            <stop stop-color="#000000" stop-opacity="0.53" offset="46.0005%"></stop>
            <stop stop-color="#000000" offset="100%"></stop>
        </radialGradient>
        <linearGradient x1="67.5279187%" y1="24.8180262%" x2="30.9263937%" y2="74.0135591%" id="linearGradient-3">
            <stop stop-color="#1B9DE2" offset="0%"></stop>
            <stop stop-color="#1595DF" offset="16.164%"></stop>
            <stop stop-color="#0680D7" offset="66.749%"></stop>
            <stop stop-color="#0078D4" offset="100%"></stop>
        </linearGradient>
        <radialGradient cx="-75.1568957%" cy="7.69845356%" fx="-75.1568957%" fy="7.69845356%" r="82.9739497%" gradientTransform="translate(-0.751569,0.076985),scale(1.000000,0.810393),rotate(90.466900),translate(0.751569,-0.076985)" id="radialGradient-4">
            <stop stop-color="#000000" stop-opacity="0" offset="0%"></stop>
            <stop stop-color="#000000" stop-opacity="0.5" offset="35.4312%"></stop>
            <stop stop-color="#000000" offset="100%"></stop>
        </radialGradient>
        <radialGradient cx="1.58112913%" cy="30.981993%" fx="1.58112913%" fy="30.981993%" r="166.553129%" gradientTransform="translate(0.015811,0.309820),scale(0.665999,1.000000),rotate(33.907100),translate(-0.015811,-0.309820)" id="radialGradient-5">
            <stop stop-color="#35C1F1" offset="0%"></stop>
            <stop stop-color="#34C1ED" offset="11.079%"></stop>
            <stop stop-color="#2FC2DF" offset="23.164%"></stop>
            <stop stop-color="#2BC3D2" offset="31.446%"></stop>
            <stop stop-color="#36C752" offset="100%"></stop>
        </radialGradient>
        <radialGradient cx="0.24983671%" cy="156.071011%" fx="0.24983671%" fy="156.071011%" r="83.8186949%" gradientTransform="translate(0.002498,1.560710),scale(0.665999,1.000000),rotate(78.961900),translate(-0.002498,-1.560710)" id="radialGradient-6">
            <stop stop-color="#66EB6E" offset="0%"></stop>
            <stop stop-color="#66EB6E" stop-opacity="0" offset="100%"></stop>
        </radialGradient>
        <radialGradient cx="86.8491144%" cy="-10.7763783%" fx="86.8491144%" fy="-10.7763783%" r="241.262155%" gradientTransform="translate(0.868491,-0.107764),scale(1.000000,0.362881),translate(-0.868491,0.107764)" id="radialGradient-7">
            <stop stop-color="#FFEA00" offset="4.5%"></stop>
            <stop stop-color="#FFDE00" offset="12%"></stop>
            <stop stop-color="#FFBF00" offset="25.4%"></stop>
            <stop stop-color="#FF8E00" offset="42.9%"></stop>
            <stop stop-color="#FF272D" offset="76.9%"></stop>
            <stop stop-color="#E0255A" offset="87.2%"></stop>
            <stop stop-color="#CC2477" offset="95.3%"></stop>
            <stop stop-color="#C42482" offset="100%"></stop>
        </radialGradient>
        <radialGradient cx="70.8274449%" cy="12.2230186%" fx="70.8274449%" fy="12.2230186%" r="112.629457%" gradientTransform="translate(0.708274,0.122230),scale(1.000000,0.994697),translate(-0.708274,-0.122230)" id="radialGradient-8">
            <stop stop-color="#00CCDA" offset="0%"></stop>
            <stop stop-color="#0083FF" offset="22%"></stop>
            <stop stop-color="#007AF9" offset="26.1%"></stop>
            <stop stop-color="#0060E8" offset="33%"></stop>
            <stop stop-color="#005FE7" offset="33.3%"></stop>
            <stop stop-color="#2639AD" offset="43.8%"></stop>
            <stop stop-color="#401E84" offset="52.2%"></stop>
            <stop stop-color="#4A1475" offset="100%"></stop>
        </radialGradient>
        <linearGradient x1="55.788141%" y1="75.2198182%" x2="36.26765%" y2="7.45956454%" id="linearGradient-9">
            <stop stop-color="#000F43" stop-opacity="0.4" offset="0%"></stop>
            <stop stop-color="#001962" stop-opacity="0.173" offset="48.5%"></stop>
            <stop stop-color="#002079" stop-opacity="0" offset="100%"></stop>
        </linearGradient>
        <radialGradient cx="109.29176%" cy="-21.663282%" fx="109.29176%" fy="-21.663282%" r="140.23581%" gradientTransform="translate(1.092918,-0.216633),scale(0.923324,1.000000),translate(-1.092918,0.216633)" id="radialGradient-10">
            <stop stop-color="#FFEA00" offset="0.3%"></stop>
            <stop stop-color="#FF272D" offset="49.7%"></stop>
            <stop stop-color="#C42482" offset="100%"></stop>
        </radialGradient>
        <radialGradient cx="135.976962%" cy="-143.882327%" fx="135.976962%" fy="-143.882327%" r="370.470295%" gradientTransform="translate(1.359770,-1.438823),scale(1.000000,0.541482),translate(-1.359770,1.438823)" id="radialGradient-11">
            <stop stop-color="#FFE900" offset="0.3%"></stop>
            <stop stop-color="#FFAF0E" offset="15.7%"></stop>
            <stop stop-color="#FF7A1B" offset="31.6%"></stop>
            <stop stop-color="#FF4E26" offset="47.2%"></stop>
            <stop stop-color="#FF2C2E" offset="62.1%"></stop>
            <stop stop-color="#FF1434" offset="76.2%"></stop>
            <stop stop-color="#FF0538" offset="89.2%"></stop>
            <stop stop-color="#FF0039" offset="100%"></stop>
        </radialGradient>
        <radialGradient cx="18.7848855%" cy="2.14366957%" fx="18.7848855%" fy="2.14366957%" r="308.148985%" gradientTransform="translate(0.187849,0.021437),scale(0.533466,1.000000),translate(-0.187849,-0.021437)" id="radialGradient-12">
            <stop stop-color="#FF272D" offset="0.3%"></stop>
            <stop stop-color="#C42482" offset="49.7%"></stop>
            <stop stop-color="#620700" offset="98.6%"></stop>
        </radialGradient>
        <radialGradient cx="62.7947722%" cy="43.4822834%" fx="62.7947722%" fy="43.4822834%" r="70.8905541%" gradientTransform="translate(0.627948,0.434823),scale(1.000000,0.959471),translate(-0.627948,-0.434823)" id="radialGradient-13">
            <stop stop-color="#FFEA00" offset="0%"></stop>
            <stop stop-color="#FFDE00" offset="23.1%"></stop>
            <stop stop-color="#FFBF00" offset="36.5%"></stop>
            <stop stop-color="#FF8E00" offset="54.1%"></stop>
            <stop stop-color="#FF272D" offset="76.3%"></stop>
            <stop stop-color="#F92433" offset="79.6%"></stop>
            <stop stop-color="#E91C45" offset="84.1%"></stop>
            <stop stop-color="#CF0E62" offset="89.3%"></stop>
            <stop stop-color="#B5007F" offset="100%"></stop>
        </radialGradient>
        <radialGradient cx="24.9530468%" cy="-6.30929724%" fx="24.9530468%" fy="-6.30929724%" r="249.815548%" gradientTransform="translate(0.249530,-0.063093),scale(1.000000,0.396484),translate(-0.249530,0.063093)" id="radialGradient-14">
            <stop stop-color="#FFEA00" offset="27.9%"></stop>
            <stop stop-color="#FFDD00" offset="40.2%"></stop>
            <stop stop-color="#FFBA00" offset="63%"></stop>
            <stop stop-color="#FF9100" offset="85.6%"></stop>
            <stop stop-color="#FF6711" offset="93.3%"></stop>
            <stop stop-color="#FF4A1D" offset="99.4%"></stop>
        </radialGradient>
        <linearGradient x1="-51.9312539%" y1="64.4549444%" x2="105.878191%" y2="37.4671743%" id="linearGradient-15">
            <stop stop-color="#C42482" stop-opacity="0.5" offset="0%"></stop>
            <stop stop-color="#FF272D" stop-opacity="0.5" offset="47.4%"></stop>
            <stop stop-color="#FF2C2C" stop-opacity="0.513" offset="48.6%"></stop>
            <stop stop-color="#FF7A1A" stop-opacity="0.72" offset="67.5%"></stop>
            <stop stop-color="#FFB20D" stop-opacity="0.871" offset="82.9%"></stop>
            <stop stop-color="#FFD605" stop-opacity="0.964" offset="94.2%"></stop>
            <stop stop-color="#FFE302" offset="100%"></stop>
        </linearGradient>
        <linearGradient x1="51.3376337%" y1="94.8930863%" x2="35.207805%" y2="9.00040837%" id="linearGradient-16">
            <stop stop-color="#891551" stop-opacity="0.6" offset="0%"></stop>
            <stop stop-color="#C42482" stop-opacity="0" offset="100%"></stop>
        </linearGradient>
        <linearGradient x1="37.3941289%" y1="6.68620283%" x2="55.8994175%" y2="41.5706294%" id="linearGradient-17">
            <stop stop-color="#891551" stop-opacity="0.5" offset="0.5%"></stop>
            <stop stop-color="#FF272D" stop-opacity="0.5" offset="48.4%"></stop>
            <stop stop-color="#FF272D" stop-opacity="0" offset="100%"></stop>
        </linearGradient>
        <linearGradient x1="47.5091953%" y1="50.768338%" x2="47.8338948%" y2="49.6572264%" id="linearGradient-18">
            <stop stop-color="#C42482" offset="0%"></stop>
            <stop stop-color="#C42482" stop-opacity="0.81" offset="8.3%"></stop>
            <stop stop-color="#C42482" stop-opacity="0.565" offset="20.6%"></stop>
            <stop stop-color="#C42482" stop-opacity="0.362" offset="32.8%"></stop>
            <stop stop-color="#C42482" stop-opacity="0.204" offset="44.7%"></stop>
            <stop stop-color="#C42482" stop-opacity="0.091" offset="56.2%"></stop>
            <stop stop-color="#C42482" stop-opacity="0.023" offset="67.3%"></stop>
            <stop stop-color="#C42482" stop-opacity="0" offset="77.3%"></stop>
        </linearGradient>
        <linearGradient x1="48.1029906%" y1="1.64707631%" x2="63.6661498%" y2="77.8766566%" id="linearGradient-19">
            <stop stop-color="#FFF14F" offset="0%"></stop>
            <stop stop-color="#FFEE4C" offset="26.8%"></stop>
            <stop stop-color="#FFE643" offset="45.2%"></stop>
            <stop stop-color="#FFD834" offset="61.2%"></stop>
            <stop stop-color="#FFC41E" offset="75.7%"></stop>
            <stop stop-color="#FFAB02" offset="89.2%"></stop>
            <stop stop-color="#FFA900" offset="90.2%"></stop>
            <stop stop-color="#FFA000" offset="94.9%"></stop>
            <stop stop-color="#FF9100" offset="100%"></stop>
        </linearGradient>
        <linearGradient x1="68.4352684%" y1="7.15858353%" x2="41.9812636%" y2="81.2176938%" id="linearGradient-20">
            <stop stop-color="#FF8E00" offset="0%"></stop>
            <stop stop-color="#FF8E00" stop-opacity="0.858" offset="4%"></stop>
            <stop stop-color="#FF8E00" stop-opacity="0.729" offset="8.4%"></stop>
            <stop stop-color="#FF8E00" stop-opacity="0.628" offset="13%"></stop>
            <stop stop-color="#FF8E00" stop-opacity="0.557" offset="17.8%"></stop>
            <stop stop-color="#FF8E00" stop-opacity="0.514" offset="22.7%"></stop>
            <stop stop-color="#FF8E00" stop-opacity="0.5" offset="28.2%"></stop>
            <stop stop-color="#FF8E00" stop-opacity="0.478" offset="38.9%"></stop>
            <stop stop-color="#FF8E00" stop-opacity="0.416" offset="52.4%"></stop>
            <stop stop-color="#FF8E00" stop-opacity="0.314" offset="67.6%"></stop>
            <stop stop-color="#FF8E00" stop-opacity="0.172" offset="83.8%"></stop>
            <stop stop-color="#FF8E00" stop-opacity="0" offset="100%"></stop>
        </linearGradient>
        <path d="M11.0000383,22 C17.0751434,22 22,17.07515 22,10.9999789 C22,4.92486712 17.0751434,5.49560683e-16 11.0000383,5.49560683e-16 C4.92486712,5.49560683e-16 -6.22835441e-16,4.92486712 -6.22835441e-16,10.9999789 C-6.22835441e-16,17.07515 4.92486712,22 11.0000383,22 Z" id="path-21"></path>
        <linearGradient x1="4.54668567%" y1="53.037148%" x2="32.4579596%" y2="40.7604511%" id="linearGradient-23">
            <stop stop-color="#A52714" stop-opacity="0.6" offset="0%"></stop>
            <stop stop-color="#A52714" stop-opacity="0" offset="66%"></stop>
        </linearGradient>
        <radialGradient cx="-0.157270255%" cy="-25.2023724%" fx="-0.157270255%" fy="-25.2023724%" r="136.320337%" gradientTransform="translate(-0.001573,-0.252024),scale(1.000000,0.583254),translate(0.001573,0.252024)" id="radialGradient-24">
            <stop stop-color="#3E2723" stop-opacity="0.2" offset="0%"></stop>
            <stop stop-color="#3E2723" stop-opacity="0" offset="100%"></stop>
        </radialGradient>
        <path d="M11.0000383,22 C17.0751434,22 22,17.07515 22,10.9999789 C22,4.92486712 17.0751434,5.49560683e-16 11.0000383,5.49560683e-16 C4.92486712,5.49560683e-16 -6.22835441e-16,4.92486712 -6.22835441e-16,10.9999789 C-6.22835441e-16,17.07515 4.92486712,22 11.0000383,22 Z" id="path-25"></path>
        <linearGradient x1="72.7491954%" y1="87.7758348%" x2="39.4118683%" y2="69.4542014%" id="linearGradient-27">
            <stop stop-color="#055524" stop-opacity="0.4" offset="0%"></stop>
            <stop stop-color="#055524" stop-opacity="0" offset="33%"></stop>
        </linearGradient>
        <radialGradient cx="10.3301008%" cy="-48.0277639%" fx="10.3301008%" fy="-48.0277639%" r="226.350938%" gradientTransform="translate(0.103301,-0.480278),scale(1.000000,0.496421),translate(-0.103301,0.480278)" id="radialGradient-28">
            <stop stop-color="#263238" stop-opacity="0.2" offset="0%"></stop>
            <stop stop-color="#263238" stop-opacity="0" offset="100%"></stop>
        </radialGradient>
        <path d="M11.0000383,22 C17.0751434,22 22,17.07515 22,10.9999789 C22,4.92486712 17.0751434,5.49560683e-16 11.0000383,5.49560683e-16 C4.92486712,5.49560683e-16 -6.22835441e-16,4.92486712 -6.22835441e-16,10.9999789 C-6.22835441e-16,17.07515 4.92486712,22 11.0000383,22 Z" id="path-29"></path>
        <linearGradient x1="45.3315578%" y1="-4.84063034%" x2="53.3908977%" y2="44.2161859%" id="linearGradient-31">
            <stop stop-color="#EA6100" stop-opacity="0.3" offset="0%"></stop>
            <stop stop-color="#EA6100" stop-opacity="0" offset="66%"></stop>
        </linearGradient>
        <radialGradient cx="-39.2769591%" cy="-0.248249651%" fx="-39.2769591%" fy="-0.248249651%" r="401.327695%" gradientTransform="translate(-0.392770,-0.002482),scale(0.267219,1.000000),translate(0.392770,0.002482)" id="radialGradient-32">
            <stop stop-color="#3E2723" stop-opacity="0.2" offset="0%"></stop>
            <stop stop-color="#3E2723" stop-opacity="0" offset="100%"></stop>
        </radialGradient>
        <path d="M11.0000383,22 C17.0751434,22 22,17.07515 22,10.9999789 C22,4.92486712 17.0751434,5.49560683e-16 11.0000383,5.49560683e-16 C4.92486712,5.49560683e-16 -6.22835441e-16,4.92486712 -6.22835441e-16,10.9999789 C-6.22835441e-16,17.07515 4.92486712,22 11.0000383,22 Z" id="path-33"></path>
        <path d="M11.0000383,22 C17.0751434,22 22,17.07515 22,10.9999789 C22,4.92486712 17.0751434,5.49560683e-16 11.0000383,5.49560683e-16 C4.92486712,5.49560683e-16 -6.22835441e-16,4.92486712 -6.22835441e-16,10.9999789 C-6.22835441e-16,17.07515 4.92486712,22 11.0000383,22 Z" id="path-35"></path>
        <path d="M11.0000383,22 C17.0751434,22 22,17.07515 22,10.9999789 C22,4.92486712 17.0751434,5.49560683e-16 11.0000383,5.49560683e-16 C4.92486712,5.49560683e-16 -6.22835441e-16,4.92486712 -6.22835441e-16,10.9999789 C-6.22835441e-16,17.07515 4.92486712,22 11.0000383,22 Z" id="path-37"></path>
        <radialGradient cx="14.9352258%" cy="13.644321%" fx="14.9352258%" fy="13.644321%" r="100.426252%" id="radialGradient-39">
            <stop stop-color="#FFFFFF" stop-opacity="0.1" offset="0%"></stop>
            <stop stop-color="#FFFFFF" stop-opacity="0" offset="100%"></stop>
        </radialGradient>
    </defs>
    <g id="Closed-beta---v5" stroke="none" stroke-width="1" fill="none" fill-rule="evenodd">
        <g id="2.1-Checklist-content" transform="translate(-1058.000000, -2589.000000)">
            <g id="New-squad-member-that-is-also-new-to-daily.dev" transform="translate(199.000000, 1923.000000)">
                <g id="Other-task-open" transform="translate(793.000000, 263.000000)">
                    <g id="Button/Sec/Text/Medium/Default" transform="translate(54.000000, 394.000000)">
                        <g id="Group-2" transform="translate(12.000000, 9.000000)">
                            <g id="Edge" fill-rule="nonzero">
                                <path d="M19.8569604,16.3743974 C19.5677417,16.5260028 19.2656528,16.6616359 18.9517497,16.7795146 C18.0079941,17.1340087 16.9657643,17.3349833 15.8665092,17.3349833 C11.7997602,17.3349833 8.25719526,14.5375094 8.25719526,10.9478194 C8.25719526,9.93839228 8.84117661,9.06347629 9.66876952,8.60258775 C5.99096087,8.75676728 5.04550906,12.5902009 5.04550906,14.8358362 C5.04550906,21.1844553 10.8970576,21.828696 12.1578844,21.828696 C12.8373699,21.828696 13.8629674,21.6308235 14.4809395,21.4369771 C14.5185604,21.4244368 14.5560492,21.4117645 14.5935381,21.3988942 C16.9791626,20.5761194 18.9926706,18.9575644 20.3161328,16.8595745 C20.5059532,16.5586736 20.1721836,16.2091296 19.8569604,16.3743974 Z" id="Path" fill="url(#linearGradient-1)"></path>
                                <path d="M19.8569604,16.3743974 C19.5677417,16.5260028 19.2656528,16.6616359 18.9517497,16.7795146 C18.0079941,17.1340087 16.9657643,17.3349833 15.8665092,17.3349833 C11.7997602,17.3349833 8.25719526,14.5375094 8.25719526,10.9478194 C8.25719526,9.93839228 8.84117661,9.06347629 9.66876952,8.60258775 C5.99096087,8.75676728 5.04550906,12.5902009 5.04550906,14.8358362 C5.04550906,21.1844553 10.8970576,21.828696 12.1578844,21.828696 C12.8373699,21.828696 13.8629674,21.6308235 14.4809395,21.4369771 C14.5185604,21.4244368 14.5560492,21.4117645 14.5935381,21.3988942 C16.9791626,20.5761194 18.9926706,18.9575644 20.3161328,16.8595745 C20.5059532,16.5586736 20.1721836,16.2091296 19.8569604,16.3743974 Z" id="Path" fill="url(#radialGradient-2)" opacity="0.35"></path>
                                <path d="M9.08478817,20.7469313 C8.3203587,20.2731065 7.65684554,19.6483362 7.13087952,18.9099773 C6.31705452,17.7673592 5.8305046,16.3617911 5.8305046,14.8358362 C5.8305046,12.5901349 6.8761797,10.6011134 8.48800254,9.34094663 C8.8541129,9.05469809 9.32285561,8.76600749 9.66817551,8.60258775 C9.93633963,8.47560085 10.3949841,8.24697163 11.004178,8.25561783 C12.0140671,8.26994015 12.7771766,8.78481792 13.2114665,9.36959128 C13.5452361,9.81892955 13.7510288,10.3724182 13.757893,10.9733619 C13.758157,10.9552775 15.860371,4.13218679 6.87855576,4.13218679 C3.10639135,4.13218679 -1.17242231e-15,7.71321743 -1.17242231e-15,10.8539652 C-1.17242231e-15,12.8462207 0.462298325,14.4367911 1.04111835,15.6694353 C2.33026641,18.415098 4.72086745,20.5402806 7.64522928,21.476578 C8.70422348,21.8156937 9.83238726,22.0004979 11.004178,22.0004979 C12.2193978,22.0004979 13.3872945,21.8005794 14.4803455,21.4369111 C13.8623734,21.6307575 13.2073084,21.7368219 12.5278229,21.7368219 C11.266996,21.7368219 10.0918392,21.3711736 9.08478817,20.7469313 Z" id="Path" fill="url(#linearGradient-3)"></path>
                                <path d="M7.13087952,18.9099773 C6.31705452,17.7673592 5.8305046,16.3617911 5.8305046,14.8358362 C5.8305046,12.5901349 6.8761797,10.6011134 8.48800254,9.34094663 C8.8541129,9.05469809 9.32285561,8.76600749 9.66817551,8.60258775 C9.93633963,8.47560085 10.3949841,8.24697163 11.004178,8.25561783 C12.0140671,8.26994015 12.7771766,8.78481792 13.2114665,9.36959128 C13.5452361,9.81892955 13.7510288,10.3724182 13.757893,10.9733619 C13.758157,10.9552775 15.860371,4.13218679 6.87855576,4.13218679 C3.10639135,4.13218679 -1.17242231e-15,7.71321743 -1.17242231e-15,10.8539652 C-1.17242231e-15,12.8462207 0.462298325,14.4367911 1.04111835,15.6694353 C2.33026641,18.415098 4.72086745,20.5402806 7.64522928,21.476578 C8.70422348,21.8156937 9.83238726,22.0004979 11.004178,22.0004979 C12.2193978,22.0004979 13.3872945,21.8005794 14.4803455,21.4369111 C13.8623734,21.6307575 13.2073084,21.7368219 12.5278229,21.7368219 C11.266996,21.7368219 10.0918392,21.3711736 9.08478817,20.7469313 C8.3203587,20.2731065 7.65684554,19.6483362 7.13087952,18.9099773 Z" id="Path" fill="url(#radialGradient-4)" opacity="0.41"></path>
                                <path d="M13.0892977,12.7927595 C13.0196661,12.8829176 12.8053592,13.0073964 12.8053592,13.2794546 C12.8053592,13.5032657 12.9514865,13.7192227 13.2112025,13.9004628 C14.4470147,14.7629705 16.776472,14.6467419 16.7826761,14.6467419 C17.7443181,14.6433758 18.6094658,14.3789078 19.3843235,13.9259394 C19.7368376,13.7197507 20.0631491,13.4749511 20.3573178,13.1954347 C21.3668769,12.2361028 21.9824069,10.8841279 21.9995013,9.38206557 C22.0214138,7.45567954 21.3153957,6.17497968 21.025253,5.60790132 C19.2039414,2.04844657 15.2724956,0 10.9978419,0 C4.97225399,0 0.0808591079,4.84234982 0,10.845583 C0.0408489935,7.70509924 3.16203722,5.16914309 6.87221961,5.16914309 C7.17305449,5.16914309 8.88849969,5.19847416 10.4821721,6.03485187 C11.8858922,6.77157391 12.621875,7.66180225 13.1333867,8.54496844 C13.6645008,9.46192739 13.759015,10.6200559 13.759015,11.0818024 C13.759015,11.543549 13.5262277,12.2271926 13.0892977,12.7927595 Z" id="Path" fill="url(#radialGradient-5)"></path>
                                <path d="M13.0892977,12.7927595 C13.0196661,12.8829176 12.8053592,13.0073964 12.8053592,13.2794546 C12.8053592,13.5032657 12.9514865,13.7192227 13.2112025,13.9004628 C14.4470147,14.7629705 16.776472,14.6467419 16.7826761,14.6467419 C17.7443181,14.6433758 18.6094658,14.3789078 19.3843235,13.9259394 C19.7368376,13.7197507 20.0631491,13.4749511 20.3573178,13.1954347 C21.3668769,12.2361028 21.9824069,10.8841279 21.9995013,9.38206557 C22.0214138,7.45567954 21.3153957,6.17497968 21.025253,5.60790132 C19.2039414,2.04844657 15.2724956,0 10.9978419,0 C4.97225399,0 0.0808591079,4.84234982 0,10.845583 C0.0408489935,7.70509924 3.16203722,5.16914309 6.87221961,5.16914309 C7.17305449,5.16914309 8.88849969,5.19847416 10.4821721,6.03485187 C11.8858922,6.77157391 12.621875,7.66180225 13.1333867,8.54496844 C13.6645008,9.46192739 13.759015,10.6200559 13.759015,11.0818024 C13.759015,11.543549 13.5262277,12.2271926 13.0892977,12.7927595 Z" id="Path" fill="url(#radialGradient-6)"></path>
                            </g>
                            <g id="Group" transform="translate(14.000000, 0.000000)" fill-rule="nonzero">
                                <path d="M17.775789,2.11283537 C17.2231868,2.75629808 16.9658235,4.20445361 17.5261234,5.67250745 C18.0864914,7.14058853 18.9453681,6.82171148 19.4807355,8.31875104 C20.1873606,10.2940721 19.8584696,12.9476116 19.8584696,12.9476116 C19.8584696,12.9476116 20.7080137,15.4077538 21.2999901,12.7945424 C22.6103085,7.88611097 17.775789,3.32155041 17.775789,2.11283537 Z" id="Path" fill="url(#radialGradient-7)"></path>
                                <path d="M11.0322306,22.4911025 C16.6914298,22.4911025 21.2758751,17.881861 21.2758751,12.1984106 C21.2758751,6.514926 16.6914298,1.90569131 11.0377485,1.90569131 C5.38407392,1.90569131 0.799629589,6.51494643 0.799629589,12.1984106 C0.788708783,17.8873789 5.37856288,22.4911025 11.0322306,22.4911025 Z" id="Path" fill="url(#radialGradient-8)"></path>
                                <path d="M18.7074876,18.5450245 C18.4860925,18.7012273 18.253798,18.8414896 18.0123752,18.9645852 C18.3321378,18.4960451 18.6271723,18.0110877 18.8961844,17.5116884 C19.114514,17.2700612 19.3144508,17.0352462 19.4774657,16.781289 C19.5567592,16.6564903 19.6462028,16.5025355 19.7408918,16.3239208 C20.3159741,15.2877918 20.9501178,13.6109794 20.9680337,11.8885937 L20.9680337,11.8845064 C20.9687032,11.8420666 20.9687032,11.799695 20.9687032,11.7571872 C20.9713717,11.3248877 20.9271608,10.8934738 20.8365591,10.4707114 C20.8411914,10.5037503 20.8452787,10.5367893 20.8494341,10.5697601 C20.844325,10.5443508 20.8400333,10.5187371 20.8345155,10.4932596 C20.8429625,10.5401954 20.8497747,10.5855643 20.8570637,10.631342 C20.9746415,11.6286418 20.8909201,12.6014177 20.4721087,13.3186016 C20.4655009,13.3290923 20.4587569,13.3389018 20.452081,13.3491201 C20.6691844,12.259175 20.7418701,11.0556713 20.5002429,9.85073697 C20.5002429,9.85073697 20.4036465,9.26502774 19.6838741,7.48678234 C19.2696268,6.46326941 18.5339139,5.62414113 17.8838979,5.012825 C17.3141972,4.30793708 16.7966777,3.83488729 16.5114527,3.53455292 C15.9155933,2.90712604 15.6658596,2.43682836 15.5633367,2.12996114 C15.474438,2.08537557 14.3371485,0.980593614 14.2468193,0.938501298 C13.7504174,1.70814558 12.1892755,4.11554815 12.9318687,6.36482694 C13.2684573,7.38419126 14.1195682,8.4421192 15.0103258,9.0355943 C15.0494276,9.08028205 15.5403797,9.61346955 15.7738323,10.8160877 C16.0148464,12.058557 15.8881403,13.0280631 15.3920109,14.4618178 C14.8084816,15.7195463 13.3135538,16.9629692 11.91386,17.0902203 C8.92134762,17.3620254 7.82588469,15.587731 7.82588469,15.587731 C8.89512081,16.0151939 10.0773706,15.9258184 10.7963256,15.4826194 C11.5209348,15.0343114 11.959297,14.7020144 12.3150279,14.8330122 C12.6657858,14.963465 12.9450161,14.5848453 12.694465,14.1922607 C12.2988831,13.5830495 11.5776119,13.2690091 10.8621992,13.394489 C10.1368407,13.5123393 9.47238298,14.0869448 8.52195087,13.5304597 C8.46043709,13.494764 8.40089884,13.4557984 8.3436086,13.4136312 C8.28093676,13.3724858 8.54729209,13.4763712 8.4850971,13.4295035 C8.30014704,13.3290242 7.97282291,13.1100815 7.88787532,13.0322185 C7.87377415,13.0192754 8.03140746,13.0824923 8.01723817,13.0695492 C7.12859233,12.3377192 7.23956236,11.8433609 7.2674922,11.5333397 C7.2899042,11.2852409 7.45128419,10.9673857 7.72329361,10.8384997 C7.85463199,10.9101636 7.93651412,10.9649333 7.93651412,10.9649333 C7.93651412,10.9649333 7.88051819,10.850421 7.85020409,10.7900653 C7.86083105,10.7855011 7.87098117,10.7867273 7.88154001,10.7822313 C7.98917209,10.8341399 8.22712072,10.9691569 8.35246441,11.0514477 C8.51561556,11.1665732 8.56766044,11.2691643 8.56766044,11.2691643 C8.56766044,11.2691643 8.61064515,11.2455261 8.57883238,11.145183 C8.56731983,11.1039694 8.51779545,10.973176 8.35614297,10.8411564 L8.36622496,10.8422464 C8.46295759,10.8974249 8.55464922,10.9610504 8.64007366,11.0324418 C8.68564699,10.866702 8.76759724,10.6937414 8.74961314,10.384197 C8.73857745,10.1665486 8.74368657,10.110212 8.70533413,10.02615 C8.67100086,9.95394115 8.72454441,9.92580694 8.78415078,10.0007407 C8.77400067,9.94201987 8.75690215,9.88472964 8.73326397,9.83002802 L8.73374082,9.82437393 C8.80812957,9.56510324 10.3086433,8.89069972 10.4179103,8.81188307 C10.5973425,8.68490447 10.7478231,8.52127646 10.8594062,8.33183038 C10.9428551,8.19885708 11.0055951,8.01227211 11.0209224,7.72929512 C11.029097,7.5252029 10.9341356,7.38930038 9.41693202,7.23044088 C9.00200355,7.18956794 8.75853707,6.88887934 8.62018217,6.6114202 C8.59497719,6.55167758 8.56922723,6.49751412 8.54347728,6.44340516 C8.5188854,6.38014066 8.49913014,6.31509819 8.48441588,6.24884315 C8.73251463,5.53640737 9.14928238,4.93402197 9.762104,4.47888134 C9.79548357,4.44847187 9.62865385,4.48668126 9.66203342,4.45627179 C9.70099896,4.42078046 9.95529677,4.31833924 10.0032544,4.29526647 C10.0619751,4.26757505 9.75215825,4.13603912 9.47871828,4.16806988 C9.20023731,4.19945348 9.14103967,4.23268318 8.99239841,4.29570245 C9.05411655,4.23429766 9.25023854,4.15380522 9.20425649,4.15433657 C8.90404474,4.20037312 8.53094291,4.37490058 8.21199773,4.57257574 C8.21138464,4.53815392 8.21792431,4.50397733 8.23127614,4.47223949 C8.08263488,4.53527919 7.7175714,4.79041489 7.61130175,5.0062717 C7.6158659,4.96490148 7.61790954,4.92328601 7.61743269,4.88165692 C7.50421465,4.97609385 7.4020323,5.08306515 7.31292929,5.20052717 L7.30741144,5.20558179 C6.44526488,4.85828441 5.6866563,4.83580429 5.04467183,4.99152338 C4.90423241,4.85048449 4.83562718,4.95358648 4.51606209,4.25149155 C4.49434494,4.2092153 4.53272463,4.29323645 4.51606209,4.25149155 C4.46349268,4.11533697 4.54811329,4.43314452 4.51606209,4.25149155 C3.97875323,4.67544612 3.27178079,5.15592116 2.93241958,5.49507801 C2.92822329,5.50860014 3.32832169,5.38200302 2.93241958,5.49507801 C2.79377856,5.53467708 2.80319296,5.61694068 2.78212296,6.36043991 C2.77704791,6.41681732 2.78154393,6.47995238 2.77697978,6.53070295 C2.50587638,6.87614061 2.32123969,7.1685865 2.25141508,7.32015699 C1.90081381,7.92432717 1.51467352,8.86610784 1.14037275,10.3559265 C1.30547218,9.95210187 1.50451659,9.56299147 1.73538058,9.19281887 C1.42411952,9.98357403 1.12322655,11.2253621 1.0630684,13.1376026 C1.13836316,12.7430425 1.23491186,12.352774 1.35228532,11.9685684 C1.27880259,13.5550516 1.55239243,15.1384693 2.15396037,16.6083283 C2.36923814,17.1349762 2.72533001,17.9341784 3.3315234,18.809813 C5.23609344,20.8137452 7.92248107,22.0612555 10.8971456,22.0612555 C14.0026035,22.0612555 16.7912279,20.7025708 18.7074876,18.5450245 Z" id="Path" fill="url(#linearGradient-9)"></path>
                                <path d="M16.4100878,20.0005099 C20.1684909,19.5652812 21.8322921,15.6921614 19.6957272,15.6160015 C17.7657751,15.5543515 14.6297987,20.2058964 16.4100878,20.0005099 Z" id="Path" fill="url(#radialGradient-10)"></path>
                                <path d="M19.9657611,14.8248376 C22.5515877,13.3198959 21.8773885,10.0692028 21.8773885,10.0692028 C21.8773885,10.0692028 20.8794076,11.2285638 20.2014617,13.0765657 C19.5317586,14.9064472 18.4110907,15.7337155 19.9657611,14.8248376 Z" id="Path" fill="url(#radialGradient-11)"></path>
                                <path d="M11.7564991,21.9240586 C15.3616968,23.0744275 18.4602063,20.2343713 16.550282,19.2859828 C14.813727,18.4305803 10.0454216,21.3801079 11.7564991,21.9240586 Z" id="Path" fill="url(#radialGradient-12)"></path>
                                <path d="M20.2345007,16.2050487 C20.3222413,16.0812718 20.4408409,15.6850086 20.5456119,15.5078925 C21.1820717,14.4804149 21.1865677,13.6612531 21.1865677,13.6424515 C21.5710458,11.7221046 21.5361676,10.9378891 21.2996495,9.48771714 C21.1092497,8.32004535 20.2768723,6.64718402 19.5558055,5.84164649 C18.8127355,5.01170099 19.3362497,5.28211637 18.6167497,4.67587529 C17.9861484,3.97681858 17.3746892,3.28457402 17.0417109,3.00618161 C14.6353847,0.994449541 14.6897457,0.567143385 14.7361365,0.494287369 C14.7283025,0.50285025 14.71679,0.515568546 14.7021438,0.532203833 C14.673669,0.418598176 14.653505,0.323061765 14.653505,0.323061765 C14.653505,0.323061765 13.3381457,1.63841634 13.0612315,3.83067738 C12.8804369,5.26189789 13.416213,6.75393052 14.1919814,7.70749622 C14.5959423,8.20171819 15.0524931,8.65050308 15.5535272,9.04594878 C16.1396451,9.88772698 16.4622689,10.9258316 16.4622689,12.0431615 C16.4622689,14.8410505 14.192867,17.1091581 11.3934793,17.1091581 C11.0119304,17.1093625 10.6316077,17.0666502 10.2596639,16.9818389 C8.93885486,16.7300616 8.17609767,16.0638327 7.79570684,15.6115054 C7.57771782,15.3522348 7.48500437,15.1632655 7.48500437,15.1632655 C8.66841224,15.587186 9.97695943,15.4985599 10.7726875,15.0590395 C11.5745464,14.6144782 12.0597082,14.284906 12.4534509,14.4148139 C12.8416076,14.5441767 13.1506751,14.1686906 12.8734885,13.7793759 C12.6018197,13.3906742 11.8950584,12.8339848 10.8455775,12.988212 C10.0427649,13.1051086 9.30739254,13.6749455 8.25545929,13.1230927 C8.18774646,13.0878739 8.1218729,13.0492489 8.05804299,13.0072179 C7.98876336,12.966345 8.28345726,13.0694129 8.2147226,13.022954 C8.01001729,12.9233603 7.64761055,12.7061887 7.55373903,12.629007 C7.53807107,12.616132 7.7125304,12.678872 7.69679432,12.6659289 C6.71325513,11.9401617 6.83601019,11.4499589 6.86700551,11.1424581 C6.89173364,10.8964712 7.07034839,10.5812045 7.37144571,10.4534085 C7.51681714,10.5244593 7.60741882,10.5787522 7.60741882,10.5787522 C7.60741882,10.5787522 7.54536008,10.4651935 7.51184426,10.4053828 C7.52356117,10.4008868 7.53480123,10.4020448 7.54645002,10.3975488 C7.66559464,10.4490487 7.92895262,10.5828395 8.06764813,10.6645172 C8.24823841,10.778689 8.30586925,10.8805307 8.30586925,10.8805307 C8.30586925,10.8805307 8.35341811,10.8570288 8.31819926,10.7575032 C8.3053924,10.7166983 8.25062266,10.5869268 8.07173543,10.4559971 L8.08290736,10.4571552 C8.18910889,10.5112437 8.2905419,10.5743924 8.38598022,10.6457157 C8.4364583,10.4814064 8.52719623,10.3098082 8.50723661,10.0028524 C8.49504285,9.78704331 8.50062882,9.7311155 8.45818908,9.64780282 C8.42017724,9.57627518 8.47951113,9.54827721 8.54545281,9.62266597 C8.53407651,9.5640133 8.51507059,9.50706367 8.48904815,9.45324763 L8.48966124,9.44766166 C8.57202022,9.19050274 10.2327559,8.52168519 10.3536036,8.44354975 C10.5483631,8.32127154 10.7149204,8.15900597 10.8422396,7.96744812 C10.9345443,7.83556476 11.0040964,7.65054659 11.0210587,7.36988573 C11.0267128,7.2434521 10.9878154,7.14338152 10.5479544,7.04767072 C10.2839833,6.99017611 9.87559453,6.93424831 9.2456744,6.87518691 C8.78646691,6.83465457 8.51704611,6.5365001 8.36390883,6.26133665 C8.33597899,6.20205726 8.30750417,6.14826166 8.27896124,6.09467724 C8.25191697,6.03229832 8.23004995,5.96776676 8.21363265,5.90176377 C8.48843506,5.18237958 8.98333824,4.56810016 9.62776827,4.14650259 C9.66469016,4.11631792 9.48008071,4.15422757 9.5170026,4.12407016 C9.56012355,4.08887855 9.84153375,3.98729567 9.89466857,3.96440683 C9.95958843,3.93703558 9.61673258,3.80656234 9.31406845,3.83826612 C9.00588648,3.86939768 8.94042166,3.90232764 8.77590807,3.96486324 C8.84416588,3.90396937 9.06126932,3.82409683 9.0103825,3.82467587 C8.6780855,3.87032413 8.26499631,4.04342103 7.91192223,4.23942722 C7.91130914,4.20505989 7.91859814,4.17100592 7.93324428,4.13992205 C7.76873069,4.20243721 7.36470168,4.45546796 7.24712385,4.66952636 C7.25216485,4.62854442 7.25441286,4.58726275 7.25386789,4.54597427 C7.13002288,4.63829943 7.0170092,4.7443579 6.91693862,4.86211965 L6.91080767,4.86715384 C5.95666975,4.52273801 5.11703056,4.50044863 4.40650899,4.65485297 C4.25106919,4.51498577 4.0011516,4.30348874 3.64747805,3.60718414 C3.62345838,3.5652485 3.61055616,3.69383477 3.59209521,3.6524373 C3.45468039,3.33368286 3.37164701,2.81143567 3.38528495,2.45139957 C3.38528495,2.45139957 3.10103408,2.58095316 2.86576944,3.1220019 C2.82208307,3.21926587 2.79407149,3.27291842 2.76608033,3.32657097 C2.75319855,3.34221849 2.79527043,3.14888267 2.78855364,3.15940745 C2.74766026,3.2286394 2.64188109,3.32537203 2.59538131,3.45058628 C2.56344592,3.54337467 2.51864918,3.59534461 2.49005855,3.71106953 L2.48334858,3.72168968 C2.48103926,3.68758121 2.49181609,3.58135925 2.48396849,3.60314453 C2.37369329,3.82593612 2.27879995,4.05601671 2.19994242,4.29176502 C2.07327718,4.70820579 1.92582124,5.27505216 1.90244191,6.01246132 C1.89681507,6.0683755 1.90182201,6.13097922 1.89674014,6.18130743 C1.59674638,6.52385673 1.3923408,6.8138775 1.31505689,6.9642218 C0.927213554,7.56355535 0.499832464,8.49757016 0.0855443395,9.97499071 C0.269867677,9.57143855 0.49028182,9.1853255 0.744095969,8.82142009 C0.399591578,9.60563557 0.0665758891,10.8370691 1.21008212e-15,12.7335736 C0.083625355,12.3411252 0.190519675,11.9539904 0.320114145,11.5742126 C0.26062358,12.8387533 0.407922845,14.4065712 1.20738394,16.1754839 C1.68206183,17.2159046 2.77475221,19.3288313 5.44466805,20.9776457 C5.44466805,20.9776457 6.35275579,21.6539566 7.914034,22.1607129 C8.02936381,22.2025396 8.14626042,22.2437531 8.26554129,22.2838086 C8.22814255,22.2686856 8.19190187,22.2527452 8.15675114,22.236396 C9.19594565,22.5477797 10.2749232,22.7063667 11.3597591,22.7071895 C15.4022973,22.7105902 16.594561,21.0871852 16.594561,21.0871852 C16.594561,21.0871852 16.5903374,21.0903869 16.5827078,21.0959047 C16.6397256,21.0422249 16.6946997,20.9863652 16.747562,20.9284619 C16.1097398,21.5307247 14.6541862,21.570712 14.1098949,21.5272505 C15.0381194,21.254628 15.6488974,21.0240365 16.8369375,20.5691206 C16.9759736,20.5176207 17.1181433,20.4588318 17.2634466,20.392822 C17.2791827,20.3859417 17.2950551,20.3784484 17.3107911,20.3712275 C17.3396066,20.3578075 17.3681495,20.3451369 17.3973055,20.3310358 C17.9761345,20.0582089 18.5204258,19.7174648 19.018667,19.3159563 C20.2117481,18.3628674 20.4712913,17.4338936 20.6069894,16.8214126 C20.5880516,16.8800653 20.5291265,17.0169215 20.4877086,17.1056158 C20.1804122,17.7628527 19.4990602,18.1661323 18.7591238,18.5120537 C19.1112442,18.0500532 19.4377508,17.5690468 19.7372814,17.0712825 C19.9787723,16.831699 20.0541829,16.4568941 20.2345007,16.2050487 Z" id="Path" fill="url(#radialGradient-13)"></path>
                                <path d="M18.7830345,18.4837832 C19.2694906,17.9474621 19.7062861,17.3340274 20.0372206,16.6384381 C20.8887402,14.8481352 22.2052576,11.8712908 21.1683793,8.76229057 C20.3488087,6.30505026 19.2236447,4.96142728 17.7949992,3.64888816 C15.4748468,1.517412 14.8268063,0.565855887 14.8268063,0 C14.8268063,0 12.1479257,2.98629692 13.309739,6.10096486 C14.4715523,9.2156396 16.8510387,9.10146785 18.42526,12.3517522 C20.2777579,16.1765738 16.9265174,20.3503823 14.1551276,21.518599 C14.3248185,21.4809278 20.3158378,20.1251724 20.6306957,16.6983169 C20.623543,16.7613975 20.4885941,17.7091729 18.7830345,18.4837832 Z" id="Path" fill="url(#radialGradient-14)"></path>
                                <path d="M11.0205818,7.36995385 C11.029642,7.16756467 10.9246667,7.03166215 9.25098788,6.87471006 C8.56241508,6.81108451 8.29878461,6.17468602 8.21840116,5.90683201 C7.97357225,6.54293759 7.87247984,7.21041314 7.92677273,8.01778996 C7.96396711,8.54668581 8.3192892,9.11441095 8.48918439,9.44772978 C8.48918439,9.44772978 8.52692374,9.39868225 8.54436286,9.38049379 C8.86419362,9.04751557 10.2043492,8.54007802 10.3302379,8.46807352 C10.4690696,8.38040106 10.9972161,7.99449238 11.0205818,7.36995385 Z" id="Path" fill="url(#linearGradient-15)"></path>
                                <path d="M3.65384741,3.6107469 C3.62982775,3.56879764 3.61692552,3.69737709 3.59846458,3.65600005 C3.46104975,3.33724562 3.37744415,2.82063208 3.39724028,2.45552092 C3.39724028,2.45552092 3.1129826,2.5850677 2.87771796,3.12612325 C2.83403841,3.22338723 2.80602001,3.27703977 2.77802886,3.33069232 C2.76515388,3.34633985 2.80722576,3.15300402 2.80050897,3.16352881 C2.75963603,3.23275394 2.65385686,3.32949338 2.60790887,3.44909442 C2.56981529,3.54691699 2.53063176,3.59943872 2.5014621,3.7207496 C2.49248368,3.75372726 2.51050865,3.57484002 2.50266104,3.5966253 C1.95549499,4.65410364 1.851051,6.25304626 1.90872272,6.18542879 C3.07356746,4.94161071 4.40847089,4.64662389 4.40847089,4.64662389 C4.26643742,4.54199597 3.95781266,4.23990407 3.65384741,3.6107469 Z" id="Path" fill="url(#linearGradient-16)"></path>
                                <path d="M8.07302974,16.6173885 C6.46406644,15.9303825 4.63483886,14.9614894 4.70388007,12.7604135 C4.79791508,9.8615683 7.40714141,10.4345388 7.40714141,10.4345388 C7.30870575,10.4585176 7.04541589,10.64592 6.95215747,10.8457206 C6.85351744,11.0955905 6.67360838,11.6597733 7.21871716,12.2510685 C8.07459653,13.1786118 5.46028151,14.4515995 9.49547619,16.856359 C9.59724981,16.9117418 8.5495401,16.8233881 8.07302974,16.6173885 Z" id="Path" fill="url(#linearGradient-17)"></path>
                                <path d="M7.50196664,15.1727344 C8.64293477,15.569815 9.97205467,15.5001948 10.7677827,15.0606745 C11.3005615,14.7640731 11.983957,14.2891296 12.4044034,14.4063668 C12.0403617,14.2624259 11.7646056,14.1951899 11.4329217,14.1787726 C11.3764489,14.1787726 11.3087361,14.1776146 11.2472223,14.1714155 C11.1256934,14.1710068 11.0043008,14.1776827 10.8835894,14.191307 C10.6782028,14.2101767 10.4505406,14.3397439 10.2435872,14.3189668 C10.2323472,14.3178088 10.4443415,14.2319075 10.4271067,14.2357904 C10.317431,14.2586792 10.1982864,14.263584 10.0723977,14.2791838 C9.99242302,14.2881078 9.92355212,14.2981216 9.84412237,14.3013915 C7.46770149,14.5029632 5.45924607,13.013417 5.45924607,13.013417 C5.28829499,13.5891805 6.22457144,14.7280368 7.50196664,15.1727344 Z" id="Path" fill="url(#linearGradient-18)"></path>
                                <path d="M18.7778572,18.4991106 C21.1815267,16.139107 22.3977011,13.2703715 21.8835876,10.0527174 C21.8835876,10.0527174 22.088906,11.7026899 21.3101402,13.3901974 C21.6842639,11.7427454 21.7278617,9.69535168 20.7338318,7.57520413 C19.4070961,4.74534566 17.2250942,3.25629676 16.3920356,2.63508256 C15.1298792,1.69381961 14.6067055,0.735451342 14.5972366,0.537687619 C14.2201837,1.31022025 13.0796243,3.95761511 14.4746859,6.23756222 C15.7817344,8.3735889 17.8407769,9.00766445 19.2821612,10.966977 C21.9376761,14.5766026 18.7778572,18.4991106 18.7778572,18.4991106 Z" id="Path" fill="url(#linearGradient-19)"></path>
                                <path d="M18.4335708,12.3586325 C17.5934956,10.6232355 16.5450366,9.86633681 15.5532547,9.04594878 C15.6686526,9.20753313 15.6970593,9.26455089 15.7609574,9.36904937 C16.6338671,10.2993856 17.9210923,12.5687194 16.9865325,15.4175633 C15.2274292,20.7798888 8.19115253,18.2547585 7.45346408,17.5454767 C7.75190467,20.6489591 12.9464467,22.1340774 16.3286144,20.1214938 C18.2531849,18.2996506 19.8101714,15.2025036 18.4335708,12.3586325 Z" id="Path" fill="url(#linearGradient-20)"></path>
                            </g>
                            <g id="Group-1" transform="translate(28.000000, 0.000000)">
                                <g id="Clipped">
                                    <mask id="mask-22" fill="white">
                                        <use xlink:href="#path-21"></use>
                                    </mask>
                                    <g id="Path"></g>
                                    <g id="Group" mask="url(#mask-22)" fill-rule="nonzero">
                                        <g transform="translate(1.705432, 0.000000)" id="Path">
                                            <path d="M9.29401263,5.49560683e-16 C13.5685049,5.49560683e-16 17.2735488,2.43811783 19.0943577,5.99955228 L9.29401263,6 C6.5325712,6 4.29399523,8.23860344 4.29399523,10.9999789 C4.29399523,11.8678793 4.51511515,12.6841018 4.90408635,13.3954501 L4.96401438,13.5 L0.0402468209,13.5 L0.0386694201,5.05286759 C1.99595324,2.01311061 5.40991061,5.49560683e-16 9.29401263,5.49560683e-16 Z" fill="#DB4437"></path>
                                            <path d="M9.29401263,5.49560683e-16 C13.5685049,5.49560683e-16 17.2735488,2.43811783 19.0943577,5.99955228 L9.29401263,6 C6.5325712,6 4.29399523,8.23860344 4.29399523,10.9999789 C4.29399523,11.8678793 4.51511515,12.6841018 4.90408635,13.3954501 L4.96401438,13.5 L0.0402468209,13.5 L0.0386694201,5.05286759 C1.99595324,2.01311061 5.40991061,5.49560683e-16 9.29401263,5.49560683e-16 Z" fill="url(#linearGradient-23)"></path>
                                            <polygon fill-opacity="0.15" fill="#3E2723" points="5.08347444 13.4563022 0.104728854 4.91753452 0.0322278168 5.04253198 4.97470639 13.5175502"></polygon>
                                            <path d="M0.0399630208,5.05626659 L4.51333315,9.52989412 C4.37055527,9.99473236 4.29371143,10.4884126 4.29371143,11.0000449 C4.29371143,11.8678793 4.51483135,12.6841018 4.90382235,13.3954501 L0.0399630208,5.05626659 Z" fill="url(#radialGradient-24)"></path>
                                            <path d="M0.03836582,5.05369259 L4.96295838,13.5000602 C5.83297083,14.992519 7.44422967,16.0000095 9.29421063,16.0000095 C11.0589196,16.0000095 12.6072144,15.082015 13.4966968,13.7005023 L13.6191929,13.5000602 L13.6267169,13.5000602 L13.6267169,13.6249982 C12.7554504,15.118777 11.1441916,16.1250135 9.29546463,16.1250135 C7.52956772,16.1250135 5.98120691,15.2070191 5.09172445,13.8255063 L4.96922838,13.6249982 L4.96421238,13.6249982 L-1.46549515e-15,5.11371302 L0.03836582,5.05369259 Z" fill-opacity="0.1" fill="#FFFFFF"></path>
                                        </g>
                                    </g>
                                </g>
                                <g id="Clipped">
                                    <mask id="mask-26" fill="white">
                                        <use xlink:href="#path-25"></use>
                                    </mask>
                                    <g id="Path"></g>
                                    <g id="Group" mask="url(#mask-26)" fill-rule="nonzero">
                                        <g transform="translate(-0.000000, 5.052564)" id="Path">
                                            <path d="M1.74487327,-1.75859419e-15 L6.66997403,8.44743019 C7.53384848,9.94219897 9.14952932,10.9474455 11.0000383,10.9474455 C12.8504812,10.9474455 14.4661621,9.94219897 15.3307625,8.44802419 L15.3312905,12.0874641 L10.482862,16.9354966 C4.64783858,16.6654905 5.49560683e-16,11.84927 5.49560683e-16,5.94741489 C5.49560683e-16,3.75627975 0.640659693,1.71476669 1.74487327,-1.75859419e-15 Z" fill="#0F9D58"></path>
                                            <path d="M1.74487327,-1.75859419e-15 L6.66997403,8.44743019 C7.53384848,9.94219897 9.14952932,10.9474455 11.0000383,10.9474455 C12.8504812,10.9474455 14.4661621,9.94219897 15.3307625,8.44802419 L15.3312905,12.0874641 L10.482862,16.9354966 C4.64783858,16.6654905 5.49560683e-16,11.84927 5.49560683e-16,5.94741489 C5.49560683e-16,3.75627975 0.640659693,1.71476669 1.74487327,-1.75859419e-15 Z" fill="url(#linearGradient-27)"></path>
                                            <polygon fill-opacity="0.15" fill="#263238" points="15.2305085 8.61375028 15.1267564 8.55375625 10.3279599 16.9475086 10.471708 16.9475086 15.2342045 8.61751228"></polygon>
                                            <polygon fill="url(#radialGradient-28)" points="10.47877 16.9337146 13.0987734 7.15871352 15.3312905 8.44749619"></polygon>
                                            <path d="M15.3747846,8.61368428 C15.7998248,7.8787079 16.0460709,7.02869345 16.0460709,6.11868498 C16.0460709,5.59121271 15.9635709,5.08367244 15.8122988,4.6074162 C15.9310328,5.03496442 15.9998049,5.48369865 15.9998049,5.94866889 C15.9998049,6.85867737 15.7535588,7.70869181 15.3285845,8.44366819 L15.3310925,8.44868419 L10.471048,16.9486966 L10.6160501,16.9486966 L15.3772926,8.61870028 L15.3747846,8.61368428 Z" fill-opacity="0.2" fill="#FFFFFF"></path>
                                        </g>
                                    </g>
                                </g>
                                <g id="Clipped">
                                    <mask id="mask-30" fill="white">
                                        <use xlink:href="#path-29"></use>
                                    </mask>
                                    <g id="Path"></g>
                                    <g id="Group" mask="url(#mask-30)" fill-rule="nonzero">
                                        <g transform="translate(6.000588, 5.874667)" id="Path">
                                            <path d="M14.7996629,0.124390265 C15.5668473,1.62473604 15.9996095,3.32456693 15.9996095,5.12537787 C15.9996095,11.200483 11.074687,16.1254056 4.9995818,16.1254056 C4.82527571,16.1254056 4.65182762,16.1213136 4.47950153,16.1133276 L9.33083405,7.62539317 C9.75633627,6.88916278 9.9996124,6.03565034 9.9996124,5.12537787 C9.9996124,2.36393643 7.76102324,0.125380265 4.9995818,0.125380265 L14.7996629,0.124390265 Z" fill="#FFCD40"></path>
                                            <path d="M14.7996629,0.124390265 C15.5668473,1.62473604 15.9996095,3.32456693 15.9996095,5.12537787 C15.9996095,11.200483 11.074687,16.1254056 4.9995818,16.1254056 C4.82527571,16.1254056 4.65182762,16.1213136 4.47950153,16.1133276 L9.33083405,7.62539317 C9.75633627,6.88916278 9.9996124,6.03565034 9.9996124,5.12537787 C9.9996124,2.36393643 7.76102324,0.125380265 4.9995818,0.125380265 L14.7996629,0.124390265 Z" fill="url(#linearGradient-31)"></path>
                                            <polygon fill="url(#radialGradient-32)" points="5.0003078 0.125360465 5.0003078 2.74409663 14.8002569 0.125360465"></polygon>
                                            <path d="M4.9999778,0.000336600175 L14.7355109,-1.17239612e-15 L14.8000589,0.124350665 L4.9999778,0.125334065 C2.31767041,0.125334065 0.128356867,2.23800836 0.00544500283,4.88995574 L-1.17239612e-15,5.12531187 L-1.17239612e-15,5.0003078 C-1.17239612e-15,2.31800041 2.1126743,0.128693467 4.76462168,0.00578160301 L4.9999778,0.000336600175 Z" fill-opacity="0.2" fill="#3E2723"></path>
                                            <path d="M5.12465186,0.125360465 C5.10339985,0.125360465 5.08340184,0.127855266 5.06214983,0.129109267 C7.79468325,0.162855085 9.9996784,2.38538644 9.9996784,5.12537787 C9.9996784,7.86536929 7.79468325,10.0878544 5.06214983,10.1215805 C5.08340184,10.1215805 5.10339985,10.1253425 5.12465186,10.1253425 C7.8858953,10.1253425 10.1246825,7.8866213 10.1246825,5.12537787 C10.1246825,2.36413443 7.8858953,0.125360465 5.12465186,0.125360465 Z" fill="#3E2723" opacity="0.1"></path>
                                        </g>
                                    </g>
                                </g>
                                <g id="Clipped">
                                    <mask id="mask-34" fill="white">
                                        <use xlink:href="#path-33"></use>
                                    </mask>
                                    <g id="Path"></g>
                                    <g id="Group" mask="url(#mask-34)" fill-rule="nonzero">
                                        <g transform="translate(6.000588, 6.000027)" id="Path">
                                            <path d="M4.9999778,9.999982 C7.76141924,9.999982 10,7.76145884 10,5.0000174 C10,2.23857596 7.76141924,-1.17239612e-15 4.9999778,-1.17239612e-15 C2.23860236,-1.17239612e-15 2.34479225e-15,2.23857596 2.34479225e-15,5.0000174 C2.34479225e-15,7.76145884 2.23860236,9.999982 4.9999778,9.999982 Z" fill="#F1F1F1"></path>
                                            <path d="M5.00030972,9.00001932 C7.20946095,9.00001932 9.00030972,7.20910455 9.00030972,5.00001932 C9.00030972,2.79086425 7.20946095,1.00001932 5.00030972,1.00001932 C2.79115465,1.00001932 1.00030972,2.79086425 1.00030972,5.00001932 C1.00030972,7.20910455 2.79115465,9.00001932 5.00030972,9.00001932 Z" fill="#4285F4"></path>
                                        </g>
                                    </g>
                                </g>
                                <g id="Clipped">
                                    <mask id="mask-36" fill="white">
                                        <use xlink:href="#path-35"></use>
                                    </mask>
                                    <g id="Path"></g>
                                    <path d="M11.0000383,0.125000105 C17.0537594,0.125000105 21.96502,5.01625077 21.998746,11.0624809 C21.998746,11.0412289 22,11.0212309 22,10.9999789 C22,4.92500572 17.0750114,5.49560683e-16 11.0000383,5.49560683e-16 C4.92499912,5.49560683e-16 -6.22835441e-16,4.92500572 -6.22835441e-16,10.9999789 C-6.22835441e-16,11.0212309 0.00125004065,11.0412289 0.00125004065,11.0624809 C0.0350004782,5.01625077 4.94625113,0.125000105 11.0000383,0.125000105 Z" id="Path" fill-opacity="0.2" fill="#FFFFFF" fill-rule="nonzero" mask="url(#mask-36)"></path>
                                </g>
                                <g id="Clipped">
                                    <mask id="mask-38" fill="white">
                                        <use xlink:href="#path-37"></use>
                                    </mask>
                                    <g id="Path"></g>
                                    <path d="M11.0000383,21.8750685 C17.0537594,21.8750685 21.96502,16.983806 21.998746,10.9375428 C21.998746,10.9587949 22,10.9787929 22,11.0000449 C22,17.075018 17.0750114,22.0000726 11.0000383,22.0000726 C4.92499912,22.0000726 -6.22835441e-16,17.075018 -6.22835441e-16,11.0000449 C-6.22835441e-16,10.9787929 0.00125004065,10.9587949 0.00125004065,10.9375428 C0.0350004782,16.983806 4.94625113,21.8750685 11.0000383,21.8750685 Z" id="Path" fill-opacity="0.15" fill="#3E2723" fill-rule="nonzero" mask="url(#mask-38)"></path>
                                </g>
                                <path d="M11.0000383,22 C17.0751434,22 22,17.07515 22,10.9999789 C22,4.92486712 17.0751434,0 11.0000383,0 C4.92486712,0 0,4.92486712 0,10.9999789 C0,17.07515 4.92486712,22 11.0000383,22 Z" id="Path" fill="url(#radialGradient-39)" fill-rule="nonzero"></path>
                            </g>
                        </g>
                    </g>
                </g>
            </g>
        </g>
    </g>
</svg>
