<svg width="46" height="22" viewBox="0 0 46 22" fill="none" xmlns="http://www.w3.org/2000/svg">
	<path d="M19.857 16.3744C19.5677 16.526 19.2657 16.6616 18.9517 16.7795C18.008 17.134 16.9658 17.335 15.8665 17.335C11.7998 17.335 8.2572 14.5375 8.2572 10.9478C8.2572 9.93839 8.84118 9.06347 9.66877 8.60258C5.99096 8.75676 5.04551 12.5902 5.04551 14.8358C5.04551 21.1845 10.8971 21.8287 12.1579 21.8287C12.8374 21.8287 13.863 21.6308 14.4809 21.437C14.5186 21.4244 14.556 21.4118 14.5935 21.3989C16.9792 20.5761 18.9927 18.9576 20.3161 16.8596C20.506 16.5587 20.1722 16.2091 19.857 16.3744Z" fill="url(#paint0_linear_1_10)" />
	<path opacity="0.35" d="M19.857 16.3744C19.5677 16.526 19.2657 16.6616 18.9517 16.7795C18.008 17.134 16.9658 17.335 15.8665 17.335C11.7998 17.335 8.2572 14.5375 8.2572 10.9478C8.2572 9.93839 8.84118 9.06347 9.66877 8.60258C5.99096 8.75676 5.04551 12.5902 5.04551 14.8358C5.04551 21.1845 10.8971 21.8287 12.1579 21.8287C12.8374 21.8287 13.863 21.6308 14.4809 21.437C14.5186 21.4244 14.556 21.4118 14.5935 21.3989C16.9792 20.5761 18.9927 18.9576 20.3161 16.8596C20.506 16.5587 20.1722 16.2091 19.857 16.3744Z" fill="url(#paint1_radial_1_10)" />
	<path d="M9.08479 20.7469C8.32036 20.2731 7.65685 19.6483 7.13088 18.91C6.31705 17.7674 5.8305 16.3618 5.8305 14.8358C5.8305 12.5901 6.87618 10.6011 8.488 9.34095C8.85411 9.0547 9.32286 8.76601 9.66818 8.60259C9.93634 8.4756 10.395 8.24697 11.0042 8.25562C12.0141 8.26994 12.7772 8.78482 13.2115 9.36959C13.5452 9.81893 13.751 10.3724 13.7579 10.9734C13.7582 10.9553 15.8604 4.13219 6.87856 4.13219C3.10639 4.13219 0 7.71322 0 10.854C0 12.8462 0.462298 14.4368 1.04112 15.6694C2.33027 18.4151 4.72087 20.5403 7.64523 21.4766C8.70422 21.8157 9.83239 22.0005 11.0042 22.0005C12.2194 22.0005 13.3873 21.8006 14.4803 21.4369C13.8624 21.6308 13.2073 21.7368 12.5278 21.7368C11.267 21.7368 10.0918 21.3712 9.08479 20.7469Z" fill="url(#paint2_linear_1_10)" />
	<path opacity="0.41" d="M7.13088 18.91C6.31705 17.7674 5.8305 16.3618 5.8305 14.8358C5.8305 12.5901 6.87618 10.6011 8.488 9.34095C8.85411 9.0547 9.32286 8.76601 9.66818 8.60259C9.93634 8.4756 10.395 8.24697 11.0042 8.25562C12.0141 8.26994 12.7772 8.78482 13.2115 9.36959C13.5452 9.81893 13.751 10.3724 13.7579 10.9734C13.7582 10.9553 15.8604 4.13219 6.87856 4.13219C3.10639 4.13219 0 7.71322 0 10.854C0 12.8462 0.462298 14.4368 1.04112 15.6694C2.33027 18.4151 4.72087 20.5403 7.64523 21.4766C8.70422 21.8157 9.83239 22.0005 11.0042 22.0005C12.2194 22.0005 13.3873 21.8006 14.4803 21.4369C13.8624 21.6308 13.2073 21.7368 12.5278 21.7368C11.267 21.7368 10.0918 21.3712 9.08479 20.7469C8.32036 20.2731 7.65685 19.6483 7.13088 18.91Z" fill="url(#paint3_radial_1_10)" />
	<path d="M13.0893 12.7928C13.0197 12.8829 12.8054 13.0074 12.8054 13.2795C12.8054 13.5033 12.9515 13.7192 13.2112 13.9005C14.447 14.763 16.7765 14.6467 16.7827 14.6467C17.7443 14.6434 18.6095 14.3789 19.3843 13.9259C19.7368 13.7198 20.0631 13.475 20.3573 13.1954C21.3669 12.2361 21.9824 10.8841 21.9995 9.38207C22.0214 7.45568 21.3154 6.17498 21.0253 5.6079C19.2039 2.04845 15.2725 0 10.9978 0C4.97225 0 0.0808591 4.84235 0 10.8456C0.040849 7.7051 3.16204 5.16914 6.87222 5.16914C7.17305 5.16914 8.8885 5.19847 10.4822 6.03485C11.8859 6.77157 12.6219 7.6618 13.1334 8.54497C13.6645 9.46193 13.759 10.6201 13.759 11.0818C13.759 11.5435 13.5262 12.2272 13.0893 12.7928Z" fill="url(#paint4_radial_1_10)" />
	<path d="M13.0893 12.7928C13.0197 12.8829 12.8054 13.0074 12.8054 13.2795C12.8054 13.5033 12.9515 13.7192 13.2112 13.9005C14.447 14.763 16.7765 14.6467 16.7827 14.6467C17.7443 14.6434 18.6095 14.3789 19.3843 13.9259C19.7368 13.7198 20.0631 13.475 20.3573 13.1954C21.3669 12.2361 21.9824 10.8841 21.9995 9.38207C22.0214 7.45568 21.3154 6.17498 21.0253 5.6079C19.2039 2.04845 15.2725 0 10.9978 0C4.97225 0 0.0808591 4.84235 0 10.8456C0.040849 7.7051 3.16204 5.16914 6.87222 5.16914C7.17305 5.16914 8.8885 5.19847 10.4822 6.03485C11.8859 6.77157 12.6219 7.6618 13.1334 8.54497C13.6645 9.46193 13.759 10.6201 13.759 11.0818C13.759 11.5435 13.5262 12.2272 13.0893 12.7928Z" fill="url(#paint5_radial_1_10)" />
	<mask id="mask0_1_10" style="mask-type:luminance" maskUnits="userSpaceOnUse" x="24" y="0" width="22" height="22">
		<path d="M35 22C41.0751 22 46 17.0752 46 11C46 4.92487 41.0751 0 35 0C28.9249 0 24 4.92487 24 11C24 17.0752 28.9249 22 35 22Z" fill="white" />
	</mask>
	<g mask="url(#mask0_1_10)">
		<path d="M34.9994 0C39.2739 0 42.979 2.43812 44.7998 5.99955L34.9994 6C32.238 6 29.9994 8.2386 29.9994 11C29.9994 11.8679 30.2205 12.6841 30.6095 13.3954L30.6694 13.5H25.7457L25.7441 5.05287C27.7014 2.01311 31.1153 0 34.9994 0Z" fill="#DB4437" />
		<path d="M34.9994 0C39.2739 0 42.979 2.43812 44.7998 5.99955L34.9994 6C32.238 6 29.9994 8.2386 29.9994 11C29.9994 11.8679 30.2205 12.6841 30.6095 13.3954L30.6694 13.5H25.7457L25.7441 5.05287C27.7014 2.01311 31.1153 0 34.9994 0Z" fill="url(#paint6_linear_1_10)" />
		<path d="M30.7889 13.4563L25.8102 4.91753L25.7377 5.04253L30.6801 13.5175L30.7889 13.4563Z" fill="#3E2723" fill-opacity="0.15" />
		<path d="M25.7454 5.05627L30.2188 9.52989C30.076 9.99473 29.9991 10.4884 29.9991 11C29.9991 11.8679 30.2203 12.6841 30.6093 13.3954L25.7454 5.05627Z" fill="url(#paint7_radial_1_10)" />
		<path d="M25.7438 5.05369L30.6684 13.5001C31.5384 14.9925 33.1497 16 34.9996 16C36.7644 16 38.3126 15.082 39.2021 13.7005L39.3246 13.5001H39.3321V13.625C38.4609 15.1188 36.8496 16.125 35.0009 16.125C33.235 16.125 31.6866 15.207 30.7972 13.8255L30.6747 13.625H30.6696L25.7054 5.11371L25.7438 5.05369Z" fill="white" fill-opacity="0.1" />
	</g>
	<mask id="mask1_1_10" style="mask-type:luminance" maskUnits="userSpaceOnUse" x="24" y="0" width="22" height="22">
		<path d="M35 22C41.0751 22 46 17.0752 46 11C46 4.92487 41.0751 0 35 0C28.9249 0 24 4.92487 24 11C24 17.0752 28.9249 22 35 22Z" fill="white" />
	</mask>
	<g mask="url(#mask1_1_10)">
		<path d="M25.7449 5.05256L30.67 13.5C31.5338 14.9948 33.1495 16 35 16C36.8505 16 38.4662 14.9948 39.3308 13.5006L39.3313 17.14L34.4829 21.9881C28.6478 21.7181 24 16.9018 24 11C24 8.80884 24.6407 6.76733 25.7449 5.05256Z" fill="#0F9D58" />
		<path d="M25.7449 5.05256L30.67 13.5C31.5338 14.9948 33.1495 16 35 16C36.8505 16 38.4662 14.9948 39.3308 13.5006L39.3313 17.14L34.4829 21.9881C28.6478 21.7181 24 16.9018 24 11C24 8.80884 24.6407 6.76733 25.7449 5.05256Z" fill="url(#paint8_linear_1_10)" />
		<path d="M39.2305 13.6663L39.1268 13.6063L34.328 22.0001H34.4717L39.2342 13.6701L39.2305 13.6663Z" fill="#263238" fill-opacity="0.15" />
		<path d="M34.4788 21.9863L37.0988 12.2113L39.3313 13.5001L34.4788 21.9863Z" fill="url(#paint9_radial_1_10)" />
		<path d="M39.3748 13.6662C39.7998 12.9313 40.0461 12.0813 40.0461 11.1712C40.0461 10.6438 39.9636 10.1362 39.8123 9.65998C39.931 10.0875 39.9998 10.5363 39.9998 11.0012C39.9998 11.9112 39.7536 12.7613 39.3286 13.4962L39.3311 13.5012L34.471 22.0013H34.616L39.3773 13.6713L39.3748 13.6662Z" fill="white" fill-opacity="0.2" />
	</g>
	<mask id="mask2_1_10" style="mask-type:luminance" maskUnits="userSpaceOnUse" x="24" y="0" width="22" height="22">
		<path d="M35 22C41.0751 22 46 17.0752 46 11C46 4.92487 41.0751 0 35 0C28.9249 0 24 4.92487 24 11C24 17.0752 28.9249 22 35 22Z" fill="white" />
	</mask>
	<g mask="url(#mask2_1_10)">
		<path d="M44.8002 5.99906C45.5674 7.4994 46.0002 9.19923 46.0002 11C46.0002 17.0752 41.0753 22.0001 35.0002 22.0001C34.8259 22.0001 34.6524 21.996 34.4801 21.988L39.3314 13.5001C39.7569 12.7638 40.0002 11.9103 40.0002 11C40.0002 8.2386 37.7616 6.00005 35.0002 6.00005L44.8002 5.99906Z" fill="#FFCD40" />
		<path d="M44.8002 5.99906C45.5674 7.4994 46.0002 9.19923 46.0002 11C46.0002 17.0752 41.0753 22.0001 35.0002 22.0001C34.8259 22.0001 34.6524 21.996 34.4801 21.988L39.3314 13.5001C39.7569 12.7638 40.0002 11.9103 40.0002 11C40.0002 8.2386 37.7616 6.00005 35.0002 6.00005L44.8002 5.99906Z" fill="url(#paint10_linear_1_10)" />
		<path d="M35.0009 6.00003V8.61876L44.8008 6.00003H35.0009Z" fill="url(#paint11_radial_1_10)" />
		<path d="M35.0006 5.875L44.7361 5.87467L44.8006 5.99902L35.0006 6C32.3183 6 30.1289 8.11268 30.006 10.7646L30.0006 11V10.875C30.0006 8.19267 32.1133 6.00336 34.7652 5.88045L35.0006 5.875Z" fill="#3E2723" fill-opacity="0.2" />
		<path opacity="0.1" d="M35.1252 6.00003C35.104 6.00003 35.084 6.00252 35.0627 6.00378C37.7953 6.03752 40.0003 8.26005 40.0003 11C40.0003 13.74 37.7953 15.9625 35.0627 15.9962C35.084 15.9962 35.104 16 35.1252 16C37.8865 16 40.1253 13.7613 40.1253 11C40.1253 8.2388 37.8865 6.00003 35.1252 6.00003Z" fill="#3E2723" />
	</g>
	<mask id="mask3_1_10" style="mask-type:luminance" maskUnits="userSpaceOnUse" x="24" y="0" width="22" height="22">
		<path d="M35 22C41.0751 22 46 17.0752 46 11C46 4.92487 41.0751 0 35 0C28.9249 0 24 4.92487 24 11C24 17.0752 28.9249 22 35 22Z" fill="white" />
	</mask>
	<g mask="url(#mask3_1_10)">
		<path d="M35.0006 16C37.762 16 40.0006 13.7615 40.0006 11C40.0006 8.2386 37.762 6.00003 35.0006 6.00003C32.2392 6.00003 30.0006 8.2386 30.0006 11C30.0006 13.7615 32.2392 16 35.0006 16Z" fill="#F1F1F1" />
		<path d="M35.0009 15C37.21 15 39.0009 13.2091 39.0009 11C39.0009 8.79089 37.21 7.00005 35.0009 7.00005C32.7917 7.00005 31.0009 8.79089 31.0009 11C31.0009 13.2091 32.7917 15 35.0009 15Z" fill="#4285F4" />
	</g>
	<mask id="mask4_1_10" style="mask-type:luminance" maskUnits="userSpaceOnUse" x="24" y="0" width="22" height="22">
		<path d="M35 22C41.0751 22 46 17.0752 46 11C46 4.92487 41.0751 0 35 0C28.9249 0 24 4.92487 24 11C24 17.0752 28.9249 22 35 22Z" fill="white" />
	</mask>
	<g mask="url(#mask4_1_10)">
		<path d="M35 0.125C41.0538 0.125 45.965 5.01625 45.9987 11.0625C45.9987 11.0412 46 11.0212 46 11C46 4.92501 41.075 0 35 0C28.925 0 24 4.92501 24 11C24 11.0212 24.0013 11.0412 24.0013 11.0625C24.035 5.01625 28.9463 0.125 35 0.125Z" fill="white" fill-opacity="0.2" />
	</g>
	<mask id="mask5_1_10" style="mask-type:luminance" maskUnits="userSpaceOnUse" x="24" y="0" width="22" height="22">
		<path d="M35 22C41.0751 22 46 17.0752 46 11C46 4.92487 41.0751 0 35 0C28.9249 0 24 4.92487 24 11C24 17.0752 28.9249 22 35 22Z" fill="white" />
	</mask>
	<g mask="url(#mask5_1_10)">
		<path d="M35 21.8751C41.0538 21.8751 45.965 16.9838 45.9987 10.9375C45.9987 10.9588 46 10.9788 46 11C46 17.075 41.075 22.0001 35 22.0001C28.925 22.0001 24 17.075 24 11C24 10.9788 24.0013 10.9588 24.0013 10.9375C24.035 16.9838 28.9463 21.8751 35 21.8751Z" fill="#3E2723" fill-opacity="0.15" />
	</g>
	<path d="M35 22C41.0751 22 46 17.0752 46 11C46 4.92487 41.0751 0 35 0C28.9249 0 24 4.92487 24 11C24 17.0752 28.9249 22 35 22Z" fill="url(#paint12_radial_1_10)" />
	<defs>
		<linearGradient id="paint0_linear_1_10" x1="5.04485" y1="669.911" x2="1537.65" y2="669.911" gradientUnits="userSpaceOnUse">
			<stop stop-color="#0C59A4" />
			<stop offset="1" stop-color="#114A8B" />
		</linearGradient>
		<radialGradient id="paint1_radial_1_10" cx="0" cy="0" r="1" gradientUnits="userSpaceOnUse" gradientTransform="translate(1927.32 1957.68) rotate(174.528) scale(1092.36 1089.82)">
			<stop stop-opacity="0" />
			<stop offset="0.460005" stop-opacity="0.53" />
			<stop offset="1" />
		</radialGradient>
		<linearGradient id="paint2_linear_1_10" x1="977.828" y1="447.588" x2="297.503" y2="1188.62" gradientUnits="userSpaceOnUse">
			<stop stop-color="#1B9DE2" />
			<stop offset="0.16164" stop-color="#1595DF" />
			<stop offset="0.66749" stop-color="#0680D7" />
			<stop offset="1" stop-color="#0078D4" />
		</linearGradient>
		<radialGradient id="paint3_radial_1_10" cx="0" cy="0" r="1" gradientUnits="userSpaceOnUse" gradientTransform="translate(-133.498 -882.169) rotate(90.5761) scale(973.697 1482.58)">
			<stop stop-opacity="0" />
			<stop offset="0.354312" stop-opacity="0.5" />
			<stop offset="1" />
		</radialGradient>
		<radialGradient id="paint4_radial_1_10" cx="0" cy="0" r="1" gradientUnits="userSpaceOnUse" gradientTransform="translate(-149.304 396.199) rotate(45.2635) scale(2877.52 2069.57)">
			<stop stop-color="#35C1F1" />
			<stop offset="0.11079" stop-color="#34C1ED" />
			<stop offset="0.23164" stop-color="#2FC2DF" />
			<stop offset="0.31446" stop-color="#2BC3D2" />
			<stop offset="1" stop-color="#36C752" />
		</radialGradient>
		<radialGradient id="paint5_radial_1_10" cx="0" cy="0" r="1" gradientUnits="userSpaceOnUse" gradientTransform="translate(-1493.07 444.479) rotate(82.5978) scale(1825.11 826.392)">
			<stop stop-color="#66EB6E" />
			<stop offset="1" stop-color="#66EB6E" stop-opacity="0" />
		</radialGradient>
		<linearGradient id="paint6_linear_1_10" x1="112.384" y1="716.002" x2="570.546" y2="431.548" gradientUnits="userSpaceOnUse">
			<stop stop-color="#A52714" stop-opacity="0.6" />
			<stop offset="0.66" stop-color="#A52714" stop-opacity="0" />
		</linearGradient>
		<radialGradient id="paint7_radial_1_10" cx="0" cy="0" r="1" gradientUnits="userSpaceOnUse" gradientTransform="translate(24.9804 -119.737) scale(663.043 663.043)">
			<stop stop-color="#3E2723" stop-opacity="0.2" />
			<stop offset="1" stop-color="#3E2723" stop-opacity="0" />
		</radialGradient>
		<linearGradient id="paint8_linear_1_10" x1="1139.34" y1="1491.58" x2="605.902" y2="1226.18" gradientUnits="userSpaceOnUse">
			<stop stop-color="#055524" stop-opacity="0.4" />
			<stop offset="0.33" stop-color="#055524" stop-opacity="0" />
		</linearGradient>
		<radialGradient id="paint9_radial_1_10" cx="0" cy="0" r="1" gradientUnits="userSpaceOnUse" gradientTransform="translate(84.6058 -224.691) scale(1098.37 1098.37)">
			<stop stop-color="#263238" stop-opacity="0.2" />
			<stop offset="1" stop-color="#263238" stop-opacity="0" />
		</radialGradient>
		<linearGradient id="paint10_linear_1_10" x1="556.705" y1="-71.456" x2="731.552" y2="694.791" gradientUnits="userSpaceOnUse">
			<stop stop-color="#EA6100" stop-opacity="0.3" />
			<stop offset="0.66" stop-color="#EA6100" stop-opacity="0" />
		</linearGradient>
		<radialGradient id="paint11_radial_1_10" cx="0" cy="0" r="1" gradientUnits="userSpaceOnUse" gradientTransform="translate(-71.8069 5.34992) scale(1050.97 1050.97)">
			<stop stop-color="#3E2723" stop-opacity="0.2" />
			<stop offset="1" stop-color="#3E2723" stop-opacity="0" />
		</radialGradient>
		<radialGradient id="paint12_radial_1_10" cx="0" cy="0" r="1" gradientUnits="userSpaceOnUse" gradientTransform="translate(352.575 300.175) scale(2209.38)">
			<stop stop-color="white" stop-opacity="0.1" />
			<stop offset="1" stop-color="white" stop-opacity="0" />
		</radialGradient>
	</defs>
</svg>
