<?xml version="1.0" encoding="UTF-8"?>
<svg width="24px" height="24px" viewBox="0 0 24 24" version="1.1" xmlns="http://www.w3.org/2000/svg" xmlns:xlink="http://www.w3.org/1999/xlink">
    <title>Icon/Calendar</title>
    <g id="Icon/Calendar" stroke="none" stroke-width="1" fill="none" fill-rule="evenodd">
        <path d="M7,16 C7.55228475,16 8,16.4477153 8,17 L8,19 C8,19.5522847 7.55228475,20 7,20 L5,20 C4.44771525,20 4,19.5522847 4,19 L4,17 C4,16.4477153 4.44771525,16 5,16 L7,16 Z M13,16 C13.5522847,16 14,16.4477153 14,17 L14,19 C14,19.5522847 13.5522847,20 13,20 L11,20 C10.4477153,20 10,19.5522847 10,19 L10,17 C10,16.4477153 10.4477153,16 11,16 L13,16 Z M7,10 C7.55228475,10 8,10.4477153 8,11 L8,13 C8,13.5522847 7.55228475,14 7,14 L5,14 C4.44771525,14 4,13.5522847 4,13 L4,11 C4,10.4477153 4.44771525,10 5,10 L7,10 Z M13,10 C13.5522847,10 14,10.4477153 14,11 L14,13 C14,13.5522847 13.5522847,14 13,14 L11,14 C10.4477153,14 10,13.5522847 10,13 L10,11 C10,10.4477153 10.4477153,10 11,10 L13,10 Z M19,10 C19.5522847,10 20,10.4477153 20,11 L20,13 C20,13.5522847 19.5522847,14 19,14 L17,14 C16.4477153,14 16,13.5522847 16,13 L16,11 C16,10.4477153 16.4477153,10 17,10 L19,10 Z M19,4 C19.5522847,4 20,4.33578644 20,4.75 L20,6.25 C20,6.66421356 19.5522847,7 19,7 L5,7 C4.44771525,7 4,6.66421356 4,6.25 L4,4.75 C4,4.33578644 4.44771525,4 5,4 L19,4 Z" id="Combined-Shape" fill="#FFFFFF"></path>
    </g>
</svg>