<svg height="24" viewBox="0 0 24 24" width="24" xmlns="http://www.w3.org/2000/svg"><path d="m13 4c1.5986771 0 2.9783056.93785843 3.6187078 2.29339758.3053585.03540536.6156069.07536139.9292798.11874202 1.9785577.27363999 3.4520124 1.96489628 3.4520124 3.9622869v5.2511513c0 1.997393-1.4734599 3.6886513-3.4520211 3.9622838-1.9867058.2747589-3.8360321.4121384-5.5479789.4121384-1.7119493 0-3.5612785-.1373799-5.54798755-.4121396-1.97855771-.27364-3.45201245-1.9648963-3.45201245-3.9622869v-5.2511513c0-1.99739304 1.47345995-3.68865126 3.45202108-3.9622838.31367239-.0433805.62392019-.08333642.93074341-.11986776.63892995-1.35441221 2.01855844-2.29227064 3.61723551-2.29227064zm-1 5c-2.209139 0-4 1.790861-4 4s1.790861 4 4 4 4-1.790861 4-4-1.790861-4-4-4zm6 0c-.5522847 0-1 .44771525-1 1 0 .5522847.4477153 1 1 1s1-.4477153 1-1c0-.55228475-.4477153-1-1-1z" fill="#fff" fill-rule="evenodd"/></svg>