<?xml version="1.0" encoding="UTF-8"?>
<svg width="24px" height="24px" viewBox="0 0 24 24" version="1.1" xmlns="http://www.w3.org/2000/svg" xmlns:xlink="http://www.w3.org/1999/xlink">
    <title>Social/Discord/Color</title>
    <g id="Social/Discord/Color" stroke="none" stroke-width="1" fill="none" fill-rule="evenodd">
        <g id="full_logo_blurple_RGB" transform="translate(2.000000, 4.420000)" fill="#5865F2" fill-rule="nonzero">
            <path d="M16.9419043,1.26946416 C15.6278834,0.667873345 14.2406878,0.241084611 12.8157525,0 C12.620764,0.348572896 12.4443346,0.707207756 12.2872024,1.07440399 C10.7693722,0.845683321 9.22583784,0.845683321 7.70800766,1.07440399 C7.55079325,0.707245558 7.37436591,0.348614979 7.17945752,0 C5.75360939,0.243120496 4.36550069,0.670922379 3.05015962,1.27261029 C0.438870277,5.13606006 -0.269009364,8.90355282 0.0849304568,12.6175613 L0.0849304568,12.6175613 C1.61416702,13.7474289 3.32581887,14.6067132 5.14548336,15.1580627 C5.55521748,14.6069851 5.91778122,14.0223576 6.22932574,13.4103865 C5.63759142,13.1893808 5.06646141,12.9167122 4.52254927,12.5955384 C4.66569827,12.4917161 4.80570113,12.3847476 4.94098479,12.2809252 C8.14531325,13.787844 11.854616,13.787844 15.0589445,12.2809252 C15.1958012,12.3926129 15.3358041,12.4995814 15.47738,12.5955384 C14.9324165,12.9172326 14.3602423,13.1904234 13.7674574,13.4119596 C14.07862,14.0236474 14.4412055,14.6077838 14.8512998,15.1580627 C16.6725175,14.6089255 18.3854827,13.7500483 19.9149988,12.6191344 L19.9149988,12.6191344 C20.3302882,8.31208005 19.2055461,4.57919474 16.9419043,1.26946416 Z M6.67764951,10.3334697 C5.69133721,10.3334697 4.87648909,9.43839521 4.87648909,8.3372491 C4.87648909,7.236103 5.66302203,6.33316319 6.67450338,6.33316319 C7.68598473,6.33316319 8.49454059,7.236103 8.47723687,8.3372491 C8.45993314,9.43839521 7.6828386,10.3334697 6.67764951,10.3334697 Z M13.3222797,10.3334697 C12.3343944,10.3334697 11.5226924,9.43839521 11.5226924,8.3372491 C11.5226924,7.236103 12.3092253,6.33316319 13.3222797,6.33316319 C14.3353342,6.33316319 15.1375978,7.236103 15.120294,8.3372491 C15.1029903,9.43839521 14.3274688,10.3334697 13.3222797,10.3334697 Z" id="Shape"></path>
        </g>
    </g>
</svg>