<?xml version="1.0" encoding="UTF-8"?>
<svg width="24px" height="24px" viewBox="0 0 24 24" version="1.1" xmlns="http://www.w3.org/2000/svg" xmlns:xlink="http://www.w3.org/1999/xlink">
    <title>Icon/Feedback</title>
    <g id="Icon/Feedback" stroke="none" stroke-width="1" fill="none" fill-rule="evenodd">
        <path d="M17.9586142,6.99175348 C18.0801121,7.04626701 18.1923593,7.10734134 18.2998532,7.17532936 C18.6905522,7.42243967 18.9905889,7.75778509 19.1929509,8.17352795 C19.3728281,8.54307715 19.4755303,8.95398631 19.4961323,9.55836103 L19.5,9.79436733 L19.5,14.6447551 C19.5,15.1064514 19.393036,15.5376255 19.1996522,15.9145807 C19.0062685,16.2915359 18.726465,16.6142722 18.380786,16.8590932 C18.0927201,17.0631107 17.7589074,17.2130203 17.3912368,17.2951088 L17.1666667,17.3361136 L15.5821766,17.5625537 C15.3115475,17.6012294 15.216683,17.6399548 15.1221078,17.7025315 C15.0275326,17.7651083 14.912417,17.8525275 14.9066205,18.0116798 L14.9088421,18.0356289 L14.9088421,18.0356289 L14.9289762,18.0988921 L15.0602804,18.3874308 C15.1713291,18.6472952 15.2645719,18.9845502 15.0289072,19.2615284 C14.8224747,19.5041499 14.481885,19.5703016 14.2143599,19.4198684 L14.1281752,19.3616473 L11.824,17.8977535 L13.1,17.088 L14.7476255,16.8155329 L14.9467246,16.7770384 C16.6573018,16.4002117 17.9079875,14.9210038 17.9951403,13.1699509 L18,12.974313 L18,7.79436733 L17.9948297,7.49583916 C17.9913626,7.39887523 17.9861313,7.30437552 17.9790749,7.2120963 L17.9586142,6.99175348 Z M13.5,4.66621733 L13.7234353,4.69105273 C14.4556622,4.77244159 14.9091542,4.92821905 15.2998532,5.17532936 C15.6905522,5.42243967 15.9905889,5.75778509 16.1929509,6.17352795 C16.3953128,6.5892708 16.5,7.05735984 16.5,7.79436733 L16.5,12.974313 C16.5,14.144779 15.6541105,15.1436902 14.5,15.3361136 L12.6710451,15.6422445 L12.5874375,15.6619222 L12.573819,15.6660399 C12.5283015,15.6802189 12.4890325,15.6977592 12.4480943,15.7221977 L12.3741771,15.7722001 L9.8718248,17.3616473 C9.59545786,17.5828233 9.2004623,17.5311079 8.9710928,17.2615284 C8.73542807,16.9845502 8.82867094,16.6472952 8.93971956,16.3874308 L9.07102385,16.0988921 L9.09115787,16.0356289 C9.09285441,16.0267549 9.0936371,16.0187533 9.09337948,16.0116798 C9.08758303,15.8525275 8.97246737,15.7651083 8.8778922,15.7025315 C8.78331703,15.6399548 8.68845248,15.6012294 8.41782344,15.5625537 L6.83333333,15.3361136 C6.37644755,15.2708199 5.96489304,15.1039142 5.61921402,14.8590932 C5.27353501,14.6142722 4.9937315,14.2915359 4.80034775,13.9145807 C4.606964,13.5376255 4.5,13.1064514 4.5,12.6447551 L4.5,7.79436733 C4.5,7.05735984 4.60468719,6.5892708 4.80704914,6.17352795 C5.00941108,5.75778509 5.30944778,5.42243967 5.70014678,5.17532936 C6.04743478,4.95567575 6.44433702,4.80818637 7.04251636,4.72096072 L7.5,4.66621733 C9.49386497,4.44459422 11.506135,4.44459422 13.5,4.66621733 Z M10.5,8.75 C10.1153731,8.75 9.79836963,9.05883215 9.7550458,9.4567031 L9.75,9.55 L9.75,12.95 C9.75,13.3918278 10.0857864,13.75 10.5,13.75 C10.8846269,13.75 11.2016304,13.4411678 11.2449542,13.0432969 L11.25,12.95 L11.25,9.55 C11.25,9.1081722 10.9142136,8.75 10.5,8.75 Z M10.5,6 C10.0857864,6 9.75,6.33578644 9.75,6.75 C9.75,7.16421356 10.0857864,7.5 10.5,7.5 C10.9142136,7.5 11.25,7.16421356 11.25,6.75 C11.25,6.33578644 10.9142136,6 10.5,6 Z" id="Shape" fill="#FFFFFF"></path>
    </g>
</svg>