<?xml version="1.0" encoding="UTF-8"?>
<svg width="24px" height="24px" viewBox="0 0 24 24" version="1.1" xmlns="http://www.w3.org/2000/svg" xmlns:xlink="http://www.w3.org/1999/xlink">
    <title>Icon/Flag</title>
    <g id="Icon/Flag" stroke="none" stroke-width="1" fill="none" fill-rule="evenodd">
        <path d="M7,20 C7,20.5522847 6.55228475,21 6,21 C5.44771525,21 5,20.5522847 5,20 L5,4 C5,3.44771525 5.44771525,3 6,3 C6.55228475,3 7,3.44771525 7,4 L7,4.69004383 C8.41336856,5.37701469 9.97687341,5.55149755 11.5061248,4.51937636 L11.9289552,4.21721323 C13.7898932,2.9315817 15.6688308,2.90962568 17.3869843,3.67376885 L17.6009032,3.77334646 L17.7576575,3.85659119 C18.4715549,4.26894617 18.9350622,5.00973739 18.9936903,5.83208093 L19,6.00945568 L19,12.487155 C19,12.6594432 18.9357901,12.8255472 18.8199059,12.9530387 C18.5883355,13.207804 18.2103507,13.2502034 17.9307096,13.0685636 L17.7815585,12.9526795 L17.61418,12.8370959 C17.482078,12.7520008 17.3097647,12.6528699 17.1021676,12.5519612 C15.6914363,11.866289 14.1540752,11.8364771 12.629483,12.8748219 L12.2051685,13.1791583 C10.4138381,14.4253232 8.86766926,14.3707401 7.20806702,13.6589137 L7,13.5665588 L7,20 Z" id="Path" fill="#FFFFFF"></path>
    </g>
</svg>