<?xml version="1.0" encoding="UTF-8"?>
<svg width="24px" height="24px" viewBox="0 0 24 24" version="1.1" xmlns="http://www.w3.org/2000/svg" xmlns:xlink="http://www.w3.org/1999/xlink">
    <!-- Generator: Sketch 52.5 (67469) - http://www.bohemiancoding.com/sketch -->
    <title>Gift</title>
    <desc>Created with Sketch.</desc>
    <g id="Icons" stroke="none" stroke-width="1" fill="none" fill-rule="evenodd">
        <g id="Gift" fill="#FFFFFF" fill-rule="nonzero">
            <path d="M12,9 L20,9 C20.5522847,9 21,9.44771525 21,10 L21,12 C21,12.5522847 20.5522847,13 20,13 L12,13 C11.4477153,13 11,12.5522847 11,12 L11,10 C11,9.44771525 11.4477153,9 12,9 Z" id="Rectangle"></path>
            <path d="M12,15 L18,15 C18.5522847,15 19,15.4477153 19,16 L19,21 C19,21.5522847 18.5522847,22 18,22 L12,22 C11.4477153,22 11,21.5522847 11,21 L11,16 C11,15.4477153 11.4477153,15 12,15 Z" id="Rectangle"></path>
            <path d="M6,15 L8,15 C8.55228475,15 9,15.4477153 9,16 L9,21 C9,21.5522847 8.55228475,22 8,22 L6,22 C5.44771525,22 5,21.5522847 5,21 L5,16 C5,15.4477153 5.44771525,15 6,15 Z" id="Rectangle"></path>
            <path d="M4,9 L8,9 C8.55228475,9 9,9.44771525 9,10 L9,12 C9,12.5522847 8.55228475,13 8,13 L4,13 C3.44771525,13 3,12.5522847 3,12 L3,10 C3,9.44771525 3.44771525,9 4,9 Z" id="Rectangle"></path>
            <path d="M12.5,8 C13.8807119,8 15,6.88071187 15,5.5 C15,4.11928813 13.8807119,3 12.5,3 C11.1192881,3 10,4.11928813 10,5.5 C10,5.93126392 10,6.76459725 10,8 C11.177456,8 12.0107893,8 12.5,8 Z" id="Combined-Shape"></path>
            <path d="M8,8 C9.1045695,8 10,7.1045695 10,6 C10,4.8954305 9.1045695,4 8,4 C6.8954305,4 6,4.8954305 6,6 C6,6.34501113 6,7.0116778 6,8 C6.9419648,8 7.60863147,8 8,8 Z" id="Combined-Shape" transform="translate(8.000000, 6.000000) scale(-1, 1) translate(-8.000000, -6.000000) "></path>
        </g>
    </g>
</svg>