<?xml version="1.0" encoding="UTF-8"?>
<svg width="24px" height="24px" viewBox="0 0 24 24" version="1.1" xmlns="http://www.w3.org/2000/svg" xmlns:xlink="http://www.w3.org/1999/xlink">
    <title>Icon/hammer</title>
    <g id="Icon/hammer" stroke="none" stroke-width="1" fill="none" fill-rule="evenodd">
        <path d="M8.24081842,6.60669185 C9.14332161,5.70418866 10.6065684,5.70418866 11.5090716,6.60669185 L14.7773247,9.874945 C15.6798279,10.7774482 15.6798279,12.240695 14.7773247,13.1431981 L20.6615613,19.0274347 C21.1128129,19.4786863 21.1128129,20.2103097 20.6615613,20.6615613 C20.2103097,21.1128129 19.4786863,21.1128129 19.0274347,20.6615613 L13.1431981,14.7773247 C12.240695,15.6798279 10.7774482,15.6798279 9.874945,14.7773247 L6.60669185,11.5090716 C5.70418866,10.6065684 5.70418866,9.14332161 6.60669185,8.24081842 L8.24081842,6.60669185 Z M3.3384387,11.5090716 C3.78969029,11.05782 4.52131368,11.05782 4.97256527,11.5090716 L9.874945,16.4114513 C10.3261966,16.8627029 10.3261966,17.5943263 9.874945,18.0455779 C9.4236934,18.4968295 8.69207002,18.4968295 8.24081842,18.0455779 L3.3384387,13.1431981 C2.8871871,12.6919466 2.8871871,11.9603232 3.3384387,11.5090716 Z M11.5090716,3.3384387 C11.9603232,2.8871871 12.6919466,2.8871871 13.1431981,3.3384387 L18.0455779,8.24081842 C18.4968295,8.69207002 18.4968295,9.4236934 18.0455779,9.874945 C17.5943263,10.3261966 16.8627029,10.3261966 16.4114513,9.874945 L11.5090716,4.97256527 C11.05782,4.52131368 11.05782,3.78969029 11.5090716,3.3384387 Z" id="Combined-Shape" fill="#FFFFFF"></path>
    </g>
</svg>