<?xml version="1.0" encoding="UTF-8"?>
<svg width="24px" height="24px" viewBox="0 0 24 24" version="1.1" xmlns="http://www.w3.org/2000/svg" xmlns:xlink="http://www.w3.org/1999/xlink">
    <!-- Generator: Sketch 52.5 (67469) - http://www.bohemiancoding.com/sketch -->
    <title>Hashtag</title>
    <desc>Created with Sketch.</desc>
    <g id="Icons" stroke="none" stroke-width="1" fill="none" fill-rule="evenodd">
        <g id="Hashtag" fill="#FFFFFF">
            <path d="M7.55555556,7 L7.90115906,3.88956847 C7.95742936,3.38313579 8.38549358,3 8.89504279,3 L9.88273498,3 C10.4350197,3 10.882735,3.44771525 10.882735,4 C10.882735,4.03689515 10.8806931,4.07376203 10.8766187,4.11043153 L10.5555556,7 L14.5555556,7 L14.9011591,3.88956847 C14.9574294,3.38313579 15.3854936,3 15.8950428,3 L16.882735,3 C17.4350197,3 17.882735,3.44771525 17.882735,4 C17.882735,4.03689515 17.8806931,4.07376203 17.8766187,4.11043153 L17.5555556,7 L20,7 C20.5522847,7 21,7.44771525 21,8 L21,9 C21,9.55228475 20.5522847,10 20,10 L17.2222222,10 L16.7777778,14 L19,14 C19.5522847,14 20,14.4477153 20,15 L20,16 C20,16.5522847 19.5522847,17 19,17 L16.4444444,17 L16.0988409,20.1104315 C16.0425706,20.6168642 15.6145064,21 15.1049572,21 L14.117265,21 C13.5649803,21 13.117265,20.5522847 13.117265,20 C13.117265,19.9631048 13.1193069,19.926238 13.1233813,19.8895685 L13.4444444,17 L9.44444444,17 L9.09884094,20.1104315 C9.04257064,20.6168642 8.61450642,21 8.10495721,21 L7.11726502,21 C6.56498027,21 6.11726502,20.5522847 6.11726502,20 C6.11726502,19.9631048 6.11930689,19.926238 6.12338128,19.8895685 L6.44444444,17 L4,17 C3.44771525,17 3,16.5522847 3,16 L3,15 C3,14.4477153 3.44771525,14 4,14 L6.77777778,14 L7.22222222,10 L5,10 C4.44771525,10 4,9.55228475 4,9 L4,8 C4,7.44771525 4.44771525,7 5,7 L7.55555556,7 Z M14.2222222,10 L10.2222222,10 L9.77777778,14 L13.7777778,14 L14.2222222,10 Z" id="Shape"></path>
        </g>
    </g>
</svg>