<?xml version="1.0" encoding="UTF-8"?>
<svg width="24px" height="24px" viewBox="0 0 24 24" version="1.1" xmlns="http://www.w3.org/2000/svg" xmlns:xlink="http://www.w3.org/1999/xlink">
    <title>Icon/Hot/Filled</title>
    <g id="💎-Icons" stroke="none" stroke-width="1" fill="none" fill-rule="evenodd">
        <g id="Icon/Hot/Filled" fill="#FFFFFF">
            <path d="M12.9843533,4.80311519 L13.583771,5.54911619 L14.4600803,6.60669919 L15.2936312,7.60557919 L15.8170338,8.24722019 C17.0879026,9.83225266 18.0604708,10.8798833 18.3743174,12.561688 C18.5904107,13.7196634 18.4196497,14.9486405 17.9090244,16.0130549 C16.9868005,17.963409 14.9090597,19.3520186 12.7552008,19.4577231 C12.6642438,19.4621529 12.5750006,19.4643802 12.4867781,19.4643802 C10.4044772,19.4641843 8.36934393,18.2877042 7.36400451,16.4970966 C6.0259739,14.1487943 6.32674738,11.3681794 8.11246799,9.5536249 C8.7497354,8.90633079 9.08711227,8.91420414 9.12459859,9.57724497 L9.12811293,9.70924287 L9.12931619,10.2753442 L9.13773902,10.8490183 L9.15093032,11.2300033 L9.17267815,11.6058465 C9.27517815,13.0323757 9.61342817,14.2705657 10.7296532,14.4578342 C11.4116001,14.5722441 12.1370157,14.3940661 12.5831982,13.6403404 C12.8784462,13.1312538 12.936388,12.5296032 12.7455785,11.9494563 L12.6727466,11.7570269 L12.5828343,11.5616653 L12.4681483,11.3255486 L12.2496686,10.894958 L11.975448,10.3726685 L11.6454865,9.7586802 C10.8701841,8.32903183 10.7365832,6.41613303 11.8512359,4.83438119 C11.8905315,4.77851817 11.9377083,4.72864338 11.9912974,4.68631219 C12.2977632,4.44422819 12.7423695,4.49652251 12.9843533,4.80311519 Z" id="Path"></path>
        </g>
    </g>
</svg>