<?xml version="1.0" encoding="UTF-8"?>
<svg width="24px" height="24px" viewBox="0 0 24 24" version="1.1" xmlns="http://www.w3.org/2000/svg" xmlns:xlink="http://www.w3.org/1999/xlink">
    <title>Icon/Power</title>
    <g id="Icon/Power" stroke="none" stroke-width="1" fill="none" fill-rule="evenodd">
        <path d="M12,19 C12.8284271,19 13.5,19.6715729 13.5,20.5 C13.5,21.3284271 12.8284271,22 12,22 C11.1715729,22 10.5,21.3284271 10.5,20.5 C10.5,19.6715729 11.1715729,19 12,19 Z M15,2 C15.5522847,2 16,2.44771525 16,3 L16,7 L18,7 C18.5522847,7 19,7.44771525 19,8 L19,11 L18.995941,11.2406498 C18.8690987,14.9952166 15.7854517,18 12,18 C8.21454828,18 5.13090132,14.9952166 5.00405902,11.2406498 L5,11 L5,8 C5,7.44771525 5.44771525,7 6,7 L8,7 L8,3 C8,2.44771525 8.44771525,2 9,2 C9.55228475,2 10,2.44771525 10,3 L10,7 L14,7 L14,3 C14,2.44771525 14.4477153,2 15,2 Z M12,9 C10.3431458,9 9,10.3431458 9,12 C9,13.6568542 10.3431458,15 12,15 C13.6568542,15 15,13.6568542 15,12 C15,10.3431458 13.6568542,9 12,9 Z" id="Shape" fill="#FFFFFF"></path>
    </g>
</svg>