<?xml version="1.0" encoding="UTF-8"?>
<svg width="254px" height="172px" viewBox="0 0 254 172" version="1.1" xmlns="http://www.w3.org/2000/svg" xmlns:xlink="http://www.w3.org/1999/xlink">
    <title>mail</title>
    <defs>
        <rect id="path-1" x="0" y="0" width="254" height="172"></rect>
        <radialGradient cx="54.2122771%" cy="146.638536%" fx="54.2122771%" fy="146.638536%" r="100%" gradientTransform="translate(0.542123,1.466385),scale(0.771439,1.000000),rotate(90.000000),translate(-0.542123,-1.466385)" id="radialGradient-3">
            <stop stop-color="#4F40FF" stop-opacity="0.453071221" offset="0%"></stop>
            <stop stop-color="#3B29FF" stop-opacity="0" offset="100%"></stop>
        </radialGradient>
        <path d="M15,12.5626642 L94.8370721,12.5626642 C103.121343,12.5626642 109.837072,19.2783929 109.837072,27.5626642 L109.837072,82.2952567 C109.837072,90.579528 103.121343,97.2952567 94.8370721,97.2952567 L15,97.2952567 C6.71572875,97.2952567 0,90.579528 0,82.2952567 L0,27.5626642 C0,19.2783929 6.71572875,12.5626642 15,12.5626642 Z" id="path-4"></path>
        <filter x="-82.8%" y="-105.0%" width="265.7%" height="314.8%" filterUnits="objectBoundingBox" id="filter-5">
            <feOffset dx="0" dy="2" in="SourceAlpha" result="shadowOffsetOuter1"></feOffset>
            <feGaussianBlur stdDeviation="30" in="shadowOffsetOuter1" result="shadowBlurOuter1"></feGaussianBlur>
            <feColorMatrix values="0 0 0 0 0.929585675   0 0 0 0 0.859171351   0 0 0 0 1  0 0 0 0.454054612 0" type="matrix" in="shadowBlurOuter1"></feColorMatrix>
        </filter>
        <path d="M14.9251099,12.5626642 L94.9119622,12.5626642 C98.7779554,12.5626642 101.911962,15.6966709 101.911962,19.5626642 C101.911962,21.197722 101.339596,22.7811953 100.294162,24.0383679 L77.2162216,51.7904486 C66.9756467,64.1051203 48.6910067,65.7865079 36.376335,55.545933 C35.0122709,54.4116113 33.7551723,53.1545127 32.6208505,51.7904486 L9.54290998,24.0383679 C7.07104708,21.0658609 7.47689927,16.6523271 10.4494062,14.1804642 C11.7065788,13.1350307 13.2900521,12.5626642 14.9251099,12.5626642 Z" id="path-6"></path>
        <filter x="-28.7%" y="-36.2%" width="157.5%" height="208.7%" filterUnits="objectBoundingBox" id="filter-7">
            <feOffset dx="0" dy="9" in="SourceAlpha" result="shadowOffsetOuter1"></feOffset>
            <feGaussianBlur stdDeviation="7.5" in="shadowOffsetOuter1" result="shadowBlurOuter1"></feGaussianBlur>
            <feColorMatrix values="0 0 0 0 0.878431373   0 0 0 0 0.866666667   0 0 0 0 1  0 0 0 1 0" type="matrix" in="shadowBlurOuter1"></feColorMatrix>
        </filter>
        <filter x="-71.9%" y="-71.9%" width="243.8%" height="243.8%" filterUnits="objectBoundingBox" id="filter-8">
            <feOffset dx="0" dy="2" in="SourceAlpha" result="shadowOffsetOuter1"></feOffset>
            <feGaussianBlur stdDeviation="5" in="shadowOffsetOuter1" result="shadowBlurOuter1"></feGaussianBlur>
            <feColorMatrix values="0 0 0 0 0.223529412   0 0 0 0 0.898039216   0 0 0 0 0.549019608  0 0 0 1 0" type="matrix" in="shadowBlurOuter1" result="shadowMatrixOuter1"></feColorMatrix>
            <feMerge>
                <feMergeNode in="shadowMatrixOuter1"></feMergeNode>
                <feMergeNode in="SourceGraphic"></feMergeNode>
            </feMerge>
        </filter>
    </defs>
    <g id="Account-Details" stroke="none" stroke-width="1" fill="none" fill-rule="evenodd">
        <g id="B(3.1.4)-Security/Actions/Change-email-(Email-Verified)" transform="translate(-1116.000000, -215.000000)">
            <g id="mail" transform="translate(1116.000000, 215.000000)">
                <mask id="mask-2" fill="white">
                    <use xlink:href="#path-1"></use>
                </mask>
                <g id="Rectangle"></g>
                <g id="Content-2" mask="url(#mask-2)">
                    <g transform="translate(68.000000, 37.000000)" id="Content-3">
                        <g id="Rectangle">
                            <use fill="black" fill-opacity="1" filter="url(#filter-5)" xlink:href="#path-4"></use>
                            <use fill="#FFFFFF" fill-rule="evenodd" xlink:href="#path-4"></use>
                            <use fill="url(#radialGradient-3)" fill-rule="evenodd" xlink:href="#path-4"></use>
                        </g>
                        <g id="Rectangle">
                            <use fill="black" fill-opacity="1" filter="url(#filter-7)" xlink:href="#path-6"></use>
                            <use fill="#FFFFFF" fill-rule="evenodd" xlink:href="#path-6"></use>
                        </g>
                        <g id="Content" filter="url(#filter-8)" transform="translate(86.619469, 0.000000)">
                            <path d="M32,16 C32,7.163444 24.836556,0 16,0 C7.163444,0 -7.966394e-16,7.163444 -7.966394e-16,16 C-7.966394e-16,24.836556 7.163444,32 16,32 C24.836556,32 32,24.836556 32,16 Z" id="Oval" fill="#39E58C"></path>
                            <g id="Icon/V/Filled" transform="translate(7.500000, 9.999962)" fill="#FFFFFF">
                                <path d="M14.8929362,0.341230167 L6.249,8.98203759 L2.13387004,4.86614068 L2.02294534,4.76861201 C1.49927027,4.3783595 0.805710516,4.42656013 0.366116524,4.86615412 C-0.122038841,5.35430948 -0.122038841,6.14576571 0.366116524,6.63392107 L5.36611652,11.6339211 L5.45643249,11.7151796 L5.61205672,11.8240766 L5.82705314,11.9249297 L5.96173847,11.9661274 L6.04876164,11.983623 L6.22078505,11.9987865 L6.29696458,11.9983158 L6.40550134,11.9903623 L6.4940136,11.9757623 L6.57934812,11.9558381 L6.73779656,11.9002003 L6.83752091,11.8533604 L6.98786142,11.7579625 L7.11200358,11.6545237 L16.6338835,2.13392107 L16.7314256,2.02298293 C17.1216781,1.49930786 17.0734775,0.805748111 16.6338835,0.366154118 C16.1942895,-0.0734398746 15.5007297,-0.121640499 15.0058528,0.24554929 L14.8929362,0.341230167 Z" id="Path"></path>
                            </g>
                        </g>
                    </g>
                </g>
            </g>
        </g>
    </g>
</svg>