<svg width="208" height="136" viewBox="0 0 208 136" xmlns="http://www.w3.org/2000/svg" xmlns:xlink="http://www.w3.org/1999/xlink"><defs><path id="a" d="M0 0h206.744186v136H0z"/><path d="M15 12.5626642h79.8370721c8.2842709 0 14.9999999 6.7157287 14.9999999 15v54.7325925c0 8.2842713-6.715729 15-14.9999999 15H15c-8.28427125 0-15-6.7157287-15-15V27.5626642c0-8.2842713 6.71572875-15 15-15Z" id="c"/><path d="M14.9251099 12.5626642h79.9868523c3.8659932 0 6.9999998 3.1340067 6.9999998 7 0 1.6350578-.572366 3.2185311-1.6178 4.4757037L77.2162216 51.7904486C66.9756467 64.1051203 48.6910067 65.7865079 36.376335 55.545933a28.99999296 28.99999296 0 0 1-3.7554845-3.7554844L9.54290998 24.0383679c-2.4718629-2.972507-2.06601071-7.3860408.90649622-9.8579037 1.2571726-1.0454335 2.8406459-1.6178 4.4757037-1.6178Z" id="f"/><radialGradient cx="54.2122771%" cy="146.638536%" fx="54.2122771%" fy="146.638536%" r="100%" gradientTransform="matrix(0 1 -.77144 0 1.67334958 .924262)" id="d"><stop stop-color="#4F40FF" stop-opacity=".45307122" offset="0%"/><stop stop-color="#3B29FF" stop-opacity="0" offset="100%"/></radialGradient><filter x="-28.7%" y="-36.2%" width="157.5%" height="208.7%" filterUnits="objectBoundingBox" id="e"><feOffset dy="9" in="SourceAlpha" result="shadowOffsetOuter1"/><feGaussianBlur stdDeviation="7.5" in="shadowOffsetOuter1" result="shadowBlurOuter1"/><feColorMatrix values="0 0 0 0 0.878431373 0 0 0 0 0.866666667 0 0 0 0 1 0 0 0 1 0" in="shadowBlurOuter1"/></filter></defs><g transform="translate(.627907)" fill="none" fill-rule="evenodd"><mask id="b" fill="#fff"><use xlink:href="#a"/></mask><g mask="url(#b)"><g transform="translate(44.372093 17)"><use fill="#FFF" xlink:href="#c"/><use fill="url(#d)" xlink:href="#c"/></g><g transform="translate(44.372093 17)"><use fill="#000" filter="url(#e)" xlink:href="#f"/><use fill="#FFF" xlink:href="#f"/></g><path d="M162.991562 33c0-8.836556-7.163444-16-16-16s-16 7.163444-16 16 7.163444 16 16 16 16-7.163444 16-16Z" fill="#39E58C"/><path d="m153.3844982 27.34119217-8.6439362 8.64080742-4.11512996-4.11589691-.1109247-.09752867c-.52367507-.39025251-1.21723482-.34205188-1.65682882.09754211-.48815536.48815536-.48815536 1.27961159 0 1.76776695l5 5.00000003.09031597.0812585.15562423.108897.21499642.1008531.13468533.0411977.08702317.0174956.17202341.0151635.07617953-.0004707.10853676-.0079535.08851226-.0146.08533452-.0199242.15844844-.0556378.09972435-.0468399.15034051-.0953979.12414216-.1034388 9.52187992-9.52060263.0975421-.11093814c.3902525-.52367507.3420519-1.21723482-.0975421-1.65682881-.439594-.439594-1.1331538-.48779462-1.6280307-.12060483l-.1129166.09568088Z" fill="#FFF"/></g></g></svg>