<svg width="340" height="192" xmlns="http://www.w3.org/2000/svg"><defs><linearGradient id="c" x1="57.3465121" y1=".35444544" x2="0" y2=".35444544" gradientUnits="userSpaceOnUse"><stop stop-color="#ECEAFF" offset="0%"/><stop stop-color="rgba(246, 245, 255, 0)" offset="100%"/></linearGradient><linearGradient id="d" x1="44.5768334" y1=".70889088" x2="0" y2=".70889088" gradientUnits="userSpaceOnUse"><stop stop-color="#ECEAFF" offset="0%"/><stop stop-color="rgba(246, 245, 255, 0)" offset="100%"/></linearGradient><linearGradient id="e" x1="44.5768334" y1=".70889088" x2="0" y2=".70889088" gradientUnits="userSpaceOnUse"><stop stop-color="#ECEAFF" offset="0%"/><stop stop-color="rgba(246, 245, 255, 0)" offset="100%"/></linearGradient><linearGradient id="f" x1="44.5768334" y1=".70889088" x2="0" y2=".70889088" gradientUnits="userSpaceOnUse"><stop stop-color="#ECEAFF" offset="0%"/><stop stop-color="rgba(246, 245, 255, 0)" offset="100%"/></linearGradient><linearGradient id="g" x1="44.5768334" y1=".70889088" x2="0" y2=".70889088" gradientUnits="userSpaceOnUse"><stop stop-color="#ECEAFF" offset="0%"/><stop stop-color="rgba(246, 245, 255, 0)" offset="100%"/></linearGradient><linearGradient id="o" x1="36.8623259" y1="0" x2="-34.6836026" y2="51.6383928" gradientUnits="userSpaceOnUse"><stop stop-color="#E436FE" offset="0%"/><stop stop-color="#1B3B67" offset="100%"/></linearGradient><clipPath id="a"><path d="M1880 0v960H0V0h1880Z"/></clipPath><clipPath id="b"><path d="M340 0v192H0V0h340Z"/></clipPath><clipPath id="h"><path d="M110.239675 0c8.284271 0 15 6.71572875 15 15v66.40916c0 8.2842713-6.715729 15-15 15H15c-8.28427125 0-15-6.7157287-15-15V15C0 6.71572875 6.71572875 0 15 0h95.239675Z"/></clipPath><clipPath id="k"><path d="M110.294209 0c3.865993 0 7 3.13400675 7 7 0 1.63757712-.574129 3.2233269-1.622491 4.4813391L84.8980878 48.4090208c-10.2534687 12.303938-28.53986 13.9661717-40.843798 3.712703-1.3472852-1.1227582-2.5899448-2.3654177-3.7127029-3.712703L9.56795715 11.4813391c-2.47497522-2.96991611-2.07374639-7.38387262.89616965-9.85884784C11.722139.57412864 13.3078888 0 14.9454659 0h95.3487431Z"/></clipPath><clipPath id="n"><path d="M18.4311629 0c10.1792503 0 18.431163 8.23652271 18.431163 18.3967884 0 10.1602656-8.2519127 18.3967883-18.431163 18.3967883C8.25191273 36.7935767 0 28.557054 0 18.3967884 0 8.23652271 8.25191273 0 18.4311629 0Z"/></clipPath><clipPath id="p"><path d="M8.66796875 0v19.9335938H4.71679687V4.703125L0 6.16601562V2.953125L8.24414062 0h.42382813Z"/></clipPath><radialGradient id="i" cx="67.8952794" cy="141.372981" r="96.40916" gradientTransform="rotate(90 67.89527942 141.37298082)" gradientUnits="userSpaceOnUse"><stop stop-color="rgba(78, 63, 255, 0.453071)" offset="0%"/><stop stop-color="rgba(59, 41, 255, 0)" offset="100%"/></radialGradient><radialGradient id="l" cx="67.8952794" cy="110.187764" r="64.073465" gradientTransform="rotate(-16.955 67.89527942 110.18776446)" gradientUnits="userSpaceOnUse"><stop stop-color="rgba(78, 63, 255, 0.453071)" offset="0%"/><stop stop-color="rgba(59, 41, 255, 0)" offset="100%"/></radialGradient><filter id="j" x="-33.0499225%" y="-50.6504643%" filterUnits="userSpaceOnUse" width="155.9746%" height="187.794138%"><feGaussianBlur stdDeviation="7.5" in="SourceAlpha" result="i10"/><feOffset dy="9" in="i10" result="i11"/><feColorMatrix values="0 0 0 0.8784313725490196 0 0 0 0 0.8666666666666667 0 0 0 0 1.0 0 0 0 0 1.0 0" in="i11"/></filter><filter id="m" x="nan%" y="nan%" filterUnits="userSpaceOnUse" width="inf%" height="inf%"><feGaussianBlur stdDeviation="40" in="SourceAlpha" result="i15"/><feOffset dx="24" dy="-24" in="i15" result="i16"/><feColorMatrix values="0 0 0 0.7764705882352941 0 0 0 0 0.215686274509804 0 0 0 0 0.9058823529411765 0 0 0 0 1.0 0" in="i16"/></filter></defs><g clip-path="url(#a)" transform="translate(-774 -425)"><g clip-path="url(#b)" transform="translate(774 425)"><path d="M57.3465121.20021028 0 .5086806" stroke="url(#c)" stroke-width="5" fill="none" stroke-linecap="round" stroke-linejoin="round" transform="rotate(-15 646.26392356 -157.40805158)"/><path d="M44.5678925.43563744.37782704.46530634" stroke="url(#d)" stroke-width="5" fill="none" stroke-linecap="round" stroke-linejoin="round" transform="rotate(-15 574.79733964 -235.64579415)"/><path d="M44.5678925.43563744.37782704.46530634" stroke="url(#e)" stroke-width="5" fill="none" stroke-linecap="round" stroke-linejoin="round" transform="rotate(-15 485.95208584 -223.94909459)"/><path d="M44.5678925.43563744.37782704.46530634" stroke="url(#f)" stroke-width="5" fill="none" stroke-linecap="round" stroke-linejoin="round" transform="rotate(-15 453.21314147 -181.36522893)"/><path d="M44.5678925.43563744.37782704.46530634" stroke="url(#g)" stroke-width="5" fill="none" stroke-linecap="round" stroke-linejoin="round" transform="rotate(-15 407.03039021 -240.89721472)"/><g clip-path="url(#h)" transform="rotate(-15 328.45750959 -320.86237539)"><path fill="#FFF" d="M0 0h125.239675v96.40916H0V0z"/><path fill="url(#i)" d="M0 0h125.239675v96.40916H0V0z"/></g><path d="M14.9454659 0h95.3487431c3.865993 0 7 3.13400675 7 7 0 1.63757712-.574129 3.2233269-1.622491 4.4813391L84.8980878 48.4090208c-10.2534687 12.303938-28.53986 13.9661717-40.843798 3.712703-1.3472852-1.1227582-2.5899448-2.3654177-3.7127029-3.712703L9.56795715 11.4813391c-2.47497522-2.96991611-2.07374639-7.38387262.89616965-9.85884784C11.722139.57412864 13.3078888 0 14.9454659 0Z" filter="url(#j)" transform="rotate(-15 328.45750959 -320.86237539)"/><g clip-path="url(#k)" transform="rotate(-15 328.45750959 -320.86237539)"><path fill="#FFF" d="M7.9452904 0H117.294209v58.8442003H7.9452904V0z"/><path fill="url(#l)" d="M7.9452904 0H117.294209v58.8442003H7.9452904V0z"/></g><g clip-path="url(#n)" transform="rotate(-105 124.60724821 -40.66220418)"><path fill="url(#o)" d="M0 0h36.8623259v36.7935767H0V0z"/></g><g><g clip-path="url(#p)" transform="rotate(-15 240.90869857 -743.1143519)"><path fill="#FFF" d="M0 0h8.66796875v19.9335938H0V0z"/></g></g></g></g></svg>