<?xml version="1.0" encoding="UTF-8"?>
<svg width="24px" height="24px" viewBox="0 0 24 24" version="1.1" xmlns="http://www.w3.org/2000/svg" xmlns:xlink="http://www.w3.org/1999/xlink">
    <title>Icon/Settings</title>
    <g id="💎-Icons" stroke="none" stroke-width="1" fill="none" fill-rule="evenodd">
        <g id="Icon/Settings" fill="#FFFFFF">
            <path d="M12,4.5 C12.8284271,4.5 13.5,5.17157288 13.5,6 L13.5004604,7.22904576 C13.782518,7.31766509 14.0538028,7.43060649 14.3118565,7.56541178 L15.1819805,6.69669914 C15.767767,6.1109127 16.7175144,6.1109127 17.3033009,6.69669914 C17.8890873,7.28248558 17.8890873,8.23223305 17.3033009,8.81801948 L16.4345882,9.68814352 C16.5695541,9.94650456 16.6826039,10.2181282 16.7712708,10.5005475 L18,10.5 C18.8284271,10.5 19.5,11.1715729 19.5,12 C19.5,12.8284271 18.8284271,13.5 18,13.5 L16.7709542,13.5004604 C16.6823349,13.782518 16.5693935,14.0538028 16.4345882,14.3118565 L17.3033009,15.1819805 C17.8890873,15.767767 17.8890873,16.7175144 17.3033009,17.3033009 C16.7175144,17.8890873 15.767767,17.8890873 15.1819805,17.3033009 L14.3118565,16.4345882 C14.0538028,16.5693935 13.782518,16.6823349 13.5004604,16.7709542 L13.5,18 C13.5,18.8284271 12.8284271,19.5 12,19.5 C11.1715729,19.5 10.5,18.8284271 10.5,18 L10.5005475,16.7712708 C10.2181282,16.6826039 9.94650456,16.5695541 9.68814352,16.4345882 L8.81801948,17.3033009 C8.23223305,17.8890873 7.28248558,17.8890873 6.69669914,17.3033009 C6.1109127,16.7175144 6.1109127,15.767767 6.69669914,15.1819805 L7.56541178,14.3118565 C7.43060649,14.0538028 7.31766509,13.782518 7.22904576,13.5004604 L6,13.5 C5.17157288,13.5 4.5,12.8284271 4.5,12 C4.5,11.1715729 5.17157288,10.5 6,10.5 L7.22872923,10.5005475 C7.3173961,10.2181282 7.43044594,9.94650456 7.56541178,9.68814352 L6.69669914,8.81801948 C6.1109127,8.23223305 6.1109127,7.28248558 6.69669914,6.69669914 C7.28248558,6.1109127 8.23223305,6.1109127 8.81801948,6.69669914 L9.68814352,7.56541178 C9.94650456,7.43044594 10.2181282,7.3173961 10.5005475,7.22872923 L10.5,6 C10.5,5.17157288 11.1715729,4.5 12,4.5 Z M12,9 C10.3431458,9 9,10.3431458 9,12 C9,13.6568542 10.3431458,15 12,15 C13.6568542,15 15,13.6568542 15,12 C15,10.3431458 13.6568542,9 12,9 Z" id="Shape"></path>
        </g>
    </g>
</svg>