<?xml version="1.0" encoding="UTF-8"?>
<svg width="24px" height="24px" viewBox="0 0 24 24" version="1.1" xmlns="http://www.w3.org/2000/svg" xmlns:xlink="http://www.w3.org/1999/xlink">
    <title>Icon/Settings/Filled</title>
    <g id="Icon/Settings/Filled" stroke="none" stroke-width="1" fill="none" fill-rule="evenodd">
        <path d="M12,4 C12.8836556,4 13.6,4.7163444 13.6,5.6 L13.6004911,6.91098214 C13.9013525,7.00550943 14.190723,7.12598026 14.4659802,7.26977257 L15.3941125,6.34314575 C16.0189514,5.71830688 17.0320154,5.71830688 17.6568542,6.34314575 C18.2816931,6.96798462 18.2816931,7.98104858 17.6568542,8.60588745 L16.7302274,9.53401975 C16.874191,9.80960487 16.9947775,10.0993368 17.0893555,10.400584 L18.4,10.4 C19.2836556,10.4 20,11.1163444 20,12 C20,12.8836556 19.2836556,13.6 18.4,13.6 L17.0890179,13.6004911 C16.9944906,13.9013525 16.8740197,14.190723 16.7302274,14.4659802 L17.6568542,15.3941125 C18.2816931,16.0189514 18.2816931,17.0320154 17.6568542,17.6568542 C17.0320154,18.2816931 16.0189514,18.2816931 15.3941125,17.6568542 L14.4659802,16.7302274 C14.190723,16.8740197 13.9013525,16.9944906 13.6004911,17.0890179 L13.6,18.4 C13.6,19.2836556 12.8836556,20 12,20 C11.1163444,20 10.4,19.2836556 10.4,18.4 L10.400584,17.0893555 C10.0993368,16.9947775 9.80960487,16.874191 9.53401975,16.7302274 L8.60588745,17.6568542 C7.98104858,18.2816931 6.96798462,18.2816931 6.34314575,17.6568542 C5.71830688,17.0320154 5.71830688,16.0189514 6.34314575,15.3941125 L7.26977257,14.4659802 C7.12598026,14.190723 7.00550943,13.9013525 6.91098214,13.6004911 L5.6,13.6 C4.7163444,13.6 4,12.8836556 4,12 C4,11.1163444 4.7163444,10.4 5.6,10.4 L6.91064451,10.400584 C7.0052225,10.0993368 7.12580901,9.80960487 7.26977257,9.53401975 L6.34314575,8.60588745 C5.71830688,7.98104858 5.71830688,6.96798462 6.34314575,6.34314575 C6.96798462,5.71830688 7.98104858,5.71830688 8.60588745,6.34314575 L9.53401975,7.26977257 C9.80960487,7.12580901 10.0993368,7.0052225 10.400584,6.91064451 L10.4,5.6 C10.4,4.7163444 11.1163444,4 12,4 Z M12,8.8 C10.2326888,8.8 8.8,10.2326888 8.8,12 C8.8,13.7673112 10.2326888,15.2 12,15.2 C13.7673112,15.2 15.2,13.7673112 15.2,12 C15.2,10.2326888 13.7673112,8.8 12,8.8 Z" id="Shape" fill="#FFFFFF"></path>
    </g>
</svg>