<?xml version="1.0" encoding="UTF-8"?>
<svg width="88.791667px" height="51.7917048px" viewBox="0 0 88.791667 51.7917048" version="1.1" xmlns="http://www.w3.org/2000/svg" xmlns:xlink="http://www.w3.org/1999/xlink">
    <title>Introducing Squads Icon</title>
    <g id="Squad-MVP" stroke="none" stroke-width="1" fill="none" fill-rule="evenodd">
        <g id="2.-Discover-public-squad-(user)" transform="translate(-1035.2083, -144)" fill="#FFFFFF">
            <g id="Banner" transform="translate(372, 96)">
                <g id="Introducing-Squads-Icon" transform="translate(624, 40)">
                    <g id="Icon/User/Filled" transform="translate(39.2083, 10.2083)">
                        <path d="M47.3556892,2.22768398 C51.5061658,6.37816065 49.6570511,15.3766005 43.4697651,24.7925495 C49.6574334,34.2085407 51.5057367,43.2055491 47.3556892,47.3555966 C43.2056329,51.5056529 34.2085953,49.657333 24.7936846,43.4715524 C15.3766931,49.6569585 6.3782532,51.5060733 2.22777653,47.3555966 C-1.92227978,43.2055403 -0.0739598656,34.2085028 6.11182073,24.7935921 C-0.0735784297,15.3766343 -1.92270793,6.37816843 2.22777653,2.22768398 C6.3782532,-1.9227927 15.3766931,-0.0736779203 24.792642,6.11360801 C34.2085953,-0.0740524199 43.2056329,-1.92237233 47.3556892,2.22768398 Z M40.7333678,28.6086181 L41.1306017,28.0969717 C39.3498153,30.4426473 37.3138455,32.7822152 35.0480766,35.0479841 C32.9468345,37.1492262 30.782122,39.0528308 28.6079291,40.7385517 C35.7983345,45.1398582 42.071686,46.4857935 44.278786,44.2786935 C46.4858861,42.0715934 45.1399508,35.7982419 40.7333678,28.6086181 Z M8.8490888,28.6133398 L8.67868909,28.8903716 C4.40889981,35.9617208 3.1264598,42.1004736 5.30467966,44.2786935 C7.51118423,46.485198 13.7817465,45.1405842 20.9689361,40.7368412 C18.7976909,39.0496184 16.6348583,37.1474533 14.5353891,35.0479841 C12.4359198,32.9485148 10.5337547,30.7856822 8.8490888,28.6133398 Z M24.7923411,11.4241484 L23.8677419,12.1178503 C21.7780878,13.7197464 19.6696565,15.5548354 17.6122922,17.6121996 C15.2510011,19.9734908 13.1825078,22.4020513 11.4233183,24.7922856 C13.183231,27.1820784 15.2514139,29.6102026 17.6122922,31.9710809 C19.9735833,34.332372 22.4021438,36.4008654 24.7923782,38.1600548 C27.1833035,36.3991774 29.6108458,34.3314087 31.9711735,31.9710809 C34.3320518,29.6102026 36.4002347,27.1820784 38.1592247,24.7922485 C36.4009579,22.4020513 34.3324646,19.9734908 31.9711735,17.6121996 C29.6102952,15.2513213 27.182171,13.1831384 24.7923411,11.4241484 Z M34.1140735,5.98326527 L32.9087155,6.52021724 C31.5335761,7.16356518 30.0920673,7.9409854 28.6116905,8.84817906 L28.0970642,8.45277139 C30.4427398,10.2335578 32.7823077,12.2695276 35.0480766,14.5352965 C37.1483786,16.6355985 39.0512199,18.7993141 40.7363814,20.9725256 C41.6423877,19.4913058 42.419808,18.0497971 43.0631559,16.6746577 L43.6001079,15.4692997 C45.6054857,10.7236706 45.8963186,6.9221197 44.278786,5.30458711 C42.6612534,3.68705452 38.8597025,3.97788748 34.1140735,5.98326527 Z M5.30467966,5.30458711 C3.68714707,6.9221197 3.97798004,10.7236706 5.98335783,15.4692997 L6.52030979,16.6746577 C7.16323614,18.0488959 7.94005911,19.4894166 8.84648831,20.9687724 C10.5337547,18.7975984 12.4359198,16.6347658 14.5353891,14.5352965 C16.6348583,12.4358273 18.7976909,10.5336621 20.9700333,8.84899625 C19.4895091,7.93996656 18.0489885,7.16314359 16.6747502,6.52021724 L15.4693922,5.98326527 C10.7237632,3.97788748 6.92221226,3.68705452 5.30467966,5.30458711 Z" id="Shape"></path>
                    </g>
                    <path d="M128,8 L125,23 L91,23 L94,8 L128,8 Z M110.154297,11.46875 L104.605469,11.46875 L103.123047,20 L108.683594,20 L108.929688,18.5878906 L105.085938,18.5878906 L105.484375,16.3027344 L108.753906,16.3027344 L109,14.9257812 L105.71875,14.9257812 L106.076172,12.8925781 L109.902344,12.8925781 L110.154297,11.46875 Z M117.449219,11.46875 L110.699219,11.46875 L110.447266,12.8925781 L112.949219,12.8925781 L111.71875,20 L113.435547,20 L114.666016,12.8925781 L117.197266,12.8925781 L117.449219,11.46875 Z M97.9310744,11.46875 L96.4486525,20 L99.7240432,20 C100.720137,20 101.50627,19.7763672 102.082442,19.3291016 C102.658613,18.8818359 102.974043,18.2558594 103.028731,17.4511719 C103.056074,17.0136719 102.975996,16.6337891 102.788496,16.3115234 C102.600996,15.9892578 102.337324,15.7695312 101.997481,15.6523437 C102.938887,15.2539062 103.436934,14.6230469 103.491621,13.7597656 C103.538496,13.0371094 103.313887,12.4765625 102.817793,12.078125 C102.321699,11.6796875 101.579512,11.4785156 100.591231,11.4746094 L97.9310744,11.46875 Z M120.537109,11.46875 L118.949219,11.46875 L114.390625,20 L116.283203,20 L117.162109,18.2421875 L120.138672,18.2421875 L120.408203,20 L122.160156,20 L120.537109,11.46875 Z M98.81584,16.2851562 L100.433028,16.2910156 C100.788496,16.3066406 101.041426,16.4130859 101.191817,16.6103516 C101.342207,16.8076172 101.390059,17.0820313 101.335371,17.4335938 C101.280684,17.7890625 101.110762,18.0712891 100.825606,18.2802734 C100.540449,18.4892578 100.186934,18.59375 99.7650588,18.59375 L98.4115432,18.5878906 L98.81584,16.2851562 Z M119.441406,13.6425781 L119.921875,16.8183594 L117.865234,16.8183594 L119.441406,13.6425781 Z M99.4017775,12.8925781 L100.667403,12.8984375 C101.487715,12.9023437 101.849043,13.2480469 101.751387,13.9355469 C101.696699,14.2832031 101.53166,14.5546875 101.25627,14.75 C100.980879,14.9453125 100.626387,15.046875 100.192793,15.0546875 L99.0267775,15.0429687 L99.4017775,12.8925781 Z" id="Combined-Shape"></path>
                </g>
            </g>
        </g>
    </g>
</svg>