<?xml version="1.0" encoding="UTF-8"?>
<svg width="24px" height="24px" viewBox="0 0 24 24" version="1.1" xmlns="http://www.w3.org/2000/svg" xmlns:xlink="http://www.w3.org/1999/xlink">
    <title>Icon/Source</title>
    <g id="Icon/Source" stroke="none" stroke-width="1" fill="none" fill-rule="evenodd">
        <path d="M15.1175352,5.62956652 C16.9653935,4.84815301 18.5178528,4.74030737 19.3890771,5.61215342 C20.2240004,6.44767256 20.1598138,7.90928631 19.4594614,9.67167847 L19.3645249,9.90323471 L19.1857098,10.3045352 C18.8495596,11.0235603 18.4225264,11.7645888 17.9180529,12.5040432 C19.8657983,15.353945 20.6238735,18.1636684 19.3890771,19.399346 C18.1545493,20.6347548 15.3477824,19.8767372 12.500394,17.9275236 C9.65301158,19.8767372 6.84624469,20.6347548 5.61171687,19.399346 C4.37692047,18.1636684 5.13499576,15.353945 7.08376109,12.503887 C6.66142858,11.885011 6.29281995,11.26393 5.98514846,10.6536167 L5.80791573,10.2888247 L5.62911755,9.88674378 C4.8482613,8.0375667 4.74049257,6.48399948 5.61171687,5.61215342 C6.44664016,4.77663429 7.90721157,4.84086673 9.66834689,5.54171896 L9.89973799,5.63672316 L10.3007523,5.81566587 C11.0198687,6.1523388 11.7610098,6.58011257 12.5005554,7.08550083 C13.1193663,6.6632578 13.7405128,6.29414823 14.3509027,5.98600189 L14.715741,5.8084923 L15.1175352,5.62956652 Z M16.7133628,14.0895523 C16.3207762,14.5569078 15.9000285,15.0165565 15.4547209,15.4621819 C15.009054,15.9081669 14.5496706,16.3291357 14.0835644,16.7214252 L14.310299,16.8651061 L14.5054357,16.9828444 L14.5054357,16.9828444 L14.6981848,17.095535 L15.0755422,17.3055603 L15.4404149,17.4947577 C15.7745279,17.66149 16.0897713,17.8004522 16.3789874,17.9100908 L16.5909076,17.9867973 L16.8753894,18.0770139 C17.4672914,18.2475429 17.8955132,18.2549631 18.0705118,18.0798396 C18.3510763,17.7990748 18.1627699,16.8669671 17.5856246,15.652779 L17.4858471,15.4478658 L17.2967847,15.0827327 L17.0869091,14.705106 L16.9742989,14.5122193 L16.9742989,14.5122193 L16.8566446,14.3169433 L16.7133628,14.0895523 Z M8.28735598,14.0893173 L8.14414942,14.3169433 L8.02649509,14.5122193 L8.02649509,14.5122193 L7.91388494,14.705106 L7.70400933,15.0827327 L7.51494692,15.4478658 C7.34833348,15.7822172 7.20947038,16.0976855 7.09990998,16.3871081 L7.02325821,16.5991794 L6.93310592,16.8838643 C6.76269851,17.4761888 6.75528366,17.9047161 6.93028224,18.0798396 C7.21084678,18.3606044 8.14228975,18.1721636 9.35561198,17.5946064 L9.56037907,17.4947577 L9.92525177,17.3055603 L10.3026092,17.095535 L10.4953583,16.9828444 L10.4953583,16.9828444 L10.690495,16.8651061 L10.9172296,16.7214252 C10.4511234,16.3291357 9.99174005,15.9081669 9.54607316,15.4621819 C9.100792,15.016583 8.68006779,14.5569624 8.28735598,14.0893173 Z M12.5003955,9.40430694 L12.1687735,9.67528971 C11.7257383,10.0453782 11.2886288,10.444531 10.8646385,10.8688239 C10.3910126,11.3427877 9.95271995,11.8341666 9.55305986,12.327737 L9.40679214,12.5125033 C9.84885193,13.066969 10.3373155,13.6149762 10.8646385,14.1426755 C11.4566709,14.7351304 12.0758947,15.2723378 12.6925981,15.7478488 L12.5002455,15.5978194 C13.0531305,15.1602418 13.6055633,14.6736464 14.1361555,14.1426755 C14.6634711,13.6149836 15.1519283,13.0669845 15.5936615,12.5132317 C15.1573684,11.9575942 14.6691337,11.4021825 14.1361555,10.8688239 C13.6064646,10.338755 13.0562978,9.84792331 12.5003955,9.40430694 Z M18.0705118,6.9316598 C18.0368738,6.89799785 17.8666326,6.85427754 17.5446756,6.87664312 C17.1526001,6.90387968 16.6538432,7.02912944 16.1002943,7.24383513 L15.8598557,7.3413038 L15.49024,7.50589937 C15.0296834,7.72152083 14.5551444,7.98221924 14.075605,8.28309469 C14.5452088,8.67816848 15.0070462,9.10132329 15.4547209,9.54931748 C15.9030511,9.99796767 16.3260834,10.4605087 16.7200911,10.9298156 C16.9444096,10.5726354 17.1455344,10.2191181 17.3217138,9.87299869 L17.4895133,9.52948355 L17.6540084,9.16038449 C17.9353527,8.49412174 18.0943839,7.90627735 18.1254892,7.45787125 C18.1478388,7.1356845 18.1041497,6.96532175 18.0705118,6.9316598 Z M7.45611843,6.87664312 C7.13416144,6.85427754 6.96392019,6.89799785 6.93028224,6.9316598 C6.8966443,6.96532175 6.85295517,7.1356845 6.87530481,7.45787125 C6.90252194,7.85022659 7.02768238,8.34933936 7.24223495,8.90328336 L7.33963411,9.14389356 L7.5041123,9.51377303 C7.71944026,9.97435937 7.97975462,10.44892 8.28016847,10.928484 C8.67526909,10.4598981 9.09803884,9.99767153 9.54607316,9.54931748 C9.99371498,9.10135619 10.4555174,8.67823063 10.9253918,8.28345401 C10.5686126,8.05866807 10.2153839,7.85732288 9.86952048,7.68099851 L9.52625337,7.51307294 L9.15741754,7.34846045 C8.49162992,7.06691536 7.90420475,6.90777061 7.45611843,6.87664312 Z" id="Shape" fill="#FFFFFF" fill-rule="nonzero"></path>
    </g>
</svg>