<svg width="74px" height="74px" viewBox="0 0 74 74" version="1.1" xmlns="http://www.w3.org/2000/svg" xmlns:xlink="http://www.w3.org/1999/xlink"> <title>icon</title> <defs> <linearGradient x1="56.8386454%" y1="133.629772%" x2="14.6025807%" y2="7.20193666%" id="linearGradient-1"> <stop stop-color="#7147ED" offset="0%"></stop> <stop stop-color="#FC538D" offset="100%"></stop> </linearGradient> <path d="M30.4969508,-1.19347049e-15 L43.5030492,1.19347049e-15 C53.8776682,-7.12316083e-16 57.8110373,1.11390733 61.7221484,3.20559245 C65.6332596,5.29727756 68.7027224,8.36674045 70.7944076,12.2778516 C72.8860927,16.1889627 74,20.1223318 74,30.4969508 L74,43.5030492 C74,53.8776682 72.8860927,57.8110373 70.7944076,61.7221484 C68.7027224,65.6332596 65.6332596,68.7027224 61.7221484,70.7944076 C57.8110373,72.8860927 53.8776682,74 43.5030492,74 L30.4969508,74 C20.1223318,74 16.1889627,72.8860927 12.2778516,70.7944076 C8.36674045,68.7027224 5.29727756,65.6332596 3.20559245,61.7221484 C1.11390733,57.8110373 4.74877389e-16,53.8776682 -7.95646995e-16,43.5030492 L7.95646995e-16,30.4969508 C-4.74877389e-16,20.1223318 1.11390733,16.1889627 3.20559245,12.2778516 C5.29727756,8.36674045 8.36674045,5.29727756 12.2778516,3.20559245 C16.1889627,1.11390733 20.1223318,7.12316083e-16 30.4969508,-1.19347049e-15 Z" id="path-2"></path> <filter x="-153.3%" y="-122.7%" width="406.7%" height="345.3%" filterUnits="objectBoundingBox" id="filter-4"> <feOffset dx="0" dy="12" in="SourceAlpha" result="shadowOffsetOuter1"></feOffset> <feGaussianBlur stdDeviation="6" in="shadowOffsetOuter1" result="shadowBlurOuter1"></feGaussianBlur> <feColorMatrix values="0 0 0 0 0.300523027   0 0 0 0 0.0687262866   0 0 0 0 0.400617074  0 0 0 0.307637675 0" type="matrix" in="shadowBlurOuter1" result="shadowMatrixOuter1"></feColorMatrix> <feMerge> <feMergeNode in="shadowMatrixOuter1"></feMergeNode> <feMergeNode in="SourceGraphic"></feMergeNode> </feMerge> </filter> </defs> <g id="Feed-filters" stroke="none" stroke-width="1" fill="none" fill-rule="evenodd"> <g id="16.2-Scroll-experiment-V2" transform="translate(-643.000000, -619.000000)"> <g id="icon" transform="translate(643.000000, 619.000000)"> <mask id="mask-3" fill="white"> <use xlink:href="#path-2"></use> </mask> <use id="Rectangle" fill="url(#linearGradient-1)" xlink:href="#path-2"></use> <g id="Icon/Hot/Filled" filter="url(#filter-4)" mask="url(#mask-3)" fill="#FFFFFF"> <g transform="translate(22.000000, 18.250000)" id="Path"> <path d="M20.148058,0.677528124 C20.7831684,1.31303687 20.9929246,2.25911983 20.6859773,3.10375455 L15.8406461,16.4367743 L27.6882253,16.4367743 C28.9649836,16.4367743 30,17.4724407 30,18.75 C30,19.3635056 29.7564393,19.9518836 29.3228973,20.3856976 L13.1212872,36.8224719 C12.2184827,37.7258427 10.7547475,37.7258427 9.85194298,36.8224719 C9.21683266,36.1869631 9.00707637,35.2408802 9.31402371,34.3962454 L14.1593549,21.0632257 L2.31177475,21.0632257 C1.03501642,21.0632257 0,20.0275593 0,18.75 C0,18.1364944 0.243560734,17.5481164 0.677102731,17.1143024 L16.8787138,0.677528124 C17.7815183,-0.225842708 19.2452536,-0.225842708 20.148058,0.677528124 Z"></path> </g> </g> </g> </g> </g> </svg>
