<?xml version="1.0" encoding="UTF-8"?>
<svg width="24px" height="24px" viewBox="0 0 24 24" version="1.1" xmlns="http://www.w3.org/2000/svg" xmlns:xlink="http://www.w3.org/1999/xlink">
    <title>Icon/Sync</title>
    <g id="Icon/Sync" stroke="none" stroke-width="1" fill="none" fill-rule="evenodd">
        <g id="Group" transform="translate(2.500000, 5.000000)" fill="#FFFFFF">
            <path d="M17.3133133,4.269 L16.4693133,5.114 L16.4663133,4 C16.4663133,1.791 14.6763133,0.001 12.4683133,0 L6.46631333,0 C4.61131333,0 3.01231333,1.258 2.57831333,3.059 C2.44831333,3.596 2.77831333,4.136 3.31531333,4.266 C3.39431333,4.285 3.47331333,4.293 3.55131333,4.293 C4.00231333,4.293 4.41131333,3.986 4.52131333,3.528 C4.73931333,2.628 5.53831333,2 6.46631333,2 L12.4653133,2 C13.5703133,2 14.4663133,2.895 14.4663133,4 L14.4663133,5.112 L13.6233133,4.269 C13.2363133,3.883 12.6113133,3.883 12.2273133,4.269 C11.8403133,4.655 11.8403133,5.281 12.2273133,5.666 L14.7703133,8.21 C15.1543133,8.596 15.7803133,8.596 16.1663133,8.21 L18.7093133,5.666 C19.0973133,5.281 19.0973133,4.655 18.7093133,4.269 C18.3233133,3.883 17.6983133,3.883 17.3133133,4.269 Z" id="Fill-6"></path>
            <path d="M14.7633133,9.769 L13.9193133,10.614 L13.9163133,9.5 C13.9163133,7.291 12.1263133,5.501 9.91831333,5.5 L3.91631333,5.5 C2.06131333,5.5 0.462313332,6.758 0.0283133318,8.559 C-0.101686668,9.096 0.228313332,9.636 0.765313332,9.766 C0.844313332,9.785 0.923313332,9.793 1.00131333,9.793 C1.45231333,9.793 1.86131333,9.486 1.97131333,9.028 C2.18931333,8.128 2.98831333,7.5 3.91631333,7.5 L9.91531333,7.5 C11.0203133,7.5 11.9163133,8.395 11.9163133,9.5 L11.9163133,10.612 L11.0733133,9.769 C10.6863133,9.383 10.0613133,9.383 9.67731333,9.769 C9.29031333,10.155 9.29031333,10.781 9.67731333,11.166 L12.2203133,13.71 C12.6043133,14.096 13.2303133,14.096 13.6163133,13.71 L16.1593133,11.166 C16.5473133,10.781 16.5473133,10.155 16.1593133,9.769 C15.7733133,9.383 15.1483133,9.383 14.7633133,9.769 Z" id="Fill-6" transform="translate(8.225157, 9.749750) scale(-1, -1) translate(-8.225157, -9.749750) "></path>
        </g>
    </g>
</svg>