<?xml version="1.0" encoding="UTF-8"?>
<svg width="24px" height="24px" viewBox="0 0 24 24" version="1.1" xmlns="http://www.w3.org/2000/svg" xmlns:xlink="http://www.w3.org/1999/xlink">
    <title>Social/Telegram/White</title>
    <g id="Social/Telegram/White" stroke="none" stroke-width="1" fill="none" fill-rule="evenodd">
        <path d="M12,2 C17.5228475,2 22,6.4771525 22,12 C22,17.5228475 17.5228475,22 12,22 C6.4771525,22 2,17.5228475 2,12 C2,6.4771525 6.4771525,2 12,2 Z M16.0886285,8.01993576 L16.0127854,8.0239222 C15.7347944,8.0475562 15.3054066,8.18271117 14.103168,8.66579623 L12.0949475,9.49259881 C11.0549642,9.92956182 9.19883787,10.730176 6.52656838,11.8944414 C6.05318488,12.0826902 5.80520574,12.2668518 5.78263094,12.4469262 C5.75262545,12.6862735 5.98195077,12.8115041 6.3337149,12.9334567 L6.86327212,13.1038482 C7.37385508,13.2698186 8.06067896,13.463987 8.41773048,13.4717009 C8.7416103,13.4786982 9.10309716,13.3451725 9.50219106,13.0711238 L13.0916571,10.67193 C13.4783513,10.4200854 13.6878819,10.2904901 13.720249,10.283144 C13.7825246,10.2690097 13.8688234,10.2512376 13.9272948,10.3032086 C13.9857662,10.3551796 13.9800182,10.4536027 13.9738245,10.4800071 C13.9243016,10.6911296 11.3656418,13.0184285 11.2183892,13.1713713 L11.0770972,13.3130492 C10.5603511,13.817415 10.0979645,14.1675943 11.0030015,14.7640003 L11.5883468,15.154606 C11.9493562,15.398314 12.2673413,15.6174142 12.6348037,15.8646104 L13.2346679,16.2630647 C13.7971223,16.6317607 14.2380937,17.0689788 14.8188124,17.0155401 C15.0860267,16.9909506 15.3620416,16.7396868 15.5022196,15.9903053 L15.6701202,15.0684669 C16.0175901,13.1188805 16.507254,10.1448643 16.6351725,8.80081332 C16.6483576,8.66227656 16.631771,8.48497696 16.618451,8.40714658 C16.605131,8.3293162 16.5772959,8.2184242 16.4761289,8.13633414 C16.3563168,8.03911486 16.1713524,8.0186134 16.0886285,8.01993576 Z" id="Shape" fill="#FFFFFF"></path>
    </g>
</svg>