<?xml version="1.0" encoding="UTF-8"?>
<svg width="24px" height="24px" viewBox="0 0 24 24" version="1.1" xmlns="http://www.w3.org/2000/svg" xmlns:xlink="http://www.w3.org/1999/xlink">
    <!-- Generator: Sketch 55.2 (78181) - https://sketchapp.com -->
    <title>Timer</title>
    <desc>Created with Sketch.</desc>
    <g id="Icons" stroke="none" stroke-width="1" fill="none" fill-rule="evenodd">
        <g id="Timer" fill="#FFFFFF">
            <path d="M4.0003233,17.8811648 C3.89618983,17.508639 4.01447029,17.0931712 4.33419627,16.8342623 C4.76340213,16.4866982 5.39309856,16.552882 5.74066262,16.9820878 C5.75572597,17.0006895 5.77001217,17.0196678 5.78352534,17.0389834 C6.48177421,17.9015232 7.35555866,18.6121488 8.368076,19.1280522 C12.3047905,21.1339084 17.122196,19.5686385 19.1280522,15.631924 C21.1339084,11.6952095 19.5686385,6.87780404 15.631924,4.87194781 C15.604963,4.85821047 15.5788918,4.84341817 15.5537351,4.8276468 C15.5244008,4.81660453 15.4953202,4.80409056 15.4665825,4.79007424 C14.9701923,4.54796854 14.7640539,3.94929929 15.0061596,3.45290904 C15.2482653,2.9565188 15.8469346,2.75038044 16.3433248,2.99248614 C16.3758585,3.00835387 16.4071453,3.02575324 16.4371409,3.04455507 C16.471815,3.05760978 16.5061194,3.07272016 16.539905,3.08993476 C21.4607982,5.59725505 23.4173855,11.6190118 20.9100652,16.539905 C18.4027449,21.4607982 12.3809882,23.4173855 7.460095,20.9100652 C6.17426906,20.2549042 5.06442943,19.3454152 4.18317181,18.2402971 C4.09575724,18.1306771 4.03510412,18.0083364 4.0003233,17.8811648 Z M9.56261619,15.0464561 C9.09438095,15.3252212 8.48881746,15.1716254 8.2100523,14.7033901 C8.20779831,14.6996042 8.2055697,14.6958031 8.20336663,14.6919873 C7.92722426,14.2136947 8.09109941,13.6021043 8.56939203,13.3259619 L11,11.9226497 L11,7 C11,6.44771525 11.4477153,6 12,6 C12.5522847,6 13,6.44771525 13,7 L13,12.4315466 C13,12.7840303 12.8144281,13.1104808 12.5115566,13.2907961 L9.56261619,15.0464561 Z M12,4 C11.4477153,4 11,3.55228475 11,3 C11,2.44771525 11.4477153,2 12,2 C12.5522847,2 13,2.44771525 13,3 C13,3.55228475 12.5522847,4 12,4 Z M4.20001886,13.7777374 C4.32425589,14.3158671 3.98872957,14.8528214 3.45059984,14.9770585 C2.91247012,15.1012955 2.37551576,14.7657692 2.25127873,14.2276395 C2.12704169,13.6895097 2.46256801,13.1525554 3.00069774,13.0283183 C3.53882746,12.9040813 4.07578182,13.2396076 4.20001886,13.7777374 Z M4.20001886,10.2222626 C4.07578182,10.7603924 3.53882746,11.0959187 3.00069774,10.9716817 C2.46256801,10.8474446 2.12704169,10.3104903 2.25127873,9.77236054 C2.37551576,9.23423081 2.91247012,8.89870449 3.45059984,9.02294153 C3.98872957,9.14717857 4.32425589,9.68413292 4.20001886,10.2222626 Z M5.74066262,7.01791217 C5.39309856,7.44711804 4.76340213,7.5133018 4.33419627,7.16573774 C3.9049904,6.81817369 3.83880664,6.18847726 4.1863707,5.75927139 C4.53393475,5.33006553 5.16363119,5.26388177 5.59283705,5.61144582 C6.02204291,5.95900988 6.08822667,6.58870631 5.74066262,7.01791217 Z M8.53341749,4.79007424 C8.03702725,5.03217993 7.438358,4.82604158 7.1962523,4.32965134 C6.9541466,3.83326109 7.16028496,3.23459184 7.6566752,2.99248614 C8.15306545,2.75038044 8.7517347,2.9565188 8.99384039,3.45290904 C9.23594609,3.94929929 9.02980774,4.54796854 8.53341749,4.79007424 Z" id="Combined-Shape"></path>
        </g>
    </g>
</svg>