<?xml version="1.0" encoding="UTF-8"?>
<svg width="367px" height="367px" viewBox="0 0 367 367" version="1.1" xmlns="http://www.w3.org/2000/svg" xmlns:xlink="http://www.w3.org/1999/xlink">
    <title>Group 2</title>
    <defs>
        <linearGradient x1="50%" y1="0%" x2="50%" y2="100%" id="linearGradient-1">
            <stop stop-color="#FFE215" stop-opacity="0" offset="0%"></stop>
            <stop stop-color="#FFC109" offset="100%"></stop>
        </linearGradient>
        <linearGradient x1="50%" y1="0%" x2="50%" y2="100%" id="linearGradient-2">
            <stop stop-color="#FFE215" stop-opacity="0" offset="0%"></stop>
            <stop stop-color="#FFC109" offset="100%"></stop>
        </linearGradient>
        <linearGradient x1="50%" y1="0%" x2="50%" y2="100%" id="linearGradient-3">
            <stop stop-color="#FFE215" stop-opacity="0" offset="0%"></stop>
            <stop stop-color="#FFC109" offset="100%"></stop>
        </linearGradient>
        <linearGradient x1="50%" y1="0%" x2="50%" y2="100%" id="linearGradient-4">
            <stop stop-color="#FFE215" stop-opacity="0" offset="0%"></stop>
            <stop stop-color="#FFC109" offset="100%"></stop>
        </linearGradient>
        <linearGradient x1="50%" y1="0%" x2="50%" y2="100%" id="linearGradient-5">
            <stop stop-color="#FFE215" stop-opacity="0" offset="0%"></stop>
            <stop stop-color="#FFC109" offset="100%"></stop>
        </linearGradient>
        <linearGradient x1="50%" y1="0%" x2="50%" y2="100%" id="linearGradient-6">
            <stop stop-color="#FFE215" stop-opacity="0" offset="0%"></stop>
            <stop stop-color="#FFC109" offset="100%"></stop>
        </linearGradient>
        <linearGradient x1="50%" y1="0%" x2="50%" y2="100%" id="linearGradient-7">
            <stop stop-color="#FFE215" stop-opacity="0" offset="0%"></stop>
            <stop stop-color="#FFC109" offset="100%"></stop>
        </linearGradient>
        <linearGradient x1="50%" y1="0%" x2="50%" y2="100%" id="linearGradient-8">
            <stop stop-color="#FFE215" stop-opacity="0" offset="0%"></stop>
            <stop stop-color="#FFC109" offset="100%"></stop>
        </linearGradient>
        <linearGradient x1="50%" y1="0%" x2="50%" y2="100%" id="linearGradient-9">
            <stop stop-color="#FFE215" stop-opacity="0" offset="0%"></stop>
            <stop stop-color="#FFC109" offset="100%"></stop>
        </linearGradient>
        <linearGradient x1="50%" y1="0%" x2="50%" y2="100%" id="linearGradient-10">
            <stop stop-color="#FFE215" stop-opacity="0" offset="0%"></stop>
            <stop stop-color="#FFC109" offset="100%"></stop>
        </linearGradient>
        <linearGradient x1="50%" y1="0%" x2="50%" y2="100%" id="linearGradient-11">
            <stop stop-color="#FFE215" stop-opacity="0" offset="0%"></stop>
            <stop stop-color="#FFC109" offset="100%"></stop>
        </linearGradient>
        <linearGradient x1="50%" y1="0%" x2="50%" y2="100%" id="linearGradient-12">
            <stop stop-color="#FFE215" stop-opacity="0" offset="0%"></stop>
            <stop stop-color="#FFC109" offset="100%"></stop>
        </linearGradient>
        <linearGradient x1="50%" y1="0%" x2="50%" y2="100%" id="linearGradient-13">
            <stop stop-color="#FFE215" stop-opacity="0" offset="0%"></stop>
            <stop stop-color="#FFC109" offset="100%"></stop>
        </linearGradient>
        <linearGradient x1="50%" y1="0%" x2="50%" y2="100%" id="linearGradient-14">
            <stop stop-color="#FFE215" stop-opacity="0" offset="0%"></stop>
            <stop stop-color="#FFC109" offset="100%"></stop>
        </linearGradient>
        <linearGradient x1="50%" y1="0%" x2="50%" y2="100%" id="linearGradient-15">
            <stop stop-color="#D8D8D8" stop-opacity="0" offset="0%"></stop>
            <stop stop-color="#D8D8D8" offset="100%"></stop>
        </linearGradient>
        <linearGradient x1="50%" y1="0%" x2="50%" y2="100%" id="linearGradient-16">
            <stop stop-color="#FFE215" stop-opacity="0" offset="0%"></stop>
            <stop stop-color="#FFC109" offset="100%"></stop>
        </linearGradient>
        <linearGradient x1="50%" y1="0%" x2="50%" y2="100%" id="linearGradient-17">
            <stop stop-color="#D8D8D8" stop-opacity="0" offset="0%"></stop>
            <stop stop-color="#D8D8D8" offset="100%"></stop>
        </linearGradient>
        <filter x="-83.2%" y="-83.2%" width="266.5%" height="266.5%" filterUnits="objectBoundingBox" id="filter-18">
            <feOffset dx="0" dy="1" in="SourceAlpha" result="shadowOffsetOuter1"></feOffset>
            <feGaussianBlur stdDeviation="35" in="shadowOffsetOuter1" result="shadowBlurOuter1"></feGaussianBlur>
            <feColorMatrix values="0 0 0 0 0.996078431   0 0 0 0 1   0 0 0 0 0  0 0 0 1 0" type="matrix" in="shadowBlurOuter1" result="shadowMatrixOuter1"></feColorMatrix>
            <feMerge>
                <feMergeNode in="shadowMatrixOuter1"></feMergeNode>
                <feMergeNode in="SourceGraphic"></feMergeNode>
            </feMerge>
        </filter>
        <circle id="path-19" cx="82" cy="82" r="82"></circle>
    </defs>
    <g id="Improve-Authentication" stroke="none" stroke-width="1" fill="none" fill-rule="evenodd">
        <g id="7---Register/Time-Zone" transform="translate(-757.000000, -377.000000)">
            <g id="Modal---Medium" transform="translate(734.000000, 157.000000)">
                <g id="sun" transform="translate(0.000000, 252.000000)">
                    <g id="Group-2" transform="translate(76.000000, 20.000000)">
                        <g id="Group" transform="translate(18.751692, 21.807506)" fill-rule="nonzero">
                            <path d="M112.052677,173.50345 C113.378143,173.51026 114.45741,174.547327 114.535386,175.851832 L114.539863,176.016232 L114.304684,222.016232 C114.297625,223.396926 113.172629,224.510477 111.791935,224.50345 C110.466469,224.496642 109.387202,223.459574 109.309227,222.15507 L109.304749,221.99067 L109.539928,175.99067 C109.546987,174.609976 110.671983,173.496425 112.052677,173.50345 Z" id="Path-6" fill="url(#linearGradient-1)"></path>
                            <path d="M82.1932941,167.318821 C83.3609142,167.946172 83.8280999,169.368165 83.285459,170.55701 L83.212347,170.704327 L61.6777699,210.785997 C61.0243008,212.002279 59.5085676,212.45853 58.2922738,211.805082 C57.1246536,211.17773 56.6574679,209.755737 57.2001089,208.566893 L57.2732209,208.419576 L78.8077979,168.337906 C79.461267,167.121623 80.9770003,166.665373 82.1932941,167.318821 Z" id="Path" fill="url(#linearGradient-2)"></path>
                            <path d="M58.6893123,146.553625 C59.4448579,147.642688 59.2155521,149.121791 58.1923312,149.934705 L58.0603075,150.032773 L20.6761616,175.969309 C19.5417356,176.756356 17.984074,176.47475 17.1970074,175.340338 C16.4414619,174.251275 16.6707676,172.772172 17.6939885,171.959258 L17.8260122,171.861189 L55.2101581,145.924654 C56.3445841,145.137607 57.9022457,145.419213 58.6893123,146.553625 Z" id="Path" fill="url(#linearGradient-3)"></path>
                            <path d="M47.7163395,117.630449 C47.8721627,118.946742 46.975301,120.14506 45.6902103,120.382447 L45.5276,120.407055 L0.342892406,125.756864 C-1.02824247,125.919204 -2.27136989,124.939283 -2.4337341,123.568151 C-2.58955731,122.251858 -1.69269559,121.053541 -0.407604915,120.816153 L-0.244994622,120.791545 L44.939713,115.441737 C46.3108479,115.279396 47.5539753,116.259317 47.7163395,117.630449 Z" id="Path" fill="url(#linearGradient-4)"></path>
                            <path d="M51.3764179,86.9127521 C50.8960398,88.1481239 49.5415817,88.7851246 48.2954672,88.3914122 L48.1403382,88.3367985 L5.73302643,71.8474637 C4.44617193,71.3470931 3.80860082,69.8982608 4.3089492,68.6113978 C4.78932731,67.376026 6.14378534,66.7390253 7.38989991,67.1327377 L7.54502888,67.1873514 L49.9523407,83.6766862 C51.2391951,84.1770568 51.8767663,85.6258891 51.3764179,86.9127521 Z" id="Path" fill="url(#linearGradient-5)"></path>
                            <path d="M69.170119,61.0862029 C68.1812519,61.9688401 66.6852287,61.9215009 65.7536742,61.0049763 L65.6402474,60.8858881 L35.3410573,26.9412666 C34.421625,25.9112133 34.5113011,24.3308431 35.5413384,23.4113931 C36.5302054,22.5287559 38.0262287,22.5760952 38.9577831,23.4926198 L39.07121,23.6117079 L69.3704001,57.5563295 C70.2898323,58.5863827 70.2001563,60.1667529 69.170119,61.0862029 Z" id="Path" fill="url(#linearGradient-6)"></path>
                            <path d="M96.5673945,46.7214525 C95.2799036,47.0365299 93.9812179,46.2923915 93.5889864,45.04581 L93.5447449,44.8874107 L82.7281825,0.691480632 C82.3999527,-0.649649676 83.2210708,-2.0029334 84.5621954,-2.33118632 C85.8496862,-2.64626374 87.1483719,-1.9021253 87.5406035,-0.655543795 L87.5848449,-0.497144494 L98.4014074,43.6987855 C98.7296371,45.0399158 97.908519,46.3931996 96.5673945,46.7214525 Z" id="Path" fill="url(#linearGradient-7)"></path>
                            <path d="M127.502217,46.6686376 C126.21751,46.3423941 125.420191,45.0756628 125.659105,43.7908551 L125.694406,43.6302267 L136.892681,-0.470531785 C137.232494,-1.8087741 138.592826,-2.6181611 139.931074,-2.27837139 C141.215781,-1.95212789 142.013101,-0.685396647 141.774186,0.599411055 L141.738885,0.760039439 L130.54061,44.8607979 C130.200798,46.1990403 128.840465,47.0084273 127.502217,46.6686376 Z" id="Path" fill="url(#linearGradient-8)"></path>
                            <path d="M154.949083,60.9401224 C153.967916,60.0489331 153.858619,58.5561569 154.672749,57.5339027 L154.779328,57.4086491 L185.37087,23.727262 C186.299173,22.7051966 187.88026,22.6291878 188.902341,23.5574737 C189.883508,24.4486629 189.992805,25.9414391 189.178675,26.9636933 L189.072096,27.0889469 L158.480554,60.770334 C157.55225,61.7923994 155.971164,61.8684083 154.949083,60.9401224 Z" id="Path" fill="url(#linearGradient-9)"></path>
                            <path d="M172.826786,86.7089385 C172.357151,85.4694427 172.937473,84.0897495 174.126962,83.5485215 L174.278789,83.4853058 L216.827082,67.3632394 C218.118214,66.8740135 219.56148,67.5240874 220.050728,68.8152114 C220.520363,70.0547072 219.940041,71.4344004 218.750552,71.9756284 L218.598725,72.0388441 L176.050432,88.1609105 C174.7593,88.6501364 173.316034,88.0000625 172.826786,86.7089385 Z" id="Path" fill="url(#linearGradient-10)"></path>
                            <path d="M176.591707,117.413763 C176.758952,116.098873 177.919073,115.153121 179.22342,115.233676 L179.387153,115.249138 L224.523918,120.989412 C225.893598,121.163601 226.862734,122.415154 226.688569,123.784837 C226.521324,125.099727 225.361203,126.04548 224.056856,125.964924 L223.893123,125.949462 L178.756358,120.209188 C177.386678,120.034999 176.417541,118.783446 176.591707,117.413763 Z" id="Path" fill="url(#linearGradient-11)"></path>
                            <path d="M165.717348,146.374793 C166.48232,145.292331 167.95065,145.001925 169.064502,145.685405 L169.20181,145.775925 L206.360313,172.034714 C207.487891,172.831539 207.75602,174.391578 206.959213,175.51917 C206.194241,176.601632 204.725912,176.892038 203.61206,176.208558 L203.474751,176.118038 L166.316249,149.859249 C165.18867,149.062423 164.920542,147.502385 165.717348,146.374793 Z" id="Path" fill="url(#linearGradient-12)"></path>
                            <path d="M142.280906,167.216329 C143.453929,166.599138 144.894062,167.006992 145.576218,168.121655 L145.657465,168.264647 L166.844693,208.531005 C167.487621,209.752892 167.018283,211.264624 165.796407,211.907574 C164.623384,212.524765 163.183252,212.116911 162.501096,211.002247 L162.419848,210.859256 L141.232621,170.592897 C140.589692,169.37101 141.05903,167.859279 142.280906,167.216329 Z" id="Path" fill="url(#linearGradient-13)"></path>
                        </g>
                        <g id="Group" fill-rule="nonzero">
                            <path d="M110.915918,204.96317 C112.241392,204.968058 113.32215,206.003572 113.402001,207.307963 L113.406714,207.472357 L113.211739,260.531709 C113.206665,261.912411 112.083272,263.027579 110.702569,263.022522 C109.377095,263.017634 108.296337,261.98212 108.216486,260.677729 L108.211773,260.513335 L108.406748,207.453984 C108.411822,206.073281 109.535215,204.958114 110.915918,204.96317 Z" id="Path-6" fill="url(#linearGradient-15)" transform="translate(110.809244, 233.992846) rotate(11.000000) translate(-110.809244, -233.992846) "></path>
                            <path d="M65.6815762,184.301877 C67.0070472,184.30763 68.087133,185.343845 68.1661383,186.648287 L68.1707453,186.812685 L67.9416776,239.800049 C67.9357088,241.180747 66.8115924,242.295186 65.4308934,242.289241 C64.1054224,242.283488 63.0253366,241.247273 62.9463314,239.942831 L62.9417243,239.778433 L63.170792,186.791069 C63.1767609,185.41037 64.3008772,184.295932 65.6815762,184.301877 Z" id="Path-6" fill="url(#linearGradient-17)" transform="translate(65.556235, 213.295559) rotate(39.000000) translate(-65.556235, -213.295559) "></path>
                            <path d="M35.1162969,144.413015 C36.4417679,144.418769 37.5218537,145.454984 37.6008589,146.759426 L37.605466,146.923823 L37.3763983,199.911187 C37.3704294,201.291886 36.2463131,202.406325 34.8656141,202.40038 C33.5401431,202.394626 32.4600573,201.358411 32.381052,200.053969 L32.376445,199.889572 L32.6055127,146.902208 C32.6114815,145.521509 33.7355979,144.40707 35.1162969,144.413015 Z" id="Path-6" fill="url(#linearGradient-17)" transform="translate(34.990955, 173.406698) rotate(66.000000) translate(-34.990955, -173.406698) "></path>
                            <path d="M26.5893643,94.8887889 C27.9148353,94.8945428 28.9949211,95.9307577 29.0739264,97.2351998 L29.0785334,97.3995969 L28.8494657,150.386961 C28.8434969,151.76766 27.7193805,152.882099 26.3386815,152.876154 C25.0132105,152.8704 23.9331247,151.834185 23.8541195,150.529743 L23.8495124,150.365346 L24.0785801,97.3779818 C24.084549,95.9972829 25.2086654,94.8828439 26.5893643,94.8887889 Z" id="Path-6" fill="url(#linearGradient-17)" transform="translate(26.464023, 123.882471) rotate(94.000000) translate(-26.464023, -123.882471) "></path>
                            <path d="M42.054196,47.0746012 C43.379667,47.0803552 44.4597528,48.11657 44.5387581,49.4210121 L44.5433651,49.5854093 L44.3142974,102.572773 C44.3083286,103.953472 43.1842122,105.067911 41.8035132,105.061966 C40.4780422,105.056212 39.3979564,104.019997 39.3189512,102.715555 L39.3143441,102.551158 L39.5434118,49.5637942 C39.5493807,48.1830952 40.673497,47.0686562 42.054196,47.0746012 Z" id="Path-6" fill="url(#linearGradient-17)" transform="translate(41.928855, 76.068284) rotate(122.000000) translate(-41.928855, -76.068284) "></path>
                            <path d="M77.9679854,11.9241062 C79.2934564,11.9298602 80.3735422,12.9660751 80.4525475,14.2705172 L80.4571545,14.4349143 L80.2280868,67.4222782 C80.222118,68.8029772 79.0980016,69.9174162 77.7173026,69.9114712 C76.3918316,69.9057172 75.3117458,68.8695024 75.2327406,67.5650603 L75.2281335,67.4006631 L75.4572012,14.4132992 C75.4631701,13.0326002 76.5872864,11.9181613 77.9679854,11.9241062 Z" id="Path-6" fill="url(#linearGradient-17)" transform="translate(77.842644, 40.917789) rotate(149.000000) translate(-77.842644, -40.917789) "></path>
                            <path d="M126.103316,-2.5101412 C127.428787,-2.50438724 128.508873,-1.46817238 128.587878,-0.163730277 L128.592485,0.000666863013 L128.363418,52.9880308 C128.357449,54.3687298 127.233332,55.4831687 125.852633,55.4772238 C124.527162,55.4714698 123.447077,54.4352549 123.368071,53.1308128 L123.363464,52.9664157 L123.592532,-0.0209482475 C123.598501,-1.40164722 124.722617,-2.51608618 126.103316,-2.5101412 Z" id="Path-6" fill="url(#linearGradient-17)" transform="translate(125.977975, 26.483541) rotate(177.000000) translate(-125.977975, -26.483541) "></path>
                            <path d="M175.432964,7.07857101 C176.758435,7.08432497 177.838521,8.12053982 177.917526,9.42498193 L177.922133,9.58937907 L177.693065,62.576743 C177.687097,63.957442 176.56298,65.0718809 175.182281,65.065936 C173.85681,65.060182 172.776724,64.0239671 172.697719,62.719525 L172.693112,62.5551279 L172.92218,9.56776396 C172.928149,8.18706499 174.052265,7.07262603 175.432964,7.07857101 Z" id="Path-6" fill="url(#linearGradient-17)" transform="translate(175.307623, 36.072253) rotate(205.000000) translate(-175.307623, -36.072253) "></path>
                            <path d="M214.656101,38.4935845 C215.981572,38.4993384 217.061658,39.5355533 217.140663,40.8399954 L217.14527,41.0043925 L216.916203,93.9917565 C216.910234,95.3724554 215.786117,96.4868944 214.405418,96.4809494 C213.079947,96.4751954 211.999862,95.4389806 211.920856,94.1345385 L211.916249,93.9701413 L212.145317,40.9827774 C212.151286,39.6020784 213.275402,38.4876395 214.656101,38.4935845 Z" id="Path-6" fill="url(#linearGradient-17)" transform="translate(214.530760, 67.487267) rotate(233.000000) translate(-214.530760, -67.487267) "></path>
                            <path d="M234.78718,84.5380982 C236.112651,84.5438521 237.192737,85.580067 237.271742,86.8845091 L237.276349,87.0489062 L237.047281,140.03627 C237.041312,141.416969 235.917196,142.531408 234.536497,142.525463 C233.211026,142.519709 232.13094,141.483494 232.051935,140.179052 L232.047328,140.014655 L232.276396,87.0272911 C232.282364,85.6465921 233.406481,84.5321532 234.78718,84.5380982 Z" id="Path-6" fill="url(#linearGradient-17)" transform="translate(234.661838, 113.531781) rotate(260.000000) translate(-234.661838, -113.531781) "></path>
                            <path d="M231.214412,134.663869 C232.539883,134.669623 233.619969,135.705838 233.698974,137.01028 L233.703581,137.174677 L233.474513,190.162041 C233.468545,191.54274 232.344428,192.657179 230.963729,192.651234 C229.638258,192.64548 228.558172,191.609265 228.479167,190.304823 L228.47456,190.140426 L228.703628,137.153062 C228.709597,135.772363 229.833713,134.657924 231.214412,134.663869 Z" id="Path-6" fill="url(#linearGradient-17)" transform="translate(231.089071, 163.657551) rotate(288.000000) translate(-231.089071, -163.657551) "></path>
                            <path d="M204.756276,177.387687 C206.081747,177.393441 207.161833,178.429656 207.240838,179.734098 L207.245445,179.898495 L207.016378,232.885859 C207.010409,234.266558 205.886292,235.380997 204.505593,235.375052 C203.180122,235.369298 202.100037,234.333083 202.021031,233.028641 L202.016424,232.864244 L202.245492,179.87688 C202.251461,178.496181 203.375577,177.381742 204.756276,177.387687 Z" id="Path-6" fill="url(#linearGradient-17)" transform="translate(204.630935, 206.381369) rotate(316.000000) translate(-204.630935, -206.381369) "></path>
                            <path d="M161.474012,202.92204 C162.799483,202.927794 163.879569,203.964009 163.958574,205.268451 L163.963181,205.432848 L163.734114,258.420212 C163.728145,259.800911 162.604028,260.91535 161.223329,260.909405 C159.897858,260.903651 158.817773,259.867436 158.738767,258.562994 L158.73416,258.398597 L158.963228,205.411233 C158.969197,204.030534 160.093313,202.916095 161.474012,202.92204 Z" id="Path-6" fill="url(#linearGradient-17)" transform="translate(161.348671, 231.915722) rotate(343.000000) translate(-161.348671, -231.915722) "></path>
                        </g>
                        <g id="Oval-4" filter="url(#filter-18)" transform="translate(48.173998, 49.810957)">
                            <mask id="mask-20" fill="white">
                                <use xlink:href="#path-19"></use>
                            </mask>
                            <use id="Oval" fill="#FEFF00" xlink:href="#path-19"></use>
                            <circle id="Oval" fill="#FFF109" mask="url(#mask-20)" cx="94" cy="109" r="82"></circle>
                            <circle id="Oval-Copy-6" fill="#FFDC09" mask="url(#mask-20)" cx="112" cy="141" r="82"></circle>
                            <circle id="Oval-Copy-7" fill="#FFC109" mask="url(#mask-20)" cx="133" cy="185" r="82"></circle>
                        </g>
                    </g>
                </g>
            </g>
        </g>
    </g>
</svg>