<svg width="412" height="300" viewBox="0 0 412.0 300.0" xmlns="http://www.w3.org/2000/svg"><defs><clipPath id="a"><path d="M1880 0v960H0V0h1880Z"/></clipPath><clipPath id="b"><path d="M412 0v300H0V0h412Z"/></clipPath><clipPath id="c"><path d="M2.74792748 0c1.32546608.00680993 2.40473343 1.0438772 2.4827088 2.34838127l.00447724.16440073-.23517887 46C4.99287574 49.8934758 3.86787986 51.0070269 2.48718603 51 1.16171996 50.9931915.0824526 49.9561242.00447723 48.6516201L0 48.4872194.23517886 2.48721941C.24223778 1.10652558 1.36723365-.00702554 2.74792748 0Z"/></clipPath><clipPath id="e"><path d="M25.2182858.29819817c1.1676201.6273514 1.6348058 2.04934436 1.0921648 3.2381891l-.073112.14731693L4.70276158 43.7653739c-.65346908 1.2162826-2.16920233 1.6725332-3.38549616 1.0190851C.1496453 44.1571077-.31754044 42.7351147.22510054 41.5462699l.07311201-.1473169L21.8327896 1.31728331C22.4862587.10100068 24.0019919-.35524984 25.2182858.29819817Z"/></clipPath><clipPath id="g"><path d="M41.9384535 1.07513626c.7555455 1.08906262.5262398 2.56816553-.4969811 3.3810801l-.1320238.09806818L3.92530274 30.4908204c-1.13442597.787047-2.69208759.5054407-3.47915414-.6289716-.75554558-1.0890627-.52623981-2.5681656.49698105-3.3810801l.13202377-.0980682L38.4592993.44616467c1.134426-.787047 2.6920876-.5054407 3.4791542.62897159Z"/></clipPath><clipPath id="i"><path d="M50.1676521 2.20629641c.1558233 1.31629238-.7410385 2.5146102-2.0261291 2.75199806l-.1626103.02460766L2.79420504 10.3327106c-1.37113487.1623405-2.6142623-.81758092-2.7766265-2.18871288-.15582321-1.31629239.7410385-2.5146102 2.02612918-2.75199806l.16261029-.02460767L47.3910256.01758353c1.3711349-.16234052 2.6142623.81758092 2.7766265 2.18871288Z"/></clipPath><clipPath id="k"><path d="m3.25155406.11600194.15512896.05461363L45.8139948 16.6599504c1.2868545.5003706 1.9244256 1.9492029 1.4240772 3.2360659-.4803781 1.2353718-1.8348361 1.8723725-3.0809507 1.4786601l-.155129-.0546137L1.59468057 4.83072792C.30782608 4.33035726-.32974503 2.88152502.17060334 1.59466197.65098146.35929021 2.0054395-.27771054 3.25155406.11600194Z"/></clipPath><clipPath id="m"><path d="M4.25167605.71615992 4.3651029.8352481 34.664293 34.7798697c.9194322 1.0300532.8297562 2.6104234-.2002811 3.5298734-.9888671.8826372-2.4848903.8352979-3.4164448-.0812267l-.1134268-.1190881L.63495016 4.16480671c-.91943222-1.03005323-.82975617-2.61042345.2002811-3.5298734.98886707-.8826372 2.4848903-.83529796 3.41644479.08122661Z"/></clipPath><clipPath id="o"><path d="m4.8846716 1.7478839.04424145.1583993 10.81656245 44.19593c.3282298 1.3411303-.4928884 2.6944141-1.8340129 3.022667-1.2874909.3150774-2.5861765-.429061-2.9784081-1.6756425l-.0442415-.1583993L.07225058 3.09490833C-.25597918 1.75377802.56513894.4004943 1.90626348.07224138 3.19375435-.24283604 4.49244003.5013024 4.8846716 1.7478839Z"/></clipPath><clipPath id="q"><path d="M14.3141642.07748702c1.2847068.3262435 2.0820264 1.59297474 1.8431117 2.87778245l-.035301.16062838L4.9237003 47.2166564c-.33981286 1.3382423-1.70014536 2.1476293-3.03839345 1.8078396C.6006 48.6982525-.19671955 47.4315212.04219509 46.1467135l.03530108-.1606284L11.2757707 1.88532662c.3398129-1.33824231 1.7001454-2.1476293 3.0383935-1.8078396Z"/></clipPath><clipPath id="s"><path d="M34.7724194.64938986c.9811668.89118925 1.0904639 2.38396541.2763341 3.40621965l-.1065795.12525359L4.35063243 37.8622502c-.92830366 1.0220654-2.50939014 1.0980742-3.53147147.1697883-.98116678-.8911892-1.09046386-2.3839654-.27633407-3.4062196l.10657947-.1252536L31.2409479.81917817c.9283037-1.02206536 2.5093902-1.09807423 3.5314715-.1697883Z"/></clipPath><clipPath id="u"><path d="M47.3868037 1.61484597c.4696345 1.23949583-.1106872 2.61918897-1.3001759 3.16041697l-.151827.0632157L3.38650795 20.960545c-1.29113258.4892259-2.73439826-.1608479-3.2236464-1.451972-.46963455-1.2394958.11068723-2.6191889 1.3001759-3.1604169l.15182694-.0632157L44.1631573.16287396c1.2911326-.48922586 2.7343982.16084798 3.2236464 1.45197201Z"/></clipPath><clipPath id="w"><path d="m2.65195281.00478259.16373321.01546228L47.9524505 5.7605187c1.3696801.17418924 2.3388168 1.42574256 2.1646513 2.7954255-.1672454 1.31488992-1.3273658 2.2606421-2.6317131 2.1800869l-.1637332-.0154622L2.184891 4.98029503C.81521096 4.8061058-.15392581 3.55455247.02023974 2.18486953.18748509.86997961 1.3476055-.07577255 2.6519528.00478259Z"/></clipPath><clipPath id="y"><path d="m3.80568144.36802316.13730873.09052046L41.1014924 26.717332c1.1275788.7968258 1.3957071 2.3568639.5989009 3.4844564-.7649723 1.0824619-2.2333016 1.372868-3.3471536.6893881l-.1373087-.0905205L1.05742873 4.54186766C-.07015007 3.74504187-.33827835 2.18500371.45852789 1.05741123 1.22350019-.02505073 2.69182947-.31545678 3.80568144.36802316Z"/></clipPath><clipPath id="A"><path d="m4.63168041 1.19339555.08124755.14299119L25.9001555 41.6027455c.6429287 1.221887.1735902 2.7336189-1.0482856 3.3765687-1.1730228.6171905-2.6131553.2093366-3.2953113-.9053267l-.0812475-.1429912L.28808357 3.66463761C-.35484516 2.44275057.11449329.93101871 1.33636913.28806891c1.17302276-.6171905 2.61315531-.20933666 3.29531128.90532664Z"/></clipPath><clipPath id="C"><path d="M2.70414533 0C4.02961978.00488792 5.1103772 1.04040225 5.19022822 2.34479286l.00471362.16439412-.1949756 53.05935162c-.00507362 1.3807026-1.12846718 2.4958702-2.50916973 2.4908138-1.32547445-.0048879-2.40623187-1.0404023-2.48608289-2.3447929L0 55.5501654.1949756 2.49081375C.20004921 1.1101112 1.32344277-.00505638 2.70414532 0Z"/></clipPath><clipPath id="E"><path d="M2.73985188 0c1.32547101.00575396 2.4055568 1.04196881 2.48456205 2.34641092l.00460703.16439714L4.99995328 55.498172c-.00596885 1.380699-1.13008522 2.4951379-2.5107842 2.4891929C1.16369807 57.981611.08361228 56.9453961.00460703 55.640954L0 55.4765569.22906769 2.48919295C.23503653 1.10849398 1.3591529-.00594498 2.73985188 0Z"/></clipPath><clipPath id="G"><path d="M2.73985188 0c1.32547101.00575396 2.4055568 1.04196881 2.48456205 2.34641092l.00460703.16439714L4.99995328 55.498172c-.00596885 1.380699-1.13008522 2.4951379-2.5107842 2.4891929C1.16369807 57.981611.08361228 56.9453961.00460703 55.640954L0 55.4765569.22906769 2.48919295C.23503653 1.10849398 1.3591529-.00594498 2.73985188 0Z"/></clipPath><clipPath id="I"><path d="M2.73985188 0c1.32547101.00575396 2.4055568 1.04196881 2.48456205 2.34641092l.00460703.16439714L4.99995328 55.498172c-.00596885 1.380699-1.13008522 2.4951379-2.5107842 2.4891929C1.16369807 57.981611.08361228 56.9453961.00460703 55.640954L0 55.4765569.22906769 2.48919295C.23503653 1.10849398 1.3591529-.00594498 2.73985188 0Z"/></clipPath><clipPath id="K"><path d="M2.73985188 0c1.32547101.00575396 2.4055568 1.04196881 2.48456205 2.34641092l.00460703.16439714L4.99995328 55.498172c-.00596885 1.380699-1.13008522 2.4951379-2.5107842 2.4891929C1.16369807 57.981611.08361228 56.9453961.00460703 55.640954L0 55.4765569.22906769 2.48919295C.23503653 1.10849398 1.3591529-.00594498 2.73985188 0Z"/></clipPath><clipPath id="M"><path d="M2.73985188 0c1.32547101.00575396 2.4055568 1.04196881 2.48456205 2.34641092l.00460703.16439714L4.99995328 55.498172c-.00596885 1.380699-1.13008522 2.4951379-2.5107842 2.4891929C1.16369807 57.981611.08361228 56.9453961.00460703 55.640954L0 55.4765569.22906769 2.48919295C.23503653 1.10849398 1.3591529-.00594498 2.73985188 0Z"/></clipPath><clipPath id="O"><path d="M2.73985188 0c1.32547101.00575396 2.4055568 1.04196881 2.48456205 2.34641092l.00460703.16439714L4.99995328 55.498172c-.00596885 1.380699-1.13008522 2.4951379-2.5107842 2.4891929C1.16369807 57.981611.08361228 56.9453961.00460703 55.640954L0 55.4765569.22906769 2.48919295C.23503653 1.10849398 1.3591529-.00594498 2.73985188 0Z"/></clipPath><clipPath id="Q"><path d="M2.73985188 0c1.32547101.00575396 2.4055568 1.04196881 2.48456205 2.34641092l.00460703.16439714L4.99995328 55.498172c-.00596885 1.380699-1.13008522 2.4951379-2.5107842 2.4891929C1.16369807 57.981611.08361228 56.9453961.00460703 55.640954L0 55.4765569.22906769 2.48919295C.23503653 1.10849398 1.3591529-.00594498 2.73985188 0Z"/></clipPath><clipPath id="S"><path d="M2.73985188 0c1.32547101.00575396 2.4055568 1.04196881 2.48456205 2.34641092l.00460703.16439714L4.99995328 55.498172c-.00596885 1.380699-1.13008522 2.4951379-2.5107842 2.4891929C1.16369807 57.981611.08361228 56.9453961.00460703 55.640954L0 55.4765569.22906769 2.48919295C.23503653 1.10849398 1.3591529-.00594498 2.73985188 0Z"/></clipPath><clipPath id="U"><path d="M2.73985188 0c1.32547101.00575396 2.4055568 1.04196881 2.48456205 2.34641092l.00460703.16439714L4.99995328 55.498172c-.00596885 1.380699-1.13008522 2.4951379-2.5107842 2.4891929C1.16369807 57.981611.08361228 56.9453961.00460703 55.640954L0 55.4765569.22906769 2.48919295C.23503653 1.10849398 1.3591529-.00594498 2.73985188 0Z"/></clipPath><clipPath id="W"><path d="M2.73985188 0c1.32547101.00575396 2.4055568 1.04196881 2.48456205 2.34641092l.00460703.16439714L4.99995328 55.498172c-.00596885 1.380699-1.13008522 2.4951379-2.5107842 2.4891929C1.16369807 57.981611.08361228 56.9453961.00460703 55.640954L0 55.4765569.22906769 2.48919295C.23503653 1.10849398 1.3591529-.00594498 2.73985188 0Z"/></clipPath><clipPath id="Y"><path d="M2.73985188 0c1.32547101.00575396 2.4055568 1.04196881 2.48456205 2.34641092l.00460703.16439714L4.99995328 55.498172c-.00596885 1.380699-1.13008522 2.4951379-2.5107842 2.4891929C1.16369807 57.981611.08361228 56.9453961.00460703 55.640954L0 55.4765569.22906769 2.48919295C.23503653 1.10849398 1.3591529-.00594498 2.73985188 0Z"/></clipPath><clipPath id="aa"><path d="M2.73985188 0c1.32547101.00575396 2.4055568 1.04196881 2.48456205 2.34641092l.00460703.16439714L4.99995328 55.498172c-.00596885 1.380699-1.13008522 2.4951379-2.5107842 2.4891929C1.16369807 57.981611.08361228 56.9453961.00460703 55.640954L0 55.4765569.22906769 2.48919295C.23503653 1.10849398 1.3591529-.00594498 2.73985188 0Z"/></clipPath><clipPath id="ac"><path d="M82 0c45.287349 0 82 36.7126505 82 82 0 45.287349-36.712651 82-82 82-45.2873495 0-82-36.712651-82-82C0 36.7126505 36.7126505 0 82 0Z"/></clipPath><linearGradient id="d" x1="2.61755676" y1="0" x2="2.61755676" y2="51.0000014" gradientUnits="userSpaceOnUse"><stop stop-color="rgba(255, 225, 21, 0)" offset="0%"/><stop stop-color="#FFC109" offset="100%"/></linearGradient><linearGradient id="f" x1="13.2677756" y1="0" x2="13.2677756" y2="45.0826572" gradientUnits="userSpaceOnUse"><stop stop-color="rgba(255, 225, 21, 0)" offset="0%"/><stop stop-color="#FFC109" offset="100%"/></linearGradient><linearGradient id="h" x1="21.192301" y1="0" x2="21.192301" y2="30.936985" gradientUnits="userSpaceOnUse"><stop stop-color="rgba(255, 225, 21, 0)" offset="0%"/><stop stop-color="#FFC109" offset="100%"/></linearGradient><linearGradient id="j" x1="25.0926153" y1="0" x2="25.0926153" y2="10.3502941" gradientUnits="userSpaceOnUse"><stop stop-color="rgba(255, 225, 21, 0)" offset="0%"/><stop stop-color="#FFC109" offset="100%"/></linearGradient><linearGradient id="l" x1="23.7043377" y1="0" x2="23.7043377" y2="21.4906783" gradientUnits="userSpaceOnUse"><stop stop-color="rgba(255, 225, 21, 0)" offset="0%"/><stop stop-color="#FFC109" offset="100%"/></linearGradient><linearGradient id="n" x1="17.6496216" y1="0" x2="17.6496216" y2="38.9446764" gradientUnits="userSpaceOnUse"><stop stop-color="rgba(255, 225, 21, 0)" offset="0%"/><stop stop-color="#FFC109" offset="100%"/></linearGradient><linearGradient id="p" x1="7.90886304" y1="0" x2="7.90886304" y2="49.1971216" gradientUnits="userSpaceOnUse"><stop stop-color="rgba(255, 225, 21, 0)" offset="0%"/><stop stop-color="#FFC109" offset="100%"/></linearGradient><linearGradient id="r" x1="8.09973552" y1="0" x2="8.09973552" y2="49.101983" gradientUnits="userSpaceOnUse"><stop stop-color="rgba(255, 225, 21, 0)" offset="0%"/><stop stop-color="#FFC109" offset="100%"/></linearGradient><linearGradient id="t" x1="17.7957902" y1="0" x2="17.7957902" y2="38.6814284" gradientUnits="userSpaceOnUse"><stop stop-color="rgba(255, 225, 21, 0)" offset="0%"/><stop stop-color="#FFC109" offset="100%"/></linearGradient><linearGradient id="v" x1="23.7748326" y1="0" x2="23.7748326" y2="21.123419" gradientUnits="userSpaceOnUse"><stop stop-color="rgba(255, 225, 21, 0)" offset="0%"/><stop stop-color="#FFC109" offset="100%"/></linearGradient><linearGradient id="x" x1="25.0686708" y1="0" x2="25.0686708" y2="10.7408137" gradientUnits="userSpaceOnUse"><stop stop-color="rgba(255, 225, 21, 0)" offset="0%"/><stop stop-color="#FFC109" offset="100%"/></linearGradient><linearGradient id="z" x1="21.0794606" y1="0" x2="21.0794606" y2="31.2591996" gradientUnits="userSpaceOnUse"><stop stop-color="rgba(255, 225, 21, 0)" offset="0%"/><stop stop-color="#FFC109" offset="100%"/></linearGradient><linearGradient id="B" x1="13.0941195" y1="0" x2="13.0941195" y2="45.2673831" gradientUnits="userSpaceOnUse"><stop stop-color="rgba(255, 225, 21, 0)" offset="0%"/><stop stop-color="#FFC109" offset="100%"/></linearGradient><linearGradient id="D" x1="2.59747092" y1="0" x2="2.59747092" y2="58.0593524" gradientUnits="userSpaceOnUse"><stop stop-color="rgba(215, 215, 215, 0)" offset="0%"/><stop stop-color="#D7D7D7" offset="100%"/></linearGradient><linearGradient id="F" x1="2.61451048" y1="0" x2="2.61451048" y2="57.9873649" gradientUnits="userSpaceOnUse"><stop stop-color="rgba(215, 215, 215, 0)" offset="0%"/><stop stop-color="#D7D7D7" offset="100%"/></linearGradient><linearGradient id="H" x1="2.61451048" y1="0" x2="2.61451048" y2="57.9873649" gradientUnits="userSpaceOnUse"><stop stop-color="rgba(215, 215, 215, 0)" offset="0%"/><stop stop-color="#D7D7D7" offset="100%"/></linearGradient><linearGradient id="J" x1="2.61451048" y1="0" x2="2.61451048" y2="57.9873649" gradientUnits="userSpaceOnUse"><stop stop-color="rgba(215, 215, 215, 0)" offset="0%"/><stop stop-color="#D7D7D7" offset="100%"/></linearGradient><linearGradient id="L" x1="2.61451048" y1="0" x2="2.61451048" y2="57.9873649" gradientUnits="userSpaceOnUse"><stop stop-color="rgba(215, 215, 215, 0)" offset="0%"/><stop stop-color="#D7D7D7" offset="100%"/></linearGradient><linearGradient id="N" x1="2.61451048" y1="0" x2="2.61451048" y2="57.9873649" gradientUnits="userSpaceOnUse"><stop stop-color="rgba(215, 215, 215, 0)" offset="0%"/><stop stop-color="#D7D7D7" offset="100%"/></linearGradient><linearGradient id="P" x1="2.61451048" y1="0" x2="2.61451048" y2="57.9873649" gradientUnits="userSpaceOnUse"><stop stop-color="rgba(215, 215, 215, 0)" offset="0%"/><stop stop-color="#D7D7D7" offset="100%"/></linearGradient><linearGradient id="R" x1="2.61451048" y1="0" x2="2.61451048" y2="57.9873649" gradientUnits="userSpaceOnUse"><stop stop-color="rgba(215, 215, 215, 0)" offset="0%"/><stop stop-color="#D7D7D7" offset="100%"/></linearGradient><linearGradient id="T" x1="2.61451048" y1="0" x2="2.61451048" y2="57.9873649" gradientUnits="userSpaceOnUse"><stop stop-color="rgba(215, 215, 215, 0)" offset="0%"/><stop stop-color="#D7D7D7" offset="100%"/></linearGradient><linearGradient id="V" x1="2.61451048" y1="0" x2="2.61451048" y2="57.9873649" gradientUnits="userSpaceOnUse"><stop stop-color="rgba(215, 215, 215, 0)" offset="0%"/><stop stop-color="#D7D7D7" offset="100%"/></linearGradient><linearGradient id="X" x1="2.61451048" y1="0" x2="2.61451048" y2="57.9873649" gradientUnits="userSpaceOnUse"><stop stop-color="rgba(215, 215, 215, 0)" offset="0%"/><stop stop-color="#D7D7D7" offset="100%"/></linearGradient><linearGradient id="Z" x1="2.61451048" y1="0" x2="2.61451048" y2="57.9873649" gradientUnits="userSpaceOnUse"><stop stop-color="rgba(215, 215, 215, 0)" offset="0%"/><stop stop-color="#D7D7D7" offset="100%"/></linearGradient><linearGradient id="ab" x1="2.61451048" y1="0" x2="2.61451048" y2="57.9873649" gradientUnits="userSpaceOnUse"><stop stop-color="rgba(215, 215, 215, 0)" offset="0%"/><stop stop-color="#D7D7D7" offset="100%"/></linearGradient></defs><g clip-path="url(#a)" transform="translate(-734 -409)"><g clip-path="url(#b)" transform="translate(734 409)"><g clip-path="url(#c)" transform="translate(204.05644093 215.31095602)"><path fill="url(#d)" d="M0-.00003306h5.23511352V51.0000331H0V-.00003306z"/></g><g clip-path="url(#e)" transform="translate(151.72669992 208.82812853)"><path fill="url(#f)" d="M0 0h26.5355512v45.0826572H0V0z"/></g><g clip-path="url(#g)" transform="translate(111.50255041 187.28599467)"><path fill="url(#h)" d="M0 0h42.3846021v30.936985H0V0z"/></g><g clip-path="url(#i)" transform="translate(92.30037895 157.2316588)"><path fill="url(#j)" d="M0 0h50.1852307v10.3502941H0V0z"/></g><g clip-path="url(#k)" transform="translate(98.89003744 108.82424158)"><path fill="url(#l)" d="M0 0h47.4086754v21.4906783H0V0z"/></g><g clip-path="url(#m)" transform="translate(129.45779868 64.58396562)"><path fill="url(#n)" d="M0 0h35.2992432v38.9446764H0V0z"/></g><g clip-path="url(#o)" transform="translate(177.40762346 39.40407808)"><path fill="url(#p)" d="M0 0h15.8177261v49.1971216H0V0z"/></g><g clip-path="url(#q)" transform="translate(220.3686017 39.45164736)"><path fill="url(#r)" d="M0 0h16.199471v49.101983H0V0z"/></g><g clip-path="url(#s)" transform="translate(248.88161327 64.7155896)"><path fill="url(#t)" d="M0 0h35.5915804v38.6814284H0V0z"/></g><g clip-path="url(#u)" transform="translate(267.41561599 109.00787122)"><path fill="url(#v)" d="M0 0h47.5496652v21.123419H0V0z"/></g><g clip-path="url(#w)" transform="translate(271.32315868 157.036399)"><path fill="url(#x)" d="M0 0h50.1373415v10.7408137H0V0z"/></g><g clip-path="url(#y)" transform="translate(260.01051171 187.12488737)"><path fill="url(#z)" d="M0 0h42.1589211v31.2591996H0V0z"/></g><g clip-path="url(#A)" transform="translate(235.69622871 208.7357656)"><path fill="url(#B)" d="M0 0h26.188239v45.2673831H0V0z"/></g><g clip-path="url(#C)" transform="rotate(11 -1073.46256683 1098.0674641)"><path fill="url(#D)" d="M0-.00001713h5.19494184V58.0593695H0V-.00001713z"/></g><g clip-path="url(#E)" transform="rotate(39 -216.37997817 327.32428357)"><path fill="url(#F)" d="M0-.00002367h5.22902096V57.9873886H0V-.00002367z"/></g><g><g clip-path="url(#G)" transform="rotate(66 -69.7841878 194.64273532)"><path fill="url(#H)" d="M0-.00002367h5.22902096V57.9873886H0V-.00002367z"/></g></g><g><g clip-path="url(#I)" transform="rotate(94 -1.02849773 132.99366527)"><path fill="url(#J)" d="M0-.00002367h5.22902096V57.9873886H0V-.00002367z"/></g></g><g><g clip-path="url(#K)" transform="rotate(122 41.68165327 94.49087544)"><path fill="url(#L)" d="M0-.00002367h5.22902096V57.9873886H0V-.00002367z"/></g></g><g><g clip-path="url(#M)" transform="rotate(149 73.80190814 65.92537219)"><path fill="url(#N)" d="M0-.00002367h5.22902096V57.9873886H0V-.00002367z"/></g></g><g><g clip-path="url(#O)" transform="rotate(177 102.06724857 40.3488699)"><path fill="url(#P)" d="M0-.00002367h5.22902096V57.9873886H0V-.00002367z"/></g></g><g><g clip-path="url(#Q)" transform="rotate(-155 129.96265388 14.96600018)"><path fill="url(#R)" d="M0-.00002367h5.22902096V57.9873886H0V-.00002367z"/></g></g><g><g clip-path="url(#S)" transform="rotate(-127 161.15454786 -13.5343986)"><path fill="url(#T)" d="M0-.00002367h5.22902096V57.9873886H0V-.00002367z"/></g></g><g><g clip-path="url(#U)" transform="rotate(-100 200.49711421 -47.97846804)"><path fill="url(#V)" d="M0-.00002367h5.22902096V57.9873886H0V-.00002367z"/></g></g><g><g clip-path="url(#W)" transform="rotate(-72 261.29006702 -103.21102298)"><path fill="url(#X)" d="M0-.00002367h5.22902096V57.9873886H0V-.00002367z"/></g></g><g><g clip-path="url(#Y)" transform="rotate(-44 385.89855685 -216.36987253)"><path fill="url(#Z)" d="M0-.00002367h5.22902096V57.9873886H0V-.00002367z"/></g></g><g><g clip-path="url(#aa)" transform="rotate(-17 865.78468935 -644.8667681)"><path fill="url(#ab)" d="M0-.00002367h5.22902096V57.9873886H0V-.00002367z"/></g></g><g><g clip-path="url(#ac)" transform="translate(124.17399769 69.81095672)"><path fill="#FDFF00" d="M0 0h164v164H0V0z"/><g clip-path="url(#ac)" transform="translate(12 27)"><path fill="#FFF109" d="M0 0h152v137H0V0z"/></g><g clip-path="url(#ac)" transform="translate(30 59)"><path fill="#FFDC09" d="M0 0h134v105H0V0z"/></g><g clip-path="url(#ac)" transform="translate(51 103)"><path fill="#FFC009" d="M0 0h113v61H0V0z"/></g></g></g></g></g></svg>
