<?xml version="1.0" encoding="UTF-8"?>
<svg width="24px" height="24px" viewBox="0 0 24 24" version="1.1" xmlns="http://www.w3.org/2000/svg" xmlns:xlink="http://www.w3.org/1999/xlink">
    <title>Icon/Timer</title>
    <g id="Icon/Timer" stroke="none" stroke-width="1" fill="none" fill-rule="evenodd">
        <path d="M11.9629,2.753 C13.6333751,2.753 15.2778494,3.21039992 16.7186293,4.07569001 C19.4859873,5.73795519 21.2049,8.77836394 21.2049,12.011 C21.2049,13.6828592 20.7478193,15.3273992 19.8831748,16.7677878 C18.3297649,19.352324 15.571109,21.027356 12.5665678,21.2327775 L12.2549154,21.2487626 L11.9469,21.254 C10.2760439,21.254 8.63059346,20.796402 7.19127606,19.9313732 C6.71750296,19.6471094 6.56341678,19.0320039 6.84820905,18.5609071 C7.0123132,18.2858593 7.29291422,18.1114307 7.61251887,18.0796439 L7.73404755,18.0744922 L7.84689724,18.0837964 C7.97844657,18.102717 8.10548526,18.147953 8.22055093,18.217643 C9.35013338,18.8955859 10.6387353,19.254 11.9469,19.254 C14.5208192,19.254 16.8446509,17.9402899 18.168543,15.7373491 C18.8464859,14.6077666 19.2049,13.3191647 19.2049,12.011 C19.2049,9.43771224 17.8908744,7.11305948 15.6882491,5.78935704 C14.6528968,5.1679684 13.4838482,4.81496448 12.2910852,4.76043696 L11.9652808,4.75298866 L11.8661697,4.75386319 C11.3076134,4.77234968 10.8547487,4.33551191 10.8399729,3.77803689 C10.8275917,3.26545557 11.2036572,2.83340093 11.702861,2.76356431 L11.820127,2.75400629 L11.9629,2.753 Z M4.65645708,15.967716 C5.10038063,15.6448625 5.72813498,15.7529526 6.04774197,16.2057292 C6.36534815,16.6556713 6.2627347,17.2791506 5.80762135,17.6108774 C5.62620664,17.7262053 5.4304931,17.7889 5.2335,17.7889 C4.91037093,17.7889 4.59726555,17.6312422 4.41925803,17.3640708 C4.09947311,16.9110422 4.20668751,16.2838379 4.65645708,15.967716 Z M12,7 C12.4632165,7 12.8585813,7.31665618 12.9706099,7.76635771 L12.9925896,7.88144862 L13,8 L13,13 C13,13.168957 12.9572154,13.3342043 12.8705781,13.4887468 L12.7973609,13.6025371 L12.7071068,13.7071068 L10.7071068,15.7071068 C10.3165825,16.0976311 9.68341751,16.0976311 9.29289322,15.7071068 C8.97054389,15.3847575 8.91127543,14.8916043 9.13867102,14.4957638 L9.20781309,14.3904215 L9.29282674,14.2929597 L11,12.584 L11,8 C11,7.57538483 11.2660792,7.20778404 11.6568104,7.06317537 L11.7663577,7.02939007 L11.8814486,7.00741044 L12,7 Z M3.71721088,13.1188487 C4.2114281,12.9829389 4.71088834,13.245703 4.89728194,13.7125072 L4.93459357,13.8237646 L4.95885207,13.9402791 C5.03395393,14.4442483 4.72395007,14.9274779 4.22898766,15.0511703 L4.15594532,15.067118 L4.04740344,15.0778089 L3.9635,15.0789 C3.51407679,15.0789 3.11933762,14.7778146 3.00092883,14.3303916 C2.86743686,13.7950888 3.18933751,13.2507465 3.71721088,13.1188487 Z M3.85777499,10.1110813 L3.97389856,10.1316949 C4.46573802,10.2483548 4.8035736,10.7124641 4.74212636,11.2160712 C4.69286097,11.6840924 4.32515346,12.0496801 3.86919497,12.103155 L3.7535,12.1099 L3.68862407,12.1074093 L3.64590543,12.1001916 C3.10219803,12.0453502 2.70123526,11.5534474 2.75532969,10.999709 C2.81695751,10.4931283 3.24450736,10.1152521 3.74188961,10.1064513 L3.85777499,10.1110813 Z M3.71110825,7.79469883 C3.94617197,7.33694316 4.48075373,7.13436815 4.95021059,7.30917059 L5.05722475,7.35626424 L5.15848867,7.41603518 C5.57714222,7.69652897 5.73063351,8.24697024 5.4971068,8.7017034 C5.32789876,9.04011948 4.97576717,9.2499 4.6035,9.2499 C4.45855006,9.2499 4.30408637,9.21296303 4.14929883,9.14229175 C3.66018432,8.89112485 3.46836884,8.29486439 3.71110825,7.79469883 Z M5.74625882,5.14307646 C6.15998877,4.77071951 6.80015857,4.80023383 7.1620204,5.21570481 C7.53184611,5.62509394 7.50315009,6.25189694 7.09361277,6.62309837 C6.91136894,6.7923248 6.67316438,6.8799 6.4235,6.8799 C6.1351484,6.8799 5.86949028,6.76454845 5.68045332,6.55017599 C5.30710326,6.14882467 5.34052747,5.50958654 5.74625882,5.14307646 Z M8.59375523,3.3765636 C9.07217555,3.19255578 9.60259882,3.40201612 9.83728781,3.84164423 L9.88603881,3.94710837 L9.92191626,4.0590629 C10.0482007,4.54652739 9.79919236,5.05535559 9.33503462,5.23835289 C9.21805847,5.29034229 9.10071219,5.3099 8.9635,5.3099 C8.55393224,5.3099 8.1748042,5.06097755 8.03212269,4.68458125 C7.86641223,4.27962632 7.98904884,3.8357464 8.29843504,3.56507546 L8.38736691,3.49570993 L8.433,3.467 L8.4335,3.43820023 L8.59375523,3.3765636 Z" id="Combined-Shape" fill="#FFFFFF" fill-rule="nonzero"></path>
    </g>
</svg>