<?xml version="1.0" encoding="UTF-8"?>
<svg width="24px" height="24px" viewBox="0 0 24 24" version="1.1" xmlns="http://www.w3.org/2000/svg" xmlns:xlink="http://www.w3.org/1999/xlink">
    <title>Icon/User</title>
    <g id="💎-Icons" stroke="none" stroke-width="1" fill="none" fill-rule="evenodd">
        <g id="Icon/User" fill="#FFFFFF">
            <path d="M12,17.25 C12.6903559,17.25 13.25,17.8096441 13.25,18.5 C13.25,19.1903559 12.6903559,19.75 12,19.75 C11.3096441,19.75 10.75,19.1903559 10.75,18.5 C10.75,17.8096441 11.3096441,17.25 12,17.25 Z M12.0016031,12.6300001 C12.6736426,12.6301893 13.3452444,12.7268949 14.019001,12.9208993 L14.3560708,13.0260134 L14.7028493,13.1519763 L14.9353428,13.2622575 C16.7385272,14.1625151 17.9576081,15.829095 18.2048658,17.730703 L18.2315737,17.980028 L18.246792,18.231584 L18.2511237,18.4736828 L18.250102,18.8447413 L18.2398558,18.9674901 C18.1882185,19.2983581 17.9601689,19.5716083 17.6376414,19.6878821 L17.5124249,19.7239325 L17.3198295,19.7350956 L15.7733856,19.3928787 L16.0381909,17.7993525 L16.0589081,17.644387 C16.1763456,16.468986 15.3594572,15.397809 14.1879521,15.2034623 L14.0666819,15.186661 L13.949818,15.1767857 L13.8197214,15.1731259 L10.1893935,15.1729951 L10.0331269,15.1779186 C8.96223496,15.2474263 8.09527234,16.066704 7.95242781,17.1088984 L7.93649703,17.2668336 L7.93121595,17.4162663 L7.93422787,17.5397099 L7.94400135,17.6627512 L7.96174353,17.7919407 L8.22724703,19.392873 L7.99588117,19.4440914 L6.61473417,19.7394145 L6.52679414,19.7324483 C6.19723895,19.6810159 5.9237398,19.4541538 5.80641145,19.1346486 L5.76992937,19.0106532 L5.75250771,18.8789347 L5.74999585,18.7743105 L5.75090535,18.4391565 L5.75615936,18.2011062 C5.85125667,16.024858 7.21637698,14.0878109 9.31789904,13.1429557 C10.0991178,12.8437555 10.882004,12.6752321 11.6656905,12.6379442 L12.0016031,12.6300001 Z M12,4.25 C13.9329966,4.25 15.5,5.81700338 15.5,7.75 C15.5,8.81381591 15.0217921,9.79790207 14.2145969,10.4591181 L14.0488156,10.5869844 L13.8695072,10.7082805 L13.6677011,10.8278441 C13.1599358,11.103512 12.590275,11.25 12,11.25 C11.3263768,11.25 10.6805345,11.0591309 10.1232768,10.7047909 C9.12036814,10.0665618 8.5,8.96122016 8.5,7.75 C8.5,5.81700338 10.0670034,4.25 12,4.25 Z" id="Combined-Shape"></path>
        </g>
    </g>
</svg>