<svg viewBox="0 0 24 24" fill="none" xmlns="http://www.w3.org/2000/svg">
<path fill-rule="evenodd" clip-rule="evenodd" d="M12 10.0003C16.9706 10.0003 21 11.2619 21 12.8177L20.9922 12.9104H21L20.9883 12.9573V12.9622C20.9802 13.0117 20.9673 13.0609 20.9512 13.1096L19.4277 19.4817C19.1678 20.5674 18.2509 21.4079 17.0889 21.6262L15.1963 21.9817C14.5778 22.0978 14.0005 21.6539 14 21.0618V18.9202C13.9998 18.6611 13.776 18.4505 13.5 18.4505H10.5C10.224 18.4505 10.0002 18.6611 10 18.9202V21.0618C9.9995 21.6539 9.42221 22.0978 8.80371 21.9817L6.91113 21.6262C5.74906 21.4079 4.83222 20.5674 4.57227 19.4817L3.04004 13.0794C3.01458 12.9932 3.00008 12.9059 3 12.8177C3 11.2619 7.02944 10.0003 12 10.0003ZM12 11.0003C11.2368 11.0003 10.5006 11.0341 9.80273 11.0911L11.3066 14.6233C11.535 14.629 11.7662 14.6341 12 14.6341C12.2334 14.6341 12.4643 14.6289 12.6924 14.6233L14.1963 11.0911C13.4987 11.0342 12.7629 11.0003 12 11.0003ZM8.77148 11.1966C7.76 11.3237 6.85402 11.5062 6.09668 11.7307L9.23145 14.4905C9.54887 14.5239 9.87533 14.5535 10.21 14.5755L8.77148 11.1966ZM13.7891 14.5755C14.1237 14.5535 14.4502 14.5239 14.7676 14.4905L17.9023 11.7307C17.1449 11.5063 16.239 11.3237 15.2275 11.1966L13.7891 14.5755ZM5.05859 12.1038C4.73911 12.2447 4.48707 12.3876 4.30176 12.5247C4.10102 12.6733 4.03173 12.7733 4.00879 12.8167C4.0314 12.8597 4.10002 12.9603 4.30176 13.1096C4.63231 13.3542 5.17488 13.617 5.93457 13.8548C6.39291 13.9982 6.9109 14.1227 7.47656 14.2317L5.05859 12.1038ZM16.5225 14.2317C17.0885 14.1227 17.6068 13.9983 18.0654 13.8548C18.8251 13.617 19.3677 13.3542 19.6982 13.1096C19.8994 12.9608 19.9674 12.8599 19.9902 12.8167C19.9671 12.7731 19.8984 12.6728 19.6982 12.5247C19.5128 12.3874 19.2603 12.2448 18.9404 12.1038L16.5225 14.2317Z" fill="currentColor"/>
<path d="M3.01074 12.9573L3 12.9104H3.00781C3.00938 12.9258 3.00839 12.942 3.01074 12.9573Z" fill="currentColor"/>
<path d="M5.43652 5.30984C5.62366 4.98737 6.02798 4.88333 6.33887 5.07742C6.43062 5.1347 6.50721 5.2147 6.5625 5.30984L7.05664 6.16238L7.99121 6.38699C8.32983 6.46848 8.54574 6.80765 8.49121 7.15847L8.4834 7.20437C8.4592 7.31275 8.40916 7.41332 8.33887 7.49734L7.71094 8.24832L7.79395 9.23953C7.82383 9.5988 7.57874 9.91741 7.24023 9.97195L7.19531 9.99734C7.08869 10.0068 6.98137 9.96935 6.88281 9.92605L6 9.53836L5.11719 9.92605C4.79717 10.0666 4.43014 9.92358 4.27539 9.60672L4.25586 9.56375C4.21415 9.46148 4.19685 9.35016 4.20605 9.23953L4.28906 8.24832L3.66113 7.49734C3.43407 7.22598 3.45013 6.82144 3.69043 6.57058L3.72656 6.5364C3.80753 6.46349 3.90433 6.4121 4.00879 6.38699L4.94238 6.16238L5.43652 5.30984Z" fill="currentColor"/>
<path d="M17.4365 5.30984C17.6237 4.98737 18.028 4.88333 18.3389 5.07742C18.4306 5.1347 18.5072 5.2147 18.5625 5.30984L19.0566 6.16238L19.9912 6.38699C20.3298 6.46848 20.5457 6.80765 20.4912 7.15847L20.4834 7.20437C20.4592 7.31275 20.4092 7.41332 20.3389 7.49734L19.7109 8.24832L19.7939 9.23953C19.8238 9.5988 19.5787 9.91741 19.2402 9.97195L19.1953 9.99734C19.0887 10.0068 18.9814 9.96935 18.8828 9.92605L18 9.53836L17.1172 9.92605C16.7972 10.0666 16.4301 9.92358 16.2754 9.60672L16.2559 9.56375C16.2142 9.46148 16.1969 9.35016 16.2061 9.23953L16.2891 8.24832L15.6611 7.49734C15.4341 7.22598 15.4501 6.82144 15.6904 6.57058L15.7266 6.5364C15.8075 6.46349 15.9043 6.4121 16.0088 6.38699L16.9424 6.16238L17.4365 5.30984Z" fill="currentColor"/>
<path d="M11.2119 2.44363C11.4739 2.00843 12.0394 1.86822 12.4746 2.13015C12.6031 2.20756 12.7107 2.31512 12.7881 2.44363L13.4795 3.59304L14.7871 3.89676C15.2613 4.00657 15.5645 4.46431 15.4883 4.93777L15.4766 5.00027C15.4427 5.14652 15.3728 5.28241 15.2744 5.39578L14.3945 6.40847L14.5107 7.74637C14.5526 8.23124 14.2103 8.66104 13.7363 8.73465L13.6738 8.74148C13.5243 8.75444 13.3736 8.73071 13.2354 8.67215L12 8.14871L10.7646 8.67215C10.3164 8.86206 9.80149 8.66957 9.58496 8.24148L9.55859 8.18387C9.50016 8.0458 9.47636 7.89573 9.48926 7.74637L9.60449 6.40847L8.72559 5.39578C8.40772 5.0296 8.43026 4.48334 8.7666 4.1448L8.81641 4.09793C8.92968 3.9996 9.06581 3.93068 9.21191 3.89676L10.5195 3.59304L11.2119 2.44363Z" fill="currentColor"/>
</svg>
