<svg viewBox="0 0 24 24" fill="none" xmlns="http://www.w3.org/2000/svg">
<path fill-rule="evenodd" clip-rule="evenodd" d="M12 9.99996C16.9702 9.99996 20.9993 11.2618 21 12.8173L20.9922 12.9101H21L20.9883 12.957V12.9619C20.9803 13.0112 20.9672 13.0607 20.9512 13.1093L19.4277 19.4814L19.3711 19.6816C19.0521 20.6694 18.1784 21.4212 17.0889 21.6259L15.1963 21.9814L15.0811 21.997C14.5078 22.0419 14.0002 21.6159 14 21.0605V18.9199C13.9995 18.6935 13.8281 18.5036 13.6006 18.4599L13.5 18.4502H10.5C10.2242 18.4502 10.0006 18.6611 10 18.9199V21.0605C9.99978 21.6159 9.49223 22.0419 8.91895 21.997L8.80371 21.9814L6.91113 21.6259C5.82162 21.4212 4.94794 20.6694 4.62891 19.6816L4.57227 19.4814L3.04004 13.0791C3.01465 12.993 3.00008 12.9055 3 12.8173C3.00067 11.2618 7.02985 9.99996 12 9.99996ZM19.6367 14.3056C18.0466 15.1019 15.2214 15.6337 12 15.6337C8.77755 15.6337 5.95115 15.1024 4.36133 14.3056L5.54492 19.249C5.70643 19.9227 6.29188 20.4924 7.0957 20.6435L8.98828 20.999C8.99245 20.9997 8.99659 20.9969 9 20.997V18.9199C9.0006 18.0505 9.73213 17.4502 10.5 17.4502H13.5C14.2679 17.4502 14.9994 18.0505 15 18.9199V20.997C15.0034 20.9969 15.0075 20.9997 15.0117 20.999L16.9043 20.6435C17.7081 20.4924 18.2936 19.9227 18.4551 19.249L19.6367 14.3056ZM12 11C11.2368 11 10.5006 11.0338 9.80273 11.0908L11.3066 14.623C11.535 14.6286 11.7662 14.6337 12 14.6337C12.2334 14.6337 12.4643 14.6286 12.6924 14.623L14.1963 11.0908C13.4987 11.0338 12.7629 11 12 11ZM8.77148 11.1962C7.76005 11.3234 6.854 11.5059 6.09668 11.7304L9.23145 14.4902C9.54886 14.5236 9.87534 14.5532 10.21 14.5752L8.77148 11.1962ZM13.7891 14.5752C14.1237 14.5532 14.4502 14.5236 14.7676 14.4902L17.9023 11.7304C17.145 11.506 16.239 11.3234 15.2275 11.1962L13.7891 14.5752ZM5.05859 12.1035C4.73923 12.2444 4.48705 12.3873 4.30176 12.5244C4.10151 12.6726 4.03189 12.7729 4.00879 12.8164C4.03142 12.8594 4.10024 12.9601 4.30176 13.1093C4.63229 13.3539 5.17496 13.6167 5.93457 13.8544C6.39288 13.9979 6.91094 14.1224 7.47656 14.2314L5.05859 12.1035ZM16.5225 14.2314C17.0885 14.1223 17.6069 13.998 18.0654 13.8544C18.825 13.6167 19.3677 13.3539 19.6982 13.1093C19.8991 12.9606 19.9674 12.8596 19.9902 12.8164C19.9669 12.7726 19.8979 12.6722 19.6982 12.5244C19.5128 12.3872 19.2602 12.2445 18.9404 12.1035L16.5225 14.2314Z" fill="currentColor"/>
<path d="M3.01074 12.957L3 12.9101H3.00781C3.00936 12.9253 3.00847 12.9418 3.01074 12.957Z" fill="currentColor"/>
<path fill-rule="evenodd" clip-rule="evenodd" d="M5.11719 5.51363C5.4044 5.01878 6.04065 4.84491 6.53613 5.15425C6.67987 5.2441 6.79847 5.36824 6.88281 5.51363L7.16992 6.00972L7.70996 6.1396C8.24907 6.26947 8.56845 6.79835 8.4873 7.32027L8.48633 7.32808L8.48438 7.33589L8.47754 7.373L8.47656 7.38082L8.47461 7.38863C8.44723 7.51124 8.39748 7.62802 8.3291 7.73335L8.25488 7.83492L7.88281 8.27828L7.93262 8.86519C7.97709 9.39955 7.61363 9.8997 7.07227 9.98726L7.05469 9.98921L7.01855 9.9941L7.00098 9.99605C6.83112 10.0113 6.66056 9.98241 6.50488 9.91402L6 9.69234L5.49512 9.91402C4.98191 10.1396 4.4068 9.90375 4.1709 9.41988L4.16699 9.41304L4.16309 9.40523L4.14844 9.37105L4.14453 9.36421L4.1416 9.3564C4.07822 9.20118 4.05254 9.03286 4.06641 8.86617L4.11523 8.2773L3.74512 7.83492C3.39943 7.42176 3.42323 6.81083 3.79102 6.42671L3.79785 6.41988L3.80469 6.41402L3.83301 6.3857L3.83984 6.37984L3.84668 6.373C3.97231 6.25999 4.12453 6.17942 4.29004 6.1396L4.82812 6.00972L5.11719 5.51363ZM5.99121 6.00386C5.98909 6.00554 5.98587 6.00884 5.98242 6.0146L5.47949 6.88179L5.27148 6.9316L4.52441 7.11128C4.52441 7.11128 4.5196 7.11283 4.5166 7.11519L4.51367 7.11812L4.5 7.15425C4.49942 7.17114 4.50443 7.18454 4.51172 7.19332L5.14648 7.95113L5.12988 8.15621L5.06348 8.94917C5.06271 8.9585 5.06365 8.96766 5.06641 8.97554L5.07031 8.98335C5.07587 8.99395 5.08243 8.99764 5.08594 8.99898L5.08887 8.99996L5.09277 8.99898L5.79883 8.68843L6 8.60054L6.20117 8.68843L6.90723 8.99898H6.91309C6.91309 8.99898 6.92026 8.99648 6.92578 8.98921C6.93256 8.98013 6.93795 8.96663 6.93652 8.94917L6.87012 8.15621L6.85254 7.95113L6.98535 7.7939L7.4873 7.19332C7.49146 7.18828 7.49586 7.18045 7.49805 7.17085L7.49902 7.16499C7.50118 7.14932 7.49807 7.13462 7.49121 7.12398C7.48473 7.11394 7.47808 7.1119 7.47559 7.11128L6.72852 6.9316L6.52051 6.88179L6.01758 6.0146C6.01364 6.00798 6.00888 6.00382 6.00586 6.00191C6.00351 6.00049 6.00098 5.99996 6.00098 5.99996H5.99805C5.99805 5.99996 5.99364 6.00208 5.99121 6.00386Z" fill="currentColor"/>
<path fill-rule="evenodd" clip-rule="evenodd" d="M17.1172 5.51363C17.4044 5.01878 18.0407 4.84491 18.5361 5.15425C18.6799 5.2441 18.7985 5.36824 18.8828 5.51363L19.1699 6.00972L19.71 6.1396C20.2491 6.26947 20.5684 6.79835 20.4873 7.32027L20.4863 7.32808L20.4844 7.33589L20.4775 7.373L20.4766 7.38082L20.4746 7.38863C20.4472 7.51124 20.3975 7.62802 20.3291 7.73335L20.2549 7.83492L19.8828 8.27828L19.9326 8.86519C19.9771 9.39955 19.6136 9.8997 19.0723 9.98726L19.0547 9.98921L19.0186 9.9941L19.001 9.99605C18.8311 10.0113 18.6606 9.98241 18.5049 9.91402L18 9.69234L17.4951 9.91402C16.9819 10.1396 16.4068 9.90375 16.1709 9.41988L16.167 9.41304L16.1631 9.40523L16.1484 9.37105L16.1445 9.36421L16.1416 9.3564C16.0782 9.20117 16.0525 9.03286 16.0664 8.86617L16.1152 8.2773L15.7451 7.83492C15.3994 7.42176 15.4232 6.81083 15.791 6.42671L15.7979 6.41988L15.8047 6.41402L15.833 6.3857L15.8398 6.37984L15.8467 6.373C15.9723 6.25999 16.1245 6.17942 16.29 6.1396L16.8281 6.00972L17.1172 5.51363ZM17.9912 6.00386C17.9891 6.00554 17.9859 6.00884 17.9824 6.0146L17.4795 6.88179L17.2715 6.9316L16.5244 7.11128C16.5244 7.11128 16.5196 7.11283 16.5166 7.11519L16.5137 7.11812L16.5 7.15425C16.4994 7.17114 16.5044 7.18454 16.5117 7.19332L17.1465 7.95113L17.1299 8.15621L17.0635 8.94917C17.0627 8.9585 17.0637 8.96766 17.0664 8.97554L17.0703 8.98335C17.0759 8.99395 17.0824 8.99764 17.0859 8.99898L17.0889 8.99996L17.0928 8.99898L17.7988 8.68843L18 8.60054L18.2012 8.68843L18.9072 8.99898H18.9131C18.9131 8.99898 18.9203 8.99649 18.9258 8.98921C18.9326 8.98013 18.938 8.96663 18.9365 8.94917L18.8701 8.15621L18.8525 7.95113L18.9854 7.7939L19.4873 7.19332C19.4915 7.18828 19.4959 7.18045 19.498 7.17085L19.499 7.16499C19.5012 7.14932 19.4981 7.13462 19.4912 7.12398C19.4847 7.11394 19.4781 7.1119 19.4756 7.11128L18.7285 6.9316L18.5205 6.88179L18.0176 6.0146C18.0136 6.00798 18.0089 6.00383 18.0059 6.00191C18.0035 6.00049 18.001 5.99996 18.001 5.99996H17.998C17.998 5.99996 17.9936 6.00208 17.9912 6.00386Z" fill="currentColor"/>
<path fill-rule="evenodd" clip-rule="evenodd" d="M10.8955 2.62398C11.2624 2.0145 12.0545 1.8178 12.6641 2.18453C12.8441 2.29292 12.9951 2.44394 13.1035 2.62398L13.5869 3.42671L14.502 3.6396C15.1663 3.79357 15.5903 4.43591 15.4834 5.09957L15.4824 5.10835L15.4805 5.11617L15.4697 5.16988L15.4688 5.17769L15.4668 5.1855C15.4194 5.39032 15.3224 5.58139 15.1846 5.74019L14.5684 6.44722L14.6504 7.38374C14.7092 8.06312 14.2297 8.66513 13.5654 8.76851L13.5566 8.76949L13.5488 8.77046L13.4951 8.7773L13.4863 8.77828H13.4785C13.2691 8.79645 13.0578 8.76351 12.8643 8.6816L12 8.31441L11.1357 8.6816C10.5077 8.9476 9.78688 8.67715 9.4834 8.0771L9.47949 8.06929L9.47656 8.06148L9.4541 8.01265L9.4502 8.00484L9.44727 7.998C9.36525 7.8044 9.33146 7.59322 9.34961 7.38374L9.43066 6.4482L8.81543 5.74019C8.37001 5.22707 8.40245 4.4618 8.87402 3.98726L8.88086 3.9814L8.88672 3.97457L8.93066 3.93453L8.94336 3.92183C9.10215 3.78405 9.29323 3.68704 9.49805 3.6396L10.4111 3.42671L10.8955 2.62398ZM12.1484 3.04097C12.0121 2.95919 11.8351 3.00355 11.7529 3.1396L11.0508 4.3066L9.72363 4.61421C9.67785 4.62482 9.63513 4.64692 9.59961 4.67769L9.58008 4.69527C9.47788 4.80117 9.47206 4.97035 9.57031 5.08394L10.3242 5.95308L10.4639 6.11324L10.3457 7.46968C10.3417 7.51548 10.3488 7.56194 10.3662 7.60445L10.376 7.62593L10.4053 7.67281C10.4835 7.77316 10.6233 7.81273 10.7461 7.7607L11.8047 7.31148L12 7.22945L12.1953 7.31148L13.2539 7.7607C13.2967 7.77877 13.3434 7.78492 13.3896 7.78121L13.418 7.77828C13.5627 7.75234 13.6673 7.61932 13.6543 7.46968L13.5361 6.11324L13.6748 5.95308L14.4297 5.08394C14.4602 5.04851 14.4816 5.0055 14.4922 4.95992L14.4961 4.93746C14.5154 4.80889 14.4458 4.68389 14.3291 4.63179L14.2764 4.61421L12.9492 4.3066L12.2471 3.1396C12.2228 3.09936 12.1887 3.06522 12.1484 3.04097Z" fill="currentColor"/>
</svg>
