<?xml version="1.0" encoding="UTF-8"?>
<svg width="24px" height="24px" viewBox="0 0 24 24" version="1.1" xmlns="http://www.w3.org/2000/svg" xmlns:xlink="http://www.w3.org/1999/xlink">
    <title>Social/Telegram/White</title>
    <g id="💎-Icons" stroke="none" stroke-width="1" fill="none" fill-rule="evenodd">
        <g id="Social/Telegram/White" fill="#FFFFFF">
            <path d="M20.7645829,4.01998512 L20.6249086,4.02732663 C20.1129547,4.07085148 19.3221852,4.31975567 17.1081179,5.20941507 L13.4097375,6.73207176 C11.494483,7.53679185 8.07620234,9.01121946 3.15489572,11.1553546 C2.28310291,11.5020375 1.82641941,11.8411933 1.78484519,12.172822 C1.72958647,12.6136089 2.15191671,12.8442363 2.79973278,13.0688266 L3.77497628,13.3826231 C4.71527639,13.6882776 5.98014541,14.0458622 6.63769886,14.0600683 C7.23416261,14.0729545 7.89988427,13.8270509 8.63486383,13.3223572 L15.2452985,8.90395243 C15.9574425,8.44015028 16.3433184,8.20148481 16.4029263,8.18795602 C16.5176143,8.16192604 16.6765439,8.12919665 16.7842262,8.22490751 C16.8919084,8.32061838 16.8813227,8.50187635 16.8699163,8.55050324 C16.7787138,8.93931075 12.0666332,13.2253124 11.7954498,13.506975 L11.5352435,13.767892 C10.5835931,14.6967425 9.73205247,15.3416399 11.3987873,16.4399934 L12.4767712,17.159341 C13.1416137,17.6081586 13.7272216,18.0116581 14.4039478,18.4668997 L15.5086701,19.2007015 C16.5444978,19.8796996 17.3565998,20.6848894 18.4260633,20.5864757 C18.9181708,20.5411912 19.4264855,20.0784586 19.6846402,18.6983821 L19.9938494,17.0007055 C20.633757,13.410307 21.5355322,7.93329727 21.7711096,5.45806534 C21.7953915,5.20293318 21.7648453,4.87641458 21.740315,4.73308055 C21.7157846,4.58974652 21.6645229,4.38552552 21.4782116,4.23434678 C21.2575631,4.05530574 20.916929,4.01754983 20.7645829,4.01998512 Z" id="Shape"></path>
        </g>
    </g>
</svg>