<?xml version="1.0" encoding="UTF-8"?>
<svg width="24px" height="24px" viewBox="0 0 24 24" version="1.1" xmlns="http://www.w3.org/2000/svg" xmlns:xlink="http://www.w3.org/1999/xlink">
    <title>Social/Telegram/Color</title>
    <defs>
        <linearGradient x1="50%" y1="0%" x2="50%" y2="99.2583404%" id="linearGradient-1">
            <stop stop-color="#2AABEE" offset="0%"></stop>
            <stop stop-color="#229ED9" offset="100%"></stop>
        </linearGradient>
    </defs>
    <g id="💎-Icons" stroke="none" stroke-width="1" fill="none" fill-rule="evenodd">
        <g id="Social/Telegram/Color" fill-rule="nonzero">
            <circle id="Oval" fill="url(#linearGradient-1)" cx="12" cy="12" r="10"></circle>
            <path d="M6.52656838,11.8944414 C9.44177146,10.6243337 11.3856968,9.78700098 12.3583443,9.38244322 C15.1354507,8.2273486 15.7125096,8.0266963 16.0886285,8.02 C16.1713524,8.0186134 16.3563168,8.03911486 16.4761289,8.13633414 C16.5772959,8.2184242 16.605131,8.3293162 16.618451,8.40714658 C16.631771,8.48497696 16.6483576,8.66227656 16.6351725,8.80081332 C16.4846801,10.3820497 15.8335021,14.2192935 15.5022196,15.9903053 C15.3620416,16.7396868 15.0860267,16.9909506 14.8188124,17.0155401 C14.2380937,17.0689788 13.7971223,16.6317607 13.2346679,16.2630647 C12.3545377,15.6861283 11.8573202,15.3269836 11.0030015,14.7640003 C10.0156884,14.1133756 10.6557224,13.755781 11.2183892,13.1713713 C11.3656418,13.0184285 13.9243016,10.6911296 13.9738245,10.4800071 C13.9800182,10.4536027 13.9857662,10.3551796 13.9272948,10.3032086 C13.8688234,10.2512376 13.7825246,10.2690097 13.720249,10.283144 C13.6319752,10.3031789 12.2259559,11.2325055 9.50219106,13.0711238 C9.10309716,13.3451725 8.7416103,13.4786982 8.41773048,13.4717009 C8.06067896,13.463987 7.37385508,13.2698186 6.86327212,13.1038482 C6.23702134,12.9002787 5.73928968,12.7926501 5.78263094,12.4469262 C5.80520574,12.2668518 6.05318488,12.0826902 6.52656838,11.8944414 Z" id="Path-3" fill="#FFFFFF"></path>
        </g>
    </g>
</svg>