<svg width="24" height="24" viewBox="0 0 24 24" fill="none" xmlns="http://www.w3.org/2000/svg">
  <g id="Status=Semi-active">
    <path id="Union" d="M8.35547 15.876C8.52229 15.497 8.96469 15.3245 9.34375 15.4912C9.72273 15.658 9.895 16.1005 9.72852 16.4795L7.93652 20.5518C7.76975 20.9307 7.32728 21.1031 6.94824 20.9365C6.56923 20.7696 6.39668 20.3263 6.56348 19.9473L8.35547 15.876ZM9.75 7.75C9.78175 7.75 9.81304 7.75203 9.84375 7.75586C9.84672 7.75624 9.84958 7.7574 9.85254 7.75781C9.88129 7.76175 9.90891 7.76927 9.93652 7.77637C9.95207 7.78039 9.968 7.78302 9.9834 7.78809C9.98633 7.78905 9.98926 7.79002 9.99219 7.79102C10.0046 7.79527 10.017 7.79973 10.0293 7.80469C10.0378 7.80813 10.0463 7.81169 10.0547 7.81543C10.073 7.8236 10.0915 7.83203 10.1094 7.8418C10.1276 7.85177 10.145 7.8628 10.1621 7.87402C10.1647 7.87572 10.1674 7.87718 10.1699 7.87891C10.1925 7.89414 10.214 7.91048 10.2344 7.92773L10.2373 7.93066C10.2434 7.93588 10.248 7.94281 10.2539 7.94824C10.2728 7.96555 10.2905 7.98378 10.3076 8.00293C10.3175 8.01398 10.3288 8.02361 10.3379 8.03516C10.3463 8.04576 10.3535 8.05723 10.3613 8.06836C10.3666 8.07582 10.3719 8.08317 10.377 8.09082C10.3884 8.10844 10.3991 8.12667 10.4092 8.14551C10.4117 8.15014 10.4146 8.1545 10.417 8.15918C10.418 8.16124 10.4199 8.16296 10.4209 8.16504L12.293 11.6592L14.5283 12.5537C14.9128 12.7075 15.1 13.1438 14.9463 13.5283C14.7925 13.9128 14.3562 14.1 13.9717 13.9463L11.4717 12.9463C11.3011 12.8781 11.1613 12.7492 11.0791 12.585L10.5 11.499V13.4395L12.7803 15.7197L12.8467 15.7959C12.9081 15.8766 12.9528 15.9693 12.9775 16.0684L13.9775 20.0684C14.0778 20.4701 13.8334 20.8771 13.4316 20.9775C13.0299 21.0779 12.6229 20.8334 12.5225 20.4316L11.5723 16.6328L9.21973 14.2803C9.07907 14.1396 9 13.9489 9 13.75V11.3232L7.4082 14.1094C7.20979 14.4728 6.75416 14.6064 6.39062 14.4082C6.0272 14.2098 5.8935 13.7542 6.0918 13.3906L9.0918 8.14062C9.11658 8.09523 9.14561 8.05365 9.17773 8.01562L9.19824 7.99512C9.21697 7.97467 9.23695 7.95577 9.25781 7.9375C9.26024 7.93538 9.26219 7.93276 9.26465 7.93066C9.27184 7.92454 9.27777 7.91696 9.28516 7.91113C9.29681 7.90194 9.30899 7.89332 9.32129 7.88477C9.32647 7.88115 9.33164 7.87751 9.33691 7.87402C9.35624 7.86129 9.37666 7.84996 9.39746 7.83887C9.4012 7.83688 9.40444 7.83395 9.4082 7.83203C9.41039 7.83091 9.41284 7.8302 9.41504 7.8291C9.42446 7.8244 9.43384 7.8197 9.44336 7.81543C9.45146 7.8118 9.45952 7.80804 9.46777 7.80469C9.48864 7.79619 9.51005 7.7897 9.53125 7.7832C9.53557 7.78189 9.5396 7.77956 9.54395 7.77832C9.55484 7.7752 9.5662 7.77409 9.57715 7.77148C9.63273 7.75835 9.69041 7.75 9.75 7.75ZM16.5234 3.93164C16.5711 3.69195 16.9125 3.68893 16.9619 3.92773L17.0674 4.43359C17.1708 4.932 17.5627 5.31789 18.0625 5.41406L18.5693 5.51172C18.8088 5.55781 18.8104 5.90019 18.5713 5.95117L18.0645 6.05957C18.0145 6.07024 17.9655 6.08336 17.918 6.09961L17.8936 6.1084C17.8553 6.12234 17.8177 6.13791 17.7812 6.15527L17.7129 6.19043L17.6299 6.24121L17.5527 6.2959L17.5029 6.33691L17.4404 6.39355L17.3691 6.46777L17.3555 6.48438C17.2182 6.64666 17.1202 6.84353 17.0771 7.06055L16.9766 7.56836C16.9575 7.6643 16.8911 7.72324 16.8154 7.74316L16.7773 7.75H16.7383C16.6474 7.74347 16.5602 7.68469 16.5371 7.57324L16.4326 7.06738C16.3294 6.5688 15.9374 6.18214 15.4375 6.08594L14.9307 5.98828C14.6912 5.94219 14.6896 5.59981 14.9287 5.54883L15.4355 5.44141C15.5822 5.4101 15.7197 5.35378 15.8428 5.27734L15.8916 5.24414C15.9714 5.18963 16.0451 5.12562 16.1104 5.05469L16.1729 4.98145L16.2227 4.91406L16.2773 4.82715L16.2949 4.79492L16.3252 4.73633L16.334 4.71582C16.3378 4.70724 16.342 4.69813 16.3457 4.68945L16.3467 4.68848C16.38 4.60949 16.4057 4.52567 16.4229 4.43945L16.5234 3.93164ZM9.75 3C10.8546 3.00002 11.75 3.89544 11.75 5C11.75 6.10456 10.8546 6.99998 9.75 7C8.64543 7 7.75 6.10457 7.75 5C7.75 3.89543 8.64543 3 9.75 3Z" fill="currentColor"/>
  </g>
</svg>
