<?xml version="1.0" encoding="UTF-8"?>
<svg width="24px" height="24px" viewBox="0 0 24 24" version="1.1" xmlns="http://www.w3.org/2000/svg" xmlns:xlink="http://www.w3.org/1999/xlink">
    <title>Icon/Line/Outline</title>
    <g id="Icon/Line/Outline" stroke="none" stroke-width="1" fill="none" fill-rule="evenodd">
        <path d="M5,5.75 C5.55228475,5.75 6,6.19771525 6,6.75 C6,7.30228475 5.55228475,7.75 5,7.75 C4.44771525,7.75 4,7.30228475 4,6.75 C4,6.19771525 4.44771525,5.75 5,5.75 Z M9.75,6 L19.25,6 C19.6642136,6 20,6.33578644 20,6.75 C20,7.16421356 19.6642136,7.5 19.25,7.5 L9.75,7.5 C9.33578644,7.5 9,7.16421356 9,6.75 C9,6.33578644 9.33578644,6 9.75,6 Z M4.75,11 L19.25,11 C19.6642136,11 20,11.3357864 20,11.75 C20,12.1642136 19.6642136,12.5 19.25,12.5 L4.75,12.5 C4.33578644,12.5 4,12.1642136 4,11.75 C4,11.3357864 4.33578644,11 4.75,11 Z M4.75,16 L19.25,16 C19.6642136,16 20,16.3357864 20,16.75 C20,17.1642136 19.6642136,17.5 19.25,17.5 L4.75,17.5 C4.33578644,17.5 4,17.1642136 4,16.75 C4,16.3357864 4.33578644,16 4.75,16 Z" id="Combined-Shape" fill="#FFFFFF"></path>
    </g>
</svg>