<svg width="24" height="24" viewBox="0 0 24 24" fill="none" xmlns="http://www.w3.org/2000/svg">
  <title>Install on dock from Safari</title>
  <path d="M14.5756 7.23839L11.8023 4.46513L9.02907 7.23839L8.29651 6.50583L11.8023 3.00002L15.3081 6.50583L14.5756 7.23839Z" fill="currentColor"/>
  <path d="M11.2791 3.73257H12.3256V14.7209H11.2791V3.73257Z" fill="currentColor"/>
  <path d="M17.0349 21H6.56977C5.68023 21 5 20.3198 5 19.4302V10.0116C5 9.12211 5.68023 8.44188 6.56977 8.44188H10.2326V9.48839H6.56977C6.25581 9.48839 6.04651 9.69769 6.04651 10.0116V19.4302C6.04651 19.7442 6.25581 19.9535 6.56977 19.9535H17.0349C17.3488 19.9535 17.5581 19.7442 17.5581 19.4302V10.0116C17.5581 9.69769 17.3488 9.48839 17.0349 9.48839H13.3721V8.44188H17.0349C17.9244 8.44188 18.6046 9.12211 18.6046 10.0116V19.4302C18.6046 20.3198 17.9244 21 17.0349 21Z" fill="currentColor"/>
</svg>
