<?xml version="1.0" encoding="UTF-8"?>
<svg width="24px" height="24px" viewBox="0 0 24 24" version="1.1" xmlns="http://www.w3.org/2000/svg" xmlns:xlink="http://www.w3.org/1999/xlink">
  <title>Icon/Star/Filled</title>
  <g id="💎-Icons" stroke="none" stroke-width="1" fill="none" fill-rule="evenodd">
    <g id="Icon/Star/Filled" fill="#FFFFFF">
      <path d="M12.5353856,3.64886187 C12.6806387,3.73627651 12.8022835,3.85792132 12.8896982,4.00317444 L15.1913923,7.82779985 C15.3363964,8.06874693 15.5729158,8.24058832 15.8468788,8.3040387 L20.1955763,9.31120564 C20.7543405,9.44061651 21.1024,9.99849257 20.9729892,10.5572567 C20.9347386,10.7224132 20.8566378,10.8756946 20.7455065,11.0037166 L17.8193342,14.374632 C17.6349886,14.5869959 17.5446463,14.8650411 17.5689606,15.1452026 L17.9549093,19.5922915 C18.0044999,20.1636979 17.5814846,20.6671154 17.0100782,20.7167059 C16.8411849,20.7313636 16.6712711,20.7044519 16.5151736,20.6383207 L12.4050055,18.8970356 C12.1460695,18.7873366 11.8537155,18.7873366 11.5947796,18.8970356 L7.4846115,20.6383207 C6.95649603,20.8620584 6.34699861,20.6153115 6.1232609,20.0871961 C6.05712969,19.9310985 6.030218,19.7611847 6.04487571,19.5922915 L6.43082447,15.1452026 C6.4551388,14.8650411 6.36479644,14.5869959 6.18045089,14.374632 L3.25427857,11.0037166 C2.87829471,10.5705877 2.92461992,9.91467218 3.35774882,9.53868832 C3.48577077,9.42755699 3.63905216,9.34945622 3.8042087,9.31120564 L8.15290622,8.3040387 C8.42686925,8.24058832 8.66338863,8.06874693 8.80839276,7.82779985 L11.1100869,4.00317444 C11.4058315,3.51174835 12.0439595,3.35311721 12.5353856,3.64886187 Z" id="Path"></path>
    </g>
  </g>
</svg>
