<?xml version="1.0" encoding="UTF-8"?>
<svg width="24px" height="24px" viewBox="0 0 24 24" version="1.1" xmlns="http://www.w3.org/2000/svg" xmlns:xlink="http://www.w3.org/1999/xlink">
  <title>Icon/Star/Outline</title>
  <g id="💎-Icons" stroke="none" stroke-width="1" fill="none" fill-rule="evenodd">
    <g id="Icon/Star/Outline" fill="#FFFFFF">
      <path d="M9.97321622,4.64585953 L8.19402301,7.602 L4.8317524,8.38135166 C4.45557406,8.4684753 4.10644384,8.64636604 3.81484725,8.89949071 L3.68578743,9.02011453 C2.82070129,9.89064034 2.76171734,11.2946986 3.57917227,12.2363969 L5.84102301,14.842 L5.5430367,18.2805501 C5.50965071,18.6652397 5.57094768,19.0522535 5.72157525,19.4077982 L5.78977571,19.5547907 C6.34655063,20.6556652 7.6695619,21.1514745 8.82233406,20.6630991 L12.000023,19.317 L15.1775328,20.6630991 C15.5330775,20.8137267 15.9200913,20.8750237 16.3047809,20.8416377 L16.4656542,20.8221984 C17.684701,20.6328629 18.5650766,19.5278179 18.4568302,18.2805501 L18.158023,14.842 L20.4206946,12.2363969 C20.6738193,11.9448003 20.85171,11.5956701 20.9388337,11.2194918 L20.9700584,11.0604851 C21.1666958,9.84259483 20.3877866,8.66383013 19.1681145,8.38135166 L15.805023,7.602 L14.0266507,4.64585953 C13.8275457,4.31501536 13.5504744,4.03794405 13.2196302,3.83883904 C12.1003052,3.16521913 10.6468361,3.52653451 9.97321622,4.64585953 Z M12.4461777,5.12405156 C12.567222,5.1968971 12.6685926,5.29826777 12.7414382,5.41931204 L14.6595166,8.60649988 C14.7803534,8.80728911 14.9774529,8.95049027 15.2057554,9.00336558 L18.82967,9.84267137 C19.2953067,9.95051376 19.5853564,10.4154105 19.477514,10.8810472 C19.4456385,11.0186777 19.3805545,11.1464122 19.2879451,11.2530971 L16.8494682,14.0621933 C16.6958469,14.2391632 16.6205616,14.4708676 16.6408235,14.7043355 L16.9624475,18.4102429 C17.0037729,18.8864149 16.6512601,19.3059295 16.1750881,19.3472549 C16.0343437,19.3594697 15.892749,19.3370433 15.7626676,19.2819339 L12.3375276,17.830863 C12.1217476,17.7394472 11.8781193,17.7394472 11.6623393,17.830863 L8.23719926,19.2819339 C7.79710304,19.468382 7.28918852,19.2627596 7.10274043,18.8226634 C7.04763109,18.6925821 7.02520468,18.5509873 7.03741944,18.4102429 L7.3590434,14.7043355 C7.37930535,14.4708676 7.30402004,14.2391632 7.15039876,14.0621933 L4.71192182,11.2530971 C4.39860194,10.8921564 4.43720628,10.3455601 4.79814703,10.0322403 C4.90483199,9.93963083 5.03256648,9.87454685 5.17019693,9.84267137 L8.79411153,9.00336558 C9.02241405,8.95049027 9.21951354,8.80728911 9.34035031,8.60649988 L11.2584287,5.41931204 C11.5048826,5.00979029 12.0366559,4.87759768 12.4461777,5.12405156 Z" id="Star"></path>
    </g>
  </g>
</svg>
