<svg width="24" height="24" viewBox="0 0 24 24" fill="currentColor" xmlns="http://www.w3.org/2000/svg">
  <path id="Subtract" fill-rule="evenodd" clip-rule="evenodd" d="M11 8.5C11 6.63984 11.9234 4.99537 13.3369 4H7C4.79086 4 3 5.79086 3 8V16C3 18.2091 4.79086 20 7 20H13.3369C11.9234 19.0046 11 17.3602 11 15.5V8.5ZM16.5 5C14.567 5 13 6.567 13 8.5V15.5C13 17.433 14.567 19 16.5 19C18.433 19 20 17.433 20 15.5V8.5C20 6.567 18.433 5 16.5 5ZM8.70711 12.7071C8.89464 12.5196 9 12.2652 9 12C9 11.7348 8.89464 11.4804 8.70711 11.2929L6.70711 9.29289C6.31658 8.90237 5.68342 8.90237 5.29289 9.29289C4.90237 9.68342 4.90237 10.3166 5.29289 10.7071L6.58579 12L5.29289 13.2929C4.90237 13.6834 4.90237 14.3166 5.29289 14.7071C5.68342 15.0976 6.31658 15.0976 6.70711 14.7071L8.70711 12.7071Z" />
</svg>
