<svg width="24" height="24" viewBox="0 0 24 24" fill="currentColor" xmlns="http://www.w3.org/2000/svg">
  <path fill-rule="evenodd" clip-rule="evenodd" d="M3 8C3 5.79086 4.79086 4 7 4H17C19.2091 4 21 5.79086 21 8V16C21 18.2091 19.2091 20 17 20H7C4.79086 20 3 18.2091 3 16V8ZM16 5.5C14.6193 5.5 13.5 6.61929 13.5 8V16C13.5 17.3807 14.6193 18.5 16 18.5H17C18.3807 18.5 19.5 17.3807 19.5 16V8C19.5 6.61929 18.3807 5.5 17 5.5H16ZM12.8773 18.5C12.3284 17.8152 12 16.9459 12 16V8C12 7.05405 12.3284 6.1848 12.8773 5.5H7C5.61929 5.5 4.5 6.61929 4.5 8V16C4.5 17.3807 5.61929 18.5 7 18.5H12.8773Z" />
  <path fill-rule="evenodd" clip-rule="evenodd" d="M10.25 12C10.25 12.1989 10.171 12.3897 10.0303 12.5303L8.03033 14.5303C7.73744 14.8232 7.26256 14.8232 6.96967 14.5303C6.67678 14.2374 6.67678 13.7626 6.96967 13.4697L8.43934 12L6.96967 10.5303C6.67678 10.2374 6.67678 9.76256 6.96967 9.46967C7.26256 9.17678 7.73744 9.17678 8.03033 9.46967L10.0303 11.4697C10.171 11.6103 10.25 11.8011 10.25 12Z" />
</svg>
