<?xml version="1.0" encoding="UTF-8"?>
<svg width="24px" height="24px" viewBox="0 0 24 24" version="1.1" xmlns="http://www.w3.org/2000/svg" xmlns:xlink="http://www.w3.org/1999/xlink">
    <title>Icon/AI/Filled</title>
    <g id="Icon/AI/Filled" stroke="none" stroke-width="1" fill="none" fill-rule="evenodd">
        <path d="M10,3 C11.1883902,3 12.3076134,3.29613919 13.2878993,3.81864726 L13.2539919,3.9114091 L13.208759,4.01988492 C13.1923628,4.05534302 13.1746608,4.09008338 13.1556913,4.12405437 L13.104999,4.207 L13.0687889,4.26246277 L13.017617,4.33101481 L12.9970688,4.35564471 L12.8953724,4.46821062 L12.827035,4.53096214 L12.7327774,4.60724568 C12.670826,4.65471592 12.5715679,4.7153993 12.4665975,4.76401562 L12.3637249,4.81087141 C12.2340226,4.86345816 12.0591984,4.90215749 11.8797119,4.90987278 L10.8461819,4.95428559 C9.26913005,5.02214271 8.92327798,7.20576674 10.4021222,7.75761903 L11.3714081,8.11926063 C11.9500832,8.33517372 12.3433461,8.87645372 12.3698718,9.49354057 L12.4142846,10.5270706 C12.4431652,11.1982775 12.9026152,11.7219352 13.5159995,11.8713071 L13.6732348,11.8995955 L13.8368963,11.911881 L13.9149257,11.9113171 C14.5421396,11.8579126 15.0163514,11.5104813 15.2176181,10.9711303 L15.5792597,10.0018444 C15.6716126,9.75430245 15.8245904,9.5373744 16.0235385,9.36824227 L16.0492548,9.34678479 L16.1751662,9.25300734 L16.2561867,9.20382209 L16.3187002,9.17036902 L16.4317631,9.11746809 L16.5432269,9.07623464 L16.6254227,9.05244426 C16.6432386,9.04782553 16.6908764,9.03661719 16.7390535,9.02769674 L16.7795464,9.02067317 C16.8302329,9.01239498 16.8916339,9.00604372 16.9535714,9.00337934 L16.9298247,9.00500163 C16.9760742,9.33001141 17,9.66221162 17,10 C17,11.271902 16.6607772,12.4645742 16.0678687,13.4924797 C16.8003285,13.4300428 17.5526757,13.6536772 18.1442215,14.1626243 L18.3014296,14.3085014 L20.1730375,16.1801093 C21.2756542,17.2827259 21.2756542,19.0704208 20.1730375,20.1730375 C19.1163632,21.2297118 17.4305111,21.2737399 16.3214053,20.3051218 L16.1801093,20.1730375 L14.3085014,18.3014296 C13.6967023,17.6896305 13.4243667,16.8669158 13.4914946,16.0673432 C12.4645742,16.6607772 11.271902,17 10,17 C6.13400675,17 3,13.8659932 3,10 C3,6.13400675 6.13400675,3 10,3 Z M15.3691616,15.3691616 C14.8867867,15.8515364 14.8546283,16.6136401 15.2726866,17.1333121 L15.3691616,17.2407694 L17.2407694,19.1123773 C17.4819569,19.3535648 17.7930765,19.4821981 18.1088583,19.4982772 L18.2442885,19.4982772 L18.3791478,19.4844951 C18.6475344,19.4431487 18.9056452,19.3191094 19.1123773,19.1123773 C19.5947522,18.6300024 19.6269105,17.8678988 19.2088523,17.3482268 L19.1123773,17.2407694 L17.2407694,15.3691616 C16.7239392,14.8523313 15.8859918,14.8523313 15.3691616,15.3691616 Z M15.4198889,3.42911525 L15.4643023,4.46265862 C15.5080827,5.4811529 16.1571635,6.37453604 17.1122803,6.73090566 L18.0815139,7.09252777 C18.5390679,7.2632707 18.4320594,7.93889569 17.9441373,7.95988992 L16.9105939,8.0043033 L16.7579018,8.01547073 L16.6074233,8.03559772 L16.5569883,8.04441026 C16.4771072,8.05920104 16.3983713,8.07775333 16.3210015,8.09990676 L16.1741084,8.1468523 L15.9939178,8.21841777 L15.8256816,8.30035022 L15.7130744,8.36416203 L15.5718127,8.45553346 L15.4078206,8.5796068 L15.3758316,8.60635265 C15.0526655,8.88108652 14.7969539,9.23787407 14.6423468,9.65228124 L14.2807247,10.6215149 C14.2238104,10.7740329 14.1107981,10.8638217 13.9846327,10.8976832 L13.9076987,10.9113432 L13.8296692,10.9119071 L13.7526058,10.8997015 C13.5755212,10.8565777 13.4231599,10.7118352 13.4133626,10.4841382 L13.3689492,9.45059487 C13.3251689,8.43210059 12.676088,7.53871745 11.7209713,7.18234783 L10.7517376,6.82072573 C10.2941837,6.64998279 10.4011921,5.9743578 10.8891143,5.95336357 L11.9226576,5.90895019 C12.2222148,5.89607362 12.5109492,5.83083541 12.7783809,5.72084967 L12.8868558,5.67142016 C13.0617616,5.59041371 13.2264909,5.48958986 13.3779035,5.37132179 L13.524761,5.24732688 L13.6440713,5.1311208 L13.7811538,4.97629812 L13.8262598,4.91931471 L13.9035424,4.81308654 L13.934,4.764 L13.93,4.772 L13.936,4.763 L14.0281356,4.61276804 C14.0906478,4.50095892 14.1451939,4.38348314 14.1909047,4.26097225 L14.5525268,3.29173858 C14.7232697,2.83418463 15.3988947,2.94119312 15.4198889,3.42911525 Z" id="Combined-Shape" fill="#FFFFFF"></path>
    </g>
</svg>