<svg width="24" height="24" viewBox="0 0 24 24" fill="none" xmlns="http://www.w3.org/2000/svg">
<title>Icon/Compose/Filled</title>
<path d="M10.9697 3.99963C11.5219 3.99965 11.9695 4.44752 11.9697 4.99963C11.9697 5.55191 11.522 5.99962 10.9697 5.99963H8.75C7.23133 5.99963 6.00018 7.23101 6 8.74963V15.2496C6 16.7684 7.23122 17.9996 8.75 17.9996H15.25C16.7688 17.9996 18 16.7684 18 15.2496V13.0299C18.0002 12.4778 18.4478 12.0299 19 12.0299C19.5522 12.0299 19.9998 12.4778 20 13.0299V15.2496C20 17.873 17.8734 19.9996 15.25 19.9996H8.75C6.12665 19.9996 4 17.873 4 15.2496V8.74963C4.00018 6.12644 6.12676 3.99963 8.75 3.99963H10.9697ZM18.4814 4.00647C18.8544 4.03795 19.2233 4.19891 19.5127 4.48792C20.1441 5.12043 20.1647 6.12895 19.5596 6.73499L13.0732 13.2213L12.9668 13.3219C12.4956 13.743 11.8949 13.9802 11.25 13.9996L11.0996 14.0006L10.0234 13.9762L10 12.9L10.001 12.7506C10.0218 12.056 10.2952 11.4132 10.7783 10.9283L16.8281 4.87854L17.2646 4.44104L17.3496 4.36292C17.6413 4.11345 18.009 3.99298 18.3789 4.00061L18.4814 4.00647Z" fill="#FFFFFF"/>
</svg>
