<svg width="24" height="24" viewBox="0 0 24 24" fill="none" xmlns="http://www.w3.org/2000/svg">
<title>Icon/Compose/Outline</title>
<path d="M10.875 3.99976C11.2891 3.99976 11.6249 4.33565 11.625 4.74976C11.625 5.16397 11.2892 5.49976 10.875 5.49976H8.5C6.84322 5.49976 5.50012 6.84301 5.5 8.49976V15.4998C5.5 17.1566 6.84315 18.4998 8.5 18.4998H15.5C17.1569 18.4998 18.5 17.1566 18.5 15.4998V13.1248C18.5001 12.7106 18.8359 12.3748 19.25 12.3748C19.6641 12.3748 19.9999 12.7106 20 13.1248V15.4998C20 17.985 17.9853 19.9998 15.5 19.9998H8.5C6.01472 19.9998 4 17.985 4 15.4998V8.49976C4.00012 6.01458 6.01479 3.99976 8.5 3.99976H10.875ZM18.9404 4.00366C19.1983 4.02566 19.4557 4.13757 19.6592 4.34058L19.7383 4.42749C20.1068 4.87618 20.0776 5.50702 19.707 5.87964L19.4902 6.09546L13.2295 12.3572L13.1338 12.448C12.8001 12.7463 12.3851 12.9316 11.9316 12.9841L11.7354 12.9988H11.6064L11.0127 12.9861L11 12.4031L11.001 12.2644C11.0183 11.6946 11.241 11.1735 11.6318 10.781L18.1055 4.30737L18.1797 4.23706C18.3708 4.07606 18.6148 3.99463 18.8682 3.99976L18.9404 4.00366Z" fill="#FFFFFF"/>
</svg>
