<?xml version="1.0" encoding="UTF-8"?>
<svg width="38px" height="38px" viewBox="0 0 38 38" version="1.1" xmlns="http://www.w3.org/2000/svg" xmlns:xlink="http://www.w3.org/1999/xlink">
    <title>Trusted/6_jetbrains</title>
    <g id="Authentication-map" stroke="none" stroke-width="1" fill="none" fill-rule="evenodd">
        <g id="Onboarding-v3---Tablet" transform="translate(-878, -560)" fill="#FFFFFF">
            <g id="image" transform="translate(560, 80)">
                <g id="Logos" transform="translate(0, 408)">
                    <g id="Group-10" transform="translate(38, 72)">
                        <g id="Trusted/6_jetbrains" transform="translate(280, 0)">
                            <rect id="BB" fill-opacity="0" x="0" y="0" width="38" height="38"></rect>
                            <path d="M34.8333333,3.16666667 L34.8333333,34.8333333 L3.16666667,34.8333333 L3.16666667,3.16666667 L34.8333333,3.16666667 Z M18.4880556,28.8958333 L6.61305556,28.8958333 L6.61305556,30.875 L18.4880556,30.875 L18.4880556,28.8958333 Z M29.9083214,13.9364322 L29.7613889,13.9386111 C28.5738889,13.9386111 27.8508333,14.6036111 27.8508333,15.5219444 C27.8508333,16.505431 28.6036038,16.8050281 29.6056013,17.0430394 L29.7138889,17.0683333 C30.3894444,17.2319444 30.5530556,17.3375 30.5530556,17.5486111 C30.5530556,17.765 30.3577778,17.8916667 29.9830556,17.8916667 C29.4028538,17.8785031 28.8444288,17.668163 28.3997222,17.2952778 L27.6344444,18.2083333 C28.2795087,18.7399197 29.0946638,19.0210077 29.9302778,19 C31.1336111,19 31.9305556,18.4247222 31.9305556,17.4166667 C31.9305556,16.4930556 31.2444444,16.1236111 30.115,15.8808333 L29.9136227,15.8325539 C29.3899269,15.7000439 29.2547222,15.5988889 29.2547222,15.4005556 C29.2547222,15.2158333 29.4183333,15.0838889 29.7508333,15.0838889 C30.2505816,15.1004536 30.7332194,15.2699295 31.1336111,15.5694444 L31.7986111,14.5983333 C31.2577344,14.1743758 30.5927896,13.942457 29.9083214,13.9364322 L29.9083214,13.9364322 Z M18.7836111,13.9861111 L17.4641667,13.9861111 L15.50875,18.6353056 L14.5508333,17.2372222 C15.180263,16.9972448 15.5889404,16.3852874 15.5694444,15.7119444 C15.5807642,15.2769999 15.4083299,14.8574097 15.0944444,14.5561111 C14.6558615,14.180131 14.0875655,13.990699 13.5111111,14.0283333 L11.3472222,14.0283333 L11.3472222,18.9630556 L12.6983333,18.9630556 L12.6983333,17.4641667 L13.1575,17.4641667 L14.1497222,18.9630556 L15.371,18.9625278 L15.3688889,18.9683333 L16.7991667,18.9683333 L17.1527778,18.0763889 L19.0686111,18.0763889 L19.4222222,18.9683333 L20.8947222,18.9683333 L18.7836111,13.9861111 Z M22.4622222,14.0125 L21.09,14.0125 L21.09,18.9577778 L22.4622222,18.9577778 L22.4622222,14.0125 Z M24.2672222,14.0125 L22.99,14.0125 L22.99,18.9577778 L24.3463889,18.9577778 L24.3463889,16.245 L26.2094444,18.9577778 L27.4022222,18.9577778 L27.4022222,14.0125 L26.0458333,14.0125 L26.0458333,16.6513889 L24.2672222,14.0125 Z M9.11126338,14.0232936 L8.99861111,14.0283333 L6.66583333,14.0283333 L6.66583333,18.9525 L9.00916667,18.9525 C10.1913889,18.9525 10.8827778,18.4352778 10.8827778,17.5855556 C10.8976391,16.9959787 10.4812101,16.4832784 9.90111111,16.3769444 C10.366529,16.2125635 10.673291,15.7673324 10.6611111,15.2738889 C10.670252,14.9727731 10.5558391,14.6810201 10.3444444,14.4663889 C9.99965485,14.1734331 9.5611198,14.0167919 9.11126338,14.0232936 L9.11126338,14.0232936 Z M8.84027778,16.9575 C9.29944444,16.9575 9.51055556,17.1527778 9.51055556,17.4166667 C9.51055556,17.7069444 9.27833333,17.8705556 8.85611111,17.8705556 L8.00111111,17.8705556 L8.00111111,16.9575 L8.84027778,16.9575 Z M18.1344444,15.6116667 L18.6622222,17.0102778 L17.575,17.0102778 L18.1344444,15.6116667 Z M13.4530556,15.2263889 C13.9069444,15.2263889 14.1919444,15.4216667 14.1919444,15.8175 C14.1919444,16.1763889 13.9175,16.4033333 13.4583333,16.4033333 L12.6930556,16.4191667 L12.6930556,15.2263889 L13.4530556,15.2263889 Z M8.68194444,15.1313889 C9.08305556,15.1313889 9.30472222,15.2791667 9.30472222,15.5536111 L9.31527778,15.5694444 C9.31527778,15.8597222 9.0725,15.9969444 8.65555556,15.9969444 L8.00111111,15.9969444 L8.00111111,15.1313889 L8.68194444,15.1313889 Z M9.69527778,7.125 L8.33361111,7.125 L8.33361111,10.2811111 C8.33361111,10.7402778 8.11194444,10.9725 7.77416667,10.9725 C7.45693746,10.9525478 7.16846959,10.7818219 6.99833333,10.5133333 L6.11694444,11.3472222 C6.52696073,11.9022143 7.19118165,12.2104606 7.87972222,12.1652778 C8.38063674,12.1858006 8.86897974,12.0052847 9.23611111,11.6638889 C9.57049238,11.2885848 9.7364448,10.792635 9.69527778,10.2916667 L9.69527778,7.125 Z M19.0738889,7.125 L14.7408333,7.125 L14.7408333,8.33361111 L16.2186111,8.33361111 L16.2186111,12.0702778 L17.5908333,12.0702778 L17.5908333,8.32305556 L19.0738889,8.32305556 L19.0738889,7.125 Z M14.2658333,7.125 L10.2916667,7.125 L10.2916667,12.0491667 L14.3027778,12.0491667 L14.3027778,10.8827778 L11.6638889,10.8827778 L11.6638889,10.0963889 L13.9966667,10.0963889 L13.9966667,9.04083333 L11.6269444,9.04083333 L11.6269444,8.28083333 L14.2658333,8.28083333 L14.2658333,7.125 Z" id="Shape" fill-rule="nonzero"></path>
                        </g>
                    </g>
                </g>
            </g>
        </g>
    </g>
</svg>
