<?xml version="1.0" encoding="UTF-8"?>
<svg width="24px" height="24px" viewBox="0 0 24 24" version="1.1" xmlns="http://www.w3.org/2000/svg" xmlns:xlink="http://www.w3.org/1999/xlink">
    <title>Icon/Exit/Filled</title>
    <g id="💎-Icons" stroke="none" stroke-width="1" fill="none" fill-rule="evenodd">
        <g id="Icon/Exit/Filled" fill="#FFFFFF">
            <path d="M10.25,3 L10.4676146,3.004965 L10.6834609,3.019814 C13.1140854,3.24198113 15,5.2824683 15,7.75 L15,8 C15,8.55228475 14.5522847,9 14,9 C13.4477153,9 13,8.55228475 13,8 L13,7.75 L12.9950116,7.580947 L12.9796563,7.409416 C12.8147235,6.04965719 11.6502324,5 10.25,5 L7.75,5 C6.34976756,5 5.18527652,6.04965719 5.02034373,7.409416 L5.00498842,7.580947 L5,7.75 L5,16.25 C5,17.6502324 6.04965667,18.8147242 7.40941548,18.979657 L7.58094694,18.995012 L7.75,19 L10.25,19 L10.4190531,18.995012 L10.5905845,18.979657 C11.9503433,18.8147242 13,17.6502324 13,16.25 L13,16 C13,15.4477153 13.4477153,15 14,15 C14.5522847,15 15,15.4477153 15,16 L15,16.25 L14.9950352,16.467615 L14.9801865,16.683461 C14.7580193,19.1140854 12.7175317,21 10.25,21 L7.75,21 C5.2824683,21 3.24198069,19.1140854 3.01981355,16.683461 L3.00496479,16.467615 L3,16.25 L3,7.75 C3,5.2824683 4.88591462,3.24198113 7.31653908,3.019814 L7.53238543,3.004965 L7.75,3 L10.25,3 Z M17.6140801,8.20856743 L17.7082874,8.29175604 L20.7082874,11.291756 L20.8048461,11.4035562 L20.8765095,11.5148007 L20.9299552,11.6275268 L20.9586968,11.7097787 L20.9859089,11.8242086 L20.9975504,11.9130518 L21.0006636,12.0311174 L20.9858994,12.1735703 L20.973758,12.2323769 L20.9412861,12.3405293 L20.9075073,12.4220844 L20.8551852,12.5195716 L20.791476,12.6117623 L20.75007,12.6615285 L17.7082874,15.7059696 C17.3177632,16.0964939 16.6845982,16.0964939 16.2940739,15.7059696 C15.9335899,15.3454856 15.9058604,14.7782546 16.2108853,14.3859634 L16.2940739,14.291756 L17.5870402,12.9988628 L9.50404022,12.9988628 C8.95175547,12.9988628 8.50404022,12.5511476 8.50404022,11.9988628 C8.50404022,11.486027 8.89008041,11.0633557 9.3874191,11.0055905 L9.50404022,10.9988628 L17.5850402,10.9988628 L16.2940739,9.7059696 C15.9335899,9.34548564 15.9058604,8.77825458 16.2108853,8.38596337 L16.2940739,8.29175604 C16.6545578,7.93127207 17.2217889,7.90354254 17.6140801,8.20856743 Z" id="Shape"></path>
        </g>
    </g>
</svg>