<?xml version="1.0" encoding="UTF-8"?>
<svg width="24px" height="24px" viewBox="0 0 24 24" version="1.1" xmlns="http://www.w3.org/2000/svg" xmlns:xlink="http://www.w3.org/1999/xlink">
    <title>Icon/Exit/Outline</title>
    <g id="💎-Icons" stroke="none" stroke-width="1" fill="none" fill-rule="evenodd">
        <g id="Icon/Exit/Outline" fill="#FFFFFF">
            <path d="M10.5,3 L10.7118357,3.004898 C13.0987635,3.11551092 15,5.08572667 15,7.5 L15,8.25 C15,8.66421356 14.6642136,9 14.25,9 C13.8357864,9 13.5,8.66421356 13.5,8.25 L13.5,7.5 L13.4949073,7.323727 C13.4036609,5.74891975 12.0976809,4.5 10.5,4.5 L7.5,4.5 C5.90231912,4.5 4.59633912,5.74891975 4.50509269,7.323727 L4.5,7.5 L4.5,16.5 C4.5,18.0976809 5.74891996,19.4036606 7.32372721,19.494907 L7.5,19.5 L10.5,19.5 L10.6762728,19.494907 C12.25108,19.4036606 13.5,18.0976809 13.5,16.5 L13.5,15.75 C13.5,15.3357864 13.8357864,15 14.25,15 C14.6642136,15 15,15.3357864 15,15.75 L15,16.5 L14.995102,16.711836 C14.8844891,19.0987638 12.9142733,21 10.5,21 L7.5,21 C5.08572667,21 3.11551091,19.0987638 3.00489799,16.711836 L3,16.5 L3,7.5 C3,5.08572667 4.90123652,3.11551092 7.2881643,3.004898 L7.5,3 L10.5,3 Z M17.6979983,8.39479208 L17.7820713,8.46745578 L20.7804489,11.4693373 C20.8174821,11.5064138 20.8498304,11.5464046 20.8774936,11.5885723 L20.927734,11.6780278 L20.9677427,11.7817076 C20.988653,11.8502293 21,11.923788 21,12 L20.9978632,12.0570932 L20.9853636,12.1479854 L20.9770402,12.1850085 L20.9415792,12.2909438 L20.9084145,12.3598766 L20.8530278,12.4464915 C20.8279219,12.4797301 20.8050354,12.5060474 20.7804489,12.5306627 L17.7820713,15.5325442 C17.4893365,15.8256211 17.0147195,15.8256211 16.7219847,15.5325442 C16.4558621,15.2661107 16.4316692,14.8491857 16.6494058,14.55539 L16.7219847,14.4712188 L18.440385,12.7504704 L9.7495944,12.7504704 C9.33560484,12.7504704 9,12.4144733 9,12 C9,11.6200661 9.28200129,11.3060741 9.64787888,11.2563805 L9.7495944,11.2495296 L18.440385,11.2495296 L16.7219847,9.52878117 C16.4558621,9.26234761 16.4316692,8.84542261 16.6494058,8.55162697 L16.7219847,8.46745578 C16.9881073,8.20102222 17.4045456,8.17680099 17.6979983,8.39479208 Z" id="Shape"></path>
        </g>
    </g>
</svg>