<svg xmlns="http://www.w3.org/2000/svg" width="24" height="24" fill="currentColor" viewBox="0 0 24 24">
  <path fill-rule="evenodd" d="M5.5 5h13A2.5 2.5 0 0 1 21 7.5v9a2.5 2.5 0 0 1-2.5 2.5h-13A2.5 2.5 0 0 1 3 16.5v-9A2.5 2.5 0 0 1 5.5 5Zm0 1.5a1 1 0 0 0-1 1v9a1 1 0 0 0 1 1h13a1 1 0 0 0 1-1v-9a1 1 0 0 0-1-1h-13Z" clip-rule="evenodd"/>
  <path d="M4.5 8h15v2h-15V8Zm3.42 5.06a1.5 1.5 0 1 0 0 2.88 1.797 1.797 0 0 1 0-2.88Z"/>
  <path d="M8.25 13.2a1.5 1.5 0 1 0 1.499 2.598 1.5 1.5 0 0 0-1.499-2.597Z"/>
</svg>
