<?xml version="1.0" encoding="UTF-8" standalone="yes"?><svg xmlns="http://www.w3.org/2000/svg" baseProfile="tiny-ps" version="1.2" viewBox="0 0 64 64"><title>daily.dev</title><!-- Generator: Adobe Illustrator 28.7.1, SVG Export Plug-In . SVG Version: 1.2.0 Build 142)  --><desc>daily.dev is a professional network for developers</desc><g><rect id="bg" width="64" height="64" fill="#0e1217"></rect><g id="Icon"><path d="M49.2,32l-5.3-5.3,2.6-5.3,8.6,8.6c1.1,1.1,1.1,2.9,0,4l-10.6,10.6c-1.1,1.1-2.9,1.1-4,0-1.1-1.1-1.1-2.9,0-4l8.6-8.6Z" fill="#8e8e93"></path><path id="_x3C_Path_x3E_" d="M40.6,19.4c1.1-1.1,2.9-1.1,4,0l2,2-23.2,23.2c-1.1,1.1-2.9,1.1-4,0l-2-2,23.2-23.2ZM30.7,26.7l-4,4-5.3-5.3-6.6,6.6,5.3,5.3-2.6,5.3-8.6-8.6c-1.1-1.1-1.1-2.9,0-4l10.6-10.6c1.1-1.1,2.9-1.1,4,0l7.3,7.3Z" fill="#fff"></path></g></g></svg>