<?xml version="1.0" encoding="UTF-8"?>
<svg width="33px" height="29px" viewBox="0 0 33 29" version="1.1" xmlns="http://www.w3.org/2000/svg" xmlns:xlink="http://www.w3.org/1999/xlink">
    <title>Lego peice svg@20x</title>
    <defs>
        <rect id="path-1" x="0" y="0" width="33" height="29"></rect>
        <linearGradient x1="-1.31708334e-12%" y1="43.3275118%" x2="78.6368583%" y2="37.5222101%" id="linearGradient-3">
            <stop stop-color="#FBEC42" offset="0%"></stop>
            <stop stop-color="#DD3AFF" offset="100%"></stop>
        </linearGradient>
        <filter x="-13.0%" y="-25.7%" width="126.0%" height="151.4%" filterUnits="objectBoundingBox" id="filter-4">
            <feGaussianBlur stdDeviation="1" in="SourceGraphic"></feGaussianBlur>
        </filter>
        <linearGradient x1="100%" y1="50%" x2="0%" y2="50%" id="linearGradient-5">
            <stop stop-color="#DD3AFF" offset="0%"></stop>
            <stop stop-color="#FBEC42" offset="100%"></stop>
        </linearGradient>
        <linearGradient x1="100%" y1="50%" x2="0%" y2="50%" id="linearGradient-6">
            <stop stop-color="#DD3AFF" offset="0%"></stop>
            <stop stop-color="#67F2BB" offset="100%"></stop>
        </linearGradient>
        <polygon id="path-7" points="16.0006715 15.9382118 16.0006715 27.3682165 31.9142889 35.4910658 31.9142889 23.5233493"></polygon>
        <linearGradient x1="100%" y1="50%" x2="0%" y2="50%" id="linearGradient-8">
            <stop stop-color="#67F2BB" offset="0%"></stop>
            <stop stop-color="#DD3AFF" offset="50.8795892%"></stop>
            <stop stop-color="#FBEC42" offset="100%"></stop>
        </linearGradient>
        <path d="M11.7145312,4.67270565 C13.6516152,4.67270565 15.221932,3.88754723 15.221932,2.91900522 L15.24617,2.2854366 C15.2753306,1.48954986 15.2777653,0.285670894 14.8751888,0.0578223852 C14.2325327,-0.305905325 12.7615189,1.16530479 11.7145312,1.16530479 C10.324828,1.16530479 8.87648962,-0.241451772 8.30874151,0.344571827 C8.08511503,0.575396711 8.2071303,2.64531481 8.2071303,2.91900522 C8.2071303,3.88754723 9.77744715,4.67270565 11.7145312,4.67270565 Z M11.7145312,11.6875074 C13.6516152,11.6875074 15.221932,10.902349 15.221932,9.93380695 L15.24617,9.30023832 C15.2753306,8.50435159 15.2777653,7.30047262 14.8751888,7.07262411 C14.2325327,6.7088964 12.7615189,8.18010652 11.7145312,8.18010652 C10.324828,8.18010652 8.88965729,6.78508134 8.32190917,7.37110494 C8.09828269,7.60192983 8.2071303,9.66011654 8.2071303,9.93380695 C8.2071303,10.902349 9.77744715,11.6875074 11.7145312,11.6875074 Z M19.8984665,8.18010652 C21.8355505,8.18010652 23.4058674,7.39494809 23.4058674,6.42640609 L23.4301053,5.79283746 C23.459266,4.99695073 23.4617006,3.79307176 23.0591241,3.56522325 C22.4164681,3.20149554 20.9454543,4.67270565 19.8984665,4.67270565 C18.5087633,4.67270565 17.0755786,3.24678214 16.5078305,3.83280574 C16.284204,4.06363062 16.3910656,6.15271568 16.3910656,6.42640609 C16.3910656,7.39494809 17.9613825,8.18010652 19.8984665,8.18010652 Z M3.53059581,8.18010652 C5.46767982,8.18010652 7.03799667,7.39494809 7.03799667,6.42640609 L7.06223463,5.79283746 C7.09139528,4.99695073 7.09382991,3.79307176 6.69125342,3.56522325 C6.04859736,3.20149554 4.57758357,4.67270565 3.53059581,4.67270565 C2.14089262,4.67270565 0.712608328,3.23699441 0.144860211,3.82301801 C-0.0787662663,4.05384289 0.0231949467,6.15271568 0.0231949467,6.42640609 C0.0231949467,7.39494809 1.5935118,8.18010652 3.53059581,8.18010652 Z" id="path-9"></path>
        <linearGradient x1="60.1371285%" y1="50%" x2="0%" y2="50%" id="linearGradient-10">
            <stop stop-color="#DD3AFF" offset="0%"></stop>
            <stop stop-color="#FBEC42" offset="100%"></stop>
        </linearGradient>
        <path d="M16.1091715,4.07203831 C18.0462555,4.07203831 19.6165724,3.28687989 19.6165724,2.31833788 C19.6165724,1.34979588 18.0462555,0.56463745 16.1091715,0.56463745 C14.1720875,0.56463745 12.6017706,1.34979588 12.6017706,2.31833788 C12.6017706,3.28687989 14.1720875,4.07203831 16.1091715,4.07203831 Z M16.1091715,11.08684 C18.0462555,11.08684 19.6165724,10.3016816 19.6165724,9.33313961 C19.6165724,8.36459761 18.0462555,7.57943918 16.1091715,7.57943918 C14.1720875,7.57943918 12.6017706,8.36459761 12.6017706,9.33313961 C12.6017706,10.3016816 14.1720875,11.08684 16.1091715,11.08684 Z M24.2931068,7.57943918 C26.2301909,7.57943918 27.8005077,6.79428075 27.8005077,5.82573875 C27.8005077,4.85719674 26.2301909,4.07203831 24.2931068,4.07203831 C22.3560228,4.07203831 20.785706,4.85719674 20.785706,5.82573875 C20.785706,6.79428075 22.3560228,7.57943918 24.2931068,7.57943918 Z M7.92523615,7.57943918 C9.86232016,7.57943918 11.432637,6.79428075 11.432637,5.82573875 C11.432637,4.85719674 9.86232016,4.07203831 7.92523615,4.07203831 C5.98815214,4.07203831 4.41783529,4.85719674 4.41783529,5.82573875 C4.41783529,6.79428075 5.98815214,7.57943918 7.92523615,7.57943918 Z" id="path-11"></path>
    </defs>
    <g id="Referral-program---Lego-popup" stroke="none" stroke-width="1" fill="none" fill-rule="evenodd">
        <g id="1-Feed-badge" transform="translate(-1663.000000, -12.903400)">
            <g id="Lego-button" transform="translate(1621.000000, 7.000000)">
                <g id="Lego-peice-svg" transform="translate(42.000000, 5.903400)">
                    <mask id="mask-2" fill="white">
                        <use xlink:href="#path-1"></use>
                    </mask>
                    <g id="Rectangle"></g>
                    <g id="Group-4" mask="url(#mask-2)">
                        <g transform="translate(0.069970, -7.446753)">
                            <polygon id="Rectangle" fill="#ED4949" fill-rule="evenodd" transform="translate(15.985305, 15.928984) rotate(-45.000000) translate(-15.985305, -15.928984) " points="4.71528708 4.67201638 20.80517 11.2105002 27.2553224 27.185952 10.6261436 21.3098772"></polygon>
                            <polygon id="Path" fill="url(#linearGradient-3)" fill-rule="nonzero" points="-5.98133938e-18 25.799914 0.0563205613 15.9197565 0.0783319526 15.9281663 16.0569921 9.18435275 31.9142889 15.9197565 16.0006715 23.5233493 31.9142889 15.9382118 31.9142889 25.7949345 16.0006715 34.0091788 16.0006715 33.9177838"></polygon>
                            <path d="M8.8552662,18.3644593 C10.7923502,18.3644593 12.3626671,17.5793008 12.3626671,16.6107588 L12.3926068,15.8009027 C12.4143471,15.0143005 12.3897448,13.9611496 12.0159238,13.749576 C11.3732677,13.3858483 9.90225396,14.8570584 8.8552662,14.8570584 C7.46556301,14.8570584 6.03727872,13.4213472 5.4695306,14.0073708 C5.24590412,14.2381956 5.34786533,16.3370684 5.34786533,16.6107588 C5.34786533,17.5793008 6.91818219,18.3644593 8.8552662,18.3644593 Z M28.0159238,13.749576 C28.5622776,14.058799 28.3626671,16.1657107 28.3626671,16.6107588 C28.3626671,17.5793008 26.7923502,18.3644593 24.8552662,18.3644593 C23.8892504,18.3644593 21.0144487,18.1691923 20.3801307,17.8532931 C20.428693,18.549137 20.3626671,19.3547985 20.3626671,19.6107588 C20.3626671,20.5793008 18.7923502,21.3644593 16.8552662,21.3644593 C14.9181822,21.3644593 13.3478653,20.5793008 13.3478653,19.6107588 L13.3258519,18.6021328 C13.3191007,17.9253128 13.3379856,17.1431501 13.4695306,17.0073708 C14.0372787,16.4213472 15.465563,17.8570584 16.8552662,17.8570584 C17.6293391,17.8570584 20.6351906,17.0528747 21.3666949,16.7806201 C21.3535118,16.7262561 18.392596,16.8386985 18.392596,16.7806201 L21.3258519,15.6021328 C21.3191007,14.9253128 21.3379856,14.1431501 21.4695306,14.0073708 C22.0372787,13.4213472 23.465563,14.8570584 24.8552662,14.8570584 C25.902254,14.8570584 27.3732677,13.3858483 28.0159238,13.749576 Z M16.8552662,10.8570584 C17.902254,10.8570584 19.3732677,9.38584829 20.0159238,9.749576 C20.5622776,10.058799 20.3626671,12.1657107 20.3626671,12.6107588 C20.3626671,13.5793008 18.7923502,14.3644593 16.8552662,14.3644593 C14.9181822,14.3644593 13.3478653,13.5793008 13.3478653,12.6107588 L13.3258519,11.6021328 C13.3191007,10.9253128 13.3379856,10.1431501 13.4695306,10.0073708 C14.0372787,9.42134716 15.465563,10.8570584 16.8552662,10.8570584 Z" id="Shape" fill="#000000" fill-rule="nonzero" opacity="0.200000003" filter="url(#filter-4)"></path>
                            <polygon id="Path-3" fill="url(#linearGradient-5)" fill-rule="nonzero" points="0.0563205613 15.9197565 2.76923491e-12 27.373196 16.0006715 35.4910658 16.0006715 23.5233493"></polygon>
                            <g id="Path-3" fill="none" fill-rule="nonzero" transform="translate(23.957480, 25.714639) scale(-1, 1) translate(-23.957480, -25.714639) ">
                                <use fill="url(#linearGradient-6)" xlink:href="#path-7"></use>
                                <use fill-opacity="0.230960446" fill="#000000" xlink:href="#path-7"></use>
                            </g>
                            <g id="Group-3" stroke-width="1" fill="none" fill-rule="evenodd" transform="translate(4.324670, 9.184353)">
                                <g id="Shape" fill-rule="nonzero">
                                    <use fill="url(#linearGradient-8)" xlink:href="#path-9"></use>
                                    <use fill-opacity="0.326240166" fill="#000000" xlink:href="#path-9"></use>
                                </g>
                            </g>
                            <g id="Group-3" stroke-width="1" fill="none" fill-rule="evenodd" transform="translate(4.324670, 12.691754)"></g>
                        </g>
                    </g>
                    <g id="Combined-Shape" fill-rule="nonzero" mask="url(#mask-2)">
                        <use fill="url(#linearGradient-10)" xlink:href="#path-11"></use>
                        <use fill-opacity="0.3417559" fill="#FFFFFF" xlink:href="#path-11"></use>
                    </g>
                </g>
            </g>
        </g>
    </g>
</svg>