<?xml version="1.0" encoding="UTF-8"?>
<svg width="24px" height="24px" viewBox="0 0 24 24" version="1.1" xmlns="http://www.w3.org/2000/svg" xmlns:xlink="http://www.w3.org/1999/xlink">
    <title>Icon/Forward/Filled</title>
    <g id="Icon/Forward/Filled" stroke="none" stroke-width="1" fill="none" fill-rule="evenodd">
        <path d="M3.08187581,19.4082467 L3,19.6346676 L3.19796877,19.062537 C5.1636946,13.5130182 7.68336561,10.8301829 10.7569818,10.5063981 C11.0646616,10.4739861 11.3738284,10.4577466 11.6832081,10.4577466 L15.5512026,10.456717 L14.0492049,8.95394581 L12.1437461,7.0411885 C11.5125665,6.40952844 11.5125665,5.38540512 12.1437461,4.75374505 C12.7749256,4.12208498 13.7982698,4.12208498 14.4294493,4.75374505 L20.5266,10.8555376 C20.8429328,11.1721113 21.0007268,11.5872633 21,12.0021832 C21.0007268,12.4171032 20.8429328,12.8322552 20.5266,13.1488288 L14.4294493,19.2506214 C13.7982698,19.8822815 12.7749256,19.8822815 12.1437461,19.2506214 C11.5125665,18.6189614 11.5125665,17.594838 12.1437461,16.963178 L15.555318,13.5455903 L11.9386166,13.5466199 C7.98407931,13.5466199 4.46924906,15.7471105 3.08187581,19.4082467 Z" id="Path" fill="#FFFFFF"></path>
    </g>
</svg>