<?xml version="1.0" encoding="UTF-8"?>
<svg width="24px" height="24px" viewBox="0 0 24 24" version="1.1" xmlns="http://www.w3.org/2000/svg" xmlns:xlink="http://www.w3.org/1999/xlink">
    <title>Icon/Squad/Filled</title>
    <g id="💎-Icons" stroke="none" stroke-width="1" fill="none" fill-rule="evenodd">
        <g id="Icon/Squad/Filled" fill="#FFFFFF">
            <path d="M14.7751262,13.194662 C15.5601853,13.1948871 16.3452445,13.3267474 17.1303036,13.5902477 L17.4667575,13.711236 L17.7032357,13.823349 L17.9332233,13.9440701 C19.6710793,14.9019364 20.8193806,16.59597 20.9802038,18.5021025 L20.9955479,18.7518882 L20.997,18.842 L20.9914112,18.9207416 L20.9673276,19.0230476 C20.8936523,19.2548598 20.7008443,19.4348329 20.4567312,19.4887396 L20.349168,19.5039076 L9.20380924,19.5028706 L9.13481027,19.4981366 L9.03250356,19.4740616 C8.80068286,19.4004488 8.62064157,19.2081405 8.56619082,18.9680256 L8.551,18.869 L8.55438111,18.7269019 L8.57087511,18.4784109 C8.75461853,16.4173218 10.0891508,14.6068144 12.0834948,13.7097253 C12.9807052,13.3661012 13.8779157,13.194415 14.7751262,13.194662 Z M6.99191324,18.656966 L6.99316122,18.8342748 L6.994,18.805 L7.01384086,18.98484 C7.02284126,19.0489871 7.03425277,19.1121423 7.04797705,19.174216 L7.0959899,19.357103 L7.14494614,19.500909 L3.61460683,19.500909 L3.5499199,19.496437 L3.45400678,19.473867 C3.23667356,19.4048546 3.06788382,19.224564 3.01683593,18.999455 L3.003,18.906 L3.00576426,18.8077721 L3.02122748,18.5748103 C3.19348798,16.6425276 4.44461954,14.9451665 6.31432843,14.1041404 C7.15546834,13.7819909 7.99660826,13.6210341 8.83774817,13.6212654 C8.98923124,13.6212654 9.14071431,13.6265823 9.29087383,13.6386576 L9.10965701,13.8148089 C7.8404231,15.0899558 7.07829468,16.7567109 6.99954036,18.5589591 L6.994,18.794 L6.99191324,18.656966 Z M8.83625727,5.46997017 C7.09031761,5.46997017 5.67495387,6.88533391 5.67495387,8.63127357 C5.67495387,9.75357437 6.25978187,10.7392813 7.14131022,11.3002666 C7.63193117,11.6122347 8.21303363,11.792577 8.83625727,11.792577 C9.30367501,11.792577 9.74739957,11.6911345 10.1466162,11.5090643 L10.3424191,11.4114066 L10.5306271,11.2997009 L10.692468,11.1897089 C10.7991579,11.1122725 10.9008082,11.0283259 10.9968377,10.9384524 C10.2668737,10.0692051 9.84517487,8.95620924 9.84517487,7.77203648 C9.84517487,7.1586763 9.95722295,6.57148635 10.1619669,6.02981888 L10.252893,5.80611287 C9.82878193,5.59092104 9.3466444,5.46997017 8.83625727,5.46997017 Z M14.7735359,4.5 C12.9112116,4.5 11.4014994,6.00971216 11.4014994,7.87203648 C11.4014994,9.06915007 12.0253121,10.1205644 12.9656033,10.7189451 C13.4889292,11.0517091 14.108768,11.244073 14.7735359,11.244073 C15.2721118,11.244073 15.7454151,11.1358683 16.1712435,10.9416612 L16.3800987,10.8374937 L16.5808527,10.7183417 L16.7534819,10.6010176 C17.5972994,9.98856846 18.1455724,8.99433047 18.1455724,7.87203648 C18.1455724,6.00971216 16.6358602,4.5 14.7735359,4.5 Z" id="Combined-Shape"></path>
        </g>
    </g>
</svg>