<?xml version="1.0" encoding="UTF-8"?>
<svg width="24px" height="24px" viewBox="0 0 24 24" version="1.1" xmlns="http://www.w3.org/2000/svg" xmlns:xlink="http://www.w3.org/1999/xlink">
    <title>Icon/Squad/Outline</title>
    <g id="💎-Icons" stroke="none" stroke-width="1" fill="none" fill-rule="evenodd">
        <g id="Icon/Squad/Outline" fill="#FFFFFF">
            <path d="M4.87079612,20.001458 L4.63558805,19.9851764 L4.52839536,19.9731574 C3.74470277,19.8508495 3.13327608,19.2304877 3.017612,18.4061332 L3.00241286,18.2586011 L3,18.1427887 L3.00100237,17.8434478 L3.00612601,17.6223177 C3.10288171,15.4081182 4.48387668,13.4485456 6.6424147,12.479821 C6.80831852,12.4162812 6.97462654,12.3587899 7.14129247,12.307377 L7.12687647,12.2995856 C5.99370232,11.5784583 5.29170378,10.3276717 5.29170378,8.95839743 C5.29170378,6.7722349 7.06393867,5 9.25010121,5 C9.93126766,5 10.5722489,5.17205325 11.1319574,5.47507219 L11.1501196,5.45214901 C11.9242127,4.56242485 13.0647927,4 14.3367341,4 C16.6686267,4 18.5589991,5.89037241 18.5589991,8.22226495 C18.5589991,9.61370926 17.8793915,10.8903321 16.7399783,11.6909034 L16.5841531,11.7940837 L16.8531796,11.8820716 L17.1215837,11.979955 L17.2152838,12.0200664 L17.4422744,12.1279868 C19.4723831,13.1415386 20.8166749,15.0755108 20.9867305,17.2818368 L21.0004352,17.5192415 L21.0044668,17.7554013 L21.0042197,18.0682793 L21.0002526,18.1700101 L20.9931414,18.2619848 L20.9811617,18.3648027 C20.8500938,19.2046261 20.1841387,19.8558892 19.3475166,19.9741976 L19.1981799,19.9894731 L19.0097726,20.001458 L4.87079612,20.001458 Z M9.69327008,13.1984275 L9.63958395,13.2483636 C9.51093808,13.2380183 9.38115829,13.2335027 9.2513785,13.233466 C8.53075037,13.2332651 7.81012224,13.3711613 7.08949411,13.6471558 C5.48766213,14.3676864 4.41578267,15.8218632 4.26820227,17.4773039 L4.2549545,17.6768888 L4.25072514,17.8707169 L4.2500161,18.1460082 L4.25204542,18.2274716 L4.26443991,18.3123096 C4.30817407,18.5051668 4.45278096,18.6596264 4.63897643,18.7187513 L4.72114788,18.7380877 L4.77656698,18.7418899 L7.80110757,18.7419192 L7.7591654,18.6187161 C7.72789224,18.5162152 7.7042078,18.4097018 7.68878601,18.2997885 L7.6725737,18.142422 L7.67,18.0188894 L7.67106919,17.6995944 L7.67653437,17.4637238 C7.74822234,15.823185 8.48084624,14.3136904 9.69327008,13.1984275 Z M14.3380966,12.7823104 C13.5694312,12.7820961 12.8007659,12.9291845 12.0321006,13.2235768 C10.3234902,13.9921382 9.18015901,15.5432506 9.02274088,17.3090433 L9.00861,17.5219326 L9.00409871,17.7286813 L9.0033424,18.0223236 L9.00550701,18.1092174 L9.01872771,18.1997106 C9.0653772,18.4054238 9.21962361,18.5701797 9.4182309,18.6332458 L9.50587992,18.6538712 L9.56499327,18.6579269 L19.1135343,18.6588158 L19.2056868,18.6458208 C19.4148253,18.5996374 19.5800094,18.4454492 19.6431291,18.2468492 L19.6637621,18.1592012 L19.6708733,18.0672264 L19.6711204,17.7543484 L19.6673062,17.5433391 L19.6541604,17.3293406 C19.5163786,15.6963035 18.5325968,14.2449775 17.0437268,13.4243466 L16.84669,13.3209214 L16.6440926,13.2248711 L16.3558431,13.121217 C15.6832609,12.895469 15.0106787,12.7825005 14.3380966,12.7823104 Z M9.25010121,6.25002024 C7.75430579,6.25002024 6.54172402,7.46260201 6.54172402,8.95839743 C6.54172402,9.91990397 7.04276255,10.7643867 7.79799258,11.2449986 C8.21832129,11.5122704 8.71616805,11.6667746 9.25010121,11.6667746 C9.65055107,11.6667746 10.0307023,11.579866 10.3727224,11.4238813 L10.5404722,11.3402153 L10.7017153,11.2445139 L10.8403689,11.1502806 C10.9317732,11.0839387 11.0188599,11.0120193 11.101131,10.9350222 C10.4757504,10.1903137 10.1144692,9.23677893 10.1144692,8.22226495 C10.1144692,7.60920162 10.2451287,7.02665546 10.4801199,6.50095425 L10.4637727,6.53800311 C10.1004249,6.35364225 9.68736415,6.25002024 9.25010121,6.25002024 Z M14.3367341,5.33334682 C12.7412287,5.33334682 11.447816,6.62675952 11.447816,8.22226495 C11.447816,9.2478657 11.9822539,10.1486418 12.7878277,10.6612913 C13.2361756,10.9463795 13.7672089,11.1111831 14.3367341,11.1111831 C14.7638781,11.1111831 15.1693703,11.0184811 15.5341894,10.8520985 L15.7131215,10.7628552 L15.8851131,10.6607744 L16.0330094,10.5602595 C16.7559315,10.0355572 17.2256522,9.18376565 17.2256522,8.22226495 C17.2256522,6.62675952 15.9322395,5.33334682 14.3367341,5.33334682 Z" id="Combined-Shape"></path>
        </g>
    </g>
</svg>