<svg xmlns="http://www.w3.org/2000/svg" width="24" height="24" fill="currentColor" viewBox="0 0 24 24">
  <path fill-rule="evenodd" d="M11.477 2.158a.947.947 0 0 1 1.046 0l9.054 6.008a.947.947 0 0 1 .423.789v6.09a.947.947 0 0 1-.423.789l-9.054 6.008a.947.947 0 0 1-1.046 0l-9.054-6.008A.947.947 0 0 1 2 15.045v-6.09c0-.317.159-.614.423-.789l9.054-6.008Zm-7.584 8.56v2.55L5.8 11.985l-1.907-1.266Zm3.615 2.4L4.65 15.04l6.403 4.25v-3.82l-3.545-2.352Zm5.439 2.353v3.818l6.403-4.25-2.858-1.921-3.546 2.353Zm5.253-3.486 1.907 1.283v-2.55L18.2 11.986Zm1.142-3.03L16.5 10.84l-3.553-2.39V4.71l6.395 4.244ZM11.054 4.71v3.74L7.5 10.84 4.658 8.955l6.395-4.244ZM12 10.095l-2.792 1.879L12 13.827l2.792-1.853L12 10.095Z" clip-rule="evenodd"/>
</svg>
