<?xml version="1.0" encoding="UTF-8"?>
<svg width="24px" height="24px" viewBox="0 0 24 24" version="1.1" xmlns="http://www.w3.org/2000/svg" xmlns:xlink="http://www.w3.org/1999/xlink">
    <title>Icon/Filter/Filled</title>
    <g id="Icon/Filter/Filled" stroke="none" stroke-width="1" fill="none" fill-rule="evenodd">
        <path d="M17.4000062,12 C19.3172232,12 20.8843992,13.498704 20.9938949,15.3884727 L21,15.6 L21,17.4 C21,19.3172171 19.5013022,20.8843931 17.6115335,20.9938888 L17.4000062,21 L15.6000062,21 C13.8908129,21 12.4598207,19.8088797 12.0918277,18.2114373 L12.0499215,18.0008354 L4.5,18 L4.34664016,17.9922557 C3.64068165,17.9205617 3.07943915,17.3593248 3.00774441,16.6533663 L3,16.5 L3.00775096,16.3466337 L3.03048136,16.1976977 C3.16036009,15.5629962 3.69110705,15.0743173 4.34663988,15.0077443 L4.5,15 L12.0497219,15.0003536 C12.3233272,13.3685017 13.694755,12.1088329 15.378659,12.0066935 L15.6000062,12 L17.4000062,12 Z M8.40000616,3 C10.1839274,3 11.6647893,4.29755164 11.9502904,6.00035363 L19.5000062,6 C20.2248799,6 20.8296616,6.51417298 20.969531,7.19769768 L20.9922614,7.34663371 L21.0000062,7.5 C21.0000062,8.27665043 20.4097563,8.91544068 19.6533722,8.99225567 L19.5000062,9 L11.9500908,9.00083541 C11.6640998,10.7030524 10.1835122,12 8.40000616,12 L6.60000616,12 C4.61178106,12 3.00000616,10.3882251 3.00000616,8.4 L3.00000616,6.6 C3.00000616,4.6117749 4.61178106,3 6.60000616,3 L8.40000616,3 Z" id="Shape" fill="#FFFFFF"></path>
    </g>
</svg>