<?xml version="1.0" encoding="UTF-8"?>
<svg width="24px" height="24px" viewBox="0 0 24 24" version="1.1" xmlns="http://www.w3.org/2000/svg" xmlns:xlink="http://www.w3.org/1999/xlink">
    <title>Icon/Filter/Filled</title>
    <g id="Icon/Filter/Filled" stroke="none" stroke-width="1" fill="none" fill-rule="evenodd">
        <path d="M16.4999949,12 C18.0976809,12 19.4036609,13.24892 19.4949073,14.8237272 L19.4999949,15 L19.4999949,16.5 C19.4999949,18.0976809 18.25108,19.4036609 16.6762728,19.4949073 L16.4999949,19.5 L14.9999949,19.5 C13.5756723,19.5 12.3831788,18.5073997 12.076518,17.1761977 L12.0415961,17.0006962 L5.75,17 L5.622195,16.9935464 C5.03389624,16.9338014 4.56619416,16.466104 4.50644854,15.8778052 L4.49999487,15.75 L4.506454,15.6221948 L4.525396,15.4980814 C4.63362827,14.9691635 5.07591741,14.5619311 5.62219477,14.5064536 L5.75,14.5 L12.0414298,14.5002947 C12.2694342,13.1404181 13.4122907,12.0906941 14.815544,12.0055779 L14.9999949,12 L16.4999949,12 Z M9,4.5 C10.4866011,4.5 11.7206526,5.58129303 11.9585702,7.00029469 L18.25,7 C18.8540614,7 19.3580462,7.42847749 19.474604,7.9980814 L19.493546,8.12219476 L19.5,8.25 C19.5,8.89720869 19.0081251,9.4295339 18.377805,9.49354639 L18.25,9.5 L11.9584039,9.50069618 C11.7200781,10.9192103 10.486255,12 9,12 L7.5,12 C5.84314575,12 4.5,10.6568542 4.5,9 L4.5,7.5 C4.5,5.84314575 5.84314575,4.5 7.5,4.5 L9,4.5 Z" id="Shape" fill="#FFFFFF"></path>
    </g>
</svg>