<?xml version="1.0" encoding="UTF-8"?>
<svg width="24px" height="24px" viewBox="0 0 24 24" version="1.1" xmlns="http://www.w3.org/2000/svg" xmlns:xlink="http://www.w3.org/1999/xlink">
    <title>Icon/Filter/Outline</title>
    <g id="Icon/Filter/Outline" stroke="none" stroke-width="1" fill="none" fill-rule="evenodd">
        <path d="M16.5,12 C18.1568542,12 19.5,13.3431458 19.5,15 L19.5,16.5 C19.5,18.1568542 18.1568542,19.5 16.5,19.5 L15,19.5 C13.3431458,19.5 12,18.1568542 12,16.5 L5.25,16.5 C4.83578644,16.5 4.5,16.1642136 4.5,15.75 C4.5,15.3357864 4.83578644,15 5.25,15 L12,15 C12,13.3431458 13.3431458,12 15,12 L16.5,12 Z M16.5,13.5 L15,13.5 C14.2203039,13.5 13.5795513,14.0948881 13.5068666,14.85554 L13.5,15 L13.5,16.5 C13.5,17.2796961 14.0948881,17.9204487 14.85554,17.9931334 L15,18 L16.5,18 C17.2796961,18 17.9204487,17.4051119 17.9931334,16.64446 L18,16.5 L18,15 C18,14.2203039 17.4051119,13.5795513 16.64446,13.5068666 L16.5,13.5 Z M9,4.5 C10.6568542,4.5 12,5.84314575 12,7.5 L18.75,7.5 C19.1642136,7.5 19.5,7.83578644 19.5,8.25 C19.5,8.66421356 19.1642136,9 18.75,9 L12,9 C12,10.6568542 10.6568542,12 9,12 L7.5,12 C5.84314575,12 4.5,10.6568542 4.5,9 L4.5,7.5 C4.5,5.84314575 5.84314575,4.5 7.5,4.5 L9,4.5 Z M7.5,6 C6.72030388,6 6.07955132,6.59488808 6.00686658,7.35553999 L6,7.5 L6,9 C6,9.77969612 6.59488808,10.4204487 7.35553999,10.4931334 L7.5,10.5 L9,10.5 C9.77969612,10.5 10.4204487,9.90511192 10.4931334,9.14446001 L10.5,9 L10.5,7.5 C10.5,6.72030388 9.90511192,6.07955132 9.14446001,6.00686658 L9,6 L7.5,6 Z" id="Shape" fill="#FFFFFF"></path>
    </g>
</svg>