<svg width="24" height="24" viewBox="0 0 24 24" fill="none" xmlns="http://www.w3.org/2000/svg">
  <g id="Filled=yes">
    <path d="M12 22L16.9318 19.5207C17.6393 19.165 18.2852 18.697 18.8445 18.1346C20.2246 16.747 21 14.8649 21 12.9024V5.45624C21 5.12857 20.7915 4.83765 20.4823 4.73403L12.6325 2.10319C12.2219 1.9656 11.7781 1.9656 11.3675 2.10319L3.51773 4.73403C3.20855 4.83765 3 5.12856 3 5.45624V12.9024C3 14.8649 3.77537 16.747 5.15552 18.1346C5.71485 18.697 6.36069 19.165 7.06819 19.5207L12 22ZM12 7C13.6568 7 15 8.34315 15 10C15 10.9118 14.5901 11.7553 13.8982 12.3221L13.7561 12.4317L13.6024 12.5357L13.4294 12.6382C12.9942 12.8744 12.5059 13 12 13C11.4226 13 10.869 12.8364 10.3914 12.5327C9.53173 11.9856 8.99999 11.0382 8.99999 10C8.99999 8.34315 10.3431 7 12 7ZM16.4667 17.9527L16.4771 18.0574C16.4059 18.097 16.3339 18.1351 16.261 18.1717L12 20.3138L7.73899 18.1717C7.66593 18.135 7.5937 18.0968 7.52234 18.0571C7.676 16.4776 8.63396 15.0918 10.0686 14.3975C10.6311 14.1657 11.1947 14.0351 11.7589 14.0062L12.0007 14C12.4846 14.0002 12.9681 14.0751 13.4531 14.2254L13.6958 14.3069L13.9455 14.4045L14.1128 14.49C15.411 15.1876 16.2887 16.4791 16.4667 17.9527Z" />
  </g>
</svg>
