<svg width="24" height="24" viewBox="0 0 24 24" fill="none" xmlns="http://www.w3.org/2000/svg">
  <g id="iconLeft">
    <g id="Vector">
      <path fill-rule="evenodd" clip-rule="evenodd" d="M12 22L16.9318 19.5207C17.6393 19.165 18.2852 18.697 18.8445 18.1346C20.2246 16.747 21 14.8649 21 12.9024V5.45624C21 5.12857 20.7915 4.83765 20.4823 4.73403L12.6325 2.10319C12.2219 1.9656 11.7781 1.9656 11.3675 2.10319L3.51773 4.73403C3.20855 4.83765 3 5.12856 3 5.45624V12.9024C3 14.8649 3.77537 16.747 5.15552 18.1346C5.71485 18.697 6.36069 19.165 7.06819 19.5207L12 22ZM19.5 5.99456L12.1581 3.53396C12.0555 3.49956 11.9445 3.49956 11.8419 3.53396L4.5 5.99456V12.9024C4.5 14.4649 5.11733 15.9634 6.21618 17.0682C6.66151 17.5159 7.17571 17.8886 7.73901 18.1717L12 20.3138L16.261 18.1717C16.8243 17.8886 17.3385 17.5159 17.7838 17.0682C18.8827 15.9634 19.5 14.4649 19.5 12.9024V5.99456Z" fill="white"/>
      <path fill-rule="evenodd" clip-rule="evenodd" d="M12.0008 14C12.4846 14.0002 12.9681 14.0751 13.4531 14.2254L13.6958 14.3069L13.9455 14.4045L14.1129 14.49C15.411 15.1876 16.2887 16.4791 16.4667 17.9527L16.4859 18.1459L16.4969 18.3409L16.5 18.5285L16.4993 18.816L16.4919 18.9111C16.4547 19.1675 16.2905 19.3793 16.0583 19.4694L15.9682 19.4973L15.8295 19.506C11.7589 21.7916 7.79193 19.7773 7.54062 19.0407L7.51435 18.9446L7.50181 18.8425L7.5 18.7614L7.50065 18.5017L7.50444 18.3172C7.5729 16.6308 8.5557 15.1297 10.0687 14.3975C10.6311 14.1657 11.1947 14.0351 11.7589 14.0062L12.0008 14Z" fill="white"/>
      <path fill-rule="evenodd" clip-rule="evenodd" d="M12 7C13.6569 7 15 8.34315 15 10C15 10.9118 14.5901 11.7553 13.8982 12.3221L13.7561 12.4317L13.6024 12.5357L13.4295 12.6382C12.9942 12.8744 12.5059 13 12 13C11.4226 13 10.869 12.8364 10.3914 12.5327C9.53174 11.9856 9 11.0382 9 10C9 8.34315 10.3431 7 12 7Z" fill="white"/>
    </g>
  </g>
</svg>
