<svg width="24" height="24" viewBox="0 0 24 24" fill="none" xmlns="http://www.w3.org/2000/svg">
<g id="Filled=yes">
<g id="Shape">
<path d="M14.5071 4.80621L14.282 4.80007L9.6568 4.79999L9.446 4.80512L9.22896 4.82136L9.01308 4.84922C7.37126 5.10472 6.04329 6.31667 5.65032 7.94744C5.51668 8.49944 5.85595 9.05514 6.40823 9.18885C6.48631 9.20762 6.56706 9.21671 6.6514 9.21671C6.83113 9.21671 7.00935 9.16913 7.16183 9.08178L7.25595 9.01972L7.35567 8.93632L7.45121 8.83286L7.51975 8.73569C7.58159 8.6376 7.6237 8.53642 7.64946 8.4292L7.69496 8.26943C7.93546 7.53749 8.5641 7.00165 9.33668 6.88204L9.50301 6.86277L9.66027 6.85748L14.2884 6.85785L14.4417 6.86383L14.5922 6.88113L14.7555 6.91225C15.5606 7.10047 16.1877 7.77152 16.3146 8.61228L16.3328 8.77325L16.3377 8.92491L16.3372 10.0582L15.4822 9.20318L15.3875 9.11839L15.265 9.03403L15.1393 8.97337C14.7559 8.81798 14.3236 8.90098 14.0334 9.19273C13.7162 9.50904 13.6437 9.99803 13.8495 10.3835L13.9259 10.503L14.0229 10.6174L16.6391 13.2359L16.7324 13.32L16.8577 13.4064L16.9806 13.4658C17.2302 13.5682 17.4998 13.5712 17.7372 13.4775L17.854 13.4213L17.9703 13.3464L18.0744 13.2579L20.6925 10.6402L20.7767 10.5469L20.8615 10.4248L20.9177 10.3108C21.0805 9.92483 20.9982 9.4859 20.7023 9.19155C20.3857 8.87498 19.8974 8.80264 19.5122 9.0079L19.3927 9.08416L19.2789 9.18046L18.3979 10.0613L18.3952 8.92089L18.3904 8.71632L18.3744 8.50037L18.3482 8.2942C18.0671 6.45321 16.5749 5.01592 14.716 4.8225L14.5071 4.80621Z" id="Shape" fill="#FFFFFF"/>
<path d="M6.8719 10.4878C6.62732 10.4279 6.36636 10.4597 6.1466 10.5806L6.03836 10.6507L5.92598 10.7458L3.3075 13.3639L3.22329 13.4571L3.13843 13.5793L3.08223 13.6933C2.91952 14.0792 3.00181 14.5182 3.29769 14.8125C3.43684 14.9517 3.61302 15.0478 3.79972 15.0882L3.92036 15.1057L4.04034 15.1098L4.17876 15.0964L4.28681 15.0729L4.36304 15.0487C4.41099 15.0316 4.45374 15.0126 4.49446 14.9911L4.60604 14.9207L4.72109 14.8236L5.6007 13.9429L5.60474 15.0832L5.60961 15.2877L5.62555 15.5037L5.65176 15.7099C5.93285 17.5509 7.42503 18.9881 9.28401 19.1816L9.49283 19.1978L9.71113 19.204L14.3432 19.2041L14.554 19.1989L14.771 19.1827L14.9869 19.1548C16.6287 18.8993 17.9567 17.6874 18.3497 16.0566C18.4317 15.7177 18.3367 15.361 18.103 15.1122L18.0103 15.0262L17.9245 14.9618L17.826 14.9034L17.7454 14.8659C17.6931 14.8439 17.6431 14.8276 17.5917 14.8152C17.5137 14.7964 17.4329 14.7873 17.3486 14.7873C16.8751 14.7873 16.4616 15.1123 16.3505 15.5749L16.305 15.7346C16.0645 16.4666 15.4359 17.0024 14.6633 17.122L14.497 17.1413L14.3397 17.1466L9.71162 17.1462L9.55823 17.1402L9.40779 17.1229L9.24449 17.0918C8.43937 16.9036 7.81225 16.2325 7.68534 15.3918L7.66718 15.2308L7.66224 15.0791L7.66139 13.9429L8.51782 14.8009L8.61251 14.8857L8.73678 14.9711L8.83737 15.0227C8.90281 15.0523 8.96556 15.073 9.02905 15.0871L9.1526 15.1055L9.27357 15.1098L9.41195 15.0964L9.55789 15.0613L9.67587 15.0144C9.7881 14.9624 9.88357 14.8948 9.96661 14.8113C10.2837 14.495 10.3563 14.006 10.1505 13.6205L10.0741 13.501L9.97707 13.3867L7.36355 10.7704L7.25912 10.678L7.14417 10.5988L7.00999 10.5328L6.8719 10.4878Z" id="Shape" fill="#FFFFFF"/>
</g>
</g>
</svg>
