<svg width="24" height="24" viewBox="0 0 24 24" fill="none" xmlns="http://www.w3.org/2000/svg">
<g id="Filled=no">
<g id="Shape" stroke="none" stroke-width="1" fill="none" fill-rule="evenodd">
<path d="M14.9178 5.0053L14.7119 5H9.22258L9.02385 5.00491L8.82576 5.02005C7.2519 5.18178 5.94642 6.31122 5.57129 7.86791C5.47381 8.27055 5.72117 8.67555 6.12377 8.77301C6.17998 8.78653 6.23892 8.79308 6.30131 8.79308C6.43457 8.79308 6.5647 8.75715 6.67318 8.695L6.7502 8.64363L6.82261 8.5812L6.8925 8.50317C6.95662 8.42053 7.00305 8.32451 7.02834 8.21923C7.24457 7.32652 7.97217 6.6662 8.87317 6.52671L9.04405 6.50673L9.21631 6.50008L14.7245 6.50025L14.883 6.50624L15.0473 6.5244C16.0219 6.66845 16.7931 7.4368 16.9412 8.41826L16.9601 8.58373L16.9663 8.75008V10.4656L15.708 9.20665L15.6267 9.13435L15.5355 9.07378C15.2523 8.91466 14.8904 8.95834 14.6539 9.19609C14.4187 9.43064 14.3731 9.78728 14.5184 10.0595L14.5819 10.1572L14.6541 10.2393L17.1862 12.7731L17.2668 12.8452L17.3601 12.9071C17.5539 13.0153 17.7874 13.03 17.985 12.9521L18.0804 12.9054L18.1645 12.8493L18.2395 12.7833L20.7725 10.2499L20.8451 10.169L20.9059 10.0783C21.0655 9.79613 21.0216 9.43371 20.7825 9.19586C20.5479 8.96126 20.1917 8.91577 19.9196 9.06075L19.8219 9.12405L19.7402 9.19576L18.4709 10.4665L18.4664 8.75621L18.4617 8.56273L18.4469 8.36558C18.2676 6.60423 16.8693 5.20315 15.1142 5.02054L14.9178 5.0053Z" id="Shape" fill="#FFFFFF"/>
<path d="M6.54387 11.0488C6.34298 10.9722 6.11587 10.9862 5.93112 11.0878L5.84259 11.1459L5.76081 11.2175L3.22778 13.7509L3.15517 13.8318L3.09441 13.9226C2.93477 14.2047 2.97869 14.5671 3.21777 14.805C3.32161 14.9088 3.45061 14.9774 3.58223 15.0058L3.6811 15.0196L3.76828 15.0213L3.86956 15.0097L3.94609 14.9919C3.99613 14.9774 4.04392 14.9581 4.08765 14.9349L4.1784 14.8768L4.26011 14.8051L5.52937 13.5343L5.53392 15.2446L5.53859 15.4381L5.55345 15.6353C5.73272 17.3966 7.13102 18.7977 8.88607 18.9803L9.0825 18.9955L9.282 19.0008H14.7777L14.9765 18.9959L15.1745 18.9808C16.7484 18.8191 18.0539 17.6896 18.429 16.1329C18.49 15.8812 18.4166 15.622 18.2501 15.4448L18.1731 15.3741L18.112 15.3297L18.0381 15.287C17.9872 15.2614 17.9331 15.2415 17.8765 15.2278C17.8203 15.2143 17.7614 15.2078 17.699 15.2078C17.3558 15.2078 17.0533 15.443 16.972 15.7816C16.7557 16.6743 16.0281 17.3346 15.1271 17.4741L14.9563 17.4941L14.784 17.5008L9.27582 17.5006L9.1173 17.4946L8.95304 17.4764C7.97839 17.3324 7.20723 16.5641 7.05908 15.5826L7.04023 15.4171L7.034 15.2508V13.5352L8.29227 14.7942L8.3736 14.8665L8.46645 14.9281C8.53063 14.9641 8.59871 14.99 8.66662 15.0051L8.76784 15.0196L8.85501 15.0213L8.95625 15.0097L9.06393 14.982C9.16895 14.9461 9.26525 14.8864 9.34645 14.8048C9.58161 14.5702 9.62722 14.2136 9.48189 13.9413L9.41844 13.8436L9.34618 13.7615L6.81665 11.23L6.727 11.1513L6.6418 11.0946L6.54387 11.0488Z" id="Shape" fill="#FFFFFF"/>
</g>
</g>
</svg>
