<svg width="24" height="24" viewBox="0 0 24 24" fill="currentColor" xmlns="http://www.w3.org/2000/svg">
  <path fill-rule="evenodd" clip-rule="evenodd" d="M12 21.8918L16.9318 19.4259C17.6393 19.0722 18.2852 18.6067 18.8445 18.0473C20.2246 16.6672 21 14.7953 21 12.8434V5.43755C21 5.11164 20.7915 4.8223 20.4823 4.71924L12.6325 2.10263C12.2219 1.96579 11.7781 1.96579 11.3675 2.10263L3.51773 4.71924C3.20855 4.8223 3 5.11164 3 5.43755V12.8434C3 14.7953 3.77537 16.6672 5.15552 18.0473C5.71485 18.6067 6.36069 19.0722 7.06819 19.4259L12 21.8918ZM11.6667 8L12 8.00024L12.3333 8C12.3347 10.0245 13.9755 11.6653 16 11.6667L15.9998 12L16 12.3333C13.9755 12.3347 12.3347 13.9755 12.3333 16L12 15.9998L11.6667 16C11.6653 13.9755 10.0245 12.3347 8 12.3333L8.00024 12L8 11.6667C10.0245 11.6653 11.6653 10.0245 11.6667 8Z" />
</svg>
