<?xml version="1.0" encoding="UTF-8"?>
<svg width="24px" height="24px" viewBox="0 0 24 24" version="1.1" xmlns="http://www.w3.org/2000/svg">
    <title>Icon/NumberedList/Outline</title>
    <g id="Icon/NumberedList/Outline" stroke="none" stroke-width="1" fill="none" fill-rule="evenodd">
        <path d="M3,4 L3,8 L4,8 L4,4.5 L3.5,4.75 L3,4 L4.5,3 L5,3.5 L5,8 L6,8 L6,9 L3,9 L3,8 L3,4 Z M8,5 L20,5 C20.5522847,5 21,5.44771525 21,6 C21,6.55228475 20.5522847,7 20,7 L8,7 C7.44771525,7 7,6.55228475 7,6 C7,5.44771525 7.44771525,5 8,5 Z M3,11 L6,11 L6,12 L4,12 L4,13 L5.5,13 C5.77614237,13 6,13.2238576 6,13.5 L6,15 C6,15.5522847 5.55228475,16 5,16 L3,16 L3,15 L5,15 L5,14 L3.5,14 C3.22385763,14 3,13.7761424 3,13.5 L3,11.5 C3,11.2238576 3.22385763,11 3.5,11 L3,11 Z M8,11 L20,11 C20.5522847,11 21,11.4477153 21,12 C21,12.5522847 20.5522847,13 20,13 L8,13 C7.44771525,13 7,12.5522847 7,12 C7,11.4477153 7.44771525,11 8,11 Z M3,18 L6,18 L6,19 L4,19 L4,19.5 L5.5,19.5 L5.5,20.5 L4,20.5 L4,21 L6,21 L6,22 L3,22 L3,18 Z M8,17 L20,17 C20.5522847,17 21,17.4477153 21,18 C21,18.5522847 20.5522847,19 20,19 L8,19 C7.44771525,19 7,18.5522847 7,18 C7,17.4477153 7.44771525,17 8,17 Z" fill="#FFFFFF" fill-rule="nonzero"></path>
    </g>
</svg>
