<?xml version="1.0" encoding="UTF-8"?>
<svg width="24px" height="24px" viewBox="0 0 24 24" version="1.1" xmlns="http://www.w3.org/2000/svg" xmlns:xlink="http://www.w3.org/1999/xlink">
    <title>Icon/Integration/Filled</title>
    <g id="💎-Icons" stroke="none" stroke-width="1" fill="none" fill-rule="evenodd">
        <g id="Icon/Integration/Filled" fill="#FFFFFF">
            <path d="M14.4710679,3.3252135 C14.7759208,3.6302577 14.8766038,4.08437752 14.7292691,4.48980218 L12.4035101,10.8896517 L18.0903481,10.8896517 C18.7031921,10.8896517 19.2,11.3867715 19.2,12 C19.2,12.2944827 19.0830908,12.5769041 18.8749907,12.7851348 L11.0982178,20.6747865 C10.6648717,21.1084045 9.96227878,21.1084045 9.52893263,20.6747865 C9.22407968,20.3697423 9.12339666,19.9156225 9.27073138,19.5101978 L11.5964903,13.1103483 L5.90965188,13.1103483 C5.29680788,13.1103483 4.8,12.6132285 4.8,12 C4.8,11.7055173 4.91690915,11.4230959 5.12500931,11.2148652 L12.9017826,3.3252135 C13.3351288,2.8915955 14.0377217,2.8915955 14.4710679,3.3252135 Z" id="Path"></path>
        </g>
    </g>
</svg>