<?xml version="1.0" encoding="UTF-8"?>
<svg width="24px" height="24px" viewBox="0 0 24 24" version="1.1" xmlns="http://www.w3.org/2000/svg">
    <title>Icon/Italic/Outline</title>
    <g id="Icon/Italic/Outline" stroke="none" stroke-width="1" fill="none" fill-rule="evenodd">
        <path d="M10,4 L18,4 C18.5522847,4 19,4.44771525 19,5 C19,5.55228475 18.5522847,6 18,6 L14.8685714,6 L11.1314286,18 L14,18 C14.5522847,18 15,18.4477153 15,19 C15,19.5522847 14.5522847,20 14,20 L6,20 C5.44771525,20 5,19.5522847 5,19 C5,18.4477153 5.44771525,18 6,18 L9.13142857,18 L12.8685714,6 L10,6 C9.44771525,6 9,5.55228475 9,5 C9,4.44771525 9.44771525,4 10,4 Z" fill="#FFFFFF" fill-rule="nonzero"></path>
    </g>
</svg>
