<svg width="24" height="24" viewBox="0 0 24 24" fill="none" xmlns="http://www.w3.org/2000/svg">
  <title>Notification Add</title>
  <desc>Add notification icon</desc>
  <g>
    <g>
      <path d="M16 3.75C16 3.33579 15.6642 3 15.25 3C14.8358 3 14.5 3.33579 14.5 3.75V6.25H12C11.5858 6.25 11.25 6.58579 11.25 7C11.25 7.41421 11.5858 7.75 12 7.75H14.5V10.25C14.5 10.6642 14.8358 11 15.25 11C15.6642 11 16 10.6642 16 10.25V7.75H18.5C18.9142 7.75 19.25 7.41421 19.25 7C19.25 6.58579 18.9142 6.25 18.5 6.25H16V3.75Z" fill="#0E1217"/>
      <path d="M10 7C10 6.74796 10.0186 6.50027 10.0546 6.25824C7.86126 7.03093 6.26737 9.07503 6.15622 11.506L6.15001 11.7779V15.148C6.15001 15.6453 5.77806 16.0556 5.29731 16.1158L5.06131 16.1299C4.5764 16.1863 4.20001 16.5985 4.20001 17.0987C4.20001 17.5959 4.57196 18.0062 5.05271 18.0664L5.17501 18.074H9.07501L9.07998 18.2459C9.16524 19.7179 10.3382 20.8979 11.8068 20.9937L12 21L12.1923 20.9938C13.6518 20.899 14.8195 19.7335 14.9182 18.2747L14.925 18.074H18.825L18.9473 18.0664C19.4281 18.0062 19.8 17.5959 19.8 17.0987C19.8 16.6015 19.4281 16.1912 18.9473 16.131L18.7113 16.1168C18.2668 16.0652 17.9135 15.7145 17.8577 15.2711L17.85 15.148V11.7779L17.846 11.5585C17.8407 11.4153 17.8303 11.2734 17.8149 11.1329C17.0131 11.6801 16.0439 12 15 12C12.2386 12 10 9.76142 10 7Z" fill="#0E1217"/>
    </g>
  </g>
</svg>
