<?xml version="1.0" encoding="UTF-8"?>
<svg width="24px" height="24px" viewBox="0 0 24 24" version="1.1" xmlns="http://www.w3.org/2000/svg" xmlns:xlink="http://www.w3.org/1999/xlink">
    <title>Icon/Bell/Filled</title>
    <g stroke="none" stroke-width="1" fill="none" fill-rule="evenodd">
        <g id="Icon/Bell/Filled" fill="#FFFFFF">
            <path d="M12,5.92597533 C11.4760758,5.92597533 10.9682381,5.99487253 10.485047,6.1241039 L10.3077704,6.17554605 C7.98479422,6.87580447 6.27159369,8.98245194 6.15620409,11.5059961 L6.15,11.777926 L6.15,15.1480493 C6.15,15.6452714 5.77805195,16.0555913 5.29730193,16.1157753 L5.0612944,16.1299362 C4.57638919,16.1862759 4.2,16.5985179 4.2,17.0986996 C4.2,17.5959216 4.57194805,18.0062415 5.05269807,18.0664255 L5.175,18.0740247 L9.075,18.0740247 L9.07996538,18.245948 C9.16522376,19.7178991 10.3382065,20.8979396 11.806829,20.9937208 L12,21 L12.1923196,20.9937762 C13.6517645,20.8990174 14.8194496,19.7335236 14.9182286,18.2747003 L14.925,18.0740247 L18.825,18.0740247 L18.9473019,18.0664255 C19.4280519,18.0062415 19.8,17.5959216 19.8,17.0986996 C19.8,16.6014776 19.4280519,16.1911576 18.9473019,16.1309736 L18.7112944,16.1168127 C18.266798,16.065168 17.9134851,15.7144665 17.8576864,15.2711076 L17.85,15.1480493 L17.85,11.777926 L17.845965,11.5585384 C17.7521338,9.01182265 16.0314485,6.88079397 13.6928558,6.17473606 L13.5213575,6.12582076 C13.0362501,5.99548283 12.5262395,5.92597533 12,5.92597533 Z M12,3 C11.4615224,3 11.025,3.43666792 11.025,3.97532511 C11.025,4.03324978 11.0300479,4.08999507 11.0397276,4.14514478 C11.1200621,4.60284718 11.5194277,4.95065022 12,4.95065022 C12.4556349,4.95065022 12.8382723,4.63800632 12.9452226,4.2154756 L12.9674034,4.09766782 L12.975,3.97532511 C12.975,3.43666792 12.5384776,3 12,3 Z" id="Shape"></path>
        </g>
    </g>
</svg>
