<?xml version="1.0" encoding="UTF-8"?>
<svg width="24px" height="24px" viewBox="0 0 24 24" version="1.1" xmlns="http://www.w3.org/2000/svg" xmlns:xlink="http://www.w3.org/1999/xlink">
    <title>Icon/Bell/Outline</title>
    <g id="💎-Icons" stroke="none" stroke-width="1" fill="none" fill-rule="evenodd">
        <g id="Icon/Bell/Outline" fill="#FFFFFF">
            <path d="M12,3 C13.2771585,3 14.3125,4.03534152 14.3125,5.3125 C14.3125,5.49643082 14.2910265,5.67534624 14.2504497,5.84687602 C16.5079037,6.69920465 18.1605348,8.80233716 18.3563578,11.3382944 L18.3713837,11.6021452 L18.375,11.8125 L18.375,14.038 L18.4470622,14.0601348 C19.250003,14.3392411 19.8516627,15.0484739 19.9762007,15.9119929 L19.994665,16.0866721 L20,16.245 C20,17.4689435 19.0491395,18.4708017 17.8458279,18.552165 L17.6875,18.5575 L15.641,18.557 L15.6280717,18.5901527 C15.0812709,19.8829351 13.8636706,20.8229115 12.4116085,20.9737444 L12.2026232,20.9898765 L12,20.995 C10.4532503,20.995 9.10770138,20.1008895 8.46394265,18.7757579 L8.38055433,18.59243 L8.366,18.557 L6.3125,18.5575 C5.14177139,18.5575 4.1742362,17.6875255 4.0211104,16.5587926 L4.005335,16.4033279 L4,16.245 C4,15.3421308 4.51957588,14.5522546 5.32498905,14.1689562 L5.4898136,14.0978046 L5.625,14.05 L5.625,11.8125 C5.625,9.08370177 7.33950378,6.75534735 9.75005276,5.84589532 C9.7088902,5.6746514 9.6875,5.49607367 9.6875,5.3125 C9.6875,4.03534152 10.7228415,3 12,3 Z M12,6.9375 C11.5633965,6.9375 11.1401984,6.9948952 10.7375391,7.10255211 L10.5898087,7.14540628 C8.65399518,7.72876044 7.22632808,9.48371482 7.13017008,11.5859673 L7.125,11.8125 L7.125,14.62 C7.125,15.0342136 6.81504329,15.3760329 6.41441827,15.4261695 L6.21774534,15.4379663 C5.81365765,15.4849004 5.5,15.8283209 5.5,16.245 C5.5,16.6592136 5.80995671,17.0010329 6.21058173,17.0511695 L6.3125,17.0575 L9.5625,17.0575 L9.56663781,17.2007216 C9.63768646,18.4269387 10.615172,19.409978 11.8390242,19.4897691 L12,19.495 L12.1602663,19.4898153 C13.3764705,19.4108759 14.3495414,18.4399548 14.4318571,17.2246739 L14.4375,17.0575 L17.6875,17.0575 L17.7894183,17.0511695 C18.1900433,17.0010329 18.5,16.6592136 18.5,16.245 C18.5,15.8307864 18.1900433,15.4889671 17.7894183,15.4388305 L17.5927453,15.4270337 C17.2223316,15.3840107 16.9279043,15.0918569 16.8814054,14.7225144 L16.875,14.62 L16.875,11.8125 L16.8716375,11.629738 C16.7934448,9.50818226 15.3595404,7.73291698 13.4107132,7.14473151 L13.2677979,7.10398235 C12.8635417,6.99540361 12.4385329,6.9375 12,6.9375 Z M12,4.5 C11.5512686,4.5 11.1875,4.86376864 11.1875,5.3125 C11.1875,5.36075447 11.1917066,5.40802645 11.199773,5.45396922 C11.2667185,5.83526075 11.5995231,6.125 12,6.125 C12.3796958,6.125 12.6985602,5.86455026 12.7876855,5.5125587 L12.8061695,5.41441827 L12.8125,5.3125 C12.8125,4.86376864 12.4487314,4.5 12,4.5 Z" id="Shape"></path>
        </g>
    </g>
</svg>