<?xml version="1.0" encoding="UTF-8"?>
<svg width="24px" height="24px" viewBox="0 0 24 24" version="1.1" xmlns="http://www.w3.org/2000/svg" xmlns:xlink="http://www.w3.org/1999/xlink">
    <title>Icon/Share/Outline 2</title>
    <g id="Icon/Share/Outline" stroke="none" stroke-width="1" fill="none" fill-rule="evenodd">
        <path d="M11.5512263,3 C14.212258,3 16.3694504,5.15719242 16.3694504,7.81822414 C16.3694504,9.34674697 15.6576919,10.7090297 14.5475261,11.5917212 C14.7132988,11.6406447 14.8762579,11.702465 15.035088,11.7764239 L15.2700718,11.8963714 L15.354,11.946 L15.4090918,11.9137868 C16.7419776,11.1559847 18.4022102,11.2911348 19.5932983,12.2425611 L19.7527366,12.3773534 L19.9059104,12.5222217 C21.3175507,13.933862 21.3662279,16.192339 20.0519421,17.6623817 L19.9059104,17.8167948 L17.8851522,19.837553 C17.7189606,20.0037446 17.5563788,20.148636 17.3898573,20.2773108 C17.0315813,20.5530989 16.6690757,20.7422558 16.2695795,20.8633416 C15.6684135,21.0455528 15.0409309,21.0455528 14.4397645,20.8633415 C13.9829814,20.7248921 13.5792086,20.4999198 13.1774485,20.1627786 L11.2256678,20.1031798 L11.1364483,20.1024526 C10.9965934,20.1024526 10.8387464,20.1078771 10.6631088,20.1187348 L10.2881722,20.1476974 L9.86615183,20.1911645 L9.39740553,20.2491518 L8.88229129,20.3216751 L8.3211671,20.40875 L7.39399522,20.5666809 L6.36531453,20.7574413 L5.4780853,20.9320086 L5.32955603,20.9320086 C4.09658519,20.9320086 3.08733773,19.9741349 3.00537435,18.7619483 L3,18.6024526 L3,18.1876746 C3,14.9672978 5.06742225,12.2278619 7.99219596,11.0640672 C7.20977578,10.2088931 6.73300215,9.06923684 6.73300215,7.81822414 C6.73300215,5.15719242 8.89019458,3 11.5512263,3 Z M13.3687001,12.92717 C12.8220933,12.94704 12.2813654,13.1656107 11.8640942,13.5828819 C11.0295517,14.4174243 10.9898116,15.7457936 11.7448738,16.6273671 L11.8640942,16.7561346 L13.8848524,18.7768928 C14.2618337,19.1538741 14.5573895,19.3316063 14.8748627,19.4278313 C15.0335993,19.4759438 15.1941357,19.5 15.3546722,19.5 L15.515142,19.4919813 C15.622033,19.4812896 15.7286573,19.4599063 15.8344817,19.4278313 C16.0461305,19.3636813 16.2480383,19.2633059 16.4748928,19.0886813 C16.5483357,19.031929 16.6240625,18.9674434 16.7031665,18.893979 L16.824492,18.7768928 L18.8452502,16.7561346 C19.7215198,15.8798651 19.7215198,14.4591514 18.8452502,13.5828819 C18.4586607,13.1962924 17.9661024,12.9802571 17.4610772,12.934776 L17.292402,12.9259324 C16.9640234,12.9210193 16.6347718,12.9877554 16.3301065,13.1261406 L16.1504614,13.2177696 L16.0848972,13.2573833 L15.9401619,13.3534979 L15.8026382,13.4620588 L15.6719974,13.5828819 L15.3546722,13.9002072 L15.0373469,13.5828819 C14.6200757,13.1656107 14.0793478,12.94704 13.532741,12.92717 L13.3687001,12.92717 Z M9.51943601,12.1519942 L9.29911289,12.2075262 C6.60914612,12.9325927 4.61991594,15.2096978 4.50522936,17.9383975 L4.5,18.1876746 L4.5,18.6024526 C4.5,19.0253613 4.81646334,19.3743561 5.22549829,19.4255452 L5.32955603,19.4320086 L6.11662364,19.2777653 L7.23464138,19.0714198 L7.91745759,18.954699 L8.55025063,18.8546527 C8.65154754,18.8393678 8.75076015,18.8247778 8.84788846,18.8108824 L9.40564676,18.7358477 L9.91338188,18.6774873 C10.0742897,18.6608129 10.2268604,18.6469176 10.3710938,18.6358014 L10.7787826,18.6107898 C10.8425622,18.6080107 10.9042574,18.6059264 10.9638684,18.6045369 L11.2483992,18.6033519 L11.365746,18.6060498 L10.6909249,17.9293041 C9.1667317,16.405111 9.1667317,13.9339056 10.6909249,12.4097124 C10.8473988,12.2532386 11.0138533,12.1128283 11.1868729,11.9876306 L11.1364483,11.9660043 C10.5786991,11.9660043 10.03702,12.0305087 9.51943601,12.1519942 Z M12.6004383,10.967151 C13.9188445,10.5280716 14.8694504,9.28416084 14.8694504,7.81822414 C14.8694504,5.98561955 13.3838309,4.5 11.5512263,4.5 C9.7186217,4.5 8.23300215,5.98561955 8.23300215,7.81822414 C8.23300215,9.65082872 9.7186217,11.1364483 11.5512263,11.1364483 C11.8671926,11.1364483 12.1728442,11.092286 12.4623454,11.0097972 L12.6004383,10.967151 Z" id="Shape" fill="#FFFFFF"></path>
    </g>
</svg>