<svg width="33" height="32" viewBox="0 0 33 32" fill="none" xmlns="http://www.w3.org/2000/svg">
  <title>Tip icon</title>
  <path fill-rule="evenodd" clip-rule="evenodd" d="M13.0523 8.5007C13.0523 5.46275 15.5151 3 18.553 3C21.591 3 24.0537 5.46275 24.0537 8.5007C24.0537 11.5387 21.591 14.0014 18.553 14.0014C15.5151 14.0014 13.0523 11.5387 13.0523 8.5007ZM18.2179 10.4672C18.1121 10.4634 17.9987 10.456 17.8776 10.445C17.6947 10.4281 17.5164 10.3963 17.3427 10.3497C17.1735 10.2989 17.0317 10.2311 16.9174 10.1464C16.8077 10.0574 16.7528 9.94306 16.7528 9.80327C16.7528 9.65925 16.8009 9.55123 16.8969 9.47922C16.9975 9.40721 17.1598 9.3712 17.3838 9.3712C17.5575 9.3712 17.7541 9.39026 17.9736 9.42839C18.1931 9.46651 18.4034 9.48557 18.6046 9.48557C19.0298 9.48557 19.2424 9.40721 19.2424 9.25048C19.2424 9.18694 19.2172 9.13399 19.1669 9.09163C19.1166 9.04503 19.0206 9.00056 18.8789 8.9582C18.7372 8.9116 18.5268 8.85653 18.2479 8.79299C17.9279 8.71675 17.6673 8.64262 17.4661 8.57061C17.2649 8.49436 17.1163 8.39905 17.0203 8.28468C16.9289 8.17031 16.8832 8.01782 16.8832 7.8272C16.8832 7.63658 16.9266 7.46926 17.0135 7.32524C17.1003 7.18121 17.2169 7.06049 17.3632 6.96306C17.5095 6.8614 17.6718 6.78092 17.8502 6.72161C18.033 6.65807 18.2182 6.61148 18.4057 6.58183C18.4545 6.57428 18.5026 6.5677 18.55 6.56208C18.5352 6.52106 18.5214 6.47682 18.5086 6.42933C18.4857 6.32767 18.4743 6.24719 18.4743 6.18788C18.4743 6.07775 18.504 5.98667 18.5634 5.91466C18.6229 5.83842 18.7303 5.80029 18.8858 5.80029C19.0229 5.80029 19.1258 5.83206 19.1944 5.8956C19.263 5.95914 19.2972 6.04598 19.2972 6.15611C19.2972 6.26201 19.2812 6.3552 19.2492 6.43569C19.2359 6.47472 19.2205 6.51126 19.2029 6.54531C19.5002 6.56464 19.7512 6.61917 19.9556 6.70891C20.2208 6.82328 20.3534 6.97577 20.3534 7.16639C20.3534 7.30194 20.3054 7.41207 20.2094 7.49679C20.1179 7.58151 19.9762 7.62387 19.7842 7.62387C19.6882 7.62387 19.5761 7.61328 19.4481 7.5921C19.3247 7.57092 19.1852 7.54974 19.0298 7.52856C18.8743 7.50738 18.7052 7.49679 18.5223 7.49679C18.2891 7.49679 18.1085 7.52221 17.9805 7.57304C17.8524 7.62387 17.7884 7.70435 17.7884 7.81449C17.7884 7.87803 17.8113 7.93521 17.857 7.98605C17.9027 8.03264 17.9965 8.07924 18.1382 8.12583C18.2799 8.17243 18.4948 8.22961 18.7829 8.29739C19.1395 8.37787 19.4207 8.46683 19.6264 8.56425C19.8368 8.65744 19.9854 8.76546 20.0722 8.8883C20.1591 9.01115 20.2025 9.15941 20.2025 9.33308C20.2025 9.55759 20.1248 9.75668 19.9694 9.93035C19.8185 10.0998 19.6059 10.2332 19.3315 10.3306C19.1896 10.3797 19.0351 10.4158 18.8679 10.439C18.8852 10.4836 18.9003 10.5322 18.9132 10.5848C18.9406 10.678 18.9543 10.7542 18.9543 10.8135C18.9543 10.9237 18.9246 11.0148 18.8652 11.0868C18.8057 11.163 18.6983 11.2011 18.5428 11.2011C18.4057 11.2011 18.3028 11.1694 18.2342 11.1058C18.1656 11.0423 18.1313 10.9555 18.1313 10.8453C18.1313 10.7394 18.1451 10.6462 18.1725 10.5657C18.1863 10.5309 18.2015 10.4981 18.2179 10.4672Z" fill="currentColor"/>
  <path fill-rule="evenodd" clip-rule="evenodd" d="M4.05103 16.1351C4.05103 14.8464 5.09569 13.8017 6.38436 13.8017H8.21839C9.50706 13.8017 10.5517 14.8464 10.5517 16.1351V19.3024C10.5517 19.8547 10.104 20.3024 9.55173 20.3024C8.99944 20.3024 8.55173 19.8547 8.55173 19.3024V16.1351C8.55173 15.951 8.40249 15.8017 8.21839 15.8017H6.38436C6.20026 15.8017 6.05103 15.951 6.05103 16.1351V23.8031C6.05103 23.9872 6.20026 24.1365 6.38436 24.1365H8.21839C8.40249 24.1365 8.55173 23.9872 8.55173 23.8031V22.8861C8.55173 22.3338 8.99944 21.8861 9.55173 21.8861C10.104 21.8861 10.5517 22.3338 10.5517 22.8861V23.8031C10.5517 25.0918 9.50706 26.1365 8.21839 26.1365H6.38436C5.09569 26.1365 4.05103 25.0918 4.05103 23.8031V16.1351Z" fill="currentColor"/>
  <path fill-rule="evenodd" clip-rule="evenodd" d="M29.1086 18.4193C29.4693 18.6589 29.705 19.0059 29.8457 19.3971C30.0642 20.0046 30.1209 20.6189 29.9547 21.1785C29.7854 21.7482 29.4025 22.1916 28.8922 22.4351L20.4192 26.6716C19.28 27.2412 17.9663 27.3546 16.7463 26.9886L9.26435 24.744L9.83905 22.8284L17.321 25.073C18.053 25.2926 18.8412 25.2245 19.5247 24.8828L28.0074 20.6414L28.0291 20.6309C28.0311 20.6271 28.0342 20.6202 28.0375 20.609C28.0516 20.5614 28.077 20.4036 27.9739 20.1029C27.882 20.1015 27.7496 20.114 27.5468 20.1467C27.4525 20.162 27.3552 20.1794 27.2455 20.199L27.205 20.2063C27.0855 20.2277 26.9537 20.251 26.8176 20.2721L19.177 21.6205L18.8294 19.6509L26.4806 18.3007L26.5023 18.2971C26.6597 18.2729 26.7601 18.2545 26.8681 18.2348C26.9658 18.2169 27.0698 18.1979 27.228 18.1723C27.4747 18.1325 27.7746 18.0928 28.0763 18.1052C28.385 18.1178 28.759 18.187 29.1086 18.4193Z" fill="currentColor"/>
  <path fill-rule="evenodd" clip-rule="evenodd" d="M15.0837 17.7211C14.7667 17.6577 14.4381 17.6879 14.1379 17.808L10.3732 19.3139C9.86044 19.519 9.27847 19.2696 9.07336 18.7568C8.86824 18.244 9.11766 17.662 9.63044 17.4569L13.3951 15.951C14.0555 15.6869 14.7785 15.6205 15.476 15.76L19.1994 16.5047C19.2149 16.5078 19.2304 16.5113 19.2458 16.5151C20.7302 16.8862 21.4024 18.3387 21.2309 19.5395C21.1405 20.1724 20.8137 20.8052 20.1985 21.2236C19.5834 21.6418 18.7998 21.7656 17.9387 21.6221C17.3939 21.5313 17.0259 21.0161 17.1167 20.4713C17.2075 19.9266 17.7227 19.5585 18.2675 19.6493C18.7566 19.7309 18.9857 19.6297 19.0738 19.5697C19.1619 19.5098 19.2289 19.4113 19.251 19.2566C19.3035 18.889 19.0848 18.5471 18.778 18.46L15.0837 17.7211Z" fill="currentColor"/>
</svg>
