<?xml version="1.0" encoding="UTF-8"?>
<svg width="32px" height="32px" viewBox="0 0 32 32" version="1.1" xmlns="http://www.w3.org/2000/svg" xmlns:xlink="http://www.w3.org/1999/xlink">
    <title>Icon</title>
    <defs>
        <path d="M10.2555408,-4.14336123e-16 L21.7444592,4.14336123e-16 C25.3105342,-2.4074122e-16 26.6036791,0.371302445 27.9073828,1.06853082 C29.2110865,1.76575919 30.2342408,2.78891348 30.9314692,4.09261719 C31.6286976,5.39632089 32,6.68946584 32,10.2555408 L32,21.7444592 C32,25.3105342 31.6286976,26.6036791 30.9314692,27.9073828 C30.2342408,29.2110865 29.2110865,30.2342408 27.9073828,30.9314692 C26.6036791,31.6286976 25.3105342,32 21.7444592,32 L10.2555408,32 C6.68946584,32 5.39632089,31.6286976 4.09261719,30.9314692 C2.78891348,30.2342408 1.76575919,29.2110865 1.06853082,27.9073828 C0.371302445,26.6036791 1.60494146e-16,25.3105342 -2.76224082e-16,21.7444592 L2.76224082e-16,10.2555408 C-1.60494146e-16,6.68946584 0.371302445,5.39632089 1.06853082,4.09261719 C1.76575919,2.78891348 2.78891348,1.76575919 4.09261719,1.06853082 C5.39632089,0.371302445 6.68946584,2.4074122e-16 10.2555408,-4.14336123e-16 Z" id="path-1"></path>
        <linearGradient x1="50%" y1="-2.48949813e-15%" x2="50%" y2="100%" id="linearGradient-3">
            <stop stop-color="#CE3AF3" offset="0%"></stop>
            <stop stop-color="#7147ED" offset="100%"></stop>
        </linearGradient>
        <path d="M16,5.6875 C16.6328263,5.6875 17.1458333,6.20050706 17.1458333,6.83333333 L17.1464195,8.06047735 C20.6587182,8.56313717 23.4368628,11.3412818 23.9395226,14.8535805 L25.1666667,14.8541667 C25.7994929,14.8541667 26.3125,15.3671737 26.3125,16 C26.3125,16.6328263 25.7994929,17.1458333 25.1666667,17.1458333 L23.9395226,17.1464195 C23.4368628,20.6587182 20.6587182,23.4368628 17.1464195,23.9395226 L17.1458333,25.1666667 C17.1458333,25.7994929 16.6328263,26.3125 16,26.3125 C15.3671737,26.3125 14.8541667,25.7994929 14.8541667,25.1666667 L14.8535805,23.9395226 C11.3412818,23.4368628 8.56313717,20.6587182 8.06047735,17.1464195 L6.83333333,17.1458333 C6.20050706,17.1458333 5.6875,16.6328263 5.6875,16 C5.6875,15.3671737 6.20050706,14.8541667 6.83333333,14.8541667 L8.06047735,14.8535805 C8.56313717,11.3412818 11.3412818,8.56313717 14.8535805,8.06047735 L14.8541667,6.83333333 C14.8541667,6.20050706 15.3671737,5.6875 16,5.6875 Z M17.1466187,10.3855969 L17.1458333,11.4166667 C17.1458333,12.0494929 16.6328263,12.5625 16,12.5625 C15.3671737,12.5625 14.8541667,12.0494929 14.8541667,11.4166667 L14.8533813,10.3855969 C12.6091792,10.8414745 10.8414745,12.6091792 10.3855969,14.8533813 L11.4166667,14.8541667 C12.0494929,14.8541667 12.5625,15.3671737 12.5625,16 C12.5625,16.6328263 12.0494929,17.1458333 11.4166667,17.1458333 L10.3855969,17.1466187 C10.8414745,19.3908208 12.6091792,21.1585255 14.8533813,21.6144031 L14.8541667,20.5833333 C14.8541667,19.9505071 15.3671737,19.4375 16,19.4375 C16.6328263,19.4375 17.1458333,19.9505071 17.1458333,20.5833333 L17.1466187,21.6144031 C19.3908208,21.1585255 21.1585255,19.3908208 21.6144031,17.1466187 L20.5833333,17.1458333 C19.9505071,17.1458333 19.4375,16.6328263 19.4375,16 C19.4375,15.3671737 19.9505071,14.8541667 20.5833333,14.8541667 L21.6144031,14.8533813 C21.1585255,12.6091792 19.3908208,10.8414745 17.1466187,10.3855969 Z M16,14.28125 C16.9492394,14.28125 17.71875,15.0507606 17.71875,16 C17.71875,16.9492394 16.9492394,17.71875 16,17.71875 C15.0507606,17.71875 14.28125,16.9492394 14.28125,16 C14.28125,15.0507606 15.0507606,14.28125 16,14.28125 Z" id="path-4"></path>
        <filter x="-87.3%" y="-58.2%" width="274.5%" height="332.7%" filterUnits="objectBoundingBox" id="filter-5">
            <feMorphology radius="3" operator="erode" in="SourceAlpha" result="shadowSpreadOuter1"></feMorphology>
            <feOffset dx="0" dy="18" in="shadowSpreadOuter1" result="shadowOffsetOuter1"></feOffset>
            <feGaussianBlur stdDeviation="6" in="shadowOffsetOuter1" result="shadowBlurOuter1"></feGaussianBlur>
            <feColorMatrix values="0 0 0 0 0.2   0 0 0 0 0.0980392157   0 0 0 0 0.678431373  0 0 0 1 0" type="matrix" in="shadowBlurOuter1"></feColorMatrix>
        </filter>
    </defs>
    <g id="Notifications" stroke="none" stroke-width="1" fill="none" fill-rule="evenodd">
        <g id="5.-All-Notifications" transform="translate(-495.000000, -637.000000)">
            <g id="1" transform="translate(189.000000, 552.000000)">
                <g id="Notifications/System" transform="translate(282.000000, 69.500000)">
                    <g id="Icon" transform="translate(24.000000, 15.500000)">
                        <mask id="mask-2" fill="white">
                            <use xlink:href="#path-1"></use>
                        </mask>
                        <use id="Rectangle" fill="#04131E" xlink:href="#path-1"></use>
                        <g id="Button/Ter/Icon/Small/Default" mask="url(#mask-2)">
                            <rect id="Rectangle" fill="url(#linearGradient-3)" x="0" y="0" width="32" height="32"></rect>
                            <g id="Combined-Shape">
                                <use fill="black" fill-opacity="1" filter="url(#filter-5)" xlink:href="#path-4"></use>
                                <use fill="#FFFFFF" fill-rule="evenodd" xlink:href="#path-4"></use>
                            </g>
                        </g>
                    </g>
                </g>
            </g>
        </g>
    </g>
</svg>
