<svg width="24" height="24" viewBox="0 0 24 24" fill="none" xmlns="http://www.w3.org/2000/svg">
  <g id="Status=Actively looking">
    <path id="Union" d="M15.5 7.00293C15.5708 7.00293 15.646 7.01487 15.7109 7.0332C15.7672 7.04942 15.8134 7.06896 15.8643 7.09766C15.8701 7.10097 15.8799 7.1059 15.8857 7.10938C15.9862 7.16966 16.0678 7.24981 16.1279 7.3418C16.1368 7.35534 16.1482 7.3744 16.1562 7.38867L16.1611 7.39746C16.1674 7.40916 16.173 7.42153 16.1787 7.43359C16.1817 7.44006 16.1847 7.44658 16.1875 7.45312C16.1964 7.47356 16.2049 7.49453 16.2119 7.51562L16.9844 9.83398L19.7939 9.03223C20.1922 8.91845 20.6069 9.14868 20.7207 9.54688C20.8345 9.94511 20.6043 10.3598 20.2061 10.4736L16.7061 11.4736C16.32 11.5839 15.9151 11.3712 15.7881 10.9902L15.3037 9.53711L13.5215 12.5068L16.8975 14.6172C17.2486 14.8367 17.3553 15.2992 17.1357 15.6504L14.6357 20.6504C14.4162 21.0016 13.9538 21.1082 13.6025 20.8887C13.2514 20.6691 13.1447 20.2067 13.3643 19.8555L15.4668 15.4912L12.1025 13.3887C11.756 13.172 11.6463 12.7177 11.8564 12.3672L14.1748 8.50293H11.8105L9.53027 10.7832C9.23738 11.0761 8.76262 11.0761 8.46973 10.7832C8.17683 10.4903 8.17683 10.0155 8.46973 9.72266L10.9697 7.22266L11.084 7.12891C11.2063 7.04738 11.3508 7.00293 11.5 7.00293H15.5ZM10.9697 14.2227C11.2626 13.9298 11.7374 13.9298 12.0303 14.2227C12.3232 14.5155 12.3232 14.9903 12.0303 15.2832L10.5303 16.7832C10.3667 16.9468 10.1368 17.0257 9.90723 16.9971L5.90723 16.4971C5.49629 16.4457 5.20463 16.0711 5.25586 15.6602C5.30723 15.2492 5.68185 14.9576 6.09277 15.0088L9.72852 15.4629L10.9697 14.2227ZM6.5 6.75293C6.77614 6.75293 7 6.97679 7 7.25293C7 7.52907 6.77614 7.75293 6.5 7.75293H3.5C3.22386 7.75293 3 7.52907 3 7.25293C3 6.97679 3.22386 6.75293 3.5 6.75293H6.5ZM17.4746 3C18.5792 3 19.4746 3.89543 19.4746 5C19.4746 6.10457 18.5792 7 17.4746 7C16.37 7 15.4746 6.10457 15.4746 5C15.4746 3.89543 16.37 3 17.4746 3ZM11 4.25293C11.2761 4.25293 11.5 4.47679 11.5 4.75293C11.5 5.02907 11.2761 5.25293 11 5.25293H4.5C4.22386 5.25293 4 5.02907 4 4.75293C4 4.47679 4.22386 4.25293 4.5 4.25293H11Z" fill="currentColor"/>
  </g>
</svg>
