<?xml version="1.0" encoding="UTF-8"?>
<svg width="24px" height="24px" viewBox="0 0 24 24" version="1.1" xmlns="http://www.w3.org/2000/svg" xmlns:xlink="http://www.w3.org/1999/xlink">
    <title>Icon/Open Link/Filled</title>
    <g id="Icon/Open-Link/Filled" stroke="none" stroke-width="1" fill="none" fill-rule="evenodd">
        <path d="M7.80130813,6.6 C8.46178103,6.6 8.99720016,7.13541944 8.99720016,7.7958924 C8.99720016,8.34660606 8.62073182,8.81665071 8.08526201,8.9499 L7.94820788,8.9760468 L7.80346394,8.98476 L6.89001277,8.9852508 L6.77212767,8.9884632 L6.45711327,9.0081336 C5.95126199,9.0672078 5.53766868,9.44178391 5.42920424,9.924942 L5.40734814,10.0592496 L5.4,10.1972004 L5.4,17.4 C5.4,17.9695466 5.79879118,18.4521258 6.32713419,18.5707296 L6.46176313,18.5926374 L6.6,18.6 L13.7972004,18.6 C14.3667469,18.6 14.8493263,18.2012089 14.9676336,17.6834153 L14.9894604,17.5516496 L14.9972004,16.19995 C14.997242,15.5372306 15.5344855,15 16.1972004,15 C16.8126034,15 17.3198087,15.4632482 17.3891268,16.0600546 L17.3972004,16.2 L17.3972004,17.4 C17.3972004,19.2359965 16.018771,20.7626219 14.2169388,20.975203 L14.00721,20.9938429 L13.7972004,21 L6.6,21 C4.76400348,21 3.23737808,19.6215709 3.02479696,17.8197388 L3.00615709,17.6100105 L3,17.4 L3,10.1972004 C3,8.28147438 4.4975384,6.71551737 6.38583733,6.6061068 L6.59720016,6.6 L7.80130813,6.6 Z M19.7972002,3 C20.4126032,3 20.9198088,3.46324823 20.9891269,4.06005465 L20.9972002,4.2 L20.9972002,12.6 C20.9972002,13.2627417 20.4599419,13.8 19.7972002,13.8 C19.1817972,13.8 18.6745916,13.3367518 18.6052734,12.7399454 L18.5972002,12.6 L18.5964,7.0944 L12.5846305,13.1096259 C12.1881523,13.5061042 11.583158,13.5670773 11.1224924,13.2925564 L11.0007001,13.2093687 L10.8876549,13.1095453 C10.4550741,12.6769645 10.4217984,11.9962875 10.7878174,11.525549 L10.8876413,11.4125026 L16.8996,5.3988 L11.3972002,5.4 C10.8291358,5.4 10.3532634,5.00527962 10.228893,4.47514899 L10.2052734,4.33994535 L10.1972002,4.2 C10.1972002,3.58459699 10.6604484,3.07739141 11.2572548,3.00807328 L11.3972002,3 L19.7972002,3 Z" id="Shape" fill="#FFFFFF"></path>
    </g>
</svg>