<?xml version="1.0" encoding="UTF-8"?>
<svg width="24px" height="24px" viewBox="0 0 24 24" version="1.1" xmlns="http://www.w3.org/2000/svg" xmlns:xlink="http://www.w3.org/1999/xlink">
    <title>Icon/Open Link/Outline</title>
    <g id="Icon/Open-Link/Outline" stroke="none" stroke-width="1" fill="none" fill-rule="evenodd">
        <path d="M7.75109011,7 C8.16341303,7 8.4976668,7.33425408 8.4976668,7.746577 C8.4976668,8.12158527 8.21899623,8.43150668 7.85744002,8.480556 L7.7527184,8.4873 L6.98434203,8.487817 L6.87594014,8.490999 L6.7476668,8.5 C6.10166616,8.5 5.57033457,8.99095643 5.50644156,9.6201 L5.5,9.747667 L5.5,17.25 C5.5,17.8972087 5.99187466,18.4295339 6.62219476,18.4935464 L6.75,18.5 L14.247667,18.5 C14.8948757,18.5 15.4272005,18.0081253 15.491213,17.3778052 L15.497667,16.249974 C15.497693,15.8357748 15.8334678,15.5 16.247667,15.5 C16.6618806,15.5 16.997667,15.8357864 16.997667,16.25 L16.997667,17.25 C16.997667,18.7125318 15.8559621,19.9084043 14.415189,19.9949812 L14.247667,20 L6.75,20 C5.28746816,20 4.09159572,18.8582954 4.00501879,17.4175223 L4,17.25 L4,9.747667 C4,8.23017253 5.23017233,7 6.7476668,7 L7.75109011,7 Z M19.2476668,4 C19.6618804,4 19.9976668,4.33578644 19.9976668,4.75 L19.9976668,11.75 C19.9976668,12.1642136 19.6618804,12.5 19.2476668,12.5 C18.8334532,12.5 18.4976668,12.1642136 18.4976668,11.75 L18.4976668,6.55901582 L11.9997552,13.0585718 C11.7069291,13.3513979 11.2320553,13.3513979 10.9391621,13.0585047 C10.6462689,12.7656115 10.6462689,12.2907377 10.9391621,11.9978445 L17.4361602,5.5 L12.2476668,5.5 C11.8334532,5.5 11.4976668,5.16421356 11.4976668,4.75 C11.4976668,4.33578644 11.8334532,4 12.2476668,4 L19.2476668,4 Z" id="Shape" fill="#FFFFFF"></path>
    </g>
</svg>