<svg width="16" height="16" viewBox="0 0 16 16" fill="none" xmlns="http://www.w3.org/2000/svg">
  <path fill-rule="evenodd" clip-rule="evenodd" d="M8 2C11.3137 2 14 4.68629 14 8C14 11.3137 11.3137 14 8 14C4.68629 14 2 11.3137 2 8C2 4.68629 4.68629 2 8 2ZM7.33333 7.33333C7.33333 6.96514 7.63181 6.66667 8 6.66667C8.36819 6.66667 8.66667 6.96514 8.66667 7.33333V10.6667C8.66667 11.0349 8.36819 11.3333 8 11.3333C7.63181 11.3333 7.33333 11.0349 7.33333 10.6667V7.33333ZM8 4.66667C7.63181 4.66667 7.33333 4.96514 7.33333 5.33333C7.33333 5.70152 7.63181 6 8 6C8.36819 6 8.66667 5.70152 8.66667 5.33333C8.66667 4.96514 8.36819 4.66667 8 4.66667Z" fill="currentColor"/>
</svg>
