<svg preserveAspectRatio="none" width="100%" height="100%" overflow="visible" style="display: block;" viewBox="0 0 438.609 87.4519" fill="none" xmlns="http://www.w3.org/2000/svg">
<g id="Group 7">
<g id="Star 6" filter="url(#filter0_d_0_11)">
<path d="M41.399 4.32799C42.0932 2.71606 44.3786 2.71606 45.0728 4.32799L53.5814 24.0859C53.871 24.7582 54.5047 25.2187 55.2336 25.2863L76.6538 27.2729C78.4014 27.435 79.1076 29.6086 77.7891 30.7669L61.6275 44.9646C61.0776 45.4478 60.8355 46.1928 60.9964 46.9069L65.7262 67.8926C66.1121 69.6047 64.2631 70.9481 62.754 70.052L44.257 59.0688C43.6276 58.6951 42.8442 58.6951 42.2148 59.0688L23.7178 70.052C22.2087 70.9481 20.3597 69.6047 20.7456 67.8926L25.4754 46.9069C25.6363 46.1928 25.3942 45.4478 24.8443 44.9646L8.68272 30.7669C7.3642 29.6086 8.07045 27.435 9.81799 27.2729L31.2382 25.2863C31.9671 25.2187 32.6008 24.7582 32.8904 24.0859L41.399 4.32799Z" fill="url(#paint0_linear_0_11)"/>
<path d="M51.7447 24.877C52.3238 26.2216 53.5916 27.1421 55.0494 27.2773L76.4693 29.2646L60.3072 43.4619C59.2073 44.4282 58.7236 45.9185 59.0455 47.3467L63.775 68.332L45.2779 57.3496C44.019 56.6021 42.4528 56.6021 41.1939 57.3496L22.6968 68.332L27.4263 47.3467C27.7482 45.9185 27.2645 44.4282 26.1646 43.4619L10.0025 29.2646L31.4224 27.2773C32.8802 27.1421 34.148 26.2216 34.7271 24.877L43.2359 5.11914L51.7447 24.877Z" stroke="url(#paint1_radial_0_11)" stroke-width="4"/>
<path d="M51.7447 24.877C52.3238 26.2216 53.5916 27.1421 55.0494 27.2773L76.4693 29.2646L60.3072 43.4619C59.2073 44.4282 58.7236 45.9185 59.0455 47.3467L63.775 68.332L45.2779 57.3496C44.019 56.6021 42.4528 56.6021 41.1939 57.3496L22.6968 68.332L27.4263 47.3467C27.7482 45.9185 27.2645 44.4282 26.1646 43.4619L10.0025 29.2646L31.4224 27.2773C32.8802 27.1421 34.148 26.2216 34.7271 24.877L43.2359 5.11914L51.7447 24.877Z" stroke="var(--stroke-1, white)" stroke-width="4"/>
</g>
<g id="Star 7" filter="url(#filter1_d_0_11)">
<path d="M129.42 4.88655C130.135 3.3368 132.337 3.3368 133.052 4.88655L142.052 24.3995C142.344 25.0311 142.942 25.466 143.633 25.5479L164.972 28.078C166.667 28.279 167.348 30.3737 166.095 31.5325L150.318 46.1222C149.807 46.5945 149.579 47.2982 149.714 47.9804L153.902 69.057C154.235 70.731 152.453 72.0256 150.964 71.192L132.213 60.696C131.606 60.3563 130.866 60.3563 130.259 60.696L111.508 71.192C110.019 72.0256 108.237 70.731 108.57 69.057L112.757 47.9804C112.893 47.2982 112.664 46.5945 112.154 46.1222L96.3771 31.5325C95.1241 30.3737 95.8047 28.279 97.4995 28.078L118.839 25.5479C119.529 25.466 120.128 25.0311 120.419 24.3995L129.42 4.88655Z" fill="url(#paint2_linear_0_11)"/>
<path d="M140.236 25.2373C140.819 26.5005 142.017 27.3704 143.398 27.5342L164.737 30.0645L148.961 44.6543C147.939 45.5988 147.481 47.0057 147.753 48.3701L151.941 69.4473L133.19 58.9512C131.976 58.2717 130.496 58.2717 129.282 58.9512L110.531 69.4473L114.719 48.3701C114.99 47.0057 114.533 45.5988 113.511 44.6543L97.7349 30.0645L119.074 27.5342C120.455 27.3704 121.653 26.5005 122.236 25.2373L131.236 5.72461L140.236 25.2373Z" stroke="url(#paint3_radial_0_11)" stroke-width="4"/>
<path d="M140.236 25.2373C140.819 26.5005 142.017 27.3704 143.398 27.5342L164.737 30.0645L148.961 44.6543C147.939 45.5988 147.481 47.0057 147.753 48.3701L151.941 69.4473L133.19 58.9512C131.976 58.2717 130.496 58.2717 129.282 58.9512L110.531 69.4473L114.719 48.3701C114.99 47.0057 114.533 45.5988 113.511 44.6543L97.7349 30.0645L119.074 27.5342C120.455 27.3704 121.653 26.5005 122.236 25.2373L131.236 5.72461L140.236 25.2373Z" stroke="var(--stroke-1, white)" stroke-width="4"/>
</g>
<g id="Star 8" filter="url(#filter2_d_0_11)">
<path d="M217.522 2.98416C218.3 1.69252 220.172 1.69252 220.95 2.98416L231.965 21.2888C232.245 21.7528 232.7 22.0837 233.228 22.2059L254.041 27.0262C255.509 27.3663 256.088 29.1473 255.1 30.2857L241.095 46.4188C240.74 46.8278 240.566 47.3633 240.613 47.9028L242.46 69.1865C242.59 70.6884 241.075 71.7891 239.687 71.201L220.016 62.8672C219.517 62.656 218.954 62.656 218.456 62.8672L198.785 71.201C197.396 71.7891 195.881 70.6884 196.012 69.1865L197.859 47.9028C197.906 47.3633 197.732 46.8278 197.377 46.4188L183.372 30.2857C182.384 29.1473 182.963 27.3663 184.431 27.0262L205.244 22.2059C205.772 22.0837 206.227 21.7528 206.506 21.2888L217.522 2.98416Z" fill="url(#paint4_linear_0_11)"/>
<path d="M230.252 22.3203C230.81 23.2483 231.722 23.9099 232.777 24.1543L253.589 28.9746L239.585 45.1074C238.874 45.9254 238.527 46.9971 238.621 48.0762L240.467 69.3594L220.796 61.0254C219.799 60.6029 218.673 60.6029 217.675 61.0254L198.004 69.3594L199.851 48.0762C199.945 46.9971 199.597 45.9254 198.887 45.1074L184.882 28.9746L205.695 24.1543C206.75 23.9099 207.662 23.2483 208.22 22.3203L219.236 4.01562L230.252 22.3203Z" stroke="url(#paint5_radial_0_11)" stroke-width="4"/>
<path d="M230.252 22.3203C230.81 23.2483 231.722 23.9099 232.777 24.1543L253.589 28.9746L239.585 45.1074C238.874 45.9254 238.527 46.9971 238.621 48.0762L240.467 69.3594L220.796 61.0254C219.799 60.6029 218.673 60.6029 217.675 61.0254L198.004 69.3594L199.851 48.0762C199.945 46.9971 199.597 45.9254 198.887 45.1074L184.882 28.9746L205.695 24.1543C206.75 23.9099 207.662 23.2483 208.22 22.3203L219.236 4.01562L230.252 22.3203Z" stroke="var(--stroke-1, white)" stroke-width="4"/>
</g>
<g id="Star 9" filter="url(#filter3_d_0_11)">
<path d="M305.431 3.90383C306.155 2.38558 308.316 2.38558 309.041 3.90383L318.289 23.2847C318.581 23.8957 319.161 24.3177 319.833 24.4062L341.123 27.2127C342.791 27.4325 343.458 29.4879 342.238 30.646L326.664 45.4305C326.173 45.8966 325.951 46.5795 326.074 47.2452L329.984 68.3605C330.29 70.0146 328.542 71.2849 327.064 70.4824L308.19 60.2389C307.595 59.9159 306.877 59.9159 306.282 60.2389L287.408 70.4824C285.93 71.2849 284.181 70.0146 284.488 68.3605L288.398 47.2452C288.521 46.5795 288.299 45.8966 287.808 45.4305L272.233 30.646C271.013 29.4879 271.681 27.4325 273.349 27.2127L294.639 24.4062C295.31 24.3177 295.891 23.8957 296.183 23.2847L305.431 3.90383Z" fill="url(#paint6_linear_0_11)"/>
<path d="M316.484 24.1465C317.067 25.3682 318.229 26.2116 319.571 26.3887L340.862 29.1953L325.287 43.9795C324.305 44.9117 323.861 46.278 324.108 47.6094L328.017 68.7246L309.144 58.4814C307.954 57.8356 306.518 57.8356 305.328 58.4814L286.455 68.7246L290.364 47.6094C290.61 46.278 290.167 44.9117 289.185 43.9795L273.61 29.1953L294.901 26.3887C296.243 26.2116 297.405 25.3682 297.988 24.1465L307.236 4.76563L316.484 24.1465Z" stroke="url(#paint7_radial_0_11)" stroke-width="4"/>
<path d="M316.484 24.1465C317.067 25.3682 318.229 26.2116 319.571 26.3887L340.862 29.1953L325.287 43.9795C324.305 44.9117 323.861 46.278 324.108 47.6094L328.017 68.7246L309.144 58.4814C307.954 57.8356 306.518 57.8356 305.328 58.4814L286.455 68.7246L290.364 47.6094C290.61 46.278 290.167 44.9117 289.185 43.9795L273.61 29.1953L294.901 26.3887C296.243 26.2116 297.405 25.3682 297.988 24.1465L307.236 4.76563L316.484 24.1465Z" stroke="var(--stroke-1, white)" stroke-width="4"/>
</g>
<g id="Star 10" filter="url(#filter4_d_0_11)">
<path d="M393.409 4.09811C394.114 2.51714 396.358 2.51714 397.063 4.09812L405.817 23.7369C406.107 24.3889 406.723 24.8366 407.433 24.9116L428.816 27.1684C430.537 27.3501 431.231 29.4843 429.945 30.643L413.973 45.0373C413.442 45.5152 413.207 46.2396 413.355 46.938L417.816 67.9715C418.176 69.6648 416.36 70.9838 414.861 70.119L396.235 59.3763C395.617 59.0196 394.855 59.0196 394.237 59.3763L375.611 70.119C374.112 70.9838 372.296 69.6648 372.655 67.9715L377.117 46.938C377.265 46.2396 377.029 45.5152 376.499 45.0373L360.527 30.643C359.241 29.4843 359.934 27.3501 361.656 27.1684L383.038 24.9116C383.748 24.8366 384.365 24.3889 384.655 23.7369L393.409 4.09811Z" fill="url(#paint8_linear_0_11)"/>
<path d="M403.99 24.5508C404.571 25.8548 405.803 26.7504 407.223 26.9004L428.606 29.1572L412.633 43.5518C411.573 44.5076 411.103 45.956 411.399 47.3525L415.86 68.3867L397.234 57.6436C395.997 56.9305 394.474 56.9305 393.238 57.6436L374.612 68.3867L379.073 47.3525C379.369 45.956 378.899 44.5076 377.838 43.5518L361.866 29.1572L383.249 26.9004C384.668 26.7504 385.901 25.8548 386.482 24.5508L395.236 4.91211L403.99 24.5508Z" stroke="url(#paint9_radial_0_11)" stroke-width="4"/>
<path d="M403.99 24.5508C404.571 25.8548 405.803 26.7504 407.223 26.9004L428.606 29.1572L412.633 43.5518C411.573 44.5076 411.103 45.956 411.399 47.3525L415.86 68.3867L397.234 57.6436C395.997 56.9305 394.474 56.9305 393.238 57.6436L374.612 68.3867L379.073 47.3525C379.369 45.956 378.899 44.5076 377.838 43.5518L361.866 29.1572L383.249 26.9004C384.668 26.7504 385.901 25.8548 386.482 24.5508L395.236 4.91211L403.99 24.5508Z" stroke="var(--stroke-1, white)" stroke-width="4"/>
</g>
</g>
<defs>
<filter id="filter0_d_0_11" x="0" y="3.11904" width="86.4718" height="83.2191" filterUnits="userSpaceOnUse" color-interpolation-filters="sRGB">
<feFlood flood-opacity="0" result="BackgroundImageFix"/>
<feColorMatrix in="SourceAlpha" type="matrix" values="0 0 0 0 0 0 0 0 0 0 0 0 0 0 0 0 0 0 127 0" result="hardAlpha"/>
<feOffset dy="8"/>
<feGaussianBlur stdDeviation="4"/>
<feComposite in2="hardAlpha" operator="out"/>
<feColorMatrix type="matrix" values="0 0 0 0 0 0 0 0 0 0 0 0 0 0 0 0 0 0 0.25 0"/>
<feBlend mode="normal" in2="BackgroundImageFix" result="effect1_dropShadow_0_11"/>
<feBlend mode="normal" in="SourceGraphic" in2="effect1_dropShadow_0_11" result="shape"/>
</filter>
<filter id="filter1_d_0_11" x="87.7325" y="3.72424" width="87.0068" height="83.7277" filterUnits="userSpaceOnUse" color-interpolation-filters="sRGB">
<feFlood flood-opacity="0" result="BackgroundImageFix"/>
<feColorMatrix in="SourceAlpha" type="matrix" values="0 0 0 0 0 0 0 0 0 0 0 0 0 0 0 0 0 0 127 0" result="hardAlpha"/>
<feOffset dy="8"/>
<feGaussianBlur stdDeviation="4"/>
<feComposite in2="hardAlpha" operator="out"/>
<feColorMatrix type="matrix" values="0 0 0 0 0 0 0 0 0 0 0 0 0 0 0 0 0 0 0.25 0"/>
<feBlend mode="normal" in2="BackgroundImageFix" result="effect1_dropShadow_0_11"/>
<feBlend mode="normal" in="SourceGraphic" in2="effect1_dropShadow_0_11" result="shape"/>
</filter>
<filter id="filter2_d_0_11" x="174.881" y="2.01543" width="88.7098" height="85.3467" filterUnits="userSpaceOnUse" color-interpolation-filters="sRGB">
<feFlood flood-opacity="0" result="BackgroundImageFix"/>
<feColorMatrix in="SourceAlpha" type="matrix" values="0 0 0 0 0 0 0 0 0 0 0 0 0 0 0 0 0 0 127 0" result="hardAlpha"/>
<feOffset dy="8"/>
<feGaussianBlur stdDeviation="4"/>
<feComposite in2="hardAlpha" operator="out"/>
<feColorMatrix type="matrix" values="0 0 0 0 0 0 0 0 0 0 0 0 0 0 0 0 0 0 0.25 0"/>
<feBlend mode="normal" in2="BackgroundImageFix" result="effect1_dropShadow_0_11"/>
<feBlend mode="normal" in="SourceGraphic" in2="effect1_dropShadow_0_11" result="shape"/>
</filter>
<filter id="filter3_d_0_11" x="263.608" y="2.76514" width="87.2556" height="83.9643" filterUnits="userSpaceOnUse" color-interpolation-filters="sRGB">
<feFlood flood-opacity="0" result="BackgroundImageFix"/>
<feColorMatrix in="SourceAlpha" type="matrix" values="0 0 0 0 0 0 0 0 0 0 0 0 0 0 0 0 0 0 127 0" result="hardAlpha"/>
<feOffset dy="8"/>
<feGaussianBlur stdDeviation="4"/>
<feComposite in2="hardAlpha" operator="out"/>
<feColorMatrix type="matrix" values="0 0 0 0 0 0 0 0 0 0 0 0 0 0 0 0 0 0 0.25 0"/>
<feBlend mode="normal" in2="BackgroundImageFix" result="effect1_dropShadow_0_11"/>
<feBlend mode="normal" in="SourceGraphic" in2="effect1_dropShadow_0_11" result="shape"/>
</filter>
<filter id="filter4_d_0_11" x="351.863" y="2.91238" width="86.7457" height="83.4796" filterUnits="userSpaceOnUse" color-interpolation-filters="sRGB">
<feFlood flood-opacity="0" result="BackgroundImageFix"/>
<feColorMatrix in="SourceAlpha" type="matrix" values="0 0 0 0 0 0 0 0 0 0 0 0 0 0 0 0 0 0 127 0" result="hardAlpha"/>
<feOffset dy="8"/>
<feGaussianBlur stdDeviation="4"/>
<feComposite in2="hardAlpha" operator="out"/>
<feColorMatrix type="matrix" values="0 0 0 0 0 0 0 0 0 0 0 0 0 0 0 0 0 0 0.25 0"/>
<feBlend mode="normal" in2="BackgroundImageFix" result="effect1_dropShadow_0_11"/>
<feBlend mode="normal" in="SourceGraphic" in2="effect1_dropShadow_0_11" result="shape"/>
</filter>
<linearGradient id="paint0_linear_0_11" x1="43.2359" y1="0.0625" x2="43.2359" y2="80.0625" gradientUnits="userSpaceOnUse">
<stop stop-color="#FF8E3B"/>
<stop offset="1" stop-color="#FFDF00"/>
</linearGradient>
<radialGradient id="paint1_radial_0_11" cx="0" cy="0" r="1" gradientUnits="userSpaceOnUse" gradientTransform="translate(1.34745 27.436) rotate(25.3033) scale(60.3463)">
<stop stop-color="white"/>
<stop offset="1" stop-color="white" stop-opacity="0"/>
</radialGradient>
<linearGradient id="paint2_linear_0_11" x1="131.236" y1="0.949219" x2="131.236" y2="80.9492" gradientUnits="userSpaceOnUse">
<stop stop-color="#FF8E3B"/>
<stop offset="1" stop-color="#FFDF00"/>
</linearGradient>
<radialGradient id="paint3_radial_0_11" cx="0" cy="0" r="1" gradientUnits="userSpaceOnUse" gradientTransform="translate(89.3475 28.3227) rotate(25.3033) scale(60.3463)">
<stop stop-color="white"/>
<stop offset="1" stop-color="white" stop-opacity="0"/>
</radialGradient>
<linearGradient id="paint4_linear_0_11" x1="219.236" y1="0.136719" x2="219.236" y2="80.1367" gradientUnits="userSpaceOnUse">
<stop stop-color="#FF8E3B"/>
<stop offset="1" stop-color="#FFDF00"/>
</linearGradient>
<radialGradient id="paint5_radial_0_11" cx="0" cy="0" r="1" gradientUnits="userSpaceOnUse" gradientTransform="translate(177.347 27.5102) rotate(25.3033) scale(60.3463)">
<stop stop-color="white"/>
<stop offset="1" stop-color="white" stop-opacity="0"/>
</radialGradient>
<linearGradient id="paint6_linear_0_11" x1="307.236" y1="0.121094" x2="307.236" y2="80.1211" gradientUnits="userSpaceOnUse">
<stop stop-color="#FF8E3B"/>
<stop offset="1" stop-color="#FFDF00"/>
</linearGradient>
<radialGradient id="paint7_radial_0_11" cx="0" cy="0" r="1" gradientUnits="userSpaceOnUse" gradientTransform="translate(265.347 27.4946) rotate(25.3033) scale(60.3463)">
<stop stop-color="white"/>
<stop offset="1" stop-color="white" stop-opacity="0"/>
</radialGradient>
<linearGradient id="paint8_linear_0_11" x1="395.236" y1="0" x2="395.236" y2="80" gradientUnits="userSpaceOnUse">
<stop stop-color="#FF8E3B"/>
<stop offset="1" stop-color="#FFDF00"/>
</linearGradient>
<radialGradient id="paint9_radial_0_11" cx="0" cy="0" r="1" gradientUnits="userSpaceOnUse" gradientTransform="translate(353.347 27.3735) rotate(25.3033) scale(60.3463)">
<stop stop-color="white"/>
<stop offset="1" stop-color="white" stop-opacity="0"/>
</radialGradient>
</defs>
</svg>
