<svg width="24" height="24" viewBox="0 0 24 24" fill="none" xmlns="http://www.w3.org/2000/svg">
<g id="Filled=yes, type=newest">
<path id="Union" fill-rule="evenodd" clip-rule="evenodd" d="M7.99327 6.88338C7.93551 6.38604 7.51284 6 7 6C6.44772 6 6 6.44772 6 7V14.583L4.70711 13.29L4.6129 13.2068C4.22061 12.9018 3.65338 12.9295 3.29289 13.29C2.90237 13.6806 2.90237 14.3137 3.29289 14.7042L6.33733 17.746L6.3871 17.7874L6.47929 17.8511L6.57678 17.9035L6.65833 17.9372L6.76649 17.9697L6.82529 17.9819L6.96775 17.9966L7.08581 17.9935L7.17465 17.9819L7.28908 17.9547L7.37134 17.9259L7.48406 17.8725L7.59531 17.8008C7.63433 17.7718 7.67171 17.7396 7.70711 17.7042L10.7071 14.7042L10.7903 14.61C11.0953 14.2177 11.0676 13.6505 10.7071 13.29L10.6129 13.2068C10.2206 12.9018 9.65338 12.9295 9.29289 13.29L8 14.581V7L7.99327 6.88338ZM7.61675 17.7844L7.70711 17.7042C7.67864 17.7327 7.64847 17.7595 7.61675 17.7844ZM17 17C17 16.4477 16.5523 16 16 16H13L12.8834 16.0067C12.386 16.0645 12 16.4872 12 17C12 17.5523 12.4477 18 13 18H16L16.1166 17.9933C16.614 17.9355 17 17.5128 17 17ZM19 12C19 11.4477 18.5523 11 18 11H13L12.8834 11.0067C12.386 11.0645 12 11.4872 12 12C12 12.5523 12.4477 13 13 13H18L18.1166 12.9933C18.614 12.9355 19 12.5128 19 12ZM21 7C21 6.44772 20.5523 6 20 6H13L12.8834 6.00673C12.386 6.06449 12 6.48716 12 7C12 7.55228 12.4477 8 13 8H20L20.1166 7.99327C20.614 7.93551 21 7.51284 21 7Z" fill="#0E1217"/>
</g>
</svg>
