<svg width="20" height="20" viewBox="0 0 20 20" fill="none" xmlns="http://www.w3.org/2000/svg">
<g id="&#60;Icon&#62;After">
<path id="Union" fill-rule="evenodd" clip-rule="evenodd" d="M6.66327 5.74823C6.62186 5.44334 6.3602 5.20834 6.04359 5.20834C5.69819 5.20834 5.41819 5.48801 5.41819 5.833V12.6587L3.98424 11.2267L3.91409 11.1662C3.66926 10.9847 3.32183 11.0049 3.0998 11.2267C2.85557 11.4706 2.85557 11.8661 3.0998 12.1101L5.60137 14.6087C5.62188 14.6292 5.64381 14.6483 5.67151 14.6692L5.74369 14.7153L5.80113 14.743L5.88941 14.7725L5.92026 14.7795L5.99601 14.7899L6.04359 14.7917C6.1071 14.7917 6.1684 14.7822 6.2255 14.7648L6.3119 14.7314L6.38644 14.6896C6.42158 14.6665 6.45491 14.6396 6.48581 14.6087L8.98737 12.1101L9.04793 12.04C9.22959 11.7955 9.2094 11.4484 8.98737 11.2267L8.91723 11.1662C8.6724 10.9847 8.32496 11.0049 8.10294 11.2267L6.66898 12.6587V5.833L6.66327 5.74823ZM11.0416 5.20834C10.6964 5.20834 10.4166 5.48816 10.4166 5.83334C10.4166 6.17851 10.6964 6.45834 11.0416 6.45834H16.4583C16.8035 6.45834 17.0833 6.17851 17.0833 5.83334C17.0833 5.48816 16.8035 5.20834 16.4583 5.20834H11.0416ZM11.0416 9.375C10.6964 9.375 10.4166 9.65482 10.4166 10C10.4166 10.3452 10.6964 10.625 11.0416 10.625H14.7916C15.1368 10.625 15.4166 10.3452 15.4166 10C15.4166 9.65482 15.1368 9.375 14.7916 9.375H11.0416ZM10.4166 14.1667C10.4166 13.8215 10.6964 13.5417 11.0416 13.5417H13.125C13.4701 13.5417 13.75 13.8215 13.75 14.1667C13.75 14.5118 13.4701 14.7917 13.125 14.7917H11.0416C10.6964 14.7917 10.4166 14.5118 10.4166 14.1667Z" fill="#FFFFFF"/>
</g>
</svg>
