<svg width="24" height="24" viewBox="0 0 24 24" fill="none" xmlns="http://www.w3.org/2000/svg">
<g id="Filled=no, type=newest">
<path id="Union" fill-rule="evenodd" clip-rule="evenodd" d="M7.99597 6.89788C7.94628 6.532 7.63229 6.25 7.25235 6.25C6.83788 6.25 6.50188 6.5856 6.50188 6.99959V15.1904L4.78113 13.472L4.69696 13.3994C4.40317 13.1817 3.98624 13.2059 3.71981 13.472C3.42673 13.7647 3.42673 14.2393 3.71981 14.5321L6.72169 17.5304C6.7463 17.555 6.77262 17.5779 6.80586 17.603L6.89248 17.6584L6.96141 17.6916L7.06734 17.727L7.10437 17.7354L7.19526 17.7479L7.25235 17.75C7.32856 17.75 7.40212 17.7387 7.47064 17.7177L7.57432 17.6777L7.66378 17.6275C7.70595 17.5998 7.74594 17.5675 7.78301 17.5304L10.7849 14.5321L10.8576 14.448C11.0756 14.1545 11.0513 13.7381 10.7849 13.472L10.7007 13.3994C10.4069 13.1817 9.99 13.2059 9.72357 13.472L8.00282 15.1904V6.99959L7.99597 6.89788ZM13.25 6.25C12.8358 6.25 12.5 6.58579 12.5 7C12.5 7.41421 12.8358 7.75 13.25 7.75H19.75C20.1642 7.75 20.5 7.41421 20.5 7C20.5 6.58579 20.1642 6.25 19.75 6.25H13.25ZM13.25 11.25C12.8358 11.25 12.5 11.5858 12.5 12C12.5 12.4142 12.8358 12.75 13.25 12.75H17.75C18.1642 12.75 18.5 12.4142 18.5 12C18.5 11.5858 18.1642 11.25 17.75 11.25H13.25ZM12.5 17C12.5 16.5858 12.8358 16.25 13.25 16.25H15.75C16.1642 16.25 16.5 16.5858 16.5 17C16.5 17.4142 16.1642 17.75 15.75 17.75H13.25C12.8358 17.75 12.5 17.4142 12.5 17Z" fill="#0E1217"/>
</g>
</svg>
