<svg width="24" height="24" viewBox="0 0 24 24" fill="currentColor" xmlns="http://www.w3.org/2000/svg">
  <path d="M13 3C14.8686 3 16.3951 4.46428 16.4948 6.30796L16.5 6.5V17.5C16.5 19.3686 15.0357 20.8951 13.192 20.9948L13 21H11C9.13144 21 7.60487 19.5357 7.50518 17.692L7.5 17.5V6.5C7.5 4.63144 8.96428 3.10487 10.808 3.00518L11 3H13ZM5.25 7.5C5.66421 7.5 6 7.83579 6 8.25V16.75C6 17.1642 5.66421 17.5 5.25 17.5C4.83579 17.5 4.5 17.1642 4.5 16.75V8.25C4.5 7.83579 4.83579 7.5 5.25 7.5ZM18.75 7.5C19.1642 7.5 19.5 7.83579 19.5 8.25V16.75C19.5 17.1642 19.1642 17.5 18.75 17.5C18.3358 17.5 18 17.1642 18 16.75V8.25C18 7.83579 18.3358 7.5 18.75 7.5Z" />
</svg>
