<svg width="24" height="24" viewBox="0 0 24 24" fill="currentColor" xmlns="http://www.w3.org/2000/svg">
  <path d="M13 2.5C14.8686 2.5 16.3951 3.96428 16.4948 5.80796L16.5 6V17C16.5 18.8686 15.0357 20.3951 13.192 20.4948L13 20.5H11C9.13144 20.5 7.60487 19.0357 7.50518 17.192L7.5 17V6C7.5 4.13144 8.96428 2.60487 10.808 2.50518L11 2.5H13ZM13 4H11C9.94564 4 9.08183 4.81588 9.00549 5.85074L9 6V17C9 18.0544 9.81588 18.9182 10.8507 18.9945L11 19H13C14.0544 19 14.9182 18.1841 14.9945 17.1493L15 17V6C15 4.94564 14.1841 4.08183 13.1493 4.00549L13 4ZM5.25 7C5.66421 7 6 7.33579 6 7.75V16.25C6 16.6642 5.66421 17 5.25 17C4.83579 17 4.5 16.6642 4.5 16.25V7.75C4.5 7.33579 4.83579 7 5.25 7ZM18.75 7C19.1642 7 19.5 7.33579 19.5 7.75V16.25C19.5 16.6642 19.1642 17 18.75 17C18.3358 17 18 16.6642 18 16.25V7.75C18 7.33579 18.3358 7 18.75 7Z" />
</svg>
