<?xml version="1.0" encoding="UTF-8"?>
<svg width="24px" height="24px" viewBox="0 0 24 24" version="1.1" xmlns="http://www.w3.org/2000/svg" xmlns:xlink="http://www.w3.org/1999/xlink">
    <title>Icon/Eye/Filled</title>
    <g id="Icon/Eye/Filled" stroke="none" stroke-width="1" fill="none" fill-rule="evenodd">
        <path d="M12,4.5 C15.8281776,4.5 18.7401213,6.78676974 20.6196222,11.0916204 L20.7586471,11.4182639 L21,12 L20.7586471,12.5817361 C18.8851458,17.0974625 15.923882,19.5 12,19.5 C8.17182244,19.5 5.25987872,17.2132303 3.38037778,12.9083796 L3.24135285,12.5817361 L3,12 L3.24135285,11.4182639 C5.11485418,6.90253746 8.076118,4.5 12,4.5 Z M12,7.75 C14.3472102,7.75 16.25,9.65278981 16.25,12 C16.25,14.3472102 14.3472102,16.25 12,16.25 C9.65278981,16.25 7.75,14.3472102 7.75,12 C7.75,9.65278981 9.65278981,7.75 12,7.75 Z" id="Shape" fill="#FFFFFF"></path>
    </g>
</svg>