<?xml version="1.0" encoding="UTF-8"?>
<svg width="24px" height="24px" viewBox="0 0 24 24" version="1.1" xmlns="http://www.w3.org/2000/svg" xmlns:xlink="http://www.w3.org/1999/xlink">
    <title>Icon/App/Filled</title>
    <g id="Icon/App/Filled" stroke="none" stroke-width="1" fill="none" fill-rule="evenodd">
        <path d="M8,14 L6,14 C4.95356574,14 4.09483517,14.8036551 4.00734119,15.8274323 L4,16 L4,18 C4,19.0464343 4.80365508,19.9051648 5.82743234,19.9926588 L6,20 L8,20 L8.17256766,19.9926588 C9.13612273,19.9103115 9.90469068,19.1447927 9.99177633,18.1825976 L10,18 L10,16 C10,14.9535657 9.19634492,14.0948352 8.17256766,14.0073412 L8,14 Z M18,14 L16,14 C14.9535657,14 14.0948352,14.8036551 14.0073412,15.8274323 L14,16 L14,18 C14,19.0464343 14.8036551,19.9051648 15.8274323,19.9926588 L16,20 L18,20 L18.1725677,19.9926588 C19.1361227,19.9103115 19.9046907,19.1447927 19.9917763,18.1825976 L20,18 L20,16 C20,14.9535657 19.1963449,14.0948352 18.1725677,14.0073412 L18,14 Z M8,4 L6,4 C4.95356574,4 4.09483517,4.80365508 4.00734119,5.82743234 L4,6 L4,8 C4,9.04643426 4.80365508,9.90516483 5.82743234,9.99265881 L6,10 L8,10 L8.17256766,9.99265881 C9.13612273,9.91031153 9.90469068,9.14479275 9.99177633,8.18259762 L10,8 L10,6 C10,4.95356574 9.19634492,4.09483517 8.17256766,4.00734119 L8,4 Z M16.8834366,3.006724 C16.386344,3.06446053 16.0004948,3.4869229 16.0004948,3.999505 L16,6 L13.999501,6.00049478 L13.881021,6.0079007 C13.3714473,6.07645298 13,6.49843029 13,7 C13,7.49706761 13.36494,7.91652091 13.852119,7.98868062 L13.981211,7.99883498 L16,7.999 L16.0004948,10.000506 L16.0092916,10.129546 C16.0834791,10.6350607 16.5029324,11 17,11 L17.1165634,10.993276 C17.613656,10.9355395 17.9995052,10.5130771 17.9995052,10.000495 L17.999,7.999 L20.000513,7.99950522 L20.118979,7.9920993 C20.6285527,7.92354702 21,7.50156971 21,7 C21,6.50293239 20.63506,6.08347909 20.147881,6.01131938 L20.018789,6.00116502 L17.999,6 L17.9995052,3.999494 L17.9907084,3.870454 C17.9165209,3.36493931 17.4970676,3 17,3 L16.8834366,3.006724 Z" id="Combined-Shape" fill="#FFFFFF"></path>
    </g>
</svg>