<?xml version="1.0" encoding="UTF-8"?>
<svg width="24px" height="24px" viewBox="0 0 24 24" version="1.1" xmlns="http://www.w3.org/2000/svg" xmlns:xlink="http://www.w3.org/1999/xlink">
    <title>Icon/App/Outline</title>
    <g id="Icon/App/Outline" stroke="none" stroke-width="1" fill="none" fill-rule="evenodd">
        <path d="M7.83333333,13 C9.52192809,13 10.9018294,14.3216739 10.9949871,15.9869716 L11,16.1666667 L11,17.8333333 C11,19.5219281 9.67832613,20.9018294 8.01302842,20.9949871 L7.83333333,21 L6.16666667,21 C4.47807191,21 3.09817064,19.6783261 3.00501287,18.0130284 L3,17.8333333 L3,16.1666667 C3,14.4780719 4.32167387,13.0981706 5.98697158,13.0050129 L6.16666667,13 L7.83333333,13 Z M17.8333333,13 C19.5219281,13 20.9018294,14.3216739 20.9949871,15.9869716 L21,16.1666667 L21,17.8333333 C21,19.5219281 19.6783261,20.9018294 18.0130284,20.9949871 L17.8333333,21 L16.1666667,21 C14.4780719,21 13.0981706,19.6783261 13.0050129,18.0130284 L13,17.8333333 L13,16.1666667 C13,14.4780719 14.3216739,13.0981706 15.9869716,13.0050129 L16.1666667,13 L17.8333333,13 Z M7.83333333,14.5 L6.16666667,14.5 C5.29463811,14.5 4.57902931,15.1697126 4.50611766,16.0228603 L4.5,16.1666667 L4.5,17.8333333 C4.5,18.7053619 5.16971256,19.4209707 6.02286029,19.4938823 L6.16666667,19.5 L7.83333333,19.5 L7.97713971,19.4938823 C8.78010228,19.4252596 9.42057556,18.7873273 9.49314694,17.985498 L9.5,17.8333333 L9.5,16.1666667 C9.5,15.2946381 8.83028744,14.5790293 7.97713971,14.5061177 L7.83333333,14.5 Z M17.8333333,14.5 L16.1666667,14.5 C15.2946381,14.5 14.5790293,15.1697126 14.5061177,16.0228603 L14.5,16.1666667 L14.5,17.8333333 C14.5,18.7053619 15.1697126,19.4209707 16.0228603,19.4938823 L16.1666667,19.5 L17.8333333,19.5 L17.9771397,19.4938823 C18.7801023,19.4252596 19.4205756,18.7873273 19.4931469,17.985498 L19.5,17.8333333 L19.5,16.1666667 C19.5,15.2946381 18.8302874,14.5790293 17.9771397,14.5061177 L17.8333333,14.5 Z M7.83333333,3 C9.52192809,3 10.9018294,4.32167387 10.9949871,5.98697158 L11,6.16666667 L11,7.83333333 C11,9.52192809 9.67832613,10.9018294 8.01302842,10.9949871 L7.83333333,11 L6.16666667,11 C4.47807191,11 3.09817064,9.67832613 3.00501287,8.01302842 L3,7.83333333 L3,6.16666667 C3,4.47807191 4.32167387,3.09817064 5.98697158,3.00501287 L6.16666667,3 L7.83333333,3 Z M20.3612517,6.25862134 C20.7226741,6.31215431 21,6.62369063 21,7 C21,7.37944528 20.7180327,7.69303346 20.3521986,7.74266312 L20.2504948,7.74950522 L17.7497454,7.74989627 L17.7495052,10.2504948 C17.7495052,10.6644351 17.4139403,11 17,11 C16.6236906,11 16.3121543,10.7226741 16.2586213,10.3612517 L16.2504948,10.2504948 L16.2502546,7.74989627 L13.7495052,7.74950522 L13.6387483,7.74137866 C13.2773259,7.68784569 13,7.37630937 13,7 C13,6.62055472 13.2819673,6.30696654 13.6478014,6.25733688 L13.7495052,6.25049478 L16.2502546,6.25040556 L16.2504948,3.74950522 C16.2504948,3.33556492 16.5860597,3 17,3 C17.3763094,3 17.6878457,3.27732588 17.7413787,3.63874833 L17.7495052,3.74950522 L17.7497454,6.25040556 L20.2504948,6.25049478 L20.3612517,6.25862134 Z M7.83333333,4.5 L6.16666667,4.5 C5.29463811,4.5 4.57902931,5.16971256 4.50611766,6.02286029 L4.5,6.16666667 L4.5,7.83333333 C4.5,8.70536189 5.16971256,9.42097069 6.02286029,9.49388234 L6.16666667,9.5 L7.83333333,9.5 L7.97713971,9.49388234 C8.78010228,9.42525961 9.42057556,8.78732729 9.49314694,7.98549801 L9.5,7.83333333 L9.5,6.16666667 C9.5,5.29463811 8.83028744,4.57902931 7.97713971,4.50611766 L7.83333333,4.5 Z" id="Combined-Shape" fill="#FFFFFF"></path>
    </g>
</svg>