<?xml version="1.0" encoding="UTF-8"?>
<svg width="24px" height="24px" viewBox="0 0 24 24" version="1.1" xmlns="http://www.w3.org/2000/svg" xmlns:xlink="http://www.w3.org/1999/xlink">
    <title>Icon/Checklist B/Filled</title>
    <g id="💎-Icons" stroke="none" stroke-width="1" fill="none" fill-rule="evenodd">
        <g id="Icon/Checklist-B/Filled" fill="#FFFFFF">
            <path d="M12.8588933,2.75 C13.5492492,2.75 14.1088933,3.30964406 14.1088933,4 C14.1088933,4.69035594 13.5492492,5.25 12.8588933,5.25 L10.8736462,5.25 C9.44508467,5.25 8.49107861,5.45864349 7.65896146,5.90366461 C6.89901928,6.31008614 6.31008614,6.89901928 5.90366461,7.65896146 C5.45864349,8.49107861 5.25,9.44508467 5.25,10.8736462 L5.25,12.8588933 C5.25,14.5565126 5.4438409,15.481243 5.90366461,16.3410385 C6.31008614,17.1009807 6.89901928,17.6899139 7.65896146,18.0963354 C8.51875705,18.5561591 9.44348742,18.75 11.1411067,18.75 L12.8588933,18.75 C14.5565126,18.75 15.481243,18.5561591 16.3410385,18.0963354 C17.1009807,17.6899139 17.6899139,17.1009807 18.0963354,16.3410385 C18.5561591,15.481243 18.75,14.5565126 18.75,12.8588933 L18.75,11.1411067 C18.75,10.4507508 19.3096441,9.8911067 20,9.8911067 C20.6903559,9.8911067 21.25,10.4507508 21.25,11.1411067 L21.25,12.8588933 C21.25,14.9405461 20.9725634,16.2640753 20.3008684,17.5200357 C19.6614474,18.7156491 18.7156491,19.6614474 17.5200357,20.3008684 C16.2640753,20.9725634 14.9405461,21.25 12.8588933,21.25 L11.1411067,21.25 C9.0594539,21.25 7.73592472,20.9725634 6.47996432,20.3008684 C5.28435095,19.6614474 4.33855264,18.7156491 3.69913161,17.5200357 C3.02743664,16.2640753 2.75,14.9405461 2.75,12.8588933 L2.75,10.8736462 C2.75,9.05617084 3.04656231,7.70016283 3.69913161,6.47996432 C4.33855264,5.28435095 5.28435095,4.33855264 6.47996432,3.69913161 C7.70016283,3.04656231 9.05617084,2.75 10.8736462,2.75 L12.8588933,2.75 Z M20.1032648,4.6526074 C20.6208647,5.10942424 20.6701392,5.89934511 20.2133224,6.41694505 L13.1527832,14.4169451 C12.6762699,14.9568622 11.8432868,14.9835299 11.3332141,14.4751979 L7.75096914,10.9051777 C7.26198012,10.4178575 7.26062735,9.62640239 7.74794764,9.13741338 C8.23526793,8.64842436 9.02672299,8.64707159 9.51571201,9.13439188 L12.1573406,11.766805 L18.3389272,4.76266496 C18.795744,4.24506502 19.5856649,4.19579057 20.1032648,4.6526074 Z" id="Shape"></path>
        </g>
    </g>
</svg>
