<?xml version="1.0" encoding="UTF-8"?>
<svg width="24px" height="24px" viewBox="0 0 24 24" version="1.1" xmlns="http://www.w3.org/2000/svg" xmlns:xlink="http://www.w3.org/1999/xlink">
    <title>Icon/Checklist B/Outline</title>
    <g id="💎-Icons" stroke="none" stroke-width="1" fill="none" fill-rule="evenodd">
        <g id="Icon/Checklist-B/Outline" fill="#FFFFFF">
            <path d="M12.8588933,3.25 C13.2731069,3.25 13.6088933,3.58578644 13.6088933,4 C13.6088933,4.41421356 13.2731069,4.75 12.8588933,4.75 L10.8736462,4.75 C9.36730191,4.75 8.33289546,4.97622725 7.42316203,5.46275801 C6.57608561,5.91577944 5.91577944,6.57608561 5.46275801,7.42316203 C4.97622725,8.33289546 4.75,9.36730191 4.75,10.8736462 L4.75,12.8588933 C4.75,14.6333193 4.96056005,15.6378094 5.46275801,16.576838 C5.91577944,17.4239144 6.57608561,18.0842206 7.42316203,18.537242 C8.36219058,19.03944 9.36668072,19.25 11.1411067,19.25 L12.8588933,19.25 C14.6333193,19.25 15.6378094,19.03944 16.576838,18.537242 C17.4239144,18.0842206 18.0842206,17.4239144 18.537242,16.576838 C19.03944,15.6378094 19.25,14.6333193 19.25,12.8588933 L19.25,11.1411067 C19.25,10.7268931 19.5857864,10.3911067 20,10.3911067 C20.4142136,10.3911067 20.75,10.7268931 20.75,11.1411067 L20.75,12.8588933 C20.75,14.8637394 20.4892825,16.1075088 19.8599618,17.2842363 C19.2671407,18.3927154 18.3927154,19.2671407 17.2842363,19.8599618 C16.1075088,20.4892825 14.8637394,20.75 12.8588933,20.75 L11.1411067,20.75 C9.13626061,20.75 7.89249119,20.4892825 6.71576375,19.8599618 C5.60728461,19.2671407 4.73285934,18.3927154 4.14003821,17.2842363 C3.51071749,16.1075088 3.25,14.8637394 3.25,12.8588933 L3.25,10.8736462 C3.25,9.13395361 3.52897854,7.85834598 4.14003821,6.71576375 C4.73285934,5.60728461 5.60728461,4.73285934 6.71576375,4.14003821 C7.85834598,3.52897854 9.13395361,3.25 10.8736462,3.25 L12.8588933,3.25 Z M19.7724088,5.02748645 C20.0829687,5.30157655 20.1125334,5.77552907 19.8384433,6.08608903 L12.7779041,14.086089 C12.4919962,14.4100393 11.9922063,14.4260399 11.6861627,14.1210408 L8.10391771,10.5510206 C7.8105243,10.2586284 7.80971264,9.78375536 8.10210481,9.49036195 C8.39449698,9.19696854 8.86937003,9.19615688 9.16276343,9.48854905 L12.1803406,12.494805 L18.7138062,5.09352098 C18.9878963,4.78296101 19.4618488,4.75339634 19.7724088,5.02748645 Z" id="Shape"></path>
        </g>
    </g>
</svg>
