<svg width="24" height="24" viewBox="0 0 24 24" fill="none" xmlns="http://www.w3.org/2000/svg">
  <g id="Filled=yes">
    <path id="Shape" fill-rule="evenodd" clip-rule="evenodd" d="M13 15C13 14.4477 13.4477 14 14 14C14.5128 14 14.9355 14.386 14.9933 14.8834L15 15L15 19C15 19.5523 14.5523 20 14 20C13.4872 20 13.0645 19.614 13.0067 19.1166L13 19L13 15ZM9 5C9 4.44771 9.44771 4 10 4C10.5128 4 10.9355 4.38604 10.9933 4.88338L11 5L11 19C11 19.5523 10.5523 20 10 20C9.48716 20 9.06449 19.614 9.00673 19.1166L9 19L9 5ZM5 11C5 10.4477 5.44771 10 6 10C6.51284 10 6.93551 10.386 6.99327 10.8834L7 11L7 19C7 19.5523 6.55228 20 6 20C5.48716 20 5.06449 19.614 5.00673 19.1166L5 19L5 11ZM17 9C17 8.44771 17.4477 8 18 8C18.5128 8 18.9355 8.38604 18.9933 8.88338L19 9L19 19C19 19.5523 18.5523 20 18 20C17.4872 20 17.0645 19.614 17.0067 19.1166L17 19L17 9Z" fill="currentColor"/>
  </g>
</svg>
