<svg width="24" height="24" viewBox="0 0 24 24" fill="none" xmlns="http://www.w3.org/2000/svg">
  <g id="Filled=no">
    <path id="Shape" d="M17.25 8.75C17.25 8.33579 17.5858 8 18 8C18.4142 8 18.75 8.33579 18.75 8.75L18.75 19.25C18.75 19.6642 18.4142 20 18 20C17.5858 20 17.25 19.6642 17.25 19.25L17.25 8.75ZM13.25 14.75C13.25 14.3358 13.5858 14 14 14C14.4142 14 14.75 14.3358 14.75 14.75L14.75 19.25C14.75 19.6642 14.4142 20 14 20C13.5858 20 13.25 19.6642 13.25 19.25L13.25 14.75ZM9.25 4.75C9.25 4.33579 9.58579 4 10 4C10.4142 4 10.75 4.33579 10.75 4.75L10.75 19.25C10.75 19.6642 10.4142 20 10 20C9.58579 20 9.25 19.6642 9.25 19.25L9.25 4.75ZM5.25 10.75C5.25 10.3358 5.58579 10 6 10C6.41421 10 6.75 10.3358 6.75 10.75L6.75 19.25C6.75 19.6642 6.41421 20 6 20C5.58579 20 5.25 19.6642 5.25 19.25L5.25 10.75Z" fill="currentColor"/>
  </g>
</svg>
