<svg width="24" height="24" viewBox="0 0 24 24" fill="none" xmlns="http://www.w3.org/2000/svg">
  <g id="Filled=yes" fill="#FFFFFF">
    <path id="Shape" fill-rule="evenodd" clip-rule="evenodd" d="M18.3929 6.34119L9.749 14.982L5.63387 10.8661L5.52295 10.7686C4.99927 10.3783 4.30571 10.4265 3.86612 10.8661C3.37796 11.3543 3.37796 12.1457 3.86612 12.6339L8.86612 17.6339L8.95643 17.7151L9.11206 17.824L9.32705 17.9249L9.46174 17.9661L9.54876 17.9836L9.72079 17.9987L9.79696 17.9983L9.9055 17.9903L9.99401 17.9757L10.0793 17.9558L10.2378 17.9002L10.3375 17.8533L10.4879 17.7579L10.612 17.6545L20.1339 8.13388L20.2314 8.02294C20.6217 7.49927 20.5735 6.80571 20.1339 6.36612C19.6943 5.92652 19.0007 5.87832 18.5059 6.24551L18.3929 6.34119Z" />
  </g>
</svg>
