<svg width="20" height="20" viewBox="0 0 20 20" fill="none"
     xmlns="http://www.w3.org/2000/svg">
  <title>Checkmark</title>
  <g clip-path="url(#clip0_24912_5278)">
    <path fill-rule="evenodd" clip-rule="evenodd"
          d="M8.12984 14.5833L8.03233 14.5765L7.99171 14.569L7.93657 14.5544L7.8233 14.5059L7.74006 14.4508L7.68305 14.4003L3.51639 10.2336C3.27231 9.98952 3.27231 9.59379 3.51639 9.34971C3.73828 9.12783 4.0855 9.10765 4.33017 9.2892L4.40027 9.34971L8.12499 13.0742L15.5997 5.59971L15.6698 5.5392C15.9145 5.35765 16.2617 5.37783 16.4836 5.59971C16.7055 5.8216 16.7257 6.16882 16.5441 6.4135L16.4836 6.4836L8.56694 14.4003L8.50996 14.4508L8.42669 14.5059L8.38656 14.5261L8.29775 14.5591L8.2583 14.569L8.20272 14.5785C8.17886 14.5815 8.15436 14.5831 8.12984 14.5833Z"
          fill="currentColor"/>
  </g>
  <defs>
    <clipPath id="clip0_24912_5278">
      <rect width="20" height="20" fill="currentColor"/>
    </clipPath>
  </defs>
</svg>
