<svg width="24" height="24" viewBox="0 0 24 24" fill="none" xmlns="http://www.w3.org/2000/svg">
  <g id="Filled=no" fill="#FFFFFF">
    <path id="Shape" fill-rule="evenodd" clip-rule="evenodd" d="M9.75582 17.5L9.6388 17.4918L9.59006 17.4828L9.52389 17.4653L9.38797 17.4071L9.28808 17.341L9.21967 17.2803L4.21967 12.2803C3.92678 11.9874 3.92678 11.5126 4.21967 11.2197C4.48594 10.9534 4.9026 10.9292 5.19621 11.1471L5.28033 11.2197L9.75 15.689L18.7197 6.71967L18.8038 6.64705C19.0974 6.4292 19.5141 6.4534 19.7803 6.71967C20.0466 6.98594 20.0708 7.4026 19.8529 7.69621L19.7803 7.78033L10.2803 17.2803L10.212 17.3409L10.112 17.4071L10.0639 17.4314L9.9573 17.4709L9.90997 17.4828L9.84327 17.4942C9.81464 17.4978 9.78523 17.4998 9.75582 17.5Z" />
  </g>
</svg>
