<?xml version="1.0" encoding="UTF-8"?>
<svg width="24px" height="24px" viewBox="0 0 24 24" version="1.1" xmlns="http://www.w3.org/2000/svg" xmlns:xlink="http://www.w3.org/1999/xlink">
    <title>Icon/Magnifying Glass/Filled</title>
    <g id="Icon/Magnifying-Glass/Filled" stroke="none" stroke-width="1" fill="none" fill-rule="evenodd">
        <path d="M15.3938937,15.3938937 C16.1505733,14.637214 17.3512745,14.5951763 18.1572899,15.2677804 L18.2952601,15.3938937 L20.4218613,17.521646 L20.5501309,17.6657512 C21.2035888,18.4780395 21.1434755,19.6586158 20.4010457,20.4010457 C20.1335266,20.6685648 19.8033137,20.8529231 19.4272511,20.9439121 L19.235477,20.9815785 L19.0265502,21 L18.8455671,20.9992721 C18.4050095,20.9768396 17.9834635,20.8141281 17.6412897,20.5301296 L17.4996793,20.4010457 L15.3730781,18.2732933 L15.2448085,18.1291882 C14.6297892,17.3646815 14.6468608,16.2739405 15.2699659,15.5292948 L15.3938937,15.3938937 Z M9.75072687,3 C13.4790504,3 16.5014537,6.02240337 16.5014537,9.75072687 C16.5014537,13.2936275 13.7667501,16.21445 10.2623153,16.4818691 L10.0107159,16.4964305 L9.73962263,16.5013441 L9.47960749,16.4961005 C5.86647794,16.3531842 3,13.3779823 3,9.75072687 C3,6.02240337 6.02240337,3 9.75072687,3 Z" id="Shape" fill="#FFFFFF"></path>
    </g>
</svg>