<?xml version="1.0" encoding="UTF-8"?>
<svg width="24px" height="24px" viewBox="0 0 24 24" version="1.1" xmlns="http://www.w3.org/2000/svg" xmlns:xlink="http://www.w3.org/1999/xlink">
    <title>Icon/Magnifying Glass/Outline</title>
    <g id="Icon/Magnifying-Glass/Outline" stroke="none" stroke-width="1" fill="none" fill-rule="evenodd">
        <path d="M10,3 C13.8659932,3 17,6.13400675 17,10 C17,11.271902 16.6607772,12.4645742 16.0678687,13.4924797 C16.8003285,13.4300428 17.5526757,13.6536772 18.1442215,14.1626243 L18.3014296,14.3085014 L20.1730375,16.1801093 C21.2756542,17.2827259 21.2756542,19.0704208 20.1730375,20.1730375 C19.1163632,21.2297118 17.4305111,21.2737399 16.3214053,20.3051218 L16.1801093,20.1730375 L14.3085014,18.3014296 C13.6967023,17.6896305 13.4243667,16.8669158 13.4914946,16.0673432 C12.4645742,16.6607772 11.271902,17 10,17 C6.13400675,17 3,13.8659932 3,10 C3,6.13400675 6.13400675,3 10,3 Z M17.2407694,15.3691616 C16.7239392,14.8523313 15.8859918,14.8523313 15.3691616,15.3691616 C14.8867867,15.8515364 14.8546283,16.6136401 15.2726866,17.1333121 L15.3691616,17.2407694 L17.2407694,19.1123773 C17.4819569,19.3535648 17.7930765,19.4821981 18.1088583,19.4982772 L18.2442885,19.4982772 L18.3791478,19.4844951 C18.6475344,19.4431487 18.9056452,19.3191094 19.1123773,19.1123773 C19.5947522,18.6300024 19.6269105,17.8678988 19.2088523,17.3482268 L19.1123773,17.2407694 L17.2407694,15.3691616 Z M10,4.5 C6.96243388,4.5 4.5,6.96243388 4.5,10 C4.5,12.9634791 6.84378001,15.3795391 9.77879286,15.4956328 L10,15.5 L10.2212071,15.4956328 C13.15622,15.3795391 15.5,12.9634791 15.5,10 C15.5,6.96243388 13.0375661,4.5 10,4.5 Z" id="Shape" fill="#FFFFFF"></path>
    </g>
</svg>