<svg width="24" height="24" xmlns="http://www.w3.org/2000/svg"><g fill="none" fill-rule="evenodd"><path d="M3.048 16.767A10.242 10.242 0 0 1 2 12.233c0-1.631.376-3.17 1.048-4.534l3.441 2.631a6.072 6.072 0 0 0-.303 1.903c0 .665.106 1.304.303 1.902l-3.441 2.632z" fill="#FBBC05"/><path d="M3.048 7.699A10.203 10.203 0 0 1 12.233 2c2.604 0 4.93.977 6.744 2.558L16 7.535a5.916 5.916 0 0 0-3.767-1.349 6.035 6.035 0 0 0-5.744 4.144L3.048 7.7z" fill="#EA4335"/><path d="M3.046 16.764l3.44-2.638a6.035 6.035 0 0 0 5.747 4.153c2.837 0 4.976-1.442 5.488-3.953h-5.488v-3.954h9.534c.14.605.233 1.256.233 1.86 0 6.512-4.651 10.233-9.767 10.233a10.203 10.203 0 0 1-9.187-5.701z" fill="#34A853"/><path d="M18.902 19.917l-3.267-2.53c1.068-.674 1.811-1.714 2.086-3.061h-5.488v-3.954h9.534c.14.605.233 1.256.233 1.86 0 3.336-1.22 5.939-3.098 7.685z" fill="#4285F4"/></g></svg>