<?xml version="1.0" encoding="UTF-8"?>
<svg width="24px" height="24px" viewBox="0 0 24 24" version="1.1" xmlns="http://www.w3.org/2000/svg" xmlns:xlink="http://www.w3.org/1999/xlink">
    <title>Icon/V/Filled</title>
    <g id="Icon/V/Filled" stroke="none" stroke-width="1" fill="none" fill-rule="evenodd">
        <path d="M18.3929362,6.34119257 L9.749,14.982 L5.63387004,10.8661031 L5.52294534,10.7685744 C4.99927027,10.3783219 4.30571052,10.4265225 3.86611652,10.8661165 C3.37796116,11.3542719 3.37796116,12.1457281 3.86611652,12.6338835 L8.86611652,17.6338835 L8.95643249,17.715142 L9.11205672,17.824039 L9.32705314,17.9248921 L9.46173847,17.9660898 L9.54876164,17.9835854 L9.72078505,17.9987489 L9.79696458,17.9982782 L9.90550134,17.9903247 L9.9940136,17.9757247 L10.0793481,17.9558005 L10.2377966,17.9001627 L10.3375209,17.8533228 L10.4878614,17.7579249 L10.6120036,17.6544861 L20.1338835,8.13388348 L20.2314256,8.02294534 C20.6216781,7.49927027 20.5734775,6.80571052 20.1338835,6.36611652 C19.6942895,5.92652253 19.0007297,5.87832191 18.5058528,6.2455117 L18.3929362,6.34119257 Z" id="Path" fill="#FFFFFF"></path>
    </g>
</svg>