<?xml version="1.0" encoding="UTF-8"?>
<svg width="24px" height="24px" viewBox="0 0 24 24" version="1.1" xmlns="http://www.w3.org/2000/svg" xmlns:xlink="http://www.w3.org/1999/xlink">
    <title>Icon/V/Outline</title>
    <g id="Icon/V/Outline" stroke="none" stroke-width="1" fill="none" fill-rule="evenodd">
        <path d="M9.75581637,17.4999776 L9.63879826,17.4917588 L9.63879826,17.4917588 L9.59005813,17.4828361 L9.59005813,17.4828361 L9.52388589,17.4652652 L9.52388589,17.4652652 L9.38797196,17.4070608 L9.38797196,17.4070608 L9.28807615,17.3409596 L9.28807615,17.3409596 L9.21966991,17.2803301 L4.21966991,12.2803301 C3.9267767,11.9874369 3.9267767,11.5125631 4.21966991,11.2196699 C4.48593648,10.9534034 4.90260016,10.9291973 5.19621165,11.1470518 L5.28033009,11.2196699 L9.75,15.689 L18.7196699,6.71966991 L18.8037883,6.64705176 C19.0973998,6.4291973 19.5140635,6.45340335 19.7803301,6.71966991 C20.0465966,6.98593648 20.0708027,7.40260016 19.8529482,7.69621165 L19.7803301,7.78033009 L10.2803301,17.2803301 L10.2119586,17.3409386 L10.2119586,17.3409386 L10.1120363,17.407053 L10.1120363,17.407053 L10.0638816,17.4313839 L10.0638816,17.4313839 L9.95730224,17.4709244 L9.95730224,17.4709244 L9.90996482,17.4828395 L9.90996482,17.4828395 L9.84326925,17.4942127 L9.84326925,17.4942127 C9.81463687,17.4978043 9.78523202,17.4997509 9.75581637,17.4999776 Z" id="Path" fill="#FFFFFF"></path>
    </g>
</svg>