<?xml version="1.0" encoding="UTF-8"?>
<svg width="24px" height="24px" viewBox="0 0 24 24" version="1.1" xmlns="http://www.w3.org/2000/svg" xmlns:xlink="http://www.w3.org/1999/xlink">
    <title>Icon/Send-airplane/Filled</title>
    <g id="Icon/Send-airplane/Filled" stroke="none" stroke-width="1" fill="none" fill-rule="evenodd">
        <path d="M19.5933522,13.8116856 C19.3967339,14.0990136 19.1378879,14.3418481 18.8354454,14.5227106 L8.59372474,20.6473195 C7.46443849,21.3259368 6.00297996,20.9954658 5.33225787,19.9115766 C5.00521792,19.3830789 4.91483282,18.7442451 5.08234783,18.1403917 C5.52733716,16.5340447 5.80249628,14.9279817 5.90813033,13.3214727 L10.8596666,13.2910009 C11.2976083,13.2937379 11.6627499,12.9511829 11.6752331,12.5258828 C11.6877164,12.1005827 11.3428141,11.75359 10.9048724,11.7508529 L5.95476884,11.7818619 C5.95484854,10.1342746 5.77386175,8.48382198 5.41410855,6.83017724 C5.14518307,5.58690147 5.97201521,4.34587778 7.25943959,4.05908466 C7.888688,3.91891012 8.54352058,4.03061232 9.07006251,4.3679885 L18.9500177,10.6192715 C20.0399246,11.3088816 20.3279553,12.7381741 19.5933522,13.8116856 Z" id="Path" fill="#FFFFFF"></path>
    </g>
</svg>