<?xml version="1.0" encoding="UTF-8"?>
<svg width="24px" height="24px" viewBox="0 0 24 24" version="1.1" xmlns="http://www.w3.org/2000/svg" xmlns:xlink="http://www.w3.org/1999/xlink">
    <title>Icon/Send-airplane/Outline</title>
    <g id="Icon/Send-airplane/Outline" stroke="none" stroke-width="1" fill="none" fill-rule="evenodd">
        <path d="M19.5933522,13.8116856 C19.3967339,14.0990136 19.1378879,14.3418481 18.8354454,14.5227106 L8.59372474,20.6473195 C7.46443849,21.3259368 6.00297996,20.9954658 5.33225787,19.9115766 C5.00521792,19.3830789 4.91483282,18.7442451 5.08234783,18.1403917 C5.60409545,16.2569584 5.89237005,14.3739155 5.94766348,12.4900864 C6.0029569,10.6062572 5.82530848,8.72030246 5.41410855,6.83017724 C5.14518307,5.58690147 5.97201521,4.34587778 7.25943959,4.05908466 C7.888688,3.91891012 8.54352058,4.03061232 9.07006251,4.3679885 L18.9500177,10.6192715 C20.0399246,11.3088816 20.3279553,12.7381741 19.5933522,13.8116856 Z M18.0632732,11.9151145 L8.17961663,5.66147478 C8.00593087,5.55019235 7.7903305,5.51341496 7.5817362,5.55988247 C7.15284204,5.65542509 6.87768464,6.06841926 6.96694916,6.4811027 C7.34756837,8.23065802 7.54001689,9.98044376 7.5440145,11.7296759 L10.9048724,11.7508529 C11.3428141,11.75359 11.6877164,12.1005827 11.6752331,12.5258828 C11.6627499,12.9511829 11.2976083,13.2937379 10.8596666,13.2910009 L7.49879841,13.2701687 C7.39213446,15.0187131 7.09704903,16.7654817 6.61381913,18.5098715 C6.55838405,18.7097023 6.58834931,18.9214941 6.69709795,19.0972323 C6.92037981,19.4580565 7.40571572,19.5678027 7.78184829,19.3417771 L18.0250825,13.2162609 C18.1258967,13.1559734 18.2121786,13.0750285 18.2777181,12.9792525 C18.5225858,12.6214154 18.4265756,12.1449845 18.0632732,11.9151145 Z" id="Shape" fill="#FFFFFF"></path>
    </g>
</svg>