<?xml version="1.0" encoding="UTF-8"?>
<svg width="24px" height="24px" viewBox="0 0 24 24" version="1.1" xmlns="http://www.w3.org/2000/svg" xmlns:xlink="http://www.w3.org/1999/xlink">
    <title>Icon/Hot/Filled</title>
    <g id="Icon/Hot/Filled" stroke="none" stroke-width="1" fill="none" fill-rule="evenodd">
        <path d="M12.4504734,4.80311519 L13.049891,5.54911619 L13.9262004,6.60669919 L14.7597513,7.60557919 L15.2831539,8.24722019 C16.5540227,9.83225266 17.5265909,10.8798833 17.8404375,12.561688 C18.0565308,13.7196634 17.8857697,14.9486405 17.3751445,16.0130549 C16.4529206,17.963409 14.3751798,19.3520186 12.2213208,19.4577231 C12.1303638,19.4621529 12.0411207,19.4643802 11.9528982,19.4643802 C9.87059725,19.4641843 7.83546399,18.2877042 6.83012458,16.4970966 C5.49209396,14.1487943 5.79286744,11.3681794 7.57858806,9.5536249 C8.21585547,8.90633079 8.55323233,8.91420414 8.59071865,9.57724497 L8.59423299,9.70924287 L8.59543626,10.2753442 L8.60385908,10.8490183 L8.61705039,11.2300033 L8.63879821,11.6058465 C8.74129822,13.0323757 9.07954824,14.2705657 10.1957733,14.4578342 C10.8777202,14.5722441 11.6031358,14.3940661 12.0493182,13.6403404 C12.3445663,13.1312538 12.4025081,12.5296032 12.2116986,11.9494563 L12.1388667,11.7570269 L12.0489544,11.5616653 L11.9342684,11.3255486 L11.7157886,10.894958 L11.441568,10.3726685 L11.1116066,9.7586802 C10.3363042,8.32903183 10.2027033,6.41613303 11.317356,4.83438119 C11.3566516,4.77851817 11.4038283,4.72864338 11.4574174,4.68631219 C11.7638833,4.44422819 12.2084895,4.49652251 12.4504734,4.80311519 Z" id="Path" fill="#FFFFFF"></path>
    </g>
</svg>