<?xml version="1.0" encoding="UTF-8"?>
<svg width="24px" height="24px" viewBox="0 0 24 24" version="1.1" xmlns="http://www.w3.org/2000/svg" xmlns:xlink="http://www.w3.org/1999/xlink">
    <title>Icon/Hot/Filled</title>
    <g id="Icon/Hot/Filled" stroke="none" stroke-width="1" fill="none" fill-rule="evenodd">
        <path d="M12.5846688,3.32433469 L13.3080681,4.22371574 L14.3656306,5.498741 L15.3715905,6.70299373 L16.003252,7.47655806 C17.5369833,9.38747798 18.7107144,10.6505047 19.089476,12.6780935 C19.3502654,14.0741521 19.1441847,15.5558106 18.5279433,16.8390717 C17.4149696,19.1904246 14.9074754,20.8645365 12.3081191,20.9919741 C12.1983488,20.9973147 12.090647,21 11.9841768,21 C9.47117931,20.9997638 7.01510554,19.5813958 5.80182491,17.422634 C4.18704029,14.5915136 4.5500248,11.2391959 6.70509821,9.05156351 C7.47417599,8.27118378 7.88133481,8.28067592 7.92657468,9.08003994 L7.93081592,9.23917701 L7.93226806,9.92167047 L7.94243304,10.6132938 L7.95835279,11.0726104 L7.98459887,11.5257281 C8.10829965,13.245556 8.51651223,14.7383216 9.86361373,14.964093 C10.6866124,15.1020259 11.5620706,14.887214 12.10054,13.9785201 C12.4568563,13.3647637 12.5267825,12.6394119 12.2965066,11.9399851 L12.2086104,11.7079916 L12.1001009,11.4724631 L11.9616936,11.1878001 L11.6980242,10.6686787 L11.3670847,10.039005 L10.9688751,9.29877881 C10.0332116,7.57519042 9.87197713,5.26899385 11.217181,3.36202907 C11.2646044,3.29468044 11.3215391,3.23455124 11.3862123,3.18351664 C11.7560666,2.89165944 12.2926338,2.95470563 12.5846688,3.32433469 Z" id="Path" fill="#FFFFFF"></path>
    </g>
</svg>