<?xml version="1.0" encoding="UTF-8"?>
<svg width="24px" height="24px" viewBox="0 0 24 24" version="1.1" xmlns="http://www.w3.org/2000/svg" xmlns:xlink="http://www.w3.org/1999/xlink">
    <title>Icon/Hot/Outline</title>
    <g id="Icon/Hot/Outline" stroke="none" stroke-width="1" fill="none" fill-rule="evenodd">
        <path d="M15.1378862,5.62383719 L14.2649916,4.57036119 L13.6885064,3.85271619 C12.9215024,2.88092472 11.5119181,2.71512829 10.540413,3.48254119 C10.3705699,3.61670399 10.2210593,3.77476284 10.0965341,3.95178919 L9.94778832,4.17460519 C9.27968617,5.23172943 8.97549129,6.11529843 9.00494031,7.3938307 L9.01398652,7.60940578 L8.98585154,7.5996115 C8.24123894,7.36431772 7.27980226,7.70494693 6.51931229,8.47740237 C4.24135031,10.7921464 3.86025602,14.3240406 5.53115268,17.2565374 C6.80394977,19.5235756 9.35113774,20.998161 11.9866338,20.998409 C12.0999368,20.998409 12.2140417,20.9955746 12.3298231,20.9899358 C15.0497975,20.8564483 17.6316617,19.1308374 18.7958318,16.6688059 C19.4454363,15.3147408 19.6574509,13.7546511 19.3823134,12.2802764 C19.045367,10.4746875 18.1731019,9.35702352 16.5138612,7.28761219 L15.9823341,6.63592519 L15.1378862,5.62383719 Z M12.4843533,4.80311519 L13.083771,5.54911619 L13.9600803,6.60669919 L14.7936312,7.60557919 L15.3170338,8.24722019 C16.5879026,9.83225266 17.5604708,10.8798833 17.8743174,12.561688 C18.0904107,13.7196634 17.9196497,14.9486405 17.4090244,16.0130549 C16.4868005,17.963409 14.4090597,19.3520186 12.2552008,19.4577231 C12.1642438,19.4621529 12.0750006,19.4643802 11.9867781,19.4643802 C9.90447719,19.4641843 7.86934393,18.2877042 6.86400451,16.4970966 C5.5259739,14.1487943 5.82674738,11.3681794 7.61246799,9.5536249 C8.2497354,8.90633079 8.58711227,8.91420414 8.62459859,9.57724497 L8.62811293,9.70924287 L8.62931619,10.2753442 L8.63773902,10.8490183 L8.65093032,11.2300033 L8.67267815,11.6058465 C8.77517815,13.0323757 9.11342817,14.2705657 10.2296532,14.4578342 C10.9116001,14.5722441 11.6370157,14.3940661 12.0831982,13.6403404 C12.3784462,13.1312538 12.436388,12.5296032 12.2455785,11.9494563 L12.1727466,11.7570269 L12.0828343,11.5616653 L11.9681483,11.3255486 L11.7496686,10.894958 L11.475448,10.3726685 L11.1454865,9.7586802 C10.3701841,8.32903183 10.2365832,6.41613303 11.3512359,4.83438119 C11.3905315,4.77851817 11.4377083,4.72864338 11.4912974,4.68631219 C11.7977632,4.44422819 12.2423695,4.49652251 12.4843533,4.80311519 Z" id="Path" fill="#FFFFFF"></path>
    </g>
</svg>