<?xml version="1.0" encoding="UTF-8"?>
<svg width="24px" height="24px" viewBox="0 0 24 24" version="1.1" xmlns="http://www.w3.org/2000/svg" xmlns:xlink="http://www.w3.org/1999/xlink">
    <title>Icon/Mail/Filled</title>
    <g id="💎-Icons" stroke="none" stroke-width="1" fill="none" fill-rule="evenodd">
        <g id="Icon/Mail/Filled" fill="#FFFFFF">
            <path d="M17,4.8 L17.2194688,4.8059187 C19.2538823,4.91592663 20.8840734,6.54611774 20.9940813,8.5805312 L21,8.8 L21,15.1959996 L20.9940813,15.4154684 C20.8840734,17.4498819 19.2538823,19.0800737 17.2194688,19.1900817 L17,19.1960004 L7,19.1960004 L6.7805312,19.1900817 C4.74611774,19.0800737 3.11592663,17.4498819 3.0059187,15.4154684 L3,15.1959996 L3,8.8 L3.0059187,8.5805312 C3.11592663,6.54611774 4.74611774,4.91592663 6.7805312,4.8059187 L7,4.8 L17,4.8 Z M19.0153032,8.87544 C18.7168115,8.40992608 18.1514949,8.26968615 17.7030598,8.52860326 L17.5936081,8.60169107 L11.9996916,12.8778449 L6.40639195,8.60169107 C5.94457743,8.24857168 5.30806285,8.37113325 4.98469684,8.87544 C4.688278,9.33772119 4.75788475,9.96030593 5.12725911,10.3328516 L5.23538005,10.4279474 L11.2708431,15.0427159 C11.6580482,15.3387764 12.1805423,15.3683931 12.5948157,15.1315606 L12.7285647,15.042748 L18.76462,10.4279474 C19.2264345,10.074828 19.3386692,9.37974676 19.0153032,8.87544 Z" id="Shape"></path>
        </g>
    </g>
</svg>