<?xml version="1.0" encoding="UTF-8"?>
<svg width="24px" height="24px" viewBox="0 0 24 24" version="1.1" xmlns="http://www.w3.org/2000/svg" xmlns:xlink="http://www.w3.org/1999/xlink">
    <title>Icon/Volume/Filled</title>
    <g id="Icon/Volume/Filled" stroke="none" stroke-width="1" fill="none" fill-rule="evenodd">
        <path d="M11.4142136,4.58578644 C11.7892863,4.96085913 12,5.46957049 12,6 L12,18 C12,19.1045695 11.1045695,20 10,20 C9.46957049,20 8.96085913,19.7892863 8.58578644,19.4142136 L5.17157288,16 L4,16 C2.8954305,16 2,15.1045695 2,14 L2,10 C2,8.8954305 2.8954305,8 4,8 L5.17157288,8 L8.58578644,4.58578644 C9.36683502,3.80473785 10.6331650,3.80473785 11.4142136,4.58578644 Z M15.5,8.13397459 C16.9905631,9.08696685 18,10.4266416 18,12 C18,13.5733584 16.9905631,14.9130332 15.5,15.8660254 C15.1237066,16.1067663 14.6215855,16.0019936 14.3660254,15.6 C14.1187311,15.2107681 14.2273644,14.7089267 14.6022727,14.4558422 L14.75,14.3660254 C15.7594369,13.7203668 16.5,12.8266416 16.5,12 C16.5,11.1733584 15.7594369,10.2796332 14.75,9.63397459 C14.3618034,9.38575247 14.2439836,8.87823917 14.4671916,8.48044002 L14.5339746,8.36602540 C14.7893347,7.98972193 15.2237066,7.89323369 15.5,8.13397459 Z M18.5,5.26794919 C20.8046053,6.60005614 22,8.95283464 22,12 C22,15.0471654 20.8046053,17.3999439 18.5,18.7320508 C18.1237066,18.9727917 17.6215855,18.867719 17.3660254,18.4660254 C17.1187311,18.0767935 17.2273644,17.5749521 17.6022727,17.3218676 L17.75,17.2320508 C19.5286947,16.2055984 20.5,14.4194987 20.5,12 C20.5,9.58050134 19.5286947,7.79440164 17.75,6.76794919 C17.3618034,6.51972707 17.2439836,6.01221377 17.4671916,5.61441462 L17.5339746,5.5 C17.7893347,5.12369653 18.2237066,5.02720829 18.5,5.26794919 Z" id="Shape" fill="#FFFFFF"></path>
    </g>
</svg>
