<svg width="32" height="32" viewBox="0 0 32 32" fill="none" xmlns="http://www.w3.org/2000/svg">
<path d="M5.33301 20C6.06928 20 6.66682 20.5968 6.66699 21.333C6.66699 22.0694 6.06939 22.667 5.33301 22.667C4.59678 22.6668 4 22.0693 4 21.333C4.00018 20.5969 4.59689 20.0002 5.33301 20ZM21 20.333C21.5522 20.333 21.9998 20.7809 22 21.333C22 21.8853 21.5523 22.333 21 22.333L9 22.333C8.44772 22.333 8 21.8853 8 21.333C8.00018 20.7809 8.44782 20.333 9 20.333L21 20.333ZM5.33301 14.667C6.06939 14.667 6.66699 15.2636 6.66699 16C6.66699 16.7364 6.06939 17.333 5.33301 17.333C4.59678 17.3328 4 16.7363 4 16C4 15.2637 4.59678 14.6672 5.33301 14.667ZM17 15C17.5523 15 18 15.4477 18 16C18 16.5523 17.5523 17 17 17H9C8.44772 17 8 16.5523 8 16C8 15.4477 8.44772 15 9 15L17 15ZM5.33301 9.33301C6.06939 9.33301 6.66699 9.93061 6.66699 10.667C6.66682 11.4032 6.06928 12 5.33301 12C4.59689 11.9998 4.00018 11.4031 4 10.667C4 9.93072 4.59678 9.33318 5.33301 9.33301ZM26.333 9.66699C26.8853 9.66699 27.333 10.1147 27.333 10.667C27.3328 11.2191 26.8852 11.667 26.333 11.667L9 11.667C8.44782 11.667 8.00018 11.2191 8 10.667C8 10.1147 8.44772 9.66699 9 9.66699L26.333 9.66699Z" fill="#A8B3CF"/>
</svg>
