<?xml version="1.0" encoding="UTF-8"?>
<svg width="38px" height="38px" viewBox="0 0 38 38" version="1.1" xmlns="http://www.w3.org/2000/svg" xmlns:xlink="http://www.w3.org/1999/xlink">
    <title>Trusted/9_Spotify</title>
    <g id="Authentication-map" stroke="none" stroke-width="1" fill="none" fill-rule="evenodd">
        <g id="Onboarding-v3---Tablet" transform="translate(-794, -622)" fill="#FFFFFF">
            <g id="image" transform="translate(560, 80)">
                <g id="Logos" transform="translate(0, 408)">
                    <g id="Group-4" transform="translate(122, 134)">
                        <g id="Trusted/9_Spotify" transform="translate(112, 0)">
                            <rect id="BB" fill-opacity="0" x="0" y="0" width="38" height="38"></rect>
                            <path d="M19.0002836,3.16666667 C10.2558041,3.16666667 3.16666667,10.255615 3.16666667,19.0000945 C3.16666667,27.7449522 10.2558041,34.8333333 19.0002836,34.8333333 C27.7457085,34.8333333 34.8340896,27.7449522 34.8340896,19.0000945 C34.8340896,10.2561822 27.7457085,3.16742296 19.0000945,3.16742296 L19.0002836,3.16666667 L19.0002836,3.16666667 Z M26.2614783,26.0030142 C25.9778674,26.4681361 25.3690494,26.6156137 24.9039276,26.3301121 C21.1863562,24.0593344 16.5063987,23.5450533 10.994894,24.8042856 C10.4637854,24.9252929 9.93437841,24.5925228 9.81337111,24.0612251 C9.69179658,23.5299274 10.0232432,23.0005205 10.5556753,22.8795131 C16.5871332,21.5015424 21.7607628,22.0948564 25.9343804,24.6454635 C26.3995022,24.9309651 26.5469799,25.5378924 26.2614783,26.0030142 L26.2614783,26.0030142 Z M28.1994859,21.6917508 C27.8421362,22.2725859 27.0820591,22.4559876 26.5016022,22.0986379 C22.2455483,19.4826112 15.757855,18.724992 10.723762,20.2530874 C10.0708898,20.4502915 9.38133721,20.0823536 9.18318775,19.4306158 C8.98655087,18.7777436 9.35467779,18.0895146 10.0064156,17.8909869 C15.7567206,16.1462128 22.9054163,16.9913733 27.792977,19.9948124 C28.3734339,20.3521621 28.5568356,21.1122393 28.1994859,21.6919399 L28.1994859,21.6917508 Z M28.365871,17.2023797 C23.262766,14.1713358 14.8433045,13.8926408 9.97105875,15.3713879 C9.18867089,15.6086757 8.36128343,15.166999 8.12418474,14.3846112 C7.88708605,13.6018452 8.32838457,12.7750249 9.11133966,12.5371699 C14.7043352,10.8392862 24.002045,11.1673294 29.8773278,14.6551759 C30.5825736,15.0728402 30.8132437,15.9817185 30.3953904,16.6845063 C29.9794278,17.3882394 29.0680915,17.6202331 28.3666273,17.2023797 L28.365871,17.2023797 Z" id="Shape" fill-rule="nonzero"></path>
                        </g>
                    </g>
                </g>
            </g>
        </g>
    </g>
</svg>
