<?xml version="1.0" encoding="UTF-8"?>
<svg width="24px" height="24px" viewBox="0 0 24 24" version="1.1" xmlns="http://www.w3.org/2000/svg" xmlns:xlink="http://www.w3.org/1999/xlink">
    <title>Icon/Source/Filled</title>
    <g id="Icon/Source/Filled" stroke="none" stroke-width="1" fill="none" fill-rule="evenodd">
        <path d="M15.4665399,4.71350872 C17.5607793,3.82790675 19.3202332,3.70568168 20.3076208,4.69377388 C21.2538672,5.64069557 21.1811223,7.29719115 20.3873896,9.29456894 L20.2797949,9.55699934 L20.0771378,10.0118066 C19.6961675,10.8267017 19.2121965,11.666534 18.64046,12.5045823 C20.8479047,15.734471 21.7070567,18.9188241 20.3076208,20.3192588 C18.9084892,21.7193888 15.7274868,20.8603022 12.5004466,18.6511934 C9.27341313,20.8603022 6.09241065,21.7193888 4.69327912,20.3192588 C3.2938432,18.9188241 4.15299519,15.734471 6.3615959,12.5044052 C5.88295239,11.8030124 5.46519595,11.0991206 5.11650159,10.4074323 L4.91563783,9.99400133 L4.71299989,9.53830961 C3.82802948,7.4425756 3.70589157,5.68186608 4.69327912,4.69377388 C5.63952552,3.74685219 7.29483978,3.81964896 9.29079314,4.61394816 L9.55303639,4.72161959 L10.0075193,4.92442132 C10.8225179,5.30598397 11.6624777,5.79079425 12.5006294,6.36356761 C13.2019484,5.88502551 13.9059145,5.46670133 14.5976897,5.1174688 L15.0111732,4.91629127 L15.4665399,4.71350872 Z M17.2751445,14.3014926 C16.8302131,14.8311622 16.3533656,15.3520974 15.8486836,15.8571395 C15.3435945,16.3625891 14.82296,16.8396871 14.2947064,17.2842819 L14.5516722,17.4471203 L14.7728271,17.580557 L14.7728271,17.580557 L14.9912761,17.7082729 L15.4189479,17.9463017 L15.8324703,18.1607254 C16.2111317,18.3496887 16.5684074,18.5071792 16.8961857,18.6314362 L17.1363619,18.7183702 L17.4587746,18.8206158 C18.129597,19.013882 18.6149149,19.0222915 18.8132467,18.8238182 C19.1312198,18.5056181 18.9178059,17.4492294 18.2637079,16.0731495 L18.1506267,15.8409146 L17.936356,15.4270971 L17.698497,14.9991201 L17.5708721,14.7805152 L17.5708721,14.7805152 L17.4375305,14.5592024 L17.2751445,14.3014926 Z M7.72567011,14.3012262 L7.56336934,14.5592024 L7.43002776,14.7805152 L7.43002776,14.7805152 L7.30240293,14.9991201 L7.06454391,15.4270971 L6.85027317,15.8409146 C6.66144462,16.2198462 6.50406643,16.5773769 6.37989798,16.9053891 L6.29302597,17.1457367 L6.19085337,17.4683795 C5.99772497,18.1396806 5.98932148,18.6253449 6.18765321,18.8238182 C6.50562635,19.1420183 7.56126171,18.9284521 8.93636024,18.2738873 L9.16842962,18.1607254 L9.581952,17.9463017 L10.0096238,17.7082729 L10.2280728,17.580557 L10.2280728,17.580557 L10.4492277,17.4471203 L10.7061935,17.2842819 C10.1779399,16.8396871 9.65730539,16.3625891 9.15221624,15.8571395 C8.64756427,15.3521274 8.17074349,14.8312241 7.72567011,14.3012262 Z M12.5004483,8.99154786 L12.1246099,9.29866167 C11.6225034,9.71809532 11.1271126,10.1704685 10.6465903,10.6513337 C10.1098143,11.1884928 9.61308261,11.7453888 9.16013451,12.3047686 L8.99436443,12.5141704 C9.49536552,13.1425649 10.0489576,13.7636397 10.6465903,14.3616989 C11.3175603,15.0331478 12.0193473,15.6419828 12.7182778,16.1808953 L12.5002782,16.010862 C13.1268813,15.5149407 13.7529717,14.963466 14.3543096,14.3616989 C14.9519339,13.7636481 15.5055187,13.1425824 16.0061497,12.514996 C15.5116842,11.8852734 14.9583516,11.2558068 14.3543096,10.6513337 C13.7539932,10.050589 13.1304708,9.49431308 12.5004483,8.99154786 Z M18.8132467,6.18921444 C18.7751237,6.15106423 18.5821836,6.10151455 18.217299,6.12686221 C17.7729467,6.1577303 17.207689,6.29968004 16.5803335,6.54301315 L16.3078364,6.65347764 L15.8889386,6.84001929 C15.3669745,7.08439027 14.8291636,7.37984847 14.2856856,7.72084064 C14.8179033,8.16859094 15.341319,8.6481664 15.8486836,9.15589314 C16.3567912,9.66436336 16.8362278,10.1885765 17.28277,10.7204577 C17.5369975,10.3156535 17.764939,9.91500053 17.964609,9.52273184 L18.1547817,9.13341469 L18.3412095,8.71510243 C18.6600664,7.96000464 18.8403018,7.293781 18.8755544,6.78558741 C18.900884,6.42044243 18.8513697,6.22736465 18.8132467,6.18921444 Z M6.78360088,6.12686221 C6.4187163,6.10151455 6.22577621,6.15106423 6.18765321,6.18921444 C6.14953021,6.22736465 6.10001586,6.42044243 6.12534545,6.78558741 C6.15619153,7.2302568 6.29804003,7.79591795 6.54119961,8.42372115 L6.65158533,8.6964127 L6.83799394,9.11560943 C7.08203229,9.63760728 7.37705523,10.1754427 7.71752427,10.7189485 C8.16530497,10.1878845 8.64444402,9.66402774 9.15221624,9.15589314 C9.65954364,8.64820369 10.1829197,8.16866138 10.7154441,7.72124788 C10.3110943,7.46649048 9.91076847,7.23829927 9.51878988,7.03846498 L9.12975382,6.84814933 L8.71173988,6.66158851 C7.95718058,6.34250408 7.29143205,6.16214003 6.78360088,6.12686221 Z" id="Shape" fill="#FFFFFF"></path>
    </g>
</svg>