<?xml version="1.0" encoding="UTF-8"?>
<svg width="24px" height="24px" viewBox="0 0 24 24" version="1.1" xmlns="http://www.w3.org/2000/svg" xmlns:xlink="http://www.w3.org/1999/xlink">
    <title>Icon/Source/Outline</title>
    <g id="Icon/Source/Outline" stroke="none" stroke-width="1" fill="none" fill-rule="evenodd">
        <path d="M19.7362362,4.26377736 C21.1592567,5.68679794 20.5252745,8.77197732 18.4039193,12.0003027 C20.5254056,15.2286425 21.1591096,18.3133311 19.7362362,19.7362045 C18.3133597,21.159081 15.2286611,20.5253713 12.0006917,18.4045323 C8.77200892,20.5252429 5.68682954,21.1592251 4.26380896,19.7362045 C2.84093252,18.3133281 3.4746422,15.2286295 5.59548126,12.0006601 C3.47477298,8.7719889 2.84078572,5.68680061 4.26380896,4.26377736 C5.68682954,2.84075679 8.77200892,3.474739 12.0003343,5.59609418 C15.2286611,3.4746106 18.3133597,2.84090092 19.7362362,4.26377736 Z M17.465726,13.308669 L17.6019205,13.1332474 C16.9913651,13.9374791 16.2933183,14.7396166 15.5164833,15.5164517 C14.7960574,16.2368775 14.0538703,16.889542 13.3084327,17.4675034 C15.7737145,18.9765228 17.9245779,19.4379863 18.6812979,18.6812663 C19.4380179,17.9245463 18.9765544,15.7736829 17.465726,13.308669 Z M6.53397317,13.3102879 L6.47555041,13.4052703 C5.01162266,15.8297329 4.57192894,17.9344481 5.31874718,18.6812663 C6.07526303,19.4377822 8.22517008,18.9767717 10.6893494,17.466917 C9.94492247,16.8884406 9.20337986,16.2362697 8.48356183,15.5164517 C7.76374381,14.7966337 7.11157291,14.055091 6.53397317,13.3102879 Z M12.0002311,7.41685089 L11.6832257,7.65469152 C10.9667728,8.20391304 10.2438821,8.83308641 9.53850005,9.53846845 C8.72891453,10.348054 8.01971681,11.1807033 7.41656616,12.0002122 C8.01996478,12.8195697 8.72905605,13.6520695 9.53850005,14.4615135 C10.3480856,15.271099 11.1807349,15.9802967 12.0002438,16.5834474 C12.8199897,15.979718 13.6522898,15.2707687 14.4615451,14.4615135 C15.2709891,13.6520695 15.9800803,12.8195697 16.5831626,12.0001995 C15.9803283,11.1807033 15.2711306,10.348054 14.4615451,9.53846845 C13.6521011,8.72902445 12.8196013,8.01993317 12.0002311,7.41685089 Z M15.1962536,5.55140524 L14.782988,5.73550305 C14.3115117,5.95607949 13.8172801,6.22262356 13.3097223,6.53366139 L13.133279,6.39809305 C13.9375107,7.00864839 14.7396482,7.70669518 15.5164833,8.48353023 C16.2365868,9.20363376 16.8889895,9.94547912 17.4667592,10.6905802 C17.7773899,10.1827334 18.043934,9.68850185 18.2645105,9.21702549 L18.4486083,8.80375989 C19.1361664,7.17668707 19.2358805,5.87329818 18.6812979,5.31871558 C18.1267153,4.76413298 16.8233264,4.86384714 15.1962536,5.55140524 Z M5.31874718,5.31871558 C4.76416458,5.87329818 4.86387874,7.17668707 5.55143684,8.80375989 L5.73553466,9.21702549 C5.95596655,9.68819288 6.22230585,10.1820857 6.53308157,10.6892934 C7.11157291,9.94489087 7.76374381,9.20334826 8.48356183,8.48353023 C9.20337986,7.76371221 9.94492247,7.11154131 10.6897256,6.53394157 C10.1821173,6.22227425 9.68822449,5.95593494 9.21705709,5.73550305 L8.80379149,5.55140524 C7.17671867,4.86384714 5.87332979,4.76413298 5.31874718,5.31871558 Z" id="Shape" fill="#FFFFFF"></path>
    </g>
</svg>