<?xml version="1.0" encoding="UTF-8"?>
<svg width="24px" height="24px" viewBox="0 0 24 24" version="1.1" xmlns="http://www.w3.org/2000/svg" xmlns:xlink="http://www.w3.org/1999/xlink">
    <title>Icon/Tour/Outline</title>
    <g id="Icon/Tour/Outline" stroke="none" stroke-width="1" fill="none" fill-rule="evenodd">
        <path d="M6.978,17.646 L6.928,17.679 L6.838,17.75 L6.78771033,17.7981141 L6.737,17.853 L6.671,17.94 L6.64,17.988 L6.5872956,18.090774 L6.56486734,18.1449399 C6.52304812,18.2547666 6.5,18.3746917 6.5,18.5 C6.5,19.0522847 6.94771525,19.5 7.5,19.5 L16.5,19.5 C17.6191996,19.5 18.5666265,18.7645539 18.8853693,17.7505732 C18.9598468,17.9863536 19,18.2384877 19,18.5 C19,19.8807119 17.8807119,21 16.5,21 L7.5,21 C6.11928813,21 5,19.8807119 5,18.5 L5,6 C5,4.34314575 6.34314575,3 8,3 L16,3 C17.6568542,3 19,4.34314575 19,6 L19,14.5 C19,16.1568542 17.6568542,17.5 16,17.5 L7.5,17.5 L7.37830441,17.5073302 L7.34601538,17.5117826 L7.244,17.533 L7.123,17.573 L7.048,17.607 L6.978,17.646 Z M16,4.5 L8,4.5 C7.17157288,4.5 6.5,5.17157288 6.5,6 L6.50017484,16.2079455 C6.80635991,16.0741955 7.14451531,16 7.5,16 L16,16 C16.8284271,16 17.5,15.3284271 17.5,14.5 L17.5,6 C17.5,5.17157288 16.8284271,4.5 16,4.5 Z M13.0296116,6.63550562 C13.1566337,6.76260737 13.1985849,6.95182397 13.1371955,7.12075091 L12.1681292,9.78735486 L14.5376451,9.78735486 C14.7929967,9.78735486 15,9.99448814 15,10.25 C15,10.3727011 14.9512879,10.4903767 14.8645795,10.5771395 L11.6242574,13.8644944 C11.4436965,14.0451685 11.1509495,14.0451685 10.9703886,13.8644944 C10.8433665,13.7373926 10.8014153,13.548176 10.8628047,13.3792491 L11.831871,10.7126451 L9.46235495,10.7126451 C9.20700328,10.7126451 9,10.5055119 9,10.25 C9,10.1272989 9.04871215,10.0096233 9.13542055,9.92286048 L12.3757428,6.63550562 C12.5563037,6.45483146 12.8490507,6.45483146 13.0296116,6.63550562 Z" id="Shape" fill="#FFFFFF"></path>
    </g>
</svg>