<?xml version="1.0" encoding="UTF-8"?>
<svg width="24px" height="24px" viewBox="0 0 24 24" version="1.1" xmlns="http://www.w3.org/2000/svg" xmlns:xlink="http://www.w3.org/1999/xlink">
    <title>Icon/Bookmark/Outline</title>
    <g id="Icon/Bookmark/Outline" stroke="none" stroke-width="1" fill="none" fill-rule="evenodd">
        <path d="M15.8737158,3 L8.12636936,3 C6.35174484,3 4.88362079,4.38111129 4.77533041,6.15242863 L4.00364733,18.9216025 C3.97556059,19.3810142 4.11036877,19.8366919 4.3845078,20.2077215 L4.4854818,20.3334255 C5.15129134,21.0966554 6.30276532,21.2327356 7.13167466,20.6202875 L12.0000499,17.023 L16.8684105,20.6202875 C17.2394401,20.8944266 17.6951178,21.0292347 18.1555771,21.0010843 C19.2384215,20.9348841 20.0625744,20.0033993 19.9963742,18.9205549 L19.2248184,6.1534762 C19.1164644,4.38111129 17.6483403,3 15.8737158,3 Z M15.8737158,4.5 C16.855459,4.5 17.6676426,5.26404733 17.7275501,6.243961 L18.4991695,19.0120873 C18.5148178,19.2680484 18.3200058,19.4882313 18.0640447,19.5038797 C17.955202,19.5105338 17.8474897,19.4786681 17.7597862,19.4138675 L12.5518919,15.5659618 C12.2239004,15.3236219 11.7761847,15.3236219 11.4481932,15.5659618 L6.24029893,19.4138675 C6.03405017,19.5662565 5.74331683,19.5225945 5.59092784,19.3163458 C5.52612728,19.2286423 5.49426152,19.12093 5.50091568,19.0120873 L6.27253508,6.243961 C6.3324426,5.26404733 7.14462616,4.5 8.12636936,4.5 L15.8737158,4.5 Z" id="Mask" fill="#FFFFFF"></path>
    </g>
</svg>