<?xml version="1.0" encoding="UTF-8"?>
<svg width="24px" height="24px" viewBox="0 0 24 24" version="1.1" xmlns="http://www.w3.org/2000/svg" xmlns:xlink="http://www.w3.org/1999/xlink">
    <title>Icon/User/Filled</title>
    <g id="Icon/User/Filled" stroke="none" stroke-width="1" fill="none" fill-rule="evenodd">
        <path d="M11.9980693,18.0967742 C12.799773,18.0967742 13.4496822,18.7466834 13.4496822,19.5483871 C13.4496822,20.3500908 12.799773,21 11.9980693,21 C11.1963657,21 10.5464564,20.3500908 10.5464564,19.5483871 C10.5464564,18.7466834 11.1963657,18.0967742 11.9980693,18.0967742 Z M11.999931,12.731613 C12.780364,12.7318327 13.5602886,12.844136 14.3427156,13.0694314 L14.7341515,13.1914994 L15.136862,13.337779 L15.4068545,13.4658474 C17.5008751,14.5113079 18.9165819,16.446691 19.2037199,18.6550099 L19.2347355,18.9445487 L19.2524085,19.2366782 L19.2574388,19.5178251 L19.2562522,19.9487319 L19.2443534,20.0912788 C19.1843876,20.4755126 18.9195558,20.7928354 18.5450077,20.9278631 L18.399595,20.969728 L18.1759358,20.9826916 L16.3800656,20.5852785 L16.6875814,18.7347319 L16.7116401,18.554772 C16.848019,17.1897902 15.8993745,15.9458427 14.5389169,15.7201498 L14.398087,15.7006386 L14.2623741,15.6891705 L14.1112941,15.6849204 L9.89542957,15.6847685 L9.71395864,15.6904861 C8.47034219,15.7712047 7.46354689,16.722624 7.29766291,17.9329143 L7.27916266,18.1163229 L7.27302979,18.2898576 L7.2765275,18.4332115 L7.28787735,18.5760981 L7.30848117,18.7261247 L7.61680782,20.5852719 L7.34812488,20.6447513 L5.74421224,20.9877072 L5.64208833,20.9796173 C5.25937908,20.9198894 4.94176716,20.6564367 4.80551489,20.2853984 L4.76314859,20.1414037 L4.742917,19.9884403 L4.74,19.8669413 L4.74105619,19.4777301 L4.74715762,19.2012846 C4.8575932,16.6740287 6.44289421,14.4245546 8.88337144,13.3273034 C9.79059324,12.9798451 10.6997514,12.7841405 11.609839,12.7408384 L11.999931,12.731613 Z M11.9980693,3 C14.2428396,3 16.0625855,4.81974586 16.0625855,7.06451613 C16.0625855,8.29991525 15.5072472,9.44272498 14.5698593,10.2105888 L14.3773391,10.3590786 L14.1691099,10.4999387 L13.9347545,10.6387867 C13.3450915,10.9589172 12.68355,11.1290323 11.9980693,11.1290323 C11.2157973,11.1290323 10.4657868,10.9073778 9.81864886,10.4958862 C8.65398072,9.75471691 7.9335532,8.47109438 7.9335532,7.06451613 C7.9335532,4.81974586 9.75329906,3 11.9980693,3 Z" id="Combined-Shape" fill="#FFFFFF"></path>
    </g>
</svg>