<?xml version="1.0" encoding="UTF-8"?>
<svg width="24px" height="24px" viewBox="0 0 24 24" version="1.1" xmlns="http://www.w3.org/2000/svg" xmlns:xlink="http://www.w3.org/1999/xlink">
    <title>Icon/User/Outline</title>
    <g id="Icon/User/Outline" stroke="none" stroke-width="1" fill="none" fill-rule="evenodd">
        <path d="M12,3 C14.6233526,3 16.75,5.12664744 16.75,7.75 C16.75,9.31535901 15.9854492,10.7515452 14.7036223,11.6521788 L14.5283208,11.7682555 L14.8309725,11.8672408 L14.8309725,11.8672408 L15.132924,11.9773585 L15.2383356,12.0224834 L15.4936975,12.1438926 C17.7775467,13.2841268 19.2898597,15.4598236 19.4811702,17.9419152 L19.4965879,18.2089928 L19.5011233,18.4746698 L19.5008454,18.8266541 L19.4963824,18.9411 L19.4883824,19.0445706 L19.4749054,19.1602395 C19.3274554,20.1050313 18.5782636,20.8376949 17.6370732,20.9707905 L17.4690712,20.9879752 L17.2571151,21.0014581 L15.2721265,20.5621944 C14.7900357,20.4555112 14.4637546,20.0158235 14.4894791,19.5335922 L14.5017534,19.421685 L14.7990747,17.6347592 L14.8151009,17.5201149 C14.867132,16.9993492 14.5038245,16.5229479 13.9833795,16.4366087 L13.9018276,16.4265023 L13.9018276,16.4265023 L13.8197214,16.4231259 L10.2298109,16.4223415 L10.1140895,16.4252939 C9.6320037,16.4565843 9.24512815,16.8308146 9.18801722,17.2707706 L9.18074533,17.3819685 L9.18281579,17.4779816 L9.19490024,17.5874303 L9.49917357,19.4221367 C9.57992022,19.9090226 9.2938997,20.3755716 8.83713774,20.5317161 L8.72878944,20.5621072 L6.74491899,21.0014581 L6.46267388,20.9819205 L6.33404474,20.9674979 C5.39362885,20.8207309 4.6599287,20.0763087 4.52113405,19.0870993 L4.50289538,18.9100637 L4.5,18.771091 L4.50120282,18.4118878 L4.50735109,18.146536 C4.62345605,15.4895396 6.28062318,13.1380906 8.87082687,11.9756398 C9.06990822,11.8993933 9.26947462,11.8304049 9.4694705,11.7687104 L9.45217158,11.7593609 C8.09238462,10.8940222 7.25,9.39310246 7.25,7.75 C7.25,5.12664744 9.37664744,3 12,3 Z M12,17.5 C12.5522847,17.5 13,17.9477153 13,18.5 C13,19.0522847 12.5522847,19.5 12,19.5 C11.4477153,19.5 11,19.0522847 11,18.5 C11,17.9477153 11.4477153,17.5 12,17.5 Z M12.0015327,12.8799998 C11.136793,12.8797581 10.2720532,13.0452309 9.40731347,13.3764189 C7.48514621,14.2410417 6.19891169,15.9860256 6.02181809,17.9725223 L6.00592102,18.2120202 L6.00084586,18.4446102 L5.99999502,18.7749544 L6.00243018,18.8727089 L6.01730332,18.9745128 C6.06978346,19.2059378 6.24330892,19.3912863 6.46673986,19.462235 L6.56534401,19.4854383 L6.63184586,19.4900009 L7.94184586,19.2000009 L7.71511219,17.8328428 L7.69635022,17.6969406 L7.68507436,17.5602654 L7.68131007,17.4231259 L7.68662775,17.2587502 C7.76421776,16.0633358 8.68201129,15.0969412 9.85539779,14.944177 L10.0169344,14.9284435 L10.1813101,14.9231259 L13.8197214,14.9231259 L13.9566679,14.9268795 C14.0478457,14.9318817 14.1387153,14.9418774 14.2288666,14.9568331 C15.4819948,15.1647206 16.3617933,16.2709879 16.3185851,17.5073079 L16.3076696,17.6692414 L16.2860142,17.8322711 L16.0588459,19.2000009 L17.3738459,19.4910009 L17.4775163,19.4763817 C17.7127948,19.4244259 17.898625,19.2509659 17.9696339,19.0275432 L17.9928458,18.9289402 L18.0008459,18.8254696 L18.0011238,18.4734853 L17.9968329,18.2361023 L17.982044,17.9953565 C17.8270411,16.1582083 16.7202977,14.5254831 15.045336,13.6022826 L14.8236718,13.4859305 L14.595752,13.3778749 L14.2714746,13.2612653 C13.5148273,13.0073013 12.75818,12.8802131 12.0015327,12.8799998 Z M12,4.5 C10.2050746,4.5 8.75,5.95507456 8.75,7.75 C8.75,8.90378917 9.3512365,9.91715203 10.2574979,10.4938769 C10.7618842,10.8145979 11.3592906,11 12,11 C12.4805321,11 12.9367062,10.8957113 13.3471236,10.7085328 L13.5484201,10.6081351 L13.7419087,10.4932953 L13.9082903,10.3802173 C14.7215695,9.78993313 15.25,8.83167735 15.25,7.75 C15.25,5.95507456 13.7949254,4.5 12,4.5 Z" id="Shape" fill="#FFFFFF"></path>
    </g>
</svg>