<?xml version="1.0" encoding="UTF-8"?>
<svg width="24px" height="24px" viewBox="0 0 24 24" version="1.1" xmlns="http://www.w3.org/2000/svg">
    <title>Icon/Undo/Outline</title>
    <g id="Icon/Undo/Outline" stroke="none" stroke-width="1" fill="none" fill-rule="evenodd">
        <path d="M7.41421356,11 L9.70710678,8.70710678 C10.0976311,8.31658249 10.0976311,7.68341751 9.70710678,7.29289322 C9.31658249,6.90236893 8.68341751,6.90236893 8.29289322,7.29289322 L4.29289322,11.2928932 C3.90236893,11.6834175 3.90236893,12.3165825 4.29289322,12.7071068 L8.29289322,16.7071068 C8.68341751,17.0976311 9.31658249,17.0976311 9.70710678,16.7071068 C10.0976311,16.3165825 10.0976311,15.6834175 9.70710678,15.2928932 L7.41421356,13 L14,13 C16.209139,13 18,14.790861 18,17 C18,17.5522847 18.4477153,18 19,18 C19.5522847,18 20,17.5522847 20,17 C20,13.6862915 17.3137085,11 14,11 L7.41421356,11 Z" fill="currentColor" fill-rule="nonzero"></path>
    </g>
</svg>
