<svg width="24" height="24" viewBox="0 0 24 24" fill="currentColor" xmlns="http://www.w3.org/2000/svg">
  <path d="M19.92 16C20.13 15.81 20.25 15.53 20.25 15.25C20.25 14.99 20.14 14.72 19.96 14.54L16.95 11.53L16.85 11.44C16.46 11.15 15.9 11.19 15.54 11.55L15.45 11.65C15.16 12.04 15.2 12.6 15.55 12.95L16.84 14.25H7.75C6.65 14.25 5.75 13.35 5.75 12.25V5.75C5.75 5.2 5.3 4.75 4.75 4.75C4.2 4.75 3.75 5.2 3.75 5.75V12.25C3.75 14.46 5.55 16.25 7.75 16.25H16.84L15.54 17.56L15.45 17.65C15.16 18.05 15.2 18.61 15.55 18.96C15.74 19.15 15.98 19.25 16.25 19.25C16.52 19.25 16.77 19.15 16.96 18.96L19.92 16Z" />
  <path d="M8.25 7.75C7.7 7.75 7.25 8.2 7.25 8.75C7.25 9.3 7.7 9.75 8.25 9.75H16.75C17.3 9.75 17.75 9.3 17.75 8.75C17.75 8.2 17.3 7.75 16.75 7.75H8.25Z" />
  <path d="M7.25 5.75C7.25 5.2 7.7 4.75 8.25 4.75H16.75C17.3 4.75 17.75 5.2 17.75 5.75C17.75 6.3 17.3 6.75 16.75 6.75H8.25C7.7 6.75 7.25 6.3 7.25 5.75Z" />
  <path d="M8.25 10.75C7.7 10.75 7.25 11.2 7.25 11.75C7.25 12.3 7.7 12.75 8.25 12.75H12.75C13.3 12.75 13.75 12.3 13.75 11.75C13.75 11.2 13.3 10.75 12.75 10.75H8.25Z" />
</svg>
