<svg width="24" height="24" viewBox="0 0 24 24" fill="currentColor" xmlns="http://www.w3.org/2000/svg">
  <path d="M4.75 5C5.16421 5 5.5 5.33579 5.5 5.75V12.25C5.5 13.4926 6.50736 14.5 7.75 14.5H15.7077L15.7496 14.4972H17.4404L15.722 12.7764C15.4559 12.51 15.4317 12.0931 15.6494 11.7993L15.722 11.7151C15.9881 11.4487 16.4045 11.4244 16.698 11.6424L16.7821 11.7151L19.7804 14.717C19.9181 14.8548 20 15.0533 20 15.2477L20 15.25C20 15.4731 19.9026 15.6735 19.7479 15.8109L16.7821 18.7802C16.4893 19.0733 16.0147 19.0733 15.722 18.7802C15.4559 18.5138 15.4317 18.0968 15.6494 17.803L15.722 17.7189L17.4385 16H7.75C5.67893 16 4 14.3211 4 12.25V5.75C4 5.33579 4.33579 5 4.75 5Z" />
  <path d="M8.25 5C7.83579 5 7.5 5.33579 7.5 5.75C7.5 6.16421 7.83579 6.5 8.25 6.5H16.75C17.1642 6.5 17.5 6.16421 17.5 5.75C17.5 5.33579 17.1642 5 16.75 5H8.25Z" />
  <path d="M8.25 8C7.83579 8 7.5 8.33579 7.5 8.75C7.5 9.16421 7.83579 9.5 8.25 9.5H16.75C17.1642 9.5 17.5 9.16421 17.5 8.75C17.5 8.33579 17.1642 8 16.75 8H8.25Z" />
  <path d="M7.5 11.75C7.5 11.3358 7.83579 11 8.25 11H12.75C13.1642 11 13.5 11.3358 13.5 11.75C13.5 12.1642 13.1642 12.5 12.75 12.5H8.25C7.83579 12.5 7.5 12.1642 7.5 11.75Z" />
</svg>
