<?xml version="1.0" encoding="UTF-8"?>
<svg version="1.1" width="24px" height="24px" viewBox="0 0 24.0 24.0" xmlns="http://www.w3.org/2000/svg" xmlns:xlink="http://www.w3.org/1999/xlink">
  <defs>
    <clipPath id="i0">
      <path d="M9.68972973,0 C13.3621901,0 16.3701444,2.91184497 16.4965329,6.57605455 L16.5005405,6.81081081 L16.5005405,10.3378378 C16.5005405,12.1514215 15.0303405,13.6216216 13.2167568,13.6216216 C12.2467202,13.6216216 11.3483153,13.1976196 10.7330563,12.4862491 L10.6685405,12.4063784 L10.5655007,12.5086603 C9.8641947,13.1651865 8.9514353,13.562095 7.9711393,13.6154466 L7.74378378,13.6216216 C5.46001171,13.6216216 3.60864865,11.7702586 3.60864865,9.48648649 L3.60864865,8.51351351 C3.60864865,6.22974144 5.46001171,4.37837838 7.74378378,4.37837838 C8.53815247,4.37837838 9.2985698,4.60325581 9.95141107,5.01631885 L9.98454054,5.03902703 L9.98969596,5.02320767 C10.1120968,4.68147694 10.4202482,4.42815804 10.7924767,4.38492428 L10.9059459,4.37837838 C11.3942012,4.37837838 11.8049771,4.7399655 11.8717088,5.23600406 L11.8789189,5.35135135 L11.8789189,10.3378378 C11.8789189,11.0767053 12.4778893,11.6756757 13.2167568,11.6756757 C13.9126053,11.6756757 14.4908271,11.142128 14.5490109,10.4639211 L14.5545946,10.3378378 L14.5545946,6.81081081 C14.5545946,4.19874155 12.4915655,2.05546801 9.89536444,1.95015686 L9.68972973,1.94594595 L6.810811,1.94594595 C4.19874174,1.94594595 2.05546816,4.00897508 1.950157,6.6051761 L1.945946,6.81081081 L1.945946,11.1891892 C1.945946,13.8012585 4.00897497,15.944532 6.605176,16.0498431 L6.810811,16.0540541 L9.68972973,16.0540541 C10.2270879,16.0540541 10.6627027,16.4896689 10.6627027,17.027027 C10.6627027,17.5152823 10.3011156,17.9260581 9.80507702,17.9927898 L9.68972973,18 L6.810811,18 C3.13835067,18 0.130396491,15.088155 0.004008,11.4239454 L0,11.1891892 L0,6.81081081 C0,3.13835048 2.91184542,0.130396163 6.576055,0.00400767247 L6.810811,0 L9.68972973,0 Z M7.74378378,6.32432432 C6.53472798,6.32432432 5.55459459,7.30445771 5.55459459,8.51351351 L5.55459459,9.48648649 C5.55459459,10.6955423 6.53472798,11.6756757 7.74378378,11.6756757 C8.95283959,11.6756757 9.93297297,10.6955423 9.93297297,9.48648649 L9.93297297,8.51351351 C9.93297297,7.30445771 8.95283959,6.32432432 7.74378378,6.32432432 Z" />
    </clipPath>
  </defs>
  <g transform="translate(3.5 3.0)">
    <g clip-path="url(#i0)">
      <polygon points="0,0 16.5005405,0 16.5005405,18 0,18 0,0" stroke="none" fill="#FFFFFF" />
    </g>
  </g>
</svg>
<svg width="24" height="24" viewBox="0 0 24 24" fill="none" xmlns="http://www.w3.org/2000/svg">
  <path d="M14.5071 4.80627L14.282 4.80013L9.6568 4.80005L9.446 4.80518L9.22896 4.82142L9.01308 4.84928C7.37126 5.10479 6.04329 6.31673 5.65032 7.9475C5.51668 8.49951 5.85595 9.05521 6.40823 9.18891C6.48631 9.20769 6.56706 9.21677 6.6514 9.21677C6.83113 9.21677 7.00935 9.1692 7.16183 9.08184L7.25595 9.01978L7.35567 8.93638L7.45121 8.83292L7.51975 8.73575C7.58159 8.63767 7.6237 8.53648 7.64946 8.42926L7.69496 8.26949C7.93546 7.53755 8.5641 7.00171 9.33668 6.8821L9.50301 6.86283L9.66027 6.85754L14.2884 6.85791L14.4417 6.86389L14.5922 6.8812L14.7555 6.91231C15.5606 7.10053 16.1877 7.77159 16.3146 8.61234L16.3328 8.77331L16.3377 8.92497L16.3372 10.0582L15.4822 9.20324L15.3875 9.11845L15.265 9.03409L15.1393 8.97343C14.7559 8.81804 14.3236 8.90104 14.0334 9.19279C13.7162 9.5091 13.6437 9.99809 13.8495 10.3836L13.9259 10.5031L14.0229 10.6174L16.6391 13.236L16.7324 13.3201L16.8577 13.4064L16.9806 13.4659C17.2302 13.5682 17.4998 13.5713 17.7372 13.4776L17.854 13.4213L17.9703 13.3465L18.0744 13.258L20.6925 10.6402L20.7767 10.547L20.8615 10.4248L20.9177 10.3108C21.0805 9.92489 20.9982 9.48597 20.7023 9.19161C20.3857 8.87504 19.8974 8.8027 19.5122 9.00796L19.3927 9.08422L19.2789 9.18052L18.3979 10.0613L18.3952 8.92095L18.3904 8.71638L18.3744 8.50043L18.3482 8.29426C18.0671 6.45327 16.5749 5.01598 14.716 4.82256L14.5071 4.80627Z" fill="#A8B3CF"/>
  <path d="M6.8719 10.4879C6.62732 10.428 6.36636 10.4598 6.1466 10.5807L6.03836 10.6508L5.92598 10.7459L3.3075 13.364L3.22329 13.4572L3.13843 13.5794L3.08223 13.6934C2.91952 14.0793 3.00181 14.5182 3.29769 14.8126C3.43684 14.9517 3.61302 15.0479 3.79972 15.0882L3.92036 15.1057L4.04034 15.1099L4.17876 15.0964L4.28681 15.073L4.36304 15.0487C4.41099 15.0317 4.45374 15.0127 4.49446 14.9911L4.60604 14.9207L4.72109 14.8237L5.6007 13.943L5.60474 15.0832L5.60961 15.2878L5.62555 15.5037L5.65176 15.7099C5.93285 17.5509 7.42503 18.9882 9.28401 19.1816L9.49283 19.1979L9.71113 19.204L14.3432 19.2041L14.554 19.199L14.771 19.1828L14.9869 19.1549C16.6287 18.8994 17.9567 17.6874 18.3497 16.0567C18.4317 15.7178 18.3367 15.3611 18.103 15.1123L18.0103 15.0263L17.9245 14.9619L17.826 14.9034L17.7454 14.8659C17.6931 14.8439 17.6431 14.8277 17.5917 14.8153C17.5137 14.7965 17.4329 14.7874 17.3486 14.7874C16.8751 14.7874 16.4616 15.1123 16.3505 15.5749L16.305 15.7347C16.0645 16.4666 15.4359 17.0025 14.6633 17.1221L14.497 17.1413L14.3397 17.1466L9.71162 17.1463L9.55823 17.1403L9.40779 17.123L9.24449 17.0919C8.43937 16.9036 7.81225 16.2326 7.68534 15.3918L7.66718 15.2309L7.66224 15.0792L7.66139 13.943L8.51782 14.8009L8.61251 14.8857L8.73678 14.9712L8.83737 15.0227C8.90281 15.0524 8.96556 15.073 9.02905 15.0872L9.1526 15.1056L9.27357 15.1099L9.41195 15.0964L9.55789 15.0613L9.67587 15.0145C9.7881 14.9625 9.88357 14.8949 9.96661 14.8114C10.2837 14.4951 10.3563 14.0061 10.1505 13.6206L10.0741 13.5011L9.97707 13.3868L7.36355 10.7705L7.25912 10.678L7.14417 10.5988L7.00999 10.5329L6.8719 10.4879Z" />
</svg>
