<svg xmlns="http://www.w3.org/2000/svg" width="24" height="24" fill="currentColor" viewBox="0 0 24 24">
  <path d="M10.6542 10.537V5.97127C10.6542 5.45446 10.2316 5.03005 9.70385 5.02999C9.17606 5.02999 8.7535 5.45442 8.7535 5.97127V14.0515C8.75347 14.2862 8.6119 14.498 8.39513 14.588C8.17845 14.6777 7.92952 14.6277 7.76346 14.4621L6.10884 12.812C5.62786 12.3322 4.83466 12.3767 4.41 12.9061C4.08576 13.3106 4.077 13.8823 4.38846 14.2965C4.69024 14.6979 4.97755 15.1685 5.24581 15.6653C6.89618 18.7215 9.75538 21 13.0823 21C16.8068 21 19.8367 17.98 19.8368 14.2579V10.5221C19.8368 10.5179 19.8378 10.5137 19.8379 10.5096V8.00013C19.8378 7.48335 19.4153 7.05885 18.8876 7.05885C18.36 7.059 17.9384 7.48345 17.9384 8.00013V10.537C17.9384 10.8575 17.6781 11.1174 17.3577 11.1177C17.037 11.1177 16.7771 10.8577 16.7771 10.537V5.97127C16.7771 5.4545 16.3544 5.03011 15.8267 5.02999C15.332 5.02999 14.9293 5.40245 14.8809 5.87487L14.8764 5.97127V10.537C14.8764 10.8577 14.6164 11.1177 14.2957 11.1177C13.9751 11.1176 13.7151 10.8577 13.7151 10.537V3.94128C13.715 3.4245 13.2924 3 12.7647 3C12.2372 3.00021 11.8156 3.42463 11.8155 3.94128V10.537C11.8155 10.8576 11.5553 11.1175 11.2349 11.1177C10.9142 11.1177 10.6542 10.8577 10.6542 10.537Z"/>
</svg>
