<svg xmlns="http://www.w3.org/2000/svg" width="24" height="24" fill="currentColor" viewBox="0 0 24 24">
  <path d="M14.97 21.45c-1.95 .41-4.88 .38-6.64-1.09-.6-.52-1.09-1.2-1.61-1.91-.19-.26-.38-.52-.56-.75l-1.24-1.65c-.68-.9-1.39-1.84-2.06-2.74-.19-.22-.22-.49-.19-.75 .04-.22 .19-.41 .41-.56 .56-.3 1.35-.11 1.72 .41 0 0 0 .04 .04 .04l1.99 2.36c.19 .22 .45 .3 .71 .19s.45-.34 .45-.6v-10.24c0-.34 .38-.64 .83-.64 .41 0 .79 .26 .79 .6v.15 .04 6.34c0 .38 .3 .68 .68 .68s.68-.3 .68-.68v-6.49c0-.04 0-.04 0-.08v-1.12c0-.34 .38-.64 .83-.64s.83 .3 .83 .64v.38 7.46 .15c0 .38 .3 .68 .68 .68s.68-.3 .68-.68v-.15-7.5c0-.34 .38-.64 .83-.64s.83 .3 .83 .64v2.4 .08 1.01 .04 4.8c0 .38 .3 .68 .68 .68s.68-.3 .68-.68v-5.85c.04-.34 .38-.6 .79-.6 .45 0 .83 .3 .83 .64v11.18 .15c-.15 1.24-.15 3.56-3.6 4.31Z"/>
</svg>
