<svg xmlns="http://www.w3.org/2000/svg" width="24" height="24" fill="currentColor" viewBox="0 0 24 24">
  <path d="M19.73 17.1v-11.29c0-1.05-.94-1.95-2.14-1.95-.3 0-.56 .04-.79 .15v-.71c0-1.05-.94-1.95-2.14-1.95-.49 0-.9 .15-1.24 .38-.38-.45-1.01-.75-1.69-.75-.98 0-1.76 .6-2.03 1.39-.26-.11-.56-.19-.9-.19-1.16 0-2.14 .86-2.14 1.95v8.48l-.79-.98c-.79-1.05-2.29-1.39-3.41-.79-.56 .3-.94 .83-1.09 1.42-.15 .64 0 1.27 .41 1.8 .68 .9 1.39 1.84 2.06 2.74l1.24 1.65c.19 .22 .34 .49 .52 .71 .52 .75 1.09 1.5 1.84 2.14 1.42 1.2 3.38 1.65 5.21 1.65 .9 0 1.76-.11 2.55-.26 4.5-.94 4.5-4.31 4.5-5.59Z"/>
</svg>
