<svg xmlns="http://www.w3.org/2000/svg" width="24" height="24" fill="currentColor" fill-rule="evenodd" viewBox="0 0 24 24">
  <path d="M19.73 17.1v-11.29c0-1.05-.94-1.95-2.14-1.95-.3 0-.56 .04-.79 .15v-.71c0-1.05-.94-1.95-2.14-1.95-.49 0-.9 .15-1.24 .38-.38-.45-1.01-.75-1.69-.75-.98 0-1.76 .6-2.03 1.39-.26-.11-.56-.19-.9-.19-1.16 0-2.14 .86-2.14 1.95v8.48l-.79-.98c-.79-1.05-2.29-1.39-3.41-.79-.56 .3-.94 .83-1.09 1.42-.15 .64 0 1.27 .41 1.8 .68 .9 1.39 1.84 2.06 2.74l1.24 1.65c.19 .22 .34 .49 .52 .71 .52 .75 1.09 1.5 1.84 2.14 1.42 1.2 3.38 1.65 5.21 1.65 .9 0 1.76-.11 2.55-.26 4.5-.94 4.5-4.31 4.5-5.59Zm-4.76 4.35c-1.95 .41-4.88 .38-6.64-1.09-.6-.52-1.09-1.2-1.61-1.91-.19-.26-.38-.52-.56-.75l-1.24-1.65c-.68-.9-1.39-1.84-2.06-2.74-.19-.22-.22-.49-.19-.75 .04-.22 .19-.41 .41-.56 .56-.3 1.35-.11 1.72 .41 0 0 0 .04 .04 .04l1.99 2.36c.19 .22 .45 .3 .71 .19s.45-.34 .45-.6v-10.24c0-.34 .38-.64 .83-.64 .41 0 .79 .26 .79 .6v.15 .04 6.34c0 .38 .3 .68 .68 .68s.68-.3 .68-.68v-6.49c0-.04 0-.04 0-.08v-1.12c0-.34 .38-.64 .83-.64s.83 .3 .83 .64v.38 7.46 .15c0 .38 .3 .68 .68 .68s.68-.3 .68-.68v-.15-7.5c0-.34 .38-.64 .83-.64s.83 .3 .83 .64v2.4 .08 1.01 .04 4.8c0 .38 .3 .68 .68 .68s.68-.3 .68-.68v-5.85c.04-.34 .38-.6 .79-.6 .45 0 .83 .3 .83 .64v11.18 .15c-.15 1.24-.15 3.56-3.6 4.31Z"/>
</svg>
