<svg xmlns="http://www.w3.org/2000/svg" width="24" height="24" fill="currentColor" viewBox="0 0 24 24">
  <path fill-rule="evenodd" d="M7.95432 6.80859C7.95432 5.66653 8.8845 4.74805 10.0227 4.74805C10.2243 4.74806 10.4192 4.77725 10.6037 4.83105C10.7185 3.79807 11.5978 3.00017 12.6584 3C13.7192 3 14.5983 3.798 14.7131 4.83105C14.8979 4.77712 15.0932 4.74805 15.2951 4.74805C16.356 4.74814 17.2353 5.54585 17.3498 6.5791C17.5344 6.52526 17.7292 6.49514 17.9309 6.49512C19.069 6.49512 19.9992 7.41366 19.9992 8.55566V10.7402C19.9992 10.7464 19.9984 10.7526 19.9983 10.7588V13.9443C19.9982 17.8425 16.8268 21 12.9319 21C9.46081 21 6.64357 18.6377 5.08421 15.75C4.87165 15.3564 4.65707 15.0086 4.44651 14.7285C3.8349 13.9152 3.85279 12.7919 4.48948 11.998C5.32074 10.9618 6.86931 10.8763 7.80979 11.8145L7.95432 11.958V6.80859ZM13.2268 10.7402V5.06055C13.2267 4.75494 12.9761 4.5 12.6584 4.5C12.3409 4.50018 12.0911 4.75505 12.091 5.06055V10.7402C12.091 11.1543 11.7551 11.49 11.341 11.4902C10.9268 11.4902 10.591 11.1544 10.591 10.7402V6.80859C10.591 6.50297 10.3404 6.2481 10.0227 6.24805C9.70494 6.24805 9.45432 6.50292 9.45432 6.80859V13.7666C9.45429 14.0696 9.27213 14.3427 8.99241 14.459C8.7125 14.5751 8.38967 14.5117 8.17503 14.2979L6.75022 12.876C6.44132 12.5679 5.93196 12.5968 5.6594 12.9365C5.45155 13.1957 5.44534 13.5618 5.64475 13.8271C5.9145 14.1859 6.16883 14.6025 6.40354 15.0371C7.79702 17.6178 10.1882 19.5 12.9319 19.5C16.0016 19.5 18.4982 17.0108 18.4983 13.9443V9.86621C18.4983 9.85967 18.4991 9.85318 18.4992 9.84668V8.55566C18.4992 8.25007 18.2486 7.99512 17.9309 7.99512C17.6133 7.99525 17.3636 8.25015 17.3635 8.55566V10.7402C17.3635 11.1543 17.0275 11.49 16.6135 11.4902C16.1993 11.4902 15.8635 11.1544 15.8635 10.7402V6.80859C15.8635 6.503 15.6128 6.24815 15.2951 6.24805C15.0172 6.24805 14.7908 6.44278 14.7385 6.69629L14.7268 6.80859V10.7402C14.7268 11.1544 14.391 11.4902 13.9768 11.4902C13.5626 11.4902 13.2268 11.1544 13.2268 10.7402Z"/>
</svg>
