<svg xmlns="http://www.w3.org/2000/svg" width="24" height="24" fill="none" viewBox="0 0 24 24">
  <path fill="currentColor" fill-rule="evenodd" d="M12.75 3.75a.75.75 0 0 1 1.5 0v6.75a.75.75 0 0 0 1.5 0V5.25a.75.75 0 0 1 1.5 0v7.25a.75.75 0 0 0 1.5 0V8.25a.75.75 0 0 1 1.5 0v5.2c0 4.16-3.2 7.55-7.3 7.55H11.4a7.15 7.15 0 0 1-5.17-2.21l-3.5-3.66a1.95 1.95 0 0 1 2.71-2.8l2.06 1.82V5.25a.75.75 0 0 1 1.5 0v5.25a.75.75 0 0 0 1.5 0V3.75a.75.75 0 0 1 1.5 0v6.75a.75.75 0 0 0 1.5 0V3.75Zm.75 8.12a2.24 2.24 0 0 1-2.25.18 2.25 2.25 0 0 1-3.75.68v3.09L4.43 13.1a.45.45 0 0 0-.63.64l3.51 3.68a5.65 5.65 0 0 0 4.08 1.74h1.05c3.26 0 5.8-2.7 5.8-6.05v-.52a2.25 2.25 0 0 1-3.75-.51 2.25 2.25 0 0 1-1 .29Z" clip-rule="evenodd"/>
</svg>
