<?xml version="1.0" encoding="UTF-8"?>
<svg width="24px" height="24px" viewBox="0 0 24 24" version="1.1" xmlns="http://www.w3.org/2000/svg" xmlns:xlink="http://www.w3.org/1999/xlink">
    <title>Icon/Add user/Filled</title>
    <g id="💎-Icons" stroke="none" stroke-width="1" fill="none" fill-rule="evenodd">
        <g id="Icon/Add-user/Filled" fill="#FFFFFF">
            <path d="M16.5,13 C16.8763094,13 17.1878457,13.2773259 17.2413787,13.6387483 L17.2495052,13.7495052 L17.2497454,16.2504056 L19.7504948,16.2504948 L19.8612517,16.2586213 C20.2226741,16.3121543 20.5,16.6236906 20.5,17 C20.5,17.3794453 20.2180327,17.6930335 19.8521986,17.7426631 L19.7504948,17.7495052 L17.2497454,17.7498963 L17.2495052,20.2504948 C17.2495052,20.6644351 16.9139403,21 16.5,21 C16.1236906,21 15.8121543,20.7226741 15.7586213,20.3612517 L15.7504948,20.2504948 L15.7502546,17.7498963 L13.2495052,17.7495052 L13.1387483,17.7413787 C12.7773259,17.6878457 12.5,17.3763094 12.5,17 C12.5,16.6205547 12.7819673,16.3069665 13.1478014,16.2573369 L13.2495052,16.2504948 L15.7502546,16.2504056 L15.7504948,13.7495052 C15.7504948,13.3355649 16.0860597,13 16.5,13 Z M11.2606254,12.5 L11.4984531,12.5046547 L11.7382011,12.5151576 C12.4952495,12.5593417 13.2522979,12.7084822 14.0093463,12.9625808 L13.8772894,12.9217251 C13.7949154,13.1829653 13.7504948,13.4610477 13.7504948,13.7495052 L13.75,14.25 L13.2494339,14.2504948 L13.0135554,14.2618475 L12.8789408,14.2754908 C11.5213749,14.4596604 10.5,15.6199797 10.5,17 C10.5,18.3676306 11.5034589,19.5209835 12.8457104,19.7197944 L12.9923958,19.7360167 L13.1031527,19.7441433 L13.2491925,19.7495052 L13.75,19.749 L13.7504948,20.2506868 L13.7558567,20.3968473 L13.762,20.499 L4.76459933,20.5 L4.68412517,20.4944788 L4.56480387,20.4664004 C4.29442915,20.380545 4.08444525,20.156254 4.02093882,19.8762058 L4.00294076,19.7530124 L4,19.6347193 L4.00102357,19.2349684 L4.00716504,18.9535102 L4.02640215,18.6636927 C4.24070387,16.2598247 5.7971817,14.1482123 8.12320441,13.1019287 C8.23422561,13.0594085 8.3452468,13.0191456 8.45632561,12.9840786 L8.9661341,12.8227161 C9.57177562,12.653022 10.1774283,12.5504935 10.7831369,12.5151006 L11.2606254,12.5 Z M11.26,3 C13.469139,3 15.26,4.79086099 15.26,7 C15.26,8.33129517 14.6096239,9.51068689 13.608665,10.2371904 L13.4038876,10.3763635 L13.1665773,10.5171771 C13.0044651,10.6052105 12.8356757,10.6823533 12.6611649,10.7476421 L12.3950726,10.8366631 C12.0352414,10.9429532 11.6542827,11 11.26,11 L10.9669082,10.9894257 C10.6765584,10.9683989 10.3948008,10.9163807 10.1249274,10.8366631 L9.85883509,10.7476421 C9.68432435,10.6823533 9.51553485,10.6052105 9.3534227,10.5171771 L9.11611239,10.3763635 L8.91133499,10.2371904 L8.71590647,10.0859404 C7.82654982,9.35275954 7.26,8.24254215 7.26,7 C7.26,4.8670382 8.92948281,3.12400501 11.0330167,3.00633205 L11.26,3 Z" id="Combined-Shape"></path>
        </g>
    </g>
</svg>