<?xml version="1.0" encoding="UTF-8"?>
<svg width="24px" height="24px" viewBox="0 0 24 24" version="1.1" xmlns="http://www.w3.org/2000/svg" xmlns:xlink="http://www.w3.org/1999/xlink">
    <title>Icon/Add user/Filled</title>
    <g id="💎-Icons" stroke="none" stroke-width="1" fill="none" fill-rule="evenodd">
        <g id="Icon/Add-user/Filled" fill="#FFFFFF">
            <path d="M11,3 C13.6233525,3 15.7499999,5.12664743 15.7499999,7.74999997 C15.7499999,9.31535898 14.9854491,10.7515451 13.7036222,11.6521788 L13.5283207,11.7682554 L13.790911,11.8704318 C14.1771518,12.0207217 14.3684277,12.4556657 14.2181378,12.8419064 L14.206781,12.8706998 C14.0634096,13.2338833 13.6527658,13.4120763 13.2895824,13.2687049 L13.2714745,13.2612653 C12.5148273,13.0073013 11.75818,12.880213 11.0015327,12.8799979 C10.1367929,12.879758 9.27205319,13.0452308 8.40731344,13.3764189 C6.4851462,14.2410416 5.19891168,15.9860255 5.02181808,17.9725222 L5.00592101,18.2120202 L5.00084585,18.4446101 L5,18.7749543 L5.00243017,18.8727088 L5.01730332,18.9745127 C5.06978345,19.2059377 5.24330892,19.3912862 5.46673985,19.4622349 L5.565344,19.4854382 L5.63184585,19.4900008 L12.2465959,19.489065 C12.6294016,19.4890109 12.9458072,19.773431 12.9959286,20.1424979 L13.0028458,20.245208 C13.0028458,20.6628734 12.6642612,21.001458 12.2465958,21.001458 L5.74491897,21.001458 L5.46267386,20.9819204 L5.33404473,20.9674978 C4.39362884,20.8207308 3.6599287,20.0763086 3.52113405,19.0870992 L3.50289538,18.9100636 L3.5,18.771091 L3.50120282,18.4118877 L3.50735109,18.1465359 C3.62345605,15.4895395 5.28062317,13.1380905 7.87082684,11.9756398 C8.0699082,11.8993933 8.26947459,11.8304049 8.46947047,11.7687104 L8.45217155,11.7593608 C7.0923846,10.8940221 6.24999998,9.39310243 6.24999998,7.74999997 C6.24999998,5.12664743 8.37664741,3 11,3 Z M16.5,13 C16.8763094,13 17.1878457,13.2773259 17.2413787,13.6387483 L17.2495052,13.7495052 L17.2497454,16.2504056 L19.7504948,16.2504948 L19.8612517,16.2586213 C20.2226741,16.3121543 20.5,16.6236906 20.5,17 C20.5,17.3794453 20.2180327,17.6930335 19.8521986,17.7426631 L19.7504948,17.7495052 L17.2497454,17.7498963 L17.2495052,20.2504948 C17.2495052,20.6644351 16.9139403,21 16.5,21 C16.1236906,21 15.8121543,20.7226741 15.7586213,20.3612517 L15.7504948,20.2504948 L15.7502546,17.7498963 L13.2495052,17.7495052 L13.1387483,17.7413787 C12.7773259,17.6878457 12.5,17.3763094 12.5,17 C12.5,16.6205547 12.7819673,16.3069665 13.1478014,16.2573369 L13.2495052,16.2504948 L15.7502546,16.2504056 L15.7504948,13.7495052 C15.7504948,13.3355649 16.0860597,13 16.5,13 Z M11,4.49999999 C9.20507453,4.49999999 7.74999998,5.95507455 7.74999998,7.74999997 C7.74999998,8.90378914 8.35123648,9.91715199 9.25749783,10.4938769 C9.76188412,10.8145979 10.3592905,11 11,11 C11.480532,11 11.9367061,10.8957113 12.3471235,10.7085327 L12.5484201,10.6081351 L12.7419087,10.4932953 L12.9082903,10.3802172 C13.7215694,9.78993309 14.25,8.83167731 14.25,7.74999997 C14.25,5.95507455 12.7949254,4.49999999 11,4.49999999 Z" id="Combined-Shape"></path>
        </g>
    </g>
</svg>