<svg xmlns="http://www.w3.org/2000/svg" width="24" height="24" fill="currentColor" viewBox="0 0 24 24">
  <path d="M6.927 12.75H5.75l1.794-5h1.415l1.791 5H9.573L8.272 8.893H8.23L6.927 12.75Zm-.073-1.965h2.78v.825h-2.78v-.825Z"/>
  <path fill-rule="evenodd" d="M2 6.75A2.75 2.75 0 0 1 4.75 4h7a2.75 2.75 0 0 1 2.75 2.75v7a2.75 2.75 0 0 1-2.75 2.75h-7A2.75 2.75 0 0 1 2 13.75v-7ZM4.75 5.5c-.69 0-1.25.56-1.25 1.25v7c0 .69.56 1.25 1.25 1.25h7c.69 0 1.25-.56 1.25-1.25v-7c0-.69-.56-1.25-1.25-1.25h-7Z" clip-rule="evenodd"/>
  <path d="M11.75 16.5H9v1.25a2.75 2.75 0 0 0 2.75 2.75h7a2.75 2.75 0 0 0 2.75-2.75v-7A2.75 2.75 0 0 0 18.75 8H14.5v3.924h.272V10.75h.912v1.174h2.934v.877h-1.08c-.395 1.102-.93 2.012-1.61 2.756.76.592 1.696 1.03 2.822 1.286-.213.209-.5.632-.64.892-1.189-.314-2.147-.809-2.925-1.476-.799.649-1.754 1.136-2.876 1.491a5.41 5.41 0 0 0-.559-.87c1.096-.29 2.013-.711 2.763-1.29a6.935 6.935 0 0 1-.377-.473A2.749 2.749 0 0 1 11.75 16.5Z"/>
  <path d="M14.493 13.951c.217.35.464.676.745.975.536-.583.956-1.286 1.267-2.125H14.5v.949c0 .068-.002.135-.007.201Z"/>
</svg>
