<?xml version="1.0" encoding="UTF-8"?>
<svg width="24px" height="24px" viewBox="0 0 24 24" version="1.1" xmlns="http://www.w3.org/2000/svg" xmlns:xlink="http://www.w3.org/1999/xlink">
    <title>Icon/Cookie/Filled</title>
    <g id="Icon/Cookie/Filled" stroke="none" stroke-width="1" fill="none" fill-rule="evenodd">
        <path d="M11.4245327,3 C11.5923359,5.14888889 12.6299318,7.05361567 14.1850995,8.36170089 C13.9336798,9.13362031 13.8,9.94604927 13.8,10.7897323 C13.8,14.0674891 15.8177193,16.873508 18.677666,18.0311139 C17.0302952,19.8545913 14.6487753,21 12,21 C7.02943725,21 3,16.9665065 3,11.9909402 C3,7.20887489 6.72211998,3.29703239 11.4245327,3 Z M12,14.9939602 C11.0058875,14.9939602 10.2,15.8006588 10.2,16.7957721 C10.2,17.7908854 11.0058875,18.5975841 12,18.5975841 C12.9941125,18.5975841 13.8,17.7908854 13.8,16.7957721 C13.8,15.8006588 12.9941125,14.9939602 12,14.9939602 Z M6.3,12.5915442 C5.80294373,12.5915442 5.4,12.9948936 5.4,13.4924502 C5.4,13.9900068 5.80294373,14.3933562 6.3,14.3933562 C6.79705627,14.3933562 7.2,13.9900068 7.2,13.4924502 C7.2,12.9948936 6.79705627,12.5915442 6.3,12.5915442 Z M19.2,10.1891283 C20.1941125,10.1891283 21,10.995827 21,11.9909402 C21,12.9860535 20.1941125,13.7927522 19.2,13.7927522 C18.2058875,13.7927522 17.4,12.9860535 17.4,11.9909402 C17.4,10.995827 18.2058875,10.1891283 19.2,10.1891283 Z M9.6,6.58550436 C8.60588745,6.58550436 7.8,7.39220305 7.8,8.38731632 C7.8,9.38242958 8.60588745,10.1891283 9.6,10.1891283 C10.5941125,10.1891283 11.4,9.38242958 11.4,8.38731632 C11.4,7.39220305 10.5941125,6.58550436 9.6,6.58550436 Z M15.9,3.58248444 C16.3970563,3.58248444 16.8,3.98583378 16.8,4.48339041 C16.8,4.98094705 16.3970563,5.38429639 15.9,5.38429639 C15.4029437,5.38429639 15,4.98094705 15,4.48339041 C15,3.98583378 15.4029437,3.58248444 15.9,3.58248444 Z" id="Shape" fill="#FFFFFF"></path>
    </g>
</svg>