<?xml version="1.0" encoding="UTF-8"?>
<svg width="24px" height="24px" viewBox="0 0 24 24" version="1.1" xmlns="http://www.w3.org/2000/svg" xmlns:xlink="http://www.w3.org/1999/xlink">
    <title>Icon/Cookie/Outline</title>
    <g id="Icon/Cookie/Outline" stroke="none" stroke-width="1" fill="none" fill-rule="evenodd">
        <path d="M12.9007275,3 L13.0158822,4.39819055 C13.1144237,5.65884441 13.6855527,6.81741687 14.5987322,7.66497179 L14.7858901,7.83027397 L15.5607628,8.48138078 L15.2470328,9.44363926 C15.0832976,9.94584069 15,10.4656205 15,11 C15,12.980247 16.1616198,14.7445062 17.9213588,15.5492465 L20,16.442466 L18.6772632,18.0345232 C16.9822485,19.9088509 14.5772501,21 12,21 C7.02943725,21 3,16.9705627 3,12 C3,7.33155522 6.56501921,3.46196886 11.16454,3.03834277 L11.4259781,3.01806199 L12.9007275,3 Z M11.5204439,4.51508444 C7.60176665,4.76236251 4.5,8.01895305 4.5,12 C4.5,16.1421356 7.85786438,19.5 12,19.5 C14.2073128,19.5 16.1919127,18.5464526 17.5647217,17.0284162 C15.1814327,16.0647148 13.5,13.7287172 13.5,11 C13.5,10.2976379 13.6113998,9.62129457 13.8209163,8.97867528 C12.5249431,7.88970047 11.6602799,6.30402436 11.5204439,4.51508444 Z M12,14.5 C12.8284271,14.5 13.5,15.1715729 13.5,16 C13.5,16.8284271 12.8284271,17.5 12,17.5 C11.1715729,17.5 10.5,16.8284271 10.5,16 C10.5,15.1715729 11.1715729,14.5 12,14.5 Z M7.25,12.5 C7.66421356,12.5 8,12.8357864 8,13.25 C8,13.6642136 7.66421356,14 7.25,14 C6.83578644,14 6.5,13.6642136 6.5,13.25 C6.5,12.8357864 6.83578644,12.5 7.25,12.5 Z M19.5,9.5 C20.3284271,9.5 21,10.1715729 21,11 C21,11.8284271 20.3284271,12.5 19.5,12.5 C18.6715729,12.5 18,11.8284271 18,11 C18,10.1715729 18.6715729,9.5 19.5,9.5 Z M10,7.5 C10.8284271,7.5 11.5,8.17157288 11.5,9 C11.5,9.82842712 10.8284271,10.5 10,10.5 C9.17157288,10.5 8.5,9.82842712 8.5,9 C8.5,8.17157288 9.17157288,7.5 10,7.5 Z M17.25,4.5 C17.6642136,4.5 18,4.83578644 18,5.25 C18,5.66421356 17.6642136,6 17.25,6 C16.8357864,6 16.5,5.66421356 16.5,5.25 C16.5,4.83578644 16.8357864,4.5 17.25,4.5 Z" id="Shape" fill="#FFFFFF"></path>
    </g>
</svg>