<?xml version="1.0" encoding="UTF-8"?>
<svg width="24px" height="24px" viewBox="0 0 24 24" version="1.1" xmlns="http://www.w3.org/2000/svg" xmlns:xlink="http://www.w3.org/1999/xlink">
    <title>Icon/Hamburger/Filled</title>
    <g id="Icon/Hamburger/Filled" stroke="none" stroke-width="1" fill="none" fill-rule="evenodd">
        <path d="M19,16 C19.5522847,16 20,16.4477153 20,17 C20,17.5128358 19.6139597,17.9355072 19.116621,17.9932723 L19,18 L5,18 C4.44771525,18 4,17.5522847 4,17 C4,16.4871642 4.38604019,16.0644928 4.88337887,16.0067277 L5,16 L19,16 Z M19,11 C19.5522847,11 20,11.4477153 20,12 C20,12.5128358 19.6139597,12.9355072 19.116621,12.9932723 L19,13 L5,13 C4.44771525,13 4,12.5522847 4,12 C4,11.4871642 4.38604019,11.0644928 4.88337887,11.0067277 L5,11 L19,11 Z M19,6 C19.5522847,6 20,6.44771525 20,7 C20,7.51283584 19.6139597,7.93550716 19.116621,7.99327227 L19,8 L5,8 C4.44771525,8 4,7.55228475 4,7 C4,6.48716416 4.38604019,6.06449284 4.88337887,6.00672773 L5,6 L19,6 Z" id="Combined-Shape" fill="#FFFFFF"></path>
    </g>
</svg>