<svg width="24" height="24" viewBox="0 0 24 24" fill="none" xmlns="http://www.w3.org/2000/svg">
<g id="Filled=yes">
<path id="Shape" fill-rule="evenodd" clip-rule="evenodd" d="M19.6897 13.4485C21.4368 11.7015 21.4368 8.86905 19.6897 7.12203L16.878 4.31026C15.131 2.56325 12.2985 2.56325 10.5515 4.31026L8.79411 6.06762C7.28869 7.57305 7.08051 9.88448 8.16958 11.6128L3.87351 15.9088C2.70883 17.0735 2.70883 18.9618 3.87351 20.1265C5.03818 21.2912 6.92649 21.2912 8.09117 20.1265L8.44264 19.775C8.99072 19.2269 9.02296 18.3584 8.53936 17.7726L8.44264 17.6662C8.24853 17.4721 8.24853 17.1574 8.44264 16.9632C8.63675 16.7691 8.95147 16.7691 9.14558 16.9632C9.72792 17.5456 10.6721 17.5456 11.2544 16.9632L12.388 15.831C14.1163 16.9194 16.4272 16.7111 17.9324 15.2059L19.6897 13.4485ZM17.0541 9.75767C17.3451 9.46672 17.3293 8.97929 17.019 8.66895L15.3311 6.98101L15.25 6.90957C14.9408 6.67018 14.509 6.67919 14.2423 6.94589C13.9514 7.23684 13.9671 7.72427 14.2775 8.03461L15.9654 9.72255L16.0464 9.79399C16.3556 10.0334 16.7874 10.0244 17.0541 9.75767Z" fill="#FFFFFF"/>
</g>
</svg>
