<svg width="24" height="24" viewBox="0 0 24 24" fill="none" xmlns="http://www.w3.org/2000/svg">
<g id="Filled=no">
<path id="Shape" fill-rule="evenodd" clip-rule="evenodd" d="M19.6897 7.12203C21.4368 8.86905 21.4368 11.7015 19.6897 13.4485L17.9324 15.2059C16.4272 16.7111 14.1163 16.9194 12.388 15.831L11.2544 16.9632C10.6721 17.5456 9.72792 17.5456 9.14558 16.9632C8.95147 16.7691 8.63675 16.7691 8.44264 16.9632C8.24853 17.1574 8.24853 17.4721 8.44264 17.6662L8.53936 17.7726C9.02296 18.3584 8.99072 19.2269 8.44264 19.775L8.09117 20.1265C6.92649 21.2912 5.03818 21.2912 3.87351 20.1265C2.70883 18.9618 2.70883 17.0735 3.87351 15.9088L8.16958 11.6128C7.08051 9.88448 7.28869 7.57305 8.79411 6.06762L10.5515 4.31026C12.2985 2.56325 15.131 2.56325 16.878 4.31026L19.6897 7.12203ZM18.6353 8.17645L15.8236 5.36468C14.6589 4.2 12.7706 4.2 11.6059 5.36468L9.84853 7.12203C8.68385 8.28671 8.68385 10.175 9.84853 11.3397L10.2 11.6912L4.92792 16.9632C4.34558 17.5456 4.34558 18.4897 4.92792 19.0721C5.51026 19.6544 6.45442 19.6544 7.03675 19.0721L7.38823 18.7206C6.61177 17.9442 6.61177 16.6853 7.38823 15.9088C8.16468 15.1324 9.42355 15.1324 10.2 15.9088L12.3088 13.8L12.6603 14.1515C13.825 15.3161 15.7133 15.3161 16.878 14.1515L18.6353 12.3941C19.8 11.2294 19.8 9.34113 18.6353 8.17645ZM17.0541 9.75767C17.3451 9.46672 17.3293 8.97929 17.019 8.66895L15.3311 6.98101L15.25 6.90957C14.9408 6.67018 14.509 6.67919 14.2423 6.94589C13.9514 7.23684 13.9671 7.72427 14.2775 8.03461L15.9654 9.72255L16.0464 9.79399C16.3556 10.0334 16.7874 10.0244 17.0541 9.75767Z" fill="#FFFFFF"/>
</g>
</svg>
