<?xml version="1.0" encoding="UTF-8"?>
<svg width="24px" height="24px" viewBox="0 0 24 24" version="1.1" xmlns="http://www.w3.org/2000/svg" xmlns:xlink="http://www.w3.org/1999/xlink">
  <title>Icon/Markdown/Filled</title>
  <g id="💎-Icons" stroke="none" stroke-width="1" fill="none" fill-rule="evenodd">
    <g id="Icon/Markdown/Filled" fill="#FFFFFF">
      <path d="M17,4 C19.209139,4 21,5.790861 21,8 L21,16 C21,18.209139 19.209139,20 17,20 L7,20 C4.790861,20 3,18.209139 3,16 L3,8 C3,5.790861 4.790861,4 7,4 L17,4 Z M11.6240308,9.81282829 C11.4449555,8.95374844 10.3252061,8.72546988 9.82412508,9.44588917 L9.00672159,10.619892 L8.21050254,9.45314006 C7.7144459,8.7263753 6.58925693,8.94836278 6.40639144,9.80907146 L5.55655463,13.8090715 C5.44177849,14.3492982 5.78667432,14.8802829 6.32690101,14.995059 L6.44237411,15.0127144 C6.94085916,15.0595677 7.40631071,14.7263517 7.51288855,14.2247126 L7.87672159,12.511892 L8.17350928,12.9466012 L8.25268842,13.0483455 C8.67314789,13.5233762 9.44541762,13.4929778 9.82040148,12.9538521 L10.1397216,12.492892 L10.4999157,14.2209558 C10.612617,14.7616191 11.1422737,15.1085509 11.682937,14.9958496 C12.2236004,14.8831483 12.5705322,14.3534916 12.4578309,13.8128283 L11.6240308,9.81282829 Z M16.0200361,8.95762819 C15.4677514,8.95762819 15.0200361,9.40534344 15.0200361,9.95762819 L15.0204222,11.5561039 C14.6296935,11.2700849 14.0781384,11.3031446 13.7245303,11.6557781 C13.3334675,12.0457631 13.3325937,12.6789274 13.7225787,13.0699903 L15.3119542,14.6637585 L15.4058647,14.7469355 C15.5691144,14.8742922 15.7628287,14.9439282 15.9593971,14.9557987 L16.0776898,14.9559756 C16.3136134,14.9424364 16.5456759,14.8457032 16.7290094,14.6628638 L18.3249133,13.0721047 C18.716066,12.6822098 18.7170858,12.0490457 18.3271909,11.6578929 C17.9711105,11.3006637 17.412127,11.2688317 17.0198941,11.5629924 L17.0200361,9.95762819 C17.0200361,9.40534344 16.5723209,8.95762819 16.0200361,8.95762819 Z" id="Shape"></path>
    </g>
  </g>
</svg>
