<?xml version="1.0" encoding="UTF-8"?>
<svg width="24px" height="24px" viewBox="0 0 24 24" version="1.1" xmlns="http://www.w3.org/2000/svg" xmlns:xlink="http://www.w3.org/1999/xlink">
  <title>Icon/Markdown/Outline</title>
  <g id="💎-Icons" stroke="none" stroke-width="1" fill="none" fill-rule="evenodd">
    <g id="Icon/Markdown/Outline" fill="#FFFFFF">
      <path d="M17,4 C19.209139,4 21,5.790861 21,8 L21,16 C21,18.209139 19.209139,20 17,20 L7,20 C4.790861,20 3,18.209139 3,16 L3,8 C3,5.790861 4.790861,4 7,4 L17,4 Z M17,5.5 L7,5.5 C5.61928813,5.5 4.5,6.61928813 4.5,8 L4.5,16 C4.5,17.3807119 5.61928813,18.5 7,18.5 L17,18.5 C18.3807119,18.5 19.5,17.3807119 19.5,16 L19.5,8 C19.5,6.61928813 18.3807119,5.5 17,5.5 Z M11.3792914,9.86384423 L12.2130915,13.8638442 C12.2976175,14.2693417 12.0374186,14.6665843 11.6319211,14.7511102 C11.2264236,14.8356362 10.8291811,14.5754374 10.7446551,14.1699398 L10.2657216,11.874892 L9.61516447,12.8111014 C9.33660503,13.2115947 8.76572967,13.2377756 8.44846082,12.8920475 L8.37999531,12.8056632 L7.75372159,11.886892 L7.26834681,14.1727575 C7.18943822,14.5441633 6.84823152,14.79247 6.47982762,14.7649701 L6.37885616,14.7505173 C5.97368614,14.6644352 5.71501427,14.2661966 5.80109637,13.8610266 L6.65093319,9.8610266 C6.7880823,9.21549509 7.63197403,9.04900448 8.00401651,9.59407805 L9.00472159,11.060892 L10.0293621,9.58863989 C10.4051728,9.04832542 11.2449849,9.21953434 11.3792914,9.86384423 Z M16.0200361,9.20762819 C16.4342497,9.20762819 16.7700361,9.54341462 16.7700361,9.95762819 L16.7695677,12.1506282 L17.089471,11.8326765 C17.3828355,11.5402553 17.8577086,11.5410201 18.1501298,11.8343847 C18.4425509,12.1277492 18.4417861,12.6026224 18.1484215,12.8950435 L16.5562493,14.4820109 L16.4655677,14.5596282 C16.3770875,14.6265087 16.2778593,14.6699198 16.1749747,14.6915396 L16.0713171,14.7058842 L15.9665176,14.7057275 C15.7923867,14.693344 15.6217713,14.620451 15.4888526,14.4871035 L13.8995992,12.8934577 C13.6071104,12.6001606 13.6077657,12.1252873 13.9010629,11.8327985 C14.19436,11.5403098 14.6692333,11.5409651 14.961722,11.8342622 L15.2695677,12.1426282 L15.2700361,9.95762819 C15.2700361,9.54341462 15.6058225,9.20762819 16.0200361,9.20762819 Z" id="Shape"></path>
    </g>
  </g>
</svg>
