<?xml version="1.0" encoding="UTF-8"?>
<svg width="24px" height="24px" viewBox="0 0 24 24" version="1.1" xmlns="http://www.w3.org/2000/svg" xmlns:xlink="http://www.w3.org/1999/xlink">
    <title>Icon/Plus/Outline</title>
    <g id="Icon/Plus/Outline" stroke="none" stroke-width="1" fill="none" fill-rule="evenodd">
        <path d="M18.3612517,11.2586213 C18.7226741,11.3121543 19,11.6236906 19,12 C19,12.3794453 18.7180327,12.6930335 18.3521986,12.7426631 L18.2504948,12.7495052 L12.7497454,12.7498963 L12.7495052,18.2504948 C12.7495052,18.6644351 12.4139403,19 12,19 C11.6236906,19 11.3121543,18.7226741 11.2586213,18.3612517 L11.2504948,18.2504948 L11.2502546,12.7498963 L5.74950522,12.7495052 L5.63874833,12.7413787 C5.27732588,12.6878457 5,12.3763094 5,12 C5,11.6205547 5.2819673,11.3069665 5.64780136,11.2573369 L5.74950522,11.2504948 L11.2502546,11.2504056 L11.2504948,5.74950522 C11.2504948,5.33556492 11.5860597,5 12,5 C12.3763094,5 12.6878457,5.27732588 12.7413787,5.63874833 L12.7495052,5.74950522 L12.7497454,11.2504056 L18.2504948,11.2504948 L18.3612517,11.2586213 Z" id="Path" fill="#FFFFFF"></path>
    </g>
</svg>