<?xml version="1.0" encoding="UTF-8"?>
<svg width="24" height="24" viewBox="0 0 24 24" fill="none" xmlns="http://www.w3.org/2000/svg">
    <path fill-rule="evenodd" clip-rule="evenodd" d="M4.5 4.75C4.5 3.23122 5.73122 2 7.25 2H16.75C18.2688 2 19.5 3.23122 19.5 4.75V18.75C19.5 20.2688 18.2688 21.5 16.75 21.5H7.25C5.73122 21.5 4.5 20.2688 4.5 18.75V4.75ZM7 5.5C7 4.94772 7.44772 4.5 8 4.5H16C16.5523 4.5 17 4.94772 17 5.5V7.5C17 8.05228 16.5523 8.5 16 8.5H8C7.44772 8.5 7 8.05228 7 7.5V5.5ZM13 18C12.4477 18 12 18.4477 12 19V20H17C17.5523 20 18 19.5523 18 19V18H13Z" fill="white"/>
</svg>
