<?xml version="1.0" encoding="UTF-8"?>
<svg width="24px" height="24px" viewBox="0 0 24 24" version="1.1" xmlns="http://www.w3.org/2000/svg" xmlns:xlink="http://www.w3.org/1999/xlink">
    <title>Icon/Dev Card/Filled</title>
    <g id="Icon/Dev-Card/Filled" stroke="none" stroke-width="1" fill="none" fill-rule="evenodd">
        <path d="M19.200331,9.77530453 L19.2,6.6 C19.2,4.68278294 17.701296,3.11560694 15.8115273,3.00611123 L15.6,3 L8.4,3 C6.48278294,3 4.91560694,4.49870396 4.80611123,6.38847265 L4.8,6.6 L4.8,17.4 C4.8,19.3172171 6.29870396,20.8843931 8.18847265,20.9938888 L8.4,21 L15.6,21 C17.4354125,21 18.950018,19.6264621 19.1719973,17.8512056 C18.2193632,18.6904229 16.9691906,19.2 15.6,19.2 C12.6176624,19.2 10.2,16.7823376 10.2,13.8 C10.2,10.8176624 12.6176624,8.4 15.6,8.4 C16.9831977,8.4 18.2449297,8.92005651 19.200331,9.77530453 Z M10.8,7.2 C10.8,8.19411255 9.99411255,9 9,9 C8.00588745,9 7.2,8.19411255 7.2,7.2 C7.2,6.20588745 8.00588745,5.4 9,5.4 C9.99411255,5.4 10.8,6.20588745 10.8,7.2 Z M19.2,13.8 C19.2,11.8117749 17.5882251,10.2 15.6,10.2 C13.6117749,10.2 12,11.8117749 12,13.8 C12,15.7882251 13.6117749,17.4 15.6,17.4 C17.5882251,17.4 19.2,15.7882251 19.2,13.8 Z" id="Shape" fill="#FFFFFF"></path>
    </g>
</svg>