<?xml version="1.0" encoding="UTF-8"?>
<svg width="24px" height="24px" viewBox="0 0 24 24" version="1.1" xmlns="http://www.w3.org/2000/svg" xmlns:xlink="http://www.w3.org/1999/xlink">
    <title>Icon/Dev Card/Outline</title>
    <g id="Icon/Dev-Card/Outline" stroke="none" stroke-width="1" fill="none" fill-rule="evenodd">
        <path d="M19.5,16.5 C19.5,18.9142733 17.5987635,20.8844891 15.2118357,20.995102 L15,21 L9,21 C6.58572667,21 4.61551091,19.0987635 4.50489799,16.7118357 L4.5,16.5 L4.5,7.5 C4.5,5.08572667 6.40123652,3.11551091 8.7881643,3.00489799 L9,3 L15,3 C17.4142733,3 19.3844891,4.90123652 19.495102,7.2881643 L19.5,7.5 L19.5,16.5 Z M18.0002758,10.1460871 L18,7.5 C18,5.90231912 16.75108,4.59633912 15.1762728,4.50509269 L15,4.5 L9,4.5 C7.40231912,4.5 6.09633912,5.74891996 6.00509269,7.32372721 L6,7.5 L6,16.5 C6,18.0976809 7.24891996,19.4036609 8.82372721,19.4949073 L9,19.5 L15,19.5 C16.5295104,19.5 17.7916817,18.3553851 17.9766644,16.8760047 C17.1828026,17.5753525 16.1409922,18 15,18 C12.5147186,18 10.5,15.9852814 10.5,13.5 C10.5,11.0147186 12.5147186,9 15,9 C16.1526647,9 17.2041081,9.43338043 18.0002758,10.1460871 Z M11,8 C11,8.82842712 10.3284271,9.5 9.5,9.5 C8.67157288,9.5 8,8.82842712 8,8 C8,7.17157288 8.67157288,6.5 9.5,6.5 C10.3284271,6.5 11,7.17157288 11,8 Z M18,13.5 C18,11.8431458 16.6568542,10.5 15,10.5 C13.3431458,10.5 12,11.8431458 12,13.5 C12,15.1568542 13.3431458,16.5 15,16.5 C16.6568542,16.5 18,15.1568542 18,13.5 Z" id="Shape" fill="#FFFFFF"></path>
    </g>
</svg>