<svg width="24" height="24" viewBox="0 0 24 24" fill="none" xmlns="http://www.w3.org/2000/svg">
    <g id="Filled=no">
        <g id="Union">
            <path d="M8 4.5C7.44772 4.5 7 4.94772 7 5.5V7.5C7 8.05229 7.44772 8.5 8 8.5H16C16.5523 8.5 17 8.05229 17 7.5V5.5C17 4.94772 16.5523 4.5 16 4.5H8Z" fill="#FFFFFF"/>
            <path fill-rule="evenodd" clip-rule="evenodd" d="M7.25 2C5.73122 2 4.5 3.23122 4.5 4.75V18.75C4.5 20.2688 5.73122 21.5 7.25 21.5H16.75C18.2688 21.5 19.5 20.2688 19.5 18.75V4.75C19.5 3.23122 18.2688 2 16.75 2H7.25ZM6 4.75C6 4.05964 6.55964 3.5 7.25 3.5H16.75C17.4404 3.5 18 4.05964 18 4.75V18H13C12.4477 18 12 18.4477 12 19V20H7.25C6.55964 20 6 19.4404 6 18.75V4.75Z" fill="#FFFFFF"/>
        </g>
    </g>
</svg>
