<?xml version="1.0" encoding="UTF-8"?>
<svg width="24px" height="24px" viewBox="0 0 24 24" version="1.1" xmlns="http://www.w3.org/2000/svg" xmlns:xlink="http://www.w3.org/1999/xlink">
    <title>Icon/Edit/Filled</title>
    <g id="Icon/Edit/Filled" stroke="none" stroke-width="1" fill="none" fill-rule="evenodd">
        <path d="M11.9155606,7.24996777 L4.63963068,14.5258977 C3.62130374,15.5477159 3.0451143,16.9026194 3.00122463,18.366559 L3,18.6818476 L3.05003505,20.949965 L5.31815236,21 L5.63344146,20.9987738 C6.99282048,20.9580032 8.25826998,20.4581169 9.25154395,19.5702768 L9.47584836,19.3585362 L16.7499887,12.0843959 L11.9155606,7.24996777 Z M17.5851016,3.00074066 C16.8051818,2.98443295 16.0306337,3.23738174 15.4157737,3.76329964 L15.2362606,3.9292678 L13.5270367,5.63849173 L18.3614648,10.4729198 L20.0725251,8.76185946 C21.3479796,7.48457812 21.3041335,5.35987792 19.9729408,4.0270157 C19.3628845,3.41780113 18.5857008,3.07819714 17.7995961,3.01200993 L17.5851016,3.00074066 Z" id="Shape" fill="#FFFFFF"></path>
    </g>
</svg>