<?xml version="1.0" encoding="UTF-8"?>
<svg width="24px" height="24px" viewBox="0 0 24 24" version="1.1" xmlns="http://www.w3.org/2000/svg" xmlns:xlink="http://www.w3.org/1999/xlink">
    <title>Icon/Edit/Outline</title>
    <g id="Icon/Edit/Outline" stroke="none" stroke-width="1" fill="none" fill-rule="evenodd">
        <path d="M13.6368303,4.21296667 C15.2442124,2.60788045 17.8434602,2.6093682 19.5370832,4.13662897 L19.7033565,4.29443796 L19.8613847,4.4609059 C21.3397854,6.09985023 21.3904263,8.58201527 19.9422278,10.19768 L19.7870646,10.3616567 L10.9558881,19.1928302 C9.81783379,20.3270022 8.304318,20.9626925 6.68625473,20.9977618 L6.39968403,20.9977618 L3.07494453,20.9243506 L3.00160022,17.5996111 C2.96566184,15.970504 3.53606428,14.4296193 4.61170515,13.2478186 L4.80674823,13.0430482 L13.6368303,4.21296667 Z M11.9298586,8.04125815 L5.86740841,14.1037084 C5.01891805,14.9551077 4.5388255,16.0840404 4.50225575,17.3038241 L4.50123536,17.5665289 L4.54292556,19.4563696 L6.43276623,19.4980598 L6.69547141,19.497038 C7.82813317,19.4630672 8.88253098,19.0465519 9.7101467,18.3067858 L9.89704162,18.1303594 L15.9580007,12.0694003 L11.9298586,8.04125815 Z M16.6538335,4.50071722 C16.0039887,4.48712931 15.3586197,4.6978913 14.8463061,5.1360966 L14.6967322,5.27438458 L13.2725727,6.69854412 L17.3007148,10.7266862 L18.7264045,9.30099652 C19.7891386,8.23674019 19.7526052,6.46639753 18.6434288,5.35583009 C18.1351177,4.84822033 17.4875527,4.5652555 16.8325546,4.510107 L16.6538335,4.50071722 Z" id="Shape" fill="#FFFFFF"></path>
    </g>
</svg>