<svg width="24" height="24" viewBox="0 0 24 24" fill="none" xmlns="http://www.w3.org/2000/svg">
<g id="Color=Default">
<g id="artwork">
<g id="Group">
<path id="Vector" d="M11.525 11.5973L4.06976 19.5087C4.30099 20.3698 5.08574 20.9999 6.01764 20.9999C6.389 20.9999 6.73934 20.9019 7.04063 20.7199L7.06165 20.7059L15.4557 15.868L11.525 11.5903V11.5973Z" fill="#EA4335"/>
<path id="Vector_2" d="M19.0783 10.2533H19.0713L15.4488 8.146L11.3639 11.7796L15.4628 15.8753L19.0713 13.7959C19.7019 13.4529 20.1293 12.7878 20.1293 12.0246C20.1293 11.2615 19.7089 10.5964 19.0783 10.2603V10.2533Z" fill="#FBBC04"/>
<path id="Vector_3" d="M4.06995 4.49829C4.0279 4.66632 3.99988 4.83435 3.99988 5.01638V18.9977C3.99988 19.1797 4.0209 19.3478 4.06995 19.5158L11.7844 11.8075L4.06995 4.49829Z" fill="#4285F4"/>
<path id="Vector_4" d="M11.581 12.0035L15.4417 8.14586L7.05464 3.28705C6.75335 3.10502 6.39601 3 6.01063 3C5.08574 3 4.29398 3.63711 4.06976 4.49125L11.588 11.9965L11.581 12.0035Z" fill="#34A853"/>
</g>
</g>
</g>
</svg>
