<svg xmlns="http://www.w3.org/2000/svg" width="24" height="24" fill="currentColor" viewBox="0 0 24 24">
  <path fill-rule="evenodd" d="m13 3 6.5 6.5V17a4 4 0 0 1-4 4h-7a4 4 0 0 1-4-4V7a4 4 0 0 1 4-4H13Zm0 1.5H8.5a2.5 2.5 0 0 0-2.495 2.336L6 7v10a2.5 2.5 0 0 0 2.336 2.495l.164.005h7a2.5 2.5 0 0 0 2.495-2.336L18 17V9.5h-3a2 2 0 0 1-2-2v-3Z" clip-rule="evenodd"/>
  <path d="M12.333 10A3.67 3.67 0 0 0 16 13.667v.666A3.67 3.67 0 0 0 12.333 18h-.666A3.67 3.67 0 0 0 8 14.333v-.666A3.67 3.67 0 0 0 11.667 10h.666Z"/>
</svg>
