<?xml version="1.0" encoding="UTF-8"?>
<svg width="24px" height="24px" viewBox="0 0 24 24" version="1.1" xmlns="http://www.w3.org/2000/svg" xmlns:xlink="http://www.w3.org/1999/xlink">
  <title>Icon/Image/Filled</title>
  <g id="💎-Icons" stroke="none" stroke-width="1" fill="none" fill-rule="evenodd">
    <g id="Icon/Image/Filled" fill="#FFFFFF">
      <path d="M3.0548266,16.2573831 L3.04826178,16.1870442 C3.02722566,15.9513022 3.01298111,15.6852589 3.0056959,15.3804712 L3,14.8722296 L3,9.1277704 C3,7.34473292 3.18565122,6.69816044 3.53426541,6.04630859 C3.88287959,5.39445674 4.39445674,4.88287959 5.04630859,4.53426541 L5.14935516,4.48057863 L5.32004216,4.39878254 L5.4476939,4.34411334 L5.64298098,4.27160975 L5.89297217,4.19718356 L6.08599715,4.15190023 L6.32876956,4.10719687 L6.51373497,4.08059171 L6.81297794,4.04825981 L7.15957372,4.02349086 L7.4151501,4.01182952 L7.85551601,4.0015395 L15.8722296,4 C17.6552671,4 18.3018396,4.18565122 18.9536914,4.53426541 C19.6055433,4.88287959 20.1171204,5.39445674 20.4657346,6.04630859 C20.5108785,6.13072029 20.5532896,6.21504347 20.5929188,6.30175741 L20.6543505,6.44391754 L20.7367319,6.66800191 L20.7642297,6.7552883 L20.8142818,6.93812437 C20.8454852,7.06402758 20.8729131,7.20070516 20.8964155,7.35166766 L20.9163592,7.49038106 L20.9487817,7.78050302 L20.9702515,8.0551846 L20.991319,8.50941856 L20.9990299,8.91011038 L21,14.8722296 C21,16.6552671 20.8143488,17.3018396 20.4657346,17.9536914 C20.1171204,18.6055433 19.6055433,19.1171204 18.9536914,19.4657346 C18.3018396,19.8143488 17.6552671,20 15.8722296,20 L8.1277704,20 C7.84623817,20 7.59303886,19.9953716 7.36367807,19.986204 L6.96539491,19.9640788 L6.65393134,19.9360309 L6.54109023,19.9228748 C6.43894312,19.9101201 6.34416357,19.8960159 6.25453148,19.8804158 C6.14644252,19.8616158 6.04563448,19.8405811 5.9506812,19.8173732 L5.65696449,19.7330776 L5.52609528,19.686599 L5.38078435,19.6279493 L5.20615525,19.5476897 L5.04630859,19.4657346 C4.39445674,19.1171204 3.88287959,18.6055433 3.53426541,17.9536914 C3.47598316,17.8447131 3.42225573,17.7358823 3.37318915,17.621864 L3.33596793,17.5320441 C3.26129555,17.3446268 3.19863944,17.1403687 3.14843462,16.8973784 L3.10719687,16.6712304 L3.09704611,16.605279 C3.08101289,16.4970233 3.0669309,16.3815019 3.0548266,16.2573831 Z M19.5,10.431 L16.029696,14.904052 C15.9892672,14.9561437 15.932083,14.9880538 15.8713648,14.9976852 L15.8099583,14.9998127 C15.7688882,14.9961766 15.7282062,14.9823282 15.6918298,14.9576459 L14.1673373,13.9232426 C13.8594289,13.7143196 13.5068699,13.6160776 13.1585286,13.621489 L13.0096402,13.6301338 C12.5646045,13.6749836 12.1380814,13.8895192 11.8339342,14.2588041 L8.339,18.5 L15.8722296,18.5 L16.3557064,18.4954923 C17.3918853,18.4740999 17.8142239,18.374088 18.2462931,18.1430148 C18.6367423,17.9342003 18.9342003,17.6367423 19.1430148,17.2462931 C19.4070984,16.7524997 19.5,16.2714158 19.5,14.8722296 L19.5,10.431 Z M8,7 C6.8954305,7 6,7.8954305 6,9 C6,10.1045695 6.8954305,11 8,11 C9.1045695,11 10,10.1045695 10,9 C10,7.8954305 9.1045695,7 8,7 Z" id="Shape"></path>
    </g>
  </g>
</svg>
