<?xml version="1.0" encoding="UTF-8"?>
<svg width="24px" height="24px" viewBox="0 0 24 24" version="1.1" xmlns="http://www.w3.org/2000/svg" xmlns:xlink="http://www.w3.org/1999/xlink">
  <title>Icon/Image/Outline</title>
  <g id="💎-Icons" stroke="none" stroke-width="1" fill="none" fill-rule="evenodd">
    <g id="Icon/Image/Outline" fill="#FFFFFF">
      <path d="M7.85551601,4.0015395 L15.8722296,4 C17.6552671,4 18.3018396,4.18565122 18.9536914,4.53426541 C19.6055433,4.88287959 20.1171204,5.39445674 20.4657346,6.04630859 C20.8143488,6.69816044 21,7.34473292 21,9.1277704 L21,14.8722296 C21,16.6552671 20.8143488,17.3018396 20.4657346,17.9536914 C20.1171204,18.6055433 19.6055433,19.1171204 18.9536914,19.4657346 C18.3018396,19.8143488 17.6552671,20 15.8722296,20 L8.1277704,20 C6.34473292,20 5.69816044,19.8143488 5.04630859,19.4657346 C4.39445674,19.1171204 3.88287959,18.6055433 3.53426541,17.9536914 C3.20399934,17.3361475 3.01999365,16.723342 3.0015395,15.144484 L3,9.1277704 C3,7.34473292 3.18565122,6.69816044 3.53426541,6.04630859 C3.88287959,5.39445674 4.39445674,4.88287959 5.04630859,4.53426541 C5.66385245,4.20399934 6.27665804,4.01999365 7.85551601,4.0015395 Z M16.1240452,5.5011078 L8.1277704,5.5 L7.64429363,5.50450765 C6.60811465,5.52590012 6.18577614,5.62591204 5.75370688,5.8569852 C5.36325774,6.06579969 5.06579969,6.36325774 4.8569852,6.75370688 C4.59290159,7.24750032 4.5,7.72858421 4.5,9.1277704 L4.5,14.8722296 C4.5,16.2714158 4.59290159,16.7524997 4.8569852,17.2462931 C5.06579969,17.6367423 5.36325774,17.9342003 5.75370688,18.1430148 C6.24750032,18.4070984 6.72858421,18.5 8.1277704,18.5 L8.36435456,18.5004176 C8.38108589,18.4737851 8.39967864,18.4479062 8.42014971,18.4229522 L11.8332474,14.2624322 C12.4072179,13.56277 13.419954,13.4161257 14.168811,13.9242425 L15.6920359,14.9577858 C15.8011441,15.0318182 15.948992,15.0083859 16.0298615,14.9042442 L19.4044659,10.5585137 C19.43361,10.5209826 19.4656114,10.4869771 19.5,10.4565657 L19.5,9.1277704 L19.4954923,8.64429363 C19.4740999,7.60811465 19.374088,7.18577614 19.1430148,6.75370688 C18.9342003,6.36325774 18.6367423,6.06579969 18.2462931,5.8569852 C17.7833618,5.60940681 17.3316009,5.51228138 16.1240452,5.5011078 Z M19.5,12.88 L17.214604,15.8242361 C16.6485172,16.5532284 15.6135819,16.7172541 14.8498249,16.1990273 L13.3265999,15.165484 C13.2196203,15.0928959 13.0749438,15.1138451 12.992948,15.2137968 L10.296,18.5 L15.8722296,18.5 L16.3557064,18.4954923 C17.3918853,18.4740999 17.8142239,18.374088 18.2462931,18.1430148 C18.6367423,17.9342003 18.9342003,17.6367423 19.1430148,17.2462931 C19.4070984,16.7524997 19.5,16.2714158 19.5,14.8722296 L19.5,12.88 Z M8,7 C9.1045695,7 10,7.8954305 10,9 C10,10.1045695 9.1045695,11 8,11 C6.8954305,11 6,10.1045695 6,9 C6,7.8954305 6.8954305,7 8,7 Z" id="Shape"></path>
    </g>
  </g>
</svg>
