<?xml version="1.0" encoding="UTF-8" standalone="no"?>
<svg width="40" height="40" viewBox="0 0 40 40" fill="none" xmlns="http://www.w3.org/2000/svg">
  <path
     fill-rule="evenodd"
     clip-rule="evenodd"
     d="m 20.000052,5.4156723 c 8.0542,0 14.5834,6.5291997 14.5834,14.5832997 0,2.8382 -0.8135,5.559 -2.3194,7.8941 -0.3742,0.5802 -1.1478,0.7472 -1.728,0.373 -0.5802,-0.3741 -0.7472,-1.1477 -0.373,-1.7279 1.2473,-1.9342 1.9204,-4.1853 1.9204,-6.5392 0,-6.6734 -5.4099,-12.0832997 -12.0834,-12.0832997 -0.6903,0 -1.25,-0.55964 -1.25,-1.25 0,-0.69036 0.5597,-1.25 1.25,-1.25 z M 11.267051,30.156872 c 0.3989,-0.5635 1.179,-0.6969 1.742501,-0.298 3.8228,2.7064 8.9044,2.9878 13.0322,0.6046 0.5979,-0.3452 1.3623,-0.1403 1.7075,0.4575 0.3452,0.5979 0.1404,1.3624 -0.4575,1.7076 -4.9811,2.8758 -11.1142,2.5362 -15.726701,-0.7293 -0.5635,-0.3988 -0.6969,-1.179 -0.298,-1.7424 z m -3.3506895,-9.9355 c -0.01201,-0.6903 -0.5813,-1.2401 -1.27155,-1.2281 -0.69026,0.012 -1.24008,0.5813 -1.22807,1.2716 0.04264,2.4503 0.70209,4.8577 1.95382,7.0258 0.34518,0.5979 1.10967,0.8027 1.70753,0.4575 0.59787,-0.3451 0.80271,-1.1096 0.45753,-1.7075 -1.03831,-1.7984 -1.58395,-3.7903 -1.61926,-5.8193 z"
     fill="#ce3df3" />
</svg>
