<?xml version="1.0" encoding="UTF-8"?>
<svg width="24px" height="24px" viewBox="0 0 24 24" version="1.1" xmlns="http://www.w3.org/2000/svg" xmlns:xlink="http://www.w3.org/1999/xlink">
    <title>Icon/Timer/Filled</title>
    <g id="💎-Icons" stroke="none" stroke-width="1" fill="none" fill-rule="evenodd">
        <g id="Icon/Timer/Filled" fill="#FFFFFF">
            <path d="M11.9629909,3 C13.5882302,3 15.1881727,3.44501371 16.5899368,4.28687207 C19.2823558,5.90412374 20.9547211,8.86219939 20.9547211,12.0072969 C20.9547211,13.6338828 20.5100179,15.2338893 19.6687877,16.6352727 C18.1574435,19.1498206 15.4734909,20.7794934 12.5503116,20.9793522 L12.2470987,20.9949045 L11.9474242,21 C10.3218142,21 8.72092192,20.5547936 7.32058069,19.7131895 C6.85963718,19.4366234 6.7097236,18.8381748 6.9868038,18.379835 C7.14646408,18.1122354 7.41946652,17.9425303 7.7304164,17.9116042 L7.84865414,17.9065921 L7.9584479,17.9156443 C8.08643493,17.9340525 8.21003345,17.9780635 8.32198319,18.0458664 C9.42097698,18.7054508 10.6746841,19.0541592 11.9474242,19.0541592 C14.4516426,19.0541592 16.7125458,17.7760239 18.0005874,15.6327379 C18.6601719,14.5337441 19.0088803,13.280037 19.0088803,12.0072969 C19.0088803,9.50369279 17.730438,7.24199073 15.5874589,5.95413365 C14.5801436,5.34957198 13.4427523,5.00612727 12.2822889,4.95307633 L11.9653073,4.94582974 L11.86888,4.94668058 C11.3254492,4.96466647 10.8848478,4.53965809 10.8704722,3.99727928 C10.8584263,3.49857847 11.224308,3.0782237 11.7099936,3.01027823 L11.8240841,3.00097904 L11.9629909,3 Z M4.85440363,15.8568665 C5.28630591,15.5427558 5.89706091,15.6479189 6.20801306,16.0884344 C6.51701859,16.5261923 6.41718387,17.132788 5.97439482,17.4555318 C5.79789275,17.5677367 5.60747906,17.6287336 5.41582046,17.6287336 C5.1014416,17.6287336 4.79681499,17.4753451 4.62362785,17.2154086 C4.31250258,16.7746478 4.41681365,16.164428 4.85440363,15.8568665 Z M11.9990862,7.13199287 C12.449759,7.13199287 12.8344175,7.44007412 12.9434124,7.87759791 L12.9647968,7.98957219 L12.9720066,8.10491325 L12.9720066,12.9695152 C12.9720066,13.1338969 12.9303806,13.2946694 12.8460894,13.4450268 L12.7748549,13.5557358 L12.6870448,13.6574738 L10.7412041,15.6033145 C10.361255,15.9832636 9.7452359,15.9832636 9.36528686,15.6033145 C9.05166663,15.2896943 8.99400314,14.8098955 9.21524094,14.4247743 L9.28251067,14.3222846 L9.36522218,14.227462 L11.0261658,12.5647803 L11.0261658,8.10491325 C11.0261658,7.6917965 11.2850397,7.33415019 11.66519,7.19345747 L11.7717709,7.16058706 L11.8837452,7.13920264 L11.9990862,7.13199287 Z M3.94059186,13.0851454 C4.42142587,12.9529161 4.90736092,13.2085647 5.08870705,13.6627279 L5.1250083,13.7709725 L5.14860988,13.8843319 C5.22167802,14.3746537 4.92006894,14.8447977 4.43850992,14.9651406 L4.36744555,14.9806564 L4.26184294,14.9910578 L4.18021157,14.9921193 C3.74295857,14.9921193 3.35890878,14.6991873 3.24370646,14.2638802 C3.1138294,13.7430732 3.4270131,13.2134716 3.94059186,13.0851454 Z M4.07734955,10.1588273 L4.19032854,10.1788827 C4.66884917,10.2923835 4.9975363,10.7439248 4.93775303,11.2338945 C4.88982172,11.6892419 4.53207159,12.0449295 4.08846028,12.0969563 L3.97589829,12.1035187 L3.91277917,12.1010955 L3.87121734,12.0940732 C3.34223333,12.0407169 2.95212847,11.5621346 3.00475805,11.0233912 C3.06471701,10.5305286 3.48068898,10.1628851 3.96460231,10.1543226 L4.07734955,10.1588273 Z M3.93465449,7.90517155 C4.16335277,7.45981173 4.68345827,7.26272238 5.14020241,7.43279123 L5.24431867,7.47860961 L5.3428404,7.53676197 C5.75015697,7.8096601 5.89949178,8.34519563 5.67228888,8.78761479 C5.50766293,9.11686669 5.16506693,9.32096643 4.80288061,9.32096643 C4.66185586,9.32096643 4.51157499,9.2850297 4.36097904,9.21627218 C3.88510956,8.97190677 3.69848837,8.39179282 3.93465449,7.90517155 Z M5.91469396,5.32535411 C6.31722026,4.96308043 6.94005451,4.99179552 7.29211726,5.39601571 C7.65192823,5.79431873 7.62400929,6.40414815 7.22556209,6.76529759 C7.04825334,6.92994143 6.81649927,7.01514513 6.57359571,7.01514513 C6.29305256,7.01514513 6.03458836,6.90291725 5.85067045,6.69434991 C5.48743057,6.30386704 5.51994967,5.68193923 5.91469396,5.32535411 Z M8.68508126,3.60667773 C9.15054614,3.42765278 9.66660575,3.63144101 9.89493945,4.05916416 L9.94237029,4.16177237 L9.9772762,4.27069522 C10.1001409,4.74495935 9.85787561,5.24000868 9.40628708,5.41805048 C9.2924786,5.46863203 9.17831002,5.48766013 9.04481348,5.48766013 C8.64633666,5.48766013 8.27747527,5.2454784 8.13865751,4.87927477 C7.97743443,4.48528586 8.09675009,4.05342604 8.39775822,3.79008477 L8.48428186,3.72259763 L8.52867922,3.69466515 L8.52916568,3.66664527 L8.68508126,3.60667773 Z" id="Combined-Shape"></path>
        </g>
    </g>
</svg>