<?xml version="1.0" encoding="UTF-8"?>
<svg width="24px" height="24px" viewBox="0 0 24 24" version="1.1" xmlns="http://www.w3.org/2000/svg" xmlns:xlink="http://www.w3.org/1999/xlink">
    <title>Icon/Timer/Outline</title>
    <g id="💎-Icons" stroke="none" stroke-width="1" fill="none" fill-rule="evenodd">
        <g id="Icon/Timer/Outline" fill="#FFFFFF">
            <path d="M11.9629777,3 C13.5879777,3 15.1879777,3.445 16.5899777,4.287 C19.2819777,5.904 20.9549777,8.863 20.9549777,12.008 C20.9549777,13.635 20.5099777,15.235 19.6689777,16.636 C18.0509777,19.328 15.0919777,21.001 11.9469777,21.001 C10.3219777,21.001 8.72097768,20.556 7.31997768,19.714 C6.96497768,19.501 6.84897768,19.04 7.06297768,18.686 C7.27597768,18.329 7.73697768,18.214 8.09197768,18.429 C9.25997768,19.13 10.5929777,19.501 11.9469777,19.501 C14.6089777,19.501 17.0139777,18.141 18.3829777,15.863 C19.0839777,14.695 19.4549777,13.362 19.4549777,12.008 C19.4549777,9.347 18.0949777,6.941 15.8169777,5.572 C14.6489777,4.871 13.3159777,4.5 11.9629777,4.5 L11.8579777,4.501 C11.4349777,4.515 11.1009777,4.184 11.0899777,3.769 C11.0799777,3.355 11.4079777,3.011 11.8219777,3.001 L11.9629777,3 Z M5.84357768,16.3469 C6.08357768,16.6869 6.00357768,17.1559 5.67357768,17.3969 C5.53357768,17.4859 5.38357768,17.5359 5.23357768,17.5359 C5.00357768,17.5359 4.76357768,17.4269 4.62357768,17.2169 C4.38357768,16.8769 4.46357768,16.4059 4.80357768,16.1669 C5.13357768,15.9269 5.60357768,16.0069 5.84357768,16.3469 Z M12.0000777,6.247 C12.3797734,6.247 12.6935686,6.52915388 12.7432311,6.89522944 L12.7500777,6.997 L12.7500777,12.997 C12.7500777,13.1561299 12.6995064,13.3100458 12.6072639,13.4372609 L12.5304078,13.5273301 L10.5304078,15.5273301 C10.2375145,15.8202233 9.76264081,15.8202233 9.4697476,15.5273301 C9.20348103,15.2610635 9.17927498,14.8443998 9.39712944,14.5507883 L9.4697476,14.4666699 L11.2500777,12.685 L11.2500777,6.997 C11.2500777,6.61730423 11.5322316,6.30350904 11.8983071,6.25384662 L12.0000777,6.247 Z M4.69357768,13.8869 C4.80357768,14.2969 4.56357768,14.7069 4.16357768,14.8069 C4.09357768,14.8259 4.03357768,14.8259 3.96357768,14.8259 C3.63357768,14.8259 3.33357768,14.6069 3.24357768,14.2669 C3.14357768,13.8659 3.38357768,13.4569 3.78357768,13.3569 C4.18357768,13.2469 4.58357768,13.4859 4.69357768,13.8869 Z M3.83357768,10.3569 C4.24357768,10.4059 4.54357768,10.7769 4.49357768,11.1869 C4.45357768,11.5669 4.13357768,11.8569 3.75357768,11.8569 C3.72357768,11.8569 3.70357768,11.8569 3.67357768,11.8469 C3.26357768,11.8069 2.96357768,11.4369 3.00357768,11.0269 C3.05357768,10.6159 3.42357768,10.3169 3.83357768,10.3569 Z M4.94357768,7.5759 C5.31357768,7.7669 5.46357768,8.2169 5.27357768,8.5869 C5.14357768,8.8469 4.87357768,8.9969 4.60357768,8.9969 C4.49357768,8.9969 4.37357768,8.9669 4.26357768,8.9169 C3.89357768,8.7269 3.75357768,8.2769 3.93357768,7.9059 C4.12357768,7.5359 4.57357768,7.3869 4.94357768,7.5759 Z M6.97357768,5.3769 C7.25357768,5.6869 7.23357768,6.1559 6.92357768,6.4369 C6.78357768,6.5669 6.60357768,6.6269 6.42357768,6.6269 C6.21357768,6.6269 6.01357768,6.5469 5.86357768,6.3769 C5.58357768,6.0759 5.61357768,5.5969 5.91357768,5.3259 C6.22357768,5.0469 6.70357768,5.0669 6.97357768,5.3769 Z M9.65357768,4.0359 C9.80357768,4.4269 9.61357768,4.8569 9.23357768,5.0069 C9.14357768,5.0469 9.05357768,5.0569 8.96357768,5.0569 C8.66357768,5.0569 8.37357768,4.8769 8.26357768,4.5869 C8.10357768,4.1959 8.30357768,3.7669 8.68357768,3.6159 L8.68357768,3.6069 C9.07357768,3.4569 9.50357768,3.6559 9.65357768,4.0359 Z" id="Shape"></path>
        </g>
    </g>
</svg>