<svg height="24" viewBox="0 0 24 24" width="24" xmlns="http://www.w3.org/2000/svg"><path d="m19.4530746 7.74484353c-.1406246 6.50207417-4.2187371 11.02525617-10.40621813 11.30795507-2.53124224.1413494-4.35936164-.7067472-6.04685647-1.6961933 1.8281194.2827543 4.21873707-.4239929 5.4843582-1.5548438-1.8281194-.1413494-2.95311596-1.1307955-3.51561423-2.6856393.56249827.1413494 1.12499655 0 1.54687026 0-1.68749483-.5653978-2.81249138-1.5548438-2.95311595-3.81643485.4218737.28269887.98437198.42404831 1.54687026.42404831-1.26562113-.70674719-2.10936854-3.39238651-1.12499656-5.08857977 1.8281194 1.97889213 4.07811251 3.67508539 7.73435132 3.95778427-.984372-3.95778427 4.3594168-6.07802584 6.4687853-3.39238652.984372-.14134943 1.6874948-.56539775 2.3906177-.84809662-.2812491.98944606-.8437474 1.55484381-1.5468703 2.12024157.7031229-.14134944 1.4062457-.28269888 1.968744-.56539776-.1406797.70674719-.8438026 1.27214495-1.5469254 1.8375427z" fill="#1da1f2" fill-rule="evenodd"/></svg>