<svg height="24" viewBox="0 0 24 24" width="24" xmlns="http://www.w3.org/2000/svg"><path d="m20.281194 8.16093726c-.1562495 7.22452684-4.6874856 12.25028464-11.56246458 12.56439454-2.81249139.1570549-4.84373516-.7852747-6.71872942-1.8846592 2.03124378.3141714 4.68748564-.4711032 6.09373133-1.7276043-2.03124378-.1570549-3.28123995-1.2564394-3.90623803-2.9840437.62499808.157055 1.24999617 0 1.71874473 0-1.87499425-.6282197-3.12499042-1.7276042-3.28123994-4.2404831.46874856.3141099 1.09374664.4711648 1.71874473.4711648-1.40624569-.78527466-2.34374282-3.76931836-1.24999617-5.65397753 2.03124378 2.19876904 4.53123612 4.08342821 8.59372365 4.39753807-1.0937466-4.39753807 4.8437965-6.75336204 7.1875393-3.76931835 1.0937466-.15705493 1.8749942-.62821972 2.6562418-.94232958-.312499 1.09938451-.9374971 1.72760424-1.7187447 2.35582396.7812476-.15705493 1.5624952-.31410986 2.1874933-.62821972-.1563108.78527466-.9375584 1.41349438-1.718806 2.04171411z" fill="#fff" fill-rule="evenodd"/></svg>
