<?xml version="1.0" encoding="UTF-8"?>
<svg width="24px" height="24px" viewBox="0 0 24 24" version="1.1" xmlns="http://www.w3.org/2000/svg" xmlns:xlink="http://www.w3.org/1999/xlink">
    <title>Social/twitter/White</title>
    <g id="💎-Icons" stroke="none" stroke-width="1" fill="none" fill-rule="evenodd">
        <g id="Social/twitter/White" fill="#FFFFFF">
            <path d="M20.281194,8.16093726 C20.1249445,15.3854641 15.5937084,20.4112219 8.71872942,20.7253318 C5.90623803,20.8823867 3.87499426,19.9400571 2,18.8406726 C4.03124378,19.154844 6.68748564,18.3695694 8.09373133,17.1130683 C6.06248755,16.9560134 4.81249138,15.8566289 4.1874933,14.1290246 C4.81249138,14.2860796 5.43748947,14.1290246 5.90623803,14.1290246 C4.03124378,13.5008049 2.78124761,12.4014204 2.62499809,9.8885415 C3.09374665,10.2026514 3.71874473,10.3597063 4.34374282,10.3597063 C2.93749713,9.57443164 2,6.59038794 3.09374665,4.70572877 C5.12499043,6.90449781 7.62498277,8.78915698 11.6874703,9.10326684 C10.5937237,4.70572877 16.5312668,2.3499048 18.8750096,5.33394849 C19.9687562,5.17689356 20.7500038,4.70572877 21.5312514,4.39161891 C21.2187524,5.49100342 20.5937543,6.11922315 19.8125067,6.74744287 C20.5937543,6.59038794 21.3750019,6.43333301 22,6.11922315 C21.8436892,6.90449781 21.0624416,7.53271753 20.281194,8.16093726 L20.281194,8.16093726 Z" id="Path"></path>
        </g>
    </g>
</svg>