<?xml version="1.0" encoding="UTF-8"?>
<svg width="24px" height="24px" viewBox="0 0 24 24" version="1.1" xmlns="http://www.w3.org/2000/svg" xmlns:xlink="http://www.w3.org/1999/xlink">
    <title>Social/Twitter/Color</title>
    <g id="💎-Icons" stroke="none" stroke-width="1" fill="none" fill-rule="evenodd">
        <g id="Social/Twitter/Color" fill="#1DA1F2">
            <path d="M19.4530746,7.74484353 C19.31245,14.2469177 15.2343375,18.7700997 9.04685647,19.0527986 C6.51561423,19.194148 4.68749483,18.3460514 3,17.3566053 C4.8281194,17.6393596 7.21873707,16.9326124 8.4843582,15.8017615 C6.6562388,15.6604121 5.53124224,14.670966 4.96874397,13.1161222 C5.53124224,13.2574716 6.09374052,13.1161222 6.51561423,13.1161222 C4.8281194,12.5507244 3.70312285,11.5612784 3.56249828,9.29968735 C3.98437198,9.58238622 4.54687026,9.72373566 5.10936854,9.72373566 C3.84374741,9.01698847 3,6.33134915 3.98437198,4.63515589 C5.81249138,6.61404802 8.06248449,8.31024128 11.7187233,8.59294016 C10.7343513,4.63515589 16.0781401,2.51491432 18.1875086,5.20055364 C19.1718806,5.05920421 19.8750034,4.63515589 20.5781263,4.35245702 C20.2968772,5.34190308 19.7343789,5.90730083 19.031256,6.47269859 C19.7343789,6.33134915 20.4375017,6.18999971 21,5.90730083 C20.8593203,6.61404802 20.1561974,7.17944578 19.4530746,7.74484353 L19.4530746,7.74484353 Z" id="Path"></path>
        </g>
    </g>
</svg>