<?xml version="1.0" encoding="UTF-8"?>
<svg width="38px" height="38px" viewBox="0 0 38 38" version="1.1" xmlns="http://www.w3.org/2000/svg" xmlns:xlink="http://www.w3.org/1999/xlink">
    <title>Trusted/5_Github</title>
    <g id="Authentication-map" stroke="none" stroke-width="1" fill="none" fill-rule="evenodd">
        <g id="Onboarding-v3---Tablet" transform="translate(-822, -560)" fill="#FFFFFF" fill-rule="nonzero">
            <g id="image" transform="translate(560, 80)">
                <g id="Logos" transform="translate(0, 408)">
                    <g id="Group-10" transform="translate(38, 72)">
                        <g id="Trusted/5_Github" transform="translate(227.1667, 4.75)">
                            <path d="M31.140221,11.9088305 L31.0957021,11.7965947 L26.785607,0.699889261 C26.6979149,0.482399476 26.5426417,0.297902024 26.3420663,0.172868951 C25.9309773,-0.0788805423 25.4043523,-0.0509563252 25.0229859,0.242813005 C24.8388626,0.390354469 24.7052924,0.590278768 24.6404526,0.81537828 L21.7302316,9.59905011 L9.94589753,9.59905011 L7.03567651,0.81537828 C6.97255988,0.589052578 6.83870071,0.388126683 6.65314321,0.241186399 C6.27177684,-0.0525829311 5.74515186,-0.0805071482 5.33406286,0.171242346 C5.13393753,0.29678028 4.97879999,0.481116514 4.8905221,0.698262655 L0.572182809,11.7900882 L0.529312698,11.9023241 C-0.745329495,15.1878306 0.337179895,18.9089168 3.1839619,21.0275831 L3.19880155,21.0389694 L3.23837396,21.0666217 L9.80409639,25.9171604 L13.0523317,28.3424298 L15.0309523,29.8161348 C15.5065965,30.1723995 16.1645861,30.1723995 16.6402303,29.8161348 L18.6188508,28.3424298 L21.8670862,25.9171604 L28.472381,21.0373428 L28.4888695,21.0243299 C31.3289931,18.9054732 32.4094208,15.1909004 31.140221,11.9088305 Z" id="Path"></path>
                        </g>
                    </g>
                </g>
            </g>
        </g>
    </g>
</svg>
