<svg width="24" height="24" viewBox="0 0 24 24" fill="currentColor" xmlns="http://www.w3.org/2000/svg">
  <path d="M11.033 3.00633L11.26 3C13.4691 3 15.26 4.79086 15.26 7C15.26 8.3313 14.6096 9.51069 13.6087 10.2372L13.4039 10.3764L13.1666 10.5172C13.0045 10.6052 12.8357 10.6824 12.6612 10.7476L12.3951 10.8367C12.0353 10.943 11.6543 11 11.26 11L10.9669 10.9894C10.6766 10.9684 10.3948 10.9164 10.1249 10.8367L9.85884 10.7476C9.68433 10.6824 9.51554 10.6052 9.35343 10.5172L9.11612 10.3764L8.91134 10.2372L8.71592 10.0859C7.82656 9.35276 7.26001 8.24254 7.26001 7C7.26001 4.86704 8.92949 3.12401 11.033 3.00633Z" />
  <path d="M13.7802 19.6543C13.8249 19.9558 13.9177 20.2402 14.0503 20.5H4.7646L4.68413 20.4945L4.5648 20.4664C4.29443 20.3805 4.08445 20.1563 4.02094 19.8762L4.00294 19.753L4 19.6347L4.00102 19.235L4.00717 18.9535L4.0264 18.6637C4.2407 16.2598 5.79718 14.1482 8.1232 13.1019C8.23423 13.0594 8.34525 13.0191 8.45633 12.9841L8.96613 12.8227C9.57178 12.653 10.1774 12.5505 10.7831 12.5151L11.2606 12.5L11.4985 12.5047L11.7382 12.5152C12.4089 12.5543 13.0796 12.6758 13.7504 12.8798L13.75 13.25L13.2494 13.2505L13.0136 13.2618L12.8789 13.2755C11.5214 13.4597 10.5 14.62 10.5 16C10.5 17.3676 11.5035 18.521 12.8457 18.7198L12.9924 18.736L13.1032 18.7441L13.2492 18.7495L13.75 18.749L13.7505 19.2507L13.7559 19.3968L13.764 19.5076L13.7802 19.6543Z" />
  <path fill-rule="evenodd" d="M16 21C16 18.7909 14.2091 17 12 17V15C14.2091 15 16 13.2091 16 11H18C18 13.2091 19.7909 15 22 15V17C19.7909 17 18 18.7909 18 21H16ZM15.3178 16C15.9842 15.5569 16.5569 14.9842 17 14.3178C17.4431 14.9842 18.0158 15.5569 18.6822 16C18.0158 16.4431 17.4431 17.0158 17 17.6822C16.5569 17.0158 15.9842 16.4431 15.3178 16Z" />
</svg>
