<svg width="24" height="24" viewBox="0 0 24 24" fill="currentColor" xmlns="http://www.w3.org/2000/svg">
  <path d="M11 3C13.6234 3 15.75 5.12665 15.75 7.75C15.75 9.31536 14.9854 10.7515 13.7036 11.6522L13.5283 11.7683L13.7989 11.8735C14.1821 12.0226 14.3709 12.4549 14.22 12.8373L14.2068 12.8707C14.0606 13.241 13.6376 13.4176 13.2715 13.2613C12.5148 13.0073 11.7582 12.8802 11.0015 12.88C10.1368 12.8798 9.27205 13.0452 8.40731 13.3764C6.48515 14.241 5.19891 15.986 5.02182 17.9725L5.00592 18.212L5.00085 18.4446L4.99999 18.775L5.00243 18.8727L5.0173 18.9745C5.06978 19.2059 5.24331 19.3913 5.46674 19.4622L5.56534 19.4854L5.63185 19.49L12.2465 19.4891C12.6642 19.489 13.0028 19.8276 13.0028 20.2453C13.0028 20.6629 12.6643 21.0015 12.2466 21.0015H5.74492L5.46267 20.9819L5.33404 20.9675C4.39363 20.8207 3.65993 20.0763 3.52113 19.0871L3.5029 18.9101L3.5 18.7711L3.5012 18.4119L3.50735 18.1465C3.62346 15.4895 5.28062 13.1381 7.87083 11.9756C8.06991 11.8994 8.26947 11.8304 8.46947 11.7687L8.45217 11.7594C7.09238 10.894 6.25 9.3931 6.25 7.75C6.25 5.12665 8.37665 3 11 3ZM11 4.5C9.20507 4.5 7.75 5.95507 7.75 7.75C7.75 8.90379 8.35124 9.91715 9.2575 10.4939C9.76188 10.8146 10.3593 11 11 11C11.4805 11 11.9367 10.8957 12.3471 10.7085L12.5484 10.6081L12.7419 10.4933L12.9083 10.3802C13.7216 9.78993 14.25 8.83168 14.25 7.75C14.25 5.95507 12.7949 4.5 11 4.5Z" />
  <path d="M12 16.75V15.25C14.3472 15.25 16.25 13.3472 16.25 11H17.75C17.75 13.3472 19.6528 15.25 22 15.25V16.75C19.6528 16.75 17.75 18.6528 17.75 21H16.25C16.25 18.6528 14.3472 16.75 12 16.75ZM17 18.1585C17.512 17.2595 18.2595 16.512 19.1585 16C18.2595 15.488 17.512 14.7405 17 13.8415C16.488 14.7405 15.7405 15.488 14.8415 16C15.7405 16.512 16.488 17.2595 17 18.1585Z" />
</svg>
