<?xml version="1.0" encoding="UTF-8"?>
<svg width="38px" height="38px" viewBox="0 0 38 38" version="1.1" xmlns="http://www.w3.org/2000/svg" xmlns:xlink="http://www.w3.org/1999/xlink">
    <title>Trusted/8_</title>
    <g id="Authentication-map" stroke="none" stroke-width="1" fill="none" fill-rule="evenodd">
        <g id="Onboarding-v3---Tablet" transform="translate(-738, -622)" fill="#FFFFFF">
            <g id="image" transform="translate(560, 80)">
                <g id="Logos" transform="translate(0, 408)">
                    <g id="Group-4" transform="translate(122, 134)">
                        <g id="Trusted/8_" transform="translate(56, 0)">
                            <rect id="BB" fill-opacity="0" x="0" y="0" width="38" height="38"></rect>
                            <path d="M34.8224486,22.8545801 C34.8125534,23.1558763 34.4098181,23.4885779 33.5904943,23.9125517 C31.9003916,24.7869976 23.1490636,28.3593691 21.2828261,29.32018 C19.4175781,30.285898 18.3864967,30.2760838 16.9121097,29.5753494 C15.4377226,28.8805035 6.12533592,25.1432533 4.44512843,24.3512468 C3.60997229,23.95279 3.18249901,23.6200883 3.16666667,23.3030894 L3.16666667,26.4770041 C3.16666667,26.794003 3.60997229,27.1257232 4.44512843,27.5251615 C6.12533592,28.3230565 15.4436598,32.0544182 16.9121097,32.7492641 C18.3864967,33.4499985 19.4165885,33.4598127 21.2828261,32.4940947 C23.1480741,31.5332838 31.8994021,27.9599308 33.5904943,27.0864664 C34.451378,26.6467899 34.8323438,26.299367 34.8323438,25.9872752 C34.8323438,25.6908861 34.8323438,22.8585058 34.8323438,22.8585058 C34.8323438,22.8535987 34.8273962,22.8535987 34.8224486,22.8535987 L34.8224486,22.8545801 Z M34.8224486,17.6815114 C34.8066163,17.9779005 34.4098181,18.3106021 33.5904943,18.739483 C31.9003916,19.6080403 23.1490636,23.1813933 21.2828261,24.1422042 C19.4175781,25.1079222 18.3864967,25.098108 16.9121097,24.4032621 C15.4377226,23.7025277 6.12533592,19.971166 4.44512843,19.1742524 C3.60997229,18.7807026 3.18249901,18.4430939 3.16666667,18.126095 L3.16666667,21.3000097 C3.16666667,21.6170086 3.60997229,21.9546173 4.44512843,22.348167 C6.12533592,23.1460621 15.4377226,26.8774238 16.9121097,27.5771768 C18.3864967,28.2720226 19.4165885,28.2828183 21.2828261,27.3220074 C23.1480741,26.3562894 31.8994021,22.7878435 33.5904943,21.9143791 C34.451378,21.4697955 34.8323438,21.1223725 34.8323438,20.8102807 C34.8323438,20.5138917 34.8323438,17.6815114 34.8323438,17.6815114 C34.8323438,17.6815114 34.8273962,17.6815114 34.8224486,17.6815114 Z M34.8224486,12.3092143 C34.8382809,11.9922154 34.4207029,11.711529 33.5697144,11.4043443 C31.9261192,10.8066591 23.2212987,7.37168652 21.555934,6.76320566 C19.8915589,6.1596319 19.2107681,6.18514884 17.2525051,6.88097615 C15.294242,7.58171056 6.0323209,11.1845061 4.3837781,11.823411 C3.5595067,12.145317 3.15677145,12.4417061 3.1726038,12.758705 L3.1726038,15.9326197 C3.1726038,16.2496186 3.61096181,16.5813388 4.45106556,16.980777 C6.12632544,17.7786721 15.4436598,21.5100337 16.9180468,22.2097867 C18.3864967,22.9046326 19.4225257,22.9154282 21.2887632,21.9487288 C23.1490636,20.9879179 31.9053392,17.414565 33.5964315,16.5460076 C34.4523676,16.101424 34.8333333,15.7540011 34.8333333,15.4419093 C34.8333333,15.1455202 34.8333333,12.3082329 34.8333333,12.3082329 L34.8224486,12.3092143 Z M14.5055934,15.315306 L21.8448743,14.2013935 L19.6283461,17.4214349 L14.5055934,15.315306 Z M30.7347353,12.411282 L25.9266504,14.2975727 L21.5875987,12.5957891 L26.390736,10.7144056 L30.7347353,12.411282 Z M17.9946462,9.29330833 L17.2831802,7.99488869 L19.4997084,8.85363184 L21.5866092,8.17841437 L21.0196134,9.51805368 L23.1480741,10.3100602 L20.40611,10.5907466 L19.7876591,12.0579706 L18.7981376,10.4219422 L15.6287003,10.1412559 L17.9946462,9.29330833 Z M12.5265504,11.1285651 C14.696571,11.1285651 16.4490136,11.8037826 16.4490136,12.6311203 C16.4490136,13.4643465 14.6916234,14.1385825 12.5265504,14.1385825 C10.3614774,14.1385825 8.60408724,13.4633651 8.60408724,12.6311203 C8.60408724,11.8028012 10.3614774,11.1285651 12.5265504,11.1285651 Z" id="Shape" fill-rule="nonzero"></path>
                        </g>
                    </g>
                </g>
            </g>
        </g>
    </g>
</svg>
