<?xml version="1.0" encoding="UTF-8"?>
<svg width="24px" height="24px" viewBox="0 0 24 24" version="1.1" xmlns="http://www.w3.org/2000/svg" xmlns:xlink="http://www.w3.org/1999/xlink">
    <title>Icon/Eye Cancel/Filled</title>
    <g id="💎-Icons" stroke="none" stroke-width="1" fill="none" fill-rule="evenodd">
        <g id="Icon/Eye-Cancel/Filled" fill="#FFFFFF">
            <path d="M20.6196222,11.0916204 L20.7586471,11.4182639 L21,12 L20.7586471,12.5817361 C18.8851458,17.0974625 15.923882,19.5 12,19.5 C10.421915,19.5 8.99952792,19.1114033 7.74097942,18.3530319 L10.617477,16.0200706 C11.0508974,16.1690947 11.5160005,16.25 12,16.25 C14.3472102,16.25 16.25,14.3472102 16.25,12 C16.25,11.8225785 16.2391283,11.6476963 16.2180146,11.4759831 L19.4392917,8.8613718 C19.8693621,9.53093782 20.2630701,10.2749655 20.6196222,11.0916204 Z M19.9777619,5.52746904 C20.2150088,5.81988937 20.1959159,6.23681865 19.9488141,6.50627913 L19.8678716,6.58242123 L5.07719031,18.5824212 C4.75552795,18.8433929 4.28320976,18.7941933 4.02223812,18.472531 C3.78499117,18.1801106 3.80408406,17.7631814 4.0511859,17.4937209 L4.1321284,17.4175788 L18.9228097,5.41757877 C19.2444721,5.15660712 19.7167902,5.20580668 19.9777619,5.52746904 Z M12,4.5 C13.578085,4.5 15.0004721,4.88859668 16.2590206,5.6469681 L13.3835309,7.98027612 C12.9498237,7.83103074 12.4843747,7.75 12,7.75 C9.65278981,7.75 7.75,9.65278981 7.75,12 C7.75,12.1777667 7.76091409,12.3529842 7.78210874,12.5250191 L4.56070825,15.1386282 C4.13063785,14.4690622 3.7369299,13.7250345 3.38037778,12.9083796 L3.24135285,12.5817361 L3,12 L3.24135285,11.4182639 C5.11485418,6.90253746 8.076118,4.5 12,4.5 Z" id="Shape"></path>
        </g>
    </g>
</svg>