<?xml version="1.0" encoding="UTF-8"?>
<svg width="24px" height="24px" viewBox="0 0 24 24" version="1.1" xmlns="http://www.w3.org/2000/svg" xmlns:xlink="http://www.w3.org/1999/xlink">
    <title>Icon/Eye Cancel/Outline</title>
    <g id="💎-Icons" stroke="none" stroke-width="1" fill="none" fill-rule="evenodd">
        <g id="Icon/Eye-Cancel/Outline" fill="#FFFFFF">
            <path d="M19.1597389,8.44396307 C19.7000792,9.21749906 20.1871788,10.1011424 20.6196222,11.0916204 L20.7586471,11.4182639 L21,12 L20.7586471,12.5817361 C18.8851458,17.0974625 15.923882,19.5 12,19.5 C10.2344347,19.5 8.66375955,19.0135863 7.2993747,18.0671175 L8.52148412,17.075907 C9.55691781,17.691969 10.7164231,18 12,18 C15.2706922,18 17.7358058,16 19.3953406,12 C18.9816011,11.0027579 18.5177903,10.1298272 18.0039081,9.38120804 L19.1597389,8.44396307 Z M16.111167,10.9184923 C16.20176,11.2638031 16.25,11.626268 16.25,12 C16.25,14.3472102 14.3472102,16.25 12,16.25 C11.3143779,16.25 10.6666751,16.0876485 10.0932383,15.7992921 L11.4554179,14.6960841 C11.631448,14.7314462 11.8135573,14.75 12,14.75 C13.5113727,14.75 14.7379786,13.5307683 14.7499122,12.0222104 L16.111167,10.9184923 Z M12,4.5 C13.7655653,4.5 15.3362404,4.98641375 16.7006253,5.9328825 L15.4785159,6.92409298 C14.4430822,6.30803099 13.2835769,6 12,6 C8.72930775,6 6.2641942,8 4.60465935,12 C5.01839887,12.9972421 5.48220974,13.8701728 5.99609194,14.618792 L4.84026113,15.5560369 C4.29992079,14.7825009 3.81282118,13.8988576 3.38037778,12.9083796 L3.24135285,12.5817361 L3,12 L3.24135285,11.4182639 C5.11485418,6.90253746 8.076118,4.5 12,4.5 Z M19.9777619,5.52746904 C20.2150088,5.81988937 20.1959159,6.23681865 19.9488141,6.50627913 L19.8678716,6.58242123 L5.07719031,18.5824212 C4.75552795,18.8433929 4.28320976,18.7941933 4.02223812,18.472531 C3.78499117,18.1801106 3.80408406,17.7631814 4.0511859,17.4937209 L4.1321284,17.4175788 L18.9228097,5.41757877 C19.2444721,5.15660712 19.7167902,5.20580668 19.9777619,5.52746904 Z M12,7.75 C12.4841649,7.75 12.9494205,7.83096056 13.3829673,7.98008223 L11.8101484,9.25645091 C10.6357744,9.33652679 9.66386785,10.1538955 9.3537256,11.2492602 L7.78205822,12.5246088 C7.76089674,12.3527056 7.75,12.1776254 7.75,12 C7.75,9.65278981 9.65278981,7.75 12,7.75 Z" id="Shape"></path>
        </g>
    </g>
</svg>