<?xml version="1.0" encoding="UTF-8"?>
<svg width="24px" height="24px" viewBox="0 0 24 24" version="1.1" xmlns="http://www.w3.org/2000/svg" xmlns:xlink="http://www.w3.org/1999/xlink">
    <title>Icon/Key/Filled</title>
    <g id="💎-Icons" stroke="none" stroke-width="1" fill="none" fill-rule="evenodd">
        <g id="Icon/Key/Filled" fill="#FFFFFF">
            <path d="M11,5.5 C13.0051538,5.5 14.6657083,6.97540469 14.9552733,8.89982378 L19.052749,8.89961301 C20.6804708,8.89961301 22,10.2191422 22,11.846864 L22,11.9747214 C22,13.5511111 20.7220734,14.8290274 19.1456838,14.8290274 C19.0463247,14.8290274 18.9470674,14.8238393 18.8483164,14.8134949 L18.70062,14.7941151 C17.9425422,14.6744464 18.20062,13.7130585 17.70062,13.7130585 C17.20062,13.7130585 17.5025908,14.5831192 16.70062,14.7941151 C16.3504784,14.8862361 15.7777607,14.9180269 14.9824668,14.8894875 C14.7858589,16.9154919 13.0779703,18.5 11,18.5 L7,18.5 C4.790861,18.5 3,16.709139 3,14.5 L3,9.5 C3,7.290861 4.790861,5.5 7,5.5 L11,5.5 Z M6.75,10 C6.33610656,10 6.00057963,10.3578954 6.00057963,10.7993817 L6.00057963,13.2006183 L6.00742095,13.3090896 C6.05704499,13.6992685 6.37059768,14 6.75,14 C7.16389344,14 7.49942037,13.6421046 7.49942037,13.2006183 L7.49942037,10.7993817 L7.49257905,10.6909104 C7.44295501,10.3007315 7.12940232,10 6.75,10 Z" id="Combined-Shape"></path>
        </g>
    </g>
</svg>