<?xml version="1.0" encoding="UTF-8"?>
<svg width="24px" height="24px" viewBox="0 0 24 24" version="1.1" xmlns="http://www.w3.org/2000/svg" xmlns:xlink="http://www.w3.org/1999/xlink">
    <title>Icon/Key/Outline</title>
    <g id="💎-Icons" stroke="none" stroke-width="1" fill="none" fill-rule="evenodd">
        <g id="Icon/Key/Outline" fill="#FFFFFF">
            <path d="M11,5.5 C13.0051538,5.5 14.6657083,6.97540469 14.9552733,8.89982378 L19.052749,8.89961301 C20.6804708,8.89961301 22,10.2191422 22,11.846864 L22,11.9747214 C22,13.5511111 20.7220734,14.8290274 19.1456838,14.8290274 C19.0463247,14.8290274 18.9470674,14.8238393 18.8483164,14.8134949 L18.70062,14.7941151 C17.9425422,14.6744464 18.20062,13.7130585 17.70062,13.7130585 C17.20062,13.7130585 17.5025908,14.5831192 16.70062,14.7941151 C16.3504784,14.8862361 15.7777607,14.9180269 14.9824668,14.8894875 C14.7858589,16.9154919 13.0779703,18.5 11,18.5 L7,18.5 C4.790861,18.5 3,16.709139 3,14.5 L3,9.5 C3,7.290861 4.790861,5.5 7,5.5 L11,5.5 Z M11,7 L7,7 C5.61928813,7 4.5,8.11928813 4.5,9.5 L4.5,14.5 C4.5,15.8807119 5.61928813,17 7,17 L11,17 C12.2899244,17 13.3659413,16.0176483 13.4894802,14.7446048 L13.6258019,13.3398375 L15.0362603,13.3904524 L15.4740125,13.3994845 C15.6072012,13.3999518 15.7273628,13.3980039 15.8336015,13.3940254 L16.007,13.384 L16.0457657,13.2920365 C16.3157229,12.6860807 16.7360725,12.2713327 17.5256854,12.2187261 L17.70062,12.2130585 C18.2755309,12.2130585 18.7796617,12.4730976 19.1158315,12.9026458 C19.1869724,12.9935476 19.2427035,13.0767281 19.2904916,13.1620542 L19.364,13.309 L19.4030348,13.3046071 C19.9862686,13.1924114 20.4363779,12.7060712 20.4938003,12.1051496 L20.5,11.9747214 L20.5,11.846864 C20.5,11.0475694 19.8520436,10.399613 19.0528261,10.399613 L13.6641009,10.3998902 L13.471971,9.12301449 C13.2895211,7.91047163 12.2407391,7 11,7 Z M6.75,10 C7.12940232,10 7.44295501,10.3007315 7.49257905,10.6909104 L7.49942037,10.7993817 L7.49942037,13.2006183 C7.49942037,13.6421046 7.16389344,14 6.75,14 C6.37059768,14 6.05704499,13.6992685 6.00742095,13.3090896 L6.00057963,13.2006183 L6.00057963,10.7993817 C6.00057963,10.3578954 6.33610656,10 6.75,10 Z" id="Combined-Shape"></path>
        </g>
    </g>
</svg>