<svg width="24" height="24" viewBox="0 0 24 24" fill="none" xmlns="http://www.w3.org/2000/svg">
<g id="Filled=yes">
<path id="Union" fill-rule="evenodd" clip-rule="evenodd" d="M21.0251 11.3176L21.0264 7.00056C21.0266 6.38237 20.4715 5.91209 19.8617 6.01391L15.525 6.73808C14.6802 6.87916 14.3921 7.94781 15.0516 8.49438L16.5232 9.71389L13.3521 13.942L9.66439 10.664C9.46203 10.4841 9.19538 10.394 8.92539 10.4142C8.65539 10.4344 8.40513 10.5632 8.2318 10.7712L3.2318 16.7712C2.87824 17.1955 2.93556 17.8261 3.35984 18.1796C3.78412 18.5332 4.41468 18.4759 4.76825 18.0516L9.10731 12.8447L12.8357 16.1588C13.0447 16.3446 13.3219 16.4344 13.6002 16.4064C13.8784 16.3784 14.1322 16.2351 14.3 16.0114L18.0649 10.9916L19.387 12.0873C20.0387 12.6274 21.0248 12.164 21.0251 11.3176Z" fill="#FFFFFF"/>
</g>
</svg>
