<svg width="24" height="24" viewBox="0 0 24 24" fill="none" xmlns="http://www.w3.org/2000/svg">
<g id="Filled=no">
<path id="Union" fill-rule="evenodd" clip-rule="evenodd" d="M20.5265 6.50028C20.5266 6.19118 20.249 5.95604 19.9441 6.00695L15.6074 6.73113C15.185 6.80167 15.041 7.33599 15.3707 7.60928L17.0162 8.97296L13.3891 13.8092L9.49829 10.3507C9.34652 10.2158 9.14653 10.1482 8.94404 10.1633C8.74154 10.1785 8.55385 10.2751 8.42385 10.4311L3.42385 16.4311C3.15868 16.7493 3.20167 17.2222 3.51988 17.4874C3.83809 17.7526 4.31101 17.7096 4.57618 17.3914L9.08048 11.9862L13.0017 15.4718C13.1585 15.6111 13.3665 15.6785 13.5751 15.6575C13.7838 15.6365 13.9742 15.529 14.1 15.3612L18.1725 9.93123L19.7061 11.2022C20.032 11.4722 20.525 11.2406 20.5252 10.8173L20.5265 6.50028Z" fill="#FFFFFF"/>
</g>
</svg>
