<?xml version="1.0" encoding="UTF-8"?>
<svg width="24px" height="24px" viewBox="0 0 24 24" version="1.1" xmlns="http://www.w3.org/2000/svg" xmlns:xlink="http://www.w3.org/1999/xlink">
    <title>Social/Reddit/Color</title>
    <g id="💎-Icons" stroke="none" stroke-width="1" fill="none" fill-rule="evenodd">
        <g id="Social/Reddit/Color" fill="#FF4500" fill-rule="nonzero">
            <path d="M22,12.156116 C22,10.9434622 21.0158172,9.95927944 19.8031634,9.95927944 C19.2056239,9.95927944 18.6783831,10.1877504 18.2917399,10.5743937 C16.797891,9.50233743 14.7240773,8.79934974 12.4393673,8.71147627 L13.4411248,4.01903339 L16.6924429,4.7044464 C16.7275923,5.53045694 17.4130053,6.19829525 18.2565905,6.19829525 C19.1177504,6.19829525 19.8207381,5.49530756 19.8207381,4.63414763 C19.8207381,3.7729877 19.1177504,3.07 18.2565905,3.07 C17.6414763,3.07 17.1142355,3.42149385 16.8681898,3.94873462 L13.2302285,3.17544815 C13.1247803,3.15787346 13.0193322,3.17544815 12.9314587,3.22817223 C12.8435852,3.28089631 12.7908612,3.36876977 12.7557118,3.47421793 L11.6485062,8.71147627 C9.31107206,8.78177504 7.21968366,9.46718805 5.70826011,10.5743937 C5.32161687,10.2053251 4.77680141,9.95927944 4.19683656,9.95927944 C2.98418278,9.95927944 2,10.9434622 2,12.156116 C2,13.0524253 2.52724077,13.8081371 3.30052724,14.1596309 C3.26537786,14.3705272 3.24780316,14.5989982 3.24780316,14.8274692 C3.24780316,18.2018102 7.16695958,20.9258875 12.0175747,20.9258875 C16.8681898,20.9258875 20.7873462,18.2018102 20.7873462,14.8274692 C20.7873462,14.5989982 20.7697715,14.3881019 20.7346221,14.1772056 C21.4551845,13.8257118 22,13.0524253 22,12.156116 Z M6.97363796,13.7202636 C6.97363796,12.8591037 7.67662566,12.156116 8.53778559,12.156116 C9.39894552,12.156116 10.1019332,12.8591037 10.1019332,13.7202636 C10.1019332,14.5814236 9.39894552,15.2844112 8.53778559,15.2844112 C7.67662566,15.2844112 6.97363796,14.5814236 6.97363796,13.7202636 Z M15.7082601,17.8503163 C14.6362039,18.9223726 12.5975395,18.9926714 12,18.9926714 C11.4024605,18.9926714 9.34622144,18.9047979 8.29173989,17.8503163 C8.13356766,17.6921441 8.13356766,17.4285237 8.29173989,17.2703515 C8.44991213,17.1121793 8.71353251,17.1121793 8.87170475,17.2703515 C9.53954306,17.9381898 10.9806678,18.1842355 12.0175747,18.1842355 C13.0544815,18.1842355 14.4780316,17.9381898 15.1634446,17.2703515 C15.3216169,17.1121793 15.5852373,17.1121793 15.7434095,17.2703515 C15.8664323,17.4460984 15.8664323,17.6921441 15.7082601,17.8503163 Z M15.427065,15.2844112 C14.5659051,15.2844112 13.8629174,14.5814236 13.8629174,13.7202636 C13.8629174,12.8591037 14.5659051,12.156116 15.427065,12.156116 C16.288225,12.156116 16.9912127,12.8591037 16.9912127,13.7202636 C16.9912127,14.5814236 16.288225,15.2844112 15.427065,15.2844112 Z" id="Shape"></path>
        </g>
    </g>
</svg>