<?xml version="1.0" encoding="UTF-8"?>
<svg width="24px" height="24px" viewBox="0 0 24 24" version="1.1" xmlns="http://www.w3.org/2000/svg" xmlns:xlink="http://www.w3.org/1999/xlink">
    <title>Icon/Feedback/Filled</title>
    <g id="Icon/Feedback/Filled" stroke="none" stroke-width="1" fill="none" fill-rule="evenodd">
        <path d="M19.1503371,5.99010417 C19.2961345,6.05552041 19.4308312,6.12880961 19.5598239,6.21039523 C20.0286627,6.50692761 20.3887067,6.90934211 20.631541,7.40823354 C20.8473938,7.85169258 20.9706364,8.34478357 20.9953588,9.07003324 L21,9.3532408 L21,15.1737061 C21,15.7277417 20.8716432,16.2451505 20.6395827,16.6974968 C20.4075222,17.149843 20.071758,17.5371267 19.6569432,17.8309119 C19.3112642,18.0757329 18.9106889,18.2556244 18.4694842,18.3541305 L18.2,18.4033363 L16.2986119,18.6750644 C15.973857,18.7214752 15.8600196,18.7679457 15.7465294,18.8430379 C15.6330392,18.91813 15.4949004,19.0230329 15.4879446,19.2140158 L15.4906106,19.2427546 L15.4906106,19.2427546 L15.5147714,19.3186705 L15.6723365,19.664917 C15.8055949,19.9767543 15.9174863,20.3814603 15.6346886,20.7138341 C15.3869696,21.0049799 14.978262,21.0843619 14.6572319,20.9038421 L14.5538102,20.8339768 L11.7888,19.0773042 L13.32,18.1056 L15.2971506,17.7786395 L15.5360695,17.7324461 C17.5887622,17.2802541 19.089585,15.5052045 19.1941684,13.4039411 L19.2,13.1691756 L19.2,6.9532408 L19.1937957,6.59500699 C19.1896351,6.47865027 19.1833575,6.36525062 19.1748898,6.25451556 L19.1503371,5.99010417 Z M13.8,3.1994608 L14.0681224,3.22926327 C14.9467946,3.32692991 15.4909851,3.51386286 15.9598239,3.81039523 C16.4286627,4.10692761 16.7887067,4.50934211 17.031541,5.00823354 C17.2743754,5.50712496 17.4,6.06883181 17.4,6.9532408 L17.4,13.1691756 C17.4,14.5737348 16.3849327,15.7724282 15,16.0033363 L12.8052541,16.3706933 L12.704925,16.3943067 L12.6885828,16.3992479 C12.6339618,16.4162627 12.586839,16.4373111 12.5377131,16.4666373 L12.4490126,16.5266401 L9.44618976,18.4339768 C9.11454944,18.6993879 8.64055476,18.6373294 8.36531136,18.3138341 C8.08251368,17.9814603 8.19440513,17.5767543 8.32766347,17.264917 L8.48522862,16.9186705 L8.50938944,16.8427546 C8.5114253,16.8321059 8.51236452,16.8225039 8.51205537,16.8140158 C8.50509963,16.6230329 8.36696085,16.51813 8.25347064,16.4430379 C8.13998044,16.3679457 8.02614297,16.3214752 7.70138813,16.2750644 L5.8,16.0033363 C5.25173707,15.9249838 4.75787164,15.7246971 4.34305683,15.4309119 C3.92824201,15.1371267 3.59247781,14.749843 3.3604173,14.2974968 C3.1283568,13.8451505 3,13.3277417 3,12.7737061 L3,6.9532408 C3,6.06883181 3.12562463,5.50712496 3.36845897,5.00823354 C3.6112933,4.50934211 3.97133734,4.10692761 4.44017614,3.81039523 C4.85692174,3.5468109 5.33320443,3.36982364 6.05101964,3.26515287 L6.6,3.1994608 C8.99263797,2.93351307 11.407362,2.93351307 13.8,3.1994608 Z M10.2,8.1 C9.73844774,8.1 9.35804356,8.47059858 9.30605496,8.94804372 L9.3,9.06 L9.3,13.14 C9.3,13.6701934 9.70294373,14.1 10.2,14.1 C10.6615523,14.1 11.0419564,13.7294014 11.093945,13.2519563 L11.1,13.14 L11.1,9.06 C11.1,8.52980664 10.6970563,8.1 10.2,8.1 Z M10.2,4.8 C9.70294373,4.8 9.3,5.20294373 9.3,5.7 C9.3,6.19705627 9.70294373,6.6 10.2,6.6 C10.6970563,6.6 11.1,6.19705627 11.1,5.7 C11.1,5.20294373 10.6970563,4.8 10.2,4.8 Z" id="Shape" fill="#FFFFFF"></path>
    </g>
</svg>