<?xml version="1.0" encoding="UTF-8"?>
<svg width="24px" height="24px" viewBox="0 0 24 24" version="1.1" xmlns="http://www.w3.org/2000/svg" xmlns:xlink="http://www.w3.org/1999/xlink">
    <title>Icon/Feedback/Outline</title>
    <g id="Icon/Feedback/Outline" stroke="none" stroke-width="1" fill="none" fill-rule="evenodd">
        <path d="M12.9637095,3.10610527 L13.6657083,3.17539851 L13.8891436,3.2002339 C14.8026196,3.30176906 15.4829369,3.51628099 16.1016614,3.90761347 C16.5695188,4.20352511 16.9610017,4.58366186 17.2643373,5.03485123 L18.5726573,5.62319543 C18.7570824,5.7059431 18.9320366,5.80032869 19.1016614,5.90761347 C19.727919,6.30371044 20.217332,6.85071829 20.5416648,7.51704433 C20.7921249,8.03160262 20.9312278,8.57283906 20.9803334,9.23990428 L20.9959309,9.53378225 L21,9.79436733 L21,14.6447551 C21,15.3358009 20.8402995,16.0027361 20.5342729,16.5992614 C20.2306863,17.1910306 19.7904504,17.6988159 19.2477295,18.0831884 C18.8578475,18.3593154 18.4213393,18.567368 17.9180021,18.7067478 L17.6606708,18.7707122 L17.3788762,18.8210268 L16.691,18.919 L16.68758,19.0336951 C16.6663813,19.3394076 16.5735387,19.6417607 16.3882356,19.9386159 L16.2877826,20.0865755 L16.1713413,20.2335595 C15.5429003,20.9721701 14.5043179,21.2082591 13.6313664,20.8051378 L13.4791526,20.7273355 L13.3746909,20.662831 L13.3238006,20.6277364 L11.0196254,19.1638425 L10.4169699,18.7826165 C9.6475607,19.1621245 8.72290055,19.0362664 8.07155304,18.4775463 L7.94505469,18.3600522 L7.82865868,18.2335595 C7.5378596,17.8917815 7.38235398,17.5415504 7.33026292,17.1835937 L7.31417675,17.0297128 L7.311,16.919 L6.62112383,16.8210268 C6.10806354,16.7477051 5.62114609,16.5873133 5.17891682,16.3482139 L4.96161205,16.2221439 L4.75227046,16.0831884 C4.20954956,15.6988159 3.76931368,15.1910306 3.46572708,14.5992614 C3.19795385,14.0773017 3.04221148,13.5014345 3.00745984,12.9026767 L3,12.6447551 L3,7.79436733 C3,6.87514245 3.13794939,6.17526155 3.45833521,5.51704433 C3.78266799,4.85071829 4.27208104,4.30371044 4.89833857,3.90761347 C5.38970078,3.59683543 5.92114443,3.397296 6.60182919,3.27422224 L6.86429485,3.23158599 L7.33429174,3.17539851 C9.2045122,2.9675188 11.0900788,2.94442105 12.9637095,3.10610527 Z M17.9586142,6.99175348 L17.9790749,7.2120963 L17.9882983,7.35221096 L17.9948297,7.49583916 L18,7.79436733 L18,12.974313 L17.9951403,13.1699509 C17.9652635,13.7702282 17.7986503,14.3385588 17.523648,14.8414834 L17.3831802,15.0781292 C16.8790745,15.8629498 16.0986176,16.4594425 15.1648699,16.7223542 L14.9467246,16.7770384 L14.7476255,16.8155329 L13.1,17.088 L11.825,17.898 L14.1281752,19.3616473 L14.2143599,19.4198684 C14.3035349,19.4700128 14.4008282,19.4960922 14.498565,19.4995924 L14.5961652,19.4956211 C14.7581312,19.4766419 14.9142225,19.3963182 15.0289072,19.2615284 C15.238387,19.0153256 15.1879891,18.7214966 15.0962104,18.4767298 L15.0602804,18.3874308 L14.9289762,18.0988921 L14.9165469,18.0648115 C14.9097513,18.0436865 14.9061053,18.0258267 14.9066205,18.0116798 C14.912417,17.8525275 15.0275326,17.7651083 15.1221078,17.7025315 C15.2031722,17.6488943 15.2844493,17.6127805 15.4764422,17.5792014 L15.5821766,17.5625537 L17.1666667,17.3361136 L17.3912368,17.2951088 C17.7589074,17.2130203 18.0927201,17.0631107 18.380786,16.8590932 C18.726465,16.6142722 19.0062685,16.2915359 19.1996522,15.9145807 C19.3608054,15.6004513 19.4619448,15.24867 19.4911814,14.87295 L19.5,14.6447551 L19.5,9.79436733 L19.4961323,9.55836103 C19.4755303,8.95398631 19.3728281,8.54307715 19.1929509,8.17352795 C18.9905889,7.75778509 18.6905522,7.42243967 18.2998532,7.17532936 L18.1344852,7.07848849 L17.9586142,6.99175348 Z M10.8338383,4.50205207 L10.1661617,4.50205207 C9.49851043,4.51026033 8.83108635,4.54309338 8.16525283,4.60055123 L7.5,4.66621733 L7.04251636,4.72096072 C6.44433702,4.80818637 6.04743478,4.95567575 5.70014678,5.17532936 C5.30944778,5.42243967 5.00941108,5.75778509 4.80704914,6.17352795 C4.62717186,6.54307715 4.52446968,6.95398631 4.50386768,7.55836103 L4.5,7.79436733 L4.5,12.6447551 C4.5,13.1064514 4.606964,13.5376255 4.80034775,13.9145807 C4.9937315,14.2915359 5.27353501,14.6142722 5.61921402,14.8590932 C5.90727987,15.0631107 6.24109259,15.2130203 6.60876316,15.2951088 L6.83333333,15.3361136 L8.41782344,15.5625537 C8.68845248,15.6012294 8.78331703,15.6399548 8.8778922,15.7025315 C8.97246737,15.7651083 9.08758303,15.8525275 9.09337948,16.0116798 L9.09115787,16.0356289 L9.07102385,16.0988921 L8.93971956,16.3874308 C8.82867094,16.6472952 8.73542807,16.9845502 8.9710928,17.2615284 C9.1087145,17.4232761 9.30596158,17.5065927 9.50143503,17.4995924 L9.5987397,17.4885108 C9.66313194,17.476032 9.72619009,17.453298 9.78564012,17.4198684 L9.8718248,17.3616473 L12.3741771,15.7722001 L12.4480943,15.7221977 L12.5092394,15.6902715 L12.5874375,15.6619222 L12.6710451,15.6422445 L14.5567402,15.3259585 L14.7013193,15.293668 L14.8179355,15.2606599 L14.8927302,15.2360688 L14.9661901,15.209483 C15.0715138,15.1685602 15.1701445,15.1223896 15.264689,15.0700805 L15.3995739,14.9894914 L15.5255887,14.9027169 L15.6395018,14.8132908 C16.1252156,14.4076653 16.4435116,13.8153211 16.4931879,13.1557677 L16.5,12.974313 L16.4991433,7.68099196 C16.4887914,7.00857825 16.3847374,6.56754413 16.1929509,6.17352795 C15.9905889,5.75778509 15.6905522,5.42243967 15.2998532,5.17532936 C14.9525652,4.95567575 14.555663,4.80818637 13.9574836,4.72096072 L13.5,4.66621733 C12.6138378,4.56771817 11.72404,4.51299642 10.8338383,4.50205207 Z M10.5,8.75 C10.8796958,8.75 11.193491,9.05096414 11.2431534,9.44144474 L11.25,9.55 L11.25,12.95 L11.2449542,13.0432969 C11.2016304,13.4411678 10.8846269,13.75 10.5,13.75 C10.1203042,13.75 9.80650904,13.4490359 9.75684662,13.0585553 L9.75,12.95 L9.75,9.55 L9.7550458,9.4567031 C9.79836963,9.05883215 10.1153731,8.75 10.5,8.75 Z M10.5,6 C10.9142136,6 11.25,6.33578644 11.25,6.75 C11.25,7.16421356 10.9142136,7.5 10.5,7.5 C10.0857864,7.5 9.75,7.16421356 9.75,6.75 C9.75,6.33578644 10.0857864,6 10.5,6 Z" id="Shape" fill="#FFFFFF"></path>
    </g>
</svg>