<svg preserveAspectRatio="xMidYMid meet" overflow="visible" viewBox="0 0 200.494 50.1298" fill="none" xmlns="http://www.w3.org/2000/svg">
<g id="Logo/Text">
<path id="daily" fill-rule="evenodd" clip-rule="evenodd" d="M6.24489 15.6656V34.4643H16.5708L18.7594 40.7305H6.24489C2.79593 40.7305 0 37.925 0 34.4643V15.6656C0 12.2048 2.79593 9.39935 6.24489 9.39935H16.5708V15.6656H18.7594V3.13312C18.7594 1.40274 20.1592 0 21.886 0H25.0126V37.5974C25.0126 39.3278 23.6127 40.7305 21.886 40.7305H18.7594V15.6656H6.24489ZM37.5106 40.7306C34.0617 40.7306 31.2657 37.9251 31.2657 34.4643V28.198C31.2657 24.7373 34.0616 21.9318 37.5106 21.9318H47.8365V28.198H50.0251V15.6656H32.8269L32.8269 12.5325C32.8269 10.8021 34.2249 9.39935 35.9494 9.39935H50.0251C53.4786 9.39935 56.2783 12.2048 56.2783 15.6656V37.5974C56.2783 39.3278 54.8785 40.7306 53.1517 40.7306H50.0251V28.198H37.5106V34.4643H47.8365L50.0251 40.7306C42.3163 40.7306 38.1448 40.7306 37.5106 40.7306ZM62.5314 40.7305V12.5325C62.5314 10.8021 63.9294 9.39935 65.6538 9.39935H68.7763V37.5974C68.7763 39.3278 67.3783 40.7305 65.6538 40.7305H62.5314ZM68.7763 3.15359C68.7763 4.02732 68.477 4.76452 67.8783 5.3652C67.2797 5.96589 66.545 6.26623 65.6742 6.26623C64.8035 6.26623 64.062 5.96589 63.4498 5.3652C62.8375 4.76452 62.5314 4.02732 62.5314 3.15359C62.5314 2.25256 62.8375 1.50171 63.4498 0.901027C64.062 0.300339 64.8035 0 65.6742 0C66.545 0 67.2797 0.300339 67.8783 0.901027C68.477 1.50171 68.7763 2.25256 68.7763 3.15359ZM75.0377 40.7305V3.13312C75.0377 1.40274 76.4356 0 78.1601 0H81.2826V37.5974C81.2826 39.3278 79.8846 40.7305 78.1601 40.7305H75.0377ZM96.1103 40.7431L87.6793 14.2276C87.1751 12.5729 88.125 10.8213 89.7741 10.3154L92.7443 9.39935L99.6228 31.9183L105.813 11.6173C106.318 9.9625 108.041 9.03117 109.69 9.53708L112.557 10.4531L101.936 45.6946C101.134 48.3289 98.7101 50.1283 95.9647 50.1287L90.8022 50.1298C89.0777 50.1298 87.6795 48.7275 87.6793 46.9972L87.6797 43.8636H92.8694C94.589 43.8636 96.1034 42.4685 96.1103 40.7431Z" fill="var(--fill-0, white)"/>
<path id=".dev" d="M122.744 41.1383V36.711H118.202V41.1383H122.744ZM136.329 41.4279C138.531 41.4279 140.396 40.8762 141.924 39.7729C143.451 38.6695 144.518 37.1937 145.124 35.3455V41.1383H148.881V10.5193H145.124V24.2151C144.518 22.3669 143.451 20.8912 141.924 19.7878C140.396 18.6844 138.531 18.1327 136.329 18.1327C134.319 18.1327 132.53 18.6016 130.961 19.5395C129.392 20.4774 128.16 21.829 127.265 23.5944C126.371 25.3599 125.924 27.4287 125.924 29.801C125.924 32.1733 126.371 34.2352 127.265 35.9869C128.16 37.7385 129.392 39.0832 130.961 40.0211C132.53 40.959 134.319 41.4279 136.329 41.4279ZM137.402 38.1178C135.09 38.1178 133.239 37.3799 131.849 35.9041C130.459 34.4283 129.764 32.394 129.764 29.801C129.764 27.208 130.459 25.1737 131.849 23.6979C133.239 22.2221 135.09 21.4842 137.402 21.4842C138.889 21.4842 140.217 21.8221 141.387 22.498C142.557 23.1738 143.472 24.1461 144.133 25.415C144.793 26.6839 145.124 28.1459 145.124 29.801C145.124 31.4561 144.793 32.9112 144.133 34.1663C143.472 35.4214 142.557 36.3937 141.387 37.0834C140.217 37.773 138.889 38.1178 137.402 38.1178ZM164.902 41.4279C166.801 41.4279 168.508 41.0831 170.022 40.3935C171.536 39.7039 172.768 38.7384 173.717 37.4971C174.667 36.2558 175.28 34.849 175.555 33.2767H171.55C171.274 34.8214 170.524 36.0558 169.299 36.9799C168.074 37.904 166.553 38.366 164.737 38.366C162.727 38.366 161.027 37.7178 159.637 36.4213C158.247 35.1248 157.511 33.1801 157.428 30.5872H175.555C175.665 30.0079 175.72 29.3183 175.72 28.5183C175.72 26.615 175.286 24.8771 174.419 23.3048C173.552 21.7325 172.3 20.4774 170.662 19.5395C169.024 18.6016 167.104 18.1327 164.902 18.1327C162.727 18.1327 160.8 18.6016 159.121 19.5395C157.442 20.4774 156.128 21.829 155.178 23.5944C154.228 25.3599 153.753 27.4287 153.753 29.801C153.753 32.1733 154.228 34.2352 155.178 35.9869C156.128 37.7385 157.442 39.0832 159.121 40.0211C160.8 40.959 162.727 41.4279 164.902 41.4279ZM171.921 28.7666H157.428C157.538 26.284 158.295 24.4013 159.699 23.1186C161.103 21.8359 162.837 21.1946 164.902 21.1946C166.196 21.1946 167.393 21.4704 168.494 22.0221C169.595 22.5738 170.462 23.4151 171.095 24.5461C171.729 25.6771 172.004 27.0839 171.921 28.7666ZM191.617 41.1383L200.494 18.4223H196.448L189.428 37.1247L182.326 18.4223H178.28L187.157 41.1383H191.617Z" fill="var(--fill-0, white)" fill-opacity="0.64"/>
</g>
</svg>
