<svg preserveAspectRatio="xMidYMid meet" overflow="visible" viewBox="0 0 100.05 56" fill="none" xmlns="http://www.w3.org/2000/svg">
<g id="Icon">
<path id="Combined-Shape" d="M85.9153 27.7261L74.8708 16.6584L80.3902 5.59464L98.3354 23.5774C100.622 25.8686 100.622 29.5835 98.3354 31.8747L76.2483 54.0081C73.9618 56.2994 70.2547 56.2994 67.9682 54.0081C65.6818 51.7168 65.6818 48.002 67.9682 45.7107L85.9153 27.7261Z" fill="var(--fill-0, white)" fill-opacity="0.64"/>
<path id="Main" d="M67.9724 1.71796C70.2588 -0.573294 73.9669 -0.572333 76.2533 1.71892L80.3943 5.86857L32.082 54.282C29.7955 56.5733 26.0875 56.5723 23.801 54.2811L19.66 50.1314L67.9724 1.71796ZM47.2665 16.9343L38.9846 25.2336L27.9401 14.1659L14.1349 28L25.1794 39.0676L19.66 50.1314L1.71485 32.1487C-0.571617 29.8574 -0.571617 26.1426 1.71485 23.8513L23.801 1.71892C26.0875 -0.572333 29.7955 -0.573294 32.082 1.71796L47.2665 16.9343Z" fill="var(--fill-0, white)"/>
</g>
</svg>
