<svg preserveAspectRatio="none" width="100%" height="100%" overflow="visible" style="display: block;" viewBox="0 0 60 60" fill="none" xmlns="http://www.w3.org/2000/svg">
<g id="Group 841">
<path id="Fill-1" fill-rule="evenodd" clip-rule="evenodd" d="M60 30C60 46.5685 46.5685 60 30 60C13.4315 60 0 46.5685 0 30C0 13.4315 13.4315 0 30 0C46.5685 0 60 13.4315 60 30Z" fill="var(--fill-0, black)"/>
<path id="Fill-3" fill-rule="evenodd" clip-rule="evenodd" d="M34.0003 29.9989L25.5003 29.9992V20.9992H34.0003C36.4856 20.9992 38.5003 23.0137 38.5003 25.4989C38.5003 27.9842 36.4856 29.9989 34.0003 29.9989ZM34.0003 14.9989H19.5003V44.9989H25.5003V35.9992H34.0003C39.7993 35.9992 44.5003 31.2979 44.5003 25.4989C44.5003 19.6999 39.7993 14.9989 34.0003 14.9989Z" fill="var(--fill-0, white)"/>
</g>
</svg>
