<svg preserveAspectRatio="none" width="100%" height="100%" overflow="visible" style="display: block;" viewBox="0 0 37.3333 37.3333" fill="none" xmlns="http://www.w3.org/2000/svg">
<path id="Shape" fill-rule="evenodd" clip-rule="evenodd" d="M18.3558 0.0179307C17.0302 0.171895 16.0013 1.29846 16.0013 2.66535L16 16L2.66534 16.0013L2.34939 16.0211C0.990526 16.2039 0 17.3291 0 18.6667C0 19.9922 0.973173 21.1107 2.27232 21.3031L2.61656 21.3302L16 21.3307L16.0013 34.668L16.0248 35.0121C16.2226 36.3602 17.3412 37.3333 18.6667 37.3333L18.9775 37.3154C20.3031 37.1614 21.332 36.0349 21.332 34.668L21.3307 21.3307L34.668 21.332L34.9839 21.3123C36.3428 21.1295 37.3333 20.0042 37.3333 18.6667C37.3333 17.3412 36.3602 16.2226 35.061 16.0302L34.7168 16.0031L21.3307 16L21.332 2.66532L21.3086 2.32121C21.1107 0.973171 19.9922 0 18.6667 0L18.3558 0.0179307Z" fill="var(--fill-0, white)"/>
</svg>
