<?xml version="1.0" encoding="UTF-8"?>
<svg width="24px" height="24px" viewBox="0 0 24 24" version="1.1" xmlns="http://www.w3.org/2000/svg" xmlns:xlink="http://www.w3.org/1999/xlink">
    <title>Icon/Megaphone/Filled</title>
    <g id="💎-Icons" stroke="none" stroke-width="1" fill="none" fill-rule="evenodd">
        <g id="Icon/Megaphone/Filled" fill="#FFFFFF" fill-rule="nonzero">
            <g id="Group" transform="translate(3.500000, 3.000000)">
                <g id="Group-2" transform="translate(10.770000, 0.000000)">
                    <path d="M0.371882713,2.82384296 C-0.124502189,3.11816543 -0.123419325,3.83697061 0.371882713,4.12999364 C1.58209163,4.87240526 2.36045434,6.21905505 2.39770487,7.63825674 C2.39770487,8.06468862 2.75071856,8.40730682 3.17715044,8.39452903 C3.60358232,8.38348381 3.93645475,8.02397293 3.91479747,7.5971079 C3.86303656,5.65596572 2.82067158,3.85018156 1.16497238,2.83467161 C0.923277112,2.68307063 0.616393426,2.6785226 0.371882713,2.82384296 Z" id="Path"></path>
                    <path d="M1.19962403,0.120147887 C0.685263583,0.450421436 0.751968011,1.22207039 1.31592363,1.4594342 C2.44145258,1.9534368 3.52539954,2.94923863 4.2610974,4.22420281 C4.9965787,5.49743442 5.31797276,6.93482822 5.18261475,8.15629892 C5.1351853,8.57341817 5.4364381,8.94895544 5.85269105,8.99508545 C6.27002688,9.0425149 6.64556415,8.74126211 6.69191073,8.32414286 C6.86885072,6.72107085 6.45952809,4.99433576 5.57526127,3.46468194 C4.69186074,1.93394525 3.40260275,0.71572314 1.9249264,0.0681704102 C1.69037804,-0.0388165626 1.41749629,-0.0186752904 1.19962403,0.120147887 L1.19962403,0.120147887 Z" id="Path"></path>
                </g>
                <path d="M7.18245715,2.98476754 C6.78784054,2.30160758 6.01805742,2.3755982 5.75578174,2.98697322 C4.97456918,4.80806473 4.8598737,6.61512008 2.84748938,8.04460272 L0.948797963,9.18514098 C-0.0108743509,9.76162613 -0.406694064,11.5412107 0.546762236,13.1018312 C1.06389448,14.0506756 1.88240312,14.6275618 2.55714139,14.8156463 C3.23268172,15.0037309 3.80676066,15.1787818 4.3625926,15.7388246 L5.66915859,17.237285 C5.90636969,17.5089849 6.35111545,17.5861838 6.68758225,17.3918832 L7.90832715,16.686867 C8.26745233,16.4683039 8.25080945,16.0865204 8.10363029,15.8314633 L6.71786026,13.4272696 C7.83333395,12.7826088 10.593244,13.4120303 11.9102369,13.6478378 C12.5693349,13.7645385 12.9817975,13.0294447 12.62568,12.4130568 C12.1394989,11.571102 11.5232347,10.5037387 10.8814569,9.39212962 L10.6236329,8.94555562 C10.5805181,8.87087646 10.5373518,8.79610801 10.4941651,8.72130395 L10.2350475,8.27248162 C8.68184437,5.58213645 7.18245715,2.98476754 7.18245715,2.98476754 Z" id="Path"></path>
            </g>
            <g id="Group-2" transform="translate(14.270000, 3.000000)">
                <path d="M0.371882713,2.82384296 C-0.124502189,3.11816543 -0.123419325,3.83697061 0.371882713,4.12999364 C1.58209163,4.87240526 2.36045434,6.21905505 2.39770487,7.63825674 C2.39770487,8.06468862 2.75071856,8.40730682 3.17715044,8.39452903 C3.60358232,8.38348381 3.93645475,8.02397293 3.91479747,7.5971079 C3.86303656,5.65596572 2.82067158,3.85018156 1.16497238,2.83467161 C0.923277112,2.68307063 0.616393426,2.6785226 0.371882713,2.82384296 Z" id="Path"></path>
                <path d="M1.19962403,0.120147887 C0.685263583,0.450421436 0.751968011,1.22207039 1.31592363,1.4594342 C2.44145258,1.9534368 3.52539954,2.94923863 4.2610974,4.22420281 C4.9965787,5.49743442 5.31797276,6.93482822 5.18261475,8.15629892 C5.1351853,8.57341817 5.4364381,8.94895544 5.85269105,8.99508545 C6.27002688,9.0425149 6.64556415,8.74126211 6.69191073,8.32414286 C6.86885072,6.72107085 6.45952809,4.99433576 5.57526127,3.46468194 C4.69186074,1.93394525 3.40260275,0.71572314 1.9249264,0.0681704102 C1.69037804,-0.0388165626 1.41749629,-0.0186752904 1.19962403,0.120147887 L1.19962403,0.120147887 Z" id="Path"></path>
            </g>
        </g>
    </g>
</svg>