<?xml version="1.0" encoding="UTF-8"?>
<svg width="24px" height="24px" viewBox="0 0 24 24" version="1.1" xmlns="http://www.w3.org/2000/svg" xmlns:xlink="http://www.w3.org/1999/xlink">
    <title>Icon/Megaphone/Outline</title>
    <g id="💎-Icons" stroke="none" stroke-width="1" fill="none" fill-rule="evenodd">
        <g id="Icon/Megaphone/Outline" fill="#FFFFFF" fill-rule="nonzero">
            <g id="Group" transform="translate(3.003449, 3.000000)">
                <path d="M9.02778847,3.17273513 C9.06415059,3.23572475 9.09293726,3.28559153 9.12203984,3.33600527 L9.15761961,3.39763916 C9.2617205,3.57796997 9.40596275,3.82783274 9.90050761,4.68450511 C10.7732469,6.19628007 11.2096236,6.95216465 11.8205749,8.01040281 C12.6060853,9.37099732 13.2604172,10.5043005 13.740233,11.3352322 C14.6524382,12.9141279 13.4689621,14.9810558 11.55049,14.6413661 C11.4236847,14.6186616 10.7646989,14.4939775 10.5681157,14.4585919 C10.3230159,14.4144731 10.100659,14.3772927 9.8923068,14.3462282 L9.84914325,14.3398204 L9.88569414,14.4072629 C10.3212394,15.274097 10.1516048,16.3713564 9.22939878,17.0130859 L9.10483103,17.09415 L8.04786123,17.7045813 C7.14094977,18.2282983 5.96262585,18.0416268 5.27683703,17.2561285 L4.18416589,16.0033754 L4.16714104,15.9867773 C4.01839035,15.8498465 3.86365922,15.7787719 3.44677962,15.6584034 L3.31359511,15.6206988 C2.26237123,15.3276682 1.25861952,14.5148769 0.691773083,13.470971 C-0.486800437,11.5418779 -0.132626898,9.01326216 1.54978308,8.00262098 L3.13314269,7.05121935 L3.20764261,6.99755646 C3.85121906,6.51333322 4.13465226,6.03182395 4.54222927,4.86554232 L4.61139129,4.66470369 C4.84949162,3.96397654 4.9375339,3.71911694 5.10276884,3.33393633 C5.83657187,1.62341228 8.08773672,1.54531819 9.02778847,3.17273513 Z M7.72277943,3.92607974 C7.3811224,3.33460337 6.71464815,3.39866407 6.48757122,3.92798941 C5.81120141,5.50468104 5.71189866,7.06922023 3.9695867,8.30685893 L2.32570947,9.29433107 C1.49483013,9.79344893 1.15213147,11.3342041 1.97762901,12.6853812 C2.42535944,13.5068858 3.13402,14.0063509 3.71820491,14.1691935 C4.30308424,14.3320362 4.80011883,14.4835944 5.28135525,14.9684765 L6.41257334,16.2658358 C6.61794949,16.5010722 7.00300807,16.5679106 7.29431929,16.3996862 L8.35123392,15.7892867 C8.66216265,15.6000559 8.64775333,15.2695097 8.52032637,15.0486826 L7.32053383,12.9671441 C8.2863052,12.4090001 10.6758211,12.95395 11.8160667,13.158111 C12.3867103,13.2591498 12.7438183,12.6227094 12.4354937,12.0890439 C12.0145606,11.3600838 11.4810022,10.4359662 10.9253543,9.47354076 L10.7021316,9.0868993 C10.664803,9.02224247 10.6274299,8.95750833 10.5900391,8.89274336 L10.3656964,8.5041553 C9.02094115,6.17486834 7.72277943,3.92607974 7.72277943,3.92607974 Z" id="Combined-Shape"></path>
                <g id="Group-2" transform="translate(11.266551, 0.000000)">
                    <path d="M0.371882713,2.82384296 C-0.124502189,3.11816543 -0.123419325,3.83697061 0.371882713,4.12999364 C1.58209163,4.87240526 2.36045434,6.21905505 2.39770487,7.63825674 C2.39770487,8.06468862 2.75071856,8.40730682 3.17715044,8.39452903 C3.60358232,8.38348381 3.93645475,8.02397293 3.91479747,7.5971079 C3.86303656,5.65596572 2.82067158,3.85018156 1.16497238,2.83467161 C0.923277112,2.68307063 0.616393426,2.6785226 0.371882713,2.82384296 Z" id="Path"></path>
                    <path d="M1.19962403,0.120147887 C0.685263583,0.450421436 0.751968011,1.22207039 1.31592363,1.4594342 C2.44145258,1.9534368 3.52539954,2.94923863 4.2610974,4.22420281 C4.9965787,5.49743442 5.31797276,6.93482822 5.18261475,8.15629892 C5.1351853,8.57341817 5.4364381,8.94895544 5.85269105,8.99508545 C6.27002688,9.0425149 6.64556415,8.74126211 6.69191073,8.32414286 C6.86885072,6.72107085 6.45952809,4.99433576 5.57526127,3.46468194 C4.69186074,1.93394525 3.40260275,0.71572314 1.9249264,0.0681704102 C1.69037804,-0.0388165626 1.41749629,-0.0186752904 1.19962403,0.120147887 L1.19962403,0.120147887 Z" id="Path"></path>
                </g>
            </g>
        </g>
    </g>
</svg>