<svg width="24" height="24" viewBox="0 0 24 24" fill="none" xmlns="http://www.w3.org/2000/svg">
  <path d="M14 5C14 3.89543 13.1046 3 12 3C10.8954 3 10 3.89543 10 5C10 5.73984 10.4022 6.38552 11 6.73244V10H13V6.73244C13.5978 6.38552 14 5.73984 14 5ZM12 4.5C12.2761 4.5 12.5 4.72386 12.5 5C12.5 5.27614 12.2761 5.5 12 5.5C11.7239 5.5 11.5 5.27614 11.5 5C11.5 4.72386 11.7239 4.5 12 4.5Z" fill="currentColor"/>
  <path d="M5 12.5C5 11.1193 6.11929 10 7.5 10H16.5C17.8807 10 19 11.1193 19 12.5V14.5C19 15.8807 17.8807 17 16.5 17H15.5V19.5C15.5 20.0523 15.0523 20.5 14.5 20.5H9.5C8.94772 20.5 8.5 20.0523 8.5 19.5V17H7.5C6.11929 17 5 15.8807 5 14.5V12.5Z" fill="currentColor"/>
</svg>
