<svg width="24" height="24" viewBox="0 0 24 24" fill="none" xmlns="http://www.w3.org/2000/svg">
  <path d="M12 3C13.1046 3 14 3.89543 14 5C14 5.73984 13.5978 6.38552 13 6.73244V10H11V6.73244C10.4022 6.38552 10 5.73984 10 5C10 3.89543 10.8954 3 12 3ZM12 4.5C11.7239 4.5 11.5 4.72386 11.5 5C11.5 5.27614 11.7239 5.5 12 5.5C12.2761 5.5 12.5 5.27614 12.5 5C12.5 4.72386 12.2761 4.5 12 4.5Z" fill="currentColor"/>
  <path d="M7.5 10C6.11929 10 5 11.1193 5 12.5V14.5C5 15.8807 6.11929 17 7.5 17H8.5V19.5C8.5 20.0523 8.94772 20.5 9.5 20.5H14.5C15.0523 20.5 15.5 20.0523 15.5 19.5V17H16.5C17.8807 17 19 15.8807 19 14.5V12.5C19 11.1193 17.8807 10 16.5 10H7.5ZM6.5 12.5C6.5 11.9477 6.94772 11.5 7.5 11.5H16.5C17.0523 11.5 17.5 11.9477 17.5 12.5V14.5C17.5 15.0523 17.0523 15.5 16.5 15.5H14.75C14.3358 15.5 14 15.8358 14 16.25V19H10V16.25C10 15.8358 9.66421 15.5 9.25 15.5H7.5C6.94772 15.5 6.5 15.0523 6.5 14.5V12.5Z" fill="currentColor"/>
</svg>
