<svg xmlns="http://www.w3.org/2000/svg" width="24" height="24" fill="currentColor" viewBox="0 0 24 24">
  <path d="m11.26 3-.227.006a4 4 0 0 0-2.317 7.08l.195.151.205.14.237.14c.163.088.331.165.506.23l.266.09c.27.08.552.131.842.152l.293.011c.394 0 .775-.057 1.135-.163l.266-.09c.175-.065.344-.142.506-.23l.237-.14.205-.14A4 4 0 0 0 11.26 3Zm2.503 17.5-.007-.103-.005-.146-.001-.502h-.5l-.147-.005-.11-.008-.147-.016a2.75 2.75 0 0 1 .033-5.444l.135-.014.235-.011.501-.001v-.5c0-.29.045-.569.128-.83a8.668 8.668 0 0 0-2.14-.405l-.24-.01-.237-.005-.478.015a8.572 8.572 0 0 0-1.817.308l-.51.161a5.873 5.873 0 0 0-.333.118c-2.326 1.046-3.882 3.158-4.097 5.562l-.019.29-.006.281-.001.4.003.118.018.123a.81.81 0 0 0 .544.59l.12.028.08.006h8.998Z"/>
  <path fill-rule="evenodd" d="M19.307 14.66a.75.75 0 0 1 1.043 1.055l-.067.077-1.768 1.768 1.768 1.769a.75.75 0 0 1-.976 1.132l-.084-.072-1.769-1.768-1.768 1.768-.084.072a.75.75 0 0 1-1.043-1.056l.067-.076 1.768-1.769-1.768-1.768a.75.75 0 0 1 .976-1.133l.084.073 1.768 1.768 1.769-1.768.084-.073Z" clip-rule="evenodd"/>
</svg>
