<svg xmlns="http://www.w3.org/2000/svg" width="24" height="24" fill="currentColor" viewBox="0 0 24 24">
  <path fill-rule="evenodd" d="M11 3a4.75 4.75 0 0 1 4.75 4.75 4.753 4.753 0 0 1-2.046 3.902l-.176.116.27.105c.384.15.573.582.422.964l-.013.034a.707.707 0 0 1-.936.39 7.102 7.102 0 0 0-2.27-.381c-.864 0-1.729.165-2.594.496-1.922.865-3.208 2.61-3.385 4.597l-.016.239-.005.233-.001.33.002.098.015.101a.67.67 0 0 0 .45.488l.098.023.067.005h6.614a.756.756 0 1 1 0 1.512h-6.5l-.282-.02-.129-.014c-.94-.147-1.674-.892-1.813-1.88l-.018-.178-.003-.139.001-.36.006-.265c.116-2.657 1.774-5.008 4.364-6.17.199-.077.398-.146.598-.207l-.017-.01A4.75 4.75 0 0 1 11 3Zm0 1.5a3.25 3.25 0 1 0 1.347 6.209l.201-.1.194-.116.166-.113A3.25 3.25 0 0 0 11 4.5Zm8.307 10.16a.75.75 0 0 1 1.043 1.055l-.067.077-1.768 1.768 1.768 1.769a.75.75 0 0 1-.976 1.132l-.084-.072-1.769-1.768-1.768 1.768-.084.072a.75.75 0 0 1-1.043-1.056l.067-.076 1.768-1.769-1.768-1.768a.75.75 0 0 1 .976-1.133l.084.073 1.768 1.768 1.769-1.768.084-.073Z" clip-rule="evenodd"/>
</svg>
