<?xml version="1.0" encoding="UTF-8"?>
<svg width="38px" height="38px" viewBox="0 0 38 38" version="1.1" xmlns="http://www.w3.org/2000/svg" xmlns:xlink="http://www.w3.org/1999/xlink">
    <title>Trusted/4_Amazon</title>
    <g id="Authentication-map" stroke="none" stroke-width="1" fill="none" fill-rule="evenodd">
        <g id="Onboarding-v3---Tablet" transform="translate(-766, -560)" fill="#FFFFFF">
            <g id="image" transform="translate(560, 80)">
                <g id="Logos" transform="translate(0, 408)">
                    <g id="Group-10" transform="translate(38, 72)">
                        <g id="Trusted/4_Amazon" transform="translate(168, 0)">
                            <path d="M3.35777704,27.6802796 C2.86948691,27.136035 3.43226848,26.8902431 3.76338422,27.08946 C9.11435286,30.2504756 17.4735215,35.4548304 30.9427774,29.2345191 C31.5127266,29.0036312 31.9111662,29.3891482 31.3471047,30.0880219 C30.7792034,30.7928572 26.2394492,34.8333333 18.608428,34.8333333 C10.9826546,34.8333333 5.14045198,29.7777702 3.35777704,27.6802796 Z M31.3696313,26.8029305 C32.5261686,26.6650684 34.3638801,26.7502696 34.725586,27.2073258 C35.0003852,27.5553344 34.7163706,29.1195099 34.2506071,30.240788 C33.7816438,31.3559802 33.0828065,32.1440296 32.6967821,32.4483197 C32.3053821,32.752734 32.0173997,32.6348682 32.2257709,32.177812 C32.4414378,31.7207558 33.6222935,28.886759 33.1543541,28.2918407 C32.735167,27.760103 30.8826915,27.9286562 29.9347169,28.0240012 L29.6554322,28.0520104 C28.8597049,28.1214382 28.7013786,28.1907419 28.6238153,28.036237 C28.4726566,27.6237686 30.2113022,26.9368181 31.3696313,26.8029305 Z M19.5421309,3.16666667 C21.6431224,3.16666667 24.3876585,3.7087999 26.045413,5.25260657 C28.0739565,7.09009925 27.9570554,9.52086 27.9465812,12.1736351 L27.9459688,18.9872695 C27.9459688,20.6550651 28.5513983,21.5267358 29.217773,22.4020947 L29.4546081,22.7125003 C29.4942069,22.7646943 29.5337948,22.8172265 29.5732612,22.87026 C29.8525401,23.2473313 29.9133364,23.7011583 29.561102,23.9838377 C28.8407271,24.5671263 27.661018,25.5607216 26.7836372,26.3094027 L26.2518644,26.7650495 L26.2397052,26.7532504 C25.9544106,27.000657 25.5415079,27.0184176 25.2197356,26.8533557 C23.7867352,25.6985436 23.5316468,25.162372 22.7423191,24.0604691 C20.374208,26.4056145 18.6982785,27.1067238 15.6258265,27.1067238 C11.9946886,27.1067238 9.16503776,24.9324777 9.16503776,20.578148 C9.16503776,17.1784199 11.0657215,14.8627099 13.7676362,13.7314958 C16.1115568,12.7296982 19.3844446,12.5529615 21.8861795,12.2761196 L21.8861795,11.7339864 C21.8861795,10.7381503 21.9650227,9.55974023 21.3639714,8.69953065 C20.8356198,7.92762732 19.8276814,7.60942678 18.9410797,7.60942678 C17.2956123,7.60942678 15.8261342,8.42840194 15.4678842,10.1253473 C15.3949286,10.5025428 15.1096341,10.8737768 14.7210499,10.8914132 L10.5312262,10.455471 C10.1791197,10.3787154 9.79053549,10.1018735 9.88768155,9.57737663 C10.8531265,4.65160251 15.437422,3.16666667 19.5421309,3.16666667 Z M21.8861795,15.6346132 C18.7649625,15.6346132 15.4678842,16.2826891 15.4678842,19.8534407 C15.4678842,21.6622902 16.4333291,22.8878964 18.0910837,22.8878964 C19.3054734,22.8878964 20.3923829,22.1631891 21.0785489,20.9846548 C21.8224074,19.716417 21.8828557,18.5157886 21.886345,17.1420596 L21.8861795,15.6346132 Z" id="Combined-Shape" fill-rule="nonzero"></path>
                        </g>
                    </g>
                </g>
            </g>
        </g>
    </g>
</svg>
