<?xml version="1.0" encoding="UTF-8"?>
<svg width="24px" height="24px" viewBox="0 0 24 24" version="1.1" xmlns="http://www.w3.org/2000/svg" xmlns:xlink="http://www.w3.org/1999/xlink">
    <title>Icon/Lock/Filled</title>
    <g id="💎-Icons" stroke="none" stroke-width="1" fill="none" fill-rule="evenodd">
        <g id="Icon/Lock/Filled" fill="#FFFFFF">
            <path d="M12.0473723,3 L12.4086529,3.0149429 L12.6990936,3.04246297 C15.2881444,3.36558442 17.2751701,5.53540708 17.3968306,8.14536539 L17.4027386,8.39926878 L17.4066042,11.2237111 C17.6960519,11.3491231 17.8929697,11.4735983 18.0859708,11.6217614 C18.4615769,11.9101066 18.7409909,12.2658445 18.9265035,12.6918912 L19.0002665,12.8757161 L19.0328487,12.9706952 L19.0894396,13.173926 C19.1318439,13.3530382 19.1623754,13.5604998 19.1811383,13.8260567 L19.1980115,14.1745145 L19.2036271,14.5901663 L19.2036271,16.5891224 L19.1980115,17.0047738 L19.1811383,17.3532312 C19.1623754,17.6187881 19.1318439,17.8262503 19.0894396,18.0053626 L19.0328487,18.208593 L19.0002665,18.3035717 L18.9265035,18.4873968 C18.7409909,18.9134435 18.4615769,19.2691811 18.0859708,19.5575263 L17.9221844,19.6761389 C17.7255974,19.809347 17.501975,19.9266092 17.1696726,20.0506116 L16.7683283,20.1870836 L16.2614951,20.3349176 L15.6027203,20.5156747 C13.2492046,21.1614418 10.7544225,21.1614418 8.40090677,20.5156747 L7.74213199,20.3349176 L7.14730492,20.1590793 L7.14730492,20.1590793 L6.8339545,20.0506116 C6.50165205,19.9266092 6.27802963,19.809347 6.08144266,19.6761389 L5.91765622,19.5575263 C5.5420502,19.2691811 5.26263614,18.9134435 5.07712359,18.4873968 L5.00336061,18.3035717 L4.9707784,18.208593 L4.91418751,18.0053626 C4.87178315,17.8262503 4.84125169,17.6187881 4.82248878,17.3532312 L4.80561552,17.0047738 L4.80140304,16.8060614 L4.8,14.5901663 C4.8,14.4391475 4.80186961,14.3012315 4.80561552,14.1745145 L4.82248878,13.8260567 C4.84125169,13.5604998 4.87178315,13.3530382 4.91418751,13.173926 L4.9707784,12.9706952 L5.00336061,12.8757161 L5.07712359,12.6918912 C5.26263614,12.2658445 5.5420502,11.9101066 5.91765622,11.6217614 C6.11099794,11.4733369 6.30827004,11.3486839 6.59855586,11.2230473 L6.60261611,8.35492591 L6.61378013,8.01447152 L6.63472125,7.7556609 C6.89036313,5.2869308 8.90568601,3.3180233 11.4300418,3.03273096 L11.6929465,3.00927226 L11.9171354,3.00042531 L12.0473723,3 Z M11.962231,12.602418 C10.9678681,12.602418 10.1617776,13.4085085 10.1617776,14.4028714 C10.1617776,15.0692664 10.5238183,15.6511023 11.0619391,15.9624185 L11.0620043,17.7037029 C11.0620043,18.2008844 11.4650496,18.6039293 11.962231,18.6039293 C12.4238995,18.6039293 12.8043995,18.2564061 12.8564012,17.8086885 L12.8624577,17.7037029 L12.8634277,15.9618947 C13.4010495,15.65045 13.7626844,15.0688929 13.7626844,14.4028714 C13.7626844,13.4085085 12.956594,12.602418 11.962231,12.602418 Z M11.9881297,4.79947845 L11.7639408,4.8083254 C10.1007286,4.91780459 8.71807738,6.16223124 8.45367515,7.73426972 L8.42559843,7.94110978 L8.4086677,8.15593173 L8.40249586,8.40037101 L8.40096194,10.6516903 C9.60140079,10.3517725 10.8018497,10.2018135 12.0023087,10.2018135 C13.2027676,10.2018135 14.4032165,10.3518321 15.6036554,10.6518691 L15.6022855,8.40037101 C15.6022855,6.64387458 14.3402454,5.1705879 12.6850107,4.86155753 L12.4761213,4.8290563 L12.2448623,4.80793063 L11.9881297,4.79947845 Z" id="Shape"></path>
        </g>
    </g>
</svg>