<?xml version="1.0" encoding="UTF-8"?>
<svg width="24px" height="24px" viewBox="0 0 24 24" version="1.1" xmlns="http://www.w3.org/2000/svg" xmlns:xlink="http://www.w3.org/1999/xlink">
    <title>Icon/Lock/Outline</title>
    <g id="💎-Icons" stroke="none" stroke-width="1" fill="none" fill-rule="evenodd">
        <g id="Icon/Lock/Outline" fill="#FFFFFF">
            <path d="M12.0372805,3.00081224 L12.3382719,3.01326152 L12.5802448,3.03618914 C14.7372439,3.30538921 16.3926817,5.11311943 16.4940398,7.28753699 L16.4989619,7.49906987 L16.4999895,9.75482887 L16.8131269,9.86363199 L16.8131269,9.86363199 C17.2961614,10.0427019 17.6482338,10.2364474 17.9991629,10.5073701 C18.4472701,10.8533158 18.8009714,11.2777028 19.0626653,11.7957662 L19.1691937,12.023573 L19.2470469,12.2207512 L19.3078398,12.4058832 L19.3686235,12.6294892 C19.4127307,12.8168462 19.4441266,13.013971 19.4662301,13.2488338 L19.4811189,13.4324939 L19.4966247,13.7724143 L19.5014059,14.1379285 L19.5014059,15.8625303 L19.4950974,16.2584316 L19.4792551,16.5802229 C19.4657718,16.7721343 19.4456006,16.9469752 19.4131964,17.1276896 L19.3547222,17.4060343 L19.2804993,17.6636213 L19.1530406,17.9964996 C18.9317195,18.5076546 18.6063665,18.9526928 18.1624726,19.338027 L17.9649324,19.4995335 L17.7900085,19.6259977 C17.565897,19.7787142 17.329564,19.9062769 17.0349193,20.0294055 L16.8022822,20.1212444 L16.4604749,20.2384922 L15.9511335,20.3888869 L15.405375,20.53948 C13.3191851,21.11513 11.1156009,21.1511081 9.01473667,20.6474144 L8.59599864,20.53948 L7.84788614,20.3316508 L7.65340801,20.2734667 L7.45868497,20.2116115 L7.16365414,20.1084293 C6.86532286,19.9964748 6.61414589,19.8770644 6.36208823,19.7218857 L6.17212932,19.5983527 L6.00221083,19.4738638 C5.55410356,19.127918 5.2004023,18.703531 4.9387084,18.1854677 L4.83217998,17.9576609 L4.75432681,17.7604827 L4.69353392,17.5753506 L4.63275017,17.3517446 C4.58864301,17.1643877 4.55724708,16.9672629 4.53514356,16.7324 L4.52025483,16.54874 L4.50379462,16.1764497 L4.50140594,13.9333602 L4.50627627,13.7228023 L4.52211855,13.4010109 C4.53560189,13.2090996 4.55577308,13.0342587 4.58817728,12.8535443 L4.6466515,12.5751995 L4.72087435,12.3176126 L4.8483331,11.9847342 C5.10127146,11.4005571 5.49008823,10.9027366 6.00221083,10.5073701 C6.35340104,10.2362458 6.70574473,10.0424101 7.20439657,9.85773555 L7.49940594,9.75681224 L7.50112625,7.46212679 L7.51042726,7.17848623 L7.52787379,6.96286503 C7.74085505,4.906108 9.41986788,3.26576492 11.5229679,3.02808117 L11.7420001,3.00853718 L11.9287771,3.00116658 L12.0372805,3.00081224 Z M12.001097,10.4818888 C10.580363,10.4818888 9.15964607,10.7368568 7.73894608,11.2467927 C7.37294659,11.382404 7.16399008,11.5076284 6.96029935,11.6648808 C6.70099203,11.86507 6.49702478,12.1042499 6.34729952,12.3838263 L6.26396461,12.556431 L6.20285606,12.7095798 L6.17586351,12.7887092 L6.12898108,12.9580255 C6.10263384,13.0699425 6.08181936,13.1951448 6.06650119,13.3440876 L6.05301376,13.5013309 L6.0390352,13.7916393 L6.0355454,13.9571915 L6.0355454,16.0240423 L6.0390352,16.1895945 L6.05301376,16.4799029 C6.06467179,16.6458342 6.08181396,16.7845401 6.10447674,16.9064757 L6.12898108,17.0232084 L6.17586351,17.1925247 L6.20285606,17.271654 L6.26396461,17.4248028 C6.39203701,17.7205941 6.57413177,17.9757077 6.81134698,18.1915494 L6.96029935,18.3163531 L7.09598735,18.4151722 C7.22627649,18.5039553 7.37089995,18.5842355 7.56448838,18.6656906 L7.71940175,18.7271535 L7.97899523,18.8175206 L8.12828701,18.8645623 L8.47177652,18.9640153 L9.01753495,19.1146084 C10.8373086,19.6167452 12.7590296,19.650221 14.5923962,19.2150358 L14.9838387,19.1146084 L15.5295972,18.9640153 L15.9494804,18.8408522 L16.2819719,18.7271535 C16.5022073,18.644506 16.66482,18.5654529 16.8044407,18.4803164 L16.9053863,18.4151722 L17.0410743,18.3163531 C17.3003817,18.1161638 17.5043489,17.8769839 17.6540742,17.5974075 L17.7374091,17.4248028 L17.7985176,17.271654 L17.8255102,17.1925247 L17.8723926,17.0232084 C17.8987398,16.9112914 17.9195543,16.786089 17.9348725,16.6371463 L17.9483599,16.4799029 L17.9623385,16.1895945 L17.9669906,15.8433053 L17.9669906,14.1379285 L17.9623385,13.7916393 L17.9483599,13.5013309 C17.9367019,13.3353997 17.9195597,13.1966937 17.8968969,13.0747581 L17.8723926,12.9580255 L17.8255102,12.7887092 L17.7985176,12.7095798 L17.7374091,12.556431 C17.5837222,12.2014815 17.3522431,11.9051079 17.0410743,11.6648808 C16.8375358,11.5077459 16.6287394,11.3825912 16.263248,11.2470967 C14.842548,10.7369581 13.421831,10.4818888 12.001097,10.4818888 Z M12.0014059,12.5 C12.8298331,12.5 13.5014059,13.1715729 13.5014059,14 C13.5014059,14.5044347 13.2524088,14.9507129 12.8706187,15.2226306 L12.7522141,15.2988589 L12.7514059,16.7500002 L12.7463601,16.8374662 C12.7030363,17.2104702 12.3860328,17.5 12.0014059,17.5 C11.6217102,17.5 11.307915,17.2178463 11.2582526,16.8517708 L11.2514059,16.7500002 L11.2513516,15.2992953 C10.8030305,15.0399305 10.5014059,14.5551893 10.5014059,14 C10.5014059,13.1715729 11.1729788,12.5 12.0014059,12.5 Z M11.9879241,4.5 L11.8011471,4.5073706 C10.4154859,4.59858029 9.26356672,5.63534135 9.04328701,6.94504354 L9.01989564,7.11736685 L9.00579025,7.29634006 L9.00064834,7.49998816 L9,9.19404499 L9.44847787,9.12081366 C10.9711877,8.89326117 12.5168851,8.87056196 14.0441785,9.0527148 L14.5525379,9.12101952 L15,9.19519507 L14.9989622,7.49998816 C14.9989622,6.03660973 13.9475269,4.80918 12.568512,4.55171954 L12.3944814,4.524642 L12.201814,4.50704171 L11.9879241,4.5 Z" id="Shape"></path>
        </g>
    </g>
</svg>