<?xml version="1.0" encoding="UTF-8"?>
<svg width="24px" height="24px" viewBox="0 0 24 24" version="1.1" xmlns="http://www.w3.org/2000/svg" xmlns:xlink="http://www.w3.org/1999/xlink">
    <title>Icon/Camera/Filled</title>
    <g id="Icon/Camera/Filled" stroke="none" stroke-width="1" fill="none" fill-rule="evenodd">
        <path d="M13,4.2 C14.5986771,4.2 15.9783056,5.13785843 16.6187078,6.49339758 C16.9240663,6.52880294 17.2343147,6.56875897 17.5479876,6.6121396 C19.5265453,6.88577959 21,8.57703588 21,10.5744265 L21,15.4295772 C21,17.4269702 19.5265401,19.1182295 17.5479789,19.391862 C15.5612731,19.6666209 13.7119468,19.8039996 12,19.8039996 C10.2880507,19.8039996 8.4387215,19.6666205 6.45201245,19.3918608 C4.47345474,19.1182208 3,17.4269642 3,15.4295736 L3,10.5744222 C3,8.57702916 4.47345995,6.88577094 6.45202108,6.6121384 C6.76569347,6.5687579 7.07594127,6.52880198 7.38276449,6.49227064 C8.02169444,5.13785843 9.40132293,4.2 11,4.2 L13,4.2 Z M12,9 C9.790861,9 8,10.790861 8,13 C8,15.209139 9.790861,17 12,17 C14.209139,17 16,15.209139 16,13 C16,10.790861 14.209139,9 12,9 Z M18,9.2 C17.4477153,9.2 17,9.64771525 17,10.2 C17,10.7522847 17.4477153,11.2 18,11.2 C18.5522847,11.2 19,10.7522847 19,10.2 C19,9.64771525 18.5522847,9.2 18,9.2 Z" id="Shape" fill="#FFFFFF"></path>
    </g>
</svg>