<?xml version="1.0" encoding="UTF-8"?>
<svg width="24px" height="24px" viewBox="0 0 24 24" version="1.1" xmlns="http://www.w3.org/2000/svg" xmlns:xlink="http://www.w3.org/1999/xlink">
    <title>Icon/Camera/Outline</title>
    <g id="Icon/Camera/Outline" stroke="none" stroke-width="1" fill="none" fill-rule="evenodd">
        <path d="M12.8333333,4 C14.3359873,4 15.7139136,4.69240972 16.6144001,5.82262133 L16.76,6.015 L16.8288211,6.0242595 C19.0723466,6.33454526 20.7783958,8.15330131 20.9800163,10.3706462 L20.9951278,10.5936683 L21,10.8120221 L21,14.857981 C21,17.2714981 19.2195702,19.3151033 16.828808,19.6457426 C15.1075973,19.8837839 13.4982891,20.003333 12,20.003333 C10.5017088,20.003333 8.89239806,19.8837836 7.17117893,19.6457408 C4.85286929,19.3251122 3.10846482,17.3937723 3.00487218,15.0763318 L3,14.857978 L3,10.8120185 C3,8.47163839 4.67415987,6.47909162 6.95556388,6.05899736 L7.239,6.015 C8.04325854,4.89648714 9.29504762,4.15988774 10.6929165,4.02308705 L10.9410542,4.00521639 L11.1666667,4 L12.8333333,4 Z M12.8333333,5.5 L11.1666667,5.5 C9.83443577,5.5 8.68474537,6.28154869 8.15230374,7.41022553 C7.89661772,7.44066832 7.63807789,7.47396492 7.37668423,7.51011533 C5.78894999,7.729697 4.59153171,9.04474616 4.50501202,10.6281716 L4.5,10.8120185 L4.5,14.857978 C4.5,16.5224702 5.72787895,17.9318507 7.37667704,18.159884 C9.03226792,18.3888504 10.5733756,18.503333 12,18.503333 C13.4266223,18.503333 14.9677276,18.3888507 16.6233157,18.159885 C18.21105,17.9403034 19.4084683,16.6252534 19.494988,15.0418279 L19.5,14.857981 L19.5,10.8120221 C19.5,9.1475299 18.2721211,7.73814966 16.623323,7.51011633 C16.3619289,7.47396581 16.1033886,7.44066912 15.8489232,7.41116465 C15.3433425,6.34100216 14.2848779,5.58323246 13.0421054,5.50643167 L12.8333333,5.5 Z M12,9.5 C13.8409492,9.5 15.3333333,10.9923842 15.3333333,12.8333333 C15.3333333,14.6742825 13.8409492,16.1666667 12,16.1666667 C10.1590508,16.1666667 8.66666667,14.6742825 8.66666667,12.8333333 C8.66666667,10.9923842 10.1590508,9.5 12,9.5 Z M12,11 C10.987478,11 10.1666667,11.8208113 10.1666667,12.8333333 C10.1666667,13.8458554 10.987478,14.6666667 12,14.6666667 C13.012522,14.6666667 13.8333333,13.8458554 13.8333333,12.8333333 C13.8333333,11.8208113 13.012522,11 12,11 Z M17,9.66666667 C17.4602372,9.66666667 17.8333333,10.0397627 17.8333333,10.5 C17.8333333,10.9602373 17.4602372,11.3333333 17,11.3333333 C16.5397627,11.3333333 16.1666667,10.9602373 16.1666667,10.5 C16.1666667,10.0397627 16.5397627,9.66666667 17,9.66666667 Z" id="Shape" fill="#FFFFFF"></path>
    </g>
</svg>