<svg width="24" height="24" viewBox="0 0 24 24" fill="none" xmlns="http://www.w3.org/2000/svg">
  <g id="Filled=yes">
    <path id="Subtract" fill-rule="evenodd" clip-rule="evenodd" d="M9.36396 19.9081C10.8198 21.364 13.1802 21.364 14.636 19.9081L19.9081 14.636C21.364 13.1802 21.364 10.8198 19.9081 9.36396L14.636 4.09188C13.1802 2.63604 10.8198 2.63604 9.36396 4.09188L4.09188 9.36396C2.63604 10.8198 2.63604 13.1802 4.09188 14.636L9.36396 19.9081ZM17.6056 11.0206C17.0705 10.4845 16.2028 10.4843 15.6678 11.0204L10.062 16.6499L11.3536 14.0609L9.30086 12.0028L12.0026 9.29429L14.0553 11.3524L15.9933 9.41039L12.9718 6.38148C12.4368 5.84532 11.5691 5.84555 11.0341 6.3817L6.39457 11.032C5.85954 11.5682 5.85954 12.4374 6.39457 12.9736L10.062 16.6499L11.031 17.6209C11.566 18.157 12.4337 18.1572 12.9688 17.6211L18.5745 11.9916L17.6056 11.0206Z" fill="currentColor"/>
  </g>
</svg>
