<svg width="24" height="24" viewBox="0 0 24 24" fill="none" xmlns="http://www.w3.org/2000/svg">
  <g id="Filled=no">
    <g id="Union">
      <path d="M17.1085 11.1076C16.6209 10.619 15.8302 10.6188 15.3426 11.1074L10.234 16.2376L11.411 13.8783L9.54038 12.0027L12.0025 9.5344L13.8731 11.41L15.6392 9.6402L12.8857 6.87994C12.3982 6.39134 11.6074 6.39155 11.1199 6.88014L6.89187 11.118C6.40429 11.6066 6.40429 12.3988 6.89186 12.8874L10.234 16.2376L11.1171 17.1225C11.6047 17.6111 12.3954 17.6113 12.883 17.1227L17.9915 11.9925L17.1085 11.1076Z" fill="currentColor"/>
      <path fill-rule="evenodd" clip-rule="evenodd" d="M14.636 19.9081C13.1802 21.364 10.8198 21.364 9.36396 19.9081L4.09188 14.636C2.63604 13.1802 2.63604 10.8198 4.09188 9.36396L9.36396 4.09188C10.8198 2.63604 13.1802 2.63604 14.636 4.09188L19.9081 9.36396C21.364 10.8198 21.364 13.1802 19.9081 14.636L14.636 19.9081ZM10.4246 18.8475L5.15254 13.5754C4.28248 12.7053 4.28248 11.2947 5.15254 10.4246L10.4246 5.15254C11.2947 4.28249 12.7053 4.28249 13.5754 5.15254L18.8475 10.4246C19.7175 11.2947 19.7175 12.7053 18.8475 13.5754L13.5754 18.8475C12.7053 19.7175 11.2947 19.7175 10.4246 18.8475Z" fill="currentColor"/>
    </g>
  </g>
</svg>
