<?xml version="1.0" encoding="UTF-8"?>
<svg width="24px" height="24px" viewBox="0 0 24 24" version="1.1" xmlns="http://www.w3.org/2000/svg" xmlns:xlink="http://www.w3.org/1999/xlink">
    <title>Icon/Calendar/Filled</title>
    <g id="Icon/Calendar/Filled" stroke="none" stroke-width="1" fill="none" fill-rule="evenodd">
        <path d="M12,15.5 C12.9664983,15.5 13.75,16.2835017 13.75,17.25 C13.75,18.2164983 12.9664983,19 12,19 C11.0335017,19 10.25,18.2164983 10.25,17.25 C10.25,16.2835017 11.0335017,15.5 12,15.5 Z M6,15.5 C6.96649831,15.5 7.75,16.2835017 7.75,17.25 C7.75,18.2164983 6.96649831,19 6,19 C5.03350169,19 4.25,18.2164983 4.25,17.25 C4.25,16.2835017 5.03350169,15.5 6,15.5 Z M18,9.5 C18.9664983,9.5 19.75,10.2835017 19.75,11.25 C19.75,12.2164983 18.9664983,13 18,13 C17.0335017,13 16.25,12.2164983 16.25,11.25 C16.25,10.2835017 17.0335017,9.5 18,9.5 Z M12,9.5 C12.9664983,9.5 13.75,10.2835017 13.75,11.25 C13.75,12.2164983 12.9664983,13 12,13 C11.0335017,13 10.25,12.2164983 10.25,11.25 C10.25,10.2835017 11.0335017,9.5 12,9.5 Z M6,9.5 C6.96649831,9.5 7.75,10.2835017 7.75,11.25 C7.75,12.2164983 6.96649831,13 6,13 C5.03350169,13 4.25,12.2164983 4.25,11.25 C4.25,10.2835017 5.03350169,9.5 6,9.5 Z M18.75,5 C19.3022847,5 19.75,5.44771525 19.75,6 C19.75,6.51283584 19.3639598,6.93550716 18.8666211,6.99327227 L18.75,7 L5.25,7 C4.69771525,7 4.25,6.55228475 4.25,6 C4.25,5.48716416 4.63604019,5.06449284 5.13337887,5.00672773 L5.25,5 L18.75,5 Z" id="Combined-Shape" fill="#FFFFFF"></path>
    </g>
</svg>