<svg width="24" height="24" viewBox="0 0 24 24" fill="none" xmlns="http://www.w3.org/2000/svg">
<title>Icon/Calendar/Filled</title>
<path fill-rule="evenodd" clip-rule="evenodd" d="M16.5 3.75C16.5 3.33579 16.1642 3 15.75 3C15.3358 3 15 3.33579 15 3.75V4.5L9 4.50098V3.75C9 3.33579 8.66421 3 8.25 3C7.83579 3 7.5 3.33579 7.5 3.75V4.51074C6.18008 4.55159 5.6148 4.72993 5.0459 5.03418C4.39428 5.38274 3.88274 5.89428 3.53418 6.5459C3.18557 7.19775 3 7.84489 3 9.62793L3.00195 16.1445C3.02041 17.7234 3.20392 18.3366 3.53418 18.9541C3.88274 19.6057 4.39428 20.1173 5.0459 20.4658C5.69775 20.8144 6.34489 21 8.12793 21H15.8721C17.6551 21 18.3022 20.8144 18.9541 20.4658C19.6057 20.1173 20.1173 19.6057 20.4658 18.9541C20.8144 18.3022 21 17.6551 21 15.8721V9.62793C21 7.84489 20.8144 7.19775 20.4658 6.5459C20.1173 5.89428 19.6057 5.38274 18.9541 5.03418C18.3852 4.72993 17.8199 4.54969 16.5 4.50879V3.75ZM17 16C17 15.4477 16.5523 15 16 15C15.4477 15 15 15.4477 15 16C15 16.5523 15.4477 17 16 17C16.5523 17 17 16.5523 17 16ZM16 11C16.5523 11 17 11.4477 17 12C17 12.5523 16.5523 13 16 13C15.4477 13 15 12.5523 15 12C15 11.4477 15.4477 11 16 11ZM13 12C13 11.4477 12.5523 11 12 11C11.4477 11 11 11.4477 11 12C11 12.5523 11.4477 13 12 13C12.5523 13 13 12.5523 13 12ZM12 15C12.5523 15 13 15.4477 13 16C13 16.5523 12.5523 17 12 17C11.4477 17 11 16.5523 11 16C11 15.4477 11.4477 15 12 15ZM9 16C9 15.4477 8.55228 15 8 15C7.44772 15 7 15.4477 7 16C7 16.5523 7.44772 17 8 17C8.55228 17 9 16.5523 9 16ZM8 11C8.55228 11 9 11.4477 9 12C9 12.5523 8.55228 13 8 13C7.44772 13 7 12.5523 7 12C7 11.4477 7.44772 11 8 11Z" fill="#FFFFFF"/>
</svg>
