<svg width="24" height="24" viewBox="0 0 24 24" fill="none" xmlns="http://www.w3.org/2000/svg">
<title>Icon/Calendar/Outline</title>
<path d="M8 15C8.55228 15 9 15.4477 9 16C9 16.5523 8.55228 17 8 17C7.44772 17 7 16.5523 7 16C7 15.4477 7.44772 15 8 15Z" fill="#FFFFFF"/>
<path d="M12 15C12.5523 15 13 15.4477 13 16C13 16.5523 12.5523 17 12 17C11.4477 17 11 16.5523 11 16C11 15.4477 11.4477 15 12 15Z" fill="#FFFFFF"/>
<path d="M16 15C16.5523 15 17 15.4477 17 16C17 16.5523 16.5523 17 16 17C15.4477 17 15 16.5523 15 16C15 15.4477 15.4477 15 16 15Z" fill="#FFFFFF"/>
<path d="M8 11C8.55228 11 9 11.4477 9 12C9 12.5523 8.55228 13 8 13C7.44772 13 7 12.5523 7 12C7 11.4477 7.44772 11 8 11Z" fill="#FFFFFF"/>
<path d="M12 11C12.5523 11 13 11.4477 13 12C13 12.5523 12.5523 13 12 13C11.4477 13 11 12.5523 11 12C11 11.4477 11.4477 11 12 11Z" fill="#FFFFFF"/>
<path d="M16 11C16.5523 11 17 11.4477 17 12C17 12.5523 16.5523 13 16 13C15.4477 13 15 12.5523 15 12C15 11.4477 15.4477 11 16 11Z" fill="#FFFFFF"/>
<path fill-rule="evenodd" clip-rule="evenodd" d="M15.75 3C16.1642 3 16.5 3.33579 16.5 3.75V4.50879C17.8199 4.54969 18.3852 4.72993 18.9541 5.03418C19.6057 5.38274 20.1173 5.89428 20.4658 6.5459C20.8144 7.19775 21 7.84489 21 9.62793V15.8721C21 17.6551 20.8144 18.3022 20.4658 18.9541C20.1173 19.6057 19.6057 20.1173 18.9541 20.4658C18.3022 20.8144 17.6551 21 15.8721 21H8.12793C6.34489 21 5.69775 20.8144 5.0459 20.4658C4.39428 20.1173 3.88274 19.6057 3.53418 18.9541C3.20392 18.3366 3.02041 17.7234 3.00195 16.1445L3 9.62793C3 7.84489 3.18557 7.19775 3.53418 6.5459C3.88274 5.89428 4.39428 5.38274 5.0459 5.03418C5.6148 4.72993 6.18008 4.55159 7.5 4.51074V3.75C7.5 3.33579 7.83579 3 8.25 3C8.66421 3 9 3.33579 9 3.75V4.50098L15 4.5V3.75C15 3.33579 15.3358 3 15.75 3ZM9 6.00098V6.75C9 7.16421 8.66421 7.5 8.25 7.5C7.83579 7.5 7.5 7.16421 7.5 6.75V6.01074C6.36952 6.04953 6.0543 6.19677 5.75391 6.35742C5.36348 6.56623 5.06623 6.86348 4.85742 7.25391C4.67262 7.59945 4.5 7.96642 4.5 9.62793L4.50195 16.1445C4.51988 17.5688 4.68107 17.9163 4.85742 18.2461C5.06623 18.6365 5.36348 18.9338 5.75391 19.1426C6.09945 19.3274 6.46643 19.5 8.12793 19.5H15.8721C17.5336 19.5 17.9005 19.3274 18.2461 19.1426C18.6365 18.9338 18.9338 18.6365 19.1426 18.2461C19.3274 17.9005 19.5 17.5336 19.5 15.8721V9.62793C19.5 7.96643 19.3274 7.59945 19.1426 7.25391C18.9338 6.86348 18.6365 6.56623 18.2461 6.35742C17.9491 6.19861 17.6365 6.04869 16.5 6.00977V6.75C16.5 7.16421 16.1642 7.5 15.75 7.5C15.3358 7.5 15 7.16421 15 6.75V6L9 6.00098Z" fill="#FFFFFF"/>
</svg>
