<?xml version="1.0" encoding="UTF-8"?>
<svg width="24px" height="24px" viewBox="0 0 24 24" version="1.1" xmlns="http://www.w3.org/2000/svg" xmlns:xlink="http://www.w3.org/1999/xlink">
    <title>Icon/Calendar/Outline</title>
    <g id="Icon/Calendar/Outline" stroke="none" stroke-width="1" fill="none" fill-rule="evenodd">
        <path d="M12,15.5 C12.8284271,15.5 13.5,16.1715729 13.5,17 C13.5,17.8284271 12.8284271,18.5 12,18.5 C11.1715729,18.5 10.5,17.8284271 10.5,17 C10.5,16.1715729 11.1715729,15.5 12,15.5 Z M6,15.5 C6.82842712,15.5 7.5,16.1715729 7.5,17 C7.5,17.8284271 6.82842712,18.5 6,18.5 C5.17157288,18.5 4.5,17.8284271 4.5,17 C4.5,16.1715729 5.17157288,15.5 6,15.5 Z M18,9.5 C18.8284271,9.5 19.5,10.1715729 19.5,11 C19.5,11.8284271 18.8284271,12.5 18,12.5 C17.1715729,12.5 16.5,11.8284271 16.5,11 C16.5,10.1715729 17.1715729,9.5 18,9.5 Z M12,9.5 C12.8284271,9.5 13.5,10.1715729 13.5,11 C13.5,11.8284271 12.8284271,12.5 12,12.5 C11.1715729,12.5 10.5,11.8284271 10.5,11 C10.5,10.1715729 11.1715729,9.5 12,9.5 Z M6,9.5 C6.82842712,9.5 7.5,10.1715729 7.5,11 C7.5,11.8284271 6.82842712,12.5 6,12.5 C5.17157288,12.5 4.5,11.8284271 4.5,11 C4.5,10.1715729 5.17157288,9.5 6,9.5 Z M18.75,5.5 C19.1642136,5.5 19.5,5.83578644 19.5,6.25 C19.5,6.66421356 19.1642136,7 18.75,7 L5.25,7 C4.83578644,7 4.5,6.66421356 4.5,6.25 C4.5,5.83578644 4.83578644,5.5 5.25,5.5 L18.75,5.5 Z" id="Shape" fill="#FFFFFF"></path>
    </g>
</svg>