<?xml version="1.0" encoding="UTF-8"?>
<svg width="24px" height="24px" viewBox="0 0 24 24" version="1.1" xmlns="http://www.w3.org/2000/svg" xmlns:xlink="http://www.w3.org/1999/xlink">
  <title>Icon/Pin/Outline</title>
  <g id="💎-Icons" stroke="none" stroke-width="1" fill="none" fill-rule="evenodd">
    <g id="Icon/Pin/Outline" fill="#FFFFFF">
      <path d="M16.4014388,3.14032204 L20.8602744,7.59915767 C21.2059359,7.94481915 21.2510331,8.48971786 20.9669011,8.88750264 L20.1889411,9.97664667 C19.8712559,10.4214059 19.3853898,10.7167731 18.8443169,10.7940693 L17.2166431,11.0265941 L14.3800561,13.8631811 C14.1652486,14.0779886 14.0597318,14.3787937 14.0932791,14.6807194 L14.309245,16.6244119 C14.3636621,17.1141658 14.2353599,17.6067698 13.9489445,18.0077514 L13.3121181,18.8993082 C12.9911091,19.3487208 12.3665591,19.4528125 11.9171465,19.1318035 C11.8723253,19.0997884 11.8302259,19.0641249 11.7912779,19.0251768 L8.91328628,16.1474156 L4.64761637,20.4130438 C4.35472315,20.705937 3.87984942,20.705937 3.5869562,20.4130438 C3.29406298,20.1201506 3.29406298,19.6452768 3.5869562,19.3523836 L7.85228628,15.0864156 L4.97541964,12.2093186 C4.58489535,11.8187943 4.58489535,11.1856293 4.97541964,10.795105 C5.01436769,10.756157 5.05646709,10.7204934 5.10128823,10.6884783 L5.99284509,10.051652 C6.39382669,9.76523658 6.8864307,9.63693439 7.37618453,9.69135148 L9.3198771,9.90731732 C9.6218028,9.94086462 9.92260788,9.8353479 10.1374154,9.62054037 L12.9740024,6.78395342 L13.2065272,5.1562796 C13.2838233,4.61520665 13.5791906,4.12934053 14.0239498,3.81165537 L15.1130938,3.03369535 C15.5108786,2.74956336 16.0557773,2.79466056 16.4014388,3.14032204 Z M14.034281,7.84423205 L11.1980756,10.6812005 C10.7058083,11.1734678 10.0328865,11.4361485 9.34275222,11.4119101 L9.15422982,11.3981429 L7.21053724,11.1821771 C7.08809878,11.1685728 6.96494778,11.2006484 6.86470238,11.2722522 L6.45294725,11.5655259 L12.4343635,17.5469421 L12.7283443,17.1358941 C12.7820471,17.06071 12.8135154,16.9726416 12.8201537,16.8816526 L12.8184194,16.7900592 L12.6024535,14.8463667 C12.5185853,14.0915524 12.7823771,13.3395397 13.3193959,12.8025209 L16.1556013,9.96555239 L14.034281,7.84423205 Z M15.6397949,4.49999851 L14.8958071,5.03225557 C14.8068552,5.09579261 14.7418061,5.18623859 14.7094506,5.28913284 L14.6914514,5.36841163 L14.5660253,6.24334229 L17.7564911,9.43380809 L18.6321848,9.30914503 C18.7403994,9.2936858 18.8397809,9.2433352 18.9158706,9.16688614 L18.9683409,9.10478938 L19.4998908,8.36009443 L15.6397949,4.49999851 Z" id="Shape"></path>
    </g>
  </g>
</svg>
