<svg width="20" height="20" viewBox="0 0 20 20" fill="none" xmlns="http://www.w3.org/2000/svg">
  <title>Download PWA</title>
  <path fill-rule="evenodd" clip-rule="evenodd" d="M2.29169 5.52442C2.29169 4.59601 3.04431 3.84339 3.97272 3.84339H8.11065C9.03906 3.84339 9.79169 4.59601 9.79169 5.52442V11.3434H2.29169V5.52442ZM3.97272 5.13649C3.75847 5.13649 3.58479 5.31017 3.58479 5.52442V10.0503H8.49858V5.52442C8.49858 5.31017 8.3249 5.13649 8.11065 5.13649H3.97272Z" fill="currentColor"/>
  <path fill-rule="evenodd" clip-rule="evenodd" d="M2.29169 10.0503H9.79169V17.5503H3.97272C3.04431 17.5503 2.29169 16.7977 2.29169 15.8692V10.0503ZM3.58479 11.3434V15.8692C3.58479 16.0835 3.75847 16.2572 3.97272 16.2572H8.49858V11.3434H3.58479Z" fill="currentColor"/>
  <path fill-rule="evenodd" clip-rule="evenodd" d="M8.49858 10.0503H14.3175C15.246 10.0503 15.9986 10.8029 15.9986 11.7313V15.8692C15.9986 16.7977 15.246 17.5503 14.3175 17.5503H8.49858V10.0503ZM9.79169 11.3434V16.2572H14.3175C14.5318 16.2572 14.7055 16.0835 14.7055 15.8692V11.7313C14.7055 11.5171 14.5318 11.3434 14.3175 11.3434H9.79169Z" fill="currentColor"/>
  <path fill-rule="evenodd" clip-rule="evenodd" d="M13.9296 2.29166C14.2867 2.29166 14.5762 2.58114 14.5762 2.93822V5.00718H16.6451C17.0022 5.00718 17.2917 5.29665 17.2917 5.65373C17.2917 6.01081 17.0022 6.30028 16.6451 6.30028H14.5762V8.36925C14.5762 8.72633 14.2867 9.0158 13.9296 9.0158C13.5725 9.0158 13.2831 8.72633 13.2831 8.36925V6.30028H11.2141C10.857 6.30028 10.5675 6.01081 10.5675 5.65373C10.5675 5.29665 10.857 5.00718 11.2141 5.00718H13.2831V2.93822C13.2831 2.58114 13.5725 2.29166 13.9296 2.29166Z" fill="currentColor"/>
</svg>
