<?xml version="1.0" encoding="UTF-8"?>
<svg width="24px" height="24px" viewBox="0 0 24 24" version="1.1" xmlns="http://www.w3.org/2000/svg" xmlns:xlink="http://www.w3.org/1999/xlink">
    <title>Social/Facebook/Color</title>
    <g id="💎-Icons" stroke="none" stroke-width="1" fill="none" fill-rule="evenodd">
        <g id="Social/Facebook/Color" fill="#3B5998">
            <path d="M14.0765565,3 C11.4371953,3 9.73152405,4.73870978 9.73152405,7.42982429 L9.73152405,9.4722699 L7.36940503,9.4722699 C7.16528991,9.4722699 7,9.63668425 7,9.83948691 L7,12.7987578 C7,13.0015605 7.16547838,13.1657876 7.36940503,13.1657876 L9.73152405,13.1657876 L9.73152405,20.6329703 C9.73152405,20.8357729 9.89681396,21 10.1009291,21 L13.1828225,21 C13.3869376,21 13.5522275,20.8355857 13.5522275,20.6329703 L13.5522275,13.1657876 L16.3140956,13.1657876 C16.5182107,13.1657876 16.6835006,13.0015605 16.6835006,12.7987578 L16.6846314,9.83948691 C16.6846314,9.74211167 16.6456177,9.64885615 16.5764485,9.57994445 C16.5072793,9.51103274 16.4130434,9.4722699 16.3150379,9.4722699 L13.5522275,9.4722699 L13.5522275,7.74086327 C13.5522275,6.9086795 13.7518193,6.48622078 14.8428835,6.48622078 L16.4254825,6.485659 C16.6294092,6.485659 16.7946991,6.32124466 16.7946991,6.11862926 L16.7946991,3.37077494 C16.7946991,3.16834681 16.6295976,3.00411972 16.4258594,3.0037452 L14.0765565,3 Z" id="Shape"></path>
        </g>
    </g>
</svg>