<svg preserveAspectRatio="none" width="100%" height="100%" overflow="visible" style="display: block;" viewBox="0 0 34.56 34.56" fill="none" xmlns="http://www.w3.org/2000/svg">
<path id="frame" fill-rule="evenodd" clip-rule="evenodd" d="M13.44 0.666163C15.6251 0.666163 17.6883 1.17755 19.5122 2.08495C19.0241 2.97205 18.0931 3.55226 17.049 3.59627L15.3807 3.66516C14.7516 3.55056 14.1029 3.49065 13.44 3.49065C7.60787 3.49065 2.88 8.12739 2.88 13.8471C2.88 19.4273 7.38006 23.9767 13.0153 24.1953L13.44 24.2036L13.8647 24.1953C19.4999 23.9767 24 19.4273 24 13.8471L23.9942 13.5967L24.1522 13.1844C24.5348 12.1786 25.4498 11.4703 26.5202 11.3279L26.6329 11.3183C26.7951 12.1367 26.88 12.9822 26.88 13.8471C26.88 16.2421 26.2287 18.4879 25.0903 20.4234C26.4966 20.3058 27.9411 20.7269 29.0769 21.6853L29.3787 21.96L32.9722 25.4842C35.0893 27.5604 35.0893 30.9266 32.9722 33.0028C30.9434 34.9925 27.7066 35.0755 25.5771 33.2516L25.3058 33.0028L21.7123 29.4786C20.5377 28.3266 20.0148 26.7774 20.1437 25.2719C18.172 26.3893 15.8821 27.028 13.44 27.028C6.01729 27.028 0 21.1267 0 13.8471C0 6.56747 6.01729 0.666163 13.44 0.666163ZM23.7488 23.9572C22.8226 24.8655 22.7609 26.3005 23.5636 27.2791L23.7488 27.4814L27.3423 31.0056C27.8054 31.4598 28.4027 31.702 29.009 31.7323H29.269L29.528 31.7063C30.0433 31.6285 30.5388 31.3949 30.9358 31.0056C31.8619 30.0973 31.9237 28.6623 31.121 27.6837L30.9358 27.4814L27.3423 23.9572C26.35 22.984 24.7411 22.984 23.7488 23.9572ZM23.8462 0.80802L23.9315 2.75417C24.0155 4.67199 25.2618 6.35422 27.0956 7.02526L28.9565 7.70619C29.835 8.0277 29.6296 9.2999 28.6927 9.33943L26.7083 9.42306C26.5116 9.43136 26.3173 9.45119 26.1263 9.48199L26.0294 9.49858C25.876 9.52643 25.7249 9.56136 25.5763 9.60308L25.2943 9.69148L24.9483 9.82623L24.6253 9.98051L24.4091 10.1007L24.1379 10.2727L23.823 10.5063L23.7616 10.5567C23.1411 11.074 22.6502 11.7459 22.3533 12.5262L21.659 14.3512C21.5279 14.6959 21.2416 14.8704 20.9428 14.897L20.793 14.898L20.645 14.8751C20.305 14.7939 20.0125 14.5213 19.9937 14.0926L19.9084 12.1464C19.8243 10.2286 18.5781 8.54636 16.7443 7.87532L14.8833 7.19439C14.0048 6.87288 14.2103 5.60069 15.1471 5.56116L17.1315 5.47753C17.7067 5.45328 18.261 5.33044 18.7745 5.12334L18.9828 5.03026C19.3186 4.87773 19.6349 4.68787 19.9256 4.46518L20.2075 4.2317L20.4366 4.01288L20.6998 3.72135L20.7864 3.61405L20.9348 3.41403L21.0415 3.25539L20.9827 3.34448C21.1851 3.04513 21.3549 2.72043 21.4865 2.3744L22.1809 0.549341C22.5087 -0.312229 23.8059 -0.110733 23.8462 0.80802Z" fill="var(--fill-0, white)"/>
</svg>
