<svg width="24" height="24" viewBox="0 0 24 24" fill="none" xmlns="http://www.w3.org/2000/svg">
  <path d="M12.8594 3.25C14.8638 3.25004 16.1076 3.51046 17.2842 4.13965C18.3927 4.73247 19.2675 5.60734 19.8604 6.71582C20.4895 7.89239 20.75 9.13618 20.75 11.1406V12.8594C20.75 14.8638 20.4895 16.1076 19.8604 17.2842C19.2675 18.3927 18.3927 19.2675 17.2842 19.8604C16.1076 20.4895 14.8638 20.75 12.8594 20.75H11.1406C9.13618 20.75 7.89239 20.4895 6.71582 19.8604C5.60734 19.2675 4.73247 18.3927 4.13965 17.2842C3.51046 16.1076 3.25004 14.8638 3.25 12.8594V10.874C3.25 9.13444 3.52867 7.85835 4.13965 6.71582C4.73247 5.60734 5.60734 4.73247 6.71582 4.13965C7.85835 3.52867 9.13444 3.25 10.874 3.25H12.8594ZM12 6.75C11.3098 6.75011 10.75 7.30961 10.75 8V10.7451H8.00488C7.31472 10.7452 6.75488 11.3047 6.75488 11.9951L6.76172 12.123C6.82587 12.7532 7.35786 13.245 8.00488 13.2451H10.75V16C10.75 16.6904 11.3098 17.2499 12 17.25L12.1279 17.2432C12.7581 17.179 13.25 16.6472 13.25 16V13.2451H16.0049L16.1328 13.2383C16.721 13.1785 17.1882 12.7111 17.248 12.123L17.2549 11.9951C17.2549 11.3048 16.6952 10.7451 16.0049 10.7451H13.25V8C13.25 7.3528 12.7581 6.82097 12.1279 6.75684L12 6.75Z" fill="currentColor"/>
</svg>
