<svg width="24" height="24" viewBox="0 0 24 24" fill="none" xmlns="http://www.w3.org/2000/svg">
  <path d="M12 7.25C12.4142 7.25006 12.75 7.58583 12.75 8V11.2451H16.0049C16.4191 11.2451 16.7549 11.5809 16.7549 11.9951C16.7548 12.4093 16.4191 12.7451 16.0049 12.7451H12.75V16C12.75 16.4142 12.4142 16.7499 12 16.75C11.5858 16.7499 11.25 16.4142 11.25 16V12.7451H8.00488C7.59076 12.7451 7.25495 12.4092 7.25488 11.9951C7.25488 11.5809 7.59073 11.2452 8.00488 11.2451H11.25V8C11.25 7.58583 11.5858 7.25007 12 7.25Z" fill="currentColor"/>
  <path fill-rule="evenodd" clip-rule="evenodd" d="M12.8594 3.25C14.8638 3.25004 16.1076 3.51046 17.2842 4.13965C18.3927 4.73247 19.2675 5.60734 19.8604 6.71582C20.4895 7.89239 20.75 9.13618 20.75 11.1406V12.8594C20.75 14.8638 20.4895 16.1076 19.8604 17.2842C19.2675 18.3927 18.3927 19.2675 17.2842 19.8604C16.1076 20.4895 14.8638 20.75 12.8594 20.75H11.1406C9.13618 20.75 7.89239 20.4895 6.71582 19.8604C5.60734 19.2675 4.73247 18.3927 4.13965 17.2842C3.51046 16.1076 3.25004 14.8638 3.25 12.8594V10.874C3.25 9.13444 3.52867 7.85835 4.13965 6.71582C4.73247 5.60734 5.60734 4.73247 6.71582 4.13965C7.85835 3.52867 9.13444 3.25 10.874 3.25H12.8594ZM10.874 4.75C9.36768 4.75 8.33258 4.97636 7.42285 5.46289C6.57602 5.91585 5.91585 6.57602 5.46289 7.42285C4.97636 8.33258 4.75 9.36768 4.75 10.874V12.8594C4.75004 14.6335 4.96074 15.6382 5.46289 16.5771C5.91585 17.424 6.57602 18.0841 7.42285 18.5371C8.3618 19.0393 9.3665 19.25 11.1406 19.25H12.8594C14.6335 19.25 15.6382 19.0393 16.5771 18.5371C17.424 18.0841 18.0841 17.424 18.5371 16.5771C19.0393 15.6382 19.25 14.6335 19.25 12.8594V11.1406C19.25 9.3665 19.0393 8.3618 18.5371 7.42285C18.0841 6.57602 17.424 5.91585 16.5771 5.46289C15.6382 4.96074 14.6335 4.75004 12.8594 4.75H10.874Z" fill="currentColor"/>
</svg>
