<?xml version="1.0" encoding="UTF-8"?>
<svg width="24px" height="24px" viewBox="0 0 24 24" version="1.1" xmlns="http://www.w3.org/2000/svg" xmlns:xlink="http://www.w3.org/1999/xlink">
    <title>Social/Google/Color</title>
    <g id="💎-Icons" stroke="none" stroke-width="1" fill="none" fill-rule="evenodd">
        <g id="Google__G__Logo" transform="translate(2.000000, 1.500000)">
            <path d="M1.04769211,14.7665391 C0.376462282,13.4018701 0,11.8633116 0,10.2325581 C0,8.60180472 0.376462282,7.06324614 1.04769211,5.69857714 L4.48923811,8.33034761 C4.29245442,8.92804505 4.18604651,9.56745926 4.18604651,10.2325581 C4.18604651,10.897657 4.29245442,11.5370712 4.48923811,12.1347687 L1.04769211,14.7665391 Z" id="Combined-Shape" fill="#FBBC05"></path>
            <path d="M1.04769211,5.69857714 C2.71209378,2.31470288 6.18889295,0 10.2325581,0 C12.8372093,0 15.1627907,0.976744186 16.9767442,2.55813953 L14,5.53488372 C12.9767442,4.69767442 11.6744186,4.18604651 10.2325581,4.18604651 C7.54881981,4.18604651 5.28327937,5.91858064 4.48923811,8.33034761 L1.04769211,5.69857714 L1.04769211,5.69857714 Z" id="Combined-Shape" fill="#EA4335"></path>
            <path d="M1.04630728,14.7637226 L4.48645022,12.1262796 C5.27796548,14.5424691 7.54567208,16.2790698 10.2325581,16.2790698 C13.0697674,16.2790698 15.2093023,14.8372093 15.7209302,12.3255814 L10.2325581,12.3255814 L10.2325581,8.37209302 L19.7674419,8.37209302 C19.9069767,8.97674419 20,9.62790698 20,10.2325581 C20,16.744186 15.3488372,20.4651163 10.2325581,20.4651163 C6.18777113,20.4651163 2.71016471,18.1491289 1.04630728,14.7637226 Z" id="Combined-Shape" fill="#34A853"></path>
            <path d="M16.902071,17.9166821 L13.6348402,15.3872131 C14.7031199,14.7130215 15.4463921,13.6733141 15.7209302,12.3255814 L10.2325581,12.3255814 L10.2325581,8.37209302 L19.7674419,8.37209302 C19.9069767,8.97674419 20,9.62790698 20,10.2325581 C20,13.5676647 18.7798821,16.1707004 16.902071,17.9166821 L16.902071,17.9166821 Z" id="Combined-Shape" fill="#4285F4"></path>
        </g>
    </g>
</svg>