<?xml version="1.0" encoding="UTF-8"?>
<svg width="15.6px" height="16.5px" viewBox="0 0 15.6 16.5" version="1.1" xmlns="http://www.w3.org/2000/svg" xmlns:xlink="http://www.w3.org/1999/xlink">
  <title>Icon/Hot/Filled</title>
  <g id="Closed-beta---v5" stroke="none" stroke-width="1" fill="none" fill-rule="evenodd">
    <g id="1.1-Notification-Enable---Article-Modal" transform="translate(-251.200000, -261.500000)" fill="#FFFFFF">
      <g id="Modal" transform="translate(235.000000, 245.000000)">
        <g id="Top-bar" transform="translate(1.000000, 0.000000)">
          <g id="Icon/Hot/Filled" transform="translate(15.200000, 16.500000)">
            <path d="M6.8,2.5 C6.8,4.709139 8.590861,6.5 10.8,6.5 C11.7874182,6.5 12.691272,6.14221837 13.3889946,5.54922191 C13.5384207,6.02780002 13.6266523,6.53436428 13.645965,7.05853845 L13.65,7.27792598 L13.65,10.6480493 L13.6576864,10.7711076 C13.7134851,11.2144665 14.066798,11.565168 14.5112944,11.6168127 L14.7473019,11.6309736 C15.2280519,11.6911576 15.6,12.1014776 15.6,12.5986996 C15.6,13.0959216 15.2280519,13.5062415 14.7473019,13.5664255 L14.625,13.5740247 L10.725,13.5740247 L10.7182286,13.7747003 C10.6194496,15.2335236 9.45176455,16.3990174 7.99231955,16.4937762 L7.8,16.5 L7.60682904,16.4937208 C6.13820645,16.3979396 4.96522376,15.2178991 4.87996538,13.745948 L4.875,13.5740247 L0.975,13.5740247 L0.852698072,13.5664255 C0.371948054,13.5062415 0,13.0959216 0,12.5986996 C0,12.0985179 0.376389185,11.6862759 0.861294403,11.6299362 L1.09730193,11.6157753 C1.57805195,11.5555913 1.95,11.1452714 1.95,10.6480493 L1.95,7.27792598 L1.95620409,7.00599606 C2.07159369,4.48245194 3.78479422,2.37580447 6.1077704,1.67554605 L6.28504696,1.6241039 C6.49522712,1.56789039 6.71007069,1.52309274 6.92887313,1.49041573 C6.84459823,1.8131787 6.8,2.15138111 6.8,2.5 Z" id="Shape"></path>
            <path d="M10.8,0 C9.41928813,0 8.3,1.11928813 8.3,2.5 C8.3,3.88071187 9.41928813,5 10.8,5 C12.1807119,5 13.3,3.88071187 13.3,2.5 C13.3,1.11928813 12.1807119,0 10.8,0 Z" id="Path" fill-rule="nonzero"></path>
          </g>
        </g>
      </g>
    </g>
  </g>
</svg>
