<?xml version="1.0" encoding="UTF-8"?>
<svg width="24px" height="24px" viewBox="0 0 24 24" version="1.1" xmlns="http://www.w3.org/2000/svg" xmlns:xlink="http://www.w3.org/1999/xlink">
  <title>Icon/Bell Notify/Outline</title>
  <g id="💎-Icons" stroke="none" stroke-width="1" fill="none" fill-rule="evenodd">
    <g id="Icon/Bell-Notify/Outline" fill="#FFFFFF">
      <path d="M11.3003584,5.47558136 L11.2961887,5.48665484 C11.1370715,5.87567939 11.037463,6.29535491 11.0086801,6.73436461 L11.000197,7.04011977 L10.7375391,7.10255211 L10.5898087,7.14540628 L10.384382,7.21235413 C8.62151971,7.83077201 7.32215903,9.43401225 7.14553027,11.3620924 L7.13017008,11.5859673 L7.125,11.8125 L7.125,14.62 L7.11747988,14.7310077 C7.07285341,15.0576575 6.83408038,15.3224999 6.52126691,15.4054288 L6.41441827,15.4261695 L6.21774534,15.4379663 L6.11873656,15.4557474 C5.76355956,15.5426459 5.5,15.8630441 5.5,16.245 C5.5,16.6215578 5.75616257,16.9382856 6.10373309,17.0304288 L6.21058173,17.0511695 L6.3125,17.0575 L9.5625,17.0575 L9.56663781,17.2007216 L9.58188269,17.3663638 C9.72014471,18.4597694 10.5827321,19.3274057 11.6737243,19.4733518 L11.8390242,19.4897691 L12,19.495 L12.1602663,19.4898153 L12.3245445,19.4735828 C13.4061637,19.3296793 14.2636429,18.476489 14.4140543,17.3969398 L14.4318571,17.2246739 L14.4375,17.0575 L17.6875,17.0575 L17.7894183,17.0511695 L17.8962669,17.0304288 C18.2438374,16.9382856 18.5,16.6215578 18.5,16.245 C18.5,15.8684422 18.2438374,15.5517144 17.8962669,15.4595712 L17.7894183,15.4388305 L17.5927453,15.4270337 L17.4840728,15.4068248 C17.2012751,15.3339211 16.9781131,15.1125778 16.9026209,14.8308295 L16.8814054,14.7225144 L16.875,14.62 L16.875,11.8125 L16.8716375,11.629738 L16.8581103,11.4037918 C16.8355345,11.1318084 16.7906307,10.8661631 16.725237,10.6086938 L16.8548859,10.544844 C17.2429822,10.3413498 17.5935427,10.0759903 17.8934669,9.76186594 L17.9945828,9.6513376 C18.178956,10.1626574 18.3003167,10.7034554 18.3501414,11.2637261 L18.3713837,11.6021452 L18.375,11.8125 L18.373,14.037 L18.4506562,14.0615798 C19.2552457,14.3424064 19.849669,15.0518014 19.9753273,15.9064926 L19.9941321,16.0792842 L20,16.245 C20,17.3613236 19.2054985,18.3057887 18.0499042,18.5223575 L17.8824097,18.5482842 L17.6875,18.5575 L15.639,18.557 L15.5945871,18.6651923 C15.0666397,19.8402282 13.9747616,20.7098008 12.640207,20.9383926 L12.4155893,20.9704987 L12.2087671,20.9890309 L11.9512834,20.9942087 L11.7414364,20.9865913 C10.2957341,20.8923363 9.06462031,20.0201501 8.46004519,18.7679575 L8.366,18.556 L6.21950855,18.5546148 L6.02431567,18.5395595 C4.8719699,18.3953481 4,17.4144819 4,16.245 C4,15.3421308 4.51957588,14.5522546 5.32344479,14.1690471 L5.48793943,14.0979149 L5.625,14.049 L5.6253905,11.778275 L5.63173676,11.5174282 C5.75193344,8.88963067 7.47406317,6.62917272 9.93179837,5.78230201 L10.171911,5.70479476 L10.3501007,5.65345187 C10.6610938,5.57030327 10.9785594,5.51080235 11.3003584,5.47558136 Z" id="Path"></path>
      <path d="M15,3 C12.790861,3 11,4.790861 11,7 C11,9.209139 12.790861,11 15,11 C17.209139,11 19,9.209139 19,7 C19,4.790861 17.209139,3 15,3 Z" id="Path"></path>
    </g>
  </g>
</svg>
