<?xml version="1.0" encoding="UTF-8"?>
<svg width="24px" height="24px" viewBox="0 0 24 24" version="1.1" xmlns="http://www.w3.org/2000/svg" xmlns:xlink="http://www.w3.org/1999/xlink">
    <title>Icon/Sort/Filled</title>
    <g id="💎-Icons" stroke="none" stroke-width="1" fill="none" fill-rule="evenodd">
        <g id="Icon/Sort/Filled" fill="#FFFFFF">
            <path d="M7.7523519,5.75055114 C8.26518774,5.75055114 8.68785906,6.13659133 8.74562417,6.63393001 L8.7523519,6.75055114 L8.7523519,14.8315511 L10.0452451,13.5405848 C10.4057291,13.1801008 10.9729601,13.1523713 11.3652513,13.4573962 L11.4594587,13.5405848 C11.8199426,13.9010688 11.8476722,14.4682998 11.5426473,14.860591 L11.4594587,14.9547984 L8.45945869,17.9547984 C8.43099237,17.9832647 8.40081782,18.0100227 8.36910199,18.0349056 L8.45945869,17.9547984 C8.42406463,17.9901924 8.38667749,18.0223786 8.34765852,18.051357 L8.236414,18.1230204 L8.236414,18.1230204 L8.12368793,18.1764661 L8.12368793,18.1764661 L8.04143606,18.2052077 L8.04143606,18.2052077 L7.92700613,18.2324199 L7.92700613,18.2324199 L7.8381629,18.2440613 L7.8381629,18.2440613 L7.72009729,18.2471745 L7.57764443,18.2324103 L7.57764443,18.2324103 L7.51883777,18.2202689 L7.51883777,18.2202689 L7.41068544,18.187797 L7.41068544,18.187797 L7.32913036,18.1540182 L7.32913036,18.1540182 L7.23164315,18.1016961 L7.23164315,18.1016961 L7.13945246,18.037987 L7.13945246,18.037987 L7.08968623,17.9965809 L7.08968623,17.9965809 L4.04524512,14.9547984 C3.65472083,14.5642741 3.65472083,13.9311091 4.04524512,13.5405848 C4.40572908,13.1801008 4.97296014,13.1523713 5.36525135,13.4573962 L5.45945869,13.5405848 L6.7523519,14.8335511 L6.7523519,6.75055114 C6.7523519,6.19826639 7.20006715,5.75055114 7.7523519,5.75055114 Z M16.1289427,5.75753018 L16.1936091,5.75199876 L16.1936091,5.75199876 L16.3228866,5.753339 L16.3228866,5.753339 L16.4491664,5.77095314 L16.4491664,5.77095314 L16.563837,5.80162441 L16.563837,5.80162441 L16.6710491,5.84430831 L16.6710491,5.84430831 L16.7672443,5.895868 L16.7672443,5.895868 L16.8730971,5.9702399 L16.8730971,5.9702399 L16.9547549,6.04344436 L19.9547549,9.04344436 C20.3452792,9.43396865 20.3452792,10.0671336 19.9547549,10.4576579 C19.5942709,10.8181419 19.0270399,10.8458714 18.6347487,10.5408465 L18.5405413,10.4576579 L17.2473519,9.16455114 L17.2476481,17.2476916 C17.2476481,17.7999763 16.7999328,18.2476916 16.2476481,18.2476916 C15.7348123,18.2476916 15.3121409,17.8616514 15.2543758,17.3643127 L15.2476481,17.2476916 L15.2473519,9.16355114 L13.9547549,10.4576579 C13.5942709,10.8181419 13.0270399,10.8458714 12.6347487,10.5408465 L12.5405413,10.4576579 C12.1800574,10.097174 12.1523278,9.5299429 12.4573527,9.13765169 L12.5405413,9.04344436 L15.5405413,6.04344436 C15.5786122,6.00537344 15.6189891,5.97101394 15.6612224,5.94036584 L15.7464575,5.88494415 L15.7464575,5.88494415 L15.852194,5.83178016 L15.852194,5.83178016 L15.9309795,5.80172884 L15.9309795,5.80172884 L16.0154265,5.77766153 L16.0154265,5.77766153 L16.1289427,5.75753018 L16.1289427,5.75753018 Z" id="Shape"></path>
        </g>
    </g>
</svg>