<?xml version="1.0" encoding="UTF-8"?>
<svg width="24px" height="24px" viewBox="0 0 24 24" version="1.1" xmlns="http://www.w3.org/2000/svg" xmlns:xlink="http://www.w3.org/1999/xlink">
    <title>Icon/Sort/Outline</title>
    <g id="💎-Icons" stroke="none" stroke-width="1" fill="none" fill-rule="evenodd">
        <g id="Group" fill="#FFFFFF" transform="translate(4.000000, 6.000000)">
            <path d="M3.7523519,0 C4.1322858,0 4.4462778,0.282001293 4.49597137,0.647878881 L4.50282228,0.749594401 L4.50282228,9.44038498 L6.22357073,7.72198471 C6.49000429,7.45586214 6.90692929,7.43166918 7.20072493,7.64940583 L7.28489612,7.72198471 C7.55132968,7.98810728 7.57555091,8.40454563 7.35755982,8.69799834 L7.28489612,8.78207128 L4.2830146,11.7804489 C4.24593808,11.8174821 4.20594729,11.8498304 4.16377956,11.8774936 L4.07432412,11.927734 L3.97064427,11.9677427 C3.90212264,11.988653 3.82856394,12 3.7523519,12 L3.69525869,11.9978632 L3.60436648,11.9853636 L3.56734343,11.9770402 L3.46140815,11.9415792 L3.39247532,11.9084145 L3.3058604,11.8530278 C3.27262178,11.8279219 3.24630449,11.8050354 3.22168921,11.7804489 L0.219807685,8.78207128 C-0.0732692285,8.48933645 -0.0732692285,8.01471953 0.219807685,7.72198471 C0.486241244,7.45586214 0.903166247,7.43166918 1.19696189,7.64940583 L1.28113308,7.72198471 L3.00188152,9.44038498 L3.00188152,0.749594401 C3.00188152,0.335604845 3.33787856,0 3.7523519,0 Z M12.2534681,0 L12.3494825,0.00682051247 L12.4326566,0.022937417 L12.5385918,0.0583984135 L12.6075247,0.0915630541 L12.7062382,0.156165009 L12.7783108,0.219528716 L15.7801923,3.21790632 C16.0732692,3.51064114 16.0732692,3.98525807 15.7801923,4.27799289 C15.5137588,4.54411546 15.0968338,4.56830842 14.8030381,4.35057177 L14.7188669,4.27799289 L12.9981185,2.55959261 L13.0039385,11.2504056 C13.0039385,11.6643952 12.6679415,12 12.2534681,12 C11.8735342,12 11.5595422,11.7179987 11.5098486,11.3521211 L11.5029977,11.2504056 L11.4971777,2.55959261 L9.77642927,4.27799289 C9.50999571,4.54411546 9.09307071,4.56830842 8.79927507,4.35057177 L8.71510388,4.27799289 C8.44867032,4.01187032 8.42444909,3.59543197 8.64244018,3.30197926 L8.71510388,3.21790632 L11.7169854,0.219528716 C11.7540619,0.182495479 11.7940527,0.150147235 11.8362204,0.122483984 L11.9256759,0.0722435754 L12.0293557,0.0322349419 C12.0750368,0.0182947325 12.1229566,0.00860487215 12.1724088,0.00369387743 L12.2534681,0 Z" id="Shape"></path>
        </g>
    </g>
</svg>