<?xml version="1.0" encoding="UTF-8"?>
<svg width="24px" height="24px" viewBox="0 0 24 24" version="1.1" xmlns="http://www.w3.org/2000/svg" xmlns:xlink="http://www.w3.org/1999/xlink">
    <title>Icon/Discus/Filled</title>
    <g id="Icon/Discus/Filled" stroke="none" stroke-width="1" fill="none" fill-rule="evenodd">
        <path d="M15.75,4.70769427 L16.0292941,4.73872695 C16.9445777,4.84042513 17.5114428,5.03507442 17.9998165,5.34384725 C18.4881903,5.65262007 18.8632361,6.0716457 19.1161886,6.59113068 C19.369141,7.11061567 19.5,7.69550901 19.5,8.6164252 L19.5,12.5898765 C19.5,14.0524141 18.4426382,15.3005879 17,15.5410276 L14.7138064,15.9235486 L14.6266899,15.9432434 L14.5922737,15.9532819 C14.5353768,15.970999 14.4862907,15.9929163 14.4351178,16.023453 L14.3427214,16.0859327 L14.2132471,16.1870966 L11.214781,19.321536 C10.8693223,19.5979029 10.3755779,19.5332827 10.088866,19.196434 C9.83169218,18.8942886 9.88786729,18.1918964 9.99864212,17.5628839 L10.0629244,17.2299102 L10.0629244,17.2299102 L10.2274363,16.4891215 C10.2371333,16.4397096 10.2424144,16.4041105 10.2417243,16.3851708 C10.2344788,16.1863045 10.0905842,16.0770713 9.97236525,15.9988794 C9.85414629,15.9206876 9.73556559,15.8722989 9.3972793,15.8239723 L7.41666667,15.5410276 C6.84555944,15.4594409 6.33111629,15.2508865 5.89901753,14.9449743 C5.46691876,14.639062 5.11716438,14.2357918 4.87543469,13.7647733 C4.633705,13.2937549 4.5,12.7549881 4.5,12.1780827 L4.5,8.6164252 C4.5,7.69550901 4.63085899,7.11061567 4.88381142,6.59113068 C5.13676386,6.0716457 5.51180973,5.65262007 6.00018348,5.34384725 C6.48855723,5.03507442 7.05542225,4.84042513 7.97070587,4.73872695 L8.25,4.70769427 C10.7423312,4.43076858 13.2576688,4.43076858 15.75,4.70769427 Z M15.2,11 L8.8,11 C8.3581722,11 8,11.3357864 8,11.75 C8,12.1346269 8.30883215,12.4516304 8.7067031,12.4949542 L8.8,12.5 L15.2,12.5 C15.6418278,12.5 16,12.1642136 16,11.75 C16,11.3653731 15.6911678,11.0483696 15.2932969,11.0050458 L15.2,11 Z M15.2,7.5 L8.8,7.5 C8.3581722,7.5 8,7.83578644 8,8.25 C8,8.63462688 8.30883215,8.95163037 8.7067031,8.9949542 L8.8,9 L15.2,9 C15.6418278,9 16,8.66421356 16,8.25 C16,7.86537312 15.6911678,7.54836963 15.2932969,7.5050458 L15.2,7.5 Z" id="Shape" fill="#FFFFFF"></path>
    </g>
</svg>