<svg width="24" height="24" viewBox="0 0 24 24" fill="currentColor" xmlns="http://www.w3.org/2000/svg">
<path fill-rule="evenodd" clip-rule="evenodd" d="M16.5 3.24933L16.8352 3.28658C17.9335 3.40866 18.6137 3.64233 19.1998 4.01299C19.7858 4.38366 20.2359 4.88668 20.5394 5.51029C20.843 6.13391 21 6.83604 21 7.94155V12.7115C21 14.4672 19.7312 15.9655 18 16.2542L15.2566 16.7134L15.152 16.737L15.1107 16.7491C15.0425 16.7703 14.9835 16.7966 14.9221 16.8333L14.8113 16.9083L14.6559 17.0297L11.0577 20.7925C10.6432 21.1242 10.0507 21.0467 9.70664 20.6423C9.39803 20.2796 9.46544 19.4364 9.59837 18.6813L9.67551 18.2816L9.87292 17.3923C9.88456 17.333 9.8909 17.2903 9.89007 17.2675C9.88137 17.0288 9.7087 16.8977 9.56684 16.8038C9.42498 16.7099 9.28268 16.6518 8.87674 16.5938L6.5 16.2542C5.81467 16.1562 5.19734 15.9059 4.67882 15.5386C4.1603 15.1714 3.7406 14.6873 3.45052 14.1219C3.16045 13.5564 3 12.9097 3 12.2171V7.94155C3 6.83604 3.15703 6.13391 3.46057 5.51029C3.76412 4.88668 4.21417 4.38366 4.80022 4.01299C5.38627 3.64233 6.06651 3.40866 7.16485 3.28658L7.5 3.24933C10.4908 2.91689 13.5092 2.91689 16.5 3.24933Z" fill="currentColor"/>
</svg>
