<?xml version="1.0" encoding="UTF-8"?>
<svg width="24px" height="24px" viewBox="0 0 24 24" version="1.1" xmlns="http://www.w3.org/2000/svg" xmlns:xlink="http://www.w3.org/1999/xlink">
    <title>Icon/Discus/Filled</title>
    <g id="Icon/Discus/Filled" stroke="none" stroke-width="1" fill="none" fill-rule="evenodd">
        <path d="M16.5,3.249326 L16.835153,3.28657909 C17.9334933,3.40866238 18.6137313,3.64232857 19.1997798,4.01299404 C19.7858283,4.38365951 20.2358834,4.88667764 20.5394263,5.51029192 C20.8429692,6.1339062 21,6.83603977 21,7.941551 L21,12.7114694 C21,14.4671685 19.7311658,15.9655352 18,16.2541704 L15.2565676,16.7133667 L15.1520278,16.7370092 L15.1107284,16.7490599 C15.0424522,16.7703283 14.9835488,16.7966389 14.9221414,16.8332966 L14.8112657,16.9083002 L14.6558965,17.0297421 L11.0577372,20.792471 C10.6431868,21.1242349 10.0506934,21.0466618 9.7066392,20.6422927 C9.39803062,20.2795831 9.46544075,19.4363984 9.59837054,18.681302 L9.67550925,18.2815847 L9.67550925,18.2815847 L9.87292358,17.392307 C9.88455998,17.3329907 9.89089728,17.2902558 9.89006922,17.2675197 C9.88137454,17.0287912 9.70870106,16.8976625 9.5668383,16.8037973 C9.42497555,16.7099322 9.28267871,16.6518441 8.87673516,16.5938305 L6.5,16.2541704 C5.81467133,16.1562298 5.19733955,15.9058714 4.67882103,15.5386399 C4.16030252,15.1714084 3.74059726,14.6873038 3.45052163,14.121871 C3.160446,13.5564382 3,12.9096771 3,12.2171327 L3,7.941551 C3,6.83603977 3.15703079,6.1339062 3.46057371,5.51029192 C3.76411663,4.88667764 4.21417167,4.38365951 4.80022017,4.01299404 C5.38626867,3.64232857 6.06650671,3.40866238 7.16484704,3.28657909 L7.5,3.249326 C10.4907975,2.91689133 13.5092025,2.91689133 16.5,3.249326 Z M15.84,10.8029066 L8.16,10.8029066 C7.62980664,10.8029066 7.2,11.2060005 7.2,11.703242 C7.2,12.1649663 7.57059858,12.5455122 8.04804372,12.5975202 L8.16,12.6035774 L15.84,12.6035774 C16.3701934,12.6035774 16.8,12.2004835 16.8,11.703242 C16.8,11.2415178 16.4294014,10.8609718 15.9519563,10.8089639 L15.84,10.8029066 Z M15.84,6.60134152 L8.16,6.60134152 C7.62980664,6.60134152 7.2,7.0044354 7.2,7.50167691 C7.2,7.96340116 7.57059858,8.3439471 8.04804372,8.39595507 L8.16,8.40201229 L15.84,8.40201229 C16.3701934,8.40201229 16.8,7.99891841 16.8,7.50167691 C16.8,7.03995265 16.4294014,6.65940671 15.9519563,6.60739874 L15.84,6.60134152 Z" id="Shape" fill="#FFFFFF"></path>
    </g>
</svg>