<?xml version="1.0" encoding="UTF-8"?>
<svg width="24px" height="24px" viewBox="0 0 24 24" version="1.1" xmlns="http://www.w3.org/2000/svg" xmlns:xlink="http://www.w3.org/1999/xlink">
    <title>Icon/Discus/Outline</title>
    <g id="Icon/Discus/Outline" stroke="none" stroke-width="1" fill="none" fill-rule="evenodd">
        <path d="M8.08435271,3.21686867 C10.4265343,2.95662627 12.7881742,2.93060203 15.1342475,3.13879595 L15.9156473,3.21686867 L16.1949414,3.24790135 C17.2835827,3.36886149 18.080004,3.61988878 18.8014114,4.07599642 C19.5253659,4.53371448 20.0898351,5.16437617 20.4648062,5.93444931 C20.8010929,6.62507668 20.9655705,7.35774927 20.9951032,8.2958809 L21,8.6164252 L21,12.5898765 C21,14.7148407 19.5132849,16.5383963 17.4552135,16.9808593 L17.2475358,17.020462 L15.159,17.367 L12.2986908,20.3584253 L12.1518236,20.4928392 C11.1658089,21.2816509 9.75307765,21.1161677 8.94661065,20.1686751 C8.41508677,19.5442045 8.33063861,18.8297282 8.43787093,17.8790216 L8.46590321,17.6553678 L8.50442085,17.4015497 L8.537,17.215 L7.20453463,17.0259518 C6.60729884,16.9406324 6.04128653,16.7543088 5.52766417,16.4767839 L5.27531681,16.3304667 L5.03228907,16.1692217 C4.40312257,15.7237917 3.89289325,15.1354924 3.54091765,14.449656 C3.2300222,13.8438657 3.04905371,13.1749031 3.00866933,12.4782434 L3,12.1780827 L3,8.6164252 C3,7.52108448 3.16154192,6.70181305 3.53519377,5.93444931 C3.91016491,5.16437617 4.4746341,4.53371448 5.19858863,4.07599642 C5.84785529,3.66549954 6.55788315,3.42111775 7.48701558,3.28816642 L7.80505858,3.24790135 L8.08435271,3.21686867 Z M15.75,4.70769427 C13.5069019,4.45846115 11.2451687,4.43353783 8.99834354,4.63292433 L8.25,4.70769427 L7.97070587,4.73872695 C7.05542225,4.84042513 6.48855723,5.03507442 6.00018348,5.34384725 C5.51180973,5.65262007 5.13676386,6.0716457 4.88381142,6.59113068 C4.65615424,7.05866717 4.52739273,7.57918443 4.503917,8.34996041 L4.5,8.6164252 L4.5,12.1780827 C4.5,12.7549881 4.633705,13.2937549 4.87543469,13.7647733 C5.11716438,14.2357918 5.46691876,14.639062 5.89901753,14.9449743 C6.2693879,15.2071848 6.70025618,15.397867 7.17545053,15.4983747 L7.41666667,15.5410276 L9.3972793,15.8239723 C9.73556559,15.8722989 9.85414629,15.9206876 9.97236525,15.9988794 C10.0905842,16.0770713 10.2344788,16.1863045 10.2417243,16.3851708 L10.2404816,16.4095582 L10.2404816,16.4095582 L10.2274363,16.4891215 L10.0629244,17.2299102 L9.99864212,17.5628839 C9.88786729,18.1918964 9.83169218,18.8942886 10.088866,19.196434 C10.3516852,19.505212 10.7884693,19.5852424 11.1255327,19.3835636 L11.214781,19.321536 L14.2132471,16.1870966 L14.3427214,16.0859327 L14.4351178,16.023453 L14.5115492,15.9835601 L14.5115492,15.9835601 L14.5922737,15.9532819 L14.6266899,15.9432434 L14.7138064,15.9235486 L17,15.5410276 C18.3825283,15.3106062 19.4112176,14.1546791 19.4945415,12.7715199 L19.5,12.5898765 L19.5,8.6164252 C19.5,7.69550901 19.369141,7.11061567 19.1161886,6.59113068 C18.8632361,6.0716457 18.4881903,5.65262007 17.9998165,5.34384725 C17.5602801,5.0659517 17.0571658,4.88049622 16.2936966,4.77204611 L16.0292941,4.73872695 L15.75,4.70769427 Z M15.2,11 L15.2932969,11.0050458 C15.6911678,11.0483696 16,11.3653731 16,11.75 C16,12.1296958 15.6990359,12.443491 15.3085553,12.4931534 L15.2,12.5 L8.8,12.5 L8.7067031,12.4949542 C8.30883215,12.4516304 8,12.1346269 8,11.75 C8,11.3703042 8.30096414,11.056509 8.69144474,11.0068466 L8.8,11 L15.2,11 Z M15.2,7.5 L15.2932969,7.5050458 C15.6911678,7.54836963 16,7.86537312 16,8.25 C16,8.62969577 15.6990359,8.94349096 15.3085553,8.99315338 L15.2,9 L8.8,9 L8.7067031,8.9949542 C8.30883215,8.95163037 8,8.63462688 8,8.25 C8,7.87030423 8.30096414,7.55650904 8.69144474,7.50684662 L8.8,7.5 L15.2,7.5 Z" id="Shape" fill="#FFFFFF"></path>
    </g>
</svg>