<?xml version="1.0" encoding="UTF-8"?>
<svg width="24px" height="24px" viewBox="0 0 24 24" version="1.1" xmlns="http://www.w3.org/2000/svg" xmlns:xlink="http://www.w3.org/1999/xlink">
    <title>Icon/Discus/Outline</title>
    <g id="Icon/Discus/Outline" stroke="none" stroke-width="1" fill="none" fill-rule="evenodd">
        <path d="M8.08435271,3.21693186 C10.4265343,2.95661363 12.7881742,2.93058181 15.1342475,3.13883639 L15.9156473,3.21693186 L16.1949414,3.24797358 C17.2835827,3.36896897 18.080004,3.6200694 18.8014114,4.07630994 C19.5253659,4.53416137 20.0898351,5.16500681 20.4648062,5.93530432 C20.8010929,6.62613292 20.9655705,7.35901899 20.9951032,8.29742397 L21,8.61806167 L21,12.5926708 C21,14.7182541 19.5132849,16.542341 17.4552135,16.9849329 L17.2475358,17.0245471 L15.159,17.3711861 L12.2986908,20.3634831 L12.1518236,20.4979361 C11.1658089,21.2869777 9.75307765,21.1214462 8.94661065,20.1736775 C8.41508677,19.549025 8.33063861,18.8343405 8.43787093,17.883357 L8.46590321,17.659638 L8.50442085,17.4057459 L8.537,17.2191419 L7.20453463,17.0300386 C6.60729884,16.9446944 6.04128653,16.7583164 5.52766417,16.4807106 L5.27531681,16.3343509 L5.03228907,16.1730589 C4.40312257,15.7274991 3.89289325,15.1390283 3.54091765,14.4529921 C3.2300222,13.8470253 3.04905371,13.1778678 3.00866933,12.4810051 L3,12.1807569 L3,8.61806167 C3,7.52240179 3.16154192,6.70289166 3.53519377,5.93530432 C3.91016491,5.16500681 4.4746341,4.53416137 5.19858863,4.07630994 C5.84785529,3.66569345 6.55788315,3.42124046 7.48701558,3.28825038 L7.80505858,3.24797358 L8.08435271,3.21693186 Z M15.75,4.70819184 C13.5069019,4.4588861 11.2451687,4.43395553 8.99834354,4.63340012 L8.25,4.70819184 L7.97070587,4.73923357 C7.05542225,4.84096138 6.48855723,5.03566738 6.00018348,5.34453018 C5.51180973,5.65339297 5.13676386,6.07254069 4.88381142,6.59217704 C4.65615424,7.05984975 4.52739273,7.58051867 4.503917,8.35151924 L4.5,8.61806167 L4.5,12.1807569 C4.5,12.7578304 4.633705,13.2967542 4.87543469,13.7679099 C5.11716438,14.2390656 5.46691876,14.6424533 5.89901753,14.9484547 C6.2693879,15.2107416 6.70025618,15.4014794 7.17545053,15.5020163 L7.41666667,15.5446817 L9.3972793,15.8277088 C9.73556559,15.8760495 9.85414629,15.9244523 9.97236525,16.0026669 C10.0905842,16.0808815 10.2344788,16.1901466 10.2417243,16.3890709 L10.2404816,16.4134654 L10.2404816,16.4134654 L10.2274363,16.4930518 L10.0629244,17.2340564 L9.99864212,17.5671271 C9.88786729,18.1963229 9.83169218,18.8989198 10.088866,19.2011532 C10.3516852,19.5100212 10.7884693,19.5900749 11.1255327,19.3883373 L11.214781,19.3262916 L14.2132471,16.1909389 L14.3427214,16.0897456 L14.4351178,16.0272477 L14.5115492,15.9873431 L14.5115492,15.9873431 L14.5922737,15.9570561 L14.6266899,15.9470147 L14.7138064,15.9273142 L17,15.5446817 C18.3825283,15.3141932 19.4112176,14.1579292 19.4945415,12.774367 L19.5,12.5926708 L19.5,8.61806167 C19.5,7.69687715 19.369141,7.11181338 19.1161886,6.59217704 C18.8632361,6.07254069 18.4881903,5.65339297 17.9998165,5.34453018 C17.5602801,5.06655366 17.0571658,4.88104415 16.2936966,4.77256243 L16.0292941,4.73923357 L15.75,4.70819184 Z M15.2,11.002331 L15.2932969,11.0073782 C15.6911678,11.0507147 16,11.3678106 16,11.7525495 C16,12.1323559 15.6990359,12.4462425 15.3085553,12.4959194 L15.2,12.502768 L8.8,12.502768 L8.7067031,12.4977208 C8.30883215,12.4543843 8,12.1372885 8,11.7525495 C8,11.3727431 8.30096414,11.0588565 8.69144474,11.0091796 L8.8,11.002331 L15.2,11.002331 Z M15.2,7.50131117 L15.2932969,7.50635844 C15.6911678,7.5496949 16,7.86679075 16,8.2515297 C16,8.6313361 15.6990359,8.94522273 15.3085553,8.99489962 L15.2,9.00174823 L8.8,9.00174823 L8.7067031,8.99670096 C8.30883215,8.95336451 8,8.63626865 8,8.2515297 C8,7.8717233 8.30096414,7.55783668 8.69144474,7.50815978 L8.8,7.50131117 L15.2,7.50131117 Z" id="Shape" fill="#FFFFFF"></path>
    </g>
</svg>