<svg width="24" height="24" viewBox="0 0 24 24" fill="currentColor" xmlns="http://www.w3.org/2000/svg">
<path fill-rule="evenodd" clip-rule="evenodd" d="M8.08435 3.21693C10.4265 2.95661 12.7882 2.93058 15.1342 3.13884L15.9156 3.21693L16.1949 3.24797C17.2836 3.36897 18.08 3.62007 18.8014 4.07631C19.5254 4.53416 20.0898 5.16501 20.4648 5.9353C20.8011 6.62613 20.9656 7.35902 20.9951 8.29742L21 8.61806V12.5927C21 14.7183 19.5133 16.5423 17.4552 16.9849L17.2475 17.0245L15.159 17.3712L12.2987 20.3635L12.1518 20.4979C11.1658 21.287 9.75308 21.1214 8.94661 20.1737C8.41509 19.549 8.33064 18.8343 8.43787 17.8834L8.4659 17.6596L8.50442 17.4057L8.537 17.2191L7.20453 17.03C6.6073 16.9447 6.04129 16.7583 5.52766 16.4807L5.27532 16.3344L5.03229 16.1731C4.40312 15.7275 3.89289 15.139 3.54092 14.453C3.23002 13.847 3.04905 13.1779 3.00867 12.481L3 12.1808V8.61806C3 7.5224 3.16154 6.70289 3.53519 5.9353C3.91016 5.16501 4.47463 4.53416 5.19859 4.07631C5.84786 3.66569 6.55788 3.42124 7.48702 3.28825L7.80506 3.24797L8.08435 3.21693ZM15.75 4.70819C13.5069 4.45889 11.2452 4.43396 8.99834 4.6334L8.25 4.70819L7.97071 4.73923C7.05542 4.84096 6.48856 5.03567 6.00018 5.34453C5.51181 5.65339 5.13676 6.07254 4.88381 6.59218C4.65615 7.05985 4.52739 7.58052 4.50392 8.35152L4.5 8.61806V12.1808C4.5 12.7578 4.63371 13.2968 4.87543 13.7679C5.11716 14.2391 5.46692 14.6425 5.89902 14.9485C6.26939 15.2107 6.70026 15.4015 7.17545 15.502L7.41667 15.5447L9.39728 15.8277C9.73557 15.876 9.85415 15.9245 9.97237 16.0027C10.0906 16.0809 10.2345 16.1901 10.2417 16.3891L10.2405 16.4135L10.2274 16.4931L10.0629 17.2341L9.99864 17.5671C9.88787 18.1963 9.83169 18.8989 10.0889 19.2012C10.3517 19.51 10.7885 19.5901 11.1255 19.3883L11.2148 19.3263L14.2132 16.1909L14.3427 16.0897L14.4351 16.0272L14.5115 15.9873L14.5923 15.9571L14.6267 15.947L14.7138 15.9273L17 15.5447C18.3825 15.3142 19.4112 14.1579 19.4945 12.7744L19.5 12.5927V8.61806C19.5 7.69688 19.3691 7.11181 19.1162 6.59218C18.8632 6.07254 18.4882 5.65339 17.9998 5.34453C17.5603 5.06655 17.0572 4.88104 16.2937 4.77256L16.0293 4.73923L15.75 4.70819Z" fill="currentColor"/>
</svg>
