<?xml version="1.0" encoding="UTF-8"?>
<svg width="24px" height="24px" viewBox="0 0 24 24" version="1.1" xmlns="http://www.w3.org/2000/svg" xmlns:xlink="http://www.w3.org/1999/xlink">
    <title>Icon/Trash/Filled</title>
    <g id="Icon/Trash/Filled" stroke="none" stroke-width="1" fill="none" fill-rule="evenodd">
        <path d="M16.5098626,9 C17.5039752,9 18.3098626,9.80588745 18.3098626,10.8 C18.3098626,10.8893752 18.303206,10.9786264 18.2899481,11.0670128 L17.0299481,19.4670128 C16.8977777,20.3481487 16.1408562,21 15.2498626,21 L8.75013736,21 C7.8591438,21 7.10222231,20.3481487 6.97005192,19.4670128 L5.71005192,11.0670128 C5.56258482,10.0838988 6.2400105,9.16738167 7.22312454,9.01991456 C7.31151098,9.0066566 7.40076211,9 7.49013736,9 L16.5098626,9 Z M9.9,12 C9.44436508,12 9.06781085,12.3385847 9.00821594,12.7778753 L9,12.9 L9,17.1 C9,17.5970563 9.40294373,18 9.9,18 C10.3556349,18 10.7321892,17.6614153 10.7917841,17.2221247 L10.8,17.1 L10.8,12.9 C10.8,12.4029437 10.3970563,12 9.9,12 Z M14.1,12 C13.6443651,12 13.2678108,12.3385847 13.2082159,12.7778753 L13.2,12.9 L13.2,17.1 C13.2,17.5970563 13.6029437,18 14.1,18 C14.5556349,18 14.9321892,17.6614153 14.9917841,17.2221247 L15,17.1 L15,12.9 C15,12.4029437 14.5970563,12 14.1,12 Z M12,3 C12.9356353,3 13.7045384,3.7138657 13.7917601,4.62664799 L13.8,4.8 L19.5,4.8 C19.9970563,4.8 20.4,5.20294373 20.4,5.7 C20.4,6.19705627 19.9970563,6.6 19.5,6.6 L4.5,6.6 C4.00294373,6.6 3.6,6.19705627 3.6,5.7 C3.6,5.20294373 4.00294373,4.8 4.5,4.8 L10.2000004,4.79879022 C10.2006539,3.80523372 11.0062907,3 12,3 Z" id="Shape" fill="#FFFFFF"></path>
    </g>
</svg>