<?xml version="1.0" encoding="UTF-8"?>
<svg width="24px" height="24px" viewBox="0 0 24 24" version="1.1" xmlns="http://www.w3.org/2000/svg" xmlns:xlink="http://www.w3.org/1999/xlink">
    <title>Icon/Trash/Outline</title>
    <g id="Icon/Trash/Outline" stroke="none" stroke-width="1" fill="none" fill-rule="evenodd">
        <path d="M15.7582189,8 C17.4150731,8 18.7582189,9.34314575 18.7582189,11 C18.7582189,11.0993058 18.7532881,11.1985197 18.7434537,11.297276 L18.7250279,11.4450214 L17.6750279,18.4450214 C17.4635553,19.8548388 16.292465,20.9124751 14.8852927,20.9948303 L14.7082189,21 L9.29178113,21 C7.86619143,21 6.64653644,19.9987565 6.35635182,18.6193692 L6.32497207,18.4450214 L5.27497207,11.4450214 C5.02919356,9.80649796 6.15823637,8.27896945 7.79675977,8.03319094 C7.89496692,8.01845987 7.99381459,8.0086187 8.09293705,8.0036947 L8.24178113,8 L15.7582189,8 Z M15.7582189,9.5 L8.24178113,9.5 C8.16730176,9.5 8.09292581,9.50554717 8.01927045,9.51659547 C7.24820062,9.63225595 6.70278308,10.3156119 6.74373795,11.0786303 L6.7583766,11.2225107 L7.8083766,18.2225107 C7.91163472,18.9108981 8.4724742,19.4313525 9.15397251,19.4937202 L9.29178113,19.5 L14.7082189,19.5 C15.4043076,19.5 16.002199,19.0225699 16.1649705,18.3578631 L16.1916234,18.2225107 L17.2416234,11.2225107 C17.2526717,11.1488553 17.2582189,11.0744794 17.2582189,11 C17.2582189,10.2203039 16.6633308,9.57955132 15.9026789,9.50686658 L15.7582189,9.5 Z M10.25,12 C10.6642136,12 11,12.3357864 11,12.75 L11,16.25 C11,16.6642136 10.6642136,17 10.25,17 C9.83578644,17 9.5,16.6642136 9.5,16.25 L9.5,12.75 C9.5,12.3357864 9.83578644,12 10.25,12 Z M13.75,12 C14.1642136,12 14.5,12.3357864 14.5,12.75 L14.5,16.25 C14.5,16.6642136 14.1642136,17 13.75,17 C13.3357864,17 13,16.6642136 13,16.25 L13,12.75 C13,12.3357864 13.3357864,12 13.75,12 Z M12,3 C12.7796961,3 13.4204487,3.59488808 13.4931334,4.35553999 L13.5,4.5 L19.25,4.5 C19.6642136,4.5 20,4.83578644 20,5.25 C20,5.66421356 19.6642136,6 19.25,6 L4.75,6 C4.33578644,6 4,5.66421356 4,5.25 C4,4.83578644 4.33578644,4.5 4.75,4.5 L10.5,4.49899185 C10.5005449,3.6710281 11.171909,3 12,3 Z" id="Shape" fill="#FFFFFF"></path>
    </g>
</svg>