<?xml version="1.0" encoding="UTF-8"?>
<svg width="24px" height="24px" viewBox="0 0 24 24" version="1.1" xmlns="http://www.w3.org/2000/svg" xmlns:xlink="http://www.w3.org/1999/xlink">
    <title>Icon/hammer/Filled</title>
    <g id="Icon/hammer/Filled" stroke="none" stroke-width="1" fill="none" fill-rule="evenodd">
        <path d="M10.2338177,6.41594947 C9.72505431,6.41594947 9.21629087,6.58847099 8.80280844,6.93351403 L8.65240492,7.07099211 L7.07099211,8.65240492 C6.24612361,9.47727343 6.20029758,10.7861769 6.93351403,11.664827 L7.07099211,11.8152306 L10.2338177,14.9780562 C10.6705128,15.4147513 11.2428717,15.6330988 11.8152306,15.6330988 L12.0058307,15.6250119 C12.4496961,15.5872728 12.8844427,15.4174469 13.2462399,15.1155343 L13.3966434,14.9780562 L19.0910659,20.6724787 C19.3094134,20.8908262 19.5955928,21 19.8817723,21 L20.024548,20.9909022 C20.2614606,20.9605761 20.4905224,20.854435 20.6724787,20.6724787 C21.0727825,20.2721748 21.1061412,19.6438805 20.7725546,19.2055783 L20.6724787,19.0910659 L14.9780562,13.3966434 C15.8029247,12.5717749 15.8487507,11.2628714 15.1155343,10.3842213 L14.9780562,10.2338177 L11.8152306,7.07099211 C11.4270571,6.6828187 10.9316926,6.4671668 10.4244179,6.42403642 L10.2338177,6.41594947 Z M4.11822773,12.0696774 C3.83204829,12.0696774 3.54586886,12.1788512 3.32752132,12.3971987 C2.92721748,12.7975026 2.89385883,13.4257969 3.22744536,13.8640992 L3.32752132,13.9786116 L8.07175976,18.72285 C8.29010731,18.9411975 8.57628674,19.0503713 8.86246617,19.0503713 L9.00524185,19.0412735 C9.24215453,19.0109475 9.47121629,18.9048063 9.65317258,18.72285 C10.0534764,18.3225462 10.0868351,17.6942518 9.75324854,17.2559496 L9.65317258,17.1414372 L4.90893413,12.3971987 C4.72697785,12.2152424 4.49791608,12.1091013 4.2610034,12.0787752 L4.11822773,12.0696774 Z M13.1879051,3 C12.9017257,3 12.6155463,3.10917377 12.3971987,3.32752132 C11.9968949,3.72782515 11.9635363,4.35611949 12.2971228,4.79442174 L12.3971987,4.90893413 L17.1414372,9.65317258 C17.3597847,9.87152012 17.6459642,9.9806939 17.9321436,9.9806939 L18.0749193,9.97159608 C18.3118319,9.94127003 18.5408937,9.83512887 18.72285,9.65317258 C19.1231538,9.25286875 19.1565125,8.62457441 18.822926,8.18627216 L18.72285,8.07175976 L13.9786116,3.32752132 C13.7966553,3.14556503 13.5675935,3.03942386 13.3306808,3.00909781 L13.1879051,3 Z" id="Combined-Shape" fill="#FFFFFF"></path>
    </g>
</svg>