<?xml version="1.0" encoding="UTF-8"?>
<svg width="24px" height="24px" viewBox="0 0 24 24" version="1.1" xmlns="http://www.w3.org/2000/svg" xmlns:xlink="http://www.w3.org/1999/xlink">
    <title>Icon/hammer/Outline</title>
    <g id="Icon/hammer/Outline" stroke="none" stroke-width="1" fill="none" fill-rule="evenodd">
        <path d="M11.2703388,3.71227426 C12.1768697,2.80574338 13.6210445,2.76453743 14.5764521,3.58865641 L14.7095031,3.71227426 L18.6630352,7.6658063 C19.6127342,8.61550531 19.6127342,10.1552716 18.6630352,11.1049707 C18.0814285,11.6865773 17.2785184,11.9120013 16.5253624,11.7812427 C16.5313927,12.0271403 16.5094606,12.2744213 16.4602272,12.5175413 L16.401918,12.7590689 L16.353,12.914 L20.2877257,16.8485614 C21.1510885,17.7119241 21.229576,19.0629458 20.5231883,20.0149738 L20.4113436,20.1546747 L20.2877257,20.2877257 C19.3811949,21.1942566 17.93702,21.2354626 16.9816124,20.4113436 L16.8485614,20.2877257 L12.914,16.353 L12.7590689,16.401918 C12.4394523,16.4917257 12.1091541,16.5333967 11.779625,16.526931 C11.9120013,17.2785184 11.6865773,18.0814285 11.1049707,18.6630352 C10.1984398,19.569566 8.75426492,19.610772 7.79885732,18.786653 L7.6658063,18.6630352 L3.71227426,14.7095031 C2.76257525,13.7598041 2.76257525,12.2200378 3.71227426,11.2703388 C4.29350239,10.6891106 5.09574607,10.4636017 5.84847653,10.5938119 C5.8312031,9.7800629 6.10950767,8.96024465 6.68245781,8.30890201 L6.83183325,8.14967727 L8.14967727,6.83183325 C8.82356613,6.15794439 9.71225049,5.82976365 10.5953482,5.84729104 C10.4636017,5.09574607 10.6891106,4.29350239 11.2703388,3.71227426 Z M10.5281814,7.34662456 C10.1042119,7.34662456 9.68024239,7.49039249 9.3356737,7.77792835 L9.21033744,7.89249342 L7.89249342,9.21033744 C7.205103,9.89772786 7.16691465,10.9884807 7.77792835,11.7206892 L7.89249342,11.8460255 L10.5281814,14.4817135 C10.892094,14.8456261 11.3690597,15.0275824 11.8460255,15.0275824 L12.004859,15.0208432 C12.3747467,14.989394 12.7370356,14.8478724 13.0385332,14.5962786 L13.1638695,14.4817135 L17.9092216,19.2270656 C18.0911778,19.4090219 18.3296607,19.5 18.5681436,19.5 L18.6871233,19.4924185 C18.8845505,19.4671468 19.0754353,19.3786958 19.2270656,19.2270656 C19.5606521,18.893479 19.588451,18.3699004 19.3104622,18.0046486 L19.2270656,17.9092216 L14.4817135,13.1638695 C15.1691039,12.4764791 15.2072923,11.3857262 14.5962786,10.6535177 L14.4817135,10.5281814 L11.8460255,7.89249342 C11.5225476,7.56901558 11.1097438,7.38930567 10.6870149,7.35336368 L10.5281814,7.34662456 Z M5.43185644,12.0580645 C5.19337358,12.0580645 4.95489072,12.1490427 4.77293443,12.3309989 C4.4393479,12.6645855 4.41154903,13.1881641 4.6895378,13.553416 L4.77293443,13.648843 L8.72646647,17.602375 C8.90842276,17.7843313 9.14690562,17.8753094 9.38538848,17.8753094 L9.50436821,17.8677279 C9.70179544,17.8424562 9.89268024,17.7540052 10.0443105,17.602375 C10.377897,17.2687885 10.4056959,16.7452099 10.1277071,16.379958 L10.0443105,16.284531 L6.09077844,12.3309989 C5.9391482,12.1793687 5.7482634,12.0909177 5.55083617,12.065646 L5.43185644,12.0580645 Z M12.989921,4.5 C12.7514381,4.5 12.5129552,4.59097814 12.3309989,4.77293443 C11.9974124,5.10652096 11.9696135,5.63009957 12.2476023,5.99535145 L12.3309989,6.09077844 L16.284531,10.0443105 C16.4664873,10.2262668 16.7049701,10.3172449 16.943453,10.3172449 L17.0624327,10.3096634 C17.25986,10.2843917 17.4507448,10.1959407 17.602375,10.0443105 C17.9359615,9.71072395 17.9637604,9.18714534 17.6857716,8.82189346 L17.602375,8.72646647 L13.648843,4.77293443 C13.4972127,4.62130419 13.3063279,4.53285322 13.1089007,4.50758151 L12.989921,4.5 Z" id="Combined-Shape" fill="#FFFFFF"></path>
    </g>
</svg>