<?xml version="1.0" encoding="UTF-8"?>
<svg width="24px" height="24px" viewBox="0 0 24 24" version="1.1" xmlns="http://www.w3.org/2000/svg" xmlns:xlink="http://www.w3.org/1999/xlink">
    <title>Icon/Block/Filled</title>
    <g id="Icon/Block/Filled" stroke="none" stroke-width="1" fill="none" fill-rule="evenodd">
        <path d="M12,3 C16.9705627,3 21,7.02943725 21,12 C21,16.9705627 16.9705627,21 12,21 C7.02943725,21 3,16.9705627 3,12 C3,7.02943725 7.02943725,3 12,3 Z M17.4423835,7.77804654 L7.77804654,17.4423835 L7.79131706,17.6282403 L8.03587426,17.8034123 C9.19269875,18.5953046 10.563779,19.0273973 12,19.0273973 C15.8811243,19.0273973 19.0273973,15.8811243 19.0273973,12 C19.0273973,10.4611918 18.5313726,8.9971625 17.6282403,7.79131706 L17.6282403,7.79131706 L17.4423835,7.77804654 Z M12,4.97260274 C8.11887566,4.97260274 4.97260274,8.11887566 4.97260274,12 C4.97260274,13.5388082 5.46862743,15.0028375 6.37175968,16.2086829 L6.37175968,16.2086829 L6.55761651,16.2219535 L16.2219535,6.55761651 L16.2086829,6.37175968 L15.9641257,6.19658767 C14.8073012,5.40469536 13.436221,4.97260274 12,4.97260274 Z" id="Shape" fill="#FFFFFF"></path>
    </g>
</svg>