<?xml version="1.0" encoding="UTF-8"?>
<svg width="24px" height="24px" viewBox="0 0 24 24" version="1.1" xmlns="http://www.w3.org/2000/svg" xmlns:xlink="http://www.w3.org/1999/xlink">
    <title>Icon/Block/Outline</title>
    <g id="Icon/Block/Outline" stroke="none" stroke-width="1" fill="none" fill-rule="evenodd">
        <path d="M12,3 C7.02943725,3 3,7.02943725 3,12 C3,16.9705627 7.02943725,21 12,21 C16.9705627,21 21,16.9705627 21,12 C21,7.02943725 16.9705627,3 12,3 Z M17.7945044,7.2964023 L17.972359,7.53387047 C18.9307163,8.81345134 19.4571429,10.3672125 19.4571429,12 C19.4571429,16.1184663 16.1184663,19.4571429 12,19.4571429 C10.476065,19.4571429 9.02097072,18.9985668 7.79338456,18.1582434 L7.53387047,17.972359 L7.2964023,17.7945044 L17.7945044,7.2964023 Z M12,4.54285714 C13.523935,4.54285714 14.9790293,5.00143316 16.2066154,5.84175659 L16.4661295,6.02764098 L16.7035977,6.20549558 L6.20549558,16.7035977 L6.02764098,16.4661295 C5.06928369,15.1865487 4.54285714,13.6327875 4.54285714,12 C4.54285714,7.88153372 7.88153372,4.54285714 12,4.54285714 Z" id="Shape" fill="#FFFFFF"></path>
    </g>
</svg>