<?xml version="1.0" encoding="UTF-8"?>
<svg width="24px" height="24px" viewBox="0 0 24 24" version="1.1" xmlns="http://www.w3.org/2000/svg">
    <title>Icon/Minimize/Filled</title>
    <g id="Icon/Minimize/Filled" stroke="none" stroke-width="1" fill="none" fill-rule="evenodd">
        <path d="M20.5606602,3.43933983 C21.1464466,4.02512627 21.1464466,4.97487373 20.5606602,5.56066017 L17.1213203,9 L18.5,9 C19.3284271,9 20,9.67157288 20,10.5 C20,11.3284271 19.3284271,12 18.5,12 L13.5,12 C12.6715729,12 12,11.3284271 12,10.5 L12,5.5 C12,4.67157288 12.6715729,4 13.5,4 C14.3284271,4 15,4.67157288 15,5.5 L15,6.87867966 L18.4393398,3.43933983 C19.0251263,2.85355339 19.9748737,2.85355339 20.5606602,3.43933983 Z M5.5,12 L10.5,12 C11.3284271,12 12,12.6715729 12,13.5 L12,18.5 C12,19.3284271 11.3284271,20 10.5,20 C9.67157288,20 9,19.3284271 9,18.5 L9,17.1213203 L5.56066017,20.5606602 C4.97487373,21.1464466 4.02512627,21.1464466 3.43933983,20.5606602 C2.85355339,19.9748737 2.85355339,19.0251263 3.43933983,18.4393398 L6.87867966,15 L5.5,15 C4.67157288,15 4,14.3284271 4,13.5 C4,12.6715729 4.67157288,12 5.5,12 Z" id="Shape" fill="#FFFFFF"></path>
    </g>
</svg>
