<?xml version="1.0" encoding="UTF-8"?>
<svg width="24px" height="24px" viewBox="0 0 24 24" version="1.1" xmlns="http://www.w3.org/2000/svg" xmlns:xlink="http://www.w3.org/1999/xlink">
    <title>Icon/VolumeOff/Outline</title>
    <g id="Icon/VolumeOff/Outline" stroke="none" stroke-width="1" fill="none" fill-rule="evenodd">
        <path d="M11.4142136,4.58578644 C11.7892863,4.96085913 12,5.46957049 12,6 L12,18 C12,19.1045695 11.1045695,20 10,20 C9.46957049,20 8.96085913,19.7892863 8.58578644,19.4142136 L5.17157288,16 L4,16 C2.8954305,16 2,15.1045695 2,14 L2,10 C2,8.8954305 2.8954305,8 4,8 L5.17157288,8 L8.58578644,4.58578644 C9.36683502,3.80473785 10.6331650,3.80473785 11.4142136,4.58578644 Z M10.3535534,5.64644661 C10.2597631,5.55265627 10.1326149,5.5 10,5.5 C9.86738513,5.5 9.74023689,5.55265627 9.64644661,5.64644661 L6.23223305,9.06066017 C5.85715926,9.43573395 5.34844789,9.64644661 4.81801948,9.64644661 L4,9.64644661 C3.72385763,9.64644661 3.5,9.87030424 3.5,10.1464466 L3.5,13.8535534 C3.5,14.1296958 3.72385763,14.3535534 4,14.3535534 L4.81801948,14.3535534 C5.34844789,14.3535534 5.85715926,14.5642661 6.23223305,14.9393398 L9.64644661,18.3535534 C9.74023689,18.4473437 9.86738513,18.5 10,18.5 C10.2761424,18.5 10.5,18.2761424 10.5,18 L10.5,6 C10.5,5.72385763 10.2761424,5.5 10,5.5 Z M20.5303301,8.46966991 C20.8232233,8.76256313 20.8232233,9.23743687 20.5303301,9.53033009 L18.0606602,12 L20.5303301,14.4696699 C20.8232233,14.7625631 20.8232233,15.2374369 20.5303301,15.5303301 C20.2374369,15.8232233 19.7625631,15.8232233 19.4696699,15.5303301 L17,13.0606602 L14.5303301,15.5303301 C14.2374369,15.8232233 13.7625631,15.8232233 13.4696699,15.5303301 C13.1767767,15.2374369 13.1767767,14.7625631 13.4696699,14.4696699 L15.9393398,12 L13.4696699,9.53033009 C13.1767767,9.23743687 13.1767767,8.76256313 13.4696699,8.46966991 C13.7625631,8.1767767 14.2374369,8.1767767 14.5303301,8.46966991 L17,10.9393398 L19.4696699,8.46966991 C19.7625631,8.1767767 20.2374369,8.1767767 20.5303301,8.46966991 Z" id="Shape" fill="#FFFFFF"></path>
    </g>
</svg>
