<svg width="24" height="24" viewBox="0 0 24 24" fill="currentColor" xmlns="http://www.w3.org/2000/svg">
  <path id="Shape" fill-rule="evenodd" clip-rule="evenodd" d="M20 13.5C20.5128 13.5 20.9355 13.8861 20.9933 14.3834L21 14.5V16.25C21 18.7176 19.1141 20.758 16.6835 20.9802L16.4676 20.9951L16.25 21L7.75 21C5.28247 21 3.24198 19.1141 3.01981 16.6835L3.00496 16.4676L3 16.25L3 14.5C3 13.9477 3.44772 13.5 4 13.5C4.51284 13.5 4.93551 13.8861 4.99327 14.3834L5 14.5L5 16.25C5 17.6503 6.04966 18.8147 7.40942 18.9797L7.58095 18.995L7.75 19L16.25 19C17.6502 19 18.8147 17.9504 18.9797 16.5906L18.995 16.4191L19 16.25V14.5C19 13.9477 19.4477 13.5 20 13.5ZM12.6025 15.8014C12.2355 16.0737 11.7331 16.0636 11.3779 15.786L11.2849 15.7036L5.57676 9.99455L5.49147 9.89471C5.19441 9.49435 5.23343 8.9329 5.58922 8.57711C5.95395 8.21238 6.52785 8.18433 6.92475 8.49294L7.02007 8.57711L10.9888 12.546L10.9978 9.8318L10.9886 4.0158C10.9886 3.49152 11.3841 3.06102 11.8923 3.00595L12.0048 3C12.5274 3.00103 12.9568 3.39727 13.0109 3.90532L13.0166 4.0158L13.0053 9.77343L13.0148 12.544L16.994 8.56465L17.0938 8.47936C17.4942 8.1823 18.0556 8.22132 18.4114 8.57711C18.7761 8.94183 18.8042 9.51574 18.4956 9.91264L18.4114 10.008L12.7023 15.7161L12.6025 15.8014Z" />
</svg>
