<svg width="24" height="24" viewBox="0 0 24 24" fill="currentColor" xmlns="http://www.w3.org/2000/svg">
  <path id="Shape" fill-rule="evenodd" clip-rule="evenodd" d="M20.25 14C20.6642 14 21 14.3358 21 14.75V16.5C21 18.9143 19.0988 20.8845 16.7118 20.9951L16.5 21H7.5C5.08573 21 3.11551 19.0987 3.0049 16.7118L3 16.5V14.75C3 14.3358 3.33579 14 3.75 14C4.16421 14 4.5 14.3358 4.5 14.75V16.5C4.5 18.0977 5.74892 19.4036 7.32373 19.4949L7.5 19.5H16.5C18.0977 19.5 19.4037 18.2511 19.4949 16.6763L19.5 16.5V14.75C19.5 14.3358 19.8358 14 20.25 14ZM12.4536 15.8506C12.1852 16.0498 11.8156 16.0498 11.5472 15.8506L11.4617 15.7769L5.76608 10.0812L5.69233 9.99578C5.47106 9.69756 5.49564 9.27436 5.76608 9.00392C6.03653 8.73348 6.45972 8.70889 6.75794 8.93016L6.84338 9.00392L11.236 13.3965L11.2476 8.07017L11.2382 3.76621C11.2382 3.37762 11.5259 3.05761 11.899 3.00698L12.0049 3C12.3917 3.00105 12.7106 3.28939 12.7602 3.6625L12.7669 3.7662L12.7553 8.02428L12.7663 13.395L17.1574 9.00392L17.2429 8.93017C17.5411 8.70889 17.9643 8.73348 18.2347 9.00392C18.5052 9.27437 18.5297 9.69756 18.3085 9.99578L18.2347 10.0812L12.539 15.7769L12.4536 15.8506Z"/>
</svg>
