<svg width="73" height="73" viewBox="0 0 73 73" fill="currentColor" xmlns="http://www.w3.org/2000/svg">
<g filter="url(#filter0_d_19868_28461)">
<rect x="16.5" y="16.5" width="39.7222" height="39.7222" stroke="black" stroke-linejoin="bevel" shape-rendering="crispEdges"/>
<path fill-rule="evenodd" clip-rule="evenodd" d="M36.3607 21.4648C44.5874 21.4648 51.2565 28.1339 51.2565 36.3607C51.2565 44.5874 44.5874 51.2565 36.3607 51.2565C28.1339 51.2565 21.4648 44.5874 21.4648 36.3607C21.4648 28.1339 28.1339 21.4648 36.3607 21.4648ZM33.0505 29.3289C32.2017 29.3289 31.5021 29.9678 31.4065 30.7909L31.3954 30.984V41.7426C31.3954 42.0377 31.4742 42.3273 31.6238 42.5816C32.054 43.3133 32.9594 43.5924 33.7174 43.2576L33.8894 43.1694L43.0375 37.79C43.2802 37.6473 43.4825 37.445 43.6252 37.2023C44.0555 36.4706 43.8593 35.5437 43.1982 35.044L43.0375 34.9366L33.8894 29.5573C33.6351 29.4077 33.3455 29.3289 33.0505 29.3289Z" fill="white"/>
</g>
<defs>
<filter id="filter0_d_19868_28461" x="1.90735e-06" y="1.90735e-06" width="72.7227" height="72.7227" filterUnits="userSpaceOnUse" color-interpolation-filters="sRGB">
<feFlood flood-opacity="0" result="BackgroundImageFix"/>
<feColorMatrix in="SourceAlpha" type="matrix" values="0 0 0 0 0 0 0 0 0 0 0 0 0 0 0 0 0 0 127 0" result="hardAlpha"/>
<feOffset/>
<feGaussianBlur stdDeviation="8"/>
<feComposite in2="hardAlpha" operator="out"/>
<feColorMatrix type="matrix" values="0 0 0 0 0 0 0 0 0 0 0 0 0 0 0 0 0 0 0.4 0"/>
<feBlend mode="normal" in2="BackgroundImageFix" result="effect1_dropShadow_19868_28461"/>
<feBlend mode="normal" in="SourceGraphic" in2="effect1_dropShadow_19868_28461" result="shape"/>
</filter>
</defs>
</svg>
