<svg width="52" height="52" viewBox="0 0 52 52" fill="currentColor" xmlns="http://www.w3.org/2000/svg">
<path fill-rule="evenodd" clip-rule="evenodd" d="M26 6.5C36.7696 6.5 45.5 15.2304 45.5 26C45.5 36.7696 36.7696 45.5 26 45.5C15.2304 45.5 6.5 36.7696 6.5 26C6.5 15.2304 15.2304 6.5 26 6.5ZM26 9.75C34.9746 9.75 42.25 17.0254 42.25 26C42.25 34.9746 34.9746 42.25 26 42.25C17.0254 42.25 9.75 34.9746 9.75 26C9.75 17.0254 17.0254 9.75 26 9.75ZM21.6667 16.7947C20.5555 16.7947 19.6397 17.6311 19.5146 18.7087L19.5 18.9614V33.0455C19.5 33.4317 19.6032 33.8109 19.799 34.1438C20.3622 35.1016 21.5474 35.467 22.5397 35.0287L22.7649 34.9132L34.7405 27.8711C35.0583 27.6843 35.3231 27.4195 35.5099 27.1017C36.0732 26.1439 35.8164 24.9305 34.9509 24.2764L34.7405 24.1357L22.7649 17.0937C22.432 16.8979 22.0529 16.7947 21.6667 16.7947Z" fill="white"/>
</svg>
