<?xml version="1.0" encoding="UTF-8"?>
<svg width="24" height="24" viewBox="0 0 24 24" fill="none" xmlns="http://www.w3.org/2000/svg">
  <title>Icon/Bell added/Outline</title>
  <g>
    <g>
      <path d="M15.25 3C15.6642 3 16 3.33579 16 3.75V6.25H18.5C18.9142 6.25 19.25 6.58579 19.25 7C19.25 7.41421 18.9142 7.75 18.5 7.75H16V10.25C16 10.6642 15.6642 11 15.25 11C14.8358 11 14.5 10.6642 14.5 10.25V7.75H12C11.5858 7.75 11.25 7.41421 11.25 7C11.25 6.58579 11.5858 6.25 12 6.25H14.5V3.75C14.5 3.33579 14.8358 3 15.25 3Z" fill="currentColor"/>
      <path d="M7.18506 11.1697C7.43731 9.51019 8.42927 8.13013 9.90602 7.40696C10.2802 7.22933 10.4396 6.78199 10.2619 6.4078C10.0843 6.0336 9.63696 5.87426 9.26276 6.05189C8.05741 6.62407 7.04607 7.55405 6.39455 8.74846C6.25659 8.9898 6.14243 9.2403 6.04798 9.49654C5.7536 10.2586 5.59499 11.1055 5.6058 12.0183V12.249C5.59686 12.6159 5.59948 12.9838 5.6058 13.3419V14.0558L5.48794 14.0979L5.32344 14.169C4.51958 14.5522 4 15.3421 4 16.245C4 17.4145 4.87197 18.3953 6.02432 18.5395L6.21951 18.5546L8.366 18.556L8.46005 18.7679C9.06462 20.0201 10.2957 20.8923 11.7414 20.9866L11.9513 20.9942L12.2088 20.989L12.4156 20.9705L12.6402 20.9384C13.9748 20.7098 15.0666 19.8402 15.5946 18.6652L15.639 18.557L17.6875 18.5575L17.8824 18.5483L18.0499 18.5223C19.2055 18.3058 20 17.3613 20 16.245L19.9941 16.0793L19.9753 15.9065C19.8497 15.0518 19.2552 14.3424 18.4507 14.0616L18.4043 14.0469C18.4047 14.0365 18.405 14.0262 18.405 14.0157L18.4073 13.3214C18.4125 13.0191 18.4126 12.7093 18.4073 12.3974V12.3951V11.816C18.4073 11.4018 18.0435 11.0706 17.6293 11.0706C17.2151 11.0706 16.8711 11.4061 16.8711 11.8203V14.02C16.8711 14.0456 16.8724 14.0708 16.875 14.0957V14.62L16.8814 14.7225L16.9026 14.8308C16.9781 15.1126 17.2013 15.3339 17.4841 15.4068L17.5927 15.427L17.7894 15.4388L17.8963 15.4595C18.2438 15.5517 18.5 15.8684 18.5 16.245C18.5 16.6215 18.2438 16.9383 17.8963 17.0304L17.7894 17.0511L17.6875 17.0575H14.4375L14.4319 17.2246L14.4141 17.3969C14.2636 18.4765 13.4062 19.3297 12.3245 19.4736L12.1603 19.4898L12 19.495L11.839 19.4897L11.6737 19.4733C10.5827 19.3274 9.72014 18.4597 9.58188 17.3663L9.56664 17.2007L9.5625 17.0575H6.3125L6.21058 17.0511L6.10373 17.0304C5.75616 16.9383 5.5 16.6215 5.5 16.245C5.5 15.863 5.76356 15.5426 6.11874 15.4557L6.21775 15.4379L6.41442 15.4261L6.52127 15.4054C6.83408 15.3225 7.07285 15.0576 7.11748 14.731L7.12157 14.6707C7.1281 14.6293 7.13124 14.5868 7.1307 14.5435C7.12927 14.4278 7.12728 14.3125 7.125 14.1976V13.9885C7.12503 13.9859 7.12504 13.9832 7.12504 13.9805V11.8212C7.12542 11.81 7.12583 11.7989 7.12627 11.7878C7.1305 11.7208 7.13533 11.654 7.14081 11.5873C7.15255 11.4446 7.16717 11.3054 7.18506 11.1697Z" fill="currentColor"/>
    </g>
  </g>
</svg>
