<?xml version="1.0" encoding="UTF-8"?>
<svg width="20px" height="20px" viewBox="0 0 20 20" version="1.1" xmlns="http://www.w3.org/2000/svg" xmlns:xlink="http://www.w3.org/1999/xlink">
    <title>DefaultSquadIcon</title>
    <g id="Squad-Close-Beta" stroke="none" stroke-width="1" fill="none" fill-rule="evenodd">
        <g id="Squad/Sidebar" transform="translate(-718.000000, -490.000000)">
            <g id="Sidebar" transform="translate(706.000000, 418.000000)">
                <g id="Feeds" transform="translate(0.000000, 40.000000)">
                    <g id="Squad" transform="translate(0.000000, 28.000000)">
                        <g id="DefaultSquadIcon" transform="translate(12.000000, 4.000000)">
                            <rect id="Profile-image" fill="#CE3DF3" x="0" y="0" width="20" height="20" rx="10"></rect>
                            <g id="Icon" transform="translate(4.000000, 5.000000)" fill="#FFFFFF">
                                <path d="M7.85008411,5.79644133 C8.37345688,5.79659139 8.89682965,5.8844983 9.42020241,6.06016514 L9.64450503,6.14082399 L9.80215714,6.21556598 L9.95548219,6.29604674 C11.1140529,6.93462428 11.879587,8.06397999 11.9868025,9.334735 L11.997032,9.50125882 L11.998,9.556 L11.9942741,9.61382776 L11.9782184,9.68203176 C11.9291016,9.83657322 11.8005629,9.95655526 11.6378208,9.99249309 L11.566112,10.0026051 L4.13587283,10.0019138 L4.08987351,9.99875776 L4.02166904,9.98270776 C3.86712191,9.93363254 3.74709438,9.80542699 3.71079388,9.64535042 L3.70050613,9.57493309 L3.70292074,9.48460128 L3.71391674,9.31894058 C3.83641235,7.94488122 4.7261005,6.73787624 6.05566319,6.13981686 C6.6538035,5.91073416 7.2519438,5.79627668 7.85008411,5.79644133 Z M3.89183212,6.0808436 C3.99282083,6.0808436 4.09380954,6.08438817 4.19391589,6.09243842 L4.07310467,6.20987263 C3.22694873,7.05997054 2.71886312,8.17114063 2.66636024,9.37263942 L2.663,9.522 L2.66327822,9.53410467 L2.67589391,9.65656 C2.68789444,9.74208949 2.70632459,9.82497379 2.73065994,9.90473533 L2.76329742,10.000606 L0.409737886,10.000606 L0.366613269,9.99762467 L0.30267119,9.982578 C0.157782371,9.9365697 0.0452558817,9.81637603 0.0112239566,9.66630333 L0.002,9.604 L0.00384284214,9.53851472 L0.0141516554,9.38320687 C0.128991988,8.0950184 0.963079694,6.96344435 2.20955228,6.40276028 C2.77031223,6.18799394 3.33107217,6.0806894 3.89183212,6.0808436 Z M3.89083818,0.646646777 C2.72687841,0.646646777 1.78330258,1.59022261 1.78330258,2.75418238 C1.78330258,3.50238292 2.17318791,4.15952086 2.76087348,4.5335111 C3.08795411,4.74148982 3.47535575,4.86171798 3.89083818,4.86171798 C4.20245,4.86171798 4.49826638,4.79408964 4.76441077,4.67270951 L4.89494605,4.60760437 L5.02041806,4.53313394 L5.12831198,4.45980592 C5.19943862,4.40818167 5.2672055,4.35221723 5.33122515,4.29230163 C4.84458245,3.71280343 4.56344991,2.97080616 4.56344991,2.18135765 C4.56344991,1.77245087 4.63814864,1.3809909 4.77464459,1.01987925 L4.83526201,0.870741914 C4.55252128,0.727280695 4.23109626,0.646646777 3.89083818,0.646646777 Z M7.84902392,0 C6.60747437,0 5.6009996,1.00647477 5.6009996,2.24802432 C5.6009996,3.04610005 6.01687476,3.74704292 6.64373556,4.14596342 C6.99261945,4.36780605 7.40584535,4.49604864 7.84902392,4.49604864 C8.18140784,4.49604864 8.4969434,4.42391218 8.78082902,4.29444083 L8.92006581,4.22499577 L9.05390181,4.14556113 L9.16898795,4.06734505 C9.73153296,3.65904564 10.0970482,2.99622031 10.0970482,2.24802432 C10.0970482,1.00647477 9.09057347,0 7.84902392,0 Z" id="Combined-Shape"></path>
                            </g>
                        </g>
                    </g>
                </g>
            </g>
        </g>
    </g>
</svg>
