<?xml version="1.0" encoding="UTF-8"?>
<svg width="24px" height="24px" viewBox="0 0 24 24" version="1.1" xmlns="http://www.w3.org/2000/svg" xmlns:xlink="http://www.w3.org/1999/xlink">
    <title>Icon/Copy/Filled</title>
    <g id="Icon/Copy/Filled" stroke="none" stroke-width="1" fill="none" fill-rule="evenodd">
        <path d="M7.247667,9.5 C7.66188056,9.5 7.997667,9.83578644 7.997667,10.25 C7.997667,10.6296958 7.71551256,10.943491 7.349437,10.9931534 L7.247667,11 C6.60166636,11 6.07033501,11.4909566 6.006442,12.1201001 L6,12.2476668 L6,16.75 C6,17.3972087 6.4918749,17.9295335 7.122195,17.993546 L7.25,18 L11.7476668,18 C12.3948755,18 12.9272007,17.5081251 12.9912132,16.877805 L12.9976668,16.75 C12.9976668,16.3357864 13.3334532,16 13.7476668,16 C14.1618804,16 14.4976668,16.3357864 14.4976668,16.75 C14.4976668,18.2125318 13.3559622,19.4084041 11.9151891,19.494981 L11.7476668,19.5 L7.25,19.5 C5.78746816,19.5 4.59159593,18.3582951 4.505019,16.917522 L4.5,16.75 L4.5,12.2476668 C4.5,10.7301723 5.73017253,9.5 7.247667,9.5 Z M17.0001305,4.5 C18.3255447,4.5 19.4100434,5.53153594 19.4946826,6.83562431 L19.5,7 L19.5,12 C19.5,13.3254834 18.4685179,14.4100387 17.1644976,14.4946823 L17.0001305,14.5 L11.9998695,14.5 C10.6744553,14.5 9.58995663,13.4684641 9.5053174,12.1643757 L9.5,12 L9.5,7 C9.5,5.6745166 10.5314821,4.58996133 11.8355024,4.50531768 L11.9998695,4.5 L17.0001305,4.5 Z" id="Shape" fill="#FFFFFF"></path>
    </g>
</svg>