<?xml version="1.0" encoding="UTF-8"?>
<svg width="24px" height="24px" viewBox="0 0 24 24" version="1.1" xmlns="http://www.w3.org/2000/svg" xmlns:xlink="http://www.w3.org/1999/xlink">
    <title>Icon/Copy/Outline</title>
    <g id="Icon/Copy/Outline" stroke="none" stroke-width="1" fill="none" fill-rule="evenodd">
        <path d="M6.09112537,8.625 C6.55711563,8.625 6.93487537,9.00275974 6.93487537,9.46875 C6.93487537,9.89590774 6.61745163,10.2489273 6.20561663,10.3047976 L6.09112537,10.3125 C5.36437466,10.3125 4.76662689,10.8648261 4.69474725,11.5726126 L4.6875,11.7161252 L4.6875,17.90625 C4.6875,18.6343598 5.24085927,19.2332252 5.94996937,19.3052393 L6.09375,19.3125 L12.2786252,19.3125 C13.0067349,19.3125 13.6056008,18.7591407 13.6776148,18.0500306 L13.6848752,17.90625 C13.6848752,17.4402597 14.0626349,17.0625 14.5286252,17.0625 C14.9946154,17.0625 15.3723752,17.4402597 15.3723752,17.90625 C15.3723752,19.5515983 14.0879575,20.8969546 12.4670878,20.9943536 L12.2786252,21 L6.09375,21 C4.44840168,21 3.10304542,19.715582 3.00564638,18.0947122 L3,17.90625 L3,11.7161252 C3,10.0089439 4.38394409,8.625 6.09112537,8.625 Z M17.9055637,3 C19.5509121,3 20.8962686,4.28441767 20.9936676,5.90528738 L20.9993137,6.09375 L20.9993137,12.28125 C20.9993137,13.9265983 19.7148961,15.2719548 18.0940264,15.3693539 L17.9055637,15.375 L11.7174178,15.375 C10.0720695,15.375 8.72671303,14.0905823 8.62931399,12.4697126 L8.62366785,12.28125 L8.62366785,6.09375 C8.62366785,4.44840168 9.90808552,3.10304519 11.5289552,3.00564614 L11.7174178,3 L17.9055637,3 Z M17.9055637,4.6875 L11.7174178,4.6875 C10.9893081,4.6875 10.3904422,5.240859 10.3184282,5.94996911 L10.3111678,6.09375 L10.3111678,12.28125 C10.3111678,13.0093598 10.8645268,13.6082256 11.573637,13.6802397 L11.7174178,13.6875 L17.9055638,13.6875 C18.6336735,13.6875 19.2325394,13.134141 19.3045534,12.4250309 L19.3118138,12.28125 L19.3118138,6.09375 C19.3118138,5.36564022 18.7584548,4.76677436 18.0493446,4.69476031 L17.9055637,4.6875 Z" id="Shape" fill="#FFFFFF"></path>
    </g>
</svg>