<?xml version="1.0" encoding="UTF-8"?>
<svg width="24px" height="24px" viewBox="0 0 24 24" version="1.1" xmlns="http://www.w3.org/2000/svg" xmlns:xlink="http://www.w3.org/1999/xlink">
    <title>Icon/Copy/Outline</title>
    <g id="Icon/Copy/Outline" stroke="none" stroke-width="1" fill="none" fill-rule="evenodd">
        <path d="M6.747667,9 C7.16188056,9 7.497667,9.33578644 7.497667,9.75 C7.497667,10.1296958 7.21551256,10.443491 6.849437,10.4931534 L6.747667,10.5 C6.10166636,10.5 5.57033501,10.9909566 5.506442,11.6201001 L5.5,11.7476668 L5.5,17.25 C5.5,17.8972087 5.9918749,18.4295335 6.622195,18.493546 L6.75,18.5 L12.2476668,18.5 C12.8948755,18.5 13.4272007,18.0081251 13.4912132,17.377805 L13.4976668,17.25 C13.4976668,16.8357864 13.8334532,16.5 14.2476668,16.5 C14.6618804,16.5 14.9976668,16.8357864 14.9976668,17.25 C14.9976668,18.7125318 13.8559622,19.9084041 12.4151891,19.994981 L12.2476668,20 L6.75,20 C5.28746816,20 4.09159593,18.8582951 4.005019,17.417522 L4,17.25 L4,11.7476668 C4,10.2301723 5.23017253,9 6.747667,9 Z M17.24939,4 C18.7119218,4 19.9077943,5.1417046 19.9943712,6.58247767 L19.99939,6.75 L19.99939,12.25 C19.99939,13.7125318 18.8576854,14.9084043 17.4169123,14.9949812 L17.24939,15 L11.7488159,15 C10.286284,15 9.09041159,13.8582954 9.00383466,12.4175223 L8.99881587,12.25 L8.99881587,6.75 C8.99881587,5.28746816 10.1405205,4.09159572 11.5812935,4.00501879 L11.7488159,4 L17.24939,4 Z M17.24939,5.5 L11.7488159,5.5 C11.1016072,5.5 10.569282,5.99187466 10.5052695,6.62219476 L10.4988159,6.75 L10.4988159,12.25 C10.4988159,12.8972087 10.9906905,13.4295339 11.6210106,13.4935464 L11.7488159,13.5 L17.24939,13.5 C17.8965987,13.5 18.4289239,13.0081253 18.4929364,12.3778052 L18.49939,12.25 L18.49939,6.75 C18.49939,6.10279131 18.0075153,5.5704661 17.3771952,5.50645361 L17.24939,5.5 Z" id="Shape" fill="#FFFFFF"></path>
    </g>
</svg>