<?xml version="1.0" encoding="UTF-8"?>
<svg width="24px" height="24px" viewBox="0 0 24 24" version="1.1" xmlns="http://www.w3.org/2000/svg" xmlns:xlink="http://www.w3.org/1999/xlink">
    <title>Icon/Source/Filled 2</title>
    <g id="Icon/Source/Filled" stroke="none" stroke-width="1" fill="none" fill-rule="evenodd">
        <path d="M14.4842327,16.6717615 L14.1765767,16.7024811 C13.4735227,16.7664214 12.7455844,16.8 12,16.8 C11.1446703,16.8 10.3125639,16.7558087 9.51460871,16.6722831 C9.71166209,17.4960926 9.95911703,18.2495338 10.2507482,18.905704 C10.8878909,20.3392749 11.5821707,21 12,21 C12.4178293,21 13.1121091,20.3392749 13.7492518,18.905704 C14.040883,18.2495338 14.2883379,17.4960926 14.4842327,16.6717615 Z M3.49755524,14.9600983 L3.53136749,15.0539138 C4.44924112,17.5987841 6.48160479,19.6110741 9.03936933,20.5016946 C8.42658873,19.41997 7.933327,18.0088177 7.61250723,16.3868672 C5.99118226,16.066673 4.58003003,15.5734113 3.49755524,14.9600983 Z M20.5016946,14.9606307 L20.333805,15.0532457 C19.2750831,15.6234121 17.9258695,16.0830801 16.3868672,16.3874928 C16.066673,18.0088177 15.5734113,19.41997 14.9600983,20.5024448 C17.549568,19.6002197 19.6002197,17.549568 20.5016946,14.9606307 Z M12,9 C11.026014,9 10.0774446,9.06216283 9.17950413,9.17943179 C9.06216283,10.0774446 9,11.026014 9,12 C9,12.973986 9.06216283,13.9225554 9.17943179,14.8204959 C10.0774446,14.9378372 11.026014,15 12,15 C12.973986,15 13.9225554,14.9378372 14.8204959,14.8205682 C14.9378372,13.9225554 15,12.973986 15,12 C15,11.026014 14.9378372,10.0774446 14.8205682,9.17950413 C13.9225554,9.06216283 12.973986,9 12,9 Z M7.32771693,9.51460871 L6.94273696,9.61250181 C6.26813667,9.79099914 5.64674172,10.0052168 5.094296,10.2507482 C3.76538181,10.8413768 3.10059039,11.4811045 3.01060785,11.9041998 L3,11.9855042 L3,12.0132 L3.00688156,12.0765364 C3.08040657,12.4993116 3.74505281,13.1495881 5.094296,13.7492518 C5.75046623,14.040883 6.5039074,14.2883379 7.32823849,14.4842327 C7.24419128,13.6874361 7.2,12.8553297 7.2,12 C7.2,11.3585028 7.22485759,10.7300686 7.27252377,10.1193077 L7.32771693,9.51460871 Z M16.6717615,9.51576726 L16.6858653,9.64818242 C16.7605917,10.4052768 16.8,11.1922836 16.8,12 C16.8,12.8553297 16.7558087,13.6874361 16.6722831,14.4853913 C17.4960926,14.2883379 18.2495338,14.040883 18.905704,13.7492518 C20.3392749,13.1121091 21,12.4178293 21,12 C21,11.5821707 20.3392749,10.8878909 18.905704,10.2507482 C18.2495338,9.95911703 17.4960926,9.71166209 16.6717615,9.51576726 Z M9.03990167,3.49755524 L8.94608625,3.53136749 C6.40081823,4.44938454 4.38829703,6.48223993 3.49788803,9.04056832 C4.40678949,8.52469993 5.54836753,8.09409782 6.85207869,7.77933408 L7.47583946,7.64017826 L7.61250723,7.61313279 C7.933327,5.99118226 8.42658873,4.58003003 9.03990167,3.49755524 Z M14.9594317,3.49788803 L15.0413766,3.64422708 C15.5207374,4.52857447 15.9226288,5.61764687 16.2206659,6.85207869 L16.3598217,7.47583946 L16.3868672,7.61250723 C18.0088177,7.933327 19.41997,8.42658873 20.5024448,9.03990167 C19.6000805,6.45003239 17.5489348,4.3991472 14.9594317,3.49788803 Z M12,3 C11.5821707,3 10.8878909,3.66072511 10.2507482,5.094296 C9.95911703,5.75046623 9.71166209,6.5039074 9.51576726,7.32823849 C10.3122173,7.24420969 11.1444922,7.2 12,7.2 C12.8553297,7.2 13.6874361,7.24419128 14.4853913,7.32771693 C14.2883379,6.5039074 14.040883,5.75046623 13.7492518,5.094296 C13.1495881,3.74505281 12.4993116,3.08040657 12.0765364,3.00688156 L12,3 Z" id="Shape" fill="#FFFFFF"></path>
    </g>
</svg>