<?xml version="1.0" encoding="UTF-8"?>
<svg width="24px" height="24px" viewBox="0 0 24 24" version="1.1" xmlns="http://www.w3.org/2000/svg" xmlns:xlink="http://www.w3.org/1999/xlink">
    <title>Icon/Source/Outline 2</title>
    <g id="Icon/Source/Outline" stroke="none" stroke-width="1" fill="none" fill-rule="evenodd">
        <path d="M12,3 C16.9705627,3 21,7.02943725 21,12 C21,16.9705627 16.9705627,21 12,21 C7.02943725,21 3,16.9705627 3,12 C3,7.02943725 7.02943725,3 12,3 Z M14.070194,15.8931346 L13.8138139,15.9187342 C13.2279356,15.9720178 12.6213203,16 12,16 C11.2872253,16 10.5938032,15.9631739 9.92884059,15.8935692 C10.0930517,16.5800772 10.2992642,17.2079448 10.5422902,17.7547533 C11.0732424,18.9493957 11.6518089,19.5 12,19.5 C12.3481911,19.5 12.9267576,18.9493957 13.4577098,17.7547533 C13.7007358,17.2079448 13.9069483,16.5800772 14.070194,15.8931346 Z M4.91462937,14.4667486 L4.94280624,14.5449281 C5.70770093,16.6656534 7.40133733,18.3425618 9.53280777,19.0847455 C9.02215727,18.1833083 8.61110584,17.0073481 8.34375602,15.6557227 C6.99265188,15.3888942 5.81669169,14.9778427 4.91462937,14.4667486 Z M19.0847455,14.4671922 L18.9448375,14.5443714 C18.0625692,15.0195101 16.9382246,15.4025667 15.6557227,15.656244 C15.3888942,17.0073481 14.9778427,18.1833083 14.4667486,19.0853706 C16.62464,18.3335164 18.3335164,16.62464 19.0847455,14.4671922 Z M12,9.5 C11.188345,9.5 10.3978705,9.55180236 9.64958677,9.64952649 C9.55180236,10.3978705 9.5,11.188345 9.5,12 C9.5,12.811655 9.55180236,13.6021295 9.64952649,14.3504132 C10.3978705,14.4481976 11.188345,14.5 12,14.5 C12.811655,14.5 13.6021295,14.4481976 14.3504132,14.3504735 C14.4481976,13.6021295 14.5,12.811655 14.5,12 C14.5,11.188345 14.4481976,10.3978705 14.3504735,9.64958677 C13.6021295,9.55180236 12.811655,9.5 12,9.5 Z M8.10643077,9.92884059 L7.78561414,10.0104182 C7.22344722,10.1591659 6.7056181,10.3376807 6.24524667,10.5422902 C5.13781818,11.0344806 4.58382532,11.5675871 4.50883988,11.9201665 L4.5,11.9879202 L4.5,12.011 L4.50573463,12.0637803 C4.56700548,12.416093 5.12087734,12.9579901 6.24524667,13.4577098 C6.79205519,13.7007358 7.41992284,13.9069483 8.10686541,14.070194 C8.03682607,13.4061968 8,12.7127747 8,12 C8,11.465419 8.02071466,10.9417238 8.06043648,10.4327564 L8.10643077,9.92884059 Z M15.8931346,9.92980605 L15.9048878,10.040152 C15.9671598,10.671064 16,11.326903 16,12 C16,12.7127747 15.9631739,13.4061968 15.8935692,14.0711594 C16.5800772,13.9069483 17.2079448,13.7007358 17.7547533,13.4577098 C18.9493957,12.9267576 19.5,12.3481911 19.5,12 C19.5,11.6518089 18.9493957,11.0732424 17.7547533,10.5422902 C17.2079448,10.2992642 16.5800772,10.0930517 15.8931346,9.92980605 Z M9.5332514,4.91462937 L9.45507187,4.94280624 C7.33401519,5.70782045 5.65691419,7.40186661 4.91490669,9.53380693 C5.67232458,9.10391661 6.62363961,8.74508151 7.71006558,8.4827784 L8.22986622,8.36681522 L8.34375602,8.34427732 C8.61110584,6.99265188 9.02215727,5.81669169 9.5332514,4.91462937 Z M14.4661931,4.91490669 L14.5344805,5.0368559 C14.9339479,5.77381206 15.2688573,6.68137239 15.5172216,7.71006558 L15.6331848,8.22986622 L15.6557227,8.34375602 C17.0073481,8.61110584 18.1833083,9.02215727 19.0853706,9.5332514 C18.3334005,7.37502699 16.6241124,5.665956 14.4661931,4.91490669 Z M12,4.5 C11.6518089,4.5 11.0732424,5.05060426 10.5422902,6.24524667 C10.2992642,6.79205519 10.0930517,7.41992284 9.92980605,8.10686541 C10.5935144,8.0368414 11.2870769,8 12,8 C12.7127747,8 13.4061968,8.03682607 14.0711594,8.10643077 C13.9069483,7.41992284 13.7007358,6.79205519 13.4577098,6.24524667 C12.9579901,5.12087734 12.416093,4.56700548 12.0637803,4.50573463 L12,4.5 Z" id="Shape" fill="#FFFFFF"></path>
    </g>
</svg>