<svg width="20" height="20" viewBox="0 0 20 20" fill="none" xmlns="http://www.w3.org/2000/svg">
<path d="M2.5 14.1668V5.8335H4.16667V9.16683H7.5V5.8335H9.16667V14.1668H7.5V10.8335H4.16667V14.1668H2.5ZM10.8333 14.1668V10.8335C10.8333 10.3752 10.9965 9.9828 11.3229 9.65641C11.6493 9.33002 12.0417 9.16683 12.5 9.16683H15.8333V7.50016H10.8333V5.8335H15.8333C16.2917 5.8335 16.684 5.99669 17.0104 6.32308C17.3368 6.64947 17.5 7.04183 17.5 7.50016V9.16683C17.5 9.62516 17.3368 10.0175 17.0104 10.3439C16.684 10.6703 16.2917 10.8335 15.8333 10.8335H12.5V12.5002H17.5V14.1668H10.8333Z" fill="currentColor"/>
</svg>
