<svg width="24" height="24" viewBox="0 0 24 24" xmlns="http://www.w3.org/2000/svg">
<g id="Filled=yes">
<path id="Shape" fill-rule="evenodd" clip-rule="evenodd" d="M20 13.5C20.5128 13.5 20.9355 13.886 20.9933 14.3834L21 14.5V16.25C21 18.7175 19.1141 20.758 16.6835 20.9802L16.4676 20.995L16.25 21L7.75 21C5.28247 21 3.24198 19.1141 3.01981 16.6835L3.00496 16.4676L3 16.25L3 14.5C3 13.9477 3.44772 13.5 4 13.5C4.51284 13.5 4.93551 13.886 4.99327 14.3834L5 14.5L5 16.25C5 17.6502 6.04966 18.8147 7.40942 18.9797L7.58095 18.995L7.75 19L16.25 19C17.6502 19 18.8147 17.9503 18.9797 16.5906L18.995 16.4191L19 16.25V14.5C19 13.9477 19.4477 13.5 20 13.5ZM11.3981 3.19863C11.7651 2.92632 12.2675 2.93642 12.6227 3.21404L12.7157 3.29638L18.4239 9.00545L18.5092 9.10529C18.8062 9.50565 18.7672 10.0671 18.4114 10.4229C18.0467 10.7876 17.4728 10.8157 17.0759 10.5071L16.9806 10.4229L13.0119 6.45404L13.0028 9.1682L13.012 14.9842C13.012 15.5085 12.6165 15.939 12.1083 15.994L11.9958 16C11.4733 15.999 11.0438 15.6027 10.9898 15.0947L10.984 14.9842L10.9954 9.22657L10.9859 6.45604L7.00667 10.4354L6.90683 10.5206C6.50647 10.8177 5.94502 10.7787 5.58923 10.4229C5.22451 10.0582 5.19645 9.48426 5.50506 9.08736L5.58923 8.99204L11.2983 3.28391L11.3981 3.19863Z" fill="#ffffff"/>
</g>
</svg>
