<svg width="24" height="24" viewBox="0 0 24 24" xmlns="http://www.w3.org/2000/svg">
<g id="Filled=no">
<path id="Shape" fill-rule="evenodd" clip-rule="evenodd" d="M20.25 14C20.6642 14 21 14.3358 21 14.75V16.5C21 18.9143 19.0988 20.8845 16.7118 20.9951L16.5 21H7.5C5.08573 21 3.11551 19.0988 3.0049 16.7118L3 16.5V14.75C3 14.3358 3.33579 14 3.75 14C4.16421 14 4.5 14.3358 4.5 14.75V16.5C4.5 18.0977 5.74892 19.4037 7.32373 19.4949L7.5 19.5H16.5C18.0977 19.5 19.4037 18.2511 19.4949 16.6763L19.5 16.5V14.75C19.5 14.3358 19.8358 14 20.25 14ZM11.5472 3.14936C11.8156 2.95021 12.1853 2.95021 12.4537 3.14936L12.5391 3.22311L18.2348 8.91878L18.3085 9.00422C18.5298 9.30243 18.5052 9.72563 18.2348 9.99607C17.9643 10.2665 17.5411 10.2911 17.2429 10.0698L17.1575 9.99607L12.7649 5.60349L12.7532 10.9298L12.7626 15.2338C12.7626 15.6224 12.475 15.9424 12.1018 15.993L11.996 16C11.6091 15.9989 11.2902 15.7106 11.2406 15.3375L11.2339 15.2338L11.2455 10.9757L11.2345 5.60497L6.84343 9.99607L6.75799 10.0698C6.45977 10.2911 6.03657 10.2665 5.76613 9.99607C5.49569 9.72563 5.4711 9.30243 5.69237 9.00422L5.76613 8.91878L11.4618 3.22311L11.5472 3.14936Z" fill="#ffffff"/>
</g>
</svg>
