<?xml version="1.0" encoding="UTF-8"?>
<svg width="24px" height="24px" viewBox="0 0 24 24" version="1.1" xmlns="http://www.w3.org/2000/svg">
    <title>Icon/Redo/Outline</title>
    <g id="Icon/Redo/Outline" stroke="none" stroke-width="1" fill="none" fill-rule="evenodd">
        <path d="M16.5857864,11 L10,11 C6.6862915,11 4,13.6862915 4,17 C4,17.5522847 4.44771525,18 5,18 C5.55228475,18 6,17.5522847 6,17 C6,14.790861 7.790861,13 10,13 L16.5857864,13 L14.2928932,15.2928932 C13.9023689,15.6834175 13.9023689,16.3165825 14.2928932,16.7071068 C14.6834175,17.0976311 15.3165825,17.0976311 15.7071068,16.7071068 L19.7071068,12.7071068 C20.0976311,12.3165825 20.0976311,11.6834175 19.7071068,11.2928932 L15.7071068,7.29289322 C15.3165825,6.90236893 14.6834175,6.90236893 14.2928932,7.29289322 C13.9023689,7.68341751 13.9023689,8.31658249 14.2928932,8.70710678 L16.5857864,11 Z" fill="currentColor" fill-rule="nonzero"></path>
    </g>
</svg>
