<?xml version="1.0" encoding="UTF-8"?>
<svg width="24px" height="24px" viewBox="0 0 24 24" version="1.1" xmlns="http://www.w3.org/2000/svg" xmlns:xlink="http://www.w3.org/1999/xlink">
    <title>Icon/ListCard/Filled</title>
    <g id="Icon/ListCard/Filled" stroke="none" stroke-width="1" fill="none" fill-rule="evenodd">
        <path d="M8,14 L6,14 C4.95356574,14 4.09483517,14.8036551 4.00734119,15.8274323 L4,16 L4,18 C4,19.0464343 4.80365508,19.9051648 5.82743234,19.9926588 L6,20 L8,20 L8.17256766,19.9926588 C9.13612273,19.9103115 9.90469068,19.1447927 9.99177633,18.1825976 L10,18 L10,16 C10,14.9535657 9.19634492,14.0948352 8.17256766,14.0073412 L8,14 Z M18,14 L16,14 C14.9535657,14 14.0948352,14.8036551 14.0073412,15.8274323 L14,16 L14,18 C14,19.0464343 14.8036551,19.9051648 15.8274323,19.9926588 L16,20 L18,20 L18.1725677,19.9926588 C19.1361227,19.9103115 19.9046907,19.1447927 19.9917763,18.1825976 L20,18 L20,16 C20,14.9535657 19.1963449,14.0948352 18.1725677,14.0073412 L18,14 Z M8,4 L6,4 C4.95356574,4 4.09483517,4.80365508 4.00734119,5.82743234 L4,6 L4,8 C4,9.04643426 4.80365508,9.90516483 5.82743234,9.99265881 L6,10 L8,10 L8.17256766,9.99265881 C9.13612273,9.91031153 9.90469068,9.14479275 9.99177633,8.18259762 L10,8 L10,6 C10,4.95356574 9.19634492,4.09483517 8.17256766,4.00734119 L8,4 Z M18,4 L16,4 C14.9535657,4 14.0948352,4.80365508 14.0073412,5.82743234 L14,6 L14,8 C14,9.04643426 14.8036551,9.90516483 15.8274323,9.99265881 L16,10 L18,10 L18.1725677,9.99265881 C19.1361227,9.91031153 19.9046907,9.14479275 19.9917763,8.18259762 L20,8 L20,6 C20,4.95356574 19.1963449,4.09483517 18.1725677,4.00734119 L18,4 Z" id="Combined-Shape" fill="#FFFFFF"></path>
    </g>
</svg>
