<svg preserveAspectRatio="none" width="100%" height="100%" overflow="visible" style="display: block;" viewBox="0 0 54.75 60.225" fill="none" xmlns="http://www.w3.org/2000/svg">
<path id="Shape" fill-rule="evenodd" clip-rule="evenodd" d="M19.454 60.225C19.454 60.225 19.445 58.3113 19.4278 56.5484C19.41 54.7855 19.4016 53.2476 19.4016 51.9353L18.2078 52.1416C17.4466 52.2809 16.4864 52.3399 15.3271 52.3232C14.1683 52.307 12.9654 52.1857 11.7199 51.9602C10.4739 51.7367 9.31499 51.2183 8.24223 50.4061C7.17001 49.594 6.40884 48.5308 5.95891 47.2184L5.43989 46.0255C5.09393 45.2313 4.54928 44.349 3.8052 43.382C3.06112 42.414 2.30868 41.7578 1.54751 41.4123L1.18411 41.1524C0.94196 40.9798 0.717264 40.7715 0.509474 40.5298C0.301866 40.2881 0.146433 40.0463 0.0426295 39.8041C-0.0613562 39.5617 0.0248138 39.3628 0.302048 39.2069C0.579283 39.0509 1.0803 38.9752 1.8073 38.9752L2.84497 39.1301C3.53706 39.2686 4.39312 39.6824 5.41425 40.374C6.43484 41.0651 7.27382 41.9635 7.93136 43.0689C8.72761 44.4863 9.68694 45.5663 10.8121 46.3095C11.9363 47.0527 13.0697 47.4236 14.2114 47.4236C15.3531 47.4236 16.3391 47.3372 17.1699 47.1652C17.9998 46.9924 18.7784 46.7325 19.5054 46.3872C19.8168 44.0707 20.6647 42.2911 22.0483 41.0471C20.0762 40.8401 18.3032 40.5284 16.7283 40.1138C15.1544 39.6988 13.5279 39.0251 11.8499 38.0911C10.1711 37.1584 8.77833 36.0001 7.6714 34.6183C6.56428 33.2358 5.65567 31.4208 4.94686 29.1749C4.23769 26.9282 3.88301 24.3364 3.88301 21.3989C3.88301 17.2163 5.25009 13.6571 7.98372 10.7193C6.70317 7.5748 6.82406 4.04973 8.34676 0.144452C9.35026 -0.166946 10.8384 0.0667387 12.8105 0.844054C14.783 1.62173 16.2271 2.28793 17.1445 2.84027C18.0618 3.39244 18.7968 3.86035 19.3505 4.23984C22.5692 3.3416 25.8907 2.89238 29.316 2.89238C32.7414 2.89238 36.0637 3.3416 39.2825 4.23984L41.2548 2.99624C42.6035 2.16645 44.1962 1.40602 46.029 0.714774C47.863 0.0238873 49.2653 -0.166402 50.2346 0.144997C51.7911 4.05046 51.9298 7.57534 50.6489 10.7198C53.3824 13.6577 54.75 17.2178 54.75 21.3994C54.75 24.3369 54.3941 26.9369 53.686 29.2009C52.977 31.4653 52.0606 33.2785 50.9363 34.6443C49.8109 36.0099 48.4092 37.1591 46.7313 38.0916C45.053 39.0249 43.4259 39.6986 41.852 40.1136C40.2773 40.5287 38.5042 40.8407 36.5321 41.048C38.3308 42.6027 39.2303 45.0566 39.2303 48.4088V60.225H19.454Z" fill="var(--fill-0, white)"/>
</svg>
