<svg width="24" height="24" viewBox="0 0 24 24" fill="currentColor" xmlns="http://www.w3.org/2000/svg">
  <path d="M14.1 2.7L19.8333 7C21.1666 8 21.1666 10 19.8333 11L19.1666 11.5L19.8333 12C21.1666 13 21.1666 15 19.8333 16L14.1 20.3C12.8555 21.2333 11.1444 21.2333 9.89996 20.3L4.16663 16C2.83329 15 2.83329 13 4.16663 12L4.8333 11.5L4.16663 11C2.83329 10 2.83329 8 4.16663 7L9.89996 2.7C11.1444 1.76667 12.8555 1.76667 14.1 2.7ZM14.1 15.3L17.9166 12.4375L18.9333 13.2C19.4666 13.6 19.4666 14.4 18.9333 14.8L13.2 19.1C12.4888 19.6333 11.5111 19.6333 10.8 19.1L5.06663 14.8C4.53329 14.4 4.53329 13.6 5.06663 13.2L6.0833 12.4375L9.89996 15.3C11.1444 16.2333 12.8555 16.2333 14.1 15.3Z" />
</svg>
