<svg width="24" height="24" viewBox="0 0 24 24" fill="currentColor" xmlns="http://www.w3.org/2000/svg">
<path fill-rule="evenodd" d="M19.8333 7L14.1 2.7C12.8555 1.76667 11.1444 1.76667 9.89996 2.7L4.16663 7C2.83329 8 2.83329 10 4.16663 11L4.8333 11.5L4.16663 12C2.83329 13 2.83329 15 4.16663 16L9.89996 20.3C11.1444 21.2333 12.8555 21.2333 14.1 20.3L19.8333 16C21.1666 15 21.1666 13 19.8333 12L19.1666 11.5L19.8333 11C21.1666 10 21.1666 8 19.8333 7ZM17.9166 12.4375L14.1 15.3C12.8555 16.2333 11.1444 16.2333 9.89996 15.3L6.0833 12.4375L5.06663 13.2C4.53329 13.6 4.53329 14.4 5.06663 14.8L10.8 19.1C11.5111 19.6333 12.4888 19.6333 13.2 19.1L18.9333 14.8C19.4666 14.4 19.4666 13.6 18.9333 13.2L17.9166 12.4375ZM10.8 3.9C11.5111 3.36667 12.4888 3.36667 13.2 3.9L18.9333 8.2C19.4666 8.6 19.4666 9.4 18.9333 9.8L13.2 14.1C12.4888 14.6333 11.5111 14.6333 10.8 14.1L5.06663 9.8C4.53329 9.4 4.53329 8.6 5.06663 8.2L10.8 3.9Z" />
</svg>
