<?xml version="1.0" encoding="UTF-8"?>
<svg width="24px" height="24px" viewBox="0 0 24 24" version="1.1" xmlns="http://www.w3.org/2000/svg" xmlns:xlink="http://www.w3.org/1999/xlink">
    <title>Icon/Checklist A/Filled</title>
    <g id="💎-Icons" stroke="none" stroke-width="1" fill="none" fill-rule="evenodd">
        <g id="Icon/Checklist-A/Filled" fill="#FFFFFF">
            <path d="M12.8588933,4 C14.8727908,4 15.9527593,4.27847683 16.9305371,4.80139811 C17.9083149,5.32431939 18.6756806,6.09168511 19.1986019,7.06946289 C19.7215232,8.04724067 20,9.12720916 20,11.1411067 L20,12.8588933 C20,14.8727908 19.7215232,15.9527593 19.1986019,16.9305371 C18.6756806,17.9083149 17.9083149,18.6756806 16.9305371,19.1986019 C15.9527593,19.7215232 14.8727908,20 12.8588933,20 L11.1411067,20 C9.12720916,20 8.04724067,19.7215232 7.06946289,19.1986019 C6.09168511,18.6756806 5.32431939,17.9083149 4.80139811,16.9305371 C4.27847683,15.9527593 4,14.8727908 4,12.8588933 L4,10.8736462 C4,9.18070126 4.27847683,8.04724067 4.80139811,7.06946289 C5.32431939,6.09168511 6.09168511,5.32431939 7.06946289,4.80139811 C8.04724067,4.27847683 9.18070126,4 10.8736462,4 L12.8588933,4 Z M16.8310773,7.60309714 C16.314417,7.14521778 15.5243966,7.19286911 15.0665172,7.70952935 L10.6492577,12.6945933 L8.8718555,10.9269257 C8.38244107,10.4400327 7.59098748,10.4420767 7.10409444,10.9314911 C6.61720139,11.4209055 6.61924538,12.2123591 7.1086598,12.6992521 L9.824237,15.4008391 C10.3337273,15.9077047 11.1646693,15.8815936 11.641331,15.3437398 L16.9375095,9.36765719 C17.3953888,8.85099695 17.3477375,8.0609765 16.8310773,7.60309714 Z" id="Shape"></path>
        </g>
    </g>
</svg>