<?xml version="1.0" encoding="UTF-8"?>
<svg width="24px" height="24px" viewBox="0 0 24 24" version="1.1" xmlns="http://www.w3.org/2000/svg" xmlns:xlink="http://www.w3.org/1999/xlink">
    <title>Icon/Checklist A/Outline</title>
    <g id="💎-Icons" stroke="none" stroke-width="1" fill="none" fill-rule="evenodd">
        <g id="Icon/Checklist-A/Outline" fill="#FFFFFF">
            <path d="M12.8588933,3.25 C14.8637394,3.25 16.1075088,3.51071749 17.2842363,4.14003821 C18.3927154,4.73285934 19.2671407,5.60728461 19.8599618,6.71576375 C20.4892825,7.89249119 20.75,9.13626061 20.75,11.1411067 L20.75,12.8588933 C20.75,14.8637394 20.4892825,16.1075088 19.8599618,17.2842363 C19.2671407,18.3927154 18.3927154,19.2671407 17.2842363,19.8599618 C16.1075088,20.4892825 14.8637394,20.75 12.8588933,20.75 L11.1411067,20.75 C9.13626061,20.75 7.89249119,20.4892825 6.71576375,19.8599618 C5.60728461,19.2671407 4.73285934,18.3927154 4.14003821,17.2842363 C3.51071749,16.1075088 3.25,14.8637394 3.25,12.8588933 L3.25,10.8736462 C3.25,9.13395361 3.52897854,7.85834598 4.14003821,6.71576375 C4.73285934,5.60728461 5.60728461,4.73285934 6.71576375,4.14003821 C7.85834598,3.52897854 9.13395361,3.25 10.8736462,3.25 L12.8588933,3.25 Z M12.8588933,4.75 L10.8736462,4.75 C9.36730191,4.75 8.33289546,4.97622725 7.42316203,5.46275801 C6.57608561,5.91577944 5.91577944,6.57608561 5.46275801,7.42316203 C4.97622725,8.33289546 4.75,9.36730191 4.75,10.8736462 L4.75,12.8588933 C4.75,14.6333193 4.96056005,15.6378094 5.46275801,16.576838 C5.91577944,17.4239144 6.57608561,18.0842206 7.42316203,18.537242 C8.36219058,19.03944 9.36668072,19.25 11.1411067,19.25 L12.8588933,19.25 C14.6333193,19.25 15.6378094,19.03944 16.576838,18.537242 C17.4239144,18.0842206 18.0842206,17.4239144 18.537242,16.576838 C19.03944,15.6378094 19.25,14.6333193 19.25,12.8588933 L19.25,11.1411067 C19.25,9.36668072 19.03944,8.36219058 18.537242,7.42316203 C18.0842206,6.57608561 17.4239144,5.91577944 16.576838,5.46275801 C15.6378094,4.96056005 14.6333193,4.75 12.8588933,4.75 Z" id="Shape"></path>
        </g>
    </g>
</svg>