<?xml version="1.0" encoding="UTF-8"?>
<svg width="24px" height="24px" viewBox="0 0 24 24" version="1.1" xmlns="http://www.w3.org/2000/svg" xmlns:xlink="http://www.w3.org/1999/xlink">
    <title>Icon/Hashtag/Filled</title>
    <g id="Icon/Hashtag/Filled" stroke="none" stroke-width="1" fill="none" fill-rule="evenodd">
        <path d="M9.88273498,3 L10.0081729,3.00779142 C10.5012498,3.06949802 10.882735,3.49019869 10.882735,4 L10.8812047,4.05530039 L10.8812047,4.05530039 L10.7036131,5.66748217 L10.6962736,5.8 L10.6962736,5.8 C10.6962736,6.41540301 11.1595218,6.92260859 11.7563282,6.99192672 L11.8962736,7 L13.4815042,7 C14.045928,7 14.5270345,6.60824932 14.6508208,6.06999236 L14.6741647,5.93251783 L14.9011591,3.88956847 L14.9228043,3.76567936 C15.0186858,3.36631438 15.3511535,3.06560608 15.7571945,3.00945807 L15.8950428,3 L16.882735,3 L17.0081729,3.00779142 C17.5012498,3.06949802 17.882735,3.49019869 17.882735,4 L17.8812047,4.05530039 L17.8812047,4.05530039 L17.7036131,5.66748217 C17.6987238,5.71148556 17.6962736,5.75572582 17.6962736,5.8 C17.6962736,6.41540301 18.1595218,6.92260859 18.7563282,6.99192672 L18.8962736,7 L20,7 L20.1254379,7.00779142 C20.5774251,7.06435581 20.9356442,7.42257493 20.9922086,7.87456212 L21,8 L21,9 L20.9922086,9.12543788 C20.9413006,9.53222635 20.6460523,9.86306269 20.2580131,9.96639751 L20.1254379,9.99220858 L20,10 L18.2962736,10 C17.7318498,10 17.2507433,10.3917507 17.1269569,10.9300076 L17.1036131,11.0674822 L16.9258353,12.6674822 L16.9184958,12.8 L16.9184958,12.8 C16.9184958,13.415403 17.381744,13.9226086 17.9785504,13.9919267 L18.1184958,14 L19,14 L19.1254379,14.0077914 C19.5774251,14.0643558 19.9356442,14.4225749 19.9922086,14.8745621 L20,15 L20,16 L19.9922086,16.1254379 C19.9413006,16.5322264 19.6460523,16.8630627 19.2580131,16.9663975 L19.1254379,16.9922086 L19,17 L17.5184958,17 C16.954072,17 16.4729655,17.3917507 16.3491792,17.9300076 L16.3258353,18.0674822 L16.0988409,20.1104315 L16.0742179,20.2463923 C15.9847563,20.5995985 15.7096633,20.8736893 15.3634282,20.966192 L15.2304789,20.9921684 L15.1049572,21 L14.117265,21 L13.9918271,20.9922086 C13.4987502,20.930502 13.117265,20.5098013 13.117265,20 L13.1187953,19.9446996 L13.1187953,19.9446996 L13.2963869,18.3325178 L13.3037264,18.2 L13.3037264,18.2 C13.3037264,17.584597 12.8404782,17.0773914 12.2436718,17.0080733 L12.1037264,17 L10.5184958,17 C9.95407205,17 9.4729655,17.3917507 9.34917916,17.9300076 L9.32583531,18.0674822 L9.09884094,20.1104315 L9.07421792,20.2463923 C8.9847563,20.5995985 8.70966333,20.8736893 8.36342824,20.966192 L8.2304789,20.9921684 L8.10495721,21 L7.11726502,21 L6.99182714,20.9922086 C6.4987502,20.930502 6.11726502,20.5098013 6.11726502,20 L6.11879525,19.9446996 L6.11879525,19.9446996 L6.29638691,18.3325178 C6.30127617,18.2885144 6.30372643,18.2442742 6.30372643,18.2 C6.30372643,17.584597 5.8404782,17.0773914 5.24367178,17.0080733 L5.10372643,17 L4,17 L3.87456212,16.9922086 C3.42257493,16.9356442 3.06435581,16.5774251 3.00779142,16.1254379 L3,16 L3,15 L3.00779142,14.8745621 C3.06435581,14.4225749 3.42257493,14.0643558 3.87456212,14.0077914 L4,14 L5.70372643,14 C6.26815017,14 6.74925672,13.6082493 6.87304306,13.0699924 L6.89638691,12.9325178 L7.07416469,11.3325178 L7.0815042,11.2 L7.0815042,11.2 C7.0815042,10.584597 6.61825598,10.0773914 6.02144955,10.0080733 L5.8815042,10 L5,10 L4.87456212,9.99220858 C4.42257493,9.93564419 4.06435581,9.57742507 4.00779142,9.12543788 L4,9 L4,8 L4.00779142,7.87456212 C4.06435581,7.42257493 4.42257493,7.06435581 4.87456212,7.00779142 L5,7 L6.4815042,7 C7.04592795,7 7.5270345,6.60824932 7.65082084,6.06999236 L7.67416469,5.93251783 L7.90115906,3.88956847 L7.92280434,3.76567936 C8.01868577,3.36631438 8.35115348,3.06560608 8.75719447,3.00945807 L8.89504279,3 L9.88273498,3 Z M12.9478647,10.0018363 L11.2962736,10 C10.6848145,10 10.1711374,10.459763 10.1036131,11.0674822 L9.92583531,12.6674822 C9.85264774,13.3261704 10.3272898,13.9194729 10.985978,13.9926605 L11.0521353,13.9981637 L11.0521353,13.9981637 L12.7037264,14 C13.3151855,14 13.8288626,13.540237 13.8963869,12.9325178 L14.0741647,11.3325178 C14.1473523,10.6738296 13.6727102,10.0805271 13.014022,10.0073395 L12.9478647,10.0018363 L12.9478647,10.0018363 Z" id="Shape" fill="#FFFFFF"></path>
    </g>
</svg>