<?xml version="1.0" encoding="UTF-8"?>
<svg width="24px" height="24px" viewBox="0 0 24 24" version="1.1" xmlns="http://www.w3.org/2000/svg" xmlns:xlink="http://www.w3.org/1999/xlink">
    <title>Icon/Hashtag/Outline</title>
    <g id="Icon/Hashtag/Outline" stroke="none" stroke-width="1" fill="none" fill-rule="evenodd">
        <path d="M10.2356125,3 C11.5242769,3 12.5689458,4.04466892 12.5689458,5.33333333 L12.5653753,5.46236757 L12.5546745,5.59100689 L12.472,6.333 L12.786,6.333 L12.9268069,5.07565977 C13.0458698,4.00409426 13.8783103,3.16910401 14.9190047,3.02279644 L15.0849818,3.00548428 L15.245869,3 L16.0689458,3 C17.3576102,3 18.4022792,4.04466892 18.4022792,5.33333333 L18.3987086,5.46236757 L18.3880079,5.59100689 L18.305,6.333 L18.6666667,6.33333333 C19.8479424,6.33333333 20.8241941,7.21114541 20.9786994,8.35004715 L20.9946169,8.50691234 L21,8.66666667 L21,9.5 C21,10.7349701 20.0405732,11.745854 18.826421,11.8279503 L18.6666667,11.8333333 L17.694,11.833 L17.657,12.166 L17.8333333,12.1666667 C19.014609,12.1666667 19.9908608,13.0444787 20.1453661,14.1833805 L20.1612836,14.3402457 L20.1666667,14.5 L20.1666667,15.3333333 C20.1666667,16.5683034 19.2072398,17.5791873 17.9930877,17.6612836 L17.8333333,17.6666667 L17.046,17.666 L16.9065264,18.9243402 C16.7874636,19.9959057 15.9550231,20.830896 14.9143287,20.9772036 L14.7483515,20.9945157 L14.5874643,21 L13.7643875,21 C12.4757231,21 11.4310542,19.9553311 11.4310542,18.6666667 L11.4346247,18.5376324 L11.4453255,18.4089931 L11.527,17.666 L11.213,17.666 L11.0731931,18.9243402 C10.9541302,19.9959057 10.1216897,20.830896 9.08099535,20.9772036 L8.91501818,20.9945157 L8.75413101,21 L7.93105418,21 C6.64238976,21 5.59772085,19.9553311 5.59772085,18.6666667 L5.6012914,18.5376324 L5.61199213,18.4089931 L5.694,17.666 L5.33333333,17.6666667 C4.15205762,17.6666667 3.1758059,16.7888546 3.02130058,15.6499528 L3.00538306,15.4930877 L3,15.3333333 L3,14.5 C3,13.2650299 3.95942684,12.254146 5.17357901,12.1720497 L5.33333333,12.1666667 L6.305,12.166 L6.342,11.833 L6.16666667,11.8333333 C4.98539095,11.8333333 4.00913923,10.9555213 3.85463392,9.81661951 L3.8387164,9.65975432 L3.83333333,9.5 L3.83333333,8.66666667 C3.83333333,7.4316966 4.79276017,6.42081268 6.00691234,6.3387164 L6.16666667,6.33333333 L6.953,6.333 L7.09347361,5.07565977 C7.21253645,4.00409426 8.04497695,3.16910401 9.08567132,3.02279644 L9.25164848,3.00548428 L9.41253566,3 L10.2356125,3 Z M10.2356125,4.5 L9.41253566,4.5 C9.02329668,4.5 8.69111605,4.76828374 8.60233695,5.13806613 L8.58429922,5.24130706 L8.39513724,6.94376486 C8.33886694,7.45019754 7.91080272,7.83333333 7.4012535,7.83333333 L6.16666667,7.83333333 C5.74183224,7.83333333 5.39124835,8.15123765 5.33982618,8.5621351 L5.33333333,8.66666667 L5.33333333,9.5 C5.33333333,9.92483442 5.65123765,10.2754183 6.0621351,10.3268405 L6.16666667,10.3333333 L6.9012535,10.3333333 C7.45353825,10.3333333 7.9012535,10.7810486 7.9012535,11.3333333 L7.89513724,11.4437649 L7.89513724,11.4437649 L7.74698909,12.7770982 C7.69071879,13.2835309 7.26265457,13.6666667 6.75310536,13.6666667 L5.33333333,13.6666667 C4.90849891,13.6666667 4.55791502,13.984571 4.50649285,14.3954684 L4.5,14.5 L4.5,15.3333333 C4.5,15.7581678 4.81790432,16.1087516 5.22880177,16.1601738 L5.33333333,16.1666667 L6.25310536,16.1666667 C6.8053901,16.1666667 7.25310536,16.6143819 7.25310536,17.1666667 L7.25157512,17.2219671 L7.25157512,17.2219671 L7.10281773,18.5746404 C7.09942241,18.6051983 7.09772085,18.6359207 7.09772085,18.6666667 C7.09772085,19.0915011 7.41562517,19.442085 7.82652262,19.4935072 L7.93105418,19.5 L8.75413101,19.5 L8.85873242,19.4934736 C9.19832466,19.4508132 9.477978,19.2031244 9.56184826,18.8719936 L9.58236745,18.7586929 L9.77152943,17.0562351 C9.82779973,16.5498025 10.2558639,16.1666667 10.7654132,16.1666667 L12.0864387,16.1666667 C12.6387234,16.1666667 13.0864387,16.6143819 13.0864387,17.1666667 L13.0803224,17.2770982 L13.0803224,17.2770982 L12.9361511,18.5746404 C12.9327557,18.6051983 12.9310542,18.6359207 12.9310542,18.6666667 C12.9310542,19.0915011 13.2489585,19.442085 13.659856,19.4935072 L13.7643875,19.5 L14.5874643,19.5 L14.6920658,19.4934736 C15.031658,19.4508132 15.3113113,19.2031244 15.3951816,18.8719936 L15.4157008,18.7586929 L15.6048628,17.0562351 C15.6611331,16.5498025 16.0891973,16.1666667 16.5987465,16.1666667 L17.8333333,16.1666667 L17.9378649,16.1601738 C18.3145209,16.1130368 18.6130368,15.8145209 18.6601738,15.4378649 L18.6666667,15.3333333 L18.6666667,14.5 C18.6666667,14.0751656 18.3487623,13.7245817 17.9378649,13.6731595 L17.8333333,13.6666667 L17.0987465,13.6666667 C16.5464617,13.6666667 16.0987465,13.2189514 16.0987465,12.6666667 L16.1048628,12.5562351 L16.1048628,12.5562351 L16.2530109,11.2229018 C16.3092812,10.7164691 16.7373454,10.3333333 17.2468946,10.3333333 L18.6666667,10.3333333 L18.7711982,10.3268405 C19.1478542,10.2797035 19.4463702,9.98118756 19.4935072,9.60453156 L19.5,9.5 L19.5,8.66666667 C19.5,8.24183224 19.1820957,7.89124835 18.7711982,7.83982618 L18.6666667,7.83333333 L17.7468946,7.83333333 C17.1946099,7.83333333 16.7468946,7.38561808 16.7468946,6.83333333 L16.7484249,6.77803295 L16.7484249,6.77803295 L16.8971823,5.42535961 C16.9005776,5.39480169 16.9022792,5.36407929 16.9022792,5.33333333 C16.9022792,4.90849891 16.5843748,4.55791502 16.1734774,4.50649285 L16.0689458,4.5 L15.245869,4.5 C14.85663,4.5 14.5244494,4.76828374 14.4356703,5.13806613 L14.4176325,5.24130706 L14.2284706,6.94376486 C14.1722003,7.45019754 13.7441361,7.83333333 13.2345868,7.83333333 L11.9135613,7.83333333 C11.3612766,7.83333333 10.9135613,7.38561808 10.9135613,6.83333333 L10.9196776,6.72290181 L10.9196776,6.72290181 L11.0638489,5.42535961 C11.0672443,5.39480169 11.0689458,5.36407929 11.0689458,5.33333333 C11.0689458,4.90849891 10.7510415,4.55791502 10.340144,4.50649285 L10.2356125,4.5 Z M11.4135613,10.3333333 L12.7345868,10.3333333 C12.771482,10.3333333 12.8083489,10.3353752 12.8450184,10.3394496 C13.3547176,10.3960828 13.7321727,10.8264381 13.7346626,11.3271141 L13.7284706,11.4437649 L13.5803224,12.7770982 C13.5283806,13.2445745 13.159644,13.6069931 12.7024484,13.6599837 L12.5864387,13.6666667 L11.2654132,13.6666667 C11.228518,13.6666667 11.1916511,13.6646248 11.1549816,13.6605504 C10.6452824,13.6039172 10.2678273,13.1735619 10.2653374,12.6728859 L10.2715294,12.5562351 L10.4196776,11.2229018 C10.4716194,10.7554255 10.840356,10.3930069 11.2975516,10.3400163 L11.4135613,10.3333333 Z" id="Shape" fill="#FFFFFF"></path>
    </g>
</svg>