<svg width="21" height="20" viewBox="0 0 21 20" fill="none" xmlns="http://www.w3.org/2000/svg">
  <title>Edge icon</title>
  <path d="M18.5508 14.8855C18.2879 15.0233 18.0133 15.1466 17.7279 15.2538C16.87 15.576 15.9226 15.7587 14.9232 15.7587C11.2263 15.7587 8.00581 13.2156 8.00581 9.95229C8.00581 9.03467 8.53669 8.23931 9.28903 7.82034C5.94567 7.96051 5.08618 11.4454 5.08618 13.4868C5.08618 19.2581 10.4057 19.8438 11.5518 19.8438C12.1696 19.8438 13.1019 19.6639 13.6636 19.4877C13.6979 19.4763 13.732 19.4648 13.766 19.4531C15.9347 18.7051 17.7651 17.2338 18.9683 15.3265C19.1408 15.053 18.8374 14.7352 18.5508 14.8855Z" fill="#0E7FC7"/>
  <path opacity="0.35" d="M18.5508 14.8855C18.2879 15.0233 18.0133 15.1466 17.7279 15.2538C16.87 15.576 15.9226 15.7587 14.9232 15.7587C11.2263 15.7587 8.00581 13.2156 8.00581 9.95229C8.00581 9.03467 8.53669 8.23931 9.28903 7.82034C5.94567 7.96051 5.08618 11.4454 5.08618 13.4868C5.08618 19.2581 10.4057 19.8438 11.5518 19.8438C12.1696 19.8438 13.1019 19.6639 13.6636 19.4877C13.6979 19.4763 13.732 19.4648 13.766 19.4531C15.9347 18.7051 17.7651 17.2338 18.9683 15.3265C19.1408 15.053 18.8374 14.7352 18.5508 14.8855Z" fill="url(#paint0_radial_21580_98)"/>
  <path d="M8.75868 18.8604C8.06381 18.4297 7.4606 17.8617 6.98248 17.1905C6.24264 16.1518 5.80034 14.874 5.80034 13.4868C5.80034 11.4454 6.75093 9.63719 8.21621 8.49156C8.549 8.23138 8.9751 7.96895 9.28904 7.82034C9.53284 7.70493 9.94976 7.49711 10.5035 7.50496C11.4216 7.51798 12.1153 7.98603 12.5102 8.51764C12.8136 8.92609 13.0007 9.42929 13.0069 9.97554C13.0071 9.95912 14.9182 3.75645 6.75306 3.75645C3.32393 3.75645 0.5 7.01188 0.5 9.86702C0.5 11.6781 0.92026 13.124 1.44645 14.2446C2.61837 16.7406 4.7916 18.6726 7.45002 19.5237C8.41277 19.832 9.43834 20 10.5035 20C11.6083 20 12.67 19.8183 13.6636 19.4877C13.1019 19.6639 12.5064 19.7603 11.8887 19.7603C10.7425 19.7603 9.67417 19.4279 8.75868 18.8604Z" fill="url(#paint1_linear_21580_98)"/>
  <path opacity="0.41" d="M6.98248 17.1905C6.24264 16.1518 5.80034 14.874 5.80034 13.4868C5.80034 11.4454 6.75093 9.63719 8.21621 8.49156C8.549 8.23138 8.9751 7.96895 9.28904 7.82034C9.53284 7.70493 9.94976 7.49711 10.5035 7.50496C11.4216 7.51798 12.1153 7.98603 12.5102 8.51764C12.8136 8.92609 13.0007 9.42929 13.0069 9.97554C13.0071 9.95912 14.9182 3.75645 6.75306 3.75645C3.32393 3.75645 0.5 7.01188 0.5 9.86702C0.5 11.6781 0.92026 13.124 1.44645 14.2446C2.61837 16.7406 4.7916 18.6726 7.45002 19.5237C8.41277 19.832 9.43834 20 10.5035 20C11.6083 20 12.67 19.8183 13.6636 19.4877C13.1019 19.6639 12.5064 19.7603 11.8887 19.7603C10.7425 19.7603 9.67417 19.4279 8.75868 18.8604C8.06381 18.4297 7.4606 17.8617 6.98248 17.1905Z" fill="url(#paint2_radial_21580_98)"/>
  <path d="M12.3996 11.6295C12.3362 11.7115 12.1414 11.8246 12.1414 12.072C12.1414 12.2754 12.2743 12.4718 12.5103 12.6365C13.6338 13.4206 15.7514 13.3149 15.7571 13.3149C16.6313 13.3119 17.4177 13.0715 18.1222 12.6596C18.4427 12.4722 18.7393 12.2497 19.0067 11.9956C19.9245 11.1235 20.484 9.89446 20.4995 8.52894C20.5195 6.77772 19.8777 5.61349 19.6139 5.09797C17.9582 1.86218 14.3842 0 10.4983 0C5.02058 0 0.573964 4.40204 0.500458 9.85939C0.537592 7.00448 3.37497 4.69911 6.74779 4.69911C7.02127 4.69911 8.58076 4.72578 10.0295 5.4861C11.3056 6.15584 11.9746 6.96513 12.4396 7.76795C12.9225 8.60154 13.0084 9.65437 13.0084 10.0741C13.0084 10.4939 12.7967 11.1154 12.3996 11.6295Z" fill="url(#paint3_radial_21580_98)"/>
  <path d="M12.3996 11.6295C12.3362 11.7115 12.1414 11.8246 12.1414 12.072C12.1414 12.2754 12.2743 12.4718 12.5103 12.6365C13.6338 13.4206 15.7514 13.3149 15.7571 13.3149C16.6313 13.3119 17.4177 13.0715 18.1222 12.6596C18.4427 12.4722 18.7393 12.2497 19.0067 11.9956C19.9245 11.1235 20.484 9.89446 20.4995 8.52894C20.5195 6.77772 19.8777 5.61349 19.6139 5.09797C17.9582 1.86218 14.3842 0 10.4983 0C5.02058 0 0.573964 4.40204 0.500458 9.85939C0.537592 7.00448 3.37497 4.69911 6.74779 4.69911C7.02127 4.69911 8.58076 4.72578 10.0295 5.4861C11.3056 6.15584 11.9746 6.96513 12.4396 7.76795C12.9225 8.60154 13.0084 9.65437 13.0084 10.0741C13.0084 10.4939 12.7967 11.1154 12.3996 11.6295Z" fill="url(#paint4_radial_21580_98)"/>
  <defs>
    <radialGradient id="paint0_radial_21580_98" cx="0" cy="0" r="1" gradientUnits="userSpaceOnUse" gradientTransform="translate(18.1215 13.9362) rotate(175.919) scale(9.91016 8.56716)">
      <stop stop-opacity="0.01"/>
      <stop offset="0.460005" stop-opacity="0.53"/>
      <stop offset="1"/>
    </radialGradient>
    <linearGradient id="paint1_linear_21580_98" x1="8.59051" y1="2.41832" x2="-1.652" y2="9.74518" gradientUnits="userSpaceOnUse">
      <stop stop-color="#1B9DE2"/>
      <stop offset="0.16164" stop-color="#1595DF"/>
      <stop offset="0.66749" stop-color="#0680D7"/>
      <stop offset="1" stop-color="#0078D4"/>
    </linearGradient>
    <radialGradient id="paint2_radial_21580_98" cx="0" cy="0" r="1" gradientUnits="userSpaceOnUse" gradientTransform="translate(6.68482 10.7567) rotate(90.3784) scale(13.4778 10.9225)">
      <stop stop-opacity="0.01"/>
      <stop offset="0.354312" stop-opacity="0.5"/>
      <stop offset="1"/>
    </radialGradient>
    <radialGradient id="paint3_radial_21580_98" cx="0" cy="0" r="1" gradientUnits="userSpaceOnUse" gradientTransform="translate(2.47141 3.65667) rotate(24.1158) scale(20.1723 16.2484)">
      <stop stop-color="#35C1F1"/>
      <stop offset="0.11079" stop-color="#34C1ED"/>
      <stop offset="0.23164" stop-color="#2FC2DF"/>
      <stop offset="0.31446" stop-color="#2BC3D2"/>
      <stop offset="1" stop-color="#36C752"/>
    </radialGradient>
    <radialGradient id="paint4_radial_21580_98" cx="0" cy="0" r="1" gradientUnits="userSpaceOnUse" gradientTransform="translate(20.5 7.6231) rotate(73.6747) scale(7.60451 10.9162)">
      <stop stop-color="#66EB6E"/>
      <stop offset="1" stop-color="#66EB6E" stop-opacity="0.01"/>
    </radialGradient>
  </defs>
</svg>
