<?xml version="1.0" encoding="UTF-8"?>
<svg width="24px" height="24px" viewBox="0 0 24 24" version="1.1" xmlns="http://www.w3.org/2000/svg" xmlns:xlink="http://www.w3.org/1999/xlink">
    <title>Icon/Unread/Filled</title>
    <g id="Icon/Unread/Filled" stroke="none" stroke-width="1" fill="none" fill-rule="evenodd">
        <path d="M12.5,16 C13.0522847,16 13.5,16.4477153 13.5,17 C13.5,17.5128358 13.1139598,17.9355072 12.6166211,17.9932723 L12.5,18 L5.5,18 C4.94771525,18 4.5,17.5522847 4.5,17 C4.5,16.4871642 4.88604019,16.0644928 5.38337887,16.0067277 L5.5,16 L12.5,16 Z M18.5,11 C19.0522847,11 19.5,11.4477153 19.5,12 C19.5,12.5128358 19.1139598,12.9355072 18.6166211,12.9932723 L18.5,13 L5.5,13 C4.94771525,13 4.5,12.5522847 4.5,12 C4.5,11.4871642 4.88604019,11.0644928 5.38337887,11.0067277 L5.5,11 L18.5,11 Z M18.5,6 C19.0522847,6 19.5,6.44771525 19.5,7 C19.5,7.51283584 19.1139598,7.93550716 18.6166211,7.99327227 L18.5,8 L5.5,8 C4.94771525,8 4.5,7.55228475 4.5,7 C4.5,6.48716416 4.88604019,6.06449284 5.38337887,6.00672773 L5.5,6 L18.5,6 Z" id="Shape" fill="#FFFFFF"></path>
    </g>
</svg>