<?xml version="1.0" encoding="UTF-8"?>
<svg width="24px" height="24px" viewBox="0 0 24 24" version="1.1" xmlns="http://www.w3.org/2000/svg" xmlns:xlink="http://www.w3.org/1999/xlink">
    <title>Icon/Unread/Outline</title>
    <g id="Icon/Unread/Outline" stroke="none" stroke-width="1" fill="none" fill-rule="evenodd">
        <path d="M5.75,6 L18.25,6 C18.6642136,6 19,6.33578644 19,6.75 C19,7.16421356 18.6642136,7.5 18.25,7.5 L5.75,7.5 C5.33578644,7.5 5,7.16421356 5,6.75 C5,6.33578644 5.33578644,6 5.75,6 Z M5.75,11 L18.25,11 C18.6642136,11 19,11.3357864 19,11.75 C19,12.1642136 18.6642136,12.5 18.25,12.5 L5.75,12.5 C5.33578644,12.5 5,12.1642136 5,11.75 C5,11.3357864 5.33578644,11 5.75,11 Z M5.75,16 L12.25,16 C12.6642136,16 13,16.3357864 13,16.75 C13,17.1642136 12.6642136,17.5 12.25,17.5 L5.75,17.5 C5.33578644,17.5 5,17.1642136 5,16.75 C5,16.3357864 5.33578644,16 5.75,16 Z" id="Shape" fill="#FFFFFF"></path>
    </g>
</svg>