<?xml version="1.0" encoding="UTF-8"?>
<svg width="24px" height="24px" viewBox="0 0 24 24" version="1.1" xmlns="http://www.w3.org/2000/svg" xmlns:xlink="http://www.w3.org/1999/xlink">
    <title>Icon/Hunter/Filled</title>
    <g id="Icon/Hunter/Filled" stroke="none" stroke-width="1" fill="none" fill-rule="evenodd">
        <path d="M12,3 C12.5522847,3 13,3.44771525 13,4 L13.0010101,5.07103341 C16.066221,5.50993388 18.4906422,7.9346412 18.92911,10.9999918 L20,11 C20.5522847,11 21,11.4477153 21,12 C21,12.5522847 20.5522847,13 20,13 L18.9289666,13.0010101 C18.4901139,16.0658871 16.0658871,18.4901139 13.0010101,18.9289666 L13,20 C13,20.5522847 12.5522847,21 12,21 C11.4477153,21 11,20.5522847 11,20 L10.9999918,18.92911 C7.9346412,18.4906422 5.50993388,16.066221 5.07103341,13.0010101 L4,13 C3.44771525,13 3,12.5522847 3,12 C3,11.4477153 3.44771525,11 4,11 L5.07089004,10.9999918 C5.50940557,7.93430725 7.93430725,5.50940557 10.9999918,5.07089004 L11,4 C11,3.44771525 11.4477153,3 12,3 Z M13.0011864,7.10025909 L13,8 C13,8.55228475 12.5522847,9 12,9 C11.4477153,9 11,8.55228475 11,8 L10.999812,7.10005628 C9.04083357,7.49778658 7.49778658,9.04083357 7.10005628,10.999812 L8,11 C8.55228475,11 9,11.4477153 9,12 C9,12.5522847 8.55228475,13 8,13 L7.10025909,13.0011864 C7.49831091,14.9596907 9.04116639,16.502281 10.999812,16.8999437 L11,16 C11,15.4477153 11.4477153,15 12,15 C12.5522847,15 13,15.4477153 13,16 L13.0011864,16.8997409 C14.9593579,16.5017567 16.5017567,14.9593579 16.8997409,13.0011864 L16,13 C15.4477153,13 15,12.5522847 15,12 C15,11.4477153 15.4477153,11 16,11 L16.8999437,10.999812 C16.502281,9.04116639 14.9596907,7.49831091 13.0011864,7.10025909 Z M12,10.5 C12.8284271,10.5 13.5,11.1715729 13.5,12 C13.5,12.8284271 12.8284271,13.5 12,13.5 C11.1715729,13.5 10.5,12.8284271 10.5,12 C10.5,11.1715729 11.1715729,10.5 12,10.5 Z" id="Combined-Shape" fill="#FFFFFF"></path>
    </g>
</svg>