<?xml version="1.0" encoding="UTF-8"?>
<svg width="24px" height="24px" viewBox="0 0 24 24" version="1.1" xmlns="http://www.w3.org/2000/svg" xmlns:xlink="http://www.w3.org/1999/xlink">
    <title>Icon/Hunter/Outline</title>
    <g id="Icon/Hunter/Outline" stroke="none" stroke-width="1" fill="none" fill-rule="evenodd">
        <path d="M12,3 C12.5522847,3 13,3.44771525 13,4 L13.0009558,4.56621308 C16.3427415,5.01189778 18.9886747,7.65812004 19.4339203,11.0000446 L20,11 C20.5522847,11 21,11.4477153 21,12 C21,12.5522847 20.5522847,13 20,13 L19.4337869,13.0009558 C18.9881467,16.342408 16.342408,18.9881467 13.0009558,19.4337869 L13,20 C13,20.5522847 12.5522847,21 12,21 C11.4477153,21 11,20.5522847 11,20 L11.0000446,19.4339203 C7.65812004,18.9886747 5.01189778,16.3427415 4.56621308,13.0009558 L4,13 C3.44771525,13 3,12.5522847 3,12 C3,11.4477153 3.44771525,11 4,11 L4.56607973,11.0000446 C5.0113697,7.65778658 7.65778658,5.0113697 11.0000446,4.56607973 L11,4 C11,3.44771525 11.4477153,3 12,3 Z M13.0008069,6.08309386 L13,6.5 C13,7.05228475 12.5522847,7.5 12,7.5 C11.4477153,7.5 11,7.05228475 11,6.5 L11.0001915,6.08292631 C8.48753206,6.50438683 6.50438683,8.48753206 6.08292631,11.0001915 L6.5,11 C7.05228475,11 7.5,11.4477153 7.5,12 C7.5,12.5522847 7.05228475,13 6.5,13 L6.08309386,13.0008069 C6.50491217,15.5129932 8.48786487,17.495669 11.0001915,17.9170737 L11,17.5 C11,16.9477153 11.4477153,16.5 12,16.5 C12.5522847,16.5 13,16.9477153 13,17.5 L13.0008069,17.9169061 C15.5126605,17.4951437 17.4951437,15.5126605 17.9169061,13.0008069 L17.5,13 C16.9477153,13 16.5,12.5522847 16.5,12 C16.5,11.4477153 16.9477153,11 17.5,11 L17.9170737,11.0001915 C17.495669,8.48786487 15.5129932,6.50491217 13.0008069,6.08309386 Z M12,9 C13.6568542,9 15,10.3431458 15,12 C15,13.6568542 13.6568542,15 12,15 C10.3431458,15 9,13.6568542 9,12 C9,10.3431458 10.3431458,9 12,9 Z M12,10.5 C11.1715729,10.5 10.5,11.1715729 10.5,12 C10.5,12.8284271 11.1715729,13.5 12,13.5 C12.8284271,13.5 13.5,12.8284271 13.5,12 C13.5,11.1715729 12.8284271,10.5 12,10.5 Z" id="Shape" fill="#FFFFFF"></path>
    </g>
</svg>