<svg width="24" height="24" viewBox="0 0 24 24" fill="currentColor" xmlns="http://www.w3.org/2000/svg">
  <path d="M9.62462 6.32906C8.62472 6.13666 7.8408 5.36367 7.63431 4.36649L7.42477 3.35457C7.32583 2.87686 6.64178 2.88384 6.5466 3.36353L6.34504 4.37965C6.31093 4.55158 6.25975 4.71725 6.19331 4.87482L6.19125 4.87968C6.18602 4.892 6.18048 4.90417 6.17493 4.91633C6.17267 4.9213 6.17041 4.92626 6.16816 4.93124L6.1499 4.97202L6.09065 5.08966L6.05526 5.15337L5.94477 5.32889L5.84564 5.46337L5.72055 5.61011C5.59006 5.75197 5.44362 5.87884 5.28397 5.98786L5.18482 6.05468C4.93848 6.20769 4.66393 6.32011 4.37031 6.3827L3.35725 6.59863C2.879 6.70059 2.88169 7.38474 3.3607 7.47693L4.37538 7.67216C5.37528 7.86456 6.1592 8.63755 6.36569 9.63473L6.57523 10.6467C6.6214 10.8696 6.795 10.987 6.97671 11L7.05473 10.9992L7.13166 10.9857C7.28304 10.9458 7.41533 10.8296 7.4534 10.6377L7.65496 9.62157C7.74113 9.18712 7.93634 8.79266 8.21129 8.46788L8.23857 8.43618L8.38055 8.2865L8.50534 8.17286L8.60626 8.09118L8.75919 7.98235L8.92558 7.88176L9.06304 7.811C9.13586 7.77627 9.21061 7.74486 9.28708 7.71697L9.33545 7.69988C9.43106 7.66717 9.52926 7.63993 9.62969 7.61852L10.6428 7.40259C11.121 7.30063 11.1183 6.61648 10.6393 6.52429L9.62462 6.32906Z" />
  <path d="M6.45745 15.2452L12.9249 8.77772L17.2222 13.075L10.7563 19.5409L10.5569 19.7291C9.67402 20.5183 8.54917 20.9626 7.34084 20.9989L7.06058 21L5.04448 20.9555L5 18.9394L5.00109 18.6591C5.0401 17.3579 5.55227 16.1535 6.45745 15.2452Z" />
  <path d="M16.0362 5.67849C16.5827 5.21101 17.2712 4.98616 17.9645 5.00066L18.1551 5.01068C18.8539 5.06951 19.5447 5.37138 20.087 5.9129C21.2703 7.09767 21.3093 8.98629 20.1755 10.1217L18.6546 11.6426L14.3573 7.34533L15.8766 5.82602L16.0362 5.67849Z" />
</svg>
