<svg width="24" height="24" viewBox="0 0 24 24" fill="currentColor" xmlns="http://www.w3.org/2000/svg">
  <path d="M9.62462 6.32906C8.62472 6.13666 7.8408 5.36367 7.63431 4.36649L7.42477 3.35457C7.32583 2.87686 6.64178 2.88384 6.5466 3.36353L6.34504 4.37965C6.31093 4.55158 6.25975 4.71725 6.19331 4.87482L6.19125 4.87968C6.18602 4.892 6.18048 4.90417 6.17493 4.91633C6.17267 4.9213 6.17041 4.92626 6.16816 4.93124L6.1499 4.97202L6.09065 5.08966L6.05526 5.15337L5.94477 5.32889L5.84564 5.46337L5.72055 5.61011C5.59006 5.75197 5.44362 5.87884 5.28397 5.98786L5.18482 6.05468C4.93848 6.20769 4.66393 6.32011 4.37031 6.3827L3.35725 6.59863C2.879 6.70059 2.88169 7.38474 3.3607 7.47693L4.37538 7.67216C5.37528 7.86456 6.1592 8.63755 6.36569 9.63473L6.57523 10.6467C6.6214 10.8696 6.795 10.987 6.97671 11L7.05473 10.9992L7.13166 10.9857C7.28304 10.9458 7.41533 10.8296 7.4534 10.6377L7.65496 9.62157C7.74113 9.18712 7.93634 8.79266 8.21129 8.46788L8.23857 8.43618L8.38055 8.2865L8.50534 8.17286L8.60626 8.09118L8.75919 7.98235L8.92558 7.88176L9.06304 7.811C9.13586 7.77627 9.21061 7.74486 9.28708 7.71697L9.33545 7.69988C9.43106 7.66717 9.52926 7.63993 9.62969 7.61852L10.6428 7.40259C11.121 7.30063 11.1183 6.61648 10.6393 6.52429L9.62462 6.32906ZM8.09085 6.98513C7.65594 6.70583 7.28369 6.33853 6.99858 5.90738L6.93683 6.00548L6.78639 6.20955L6.61909 6.40583L6.60371 6.42254C6.41177 6.63119 6.19615 6.81806 5.96066 6.97886L5.95457 6.98299L5.90725 7.01488C6.34236 7.29393 6.71483 7.66102 7.0002 8.09199C7.0899 7.95216 7.18858 7.81873 7.29541 7.69253L7.30175 7.68511L7.34797 7.63139L7.54014 7.42881L7.72321 7.2621L7.8802 7.13503L8.09085 6.98513Z" />
  <path d="M19.7015 6.01046C18.1958 4.65273 15.8851 4.65141 14.4561 6.07833L6.6062 13.9283L6.4328 14.1103C5.47656 15.1609 4.96947 16.5308 5.00142 17.979L5.06663 20.9347L8.02232 20.9999L8.27708 21C9.71554 20.9688 11.0611 20.4037 12.0728 19.3954L19.9237 11.5445L20.0616 11.3987C21.3491 9.96241 21.3041 7.75576 19.9898 6.29874L19.8493 6.15075L19.7015 6.01046ZM7.54911 14.8712L12.9386 9.48168L16.5196 13.0627L11.1315 18.4509L10.9653 18.6077C10.2296 19.2654 9.29219 19.6357 8.28526 19.6659L8.05171 19.6668L6.37165 19.6297L6.33458 17.9496L6.33549 17.7161C6.368 16.6317 6.7948 15.6281 7.54911 14.8712ZM15.5314 6.89901C15.9868 6.50944 16.5605 6.32208 17.1383 6.33416L17.2971 6.3425C17.8794 6.39153 18.4551 6.64309 18.907 7.09435C19.8931 8.08165 19.9255 9.65548 18.9808 10.6016L17.7133 11.869L14.1323 8.28802L15.3984 7.02195L15.5314 6.89901Z" />
</svg>
